%TF.GenerationSoftware,KiCad,Pcbnew,7.0.8*%
%TF.CreationDate,2024-01-07T14:56:10-05:00*%
%TF.ProjectId,lineFollowerArray,6c696e65-466f-46c6-9c6f-776572417272,01*%
%TF.SameCoordinates,Original*%
%TF.FileFunction,Profile,NP*%
%FSLAX46Y46*%
G04 Gerber Fmt 4.6, Leading zero omitted, Abs format (unit mm)*
G04 Created by KiCad (PCBNEW 7.0.8) date 2024-01-07 14:56:10*
%MOMM*%
%LPD*%
G01*
G04 APERTURE LIST*
%TA.AperFunction,Profile*%
%ADD10C,0.120000*%
%TD*%
%TA.AperFunction,Profile*%
%ADD11C,0.050000*%
%TD*%
G04 APERTURE END LIST*
D10*
X131445000Y-97155000D02*
X147955000Y-97155000D01*
X165100000Y-114300000D02*
G75*
G03*
X147955000Y-97155000I-17145000J0D01*
G01*
X114300000Y-118110000D02*
X165100000Y-118110000D01*
X131445000Y-97155000D02*
G75*
G03*
X114300000Y-114300000I0J-17145000D01*
G01*
X165100000Y-118110000D02*
X165100000Y-114300000D01*
X114300000Y-118110000D02*
X114300000Y-114300000D01*
D11*
%TO.C,D3*%
X125950000Y-101765000D02*
X125950000Y-100165000D01*
X126300000Y-99815000D02*
X127700000Y-99815000D01*
X127700000Y-102115000D02*
X126300000Y-102115000D01*
X128050000Y-100165000D02*
X128050000Y-101765000D01*
X126300000Y-99815000D02*
G75*
G03*
X125950000Y-100165000I1J-350001D01*
G01*
X125950000Y-101765000D02*
G75*
G03*
X126300000Y-102115000I350001J1D01*
G01*
X128050000Y-100165000D02*
G75*
G03*
X127700000Y-99815000I-350000J0D01*
G01*
X127700000Y-102115000D02*
G75*
G03*
X128050000Y-101765000I0J350000D01*
G01*
%TO.C,D5*%
X150715000Y-101765000D02*
X150715000Y-100165000D01*
X151065000Y-99815000D02*
X152465000Y-99815000D01*
X152465000Y-102115000D02*
X151065000Y-102115000D01*
X152815000Y-100165000D02*
X152815000Y-101765000D01*
X151065000Y-99815000D02*
G75*
G03*
X150715000Y-100165000I1J-350001D01*
G01*
X150715000Y-101765000D02*
G75*
G03*
X151065000Y-102115000I350001J1D01*
G01*
X152815000Y-100165000D02*
G75*
G03*
X152465000Y-99815000I-350000J0D01*
G01*
X152465000Y-102115000D02*
G75*
G03*
X152815000Y-101765000I0J350000D01*
G01*
%TO.C,D4*%
X138650000Y-101765000D02*
X138650000Y-100165000D01*
X139000000Y-99815000D02*
X140400000Y-99815000D01*
X140400000Y-102115000D02*
X139000000Y-102115000D01*
X140750000Y-100165000D02*
X140750000Y-101765000D01*
X139000000Y-99815000D02*
G75*
G03*
X138650000Y-100165000I1J-350001D01*
G01*
X138650000Y-101765000D02*
G75*
G03*
X139000000Y-102115000I350001J1D01*
G01*
X140750000Y-100165000D02*
G75*
G03*
X140400000Y-99815000I-350000J0D01*
G01*
X140400000Y-102115000D02*
G75*
G03*
X140750000Y-101765000I0J350000D01*
G01*
%TD*%
M02*
