M48
; DRILL file {KiCad 7.0.8} date Sun Jan  7 13:32:49 2024
; FORMAT={-:-/ absolute / metric / decimal}
; #@! TF.CreationDate,2024-01-07T13:32:49-05:00
; #@! TF.GenerationSoftware,Kicad,Pcbnew,7.0.8
; #@! TF.FileFunction,Plated,1,2,PTH
FMAT,2
METRIC
; #@! TA.AperFunction,Plated,PTH,ViaDrill
T1C0.310
; #@! TA.AperFunction,Plated,PTH,ViaDrill
T2C0.350
; #@! TA.AperFunction,Plated,PTH,ViaDrill
T3C0.400
; #@! TA.AperFunction,Plated,PTH,ComponentDrill
T4C0.700
; #@! TA.AperFunction,Plated,PTH,ComponentDrill
T5C0.900
; #@! TA.AperFunction,Plated,PTH,ComponentDrill
T6C1.000
; #@! TA.AperFunction,Plated,PTH,ComponentDrill
T7C1.050
; #@! TA.AperFunction,Plated,PTH,ComponentDrill
T8C1.100
%
G90
G05
T1
X92.202Y-107.95
X92.202Y-109.22
X92.659Y-105.283
X92.837Y-108.585
X93.472Y-107.95
X93.472Y-109.22
X94.64Y-105.283
X106.426Y-104.648
X106.426Y-107.315
X107.442Y-104.648
X107.442Y-107.315
X109.474Y-104.648
X109.474Y-107.315
X110.49Y-104.648
X110.49Y-107.315
X111.506Y-104.648
X111.506Y-107.315
X112.522Y-104.648
X112.522Y-107.315
X118.643Y-105.791
X119.634Y-120.396
X119.634Y-121.412
X119.634Y-122.555
X119.634Y-123.571
X119.634Y-124.714
X119.634Y-125.73
X120.269Y-108.293
X120.282Y-110.426
X121.031Y-102.235
X121.031Y-103.251
X121.285Y-108.585
X122.809Y-108.585
X123.063Y-102.235
X123.063Y-103.251
X124.46Y-98.171
X124.714Y-115.57
X124.714Y-117.094
X124.968Y-114.046
X129.021Y-105.918
X129.021Y-107.823
X129.272Y-100.838
X129.921Y-105.918
X129.921Y-107.823
X132.715Y-97.917
X133.731Y-98.933
X151.257Y-91.694
T2
X87.63Y-111.252
X89.281Y-108.585
X90.17Y-106.934
X90.17Y-110.236
X97.727Y-107.061
X108.458Y-104.14
X108.458Y-107.696
X113.538Y-112.903
X135.509Y-93.091
T3
X105.219Y-108.712
X113.538Y-114.427
T5
X129.445Y-127.0
X131.445Y-127.0
X133.445Y-127.0
T6
X90.17Y-94.02
X90.17Y-99.02
X90.17Y-116.88
X90.17Y-121.88
X123.063Y-88.265
X127.381Y-121.031
T7
X102.87Y-87.63
X102.87Y-90.17
X102.87Y-92.71
X102.87Y-95.25
X102.87Y-97.79
X102.87Y-100.33
X102.87Y-102.87
X118.11Y-87.63
X118.11Y-90.17
X118.11Y-92.71
X118.11Y-95.25
X118.11Y-97.79
X118.11Y-100.33
X118.11Y-102.87
X132.08Y-105.41
X132.08Y-107.95
X132.08Y-110.49
X132.08Y-113.03
T8
X137.709Y-96.2
X137.709Y-108.9
T4
G00X127.345Y-126.6
M15
G01X127.345Y-127.4
M16
G05
G00X135.545Y-126.6
M15
G01X135.545Y-127.4
M16
G05
T0
M30
