%TF.GenerationSoftware,KiCad,Pcbnew,7.0.8*%
%TF.CreationDate,2024-01-07T13:32:43-05:00*%
%TF.ProjectId,destinationAutomation_v4.5,64657374-696e-4617-9469-6f6e4175746f,02*%
%TF.SameCoordinates,Original*%
%TF.FileFunction,Copper,L1,Top*%
%TF.FilePolarity,Positive*%
%FSLAX46Y46*%
G04 Gerber Fmt 4.6, Leading zero omitted, Abs format (unit mm)*
G04 Created by KiCad (PCBNEW 7.0.8) date 2024-01-07 13:32:43*
%MOMM*%
%LPD*%
G01*
G04 APERTURE LIST*
G04 Aperture macros list*
%AMFreePoly0*
4,1,19,0.550000,-0.750000,0.000000,-0.750000,0.000000,-0.744911,-0.071157,-0.744911,-0.207708,-0.704816,-0.327430,-0.627875,-0.420627,-0.520320,-0.479746,-0.390866,-0.500000,-0.250000,-0.500000,0.250000,-0.479746,0.390866,-0.420627,0.520320,-0.327430,0.627875,-0.207708,0.704816,-0.071157,0.744911,0.000000,0.744911,0.000000,0.750000,0.550000,0.750000,0.550000,-0.750000,0.550000,-0.750000,
$1*%
%AMFreePoly1*
4,1,19,0.000000,0.744911,0.071157,0.744911,0.207708,0.704816,0.327430,0.627875,0.420627,0.520320,0.479746,0.390866,0.500000,0.250000,0.500000,-0.250000,0.479746,-0.390866,0.420627,-0.520320,0.327430,-0.627875,0.207708,-0.704816,0.071157,-0.744911,0.000000,-0.744911,0.000000,-0.750000,-0.550000,-0.750000,-0.550000,0.750000,0.000000,0.750000,0.000000,0.744911,0.000000,0.744911,
$1*%
%AMFreePoly2*
4,1,9,-0.250000,0.372500,0.250000,0.372500,0.250000,0.750000,0.500000,0.750000,0.500000,-0.250000,-0.500000,-0.250000,-0.500000,0.750000,-0.250000,0.750000,-0.250000,0.372500,-0.250000,0.372500,$1*%
G04 Aperture macros list end*
%TA.AperFunction,SMDPad,CuDef*%
%ADD10R,0.820000X0.929000*%
%TD*%
%TA.AperFunction,SMDPad,CuDef*%
%ADD11R,0.970000X0.871000*%
%TD*%
%TA.AperFunction,SMDPad,CuDef*%
%ADD12R,0.871000X0.970000*%
%TD*%
%TA.AperFunction,ComponentPad*%
%ADD13C,2.000000*%
%TD*%
%TA.AperFunction,SMDPad,CuDef*%
%ADD14FreePoly0,180.000000*%
%TD*%
%TA.AperFunction,SMDPad,CuDef*%
%ADD15R,1.000000X1.500000*%
%TD*%
%TA.AperFunction,SMDPad,CuDef*%
%ADD16FreePoly1,180.000000*%
%TD*%
%TA.AperFunction,SMDPad,CuDef*%
%ADD17R,1.115000X1.465000*%
%TD*%
%TA.AperFunction,ComponentPad*%
%ADD18O,1.300000X2.100000*%
%TD*%
%TA.AperFunction,ComponentPad*%
%ADD19C,1.500000*%
%TD*%
%TA.AperFunction,SMDPad,CuDef*%
%ADD20R,1.500000X3.400000*%
%TD*%
%TA.AperFunction,SMDPad,CuDef*%
%ADD21R,1.000000X3.500000*%
%TD*%
%TA.AperFunction,SMDPad,CuDef*%
%ADD22C,2.000000*%
%TD*%
%TA.AperFunction,ComponentPad*%
%ADD23C,1.750000*%
%TD*%
%TA.AperFunction,ComponentPad*%
%ADD24C,1.600000*%
%TD*%
%TA.AperFunction,SMDPad,CuDef*%
%ADD25R,1.000000X1.550000*%
%TD*%
%TA.AperFunction,SMDPad,CuDef*%
%ADD26R,0.760000X0.790000*%
%TD*%
%TA.AperFunction,SMDPad,CuDef*%
%ADD27C,1.000000*%
%TD*%
%TA.AperFunction,SMDPad,CuDef*%
%ADD28R,0.790000X0.760000*%
%TD*%
%TA.AperFunction,SMDPad,CuDef*%
%ADD29R,0.929000X0.820000*%
%TD*%
%TA.AperFunction,SMDPad,CuDef*%
%ADD30R,2.914000X1.579000*%
%TD*%
%TA.AperFunction,SMDPad,CuDef*%
%ADD31R,1.800000X1.200000*%
%TD*%
%TA.AperFunction,SMDPad,CuDef*%
%ADD32R,1.550000X0.600000*%
%TD*%
%TA.AperFunction,SMDPad,CuDef*%
%ADD33R,0.550000X0.250000*%
%TD*%
%TA.AperFunction,SMDPad,CuDef*%
%ADD34R,0.350000X1.000000*%
%TD*%
%TA.AperFunction,SMDPad,CuDef*%
%ADD35FreePoly2,180.000000*%
%TD*%
%TA.AperFunction,SMDPad,CuDef*%
%ADD36R,1.700000X0.900000*%
%TD*%
%TA.AperFunction,SMDPad,CuDef*%
%ADD37FreePoly0,0.000000*%
%TD*%
%TA.AperFunction,SMDPad,CuDef*%
%ADD38FreePoly1,0.000000*%
%TD*%
%TA.AperFunction,SMDPad,CuDef*%
%ADD39R,0.906000X0.337000*%
%TD*%
%TA.AperFunction,SMDPad,CuDef*%
%ADD40R,0.337000X0.906000*%
%TD*%
%TA.AperFunction,SMDPad,CuDef*%
%ADD41R,1.050000X1.050000*%
%TD*%
%TA.AperFunction,SMDPad,CuDef*%
%ADD42R,1.185000X2.215000*%
%TD*%
%TA.AperFunction,ComponentPad*%
%ADD43C,1.800000*%
%TD*%
%TA.AperFunction,ViaPad*%
%ADD44C,1.000000*%
%TD*%
%TA.AperFunction,ViaPad*%
%ADD45C,0.700000*%
%TD*%
%TA.AperFunction,Conductor*%
%ADD46C,0.200000*%
%TD*%
%TA.AperFunction,Conductor*%
%ADD47C,0.300000*%
%TD*%
%TA.AperFunction,Conductor*%
%ADD48C,0.750000*%
%TD*%
%TA.AperFunction,Conductor*%
%ADD49C,0.500000*%
%TD*%
%TA.AperFunction,Conductor*%
%ADD50C,0.600000*%
%TD*%
%TA.AperFunction,Conductor*%
%ADD51C,0.250000*%
%TD*%
G04 APERTURE END LIST*
D10*
%TO.P,R1,1*%
%TO.N,+5V_A*%
X123945000Y-114046000D03*
%TO.P,R1,2*%
%TO.N,/FB*%
X122435000Y-114046000D03*
%TD*%
%TO.P,R3,1*%
%TO.N,/COMP*%
X121292000Y-112522000D03*
%TO.P,R3,2*%
%TO.N,Net-(C7-Pad1)*%
X122802000Y-112522000D03*
%TD*%
D11*
%TO.P,C12,1*%
%TO.N,Net-(D1-K)*%
X96393000Y-109359000D03*
%TO.P,C12,2*%
%TO.N,Net-(U3-VCP)*%
X96393000Y-110859000D03*
%TD*%
%TO.P,C14,1*%
%TO.N,Net-(U3-VINT)*%
X96393000Y-106311000D03*
%TO.P,C14,2*%
%TO.N,GND*%
X96393000Y-107811000D03*
%TD*%
D12*
%TO.P,C4,1*%
%TO.N,VCC*%
X116193000Y-114427000D03*
%TO.P,C4,2*%
%TO.N,GND*%
X114693000Y-114427000D03*
%TD*%
D13*
%TO.P,TP12,1,1*%
%TO.N,GND*%
X127381000Y-121031000D03*
%TD*%
D14*
%TO.P,JP2,1,A*%
%TO.N,+3V3*%
X128173000Y-98171000D03*
D15*
%TO.P,JP2,2,C*%
%TO.N,/OLED2*%
X126873000Y-98171000D03*
D16*
%TO.P,JP2,3,B*%
%TO.N,GND*%
X125573000Y-98171000D03*
%TD*%
D17*
%TO.P,C11,1*%
%TO.N,+5V_A*%
X117768000Y-107188000D03*
%TO.P,C11,2*%
%TO.N,GND*%
X119468000Y-107188000D03*
%TD*%
D11*
%TO.P,C7,1*%
%TO.N,Net-(C7-Pad1)*%
X122809000Y-111113000D03*
%TO.P,C7,2*%
%TO.N,GND*%
X122809000Y-109613000D03*
%TD*%
D18*
%TO.P,SW1,*%
%TO.N,*%
X127345000Y-127000000D03*
X135545000Y-127000000D03*
D19*
%TO.P,SW1,1,A*%
%TO.N,VCC*%
X129445000Y-127000000D03*
%TO.P,SW1,2,B*%
%TO.N,Net-(J1-Pin_1)*%
X131445000Y-127000000D03*
%TO.P,SW1,3,C*%
%TO.N,unconnected-(SW1-C-Pad3)*%
X133445000Y-127000000D03*
%TD*%
D12*
%TO.P,C6,1*%
%TO.N,Net-(U2-VCC)*%
X122440000Y-117094000D03*
%TO.P,C6,2*%
%TO.N,GND*%
X123940000Y-117094000D03*
%TD*%
D17*
%TO.P,C10,1*%
%TO.N,+5V_A*%
X117768000Y-109347000D03*
%TO.P,C10,2*%
%TO.N,GND*%
X119468000Y-109347000D03*
%TD*%
D11*
%TO.P,C8,1*%
%TO.N,/COMP*%
X121285000Y-111113000D03*
%TO.P,C8,2*%
%TO.N,GND*%
X121285000Y-109613000D03*
%TD*%
D20*
%TO.P,J2,*%
%TO.N,*%
X136700000Y-87331000D03*
X130000000Y-87331000D03*
D21*
%TO.P,J2,1,Pin_1*%
%TO.N,GND*%
X134350000Y-93081000D03*
%TO.P,J2,2,Pin_2*%
%TO.N,/Vout_D*%
X132350000Y-93081000D03*
%TD*%
D22*
%TO.P,TP2,1,1*%
%TO.N,VCC*%
X122936000Y-126746000D03*
%TD*%
%TO.P,TP4,1,1*%
%TO.N,/Vout_D*%
X124460000Y-94234000D03*
%TD*%
D23*
%TO.P,U1,1,D0*%
%TO.N,/M1_IN2*%
X102870000Y-87630000D03*
%TO.P,U1,2,D1*%
%TO.N,/M1_IN1*%
X102870000Y-90170000D03*
%TO.P,U1,3,D2*%
%TO.N,/M2_IN1*%
X102870000Y-92710000D03*
%TO.P,U1,4,D3*%
%TO.N,/M2_IN2*%
X102870000Y-95250000D03*
%TO.P,U1,5,SDA*%
%TO.N,/SDA*%
X102870000Y-97790000D03*
%TO.P,U1,6,SCL*%
%TO.N,/SCL*%
X102870000Y-100330000D03*
%TO.P,U1,7,D6*%
%TO.N,/DRV_SLEEP*%
X102870000Y-102870000D03*
%TO.P,U1,8,D7*%
%TO.N,/SW5*%
X118110000Y-102870000D03*
%TO.P,U1,9,SCK*%
%TO.N,/SW4*%
X118110000Y-100330000D03*
%TO.P,U1,10,MISO*%
%TO.N,/SW3*%
X118110000Y-97790000D03*
%TO.P,U1,11,MOSI*%
%TO.N,/SW2*%
X118110000Y-95250000D03*
%TO.P,U1,12,3V3*%
%TO.N,+3V3*%
X118110000Y-92710000D03*
%TO.P,U1,13,GND*%
%TO.N,GND*%
X118110000Y-90170000D03*
%TO.P,U1,14,VIN*%
%TO.N,+5V_B*%
X118110000Y-87630000D03*
%TD*%
D24*
%TO.P,J5,1,Pin_1*%
%TO.N,/M2_OUT1*%
X90170000Y-116880000D03*
%TO.P,J5,2,Pin_2*%
%TO.N,/M2_OUT2*%
X90170000Y-121880000D03*
%TD*%
D25*
%TO.P,SW3,1*%
%TO.N,+3V3*%
X100635000Y-129625000D03*
%TO.P,SW3,2*%
X100635000Y-124375000D03*
%TO.P,SW3,3*%
%TO.N,/SW3*%
X103835000Y-129625000D03*
%TO.P,SW3,4*%
X103835000Y-124375000D03*
%TD*%
D17*
%TO.P,C2,1*%
%TO.N,VCC*%
X116752000Y-123063000D03*
%TO.P,C2,2*%
%TO.N,GND*%
X118452000Y-123063000D03*
%TD*%
D26*
%TO.P,D3,1,K*%
%TO.N,+5V_B*%
X123852000Y-105410000D03*
%TO.P,D3,2,A*%
%TO.N,+5V_A*%
X120242000Y-105410000D03*
%TD*%
D22*
%TO.P,TP6,1,1*%
%TO.N,/SCL*%
X121666000Y-98552000D03*
%TD*%
D12*
%TO.P,C5,1*%
%TO.N,/SW*%
X117906000Y-115951000D03*
%TO.P,C5,2*%
%TO.N,Net-(U2-BOOT)*%
X116406000Y-115951000D03*
%TD*%
D10*
%TO.P,R4,1*%
%TO.N,/ILIM*%
X116198000Y-112903000D03*
%TO.P,R4,2*%
%TO.N,GND*%
X114688000Y-112903000D03*
%TD*%
%TO.P,R5,1*%
%TO.N,/SW*%
X119387000Y-115951000D03*
%TO.P,R5,2*%
%TO.N,/FSW*%
X120897000Y-115951000D03*
%TD*%
D27*
%TO.P,TP7,1,1*%
%TO.N,/SW*%
X122047000Y-118999000D03*
%TD*%
%TO.P,TP9,1,1*%
%TO.N,/FB*%
X122047000Y-123190000D03*
%TD*%
D17*
%TO.P,C1,1*%
%TO.N,VCC*%
X116752000Y-120904000D03*
%TO.P,C1,2*%
%TO.N,GND*%
X118452000Y-120904000D03*
%TD*%
D22*
%TO.P,TP5,1,1*%
%TO.N,/SDA*%
X121666000Y-94234000D03*
%TD*%
D28*
%TO.P,D2,1,K*%
%TO.N,/Vout_D*%
X127000000Y-94234000D03*
%TO.P,D2,2,A*%
%TO.N,+5V_B*%
X127000000Y-90624000D03*
%TD*%
D29*
%TO.P,R7,1*%
%TO.N,+3V3*%
X97536000Y-96273000D03*
%TO.P,R7,2*%
%TO.N,/SCL*%
X97536000Y-97783000D03*
%TD*%
D17*
%TO.P,C3,1*%
%TO.N,VCC*%
X116752000Y-125222000D03*
%TO.P,C3,2*%
%TO.N,GND*%
X118452000Y-125222000D03*
%TD*%
D25*
%TO.P,SW2,1*%
%TO.N,+3V3*%
X95555000Y-129625000D03*
%TO.P,SW2,2*%
X95555000Y-124375000D03*
%TO.P,SW2,3*%
%TO.N,/SW2*%
X98755000Y-129625000D03*
%TO.P,SW2,4*%
X98755000Y-124375000D03*
%TD*%
D30*
%TO.P,C13,1*%
%TO.N,Net-(D1-K)*%
X99116000Y-108712000D03*
%TO.P,C13,2*%
%TO.N,GND*%
X102814000Y-108712000D03*
%TD*%
D27*
%TO.P,TP8,1,1*%
%TO.N,/FSW*%
X122047000Y-121031000D03*
%TD*%
D31*
%TO.P,J3,*%
%TO.N,*%
X156815000Y-92970000D03*
X156815000Y-87370000D03*
D32*
%TO.P,J3,1,Pin_1*%
%TO.N,GND*%
X152940000Y-91670000D03*
%TO.P,J3,2,Pin_2*%
%TO.N,+3V3*%
X152940000Y-90670000D03*
%TO.P,J3,3,Pin_3*%
%TO.N,/SDA*%
X152940000Y-89670000D03*
%TO.P,J3,4,Pin_4*%
%TO.N,/SCL*%
X152940000Y-88670000D03*
%TD*%
D22*
%TO.P,TP3,1,1*%
%TO.N,+3V3*%
X109474000Y-120142000D03*
%TD*%
D25*
%TO.P,SW4,1*%
%TO.N,+3V3*%
X105715000Y-129625000D03*
%TO.P,SW4,2*%
X105715000Y-124375000D03*
%TO.P,SW4,3*%
%TO.N,/SW4*%
X108915000Y-129625000D03*
%TO.P,SW4,4*%
X108915000Y-124375000D03*
%TD*%
D33*
%TO.P,U2,1,FSW*%
%TO.N,/FSW*%
X119793000Y-114542000D03*
%TO.P,U2,2,VCC*%
%TO.N,Net-(U2-VCC)*%
X119793000Y-114042000D03*
%TO.P,U2,3,FB*%
%TO.N,/FB*%
X119793000Y-113542000D03*
%TO.P,U2,4,COMP*%
%TO.N,/COMP*%
X119793000Y-113042000D03*
D34*
%TO.P,U2,5,GND*%
%TO.N,GND*%
X118968000Y-113092000D03*
%TO.P,U2,6,VOUT*%
%TO.N,+5V_A*%
X118268000Y-113092000D03*
D33*
%TO.P,U2,7,EN*%
%TO.N,VCC*%
X117443000Y-113042000D03*
%TO.P,U2,8,ILIM*%
%TO.N,/ILIM*%
X117443000Y-113542000D03*
%TO.P,U2,9,VIN*%
%TO.N,VCC*%
X117443000Y-114042000D03*
%TO.P,U2,10,BOOT*%
%TO.N,Net-(U2-BOOT)*%
X117443000Y-114542000D03*
D35*
%TO.P,U2,11,SW*%
%TO.N,/SW*%
X118618000Y-114242000D03*
%TD*%
D36*
%TO.P,R6,1*%
%TO.N,Net-(U3-AISEN)*%
X87630000Y-107135000D03*
%TO.P,R6,2*%
%TO.N,GND*%
X87630000Y-110035000D03*
%TD*%
D22*
%TO.P,TP1,1,1*%
%TO.N,+5V_A*%
X127889000Y-116332000D03*
%TD*%
D37*
%TO.P,JP1,1,A*%
%TO.N,+3V3*%
X125573000Y-100838000D03*
D15*
%TO.P,JP1,2,C*%
%TO.N,/OLED1*%
X126873000Y-100838000D03*
D38*
%TO.P,JP1,3,B*%
%TO.N,GND*%
X128173000Y-100838000D03*
%TD*%
D24*
%TO.P,J4,1,Pin_1*%
%TO.N,/M1_OUT1*%
X90170000Y-94020000D03*
%TO.P,J4,2,Pin_2*%
%TO.N,/M1_OUT2*%
X90170000Y-99020000D03*
%TD*%
D29*
%TO.P,R8,1*%
%TO.N,+3V3*%
X99187000Y-97783000D03*
%TO.P,R8,2*%
%TO.N,/SDA*%
X99187000Y-96273000D03*
%TD*%
D26*
%TO.P,D1,1,K*%
%TO.N,Net-(D1-K)*%
X97763000Y-105029000D03*
%TO.P,D1,2,A*%
%TO.N,+5V_A*%
X101373000Y-105029000D03*
%TD*%
D17*
%TO.P,C9,1*%
%TO.N,+5V_A*%
X117768000Y-111506000D03*
%TO.P,C9,2*%
%TO.N,GND*%
X119468000Y-111506000D03*
%TD*%
D23*
%TO.P,U7,1,VCC*%
%TO.N,/OLED1*%
X132080000Y-113030000D03*
%TO.P,U7,2,GND*%
%TO.N,/OLED2*%
X132080000Y-110490000D03*
%TO.P,U7,3,SCL*%
%TO.N,/SCL*%
X132080000Y-107950000D03*
%TO.P,U7,4,SDA*%
%TO.N,/SDA*%
X132080000Y-105410000D03*
%TD*%
D39*
%TO.P,U3,1,AISEN*%
%TO.N,Net-(U3-AISEN)*%
X91005000Y-107610000D03*
%TO.P,U3,2,AOUT2*%
%TO.N,/M1_OUT2*%
X91005000Y-108260000D03*
%TO.P,U3,3,BOUT2*%
%TO.N,/M2_OUT2*%
X91005000Y-108910000D03*
%TO.P,U3,4,BISEN*%
%TO.N,Net-(U3-AISEN)*%
X91005000Y-109560000D03*
D40*
%TO.P,U3,5,BOUT1*%
%TO.N,/M2_OUT1*%
X91862000Y-110417000D03*
%TO.P,U3,6,nFAULT*%
%TO.N,unconnected-(U3-nFAULT-Pad6)*%
X92512000Y-110417000D03*
%TO.P,U3,7,BIN1*%
%TO.N,/M2_IN1*%
X93162000Y-110417000D03*
%TO.P,U3,8,BIN2*%
%TO.N,/M2_IN2*%
X93812000Y-110417000D03*
D39*
%TO.P,U3,9,VCP*%
%TO.N,Net-(U3-VCP)*%
X94669000Y-109560000D03*
%TO.P,U3,10,VM*%
%TO.N,Net-(D1-K)*%
X94669000Y-108910000D03*
%TO.P,U3,11,GND*%
%TO.N,GND*%
X94669000Y-108260000D03*
%TO.P,U3,12,VINT*%
%TO.N,Net-(U3-VINT)*%
X94669000Y-107610000D03*
D40*
%TO.P,U3,13,AIN2*%
%TO.N,/M1_IN1*%
X93812000Y-106753000D03*
%TO.P,U3,14,AIN1*%
%TO.N,/M1_IN2*%
X93162000Y-106753000D03*
%TO.P,U3,15,nSLEEP*%
%TO.N,/DRV_SLEEP*%
X92512000Y-106753000D03*
%TO.P,U3,16,AOUT1*%
%TO.N,/M1_OUT1*%
X91862000Y-106753000D03*
D41*
%TO.P,U3,17,PPAD*%
%TO.N,GND*%
X93362000Y-108060000D03*
X92312000Y-108060000D03*
X93362000Y-109110000D03*
X92312000Y-109110000D03*
%TD*%
D25*
%TO.P,SW5,1*%
%TO.N,+3V3*%
X110795000Y-129625000D03*
%TO.P,SW5,2*%
X110795000Y-124375000D03*
%TO.P,SW5,3*%
%TO.N,/SW5*%
X113995000Y-129625000D03*
%TO.P,SW5,4*%
X113995000Y-124375000D03*
%TD*%
D27*
%TO.P,TP10,1,1*%
%TO.N,/COMP*%
X125095000Y-110363000D03*
%TD*%
D13*
%TO.P,TP11,1,1*%
%TO.N,GND*%
X123063000Y-88265000D03*
%TD*%
D10*
%TO.P,R2,1*%
%TO.N,/FB*%
X122435000Y-115570000D03*
%TO.P,R2,2*%
%TO.N,GND*%
X123945000Y-115570000D03*
%TD*%
D42*
%TO.P,L1,1*%
%TO.N,VCC*%
X116488000Y-118364000D03*
%TO.P,L1,2*%
%TO.N,/SW*%
X118618000Y-118364000D03*
%TD*%
D43*
%TO.P,J1,1,Pin_1*%
%TO.N,Net-(J1-Pin_1)*%
X137709000Y-96200000D03*
%TO.P,J1,2,Pin_2*%
%TO.N,GND*%
X137709000Y-108900000D03*
%TD*%
D44*
%TO.N,GND*%
X97726500Y-107061000D03*
X113538000Y-114427000D03*
D45*
X120281700Y-110426500D03*
D44*
X105219500Y-108712000D03*
X113538000Y-112903000D03*
D45*
X93472000Y-107950000D03*
X119634000Y-123571000D03*
X124714000Y-117094000D03*
X120269000Y-108292900D03*
X119634000Y-121412000D03*
X119634000Y-125730000D03*
D44*
X135509000Y-93091000D03*
D45*
X119634000Y-120396000D03*
X122809000Y-108585000D03*
X124714000Y-115570000D03*
X129271500Y-100838000D03*
X92202000Y-109220000D03*
X121285000Y-108585000D03*
D44*
X87630000Y-111252000D03*
D45*
X92202000Y-107950000D03*
X92837000Y-108585000D03*
X124460000Y-98171000D03*
X119634000Y-124714000D03*
X151257000Y-91694000D03*
X93472000Y-109220000D03*
X119634000Y-122555000D03*
D44*
%TO.N,+3V3*%
X108457765Y-104140000D03*
X108458000Y-107696000D03*
D45*
%TO.N,/OLED1*%
X129021497Y-107823000D03*
X129021497Y-105918000D03*
%TO.N,/OLED2*%
X129921000Y-105918000D03*
X129921000Y-107823000D03*
%TO.N,/SW2*%
X109474000Y-104648000D03*
X109474000Y-107315000D03*
%TO.N,/SW4*%
X111506000Y-104648000D03*
X111506000Y-107315000D03*
D44*
%TO.N,Net-(U3-AISEN)*%
X90170000Y-106934000D03*
X90170000Y-110236000D03*
X89281000Y-108585000D03*
D45*
%TO.N,/M2_IN1*%
X107442000Y-104648000D03*
X107442000Y-107315000D03*
%TO.N,/M2_IN2*%
X106426000Y-107315000D03*
X106426000Y-104648000D03*
%TO.N,/DRV_SLEEP*%
X94640400Y-105283000D03*
X92659200Y-105283000D03*
%TO.N,/SW3*%
X110490000Y-104648000D03*
X110490000Y-107315000D03*
%TO.N,/SW5*%
X112522000Y-107315000D03*
X112522000Y-104648000D03*
%TO.N,/SDA*%
X123063000Y-102235000D03*
X121031000Y-102235000D03*
%TO.N,/SCL*%
X132715000Y-97917000D03*
X133731000Y-98933000D03*
X121031000Y-103251000D03*
X123063000Y-103251000D03*
%TO.N,+5V_A*%
X124968000Y-114046000D03*
X118642629Y-105791000D03*
%TD*%
D46*
%TO.N,VCC*%
X116910500Y-112211500D02*
X116713000Y-112014000D01*
X115688000Y-112014000D02*
X115440000Y-112262000D01*
X117270000Y-113042000D02*
X116910500Y-112682500D01*
D47*
X115443000Y-115127000D02*
X115443000Y-115362000D01*
D46*
X116713000Y-112014000D02*
X115688000Y-112014000D01*
D48*
X129445000Y-127857000D02*
X129445000Y-127000000D01*
X116752000Y-125222000D02*
X116752000Y-126912000D01*
D49*
X115443000Y-116840000D02*
X116488000Y-117885000D01*
D50*
X116488000Y-118364000D02*
X116488000Y-117885000D01*
D46*
X117443000Y-113042000D02*
X117270000Y-113042000D01*
D49*
X115443000Y-115362000D02*
X115443000Y-116840000D01*
D47*
X115443000Y-115127000D02*
X116143000Y-114427000D01*
D48*
X116752000Y-126912000D02*
X118463717Y-128623717D01*
X122936000Y-128623717D02*
X128678283Y-128623717D01*
D51*
X122936000Y-126746000D02*
X122936000Y-128623717D01*
D46*
X115440000Y-113724000D02*
X116143000Y-114427000D01*
D48*
X118463717Y-128623717D02*
X122936000Y-128623717D01*
X128678283Y-128623717D02*
X129445000Y-127857000D01*
D46*
X115440000Y-112262000D02*
X115440000Y-113724000D01*
X116910500Y-112682500D02*
X116910500Y-112211500D01*
D47*
%TO.N,GND*%
X135438000Y-93020000D02*
X134350000Y-93020000D01*
D49*
X97726500Y-107061000D02*
X97220000Y-107061000D01*
D47*
X87630000Y-111252000D02*
X87630000Y-110035000D01*
D46*
X152940000Y-91670000D02*
X151281000Y-91670000D01*
D51*
X123763000Y-117094000D02*
X124714000Y-117094000D01*
D49*
X102814000Y-108712000D02*
X105219500Y-108712000D01*
X97220000Y-107061000D02*
X96393000Y-107888000D01*
D46*
X151281000Y-91670000D02*
X151257000Y-91694000D01*
D47*
X122809000Y-109663000D02*
X122809000Y-108585000D01*
D46*
X128173000Y-100838000D02*
X129271500Y-100838000D01*
X125573000Y-98171000D02*
X124460000Y-98171000D01*
D51*
X123813000Y-115570000D02*
X124714000Y-115570000D01*
D47*
X135509000Y-93091000D02*
X135438000Y-93020000D01*
X121285000Y-109663000D02*
X121285000Y-108585000D01*
D49*
%TO.N,+3V3*%
X97155000Y-131445000D02*
X100584000Y-131445000D01*
D46*
X99187000Y-94541299D02*
X102288299Y-91440000D01*
X133223000Y-84279000D02*
X119556000Y-84279000D01*
D49*
X110795000Y-130759000D02*
X110795000Y-129625000D01*
X100635000Y-124375000D02*
X100635000Y-129625000D01*
D46*
X116332000Y-91440000D02*
X116840000Y-91440000D01*
X153451198Y-90670000D02*
X154559000Y-89562198D01*
D49*
X100635000Y-129625000D02*
X100635000Y-131394000D01*
X110795000Y-124375000D02*
X110795000Y-129625000D01*
D46*
X102288299Y-91440000D02*
X116332000Y-91440000D01*
X116840000Y-91440000D02*
X118110000Y-92710000D01*
D49*
X108457765Y-104140000D02*
X108457765Y-102362235D01*
D46*
X131826000Y-96520000D02*
X130175000Y-98171000D01*
D49*
X108458000Y-107696000D02*
X108458000Y-111252000D01*
D46*
X152940000Y-90670000D02*
X153451198Y-90670000D01*
X131826000Y-96520000D02*
X133350000Y-94996000D01*
X109474000Y-120142000D02*
X109474000Y-120396000D01*
D49*
X95555000Y-129625000D02*
X95555000Y-129845000D01*
X105715000Y-124375000D02*
X105715000Y-129625000D01*
D46*
X119556000Y-84279000D02*
X116332000Y-87503000D01*
D49*
X105715000Y-131369000D02*
X105791000Y-131445000D01*
D46*
X125573000Y-100838000D02*
X123810000Y-99075000D01*
D49*
X105715000Y-129625000D02*
X105715000Y-131369000D01*
X95555000Y-129845000D02*
X97155000Y-131445000D01*
D46*
X154559000Y-85979000D02*
X152859000Y-84279000D01*
X130810000Y-95758000D02*
X131699000Y-96647000D01*
X105715000Y-124155000D02*
X105715000Y-124375000D01*
X154559000Y-89562198D02*
X154559000Y-85979000D01*
X99187000Y-96278000D02*
X99187000Y-94541299D01*
D49*
X95555000Y-124375000D02*
X95555000Y-129625000D01*
D46*
X123810000Y-96916000D02*
X124968000Y-95758000D01*
X116332000Y-87503000D02*
X116332000Y-91440000D01*
X123810000Y-99075000D02*
X123810000Y-96916000D01*
X124968000Y-95758000D02*
X130810000Y-95758000D01*
X133350000Y-84406000D02*
X133223000Y-84279000D01*
X152859000Y-84279000D02*
X133223000Y-84279000D01*
D49*
X108458000Y-111252000D02*
X95555000Y-124155000D01*
X105791000Y-131445000D02*
X110109000Y-131445000D01*
X100635000Y-131394000D02*
X100584000Y-131445000D01*
X100584000Y-131445000D02*
X105791000Y-131445000D01*
D46*
X130175000Y-98171000D02*
X128173000Y-98171000D01*
D49*
X108457765Y-102362235D02*
X118110000Y-92710000D01*
X95555000Y-124155000D02*
X95555000Y-124375000D01*
D46*
X133350000Y-94996000D02*
X133350000Y-84406000D01*
D49*
X110109000Y-131445000D02*
X110795000Y-130759000D01*
D46*
X109474000Y-120396000D02*
X105715000Y-124155000D01*
X97536000Y-96278000D02*
X99187000Y-96278000D01*
%TO.N,/OLED1*%
X129021497Y-105918000D02*
X126873000Y-103769503D01*
X129021497Y-107823000D02*
X129021497Y-109971497D01*
X129021497Y-109971497D02*
X132080000Y-113030000D01*
X126873000Y-103769503D02*
X126873000Y-100838000D01*
%TO.N,/OLED2*%
X129921000Y-108331000D02*
X132080000Y-110490000D01*
X126873000Y-99187000D02*
X126873000Y-97917000D01*
X129921000Y-100241100D02*
X129184400Y-99504500D01*
X129184400Y-99504500D02*
X127190500Y-99504500D01*
X127190500Y-99504500D02*
X126873000Y-99187000D01*
X129921000Y-105918000D02*
X129921000Y-100241100D01*
X129921000Y-107823000D02*
X129921000Y-108331000D01*
%TO.N,/SW*%
X120777000Y-118999000D02*
X120142000Y-118364000D01*
X120142000Y-118364000D02*
X118618000Y-118364000D01*
X122047000Y-118999000D02*
X120777000Y-118999000D01*
D51*
%TO.N,/COMP*%
X119793000Y-113042000D02*
X120777000Y-113042000D01*
D50*
X121285000Y-111063000D02*
X121285000Y-112510000D01*
D46*
X121369000Y-111063000D02*
X121285000Y-111063000D01*
D51*
X120777000Y-113042000D02*
X121297000Y-112522000D01*
D46*
X122069000Y-110363000D02*
X121369000Y-111063000D01*
D50*
X121285000Y-112510000D02*
X121297000Y-112522000D01*
D46*
X125095000Y-110363000D02*
X122069000Y-110363000D01*
D50*
%TO.N,Net-(C7-Pad1)*%
X122809000Y-111063000D02*
X122809000Y-112510000D01*
X122809000Y-112510000D02*
X122797000Y-112522000D01*
D46*
%TO.N,/FB*%
X123571000Y-121666000D02*
X123571000Y-118237000D01*
X123175500Y-116310500D02*
X122435000Y-115570000D01*
D51*
X121931000Y-113542000D02*
X122435000Y-114046000D01*
D46*
X122047000Y-123190000D02*
X123571000Y-121666000D01*
D51*
X119793000Y-113542000D02*
X121931000Y-113542000D01*
D46*
X123571000Y-118237000D02*
X123175500Y-117841500D01*
X123175500Y-117841500D02*
X123175500Y-116310500D01*
D48*
%TO.N,Net-(J1-Pin_1)*%
X137709000Y-96200000D02*
X135509000Y-98400000D01*
X135509000Y-122936000D02*
X131445000Y-127000000D01*
X135509000Y-98400000D02*
X135509000Y-122936000D01*
D49*
%TO.N,/Vout_D*%
X127000000Y-94234000D02*
X132086000Y-94234000D01*
D46*
X124460000Y-94234000D02*
X127000000Y-94234000D01*
D49*
X132086000Y-94234000D02*
X132350000Y-93970000D01*
D46*
%TO.N,/SW2*%
X98755000Y-124130000D02*
X109474000Y-113411000D01*
X109474000Y-103886000D02*
X118110000Y-95250000D01*
X109474000Y-104648000D02*
X109474000Y-103886000D01*
X98755000Y-124375000D02*
X98755000Y-124130000D01*
X109474000Y-113411000D02*
X109474000Y-107315000D01*
X98755000Y-129625000D02*
X98755000Y-124375000D01*
%TO.N,/SW4*%
X108915000Y-124375000D02*
X108915000Y-129625000D01*
X115824000Y-100330000D02*
X118110000Y-100330000D01*
X111506000Y-104648000D02*
X115824000Y-100330000D01*
X111506000Y-121539000D02*
X108915000Y-124130000D01*
X111506000Y-107315000D02*
X111506000Y-121539000D01*
X108915000Y-124130000D02*
X108915000Y-124375000D01*
D47*
%TO.N,/M2_OUT1*%
X91862000Y-115188000D02*
X90170000Y-116880000D01*
X91862000Y-110417000D02*
X91862000Y-115188000D01*
%TO.N,/M2_OUT2*%
X88920000Y-120630000D02*
X90170000Y-121880000D01*
X90252000Y-108910000D02*
X88920000Y-110242000D01*
X91005000Y-108910000D02*
X90252000Y-108910000D01*
X88920000Y-110242000D02*
X88920000Y-120630000D01*
%TO.N,/M1_OUT1*%
X91862000Y-106753000D02*
X91862000Y-95712000D01*
X91862000Y-95712000D02*
X90170000Y-94020000D01*
%TO.N,/M1_OUT2*%
X88900000Y-100290000D02*
X90170000Y-99020000D01*
X90216250Y-108260000D02*
X88900000Y-106943750D01*
X91005000Y-108260000D02*
X90216250Y-108260000D01*
X88900000Y-106943750D02*
X88900000Y-100290000D01*
D46*
%TO.N,/FSW*%
X120892000Y-117336000D02*
X120892000Y-115951000D01*
X122047000Y-121031000D02*
X123171000Y-119907000D01*
X123171000Y-118726000D02*
X122428000Y-117983000D01*
X121539000Y-117983000D02*
X120892000Y-117336000D01*
X123171000Y-119907000D02*
X123171000Y-118726000D01*
X122428000Y-117983000D02*
X121539000Y-117983000D01*
%TO.N,Net-(U2-VCC)*%
X121666000Y-114935000D02*
X121666000Y-116320000D01*
X121666000Y-116320000D02*
X122440000Y-117094000D01*
X120773000Y-114042000D02*
X121666000Y-114935000D01*
X119793000Y-114042000D02*
X120773000Y-114042000D01*
D47*
%TO.N,Net-(U3-AISEN)*%
X91005000Y-107610000D02*
X90846000Y-107610000D01*
X90846000Y-107610000D02*
X90170000Y-106934000D01*
X87831000Y-107135000D02*
X87630000Y-107135000D01*
X91005000Y-109560000D02*
X90846000Y-109560000D01*
X90846000Y-109560000D02*
X90170000Y-110236000D01*
X89281000Y-108585000D02*
X87831000Y-107135000D01*
D46*
%TO.N,/M2_IN1*%
X93162000Y-111070000D02*
X94422000Y-112330000D01*
X94422000Y-112330000D02*
X103373685Y-112330000D01*
X93162000Y-110417000D02*
X93162000Y-111070000D01*
X103373685Y-112330000D02*
X107442000Y-108261685D01*
X107442000Y-108261685D02*
X107442000Y-107315000D01*
X107442000Y-104648000D02*
X107442000Y-97282000D01*
X107442000Y-97282000D02*
X102870000Y-92710000D01*
%TO.N,/M2_IN2*%
X106426000Y-108712000D02*
X106426000Y-107315000D01*
X106426000Y-98806000D02*
X102870000Y-95250000D01*
X103438000Y-111700000D02*
X106426000Y-108712000D01*
X106426000Y-104648000D02*
X106426000Y-98806000D01*
X93812000Y-110417000D02*
X95095000Y-111700000D01*
X95095000Y-111700000D02*
X103438000Y-111700000D01*
%TO.N,/M1_IN1*%
X102164500Y-90170000D02*
X102870000Y-90170000D01*
X93812000Y-98522500D02*
X102164500Y-90170000D01*
X93812000Y-106753000D02*
X93812000Y-98522500D01*
%TO.N,/M1_IN2*%
X93162000Y-105699439D02*
X93309200Y-105552239D01*
X93162000Y-106753000D02*
X93162000Y-105699439D01*
X93309200Y-97190800D02*
X102870000Y-87630000D01*
X93309200Y-105552239D02*
X93309200Y-97190800D01*
%TO.N,/DRV_SLEEP*%
X94640400Y-105283000D02*
X97053400Y-102870000D01*
X97053400Y-102870000D02*
X102870000Y-102870000D01*
X92512000Y-105989000D02*
X92512000Y-106753000D01*
X92659200Y-105283000D02*
X92659200Y-105841800D01*
X92659200Y-105841800D02*
X92512000Y-105989000D01*
%TO.N,/SW3*%
X103835000Y-122225000D02*
X110490000Y-115570000D01*
X103835000Y-124375000D02*
X103835000Y-129625000D01*
X110490000Y-115570000D02*
X110490000Y-107315000D01*
X117348000Y-97790000D02*
X118110000Y-97790000D01*
X110490000Y-104648000D02*
X117348000Y-97790000D01*
X103835000Y-124375000D02*
X103835000Y-122225000D01*
%TO.N,/SW5*%
X112522000Y-122682000D02*
X112522000Y-107315000D01*
X113995000Y-124155000D02*
X112522000Y-122682000D01*
X113995000Y-124375000D02*
X113995000Y-124155000D01*
X114300000Y-102870000D02*
X118110000Y-102870000D01*
X113995000Y-124375000D02*
X113995000Y-129625000D01*
X112522000Y-104648000D02*
X114300000Y-102870000D01*
%TO.N,/SDA*%
X114030000Y-104410000D02*
X118231701Y-104410000D01*
X141978000Y-89670000D02*
X152940000Y-89670000D01*
X105359200Y-105384600D02*
X113055400Y-105384600D01*
X123317000Y-95885000D02*
X121666000Y-94234000D01*
X118231701Y-104410000D02*
X120406701Y-102235000D01*
X132080000Y-105410000D02*
X132080000Y-99568000D01*
X130810000Y-106680000D02*
X132080000Y-105410000D01*
X102870000Y-97790000D02*
X105029000Y-99949000D01*
X132080000Y-99568000D02*
X141978000Y-89670000D01*
X123063000Y-102235000D02*
X123317000Y-101981000D01*
X105029000Y-99949000D02*
X105029000Y-105054400D01*
X127508000Y-106680000D02*
X130810000Y-106680000D01*
X120406701Y-102235000D02*
X121031000Y-102235000D01*
X123317000Y-101981000D02*
X123317000Y-95885000D01*
X123063000Y-102235000D02*
X127508000Y-106680000D01*
D47*
X99187000Y-97778000D02*
X99199000Y-97790000D01*
X99199000Y-97790000D02*
X102870000Y-97790000D01*
D46*
X105029000Y-105054400D02*
X105359200Y-105384600D01*
X113055400Y-105384600D02*
X114030000Y-104410000D01*
%TO.N,/SCL*%
X119470000Y-104810000D02*
X114195685Y-104810000D01*
X121666000Y-100203000D02*
X121666000Y-98552000D01*
X141962000Y-88670000D02*
X152940000Y-88670000D01*
X114195685Y-104810000D02*
X113221085Y-105784600D01*
X122286000Y-102474000D02*
X122286000Y-100823000D01*
X104330500Y-104921586D02*
X104330500Y-101790500D01*
D47*
X100088000Y-100330000D02*
X97536000Y-97778000D01*
D46*
X113221085Y-105784600D02*
X105193514Y-105784600D01*
X104330500Y-101790500D02*
X102870000Y-100330000D01*
X132715000Y-97917000D02*
X141962000Y-88670000D01*
D47*
X102870000Y-100330000D02*
X100088000Y-100330000D01*
D46*
X123063000Y-103251000D02*
X122286000Y-102474000D01*
X121031000Y-103251000D02*
X121029000Y-103251000D01*
X122286000Y-100823000D02*
X121666000Y-100203000D01*
X121029000Y-103251000D02*
X119470000Y-104810000D01*
X133731000Y-106299000D02*
X132080000Y-107950000D01*
X133731000Y-98933000D02*
X133731000Y-106299000D01*
X123063000Y-103251000D02*
X126892000Y-107080000D01*
X105193514Y-105784600D02*
X104330500Y-104921586D01*
X131210000Y-107080000D02*
X132080000Y-107950000D01*
X126892000Y-107080000D02*
X131210000Y-107080000D01*
D49*
%TO.N,Net-(D1-K)*%
X99116000Y-106382000D02*
X99116000Y-108712000D01*
D47*
X99758500Y-108712000D02*
X99116000Y-108712000D01*
D49*
X97763000Y-105029000D02*
X99116000Y-106382000D01*
X99116000Y-108712000D02*
X99822000Y-108712000D01*
D47*
%TO.N,+5V_A*%
X118642629Y-105791000D02*
X118642629Y-106147371D01*
X125603000Y-114046000D02*
X127889000Y-116332000D01*
X119861000Y-105791000D02*
X120242000Y-105410000D01*
X124968000Y-114046000D02*
X123945000Y-114046000D01*
X117768000Y-107022000D02*
X117768000Y-107188000D01*
D49*
X102770000Y-106426000D02*
X117006000Y-106426000D01*
X117006000Y-106426000D02*
X117768000Y-107188000D01*
X102770000Y-106426000D02*
X101373000Y-105029000D01*
D47*
X118642629Y-105791000D02*
X119861000Y-105791000D01*
X124968000Y-114046000D02*
X125603000Y-114046000D01*
X118642629Y-106147371D02*
X117768000Y-107022000D01*
%TO.N,+5V_B*%
X121731000Y-103316000D02*
X123825000Y-105410000D01*
X120700800Y-90220800D02*
X119888000Y-91033600D01*
X120700800Y-90220800D02*
X126596800Y-90220800D01*
X119888000Y-91033600D02*
X119888000Y-100102050D01*
X121731000Y-101945050D02*
X121731000Y-103316000D01*
X123825000Y-105410000D02*
X123852000Y-105410000D01*
X126596800Y-90220800D02*
X127000000Y-90624000D01*
X119888000Y-100102050D02*
X121731000Y-101945050D01*
X118110000Y-87630000D02*
X120700800Y-90220800D01*
%TD*%
%TA.AperFunction,Conductor*%
%TO.N,Net-(U3-VINT)*%
G36*
X96874632Y-105878868D02*
G01*
X96878000Y-105887000D01*
X96878000Y-106689835D01*
X96874632Y-106697967D01*
X96874031Y-106698526D01*
X96837857Y-106729871D01*
X96837853Y-106729875D01*
X96830564Y-106741218D01*
X96823334Y-106746237D01*
X96820890Y-106746500D01*
X95908000Y-106746500D01*
X95122000Y-107441499D01*
X95122000Y-107767000D01*
X95118632Y-107775132D01*
X95110500Y-107778500D01*
X94227500Y-107778500D01*
X94219368Y-107775132D01*
X94216000Y-107767000D01*
X94216000Y-107446525D01*
X94219368Y-107438393D01*
X94219668Y-107438105D01*
X95904694Y-105878560D01*
X95912505Y-105875500D01*
X96866500Y-105875500D01*
X96874632Y-105878868D01*
G37*
%TD.AperFunction*%
%TD*%
%TA.AperFunction,Conductor*%
%TO.N,Net-(U2-BOOT)*%
G36*
X117714632Y-114425368D02*
G01*
X117718000Y-114433500D01*
X117718000Y-114664307D01*
X117716804Y-114669413D01*
X117448785Y-115210341D01*
X117442157Y-115216132D01*
X117440725Y-115216514D01*
X117372762Y-115230033D01*
X117372758Y-115230035D01*
X117289900Y-115285397D01*
X117289897Y-115285400D01*
X117234535Y-115368258D01*
X117234533Y-115368262D01*
X117220000Y-115441327D01*
X117220000Y-115669397D01*
X117218804Y-115674503D01*
X116844668Y-116429606D01*
X116838040Y-116435397D01*
X116834364Y-116436000D01*
X115982000Y-116436000D01*
X115973868Y-116432632D01*
X115970500Y-116424500D01*
X115970500Y-115471214D01*
X115973868Y-115463082D01*
X115974422Y-115462564D01*
X115998666Y-115441327D01*
X116089431Y-115361816D01*
X116308004Y-115170350D01*
X116315582Y-115167500D01*
X116627681Y-115167500D01*
X116637778Y-115167101D01*
X116644631Y-115166557D01*
X116664826Y-115164145D01*
X116687032Y-115155910D01*
X116688772Y-115155418D01*
X116726240Y-115147966D01*
X116747279Y-115133906D01*
X116749672Y-115132686D01*
X116758296Y-115129489D01*
X116758295Y-115129489D01*
X116758299Y-115129488D01*
X116765796Y-115124877D01*
X116778017Y-115113543D01*
X116779446Y-115112415D01*
X116809101Y-115092601D01*
X116822196Y-115073000D01*
X116823934Y-115070960D01*
X116838881Y-115057101D01*
X117122252Y-114665791D01*
X117158368Y-114594707D01*
X117160554Y-114587962D01*
X117173000Y-114509190D01*
X117173000Y-114433500D01*
X117176368Y-114425368D01*
X117184500Y-114422000D01*
X117706500Y-114422000D01*
X117714632Y-114425368D01*
G37*
%TD.AperFunction*%
%TD*%
%TA.AperFunction,Conductor*%
%TO.N,/ILIM*%
G36*
X116556632Y-112441868D02*
G01*
X116560000Y-112450000D01*
X116560000Y-112644957D01*
X116559755Y-112647317D01*
X116555456Y-112667814D01*
X116559956Y-112703906D01*
X116560000Y-112704618D01*
X116560000Y-112711538D01*
X116563587Y-112733040D01*
X116569926Y-112783891D01*
X116572451Y-112789057D01*
X116573461Y-112792211D01*
X116574196Y-112796613D01*
X116574408Y-112797881D01*
X116598795Y-112842944D01*
X116621302Y-112888984D01*
X116621303Y-112888985D01*
X116625365Y-112893047D01*
X116627346Y-112895704D01*
X116630080Y-112900755D01*
X116630082Y-112900758D01*
X116667776Y-112935458D01*
X116914132Y-113181813D01*
X116917500Y-113189945D01*
X116917500Y-113191674D01*
X116932034Y-113264740D01*
X116932035Y-113264741D01*
X116987397Y-113347599D01*
X116987399Y-113347601D01*
X117070260Y-113402966D01*
X117143326Y-113417500D01*
X117143328Y-113417500D01*
X117706500Y-113417500D01*
X117714632Y-113420868D01*
X117718000Y-113429000D01*
X117718000Y-113655000D01*
X117714632Y-113663132D01*
X117706500Y-113666500D01*
X117166928Y-113666500D01*
X117164489Y-113666238D01*
X115799561Y-113370008D01*
X115792329Y-113364992D01*
X115790500Y-113358770D01*
X115790500Y-112450000D01*
X115793868Y-112441868D01*
X115802000Y-112438500D01*
X116548500Y-112438500D01*
X116556632Y-112441868D01*
G37*
%TD.AperFunction*%
%TD*%
%TA.AperFunction,Conductor*%
%TO.N,/FB*%
G36*
X122841632Y-113584868D02*
G01*
X122845000Y-113593000D01*
X122845000Y-116023000D01*
X122841632Y-116031132D01*
X122833500Y-116034500D01*
X122036500Y-116034500D01*
X122028368Y-116031132D01*
X122025000Y-116023000D01*
X122025000Y-113593000D01*
X122028368Y-113584868D01*
X122036500Y-113581500D01*
X122833500Y-113581500D01*
X122841632Y-113584868D01*
G37*
%TD.AperFunction*%
%TD*%
%TA.AperFunction,Conductor*%
%TO.N,Net-(D1-K)*%
G36*
X100569632Y-107925868D02*
G01*
X100573000Y-107934000D01*
X100573000Y-109490000D01*
X100569632Y-109498132D01*
X100561500Y-109501500D01*
X97659000Y-109501500D01*
X97658999Y-109501500D01*
X97658994Y-109501501D01*
X96879954Y-109793767D01*
X96875915Y-109794500D01*
X95912452Y-109794500D01*
X95904708Y-109791501D01*
X95393107Y-109325463D01*
X95391705Y-109323933D01*
X95326115Y-109237815D01*
X95320702Y-109231181D01*
X95316872Y-109226796D01*
X95304716Y-109213791D01*
X95303555Y-109212327D01*
X95302600Y-109210898D01*
X95219741Y-109155535D01*
X95219742Y-109155535D01*
X95219740Y-109155534D01*
X95219738Y-109155533D01*
X95219737Y-109155533D01*
X95206019Y-109152804D01*
X95200519Y-109150026D01*
X95122001Y-109078501D01*
X95122000Y-109078500D01*
X95121998Y-109078500D01*
X94227500Y-109078500D01*
X94219368Y-109075132D01*
X94216000Y-109067000D01*
X94216000Y-108753000D01*
X94219368Y-108744868D01*
X94227500Y-108741500D01*
X95120684Y-108741500D01*
X95123278Y-108741796D01*
X95908000Y-108923500D01*
X96878000Y-108923500D01*
X97655547Y-107926926D01*
X97663205Y-107922587D01*
X97664614Y-107922500D01*
X100561500Y-107922500D01*
X100569632Y-107925868D01*
G37*
%TD.AperFunction*%
%TD*%
%TA.AperFunction,Conductor*%
%TO.N,GND*%
G36*
X115086132Y-112441868D02*
G01*
X115089500Y-112450000D01*
X115089500Y-113686457D01*
X115089255Y-113688817D01*
X115084956Y-113709314D01*
X115089456Y-113745406D01*
X115089500Y-113746118D01*
X115089500Y-113753038D01*
X115093087Y-113774540D01*
X115099426Y-113825391D01*
X115101951Y-113830557D01*
X115102961Y-113833711D01*
X115103696Y-113838113D01*
X115103908Y-113839381D01*
X115118613Y-113866553D01*
X115123901Y-113876325D01*
X115125271Y-113881188D01*
X115128492Y-113941851D01*
X115128500Y-113942155D01*
X115128500Y-114870344D01*
X115125132Y-114878476D01*
X115114950Y-114888657D01*
X115111394Y-114895635D01*
X115106254Y-114905722D01*
X115099563Y-114911437D01*
X115096009Y-114912000D01*
X114257500Y-114912000D01*
X113111500Y-114912000D01*
X113103368Y-114908632D01*
X113100000Y-114900500D01*
X113100000Y-112453465D01*
X113103368Y-112445333D01*
X113111463Y-112441965D01*
X114278000Y-112438500D01*
X115078000Y-112438500D01*
X115086132Y-112441868D01*
G37*
%TD.AperFunction*%
%TD*%
%TA.AperFunction,Conductor*%
%TO.N,VCC*%
G36*
X117077132Y-117259868D02*
G01*
X117080500Y-117268000D01*
X117080500Y-119471499D01*
X117308930Y-120169757D01*
X117309500Y-120173333D01*
X117309500Y-125943000D01*
X117306132Y-125951132D01*
X117298000Y-125954500D01*
X116206000Y-125954500D01*
X116197868Y-125951132D01*
X116194500Y-125943000D01*
X116194500Y-120171501D01*
X115896424Y-119473663D01*
X115895500Y-119469146D01*
X115895500Y-117268000D01*
X115898868Y-117259868D01*
X115907000Y-117256500D01*
X117069000Y-117256500D01*
X117077132Y-117259868D01*
G37*
%TD.AperFunction*%
%TD*%
%TA.AperFunction,Conductor*%
%TO.N,GND*%
G36*
X120011632Y-124336368D02*
G01*
X120015000Y-124344500D01*
X120015000Y-126099500D01*
X120011632Y-126107632D01*
X120003500Y-126111000D01*
X119382330Y-126111000D01*
X119377855Y-126110094D01*
X119009500Y-125954500D01*
X119009499Y-125954500D01*
X117906000Y-125954500D01*
X117897868Y-125951132D01*
X117894500Y-125943000D01*
X117894500Y-124501000D01*
X117897868Y-124492868D01*
X117906000Y-124489500D01*
X119009498Y-124489500D01*
X119009500Y-124489500D01*
X119377855Y-124333905D01*
X119382330Y-124333000D01*
X120003500Y-124333000D01*
X120011632Y-124336368D01*
G37*
%TD.AperFunction*%
%TD*%
%TA.AperFunction,Conductor*%
%TO.N,GND*%
G36*
X96874632Y-107378868D02*
G01*
X96878000Y-107387000D01*
X96878000Y-108235000D01*
X96874632Y-108243132D01*
X96866500Y-108246500D01*
X95908000Y-108246500D01*
X95200973Y-108410213D01*
X95123278Y-108428204D01*
X95120684Y-108428500D01*
X94227500Y-108428500D01*
X94219368Y-108425132D01*
X94216000Y-108417000D01*
X94216000Y-108103000D01*
X94219368Y-108094868D01*
X94227500Y-108091500D01*
X95121999Y-108091500D01*
X95122000Y-108091500D01*
X95200523Y-108019969D01*
X95206016Y-108017195D01*
X95219740Y-108014466D01*
X95302601Y-107959101D01*
X95356668Y-107878182D01*
X95358467Y-107876091D01*
X95904708Y-107378499D01*
X95912452Y-107375500D01*
X96866500Y-107375500D01*
X96874632Y-107378868D01*
G37*
%TD.AperFunction*%
%TD*%
%TA.AperFunction,Conductor*%
%TO.N,/SW*%
G36*
X119114632Y-113995368D02*
G01*
X119118000Y-114003500D01*
X119118000Y-114992000D01*
X119573553Y-115323769D01*
X119598842Y-115342186D01*
X119602130Y-115345907D01*
X119606689Y-115354133D01*
X119611279Y-115362414D01*
X119613048Y-115365316D01*
X119614515Y-115367723D01*
X119620243Y-115376697D01*
X119620244Y-115376698D01*
X119620245Y-115376699D01*
X119690735Y-115447193D01*
X119698053Y-115452083D01*
X119698058Y-115452086D01*
X119784902Y-115488058D01*
X119791125Y-115494281D01*
X119792000Y-115498682D01*
X119792000Y-115619476D01*
X119796954Y-115658427D01*
X119797000Y-115659153D01*
X119797000Y-116411885D01*
X119794933Y-116418463D01*
X119210500Y-117256500D01*
X119210500Y-119460000D01*
X119207132Y-119468132D01*
X119199000Y-119471500D01*
X118037000Y-119471500D01*
X118028868Y-119468132D01*
X118025500Y-119460000D01*
X118025500Y-117256498D01*
X117472475Y-116438919D01*
X117470500Y-116432476D01*
X117470500Y-115712999D01*
X117470538Y-115712339D01*
X117475500Y-115669396D01*
X117475500Y-115479539D01*
X117478868Y-115471407D01*
X117484755Y-115468261D01*
X117494606Y-115466302D01*
X117502610Y-115464440D01*
X117508012Y-115462999D01*
X117513286Y-115461407D01*
X117523838Y-115458224D01*
X117610265Y-115408538D01*
X117616893Y-115402747D01*
X117677724Y-115323775D01*
X117683843Y-115311423D01*
X117687349Y-115307256D01*
X118118000Y-114992000D01*
X118118000Y-114003500D01*
X118121368Y-113995368D01*
X118129500Y-113992000D01*
X119106500Y-113992000D01*
X119114632Y-113995368D01*
G37*
%TD.AperFunction*%
%TD*%
%TA.AperFunction,Conductor*%
%TO.N,GND*%
G36*
X120519564Y-106454797D02*
G01*
X120523000Y-106462900D01*
X120523000Y-112006572D01*
X120519632Y-112014704D01*
X120516230Y-112017054D01*
X120025500Y-112238500D01*
X119143000Y-112591998D01*
X119143000Y-113580500D01*
X119139632Y-113588632D01*
X119131500Y-113592000D01*
X118804500Y-113592000D01*
X118796368Y-113588632D01*
X118793000Y-113580500D01*
X118793000Y-112593861D01*
X118793587Y-112590234D01*
X118910500Y-112238500D01*
X118910500Y-106467000D01*
X118913868Y-106458868D01*
X118922000Y-106455500D01*
X120025500Y-106455500D01*
X120511406Y-106451495D01*
X120519564Y-106454797D01*
G37*
%TD.AperFunction*%
%TD*%
%TA.AperFunction,Conductor*%
%TO.N,Net-(U3-VCP)*%
G36*
X95124435Y-109394868D02*
G01*
X95125449Y-109396029D01*
X95908000Y-110423500D01*
X96866500Y-110423500D01*
X96874632Y-110426868D01*
X96878000Y-110435000D01*
X96878000Y-111283000D01*
X96874632Y-111291132D01*
X96866500Y-111294500D01*
X95912505Y-111294500D01*
X95904694Y-111291440D01*
X94219689Y-109731914D01*
X94216009Y-109723918D01*
X94216000Y-109723474D01*
X94216000Y-109403000D01*
X94219368Y-109394868D01*
X94227500Y-109391500D01*
X95116303Y-109391500D01*
X95124435Y-109394868D01*
G37*
%TD.AperFunction*%
%TD*%
%TA.AperFunction,Conductor*%
%TO.N,GND*%
G36*
X120011632Y-122177368D02*
G01*
X120015000Y-122185500D01*
X120015000Y-123940500D01*
X120011632Y-123948632D01*
X120003500Y-123952000D01*
X119382330Y-123952000D01*
X119377855Y-123951094D01*
X119009500Y-123795500D01*
X119009499Y-123795500D01*
X117906000Y-123795500D01*
X117897868Y-123792132D01*
X117894500Y-123784000D01*
X117894500Y-122342000D01*
X117897868Y-122333868D01*
X117906000Y-122330500D01*
X119009498Y-122330500D01*
X119009500Y-122330500D01*
X119377855Y-122174905D01*
X119382330Y-122174000D01*
X120003500Y-122174000D01*
X120011632Y-122177368D01*
G37*
%TD.AperFunction*%
%TD*%
%TA.AperFunction,Conductor*%
%TO.N,VCC*%
G36*
X117127717Y-113919110D02*
G01*
X117129963Y-113919473D01*
X117130421Y-113919548D01*
X117146424Y-113921268D01*
X117146431Y-113921268D01*
X117146437Y-113921269D01*
X117154440Y-113921697D01*
X117160087Y-113922000D01*
X117706500Y-113922000D01*
X117714632Y-113925368D01*
X117718000Y-113933500D01*
X117718000Y-114155000D01*
X117714632Y-114163132D01*
X117706500Y-114166500D01*
X117143326Y-114166500D01*
X117114260Y-114172281D01*
X117070262Y-114181033D01*
X117070258Y-114181035D01*
X116987400Y-114236397D01*
X116987397Y-114236400D01*
X116932035Y-114319258D01*
X116932033Y-114319262D01*
X116917500Y-114392327D01*
X116917500Y-114509190D01*
X116915314Y-114515935D01*
X116631943Y-114907245D01*
X116624446Y-114911856D01*
X116622629Y-114912000D01*
X115769000Y-114912000D01*
X115760868Y-114908632D01*
X115757500Y-114900500D01*
X115757500Y-113953500D01*
X115760868Y-113945368D01*
X115769000Y-113942000D01*
X116628503Y-113942000D01*
X116679030Y-113939658D01*
X117125364Y-113918975D01*
X117127717Y-113919110D01*
G37*
%TD.AperFunction*%
%TD*%
%TA.AperFunction,Conductor*%
%TO.N,/FSW*%
G36*
X120071817Y-114420295D02*
G01*
X121193767Y-115388758D01*
X121303014Y-115483059D01*
X121306969Y-115490922D01*
X121307000Y-115491764D01*
X121307000Y-116404000D01*
X121303632Y-116412132D01*
X121295500Y-116415500D01*
X120493775Y-116415500D01*
X120485643Y-116412132D01*
X120483716Y-116409574D01*
X120048941Y-115625049D01*
X120047500Y-115619475D01*
X120047500Y-115461827D01*
X120032966Y-115388762D01*
X120032966Y-115388760D01*
X119977601Y-115305899D01*
X119977599Y-115305897D01*
X119936309Y-115278309D01*
X119894740Y-115250534D01*
X119894738Y-115250533D01*
X119840007Y-115239646D01*
X119832689Y-115234756D01*
X119832199Y-115233952D01*
X119519441Y-114669600D01*
X119518000Y-114664026D01*
X119518000Y-114429000D01*
X119521368Y-114420868D01*
X119529500Y-114417500D01*
X120064303Y-114417500D01*
X120071817Y-114420295D01*
G37*
%TD.AperFunction*%
%TD*%
%TA.AperFunction,Conductor*%
%TO.N,GND*%
G36*
X120011632Y-120018368D02*
G01*
X120015000Y-120026500D01*
X120015000Y-121781500D01*
X120011632Y-121789632D01*
X120003500Y-121793000D01*
X119382330Y-121793000D01*
X119377855Y-121792094D01*
X119009500Y-121636500D01*
X119009499Y-121636500D01*
X117906000Y-121636500D01*
X117897868Y-121633132D01*
X117894500Y-121625000D01*
X117894500Y-120183000D01*
X117897868Y-120174868D01*
X117906000Y-120171500D01*
X119009498Y-120171500D01*
X119009500Y-120171500D01*
X119377855Y-120015905D01*
X119382330Y-120015000D01*
X120003500Y-120015000D01*
X120011632Y-120018368D01*
G37*
%TD.AperFunction*%
%TD*%
%TA.AperFunction,Conductor*%
%TO.N,+5V_A*%
G36*
X118322132Y-106458868D02*
G01*
X118325500Y-106467000D01*
X118325500Y-112238503D01*
X118442413Y-112590234D01*
X118443000Y-112593861D01*
X118443000Y-113580500D01*
X118439632Y-113588632D01*
X118431500Y-113592000D01*
X118104500Y-113592000D01*
X118096368Y-113588632D01*
X118093000Y-113580500D01*
X118093000Y-112591999D01*
X118092999Y-112591998D01*
X117268224Y-112261621D01*
X117261928Y-112255471D01*
X117261000Y-112250946D01*
X117261000Y-112249037D01*
X117261245Y-112246677D01*
X117265542Y-112226185D01*
X117261044Y-112190098D01*
X117261000Y-112189386D01*
X117261000Y-112182461D01*
X117257410Y-112160949D01*
X117251073Y-112110107D01*
X117248549Y-112104944D01*
X117247537Y-112101785D01*
X117246592Y-112096120D01*
X117246590Y-112096116D01*
X117222204Y-112051055D01*
X117211668Y-112029501D01*
X117210500Y-112024451D01*
X117210500Y-106467000D01*
X117213868Y-106458868D01*
X117222000Y-106455500D01*
X118314000Y-106455500D01*
X118322132Y-106458868D01*
G37*
%TD.AperFunction*%
%TD*%
M02*
