%TF.GenerationSoftware,KiCad,Pcbnew,7.0.8*%
%TF.CreationDate,2024-01-07T13:32:43-05:00*%
%TF.ProjectId,destinationAutomation_v4.5,64657374-696e-4617-9469-6f6e4175746f,02*%
%TF.SameCoordinates,Original*%
%TF.FileFunction,Soldermask,Bot*%
%TF.FilePolarity,Negative*%
%FSLAX46Y46*%
G04 Gerber Fmt 4.6, Leading zero omitted, Abs format (unit mm)*
G04 Created by KiCad (PCBNEW 7.0.8) date 2024-01-07 13:32:43*
%MOMM*%
%LPD*%
G01*
G04 APERTURE LIST*
G04 APERTURE END LIST*
G36*
X86415492Y-128224855D02*
G01*
X86468978Y-128224855D01*
X86527924Y-128234691D01*
X86589216Y-128240054D01*
X86637355Y-128252952D01*
X86683954Y-128260729D01*
X86746462Y-128282188D01*
X86811467Y-128299606D01*
X86851286Y-128318174D01*
X86890095Y-128331497D01*
X86953857Y-128366003D01*
X87020000Y-128396846D01*
X87051136Y-128418648D01*
X87081783Y-128435233D01*
X87144168Y-128483789D01*
X87208480Y-128528821D01*
X87231146Y-128551487D01*
X87253775Y-128569100D01*
X87311903Y-128632244D01*
X87371179Y-128691520D01*
X87386141Y-128712888D01*
X87401392Y-128729455D01*
X87452271Y-128807332D01*
X87503154Y-128880000D01*
X87511647Y-128898213D01*
X87520596Y-128911911D01*
X87561217Y-129004518D01*
X87600394Y-129088533D01*
X87604042Y-129102148D01*
X87608150Y-129111513D01*
X87635660Y-129220151D01*
X87659946Y-129310784D01*
X87660649Y-129318830D01*
X87661653Y-129322791D01*
X87673404Y-129464609D01*
X87680000Y-129540000D01*
X87673403Y-129615396D01*
X87661653Y-129757208D01*
X87660650Y-129761168D01*
X87659946Y-129769216D01*
X87635656Y-129859866D01*
X87608150Y-129968486D01*
X87604042Y-129977849D01*
X87600394Y-129991467D01*
X87561210Y-130075496D01*
X87520596Y-130168088D01*
X87511648Y-130181782D01*
X87503154Y-130200000D01*
X87452261Y-130272681D01*
X87401392Y-130350544D01*
X87386143Y-130367107D01*
X87371179Y-130388480D01*
X87311892Y-130447766D01*
X87253775Y-130510899D01*
X87231151Y-130528507D01*
X87208480Y-130551179D01*
X87144155Y-130596219D01*
X87081783Y-130644766D01*
X87051142Y-130661347D01*
X87020000Y-130683154D01*
X86953844Y-130714002D01*
X86890095Y-130748502D01*
X86851294Y-130761822D01*
X86811467Y-130780394D01*
X86746449Y-130797815D01*
X86683954Y-130819270D01*
X86637362Y-130827045D01*
X86589216Y-130839946D01*
X86527920Y-130845308D01*
X86468978Y-130855145D01*
X86415492Y-130855145D01*
X86360000Y-130860000D01*
X86304508Y-130855145D01*
X86251022Y-130855145D01*
X86192078Y-130845308D01*
X86130784Y-130839946D01*
X86082638Y-130827045D01*
X86036045Y-130819270D01*
X85973546Y-130797814D01*
X85908533Y-130780394D01*
X85868707Y-130761823D01*
X85829904Y-130748502D01*
X85766148Y-130713999D01*
X85700000Y-130683154D01*
X85668860Y-130661349D01*
X85638216Y-130644766D01*
X85575834Y-130596212D01*
X85511520Y-130551179D01*
X85488852Y-130528511D01*
X85466224Y-130510899D01*
X85408095Y-130447754D01*
X85348821Y-130388480D01*
X85333859Y-130367112D01*
X85318607Y-130350544D01*
X85267723Y-130272660D01*
X85216846Y-130200000D01*
X85208353Y-130181788D01*
X85199403Y-130168088D01*
X85158772Y-130075460D01*
X85119606Y-129991467D01*
X85115958Y-129977855D01*
X85111849Y-129968486D01*
X85084325Y-129859798D01*
X85060054Y-129769216D01*
X85059350Y-129761174D01*
X85058346Y-129757208D01*
X85046577Y-129615180D01*
X85040000Y-129540000D01*
X85046576Y-129464825D01*
X85058346Y-129322791D01*
X85059350Y-129318823D01*
X85060054Y-129310784D01*
X85084320Y-129220219D01*
X85111849Y-129111513D01*
X85115959Y-129102142D01*
X85119606Y-129088533D01*
X85158765Y-129004555D01*
X85199403Y-128911911D01*
X85208355Y-128898208D01*
X85216846Y-128880000D01*
X85267713Y-128807353D01*
X85318607Y-128729455D01*
X85333862Y-128712883D01*
X85348821Y-128691520D01*
X85408083Y-128632257D01*
X85466224Y-128569100D01*
X85488857Y-128551483D01*
X85511520Y-128528821D01*
X85575821Y-128483796D01*
X85638216Y-128435233D01*
X85668866Y-128418645D01*
X85700000Y-128396846D01*
X85766135Y-128366006D01*
X85829904Y-128331497D01*
X85868715Y-128318172D01*
X85908533Y-128299606D01*
X85973533Y-128282189D01*
X86036045Y-128260729D01*
X86082646Y-128252952D01*
X86130784Y-128240054D01*
X86192075Y-128234691D01*
X86251022Y-128224855D01*
X86304508Y-128224855D01*
X86360000Y-128220000D01*
X86415492Y-128224855D01*
G37*
G36*
X142295492Y-128224855D02*
G01*
X142348978Y-128224855D01*
X142407924Y-128234691D01*
X142469216Y-128240054D01*
X142517355Y-128252952D01*
X142563954Y-128260729D01*
X142626462Y-128282188D01*
X142691467Y-128299606D01*
X142731286Y-128318174D01*
X142770095Y-128331497D01*
X142833857Y-128366003D01*
X142900000Y-128396846D01*
X142931136Y-128418648D01*
X142961783Y-128435233D01*
X143024168Y-128483789D01*
X143088480Y-128528821D01*
X143111146Y-128551487D01*
X143133775Y-128569100D01*
X143191903Y-128632244D01*
X143251179Y-128691520D01*
X143266141Y-128712888D01*
X143281392Y-128729455D01*
X143332271Y-128807332D01*
X143383154Y-128880000D01*
X143391647Y-128898213D01*
X143400596Y-128911911D01*
X143441217Y-129004518D01*
X143480394Y-129088533D01*
X143484042Y-129102148D01*
X143488150Y-129111513D01*
X143515660Y-129220151D01*
X143539946Y-129310784D01*
X143540649Y-129318830D01*
X143541653Y-129322791D01*
X143553404Y-129464609D01*
X143560000Y-129540000D01*
X143553403Y-129615396D01*
X143541653Y-129757208D01*
X143540650Y-129761168D01*
X143539946Y-129769216D01*
X143515656Y-129859866D01*
X143488150Y-129968486D01*
X143484042Y-129977849D01*
X143480394Y-129991467D01*
X143441210Y-130075496D01*
X143400596Y-130168088D01*
X143391648Y-130181782D01*
X143383154Y-130200000D01*
X143332261Y-130272681D01*
X143281392Y-130350544D01*
X143266143Y-130367107D01*
X143251179Y-130388480D01*
X143191892Y-130447766D01*
X143133775Y-130510899D01*
X143111151Y-130528507D01*
X143088480Y-130551179D01*
X143024155Y-130596219D01*
X142961783Y-130644766D01*
X142931142Y-130661347D01*
X142900000Y-130683154D01*
X142833844Y-130714002D01*
X142770095Y-130748502D01*
X142731294Y-130761822D01*
X142691467Y-130780394D01*
X142626449Y-130797815D01*
X142563954Y-130819270D01*
X142517362Y-130827045D01*
X142469216Y-130839946D01*
X142407920Y-130845308D01*
X142348978Y-130855145D01*
X142295492Y-130855145D01*
X142240000Y-130860000D01*
X142184508Y-130855145D01*
X142131022Y-130855145D01*
X142072078Y-130845308D01*
X142010784Y-130839946D01*
X141962638Y-130827045D01*
X141916045Y-130819270D01*
X141853546Y-130797814D01*
X141788533Y-130780394D01*
X141748707Y-130761823D01*
X141709904Y-130748502D01*
X141646148Y-130713999D01*
X141580000Y-130683154D01*
X141548860Y-130661349D01*
X141518216Y-130644766D01*
X141455834Y-130596212D01*
X141391520Y-130551179D01*
X141368852Y-130528511D01*
X141346224Y-130510899D01*
X141288095Y-130447754D01*
X141228821Y-130388480D01*
X141213859Y-130367112D01*
X141198607Y-130350544D01*
X141147723Y-130272660D01*
X141096846Y-130200000D01*
X141088353Y-130181788D01*
X141079403Y-130168088D01*
X141038772Y-130075460D01*
X140999606Y-129991467D01*
X140995958Y-129977855D01*
X140991849Y-129968486D01*
X140964325Y-129859798D01*
X140940054Y-129769216D01*
X140939350Y-129761174D01*
X140938346Y-129757208D01*
X140926577Y-129615180D01*
X140920000Y-129540000D01*
X140926576Y-129464825D01*
X140938346Y-129322791D01*
X140939350Y-129318823D01*
X140940054Y-129310784D01*
X140964320Y-129220219D01*
X140991849Y-129111513D01*
X140995959Y-129102142D01*
X140999606Y-129088533D01*
X141038765Y-129004555D01*
X141079403Y-128911911D01*
X141088355Y-128898208D01*
X141096846Y-128880000D01*
X141147713Y-128807353D01*
X141198607Y-128729455D01*
X141213862Y-128712883D01*
X141228821Y-128691520D01*
X141288083Y-128632257D01*
X141346224Y-128569100D01*
X141368857Y-128551483D01*
X141391520Y-128528821D01*
X141455821Y-128483796D01*
X141518216Y-128435233D01*
X141548866Y-128418645D01*
X141580000Y-128396846D01*
X141646135Y-128366006D01*
X141709904Y-128331497D01*
X141748715Y-128318172D01*
X141788533Y-128299606D01*
X141853533Y-128282189D01*
X141916045Y-128260729D01*
X141962646Y-128252952D01*
X142010784Y-128240054D01*
X142072075Y-128234691D01*
X142131022Y-128224855D01*
X142184508Y-128224855D01*
X142240000Y-128220000D01*
X142295492Y-128224855D01*
G37*
G36*
X127384599Y-125905104D02*
G01*
X127429376Y-125905104D01*
X127467083Y-125914398D01*
X127500620Y-125918177D01*
X127544005Y-125933357D01*
X127593223Y-125945489D01*
X127622323Y-125960761D01*
X127648442Y-125969901D01*
X127692579Y-125997634D01*
X127742645Y-126023911D01*
X127762766Y-126041736D01*
X127781043Y-126053221D01*
X127822307Y-126094485D01*
X127868958Y-126135814D01*
X127880817Y-126152995D01*
X127891778Y-126163956D01*
X127926246Y-126218812D01*
X127964819Y-126274694D01*
X127970084Y-126288578D01*
X127975098Y-126296557D01*
X127998797Y-126364288D01*
X128024659Y-126432479D01*
X128025722Y-126441236D01*
X128026822Y-126444379D01*
X128036075Y-126526497D01*
X128045000Y-126600000D01*
X128045000Y-127400000D01*
X128036073Y-127473515D01*
X128026822Y-127555620D01*
X128025722Y-127558762D01*
X128024659Y-127567521D01*
X127998793Y-127635723D01*
X127975098Y-127703442D01*
X127970085Y-127711418D01*
X127964819Y-127725306D01*
X127926239Y-127781197D01*
X127891778Y-127836043D01*
X127880819Y-127847001D01*
X127868958Y-127864186D01*
X127822298Y-127905522D01*
X127781043Y-127946778D01*
X127762770Y-127958259D01*
X127742645Y-127976089D01*
X127692569Y-128002370D01*
X127648442Y-128030098D01*
X127622329Y-128039235D01*
X127593223Y-128054511D01*
X127543995Y-128066644D01*
X127500620Y-128081822D01*
X127467091Y-128085599D01*
X127429376Y-128094896D01*
X127384591Y-128094896D01*
X127345000Y-128099357D01*
X127305409Y-128094896D01*
X127260624Y-128094896D01*
X127222909Y-128085600D01*
X127189379Y-128081822D01*
X127146001Y-128066643D01*
X127096777Y-128054511D01*
X127067672Y-128039236D01*
X127041557Y-128030098D01*
X126997424Y-128002367D01*
X126947355Y-127976089D01*
X126927232Y-127958261D01*
X126908956Y-127946778D01*
X126867692Y-127905514D01*
X126821042Y-127864186D01*
X126809182Y-127847004D01*
X126798221Y-127836043D01*
X126763748Y-127781181D01*
X126725181Y-127725306D01*
X126719915Y-127711422D01*
X126714901Y-127703442D01*
X126691193Y-127635688D01*
X126665341Y-127567521D01*
X126664278Y-127558766D01*
X126663177Y-127555620D01*
X126653919Y-127473459D01*
X126645000Y-127400000D01*
X126645000Y-126600000D01*
X126653918Y-126526553D01*
X126663177Y-126444379D01*
X126664278Y-126441231D01*
X126665341Y-126432479D01*
X126691189Y-126364322D01*
X126714901Y-126296557D01*
X126719916Y-126288574D01*
X126725181Y-126274694D01*
X126763741Y-126218828D01*
X126798221Y-126163956D01*
X126809184Y-126152992D01*
X126821042Y-126135814D01*
X126867684Y-126094492D01*
X126908956Y-126053221D01*
X126927236Y-126041734D01*
X126947355Y-126023911D01*
X126997414Y-125997637D01*
X127041557Y-125969901D01*
X127067678Y-125960760D01*
X127096777Y-125945489D01*
X127145991Y-125933358D01*
X127189379Y-125918177D01*
X127222917Y-125914398D01*
X127260624Y-125905104D01*
X127305400Y-125905104D01*
X127345000Y-125900642D01*
X127384599Y-125905104D01*
G37*
G36*
X135584599Y-125905104D02*
G01*
X135629376Y-125905104D01*
X135667083Y-125914398D01*
X135700620Y-125918177D01*
X135744005Y-125933357D01*
X135793223Y-125945489D01*
X135822323Y-125960761D01*
X135848442Y-125969901D01*
X135892579Y-125997634D01*
X135942645Y-126023911D01*
X135962766Y-126041736D01*
X135981043Y-126053221D01*
X136022307Y-126094485D01*
X136068958Y-126135814D01*
X136080817Y-126152995D01*
X136091778Y-126163956D01*
X136126246Y-126218812D01*
X136164819Y-126274694D01*
X136170084Y-126288578D01*
X136175098Y-126296557D01*
X136198797Y-126364288D01*
X136224659Y-126432479D01*
X136225722Y-126441236D01*
X136226822Y-126444379D01*
X136236075Y-126526497D01*
X136245000Y-126600000D01*
X136245000Y-127400000D01*
X136236073Y-127473515D01*
X136226822Y-127555620D01*
X136225722Y-127558762D01*
X136224659Y-127567521D01*
X136198793Y-127635723D01*
X136175098Y-127703442D01*
X136170085Y-127711418D01*
X136164819Y-127725306D01*
X136126239Y-127781197D01*
X136091778Y-127836043D01*
X136080819Y-127847001D01*
X136068958Y-127864186D01*
X136022298Y-127905522D01*
X135981043Y-127946778D01*
X135962770Y-127958259D01*
X135942645Y-127976089D01*
X135892569Y-128002370D01*
X135848442Y-128030098D01*
X135822329Y-128039235D01*
X135793223Y-128054511D01*
X135743995Y-128066644D01*
X135700620Y-128081822D01*
X135667091Y-128085599D01*
X135629376Y-128094896D01*
X135584591Y-128094896D01*
X135545000Y-128099357D01*
X135505409Y-128094896D01*
X135460624Y-128094896D01*
X135422909Y-128085600D01*
X135389379Y-128081822D01*
X135346001Y-128066643D01*
X135296777Y-128054511D01*
X135267672Y-128039236D01*
X135241557Y-128030098D01*
X135197424Y-128002367D01*
X135147355Y-127976089D01*
X135127232Y-127958261D01*
X135108956Y-127946778D01*
X135067692Y-127905514D01*
X135021042Y-127864186D01*
X135009182Y-127847004D01*
X134998221Y-127836043D01*
X134963748Y-127781181D01*
X134925181Y-127725306D01*
X134919915Y-127711422D01*
X134914901Y-127703442D01*
X134891193Y-127635688D01*
X134865341Y-127567521D01*
X134864278Y-127558766D01*
X134863177Y-127555620D01*
X134853919Y-127473459D01*
X134845000Y-127400000D01*
X134845000Y-126600000D01*
X134853918Y-126526553D01*
X134863177Y-126444379D01*
X134864278Y-126441231D01*
X134865341Y-126432479D01*
X134891189Y-126364322D01*
X134914901Y-126296557D01*
X134919916Y-126288574D01*
X134925181Y-126274694D01*
X134963741Y-126218828D01*
X134998221Y-126163956D01*
X135009184Y-126152992D01*
X135021042Y-126135814D01*
X135067684Y-126094492D01*
X135108956Y-126053221D01*
X135127236Y-126041734D01*
X135147355Y-126023911D01*
X135197414Y-125997637D01*
X135241557Y-125969901D01*
X135267678Y-125960760D01*
X135296777Y-125945489D01*
X135345991Y-125933358D01*
X135389379Y-125918177D01*
X135422917Y-125914398D01*
X135460624Y-125905104D01*
X135505400Y-125905104D01*
X135545000Y-125900642D01*
X135584599Y-125905104D01*
G37*
G36*
X129488834Y-126204939D02*
G01*
X129528563Y-126204939D01*
X129573381Y-126214465D01*
X129623017Y-126220058D01*
X129659108Y-126232686D01*
X129692042Y-126239687D01*
X129739508Y-126260819D01*
X129792107Y-126279225D01*
X129819482Y-126296426D01*
X129844719Y-126307662D01*
X129891774Y-126341850D01*
X129943792Y-126374535D01*
X129962474Y-126393217D01*
X129979929Y-126405899D01*
X130023083Y-126453826D01*
X130070465Y-126501208D01*
X130081362Y-126518550D01*
X130091763Y-126530102D01*
X130127342Y-126591727D01*
X130165775Y-126652893D01*
X130170574Y-126666608D01*
X130175325Y-126674837D01*
X130199653Y-126749712D01*
X130224942Y-126821983D01*
X130225900Y-126830493D01*
X130226971Y-126833787D01*
X130236669Y-126926068D01*
X130245000Y-127000000D01*
X130236669Y-127073937D01*
X130226971Y-127166212D01*
X130225901Y-127169504D01*
X130224942Y-127178017D01*
X130199649Y-127250300D01*
X130175325Y-127325162D01*
X130170575Y-127333389D01*
X130165775Y-127347107D01*
X130127334Y-127408283D01*
X130091763Y-127469897D01*
X130081364Y-127481445D01*
X130070465Y-127498792D01*
X130023074Y-127546182D01*
X129979929Y-127594100D01*
X129962477Y-127606779D01*
X129943792Y-127625465D01*
X129891764Y-127658156D01*
X129844719Y-127692337D01*
X129819488Y-127703570D01*
X129792107Y-127720775D01*
X129739497Y-127739183D01*
X129692042Y-127760312D01*
X129659113Y-127767311D01*
X129623017Y-127779942D01*
X129573378Y-127785534D01*
X129528563Y-127795061D01*
X129488834Y-127795061D01*
X129445000Y-127800000D01*
X129401166Y-127795061D01*
X129361437Y-127795061D01*
X129316620Y-127785534D01*
X129266983Y-127779942D01*
X129230887Y-127767311D01*
X129197957Y-127760312D01*
X129150497Y-127739182D01*
X129097893Y-127720775D01*
X129070514Y-127703571D01*
X129045280Y-127692337D01*
X128998228Y-127658151D01*
X128946208Y-127625465D01*
X128927524Y-127606781D01*
X128910070Y-127594100D01*
X128866915Y-127546172D01*
X128819535Y-127498792D01*
X128808637Y-127481449D01*
X128798236Y-127469897D01*
X128762652Y-127408264D01*
X128724225Y-127347107D01*
X128719426Y-127333393D01*
X128714674Y-127325162D01*
X128690336Y-127250260D01*
X128665058Y-127178017D01*
X128664099Y-127169509D01*
X128663028Y-127166212D01*
X128653316Y-127073805D01*
X128645000Y-127000000D01*
X128653315Y-126926200D01*
X128663028Y-126833787D01*
X128664099Y-126830488D01*
X128665058Y-126821983D01*
X128690332Y-126749752D01*
X128714674Y-126674837D01*
X128719427Y-126666603D01*
X128724225Y-126652893D01*
X128762645Y-126591746D01*
X128798236Y-126530102D01*
X128808639Y-126518547D01*
X128819535Y-126501208D01*
X128866907Y-126453835D01*
X128910072Y-126405897D01*
X128927529Y-126393213D01*
X128946208Y-126374535D01*
X128998224Y-126341850D01*
X129045279Y-126307664D01*
X129070512Y-126296429D01*
X129097893Y-126279225D01*
X129150492Y-126260819D01*
X129197957Y-126239687D01*
X129230893Y-126232686D01*
X129266983Y-126220058D01*
X129316617Y-126214465D01*
X129361437Y-126204939D01*
X129401166Y-126204939D01*
X129445000Y-126200000D01*
X129488834Y-126204939D01*
G37*
G36*
X131488834Y-126204939D02*
G01*
X131528563Y-126204939D01*
X131573381Y-126214465D01*
X131623017Y-126220058D01*
X131659108Y-126232686D01*
X131692042Y-126239687D01*
X131739508Y-126260819D01*
X131792107Y-126279225D01*
X131819482Y-126296426D01*
X131844719Y-126307662D01*
X131891774Y-126341850D01*
X131943792Y-126374535D01*
X131962474Y-126393217D01*
X131979929Y-126405899D01*
X132023083Y-126453826D01*
X132070465Y-126501208D01*
X132081362Y-126518550D01*
X132091763Y-126530102D01*
X132127342Y-126591727D01*
X132165775Y-126652893D01*
X132170574Y-126666608D01*
X132175325Y-126674837D01*
X132199653Y-126749712D01*
X132224942Y-126821983D01*
X132225900Y-126830493D01*
X132226971Y-126833787D01*
X132236669Y-126926068D01*
X132245000Y-127000000D01*
X132236669Y-127073937D01*
X132226971Y-127166212D01*
X132225901Y-127169504D01*
X132224942Y-127178017D01*
X132199649Y-127250300D01*
X132175325Y-127325162D01*
X132170575Y-127333389D01*
X132165775Y-127347107D01*
X132127334Y-127408283D01*
X132091763Y-127469897D01*
X132081364Y-127481445D01*
X132070465Y-127498792D01*
X132023074Y-127546182D01*
X131979929Y-127594100D01*
X131962477Y-127606779D01*
X131943792Y-127625465D01*
X131891764Y-127658156D01*
X131844719Y-127692337D01*
X131819488Y-127703570D01*
X131792107Y-127720775D01*
X131739497Y-127739183D01*
X131692042Y-127760312D01*
X131659113Y-127767311D01*
X131623017Y-127779942D01*
X131573378Y-127785534D01*
X131528563Y-127795061D01*
X131488834Y-127795061D01*
X131445000Y-127800000D01*
X131401166Y-127795061D01*
X131361437Y-127795061D01*
X131316620Y-127785534D01*
X131266983Y-127779942D01*
X131230887Y-127767311D01*
X131197957Y-127760312D01*
X131150497Y-127739182D01*
X131097893Y-127720775D01*
X131070514Y-127703571D01*
X131045280Y-127692337D01*
X130998228Y-127658151D01*
X130946208Y-127625465D01*
X130927524Y-127606781D01*
X130910070Y-127594100D01*
X130866915Y-127546172D01*
X130819535Y-127498792D01*
X130808637Y-127481449D01*
X130798236Y-127469897D01*
X130762652Y-127408264D01*
X130724225Y-127347107D01*
X130719426Y-127333393D01*
X130714674Y-127325162D01*
X130690336Y-127250260D01*
X130665058Y-127178017D01*
X130664099Y-127169509D01*
X130663028Y-127166212D01*
X130653316Y-127073805D01*
X130645000Y-127000000D01*
X130653315Y-126926200D01*
X130663028Y-126833787D01*
X130664099Y-126830488D01*
X130665058Y-126821983D01*
X130690332Y-126749752D01*
X130714674Y-126674837D01*
X130719427Y-126666603D01*
X130724225Y-126652893D01*
X130762645Y-126591746D01*
X130798236Y-126530102D01*
X130808639Y-126518547D01*
X130819535Y-126501208D01*
X130866907Y-126453835D01*
X130910072Y-126405897D01*
X130927529Y-126393213D01*
X130946208Y-126374535D01*
X130998224Y-126341850D01*
X131045279Y-126307664D01*
X131070512Y-126296429D01*
X131097893Y-126279225D01*
X131150492Y-126260819D01*
X131197957Y-126239687D01*
X131230893Y-126232686D01*
X131266983Y-126220058D01*
X131316617Y-126214465D01*
X131361437Y-126204939D01*
X131401166Y-126204939D01*
X131445000Y-126200000D01*
X131488834Y-126204939D01*
G37*
G36*
X133488834Y-126204939D02*
G01*
X133528563Y-126204939D01*
X133573381Y-126214465D01*
X133623017Y-126220058D01*
X133659108Y-126232686D01*
X133692042Y-126239687D01*
X133739508Y-126260819D01*
X133792107Y-126279225D01*
X133819482Y-126296426D01*
X133844719Y-126307662D01*
X133891774Y-126341850D01*
X133943792Y-126374535D01*
X133962474Y-126393217D01*
X133979929Y-126405899D01*
X134023083Y-126453826D01*
X134070465Y-126501208D01*
X134081362Y-126518550D01*
X134091763Y-126530102D01*
X134127342Y-126591727D01*
X134165775Y-126652893D01*
X134170574Y-126666608D01*
X134175325Y-126674837D01*
X134199653Y-126749712D01*
X134224942Y-126821983D01*
X134225900Y-126830493D01*
X134226971Y-126833787D01*
X134236669Y-126926068D01*
X134245000Y-127000000D01*
X134236669Y-127073937D01*
X134226971Y-127166212D01*
X134225901Y-127169504D01*
X134224942Y-127178017D01*
X134199649Y-127250300D01*
X134175325Y-127325162D01*
X134170575Y-127333389D01*
X134165775Y-127347107D01*
X134127334Y-127408283D01*
X134091763Y-127469897D01*
X134081364Y-127481445D01*
X134070465Y-127498792D01*
X134023074Y-127546182D01*
X133979929Y-127594100D01*
X133962477Y-127606779D01*
X133943792Y-127625465D01*
X133891764Y-127658156D01*
X133844719Y-127692337D01*
X133819488Y-127703570D01*
X133792107Y-127720775D01*
X133739497Y-127739183D01*
X133692042Y-127760312D01*
X133659113Y-127767311D01*
X133623017Y-127779942D01*
X133573378Y-127785534D01*
X133528563Y-127795061D01*
X133488834Y-127795061D01*
X133445000Y-127800000D01*
X133401166Y-127795061D01*
X133361437Y-127795061D01*
X133316620Y-127785534D01*
X133266983Y-127779942D01*
X133230887Y-127767311D01*
X133197957Y-127760312D01*
X133150497Y-127739182D01*
X133097893Y-127720775D01*
X133070514Y-127703571D01*
X133045280Y-127692337D01*
X132998228Y-127658151D01*
X132946208Y-127625465D01*
X132927524Y-127606781D01*
X132910070Y-127594100D01*
X132866915Y-127546172D01*
X132819535Y-127498792D01*
X132808637Y-127481449D01*
X132798236Y-127469897D01*
X132762652Y-127408264D01*
X132724225Y-127347107D01*
X132719426Y-127333393D01*
X132714674Y-127325162D01*
X132690336Y-127250260D01*
X132665058Y-127178017D01*
X132664099Y-127169509D01*
X132663028Y-127166212D01*
X132653316Y-127073805D01*
X132645000Y-127000000D01*
X132653315Y-126926200D01*
X132663028Y-126833787D01*
X132664099Y-126830488D01*
X132665058Y-126821983D01*
X132690332Y-126749752D01*
X132714674Y-126674837D01*
X132719427Y-126666603D01*
X132724225Y-126652893D01*
X132762645Y-126591746D01*
X132798236Y-126530102D01*
X132808639Y-126518547D01*
X132819535Y-126501208D01*
X132866907Y-126453835D01*
X132910072Y-126405897D01*
X132927529Y-126393213D01*
X132946208Y-126374535D01*
X132998224Y-126341850D01*
X133045279Y-126307664D01*
X133070512Y-126296429D01*
X133097893Y-126279225D01*
X133150492Y-126260819D01*
X133197957Y-126239687D01*
X133230893Y-126232686D01*
X133266983Y-126220058D01*
X133316617Y-126214465D01*
X133361437Y-126204939D01*
X133401166Y-126204939D01*
X133445000Y-126200000D01*
X133488834Y-126204939D01*
G37*
G36*
X90212286Y-121034656D02*
G01*
X90258849Y-121034656D01*
X90299056Y-121043202D01*
X90335734Y-121046815D01*
X90381815Y-121060793D01*
X90432664Y-121071602D01*
X90465201Y-121086088D01*
X90495093Y-121095156D01*
X90542592Y-121120545D01*
X90595000Y-121143878D01*
X90619365Y-121161580D01*
X90641959Y-121173657D01*
X90688046Y-121211480D01*
X90738761Y-121248327D01*
X90755228Y-121266616D01*
X90770692Y-121279307D01*
X90812254Y-121329950D01*
X90857664Y-121380383D01*
X90867201Y-121396902D01*
X90876342Y-121408040D01*
X90910147Y-121471286D01*
X90946514Y-121534274D01*
X90950697Y-121547151D01*
X90954843Y-121554906D01*
X90977702Y-121630262D01*
X91001425Y-121703275D01*
X91002259Y-121711218D01*
X91003184Y-121714265D01*
X91012179Y-121805592D01*
X91020000Y-121880000D01*
X91012178Y-121954414D01*
X91003184Y-122045734D01*
X91002260Y-122048779D01*
X91001425Y-122056725D01*
X90977697Y-122129751D01*
X90954843Y-122205093D01*
X90950698Y-122212846D01*
X90946514Y-122225726D01*
X90910140Y-122288726D01*
X90876342Y-122351959D01*
X90867203Y-122363093D01*
X90857664Y-122379617D01*
X90812245Y-122430059D01*
X90770692Y-122480692D01*
X90755232Y-122493379D01*
X90738761Y-122511673D01*
X90688035Y-122548527D01*
X90641959Y-122586342D01*
X90619370Y-122598415D01*
X90595000Y-122616122D01*
X90542581Y-122639459D01*
X90495093Y-122664843D01*
X90465208Y-122673908D01*
X90432664Y-122688398D01*
X90381804Y-122699208D01*
X90335734Y-122713184D01*
X90299064Y-122716795D01*
X90258849Y-122725344D01*
X90212276Y-122725344D01*
X90170000Y-122729508D01*
X90127724Y-122725344D01*
X90081151Y-122725344D01*
X90040935Y-122716795D01*
X90004265Y-122713184D01*
X89958192Y-122699207D01*
X89907336Y-122688398D01*
X89874793Y-122673909D01*
X89844906Y-122664843D01*
X89797412Y-122639457D01*
X89745000Y-122616122D01*
X89720632Y-122598417D01*
X89698040Y-122586342D01*
X89651955Y-122548520D01*
X89601239Y-122511673D01*
X89584770Y-122493382D01*
X89569307Y-122480692D01*
X89527743Y-122430047D01*
X89482336Y-122379617D01*
X89472798Y-122363097D01*
X89463657Y-122351959D01*
X89429846Y-122288702D01*
X89393486Y-122225726D01*
X89389302Y-122212851D01*
X89385156Y-122205093D01*
X89362287Y-122129704D01*
X89338575Y-122056725D01*
X89337740Y-122048784D01*
X89336815Y-122045734D01*
X89327805Y-121954263D01*
X89320000Y-121880000D01*
X89327804Y-121805743D01*
X89336815Y-121714265D01*
X89337740Y-121711213D01*
X89338575Y-121703275D01*
X89362282Y-121630309D01*
X89385156Y-121554906D01*
X89389303Y-121547146D01*
X89393486Y-121534274D01*
X89429838Y-121471309D01*
X89463657Y-121408040D01*
X89472800Y-121396898D01*
X89482336Y-121380383D01*
X89527734Y-121329963D01*
X89569307Y-121279307D01*
X89584773Y-121266613D01*
X89601239Y-121248327D01*
X89651944Y-121211486D01*
X89698040Y-121173657D01*
X89720637Y-121161578D01*
X89745000Y-121143878D01*
X89797401Y-121120547D01*
X89844906Y-121095156D01*
X89874800Y-121086087D01*
X89907336Y-121071602D01*
X89958181Y-121060794D01*
X90004265Y-121046815D01*
X90040944Y-121043202D01*
X90081151Y-121034656D01*
X90127713Y-121034656D01*
X90170000Y-121030491D01*
X90212286Y-121034656D01*
G37*
G36*
X127430884Y-119985913D02*
G01*
X127477842Y-119985913D01*
X127530134Y-119995688D01*
X127585845Y-120001175D01*
X127628169Y-120014013D01*
X127668227Y-120021502D01*
X127723706Y-120042994D01*
X127782818Y-120060926D01*
X127816591Y-120078978D01*
X127848831Y-120091468D01*
X127904853Y-120126155D01*
X127964349Y-120157957D01*
X127989345Y-120178471D01*
X128013500Y-120193427D01*
X128067024Y-120242220D01*
X128123462Y-120288538D01*
X128140185Y-120308915D01*
X128156638Y-120323914D01*
X128204401Y-120387162D01*
X128254043Y-120447651D01*
X128263642Y-120465610D01*
X128273356Y-120478473D01*
X128311996Y-120556074D01*
X128351074Y-120629182D01*
X128355242Y-120642922D01*
X128359689Y-120651853D01*
X128385959Y-120744183D01*
X128410825Y-120826155D01*
X128411641Y-120834448D01*
X128412693Y-120838143D01*
X128423627Y-120956144D01*
X128431000Y-121031000D01*
X128423626Y-121105861D01*
X128412693Y-121223856D01*
X128411641Y-121227550D01*
X128410825Y-121235845D01*
X128385954Y-121317831D01*
X128359689Y-121410146D01*
X128355242Y-121419074D01*
X128351074Y-121432818D01*
X128311989Y-121505939D01*
X128273356Y-121583526D01*
X128263644Y-121596386D01*
X128254043Y-121614349D01*
X128204391Y-121674849D01*
X128156638Y-121738085D01*
X128140188Y-121753080D01*
X128123462Y-121773462D01*
X128067013Y-121819788D01*
X128013500Y-121868572D01*
X127989350Y-121883524D01*
X127964349Y-121904043D01*
X127904841Y-121935850D01*
X127848831Y-121970531D01*
X127816598Y-121983017D01*
X127782818Y-122001074D01*
X127723694Y-122019008D01*
X127668227Y-122040497D01*
X127628176Y-122047983D01*
X127585845Y-122060825D01*
X127530131Y-122066312D01*
X127477842Y-122076087D01*
X127430884Y-122076087D01*
X127381000Y-122081000D01*
X127331116Y-122076087D01*
X127284158Y-122076087D01*
X127231868Y-122066312D01*
X127176155Y-122060825D01*
X127133824Y-122047984D01*
X127093772Y-122040497D01*
X127038300Y-122019007D01*
X126979182Y-122001074D01*
X126945404Y-121983019D01*
X126913168Y-121970531D01*
X126857150Y-121935846D01*
X126797651Y-121904043D01*
X126772652Y-121883527D01*
X126748499Y-121868572D01*
X126694976Y-121819780D01*
X126638538Y-121773462D01*
X126621814Y-121753083D01*
X126605361Y-121738085D01*
X126557595Y-121674833D01*
X126507957Y-121614349D01*
X126498358Y-121596390D01*
X126488643Y-121583526D01*
X126449995Y-121505911D01*
X126410926Y-121432818D01*
X126406758Y-121419080D01*
X126402310Y-121410146D01*
X126376029Y-121317778D01*
X126351175Y-121235845D01*
X126350358Y-121227555D01*
X126349306Y-121223856D01*
X126338356Y-121105689D01*
X126331000Y-121031000D01*
X126338355Y-120956316D01*
X126349306Y-120838143D01*
X126350358Y-120834443D01*
X126351175Y-120826155D01*
X126376024Y-120744236D01*
X126402310Y-120651853D01*
X126406759Y-120642917D01*
X126410926Y-120629182D01*
X126449988Y-120556101D01*
X126488643Y-120478473D01*
X126498359Y-120465605D01*
X126507957Y-120447651D01*
X126557586Y-120387177D01*
X126605361Y-120323914D01*
X126621817Y-120308912D01*
X126638538Y-120288538D01*
X126694965Y-120242228D01*
X126748499Y-120193427D01*
X126772657Y-120178468D01*
X126797651Y-120157957D01*
X126857138Y-120126159D01*
X126913168Y-120091468D01*
X126945411Y-120078976D01*
X126979182Y-120060926D01*
X127038288Y-120042996D01*
X127093772Y-120021502D01*
X127133831Y-120014013D01*
X127176155Y-120001175D01*
X127231864Y-119995688D01*
X127284158Y-119985913D01*
X127331116Y-119985913D01*
X127381000Y-119981000D01*
X127430884Y-119985913D01*
G37*
G36*
X90212286Y-116034656D02*
G01*
X90258849Y-116034656D01*
X90299056Y-116043202D01*
X90335734Y-116046815D01*
X90381815Y-116060793D01*
X90432664Y-116071602D01*
X90465201Y-116086088D01*
X90495093Y-116095156D01*
X90542592Y-116120545D01*
X90595000Y-116143878D01*
X90619365Y-116161580D01*
X90641959Y-116173657D01*
X90688046Y-116211480D01*
X90738761Y-116248327D01*
X90755228Y-116266616D01*
X90770692Y-116279307D01*
X90812254Y-116329950D01*
X90857664Y-116380383D01*
X90867201Y-116396902D01*
X90876342Y-116408040D01*
X90910147Y-116471286D01*
X90946514Y-116534274D01*
X90950697Y-116547151D01*
X90954843Y-116554906D01*
X90977702Y-116630262D01*
X91001425Y-116703275D01*
X91002259Y-116711218D01*
X91003184Y-116714265D01*
X91012179Y-116805592D01*
X91020000Y-116880000D01*
X91012178Y-116954414D01*
X91003184Y-117045734D01*
X91002260Y-117048779D01*
X91001425Y-117056725D01*
X90977697Y-117129751D01*
X90954843Y-117205093D01*
X90950698Y-117212846D01*
X90946514Y-117225726D01*
X90910140Y-117288726D01*
X90876342Y-117351959D01*
X90867203Y-117363093D01*
X90857664Y-117379617D01*
X90812245Y-117430059D01*
X90770692Y-117480692D01*
X90755232Y-117493379D01*
X90738761Y-117511673D01*
X90688035Y-117548527D01*
X90641959Y-117586342D01*
X90619370Y-117598415D01*
X90595000Y-117616122D01*
X90542581Y-117639459D01*
X90495093Y-117664843D01*
X90465208Y-117673908D01*
X90432664Y-117688398D01*
X90381804Y-117699208D01*
X90335734Y-117713184D01*
X90299064Y-117716795D01*
X90258849Y-117725344D01*
X90212276Y-117725344D01*
X90170000Y-117729508D01*
X90127724Y-117725344D01*
X90081151Y-117725344D01*
X90040935Y-117716795D01*
X90004265Y-117713184D01*
X89958192Y-117699207D01*
X89907336Y-117688398D01*
X89874793Y-117673909D01*
X89844906Y-117664843D01*
X89797412Y-117639457D01*
X89745000Y-117616122D01*
X89720632Y-117598417D01*
X89698040Y-117586342D01*
X89651955Y-117548520D01*
X89601239Y-117511673D01*
X89584770Y-117493382D01*
X89569307Y-117480692D01*
X89527743Y-117430047D01*
X89482336Y-117379617D01*
X89472798Y-117363097D01*
X89463657Y-117351959D01*
X89429846Y-117288702D01*
X89393486Y-117225726D01*
X89389302Y-117212851D01*
X89385156Y-117205093D01*
X89362287Y-117129704D01*
X89338575Y-117056725D01*
X89337740Y-117048784D01*
X89336815Y-117045734D01*
X89327805Y-116954263D01*
X89320000Y-116880000D01*
X89327804Y-116805743D01*
X89336815Y-116714265D01*
X89337740Y-116711213D01*
X89338575Y-116703275D01*
X89362282Y-116630309D01*
X89385156Y-116554906D01*
X89389303Y-116547146D01*
X89393486Y-116534274D01*
X89429838Y-116471309D01*
X89463657Y-116408040D01*
X89472800Y-116396898D01*
X89482336Y-116380383D01*
X89527734Y-116329963D01*
X89569307Y-116279307D01*
X89584773Y-116266613D01*
X89601239Y-116248327D01*
X89651944Y-116211486D01*
X89698040Y-116173657D01*
X89720637Y-116161578D01*
X89745000Y-116143878D01*
X89797401Y-116120547D01*
X89844906Y-116095156D01*
X89874800Y-116086087D01*
X89907336Y-116071602D01*
X89958181Y-116060794D01*
X90004265Y-116046815D01*
X90040944Y-116043202D01*
X90081151Y-116034656D01*
X90127713Y-116034656D01*
X90170000Y-116030491D01*
X90212286Y-116034656D01*
G37*
G36*
X132126459Y-112110067D02*
G01*
X132176689Y-112110067D01*
X132220062Y-112119286D01*
X132260364Y-112123256D01*
X132310996Y-112138615D01*
X132365841Y-112150273D01*
X132400935Y-112165898D01*
X132433795Y-112175866D01*
X132486018Y-112203779D01*
X132542500Y-112228927D01*
X132568757Y-112248004D01*
X132593627Y-112261297D01*
X132644350Y-112302925D01*
X132698946Y-112342591D01*
X132716675Y-112362281D01*
X132733725Y-112376274D01*
X132779548Y-112432109D01*
X132828341Y-112486299D01*
X132838589Y-112504050D01*
X132848702Y-112516372D01*
X132886105Y-112586350D01*
X132925030Y-112653769D01*
X132929508Y-112667551D01*
X132934133Y-112676204D01*
X132959634Y-112760269D01*
X132984787Y-112837682D01*
X132985672Y-112846105D01*
X132986743Y-112849635D01*
X132997173Y-112955536D01*
X133005000Y-113030000D01*
X132997173Y-113104469D01*
X132986743Y-113210364D01*
X132985672Y-113213892D01*
X132984787Y-113222318D01*
X132959629Y-113299744D01*
X132934133Y-113383795D01*
X132929509Y-113392445D01*
X132925030Y-113406231D01*
X132886098Y-113473661D01*
X132848702Y-113543627D01*
X132838591Y-113555946D01*
X132828341Y-113573701D01*
X132779539Y-113627901D01*
X132733725Y-113683725D01*
X132716678Y-113697714D01*
X132698946Y-113717409D01*
X132644340Y-113757082D01*
X132593627Y-113798702D01*
X132568762Y-113811991D01*
X132542500Y-113831073D01*
X132486007Y-113856225D01*
X132433795Y-113884133D01*
X132400942Y-113894098D01*
X132365841Y-113909727D01*
X132310985Y-113921387D01*
X132260364Y-113936743D01*
X132220071Y-113940711D01*
X132176689Y-113949933D01*
X132126449Y-113949933D01*
X132080000Y-113954508D01*
X132033551Y-113949933D01*
X131983311Y-113949933D01*
X131939928Y-113940711D01*
X131899635Y-113936743D01*
X131849011Y-113921386D01*
X131794159Y-113909727D01*
X131759059Y-113894099D01*
X131726204Y-113884133D01*
X131673986Y-113856222D01*
X131617500Y-113831073D01*
X131591239Y-113811993D01*
X131566372Y-113798702D01*
X131515651Y-113757075D01*
X131461054Y-113717409D01*
X131443323Y-113697717D01*
X131426274Y-113683725D01*
X131380449Y-113627888D01*
X131331659Y-113573701D01*
X131321410Y-113555950D01*
X131311297Y-113543627D01*
X131273887Y-113473638D01*
X131234970Y-113406231D01*
X131230492Y-113392450D01*
X131225866Y-113383795D01*
X131200355Y-113299698D01*
X131175213Y-113222318D01*
X131174328Y-113213898D01*
X131173256Y-113210364D01*
X131162811Y-113104318D01*
X131155000Y-113030000D01*
X131162810Y-112955687D01*
X131173256Y-112849635D01*
X131174328Y-112846100D01*
X131175213Y-112837682D01*
X131200350Y-112760315D01*
X131225866Y-112676204D01*
X131230493Y-112667546D01*
X131234970Y-112653769D01*
X131273880Y-112586373D01*
X131311297Y-112516372D01*
X131321412Y-112504046D01*
X131331659Y-112486299D01*
X131380440Y-112432121D01*
X131426274Y-112376274D01*
X131443327Y-112362278D01*
X131461054Y-112342591D01*
X131515640Y-112302931D01*
X131566372Y-112261297D01*
X131591245Y-112248002D01*
X131617500Y-112228927D01*
X131673975Y-112203782D01*
X131726204Y-112175866D01*
X131759066Y-112165897D01*
X131794159Y-112150273D01*
X131849000Y-112138616D01*
X131899635Y-112123256D01*
X131939937Y-112119286D01*
X131983311Y-112110067D01*
X132033541Y-112110067D01*
X132080000Y-112105491D01*
X132126459Y-112110067D01*
G37*
G36*
X132126459Y-109570067D02*
G01*
X132176689Y-109570067D01*
X132220062Y-109579286D01*
X132260364Y-109583256D01*
X132310996Y-109598615D01*
X132365841Y-109610273D01*
X132400935Y-109625898D01*
X132433795Y-109635866D01*
X132486018Y-109663779D01*
X132542500Y-109688927D01*
X132568757Y-109708004D01*
X132593627Y-109721297D01*
X132644350Y-109762925D01*
X132698946Y-109802591D01*
X132716675Y-109822281D01*
X132733725Y-109836274D01*
X132779548Y-109892109D01*
X132828341Y-109946299D01*
X132838589Y-109964050D01*
X132848702Y-109976372D01*
X132886105Y-110046350D01*
X132925030Y-110113769D01*
X132929508Y-110127551D01*
X132934133Y-110136204D01*
X132959634Y-110220269D01*
X132984787Y-110297682D01*
X132985672Y-110306105D01*
X132986743Y-110309635D01*
X132997173Y-110415536D01*
X133005000Y-110490000D01*
X132997173Y-110564469D01*
X132986743Y-110670364D01*
X132985672Y-110673892D01*
X132984787Y-110682318D01*
X132959629Y-110759744D01*
X132934133Y-110843795D01*
X132929509Y-110852445D01*
X132925030Y-110866231D01*
X132886098Y-110933661D01*
X132848702Y-111003627D01*
X132838591Y-111015946D01*
X132828341Y-111033701D01*
X132779539Y-111087901D01*
X132733725Y-111143725D01*
X132716678Y-111157714D01*
X132698946Y-111177409D01*
X132644340Y-111217082D01*
X132593627Y-111258702D01*
X132568762Y-111271991D01*
X132542500Y-111291073D01*
X132486007Y-111316225D01*
X132433795Y-111344133D01*
X132400942Y-111354098D01*
X132365841Y-111369727D01*
X132310985Y-111381387D01*
X132260364Y-111396743D01*
X132220071Y-111400711D01*
X132176689Y-111409933D01*
X132126449Y-111409933D01*
X132080000Y-111414508D01*
X132033551Y-111409933D01*
X131983311Y-111409933D01*
X131939928Y-111400711D01*
X131899635Y-111396743D01*
X131849011Y-111381386D01*
X131794159Y-111369727D01*
X131759059Y-111354099D01*
X131726204Y-111344133D01*
X131673986Y-111316222D01*
X131617500Y-111291073D01*
X131591239Y-111271993D01*
X131566372Y-111258702D01*
X131515651Y-111217075D01*
X131461054Y-111177409D01*
X131443323Y-111157717D01*
X131426274Y-111143725D01*
X131380449Y-111087888D01*
X131331659Y-111033701D01*
X131321410Y-111015950D01*
X131311297Y-111003627D01*
X131273887Y-110933638D01*
X131234970Y-110866231D01*
X131230492Y-110852450D01*
X131225866Y-110843795D01*
X131200355Y-110759698D01*
X131175213Y-110682318D01*
X131174328Y-110673898D01*
X131173256Y-110670364D01*
X131162811Y-110564318D01*
X131155000Y-110490000D01*
X131162810Y-110415687D01*
X131173256Y-110309635D01*
X131174328Y-110306100D01*
X131175213Y-110297682D01*
X131200350Y-110220315D01*
X131225866Y-110136204D01*
X131230493Y-110127546D01*
X131234970Y-110113769D01*
X131273880Y-110046373D01*
X131311297Y-109976372D01*
X131321412Y-109964046D01*
X131331659Y-109946299D01*
X131380440Y-109892121D01*
X131426274Y-109836274D01*
X131443327Y-109822278D01*
X131461054Y-109802591D01*
X131515640Y-109762931D01*
X131566372Y-109721297D01*
X131591245Y-109708002D01*
X131617500Y-109688927D01*
X131673975Y-109663782D01*
X131726204Y-109635866D01*
X131759066Y-109625897D01*
X131794159Y-109610273D01*
X131849000Y-109598616D01*
X131899635Y-109583256D01*
X131939937Y-109579286D01*
X131983311Y-109570067D01*
X132033541Y-109570067D01*
X132080000Y-109565491D01*
X132126459Y-109570067D01*
G37*
G36*
X137894336Y-107968254D02*
G01*
X138072549Y-108022314D01*
X138236792Y-108110104D01*
X138380751Y-108228249D01*
X138498896Y-108372208D01*
X138586686Y-108536451D01*
X138640746Y-108714664D01*
X138659000Y-108900000D01*
X138640746Y-109085336D01*
X138586686Y-109263549D01*
X138498896Y-109427792D01*
X138380751Y-109571751D01*
X138236792Y-109689896D01*
X138072549Y-109777686D01*
X137894336Y-109831746D01*
X137709000Y-109850000D01*
X137523664Y-109831746D01*
X137345451Y-109777686D01*
X137181208Y-109689896D01*
X137037249Y-109571751D01*
X136919104Y-109427792D01*
X136831314Y-109263549D01*
X136777254Y-109085336D01*
X136759000Y-108900000D01*
X136777254Y-108714664D01*
X136831314Y-108536451D01*
X136919104Y-108372208D01*
X137037249Y-108228249D01*
X137181208Y-108110104D01*
X137345451Y-108022314D01*
X137523664Y-107968254D01*
X137709000Y-107950000D01*
X137894336Y-107968254D01*
G37*
G36*
X132126459Y-107030067D02*
G01*
X132176689Y-107030067D01*
X132220062Y-107039286D01*
X132260364Y-107043256D01*
X132310996Y-107058615D01*
X132365841Y-107070273D01*
X132400935Y-107085898D01*
X132433795Y-107095866D01*
X132486018Y-107123779D01*
X132542500Y-107148927D01*
X132568757Y-107168004D01*
X132593627Y-107181297D01*
X132644350Y-107222925D01*
X132698946Y-107262591D01*
X132716675Y-107282281D01*
X132733725Y-107296274D01*
X132779548Y-107352109D01*
X132828341Y-107406299D01*
X132838589Y-107424050D01*
X132848702Y-107436372D01*
X132886105Y-107506350D01*
X132925030Y-107573769D01*
X132929508Y-107587551D01*
X132934133Y-107596204D01*
X132959634Y-107680269D01*
X132984787Y-107757682D01*
X132985672Y-107766105D01*
X132986743Y-107769635D01*
X132997173Y-107875536D01*
X133005000Y-107950000D01*
X132997173Y-108024469D01*
X132986743Y-108130364D01*
X132985672Y-108133892D01*
X132984787Y-108142318D01*
X132959629Y-108219744D01*
X132934133Y-108303795D01*
X132929509Y-108312445D01*
X132925030Y-108326231D01*
X132886098Y-108393661D01*
X132848702Y-108463627D01*
X132838591Y-108475946D01*
X132828341Y-108493701D01*
X132779539Y-108547901D01*
X132733725Y-108603725D01*
X132716678Y-108617714D01*
X132698946Y-108637409D01*
X132644340Y-108677082D01*
X132593627Y-108718702D01*
X132568762Y-108731991D01*
X132542500Y-108751073D01*
X132486007Y-108776225D01*
X132433795Y-108804133D01*
X132400942Y-108814098D01*
X132365841Y-108829727D01*
X132310985Y-108841387D01*
X132260364Y-108856743D01*
X132220071Y-108860711D01*
X132176689Y-108869933D01*
X132126449Y-108869933D01*
X132080000Y-108874508D01*
X132033551Y-108869933D01*
X131983311Y-108869933D01*
X131939928Y-108860711D01*
X131899635Y-108856743D01*
X131849011Y-108841386D01*
X131794159Y-108829727D01*
X131759059Y-108814099D01*
X131726204Y-108804133D01*
X131673986Y-108776222D01*
X131617500Y-108751073D01*
X131591239Y-108731993D01*
X131566372Y-108718702D01*
X131515651Y-108677075D01*
X131461054Y-108637409D01*
X131443323Y-108617717D01*
X131426274Y-108603725D01*
X131380449Y-108547888D01*
X131331659Y-108493701D01*
X131321410Y-108475950D01*
X131311297Y-108463627D01*
X131273887Y-108393638D01*
X131234970Y-108326231D01*
X131230492Y-108312450D01*
X131225866Y-108303795D01*
X131200355Y-108219698D01*
X131175213Y-108142318D01*
X131174328Y-108133898D01*
X131173256Y-108130364D01*
X131162811Y-108024318D01*
X131155000Y-107950000D01*
X131162810Y-107875687D01*
X131173256Y-107769635D01*
X131174328Y-107766100D01*
X131175213Y-107757682D01*
X131200350Y-107680315D01*
X131225866Y-107596204D01*
X131230493Y-107587546D01*
X131234970Y-107573769D01*
X131273880Y-107506373D01*
X131311297Y-107436372D01*
X131321412Y-107424046D01*
X131331659Y-107406299D01*
X131380440Y-107352121D01*
X131426274Y-107296274D01*
X131443327Y-107282278D01*
X131461054Y-107262591D01*
X131515640Y-107222931D01*
X131566372Y-107181297D01*
X131591245Y-107168002D01*
X131617500Y-107148927D01*
X131673975Y-107123782D01*
X131726204Y-107095866D01*
X131759066Y-107085897D01*
X131794159Y-107070273D01*
X131849000Y-107058616D01*
X131899635Y-107043256D01*
X131939937Y-107039286D01*
X131983311Y-107030067D01*
X132033541Y-107030067D01*
X132080000Y-107025491D01*
X132126459Y-107030067D01*
G37*
G36*
X132126459Y-104490067D02*
G01*
X132176689Y-104490067D01*
X132220062Y-104499286D01*
X132260364Y-104503256D01*
X132310996Y-104518615D01*
X132365841Y-104530273D01*
X132400935Y-104545898D01*
X132433795Y-104555866D01*
X132486018Y-104583779D01*
X132542500Y-104608927D01*
X132568757Y-104628004D01*
X132593627Y-104641297D01*
X132644350Y-104682925D01*
X132698946Y-104722591D01*
X132716675Y-104742281D01*
X132733725Y-104756274D01*
X132779548Y-104812109D01*
X132828341Y-104866299D01*
X132838589Y-104884050D01*
X132848702Y-104896372D01*
X132886105Y-104966350D01*
X132925030Y-105033769D01*
X132929508Y-105047551D01*
X132934133Y-105056204D01*
X132959634Y-105140269D01*
X132984787Y-105217682D01*
X132985672Y-105226105D01*
X132986743Y-105229635D01*
X132997173Y-105335536D01*
X133005000Y-105410000D01*
X132997173Y-105484469D01*
X132986743Y-105590364D01*
X132985672Y-105593892D01*
X132984787Y-105602318D01*
X132959629Y-105679744D01*
X132934133Y-105763795D01*
X132929509Y-105772445D01*
X132925030Y-105786231D01*
X132886098Y-105853661D01*
X132848702Y-105923627D01*
X132838591Y-105935946D01*
X132828341Y-105953701D01*
X132779539Y-106007901D01*
X132733725Y-106063725D01*
X132716678Y-106077714D01*
X132698946Y-106097409D01*
X132644340Y-106137082D01*
X132593627Y-106178702D01*
X132568762Y-106191991D01*
X132542500Y-106211073D01*
X132486007Y-106236225D01*
X132433795Y-106264133D01*
X132400942Y-106274098D01*
X132365841Y-106289727D01*
X132310985Y-106301387D01*
X132260364Y-106316743D01*
X132220071Y-106320711D01*
X132176689Y-106329933D01*
X132126449Y-106329933D01*
X132080000Y-106334508D01*
X132033551Y-106329933D01*
X131983311Y-106329933D01*
X131939928Y-106320711D01*
X131899635Y-106316743D01*
X131849011Y-106301386D01*
X131794159Y-106289727D01*
X131759059Y-106274099D01*
X131726204Y-106264133D01*
X131673986Y-106236222D01*
X131617500Y-106211073D01*
X131591239Y-106191993D01*
X131566372Y-106178702D01*
X131515651Y-106137075D01*
X131461054Y-106097409D01*
X131443323Y-106077717D01*
X131426274Y-106063725D01*
X131380449Y-106007888D01*
X131331659Y-105953701D01*
X131321410Y-105935950D01*
X131311297Y-105923627D01*
X131273887Y-105853638D01*
X131234970Y-105786231D01*
X131230492Y-105772450D01*
X131225866Y-105763795D01*
X131200355Y-105679698D01*
X131175213Y-105602318D01*
X131174328Y-105593898D01*
X131173256Y-105590364D01*
X131162811Y-105484318D01*
X131155000Y-105410000D01*
X131162810Y-105335687D01*
X131173256Y-105229635D01*
X131174328Y-105226100D01*
X131175213Y-105217682D01*
X131200350Y-105140315D01*
X131225866Y-105056204D01*
X131230493Y-105047546D01*
X131234970Y-105033769D01*
X131273880Y-104966373D01*
X131311297Y-104896372D01*
X131321412Y-104884046D01*
X131331659Y-104866299D01*
X131380440Y-104812121D01*
X131426274Y-104756274D01*
X131443327Y-104742278D01*
X131461054Y-104722591D01*
X131515640Y-104682931D01*
X131566372Y-104641297D01*
X131591245Y-104628002D01*
X131617500Y-104608927D01*
X131673975Y-104583782D01*
X131726204Y-104555866D01*
X131759066Y-104545897D01*
X131794159Y-104530273D01*
X131849000Y-104518616D01*
X131899635Y-104503256D01*
X131939937Y-104499286D01*
X131983311Y-104490067D01*
X132033541Y-104490067D01*
X132080000Y-104485491D01*
X132126459Y-104490067D01*
G37*
G36*
X102916459Y-101950067D02*
G01*
X102966689Y-101950067D01*
X103010062Y-101959286D01*
X103050364Y-101963256D01*
X103100996Y-101978615D01*
X103155841Y-101990273D01*
X103190935Y-102005898D01*
X103223795Y-102015866D01*
X103276018Y-102043779D01*
X103332500Y-102068927D01*
X103358757Y-102088004D01*
X103383627Y-102101297D01*
X103434350Y-102142925D01*
X103488946Y-102182591D01*
X103506675Y-102202281D01*
X103523725Y-102216274D01*
X103569548Y-102272109D01*
X103618341Y-102326299D01*
X103628589Y-102344050D01*
X103638702Y-102356372D01*
X103676105Y-102426350D01*
X103715030Y-102493769D01*
X103719508Y-102507551D01*
X103724133Y-102516204D01*
X103749634Y-102600269D01*
X103774787Y-102677682D01*
X103775672Y-102686105D01*
X103776743Y-102689635D01*
X103787173Y-102795536D01*
X103795000Y-102870000D01*
X103787173Y-102944469D01*
X103776743Y-103050364D01*
X103775672Y-103053892D01*
X103774787Y-103062318D01*
X103749629Y-103139744D01*
X103724133Y-103223795D01*
X103719509Y-103232445D01*
X103715030Y-103246231D01*
X103676098Y-103313661D01*
X103638702Y-103383627D01*
X103628591Y-103395946D01*
X103618341Y-103413701D01*
X103569539Y-103467901D01*
X103523725Y-103523725D01*
X103506678Y-103537714D01*
X103488946Y-103557409D01*
X103434340Y-103597082D01*
X103383627Y-103638702D01*
X103358762Y-103651991D01*
X103332500Y-103671073D01*
X103276007Y-103696225D01*
X103223795Y-103724133D01*
X103190942Y-103734098D01*
X103155841Y-103749727D01*
X103100985Y-103761387D01*
X103050364Y-103776743D01*
X103010071Y-103780711D01*
X102966689Y-103789933D01*
X102916449Y-103789933D01*
X102870000Y-103794508D01*
X102823551Y-103789933D01*
X102773311Y-103789933D01*
X102729928Y-103780711D01*
X102689635Y-103776743D01*
X102639011Y-103761386D01*
X102584159Y-103749727D01*
X102549059Y-103734099D01*
X102516204Y-103724133D01*
X102463986Y-103696222D01*
X102407500Y-103671073D01*
X102381239Y-103651993D01*
X102356372Y-103638702D01*
X102305651Y-103597075D01*
X102251054Y-103557409D01*
X102233323Y-103537717D01*
X102216274Y-103523725D01*
X102170449Y-103467888D01*
X102121659Y-103413701D01*
X102111410Y-103395950D01*
X102101297Y-103383627D01*
X102063887Y-103313638D01*
X102024970Y-103246231D01*
X102020492Y-103232450D01*
X102015866Y-103223795D01*
X101990355Y-103139698D01*
X101965213Y-103062318D01*
X101964328Y-103053898D01*
X101963256Y-103050364D01*
X101952811Y-102944318D01*
X101945000Y-102870000D01*
X101952810Y-102795687D01*
X101963256Y-102689635D01*
X101964328Y-102686100D01*
X101965213Y-102677682D01*
X101990350Y-102600315D01*
X102015866Y-102516204D01*
X102020493Y-102507546D01*
X102024970Y-102493769D01*
X102063880Y-102426373D01*
X102101297Y-102356372D01*
X102111412Y-102344046D01*
X102121659Y-102326299D01*
X102170440Y-102272121D01*
X102216274Y-102216274D01*
X102233327Y-102202278D01*
X102251054Y-102182591D01*
X102305640Y-102142931D01*
X102356372Y-102101297D01*
X102381245Y-102088002D01*
X102407500Y-102068927D01*
X102463975Y-102043782D01*
X102516204Y-102015866D01*
X102549066Y-102005897D01*
X102584159Y-101990273D01*
X102639000Y-101978616D01*
X102689635Y-101963256D01*
X102729937Y-101959286D01*
X102773311Y-101950067D01*
X102823541Y-101950067D01*
X102870000Y-101945491D01*
X102916459Y-101950067D01*
G37*
G36*
X118156459Y-101950067D02*
G01*
X118206689Y-101950067D01*
X118250062Y-101959286D01*
X118290364Y-101963256D01*
X118340996Y-101978615D01*
X118395841Y-101990273D01*
X118430935Y-102005898D01*
X118463795Y-102015866D01*
X118516018Y-102043779D01*
X118572500Y-102068927D01*
X118598757Y-102088004D01*
X118623627Y-102101297D01*
X118674350Y-102142925D01*
X118728946Y-102182591D01*
X118746675Y-102202281D01*
X118763725Y-102216274D01*
X118809548Y-102272109D01*
X118858341Y-102326299D01*
X118868589Y-102344050D01*
X118878702Y-102356372D01*
X118916105Y-102426350D01*
X118955030Y-102493769D01*
X118959508Y-102507551D01*
X118964133Y-102516204D01*
X118989634Y-102600269D01*
X119014787Y-102677682D01*
X119015672Y-102686105D01*
X119016743Y-102689635D01*
X119027173Y-102795536D01*
X119035000Y-102870000D01*
X119027173Y-102944469D01*
X119016743Y-103050364D01*
X119015672Y-103053892D01*
X119014787Y-103062318D01*
X118989629Y-103139744D01*
X118964133Y-103223795D01*
X118959509Y-103232445D01*
X118955030Y-103246231D01*
X118916098Y-103313661D01*
X118878702Y-103383627D01*
X118868591Y-103395946D01*
X118858341Y-103413701D01*
X118809539Y-103467901D01*
X118763725Y-103523725D01*
X118746678Y-103537714D01*
X118728946Y-103557409D01*
X118674340Y-103597082D01*
X118623627Y-103638702D01*
X118598762Y-103651991D01*
X118572500Y-103671073D01*
X118516007Y-103696225D01*
X118463795Y-103724133D01*
X118430942Y-103734098D01*
X118395841Y-103749727D01*
X118340985Y-103761387D01*
X118290364Y-103776743D01*
X118250071Y-103780711D01*
X118206689Y-103789933D01*
X118156449Y-103789933D01*
X118110000Y-103794508D01*
X118063551Y-103789933D01*
X118013311Y-103789933D01*
X117969928Y-103780711D01*
X117929635Y-103776743D01*
X117879011Y-103761386D01*
X117824159Y-103749727D01*
X117789059Y-103734099D01*
X117756204Y-103724133D01*
X117703986Y-103696222D01*
X117647500Y-103671073D01*
X117621239Y-103651993D01*
X117596372Y-103638702D01*
X117545651Y-103597075D01*
X117491054Y-103557409D01*
X117473323Y-103537717D01*
X117456274Y-103523725D01*
X117410449Y-103467888D01*
X117361659Y-103413701D01*
X117351410Y-103395950D01*
X117341297Y-103383627D01*
X117303887Y-103313638D01*
X117264970Y-103246231D01*
X117260492Y-103232450D01*
X117255866Y-103223795D01*
X117230355Y-103139698D01*
X117205213Y-103062318D01*
X117204328Y-103053898D01*
X117203256Y-103050364D01*
X117192811Y-102944318D01*
X117185000Y-102870000D01*
X117192810Y-102795687D01*
X117203256Y-102689635D01*
X117204328Y-102686100D01*
X117205213Y-102677682D01*
X117230350Y-102600315D01*
X117255866Y-102516204D01*
X117260493Y-102507546D01*
X117264970Y-102493769D01*
X117303880Y-102426373D01*
X117341297Y-102356372D01*
X117351412Y-102344046D01*
X117361659Y-102326299D01*
X117410440Y-102272121D01*
X117456274Y-102216274D01*
X117473327Y-102202278D01*
X117491054Y-102182591D01*
X117545640Y-102142931D01*
X117596372Y-102101297D01*
X117621245Y-102088002D01*
X117647500Y-102068927D01*
X117703975Y-102043782D01*
X117756204Y-102015866D01*
X117789066Y-102005897D01*
X117824159Y-101990273D01*
X117879000Y-101978616D01*
X117929635Y-101963256D01*
X117969937Y-101959286D01*
X118013311Y-101950067D01*
X118063541Y-101950067D01*
X118110000Y-101945491D01*
X118156459Y-101950067D01*
G37*
G36*
X102916459Y-99410067D02*
G01*
X102966689Y-99410067D01*
X103010062Y-99419286D01*
X103050364Y-99423256D01*
X103100996Y-99438615D01*
X103155841Y-99450273D01*
X103190935Y-99465898D01*
X103223795Y-99475866D01*
X103276018Y-99503779D01*
X103332500Y-99528927D01*
X103358757Y-99548004D01*
X103383627Y-99561297D01*
X103434350Y-99602925D01*
X103488946Y-99642591D01*
X103506675Y-99662281D01*
X103523725Y-99676274D01*
X103569548Y-99732109D01*
X103618341Y-99786299D01*
X103628589Y-99804050D01*
X103638702Y-99816372D01*
X103676105Y-99886350D01*
X103715030Y-99953769D01*
X103719508Y-99967551D01*
X103724133Y-99976204D01*
X103749634Y-100060269D01*
X103774787Y-100137682D01*
X103775672Y-100146105D01*
X103776743Y-100149635D01*
X103787173Y-100255536D01*
X103795000Y-100330000D01*
X103787173Y-100404469D01*
X103776743Y-100510364D01*
X103775672Y-100513892D01*
X103774787Y-100522318D01*
X103749629Y-100599744D01*
X103724133Y-100683795D01*
X103719509Y-100692445D01*
X103715030Y-100706231D01*
X103676098Y-100773661D01*
X103638702Y-100843627D01*
X103628591Y-100855946D01*
X103618341Y-100873701D01*
X103569539Y-100927901D01*
X103523725Y-100983725D01*
X103506678Y-100997714D01*
X103488946Y-101017409D01*
X103434340Y-101057082D01*
X103383627Y-101098702D01*
X103358762Y-101111991D01*
X103332500Y-101131073D01*
X103276007Y-101156225D01*
X103223795Y-101184133D01*
X103190942Y-101194098D01*
X103155841Y-101209727D01*
X103100985Y-101221387D01*
X103050364Y-101236743D01*
X103010071Y-101240711D01*
X102966689Y-101249933D01*
X102916449Y-101249933D01*
X102870000Y-101254508D01*
X102823551Y-101249933D01*
X102773311Y-101249933D01*
X102729928Y-101240711D01*
X102689635Y-101236743D01*
X102639011Y-101221386D01*
X102584159Y-101209727D01*
X102549059Y-101194099D01*
X102516204Y-101184133D01*
X102463986Y-101156222D01*
X102407500Y-101131073D01*
X102381239Y-101111993D01*
X102356372Y-101098702D01*
X102305651Y-101057075D01*
X102251054Y-101017409D01*
X102233323Y-100997717D01*
X102216274Y-100983725D01*
X102170449Y-100927888D01*
X102121659Y-100873701D01*
X102111410Y-100855950D01*
X102101297Y-100843627D01*
X102063887Y-100773638D01*
X102024970Y-100706231D01*
X102020492Y-100692450D01*
X102015866Y-100683795D01*
X101990355Y-100599698D01*
X101965213Y-100522318D01*
X101964328Y-100513898D01*
X101963256Y-100510364D01*
X101952811Y-100404318D01*
X101945000Y-100330000D01*
X101952810Y-100255687D01*
X101963256Y-100149635D01*
X101964328Y-100146100D01*
X101965213Y-100137682D01*
X101990350Y-100060315D01*
X102015866Y-99976204D01*
X102020493Y-99967546D01*
X102024970Y-99953769D01*
X102063880Y-99886373D01*
X102101297Y-99816372D01*
X102111412Y-99804046D01*
X102121659Y-99786299D01*
X102170440Y-99732121D01*
X102216274Y-99676274D01*
X102233327Y-99662278D01*
X102251054Y-99642591D01*
X102305640Y-99602931D01*
X102356372Y-99561297D01*
X102381245Y-99548002D01*
X102407500Y-99528927D01*
X102463975Y-99503782D01*
X102516204Y-99475866D01*
X102549066Y-99465897D01*
X102584159Y-99450273D01*
X102639000Y-99438616D01*
X102689635Y-99423256D01*
X102729937Y-99419286D01*
X102773311Y-99410067D01*
X102823541Y-99410067D01*
X102870000Y-99405491D01*
X102916459Y-99410067D01*
G37*
G36*
X118156459Y-99410067D02*
G01*
X118206689Y-99410067D01*
X118250062Y-99419286D01*
X118290364Y-99423256D01*
X118340996Y-99438615D01*
X118395841Y-99450273D01*
X118430935Y-99465898D01*
X118463795Y-99475866D01*
X118516018Y-99503779D01*
X118572500Y-99528927D01*
X118598757Y-99548004D01*
X118623627Y-99561297D01*
X118674350Y-99602925D01*
X118728946Y-99642591D01*
X118746675Y-99662281D01*
X118763725Y-99676274D01*
X118809548Y-99732109D01*
X118858341Y-99786299D01*
X118868589Y-99804050D01*
X118878702Y-99816372D01*
X118916105Y-99886350D01*
X118955030Y-99953769D01*
X118959508Y-99967551D01*
X118964133Y-99976204D01*
X118989634Y-100060269D01*
X119014787Y-100137682D01*
X119015672Y-100146105D01*
X119016743Y-100149635D01*
X119027173Y-100255536D01*
X119035000Y-100330000D01*
X119027173Y-100404469D01*
X119016743Y-100510364D01*
X119015672Y-100513892D01*
X119014787Y-100522318D01*
X118989629Y-100599744D01*
X118964133Y-100683795D01*
X118959509Y-100692445D01*
X118955030Y-100706231D01*
X118916098Y-100773661D01*
X118878702Y-100843627D01*
X118868591Y-100855946D01*
X118858341Y-100873701D01*
X118809539Y-100927901D01*
X118763725Y-100983725D01*
X118746678Y-100997714D01*
X118728946Y-101017409D01*
X118674340Y-101057082D01*
X118623627Y-101098702D01*
X118598762Y-101111991D01*
X118572500Y-101131073D01*
X118516007Y-101156225D01*
X118463795Y-101184133D01*
X118430942Y-101194098D01*
X118395841Y-101209727D01*
X118340985Y-101221387D01*
X118290364Y-101236743D01*
X118250071Y-101240711D01*
X118206689Y-101249933D01*
X118156449Y-101249933D01*
X118110000Y-101254508D01*
X118063551Y-101249933D01*
X118013311Y-101249933D01*
X117969928Y-101240711D01*
X117929635Y-101236743D01*
X117879011Y-101221386D01*
X117824159Y-101209727D01*
X117789059Y-101194099D01*
X117756204Y-101184133D01*
X117703986Y-101156222D01*
X117647500Y-101131073D01*
X117621239Y-101111993D01*
X117596372Y-101098702D01*
X117545651Y-101057075D01*
X117491054Y-101017409D01*
X117473323Y-100997717D01*
X117456274Y-100983725D01*
X117410449Y-100927888D01*
X117361659Y-100873701D01*
X117351410Y-100855950D01*
X117341297Y-100843627D01*
X117303887Y-100773638D01*
X117264970Y-100706231D01*
X117260492Y-100692450D01*
X117255866Y-100683795D01*
X117230355Y-100599698D01*
X117205213Y-100522318D01*
X117204328Y-100513898D01*
X117203256Y-100510364D01*
X117192811Y-100404318D01*
X117185000Y-100330000D01*
X117192810Y-100255687D01*
X117203256Y-100149635D01*
X117204328Y-100146100D01*
X117205213Y-100137682D01*
X117230350Y-100060315D01*
X117255866Y-99976204D01*
X117260493Y-99967546D01*
X117264970Y-99953769D01*
X117303880Y-99886373D01*
X117341297Y-99816372D01*
X117351412Y-99804046D01*
X117361659Y-99786299D01*
X117410440Y-99732121D01*
X117456274Y-99676274D01*
X117473327Y-99662278D01*
X117491054Y-99642591D01*
X117545640Y-99602931D01*
X117596372Y-99561297D01*
X117621245Y-99548002D01*
X117647500Y-99528927D01*
X117703975Y-99503782D01*
X117756204Y-99475866D01*
X117789066Y-99465897D01*
X117824159Y-99450273D01*
X117879000Y-99438616D01*
X117929635Y-99423256D01*
X117969937Y-99419286D01*
X118013311Y-99410067D01*
X118063541Y-99410067D01*
X118110000Y-99405491D01*
X118156459Y-99410067D01*
G37*
G36*
X90212286Y-98174656D02*
G01*
X90258849Y-98174656D01*
X90299056Y-98183202D01*
X90335734Y-98186815D01*
X90381815Y-98200793D01*
X90432664Y-98211602D01*
X90465201Y-98226088D01*
X90495093Y-98235156D01*
X90542592Y-98260545D01*
X90595000Y-98283878D01*
X90619365Y-98301580D01*
X90641959Y-98313657D01*
X90688046Y-98351480D01*
X90738761Y-98388327D01*
X90755228Y-98406616D01*
X90770692Y-98419307D01*
X90812254Y-98469950D01*
X90857664Y-98520383D01*
X90867201Y-98536902D01*
X90876342Y-98548040D01*
X90910147Y-98611286D01*
X90946514Y-98674274D01*
X90950697Y-98687151D01*
X90954843Y-98694906D01*
X90977702Y-98770262D01*
X91001425Y-98843275D01*
X91002259Y-98851218D01*
X91003184Y-98854265D01*
X91012179Y-98945592D01*
X91020000Y-99020000D01*
X91012178Y-99094414D01*
X91003184Y-99185734D01*
X91002260Y-99188779D01*
X91001425Y-99196725D01*
X90977697Y-99269751D01*
X90954843Y-99345093D01*
X90950698Y-99352846D01*
X90946514Y-99365726D01*
X90910140Y-99428726D01*
X90876342Y-99491959D01*
X90867203Y-99503093D01*
X90857664Y-99519617D01*
X90812245Y-99570059D01*
X90770692Y-99620692D01*
X90755232Y-99633379D01*
X90738761Y-99651673D01*
X90688035Y-99688527D01*
X90641959Y-99726342D01*
X90619370Y-99738415D01*
X90595000Y-99756122D01*
X90542581Y-99779459D01*
X90495093Y-99804843D01*
X90465208Y-99813908D01*
X90432664Y-99828398D01*
X90381804Y-99839208D01*
X90335734Y-99853184D01*
X90299064Y-99856795D01*
X90258849Y-99865344D01*
X90212276Y-99865344D01*
X90170000Y-99869508D01*
X90127724Y-99865344D01*
X90081151Y-99865344D01*
X90040935Y-99856795D01*
X90004265Y-99853184D01*
X89958192Y-99839207D01*
X89907336Y-99828398D01*
X89874793Y-99813909D01*
X89844906Y-99804843D01*
X89797412Y-99779457D01*
X89745000Y-99756122D01*
X89720632Y-99738417D01*
X89698040Y-99726342D01*
X89651955Y-99688520D01*
X89601239Y-99651673D01*
X89584770Y-99633382D01*
X89569307Y-99620692D01*
X89527743Y-99570047D01*
X89482336Y-99519617D01*
X89472798Y-99503097D01*
X89463657Y-99491959D01*
X89429846Y-99428702D01*
X89393486Y-99365726D01*
X89389302Y-99352851D01*
X89385156Y-99345093D01*
X89362287Y-99269704D01*
X89338575Y-99196725D01*
X89337740Y-99188784D01*
X89336815Y-99185734D01*
X89327805Y-99094263D01*
X89320000Y-99020000D01*
X89327804Y-98945743D01*
X89336815Y-98854265D01*
X89337740Y-98851213D01*
X89338575Y-98843275D01*
X89362282Y-98770309D01*
X89385156Y-98694906D01*
X89389303Y-98687146D01*
X89393486Y-98674274D01*
X89429838Y-98611309D01*
X89463657Y-98548040D01*
X89472800Y-98536898D01*
X89482336Y-98520383D01*
X89527734Y-98469963D01*
X89569307Y-98419307D01*
X89584773Y-98406613D01*
X89601239Y-98388327D01*
X89651944Y-98351486D01*
X89698040Y-98313657D01*
X89720637Y-98301578D01*
X89745000Y-98283878D01*
X89797401Y-98260547D01*
X89844906Y-98235156D01*
X89874800Y-98226087D01*
X89907336Y-98211602D01*
X89958181Y-98200794D01*
X90004265Y-98186815D01*
X90040944Y-98183202D01*
X90081151Y-98174656D01*
X90127713Y-98174656D01*
X90170000Y-98170491D01*
X90212286Y-98174656D01*
G37*
G36*
X102916459Y-96870067D02*
G01*
X102966689Y-96870067D01*
X103010062Y-96879286D01*
X103050364Y-96883256D01*
X103100996Y-96898615D01*
X103155841Y-96910273D01*
X103190935Y-96925898D01*
X103223795Y-96935866D01*
X103276018Y-96963779D01*
X103332500Y-96988927D01*
X103358757Y-97008004D01*
X103383627Y-97021297D01*
X103434350Y-97062925D01*
X103488946Y-97102591D01*
X103506675Y-97122281D01*
X103523725Y-97136274D01*
X103569548Y-97192109D01*
X103618341Y-97246299D01*
X103628589Y-97264050D01*
X103638702Y-97276372D01*
X103676105Y-97346350D01*
X103715030Y-97413769D01*
X103719508Y-97427551D01*
X103724133Y-97436204D01*
X103749634Y-97520269D01*
X103774787Y-97597682D01*
X103775672Y-97606105D01*
X103776743Y-97609635D01*
X103787173Y-97715536D01*
X103795000Y-97790000D01*
X103787173Y-97864469D01*
X103776743Y-97970364D01*
X103775672Y-97973892D01*
X103774787Y-97982318D01*
X103749629Y-98059744D01*
X103724133Y-98143795D01*
X103719509Y-98152445D01*
X103715030Y-98166231D01*
X103676098Y-98233661D01*
X103638702Y-98303627D01*
X103628591Y-98315946D01*
X103618341Y-98333701D01*
X103569539Y-98387901D01*
X103523725Y-98443725D01*
X103506678Y-98457714D01*
X103488946Y-98477409D01*
X103434340Y-98517082D01*
X103383627Y-98558702D01*
X103358762Y-98571991D01*
X103332500Y-98591073D01*
X103276007Y-98616225D01*
X103223795Y-98644133D01*
X103190942Y-98654098D01*
X103155841Y-98669727D01*
X103100985Y-98681387D01*
X103050364Y-98696743D01*
X103010071Y-98700711D01*
X102966689Y-98709933D01*
X102916449Y-98709933D01*
X102870000Y-98714508D01*
X102823551Y-98709933D01*
X102773311Y-98709933D01*
X102729928Y-98700711D01*
X102689635Y-98696743D01*
X102639011Y-98681386D01*
X102584159Y-98669727D01*
X102549059Y-98654099D01*
X102516204Y-98644133D01*
X102463986Y-98616222D01*
X102407500Y-98591073D01*
X102381239Y-98571993D01*
X102356372Y-98558702D01*
X102305651Y-98517075D01*
X102251054Y-98477409D01*
X102233323Y-98457717D01*
X102216274Y-98443725D01*
X102170449Y-98387888D01*
X102121659Y-98333701D01*
X102111410Y-98315950D01*
X102101297Y-98303627D01*
X102063887Y-98233638D01*
X102024970Y-98166231D01*
X102020492Y-98152450D01*
X102015866Y-98143795D01*
X101990355Y-98059698D01*
X101965213Y-97982318D01*
X101964328Y-97973898D01*
X101963256Y-97970364D01*
X101952811Y-97864318D01*
X101945000Y-97790000D01*
X101952810Y-97715687D01*
X101963256Y-97609635D01*
X101964328Y-97606100D01*
X101965213Y-97597682D01*
X101990350Y-97520315D01*
X102015866Y-97436204D01*
X102020493Y-97427546D01*
X102024970Y-97413769D01*
X102063880Y-97346373D01*
X102101297Y-97276372D01*
X102111412Y-97264046D01*
X102121659Y-97246299D01*
X102170440Y-97192121D01*
X102216274Y-97136274D01*
X102233327Y-97122278D01*
X102251054Y-97102591D01*
X102305640Y-97062931D01*
X102356372Y-97021297D01*
X102381245Y-97008002D01*
X102407500Y-96988927D01*
X102463975Y-96963782D01*
X102516204Y-96935866D01*
X102549066Y-96925897D01*
X102584159Y-96910273D01*
X102639000Y-96898616D01*
X102689635Y-96883256D01*
X102729937Y-96879286D01*
X102773311Y-96870067D01*
X102823541Y-96870067D01*
X102870000Y-96865491D01*
X102916459Y-96870067D01*
G37*
G36*
X118156459Y-96870067D02*
G01*
X118206689Y-96870067D01*
X118250062Y-96879286D01*
X118290364Y-96883256D01*
X118340996Y-96898615D01*
X118395841Y-96910273D01*
X118430935Y-96925898D01*
X118463795Y-96935866D01*
X118516018Y-96963779D01*
X118572500Y-96988927D01*
X118598757Y-97008004D01*
X118623627Y-97021297D01*
X118674350Y-97062925D01*
X118728946Y-97102591D01*
X118746675Y-97122281D01*
X118763725Y-97136274D01*
X118809548Y-97192109D01*
X118858341Y-97246299D01*
X118868589Y-97264050D01*
X118878702Y-97276372D01*
X118916105Y-97346350D01*
X118955030Y-97413769D01*
X118959508Y-97427551D01*
X118964133Y-97436204D01*
X118989634Y-97520269D01*
X119014787Y-97597682D01*
X119015672Y-97606105D01*
X119016743Y-97609635D01*
X119027173Y-97715536D01*
X119035000Y-97790000D01*
X119027173Y-97864469D01*
X119016743Y-97970364D01*
X119015672Y-97973892D01*
X119014787Y-97982318D01*
X118989629Y-98059744D01*
X118964133Y-98143795D01*
X118959509Y-98152445D01*
X118955030Y-98166231D01*
X118916098Y-98233661D01*
X118878702Y-98303627D01*
X118868591Y-98315946D01*
X118858341Y-98333701D01*
X118809539Y-98387901D01*
X118763725Y-98443725D01*
X118746678Y-98457714D01*
X118728946Y-98477409D01*
X118674340Y-98517082D01*
X118623627Y-98558702D01*
X118598762Y-98571991D01*
X118572500Y-98591073D01*
X118516007Y-98616225D01*
X118463795Y-98644133D01*
X118430942Y-98654098D01*
X118395841Y-98669727D01*
X118340985Y-98681387D01*
X118290364Y-98696743D01*
X118250071Y-98700711D01*
X118206689Y-98709933D01*
X118156449Y-98709933D01*
X118110000Y-98714508D01*
X118063551Y-98709933D01*
X118013311Y-98709933D01*
X117969928Y-98700711D01*
X117929635Y-98696743D01*
X117879011Y-98681386D01*
X117824159Y-98669727D01*
X117789059Y-98654099D01*
X117756204Y-98644133D01*
X117703986Y-98616222D01*
X117647500Y-98591073D01*
X117621239Y-98571993D01*
X117596372Y-98558702D01*
X117545651Y-98517075D01*
X117491054Y-98477409D01*
X117473323Y-98457717D01*
X117456274Y-98443725D01*
X117410449Y-98387888D01*
X117361659Y-98333701D01*
X117351410Y-98315950D01*
X117341297Y-98303627D01*
X117303887Y-98233638D01*
X117264970Y-98166231D01*
X117260492Y-98152450D01*
X117255866Y-98143795D01*
X117230355Y-98059698D01*
X117205213Y-97982318D01*
X117204328Y-97973898D01*
X117203256Y-97970364D01*
X117192811Y-97864318D01*
X117185000Y-97790000D01*
X117192810Y-97715687D01*
X117203256Y-97609635D01*
X117204328Y-97606100D01*
X117205213Y-97597682D01*
X117230350Y-97520315D01*
X117255866Y-97436204D01*
X117260493Y-97427546D01*
X117264970Y-97413769D01*
X117303880Y-97346373D01*
X117341297Y-97276372D01*
X117351412Y-97264046D01*
X117361659Y-97246299D01*
X117410440Y-97192121D01*
X117456274Y-97136274D01*
X117473327Y-97122278D01*
X117491054Y-97102591D01*
X117545640Y-97062931D01*
X117596372Y-97021297D01*
X117621245Y-97008002D01*
X117647500Y-96988927D01*
X117703975Y-96963782D01*
X117756204Y-96935866D01*
X117789066Y-96925897D01*
X117824159Y-96910273D01*
X117879000Y-96898616D01*
X117929635Y-96883256D01*
X117969937Y-96879286D01*
X118013311Y-96870067D01*
X118063541Y-96870067D01*
X118110000Y-96865491D01*
X118156459Y-96870067D01*
G37*
G36*
X137894336Y-95268254D02*
G01*
X138072549Y-95322314D01*
X138236792Y-95410104D01*
X138380751Y-95528249D01*
X138498896Y-95672208D01*
X138586686Y-95836451D01*
X138640746Y-96014664D01*
X138659000Y-96200000D01*
X138640746Y-96385336D01*
X138586686Y-96563549D01*
X138498896Y-96727792D01*
X138380751Y-96871751D01*
X138236792Y-96989896D01*
X138072549Y-97077686D01*
X137894336Y-97131746D01*
X137709000Y-97150000D01*
X137523664Y-97131746D01*
X137345451Y-97077686D01*
X137181208Y-96989896D01*
X137037249Y-96871751D01*
X136919104Y-96727792D01*
X136831314Y-96563549D01*
X136777254Y-96385336D01*
X136759000Y-96200000D01*
X136777254Y-96014664D01*
X136831314Y-95836451D01*
X136919104Y-95672208D01*
X137037249Y-95528249D01*
X137181208Y-95410104D01*
X137345451Y-95322314D01*
X137523664Y-95268254D01*
X137709000Y-95250000D01*
X137894336Y-95268254D01*
G37*
G36*
X102916459Y-94330067D02*
G01*
X102966689Y-94330067D01*
X103010062Y-94339286D01*
X103050364Y-94343256D01*
X103100996Y-94358615D01*
X103155841Y-94370273D01*
X103190935Y-94385898D01*
X103223795Y-94395866D01*
X103276018Y-94423779D01*
X103332500Y-94448927D01*
X103358757Y-94468004D01*
X103383627Y-94481297D01*
X103434350Y-94522925D01*
X103488946Y-94562591D01*
X103506675Y-94582281D01*
X103523725Y-94596274D01*
X103569548Y-94652109D01*
X103618341Y-94706299D01*
X103628589Y-94724050D01*
X103638702Y-94736372D01*
X103676105Y-94806350D01*
X103715030Y-94873769D01*
X103719508Y-94887551D01*
X103724133Y-94896204D01*
X103749634Y-94980269D01*
X103774787Y-95057682D01*
X103775672Y-95066105D01*
X103776743Y-95069635D01*
X103787173Y-95175536D01*
X103795000Y-95250000D01*
X103787173Y-95324469D01*
X103776743Y-95430364D01*
X103775672Y-95433892D01*
X103774787Y-95442318D01*
X103749629Y-95519744D01*
X103724133Y-95603795D01*
X103719509Y-95612445D01*
X103715030Y-95626231D01*
X103676098Y-95693661D01*
X103638702Y-95763627D01*
X103628591Y-95775946D01*
X103618341Y-95793701D01*
X103569539Y-95847901D01*
X103523725Y-95903725D01*
X103506678Y-95917714D01*
X103488946Y-95937409D01*
X103434340Y-95977082D01*
X103383627Y-96018702D01*
X103358762Y-96031991D01*
X103332500Y-96051073D01*
X103276007Y-96076225D01*
X103223795Y-96104133D01*
X103190942Y-96114098D01*
X103155841Y-96129727D01*
X103100985Y-96141387D01*
X103050364Y-96156743D01*
X103010071Y-96160711D01*
X102966689Y-96169933D01*
X102916449Y-96169933D01*
X102870000Y-96174508D01*
X102823551Y-96169933D01*
X102773311Y-96169933D01*
X102729928Y-96160711D01*
X102689635Y-96156743D01*
X102639011Y-96141386D01*
X102584159Y-96129727D01*
X102549059Y-96114099D01*
X102516204Y-96104133D01*
X102463986Y-96076222D01*
X102407500Y-96051073D01*
X102381239Y-96031993D01*
X102356372Y-96018702D01*
X102305651Y-95977075D01*
X102251054Y-95937409D01*
X102233323Y-95917717D01*
X102216274Y-95903725D01*
X102170449Y-95847888D01*
X102121659Y-95793701D01*
X102111410Y-95775950D01*
X102101297Y-95763627D01*
X102063887Y-95693638D01*
X102024970Y-95626231D01*
X102020492Y-95612450D01*
X102015866Y-95603795D01*
X101990355Y-95519698D01*
X101965213Y-95442318D01*
X101964328Y-95433898D01*
X101963256Y-95430364D01*
X101952811Y-95324318D01*
X101945000Y-95250000D01*
X101952810Y-95175687D01*
X101963256Y-95069635D01*
X101964328Y-95066100D01*
X101965213Y-95057682D01*
X101990350Y-94980315D01*
X102015866Y-94896204D01*
X102020493Y-94887546D01*
X102024970Y-94873769D01*
X102063880Y-94806373D01*
X102101297Y-94736372D01*
X102111412Y-94724046D01*
X102121659Y-94706299D01*
X102170440Y-94652121D01*
X102216274Y-94596274D01*
X102233327Y-94582278D01*
X102251054Y-94562591D01*
X102305640Y-94522931D01*
X102356372Y-94481297D01*
X102381245Y-94468002D01*
X102407500Y-94448927D01*
X102463975Y-94423782D01*
X102516204Y-94395866D01*
X102549066Y-94385897D01*
X102584159Y-94370273D01*
X102639000Y-94358616D01*
X102689635Y-94343256D01*
X102729937Y-94339286D01*
X102773311Y-94330067D01*
X102823541Y-94330067D01*
X102870000Y-94325491D01*
X102916459Y-94330067D01*
G37*
G36*
X118156459Y-94330067D02*
G01*
X118206689Y-94330067D01*
X118250062Y-94339286D01*
X118290364Y-94343256D01*
X118340996Y-94358615D01*
X118395841Y-94370273D01*
X118430935Y-94385898D01*
X118463795Y-94395866D01*
X118516018Y-94423779D01*
X118572500Y-94448927D01*
X118598757Y-94468004D01*
X118623627Y-94481297D01*
X118674350Y-94522925D01*
X118728946Y-94562591D01*
X118746675Y-94582281D01*
X118763725Y-94596274D01*
X118809548Y-94652109D01*
X118858341Y-94706299D01*
X118868589Y-94724050D01*
X118878702Y-94736372D01*
X118916105Y-94806350D01*
X118955030Y-94873769D01*
X118959508Y-94887551D01*
X118964133Y-94896204D01*
X118989634Y-94980269D01*
X119014787Y-95057682D01*
X119015672Y-95066105D01*
X119016743Y-95069635D01*
X119027173Y-95175536D01*
X119035000Y-95250000D01*
X119027173Y-95324469D01*
X119016743Y-95430364D01*
X119015672Y-95433892D01*
X119014787Y-95442318D01*
X118989629Y-95519744D01*
X118964133Y-95603795D01*
X118959509Y-95612445D01*
X118955030Y-95626231D01*
X118916098Y-95693661D01*
X118878702Y-95763627D01*
X118868591Y-95775946D01*
X118858341Y-95793701D01*
X118809539Y-95847901D01*
X118763725Y-95903725D01*
X118746678Y-95917714D01*
X118728946Y-95937409D01*
X118674340Y-95977082D01*
X118623627Y-96018702D01*
X118598762Y-96031991D01*
X118572500Y-96051073D01*
X118516007Y-96076225D01*
X118463795Y-96104133D01*
X118430942Y-96114098D01*
X118395841Y-96129727D01*
X118340985Y-96141387D01*
X118290364Y-96156743D01*
X118250071Y-96160711D01*
X118206689Y-96169933D01*
X118156449Y-96169933D01*
X118110000Y-96174508D01*
X118063551Y-96169933D01*
X118013311Y-96169933D01*
X117969928Y-96160711D01*
X117929635Y-96156743D01*
X117879011Y-96141386D01*
X117824159Y-96129727D01*
X117789059Y-96114099D01*
X117756204Y-96104133D01*
X117703986Y-96076222D01*
X117647500Y-96051073D01*
X117621239Y-96031993D01*
X117596372Y-96018702D01*
X117545651Y-95977075D01*
X117491054Y-95937409D01*
X117473323Y-95917717D01*
X117456274Y-95903725D01*
X117410449Y-95847888D01*
X117361659Y-95793701D01*
X117351410Y-95775950D01*
X117341297Y-95763627D01*
X117303887Y-95693638D01*
X117264970Y-95626231D01*
X117260492Y-95612450D01*
X117255866Y-95603795D01*
X117230355Y-95519698D01*
X117205213Y-95442318D01*
X117204328Y-95433898D01*
X117203256Y-95430364D01*
X117192811Y-95324318D01*
X117185000Y-95250000D01*
X117192810Y-95175687D01*
X117203256Y-95069635D01*
X117204328Y-95066100D01*
X117205213Y-95057682D01*
X117230350Y-94980315D01*
X117255866Y-94896204D01*
X117260493Y-94887546D01*
X117264970Y-94873769D01*
X117303880Y-94806373D01*
X117341297Y-94736372D01*
X117351412Y-94724046D01*
X117361659Y-94706299D01*
X117410440Y-94652121D01*
X117456274Y-94596274D01*
X117473327Y-94582278D01*
X117491054Y-94562591D01*
X117545640Y-94522931D01*
X117596372Y-94481297D01*
X117621245Y-94468002D01*
X117647500Y-94448927D01*
X117703975Y-94423782D01*
X117756204Y-94395866D01*
X117789066Y-94385897D01*
X117824159Y-94370273D01*
X117879000Y-94358616D01*
X117929635Y-94343256D01*
X117969937Y-94339286D01*
X118013311Y-94330067D01*
X118063541Y-94330067D01*
X118110000Y-94325491D01*
X118156459Y-94330067D01*
G37*
G36*
X90212286Y-93174656D02*
G01*
X90258849Y-93174656D01*
X90299056Y-93183202D01*
X90335734Y-93186815D01*
X90381815Y-93200793D01*
X90432664Y-93211602D01*
X90465201Y-93226088D01*
X90495093Y-93235156D01*
X90542592Y-93260545D01*
X90595000Y-93283878D01*
X90619365Y-93301580D01*
X90641959Y-93313657D01*
X90688046Y-93351480D01*
X90738761Y-93388327D01*
X90755228Y-93406616D01*
X90770692Y-93419307D01*
X90812254Y-93469950D01*
X90857664Y-93520383D01*
X90867201Y-93536902D01*
X90876342Y-93548040D01*
X90910147Y-93611286D01*
X90946514Y-93674274D01*
X90950697Y-93687151D01*
X90954843Y-93694906D01*
X90977702Y-93770262D01*
X91001425Y-93843275D01*
X91002259Y-93851218D01*
X91003184Y-93854265D01*
X91012179Y-93945592D01*
X91020000Y-94020000D01*
X91012178Y-94094414D01*
X91003184Y-94185734D01*
X91002260Y-94188779D01*
X91001425Y-94196725D01*
X90977697Y-94269751D01*
X90954843Y-94345093D01*
X90950698Y-94352846D01*
X90946514Y-94365726D01*
X90910140Y-94428726D01*
X90876342Y-94491959D01*
X90867203Y-94503093D01*
X90857664Y-94519617D01*
X90812245Y-94570059D01*
X90770692Y-94620692D01*
X90755232Y-94633379D01*
X90738761Y-94651673D01*
X90688035Y-94688527D01*
X90641959Y-94726342D01*
X90619370Y-94738415D01*
X90595000Y-94756122D01*
X90542581Y-94779459D01*
X90495093Y-94804843D01*
X90465208Y-94813908D01*
X90432664Y-94828398D01*
X90381804Y-94839208D01*
X90335734Y-94853184D01*
X90299064Y-94856795D01*
X90258849Y-94865344D01*
X90212276Y-94865344D01*
X90170000Y-94869508D01*
X90127724Y-94865344D01*
X90081151Y-94865344D01*
X90040935Y-94856795D01*
X90004265Y-94853184D01*
X89958192Y-94839207D01*
X89907336Y-94828398D01*
X89874793Y-94813909D01*
X89844906Y-94804843D01*
X89797412Y-94779457D01*
X89745000Y-94756122D01*
X89720632Y-94738417D01*
X89698040Y-94726342D01*
X89651955Y-94688520D01*
X89601239Y-94651673D01*
X89584770Y-94633382D01*
X89569307Y-94620692D01*
X89527743Y-94570047D01*
X89482336Y-94519617D01*
X89472798Y-94503097D01*
X89463657Y-94491959D01*
X89429846Y-94428702D01*
X89393486Y-94365726D01*
X89389302Y-94352851D01*
X89385156Y-94345093D01*
X89362287Y-94269704D01*
X89338575Y-94196725D01*
X89337740Y-94188784D01*
X89336815Y-94185734D01*
X89327805Y-94094263D01*
X89320000Y-94020000D01*
X89327804Y-93945743D01*
X89336815Y-93854265D01*
X89337740Y-93851213D01*
X89338575Y-93843275D01*
X89362282Y-93770309D01*
X89385156Y-93694906D01*
X89389303Y-93687146D01*
X89393486Y-93674274D01*
X89429838Y-93611309D01*
X89463657Y-93548040D01*
X89472800Y-93536898D01*
X89482336Y-93520383D01*
X89527734Y-93469963D01*
X89569307Y-93419307D01*
X89584773Y-93406613D01*
X89601239Y-93388327D01*
X89651944Y-93351486D01*
X89698040Y-93313657D01*
X89720637Y-93301578D01*
X89745000Y-93283878D01*
X89797401Y-93260547D01*
X89844906Y-93235156D01*
X89874800Y-93226087D01*
X89907336Y-93211602D01*
X89958181Y-93200794D01*
X90004265Y-93186815D01*
X90040944Y-93183202D01*
X90081151Y-93174656D01*
X90127713Y-93174656D01*
X90170000Y-93170491D01*
X90212286Y-93174656D01*
G37*
G36*
X102916459Y-91790067D02*
G01*
X102966689Y-91790067D01*
X103010062Y-91799286D01*
X103050364Y-91803256D01*
X103100996Y-91818615D01*
X103155841Y-91830273D01*
X103190935Y-91845898D01*
X103223795Y-91855866D01*
X103276018Y-91883779D01*
X103332500Y-91908927D01*
X103358757Y-91928004D01*
X103383627Y-91941297D01*
X103434350Y-91982925D01*
X103488946Y-92022591D01*
X103506675Y-92042281D01*
X103523725Y-92056274D01*
X103569548Y-92112109D01*
X103618341Y-92166299D01*
X103628589Y-92184050D01*
X103638702Y-92196372D01*
X103676105Y-92266350D01*
X103715030Y-92333769D01*
X103719508Y-92347551D01*
X103724133Y-92356204D01*
X103749634Y-92440269D01*
X103774787Y-92517682D01*
X103775672Y-92526105D01*
X103776743Y-92529635D01*
X103787173Y-92635536D01*
X103795000Y-92710000D01*
X103787173Y-92784469D01*
X103776743Y-92890364D01*
X103775672Y-92893892D01*
X103774787Y-92902318D01*
X103749629Y-92979744D01*
X103724133Y-93063795D01*
X103719509Y-93072445D01*
X103715030Y-93086231D01*
X103676098Y-93153661D01*
X103638702Y-93223627D01*
X103628591Y-93235946D01*
X103618341Y-93253701D01*
X103569539Y-93307901D01*
X103523725Y-93363725D01*
X103506678Y-93377714D01*
X103488946Y-93397409D01*
X103434340Y-93437082D01*
X103383627Y-93478702D01*
X103358762Y-93491991D01*
X103332500Y-93511073D01*
X103276007Y-93536225D01*
X103223795Y-93564133D01*
X103190942Y-93574098D01*
X103155841Y-93589727D01*
X103100985Y-93601387D01*
X103050364Y-93616743D01*
X103010071Y-93620711D01*
X102966689Y-93629933D01*
X102916449Y-93629933D01*
X102870000Y-93634508D01*
X102823551Y-93629933D01*
X102773311Y-93629933D01*
X102729928Y-93620711D01*
X102689635Y-93616743D01*
X102639011Y-93601386D01*
X102584159Y-93589727D01*
X102549059Y-93574099D01*
X102516204Y-93564133D01*
X102463986Y-93536222D01*
X102407500Y-93511073D01*
X102381239Y-93491993D01*
X102356372Y-93478702D01*
X102305651Y-93437075D01*
X102251054Y-93397409D01*
X102233323Y-93377717D01*
X102216274Y-93363725D01*
X102170449Y-93307888D01*
X102121659Y-93253701D01*
X102111410Y-93235950D01*
X102101297Y-93223627D01*
X102063887Y-93153638D01*
X102024970Y-93086231D01*
X102020492Y-93072450D01*
X102015866Y-93063795D01*
X101990355Y-92979698D01*
X101965213Y-92902318D01*
X101964328Y-92893898D01*
X101963256Y-92890364D01*
X101952811Y-92784318D01*
X101945000Y-92710000D01*
X101952810Y-92635687D01*
X101963256Y-92529635D01*
X101964328Y-92526100D01*
X101965213Y-92517682D01*
X101990350Y-92440315D01*
X102015866Y-92356204D01*
X102020493Y-92347546D01*
X102024970Y-92333769D01*
X102063880Y-92266373D01*
X102101297Y-92196372D01*
X102111412Y-92184046D01*
X102121659Y-92166299D01*
X102170440Y-92112121D01*
X102216274Y-92056274D01*
X102233327Y-92042278D01*
X102251054Y-92022591D01*
X102305640Y-91982931D01*
X102356372Y-91941297D01*
X102381245Y-91928002D01*
X102407500Y-91908927D01*
X102463975Y-91883782D01*
X102516204Y-91855866D01*
X102549066Y-91845897D01*
X102584159Y-91830273D01*
X102639000Y-91818616D01*
X102689635Y-91803256D01*
X102729937Y-91799286D01*
X102773311Y-91790067D01*
X102823541Y-91790067D01*
X102870000Y-91785491D01*
X102916459Y-91790067D01*
G37*
G36*
X118156459Y-91790067D02*
G01*
X118206689Y-91790067D01*
X118250062Y-91799286D01*
X118290364Y-91803256D01*
X118340996Y-91818615D01*
X118395841Y-91830273D01*
X118430935Y-91845898D01*
X118463795Y-91855866D01*
X118516018Y-91883779D01*
X118572500Y-91908927D01*
X118598757Y-91928004D01*
X118623627Y-91941297D01*
X118674350Y-91982925D01*
X118728946Y-92022591D01*
X118746675Y-92042281D01*
X118763725Y-92056274D01*
X118809548Y-92112109D01*
X118858341Y-92166299D01*
X118868589Y-92184050D01*
X118878702Y-92196372D01*
X118916105Y-92266350D01*
X118955030Y-92333769D01*
X118959508Y-92347551D01*
X118964133Y-92356204D01*
X118989634Y-92440269D01*
X119014787Y-92517682D01*
X119015672Y-92526105D01*
X119016743Y-92529635D01*
X119027173Y-92635536D01*
X119035000Y-92710000D01*
X119027173Y-92784469D01*
X119016743Y-92890364D01*
X119015672Y-92893892D01*
X119014787Y-92902318D01*
X118989629Y-92979744D01*
X118964133Y-93063795D01*
X118959509Y-93072445D01*
X118955030Y-93086231D01*
X118916098Y-93153661D01*
X118878702Y-93223627D01*
X118868591Y-93235946D01*
X118858341Y-93253701D01*
X118809539Y-93307901D01*
X118763725Y-93363725D01*
X118746678Y-93377714D01*
X118728946Y-93397409D01*
X118674340Y-93437082D01*
X118623627Y-93478702D01*
X118598762Y-93491991D01*
X118572500Y-93511073D01*
X118516007Y-93536225D01*
X118463795Y-93564133D01*
X118430942Y-93574098D01*
X118395841Y-93589727D01*
X118340985Y-93601387D01*
X118290364Y-93616743D01*
X118250071Y-93620711D01*
X118206689Y-93629933D01*
X118156449Y-93629933D01*
X118110000Y-93634508D01*
X118063551Y-93629933D01*
X118013311Y-93629933D01*
X117969928Y-93620711D01*
X117929635Y-93616743D01*
X117879011Y-93601386D01*
X117824159Y-93589727D01*
X117789059Y-93574099D01*
X117756204Y-93564133D01*
X117703986Y-93536222D01*
X117647500Y-93511073D01*
X117621239Y-93491993D01*
X117596372Y-93478702D01*
X117545651Y-93437075D01*
X117491054Y-93397409D01*
X117473323Y-93377717D01*
X117456274Y-93363725D01*
X117410449Y-93307888D01*
X117361659Y-93253701D01*
X117351410Y-93235950D01*
X117341297Y-93223627D01*
X117303887Y-93153638D01*
X117264970Y-93086231D01*
X117260492Y-93072450D01*
X117255866Y-93063795D01*
X117230355Y-92979698D01*
X117205213Y-92902318D01*
X117204328Y-92893898D01*
X117203256Y-92890364D01*
X117192811Y-92784318D01*
X117185000Y-92710000D01*
X117192810Y-92635687D01*
X117203256Y-92529635D01*
X117204328Y-92526100D01*
X117205213Y-92517682D01*
X117230350Y-92440315D01*
X117255866Y-92356204D01*
X117260493Y-92347546D01*
X117264970Y-92333769D01*
X117303880Y-92266373D01*
X117341297Y-92196372D01*
X117351412Y-92184046D01*
X117361659Y-92166299D01*
X117410440Y-92112121D01*
X117456274Y-92056274D01*
X117473327Y-92042278D01*
X117491054Y-92022591D01*
X117545640Y-91982931D01*
X117596372Y-91941297D01*
X117621245Y-91928002D01*
X117647500Y-91908927D01*
X117703975Y-91883782D01*
X117756204Y-91855866D01*
X117789066Y-91845897D01*
X117824159Y-91830273D01*
X117879000Y-91818616D01*
X117929635Y-91803256D01*
X117969937Y-91799286D01*
X118013311Y-91790067D01*
X118063541Y-91790067D01*
X118110000Y-91785491D01*
X118156459Y-91790067D01*
G37*
G36*
X102916459Y-89250067D02*
G01*
X102966689Y-89250067D01*
X103010062Y-89259286D01*
X103050364Y-89263256D01*
X103100996Y-89278615D01*
X103155841Y-89290273D01*
X103190935Y-89305898D01*
X103223795Y-89315866D01*
X103276018Y-89343779D01*
X103332500Y-89368927D01*
X103358757Y-89388004D01*
X103383627Y-89401297D01*
X103434350Y-89442925D01*
X103488946Y-89482591D01*
X103506675Y-89502281D01*
X103523725Y-89516274D01*
X103569548Y-89572109D01*
X103618341Y-89626299D01*
X103628589Y-89644050D01*
X103638702Y-89656372D01*
X103676105Y-89726350D01*
X103715030Y-89793769D01*
X103719508Y-89807551D01*
X103724133Y-89816204D01*
X103749634Y-89900269D01*
X103774787Y-89977682D01*
X103775672Y-89986105D01*
X103776743Y-89989635D01*
X103787173Y-90095536D01*
X103795000Y-90170000D01*
X103787173Y-90244469D01*
X103776743Y-90350364D01*
X103775672Y-90353892D01*
X103774787Y-90362318D01*
X103749629Y-90439744D01*
X103724133Y-90523795D01*
X103719509Y-90532445D01*
X103715030Y-90546231D01*
X103676098Y-90613661D01*
X103638702Y-90683627D01*
X103628591Y-90695946D01*
X103618341Y-90713701D01*
X103569539Y-90767901D01*
X103523725Y-90823725D01*
X103506678Y-90837714D01*
X103488946Y-90857409D01*
X103434340Y-90897082D01*
X103383627Y-90938702D01*
X103358762Y-90951991D01*
X103332500Y-90971073D01*
X103276007Y-90996225D01*
X103223795Y-91024133D01*
X103190942Y-91034098D01*
X103155841Y-91049727D01*
X103100985Y-91061387D01*
X103050364Y-91076743D01*
X103010071Y-91080711D01*
X102966689Y-91089933D01*
X102916449Y-91089933D01*
X102870000Y-91094508D01*
X102823551Y-91089933D01*
X102773311Y-91089933D01*
X102729928Y-91080711D01*
X102689635Y-91076743D01*
X102639011Y-91061386D01*
X102584159Y-91049727D01*
X102549059Y-91034099D01*
X102516204Y-91024133D01*
X102463986Y-90996222D01*
X102407500Y-90971073D01*
X102381239Y-90951993D01*
X102356372Y-90938702D01*
X102305651Y-90897075D01*
X102251054Y-90857409D01*
X102233323Y-90837717D01*
X102216274Y-90823725D01*
X102170449Y-90767888D01*
X102121659Y-90713701D01*
X102111410Y-90695950D01*
X102101297Y-90683627D01*
X102063887Y-90613638D01*
X102024970Y-90546231D01*
X102020492Y-90532450D01*
X102015866Y-90523795D01*
X101990355Y-90439698D01*
X101965213Y-90362318D01*
X101964328Y-90353898D01*
X101963256Y-90350364D01*
X101952811Y-90244318D01*
X101945000Y-90170000D01*
X101952810Y-90095687D01*
X101963256Y-89989635D01*
X101964328Y-89986100D01*
X101965213Y-89977682D01*
X101990350Y-89900315D01*
X102015866Y-89816204D01*
X102020493Y-89807546D01*
X102024970Y-89793769D01*
X102063880Y-89726373D01*
X102101297Y-89656372D01*
X102111412Y-89644046D01*
X102121659Y-89626299D01*
X102170440Y-89572121D01*
X102216274Y-89516274D01*
X102233327Y-89502278D01*
X102251054Y-89482591D01*
X102305640Y-89442931D01*
X102356372Y-89401297D01*
X102381245Y-89388002D01*
X102407500Y-89368927D01*
X102463975Y-89343782D01*
X102516204Y-89315866D01*
X102549066Y-89305897D01*
X102584159Y-89290273D01*
X102639000Y-89278616D01*
X102689635Y-89263256D01*
X102729937Y-89259286D01*
X102773311Y-89250067D01*
X102823541Y-89250067D01*
X102870000Y-89245491D01*
X102916459Y-89250067D01*
G37*
G36*
X118156459Y-89250067D02*
G01*
X118206689Y-89250067D01*
X118250062Y-89259286D01*
X118290364Y-89263256D01*
X118340996Y-89278615D01*
X118395841Y-89290273D01*
X118430935Y-89305898D01*
X118463795Y-89315866D01*
X118516018Y-89343779D01*
X118572500Y-89368927D01*
X118598757Y-89388004D01*
X118623627Y-89401297D01*
X118674350Y-89442925D01*
X118728946Y-89482591D01*
X118746675Y-89502281D01*
X118763725Y-89516274D01*
X118809548Y-89572109D01*
X118858341Y-89626299D01*
X118868589Y-89644050D01*
X118878702Y-89656372D01*
X118916105Y-89726350D01*
X118955030Y-89793769D01*
X118959508Y-89807551D01*
X118964133Y-89816204D01*
X118989634Y-89900269D01*
X119014787Y-89977682D01*
X119015672Y-89986105D01*
X119016743Y-89989635D01*
X119027173Y-90095536D01*
X119035000Y-90170000D01*
X119027173Y-90244469D01*
X119016743Y-90350364D01*
X119015672Y-90353892D01*
X119014787Y-90362318D01*
X118989629Y-90439744D01*
X118964133Y-90523795D01*
X118959509Y-90532445D01*
X118955030Y-90546231D01*
X118916098Y-90613661D01*
X118878702Y-90683627D01*
X118868591Y-90695946D01*
X118858341Y-90713701D01*
X118809539Y-90767901D01*
X118763725Y-90823725D01*
X118746678Y-90837714D01*
X118728946Y-90857409D01*
X118674340Y-90897082D01*
X118623627Y-90938702D01*
X118598762Y-90951991D01*
X118572500Y-90971073D01*
X118516007Y-90996225D01*
X118463795Y-91024133D01*
X118430942Y-91034098D01*
X118395841Y-91049727D01*
X118340985Y-91061387D01*
X118290364Y-91076743D01*
X118250071Y-91080711D01*
X118206689Y-91089933D01*
X118156449Y-91089933D01*
X118110000Y-91094508D01*
X118063551Y-91089933D01*
X118013311Y-91089933D01*
X117969928Y-91080711D01*
X117929635Y-91076743D01*
X117879011Y-91061386D01*
X117824159Y-91049727D01*
X117789059Y-91034099D01*
X117756204Y-91024133D01*
X117703986Y-90996222D01*
X117647500Y-90971073D01*
X117621239Y-90951993D01*
X117596372Y-90938702D01*
X117545651Y-90897075D01*
X117491054Y-90857409D01*
X117473323Y-90837717D01*
X117456274Y-90823725D01*
X117410449Y-90767888D01*
X117361659Y-90713701D01*
X117351410Y-90695950D01*
X117341297Y-90683627D01*
X117303887Y-90613638D01*
X117264970Y-90546231D01*
X117260492Y-90532450D01*
X117255866Y-90523795D01*
X117230355Y-90439698D01*
X117205213Y-90362318D01*
X117204328Y-90353898D01*
X117203256Y-90350364D01*
X117192811Y-90244318D01*
X117185000Y-90170000D01*
X117192810Y-90095687D01*
X117203256Y-89989635D01*
X117204328Y-89986100D01*
X117205213Y-89977682D01*
X117230350Y-89900315D01*
X117255866Y-89816204D01*
X117260493Y-89807546D01*
X117264970Y-89793769D01*
X117303880Y-89726373D01*
X117341297Y-89656372D01*
X117351412Y-89644046D01*
X117361659Y-89626299D01*
X117410440Y-89572121D01*
X117456274Y-89516274D01*
X117473327Y-89502278D01*
X117491054Y-89482591D01*
X117545640Y-89442931D01*
X117596372Y-89401297D01*
X117621245Y-89388002D01*
X117647500Y-89368927D01*
X117703975Y-89343782D01*
X117756204Y-89315866D01*
X117789066Y-89305897D01*
X117824159Y-89290273D01*
X117879000Y-89278616D01*
X117929635Y-89263256D01*
X117969937Y-89259286D01*
X118013311Y-89250067D01*
X118063541Y-89250067D01*
X118110000Y-89245491D01*
X118156459Y-89250067D01*
G37*
G36*
X123112884Y-87219913D02*
G01*
X123159842Y-87219913D01*
X123212134Y-87229688D01*
X123267845Y-87235175D01*
X123310169Y-87248013D01*
X123350227Y-87255502D01*
X123405706Y-87276994D01*
X123464818Y-87294926D01*
X123498591Y-87312978D01*
X123530831Y-87325468D01*
X123586853Y-87360155D01*
X123646349Y-87391957D01*
X123671345Y-87412471D01*
X123695500Y-87427427D01*
X123749024Y-87476220D01*
X123805462Y-87522538D01*
X123822185Y-87542915D01*
X123838638Y-87557914D01*
X123886401Y-87621162D01*
X123936043Y-87681651D01*
X123945642Y-87699610D01*
X123955356Y-87712473D01*
X123993996Y-87790074D01*
X124033074Y-87863182D01*
X124037242Y-87876922D01*
X124041689Y-87885853D01*
X124067959Y-87978183D01*
X124092825Y-88060155D01*
X124093641Y-88068448D01*
X124094693Y-88072143D01*
X124105627Y-88190144D01*
X124113000Y-88265000D01*
X124105626Y-88339861D01*
X124094693Y-88457856D01*
X124093641Y-88461550D01*
X124092825Y-88469845D01*
X124067954Y-88551831D01*
X124041689Y-88644146D01*
X124037242Y-88653074D01*
X124033074Y-88666818D01*
X123993989Y-88739939D01*
X123955356Y-88817526D01*
X123945644Y-88830386D01*
X123936043Y-88848349D01*
X123886391Y-88908849D01*
X123838638Y-88972085D01*
X123822188Y-88987080D01*
X123805462Y-89007462D01*
X123749013Y-89053788D01*
X123695500Y-89102572D01*
X123671350Y-89117524D01*
X123646349Y-89138043D01*
X123586841Y-89169850D01*
X123530831Y-89204531D01*
X123498598Y-89217017D01*
X123464818Y-89235074D01*
X123405694Y-89253008D01*
X123350227Y-89274497D01*
X123310176Y-89281983D01*
X123267845Y-89294825D01*
X123212131Y-89300312D01*
X123159842Y-89310087D01*
X123112884Y-89310087D01*
X123063000Y-89315000D01*
X123013116Y-89310087D01*
X122966158Y-89310087D01*
X122913868Y-89300312D01*
X122858155Y-89294825D01*
X122815824Y-89281984D01*
X122775772Y-89274497D01*
X122720300Y-89253007D01*
X122661182Y-89235074D01*
X122627404Y-89217019D01*
X122595168Y-89204531D01*
X122539150Y-89169846D01*
X122479651Y-89138043D01*
X122454652Y-89117527D01*
X122430499Y-89102572D01*
X122376976Y-89053780D01*
X122320538Y-89007462D01*
X122303814Y-88987083D01*
X122287361Y-88972085D01*
X122239595Y-88908833D01*
X122189957Y-88848349D01*
X122180358Y-88830390D01*
X122170643Y-88817526D01*
X122131995Y-88739911D01*
X122092926Y-88666818D01*
X122088758Y-88653080D01*
X122084310Y-88644146D01*
X122058029Y-88551778D01*
X122033175Y-88469845D01*
X122032358Y-88461555D01*
X122031306Y-88457856D01*
X122020356Y-88339689D01*
X122013000Y-88265000D01*
X122020355Y-88190316D01*
X122031306Y-88072143D01*
X122032358Y-88068443D01*
X122033175Y-88060155D01*
X122058024Y-87978236D01*
X122084310Y-87885853D01*
X122088759Y-87876917D01*
X122092926Y-87863182D01*
X122131988Y-87790101D01*
X122170643Y-87712473D01*
X122180359Y-87699605D01*
X122189957Y-87681651D01*
X122239586Y-87621177D01*
X122287361Y-87557914D01*
X122303817Y-87542912D01*
X122320538Y-87522538D01*
X122376965Y-87476228D01*
X122430499Y-87427427D01*
X122454657Y-87412468D01*
X122479651Y-87391957D01*
X122539138Y-87360159D01*
X122595168Y-87325468D01*
X122627411Y-87312976D01*
X122661182Y-87294926D01*
X122720288Y-87276996D01*
X122775772Y-87255502D01*
X122815831Y-87248013D01*
X122858155Y-87235175D01*
X122913864Y-87229688D01*
X122966158Y-87219913D01*
X123013116Y-87219913D01*
X123063000Y-87215000D01*
X123112884Y-87219913D01*
G37*
G36*
X102916459Y-86710067D02*
G01*
X102966689Y-86710067D01*
X103010062Y-86719286D01*
X103050364Y-86723256D01*
X103100996Y-86738615D01*
X103155841Y-86750273D01*
X103190935Y-86765898D01*
X103223795Y-86775866D01*
X103276018Y-86803779D01*
X103332500Y-86828927D01*
X103358757Y-86848004D01*
X103383627Y-86861297D01*
X103434350Y-86902925D01*
X103488946Y-86942591D01*
X103506675Y-86962281D01*
X103523725Y-86976274D01*
X103569548Y-87032109D01*
X103618341Y-87086299D01*
X103628589Y-87104050D01*
X103638702Y-87116372D01*
X103676105Y-87186350D01*
X103715030Y-87253769D01*
X103719508Y-87267551D01*
X103724133Y-87276204D01*
X103749634Y-87360269D01*
X103774787Y-87437682D01*
X103775672Y-87446105D01*
X103776743Y-87449635D01*
X103787173Y-87555536D01*
X103795000Y-87630000D01*
X103787173Y-87704469D01*
X103776743Y-87810364D01*
X103775672Y-87813892D01*
X103774787Y-87822318D01*
X103749629Y-87899744D01*
X103724133Y-87983795D01*
X103719509Y-87992445D01*
X103715030Y-88006231D01*
X103676098Y-88073661D01*
X103638702Y-88143627D01*
X103628591Y-88155946D01*
X103618341Y-88173701D01*
X103569539Y-88227901D01*
X103523725Y-88283725D01*
X103506678Y-88297714D01*
X103488946Y-88317409D01*
X103434340Y-88357082D01*
X103383627Y-88398702D01*
X103358762Y-88411991D01*
X103332500Y-88431073D01*
X103276007Y-88456225D01*
X103223795Y-88484133D01*
X103190942Y-88494098D01*
X103155841Y-88509727D01*
X103100985Y-88521387D01*
X103050364Y-88536743D01*
X103010071Y-88540711D01*
X102966689Y-88549933D01*
X102916449Y-88549933D01*
X102870000Y-88554508D01*
X102823551Y-88549933D01*
X102773311Y-88549933D01*
X102729928Y-88540711D01*
X102689635Y-88536743D01*
X102639011Y-88521386D01*
X102584159Y-88509727D01*
X102549059Y-88494099D01*
X102516204Y-88484133D01*
X102463986Y-88456222D01*
X102407500Y-88431073D01*
X102381239Y-88411993D01*
X102356372Y-88398702D01*
X102305651Y-88357075D01*
X102251054Y-88317409D01*
X102233323Y-88297717D01*
X102216274Y-88283725D01*
X102170449Y-88227888D01*
X102121659Y-88173701D01*
X102111410Y-88155950D01*
X102101297Y-88143627D01*
X102063887Y-88073638D01*
X102024970Y-88006231D01*
X102020492Y-87992450D01*
X102015866Y-87983795D01*
X101990355Y-87899698D01*
X101965213Y-87822318D01*
X101964328Y-87813898D01*
X101963256Y-87810364D01*
X101952811Y-87704318D01*
X101945000Y-87630000D01*
X101952810Y-87555687D01*
X101963256Y-87449635D01*
X101964328Y-87446100D01*
X101965213Y-87437682D01*
X101990350Y-87360315D01*
X102015866Y-87276204D01*
X102020493Y-87267546D01*
X102024970Y-87253769D01*
X102063880Y-87186373D01*
X102101297Y-87116372D01*
X102111412Y-87104046D01*
X102121659Y-87086299D01*
X102170440Y-87032121D01*
X102216274Y-86976274D01*
X102233327Y-86962278D01*
X102251054Y-86942591D01*
X102305640Y-86902931D01*
X102356372Y-86861297D01*
X102381245Y-86848002D01*
X102407500Y-86828927D01*
X102463975Y-86803782D01*
X102516204Y-86775866D01*
X102549066Y-86765897D01*
X102584159Y-86750273D01*
X102639000Y-86738616D01*
X102689635Y-86723256D01*
X102729937Y-86719286D01*
X102773311Y-86710067D01*
X102823541Y-86710067D01*
X102870000Y-86705491D01*
X102916459Y-86710067D01*
G37*
G36*
X118156459Y-86710067D02*
G01*
X118206689Y-86710067D01*
X118250062Y-86719286D01*
X118290364Y-86723256D01*
X118340996Y-86738615D01*
X118395841Y-86750273D01*
X118430935Y-86765898D01*
X118463795Y-86775866D01*
X118516018Y-86803779D01*
X118572500Y-86828927D01*
X118598757Y-86848004D01*
X118623627Y-86861297D01*
X118674350Y-86902925D01*
X118728946Y-86942591D01*
X118746675Y-86962281D01*
X118763725Y-86976274D01*
X118809548Y-87032109D01*
X118858341Y-87086299D01*
X118868589Y-87104050D01*
X118878702Y-87116372D01*
X118916105Y-87186350D01*
X118955030Y-87253769D01*
X118959508Y-87267551D01*
X118964133Y-87276204D01*
X118989634Y-87360269D01*
X119014787Y-87437682D01*
X119015672Y-87446105D01*
X119016743Y-87449635D01*
X119027173Y-87555536D01*
X119035000Y-87630000D01*
X119027173Y-87704469D01*
X119016743Y-87810364D01*
X119015672Y-87813892D01*
X119014787Y-87822318D01*
X118989629Y-87899744D01*
X118964133Y-87983795D01*
X118959509Y-87992445D01*
X118955030Y-88006231D01*
X118916098Y-88073661D01*
X118878702Y-88143627D01*
X118868591Y-88155946D01*
X118858341Y-88173701D01*
X118809539Y-88227901D01*
X118763725Y-88283725D01*
X118746678Y-88297714D01*
X118728946Y-88317409D01*
X118674340Y-88357082D01*
X118623627Y-88398702D01*
X118598762Y-88411991D01*
X118572500Y-88431073D01*
X118516007Y-88456225D01*
X118463795Y-88484133D01*
X118430942Y-88494098D01*
X118395841Y-88509727D01*
X118340985Y-88521387D01*
X118290364Y-88536743D01*
X118250071Y-88540711D01*
X118206689Y-88549933D01*
X118156449Y-88549933D01*
X118110000Y-88554508D01*
X118063551Y-88549933D01*
X118013311Y-88549933D01*
X117969928Y-88540711D01*
X117929635Y-88536743D01*
X117879011Y-88521386D01*
X117824159Y-88509727D01*
X117789059Y-88494099D01*
X117756204Y-88484133D01*
X117703986Y-88456222D01*
X117647500Y-88431073D01*
X117621239Y-88411993D01*
X117596372Y-88398702D01*
X117545651Y-88357075D01*
X117491054Y-88317409D01*
X117473323Y-88297717D01*
X117456274Y-88283725D01*
X117410449Y-88227888D01*
X117361659Y-88173701D01*
X117351410Y-88155950D01*
X117341297Y-88143627D01*
X117303887Y-88073638D01*
X117264970Y-88006231D01*
X117260492Y-87992450D01*
X117255866Y-87983795D01*
X117230355Y-87899698D01*
X117205213Y-87822318D01*
X117204328Y-87813898D01*
X117203256Y-87810364D01*
X117192811Y-87704318D01*
X117185000Y-87630000D01*
X117192810Y-87555687D01*
X117203256Y-87449635D01*
X117204328Y-87446100D01*
X117205213Y-87437682D01*
X117230350Y-87360315D01*
X117255866Y-87276204D01*
X117260493Y-87267546D01*
X117264970Y-87253769D01*
X117303880Y-87186373D01*
X117341297Y-87116372D01*
X117351412Y-87104046D01*
X117361659Y-87086299D01*
X117410440Y-87032121D01*
X117456274Y-86976274D01*
X117473327Y-86962278D01*
X117491054Y-86942591D01*
X117545640Y-86902931D01*
X117596372Y-86861297D01*
X117621245Y-86848002D01*
X117647500Y-86828927D01*
X117703975Y-86803782D01*
X117756204Y-86775866D01*
X117789066Y-86765897D01*
X117824159Y-86750273D01*
X117879000Y-86738616D01*
X117929635Y-86723256D01*
X117969937Y-86719286D01*
X118013311Y-86710067D01*
X118063541Y-86710067D01*
X118110000Y-86705491D01*
X118156459Y-86710067D01*
G37*
G36*
X86415492Y-85044855D02*
G01*
X86468978Y-85044855D01*
X86527924Y-85054691D01*
X86589216Y-85060054D01*
X86637355Y-85072952D01*
X86683954Y-85080729D01*
X86746462Y-85102188D01*
X86811467Y-85119606D01*
X86851286Y-85138174D01*
X86890095Y-85151497D01*
X86953857Y-85186003D01*
X87020000Y-85216846D01*
X87051136Y-85238648D01*
X87081783Y-85255233D01*
X87144168Y-85303789D01*
X87208480Y-85348821D01*
X87231146Y-85371487D01*
X87253775Y-85389100D01*
X87311903Y-85452244D01*
X87371179Y-85511520D01*
X87386141Y-85532888D01*
X87401392Y-85549455D01*
X87452271Y-85627332D01*
X87503154Y-85700000D01*
X87511647Y-85718213D01*
X87520596Y-85731911D01*
X87561217Y-85824518D01*
X87600394Y-85908533D01*
X87604042Y-85922148D01*
X87608150Y-85931513D01*
X87635660Y-86040151D01*
X87659946Y-86130784D01*
X87660649Y-86138830D01*
X87661653Y-86142791D01*
X87673404Y-86284609D01*
X87680000Y-86360000D01*
X87673403Y-86435396D01*
X87661653Y-86577208D01*
X87660650Y-86581168D01*
X87659946Y-86589216D01*
X87635656Y-86679866D01*
X87608150Y-86788486D01*
X87604042Y-86797849D01*
X87600394Y-86811467D01*
X87561210Y-86895496D01*
X87520596Y-86988088D01*
X87511648Y-87001782D01*
X87503154Y-87020000D01*
X87452261Y-87092681D01*
X87401392Y-87170544D01*
X87386143Y-87187107D01*
X87371179Y-87208480D01*
X87311892Y-87267766D01*
X87253775Y-87330899D01*
X87231151Y-87348507D01*
X87208480Y-87371179D01*
X87144155Y-87416219D01*
X87081783Y-87464766D01*
X87051142Y-87481347D01*
X87020000Y-87503154D01*
X86953844Y-87534002D01*
X86890095Y-87568502D01*
X86851294Y-87581822D01*
X86811467Y-87600394D01*
X86746449Y-87617815D01*
X86683954Y-87639270D01*
X86637362Y-87647045D01*
X86589216Y-87659946D01*
X86527920Y-87665308D01*
X86468978Y-87675145D01*
X86415492Y-87675145D01*
X86360000Y-87680000D01*
X86304508Y-87675145D01*
X86251022Y-87675145D01*
X86192078Y-87665308D01*
X86130784Y-87659946D01*
X86082638Y-87647045D01*
X86036045Y-87639270D01*
X85973546Y-87617814D01*
X85908533Y-87600394D01*
X85868707Y-87581823D01*
X85829904Y-87568502D01*
X85766148Y-87533999D01*
X85700000Y-87503154D01*
X85668860Y-87481349D01*
X85638216Y-87464766D01*
X85575834Y-87416212D01*
X85511520Y-87371179D01*
X85488852Y-87348511D01*
X85466224Y-87330899D01*
X85408095Y-87267754D01*
X85348821Y-87208480D01*
X85333859Y-87187112D01*
X85318607Y-87170544D01*
X85267723Y-87092660D01*
X85216846Y-87020000D01*
X85208353Y-87001788D01*
X85199403Y-86988088D01*
X85158772Y-86895460D01*
X85119606Y-86811467D01*
X85115958Y-86797855D01*
X85111849Y-86788486D01*
X85084325Y-86679798D01*
X85060054Y-86589216D01*
X85059350Y-86581174D01*
X85058346Y-86577208D01*
X85046577Y-86435180D01*
X85040000Y-86360000D01*
X85046576Y-86284825D01*
X85058346Y-86142791D01*
X85059350Y-86138823D01*
X85060054Y-86130784D01*
X85084320Y-86040219D01*
X85111849Y-85931513D01*
X85115959Y-85922142D01*
X85119606Y-85908533D01*
X85158765Y-85824555D01*
X85199403Y-85731911D01*
X85208355Y-85718208D01*
X85216846Y-85700000D01*
X85267713Y-85627353D01*
X85318607Y-85549455D01*
X85333862Y-85532883D01*
X85348821Y-85511520D01*
X85408083Y-85452257D01*
X85466224Y-85389100D01*
X85488857Y-85371483D01*
X85511520Y-85348821D01*
X85575821Y-85303796D01*
X85638216Y-85255233D01*
X85668866Y-85238645D01*
X85700000Y-85216846D01*
X85766135Y-85186006D01*
X85829904Y-85151497D01*
X85868715Y-85138172D01*
X85908533Y-85119606D01*
X85973533Y-85102189D01*
X86036045Y-85080729D01*
X86082646Y-85072952D01*
X86130784Y-85060054D01*
X86192075Y-85054691D01*
X86251022Y-85044855D01*
X86304508Y-85044855D01*
X86360000Y-85040000D01*
X86415492Y-85044855D01*
G37*
G36*
X142295492Y-85044855D02*
G01*
X142348978Y-85044855D01*
X142407924Y-85054691D01*
X142469216Y-85060054D01*
X142517355Y-85072952D01*
X142563954Y-85080729D01*
X142626462Y-85102188D01*
X142691467Y-85119606D01*
X142731286Y-85138174D01*
X142770095Y-85151497D01*
X142833857Y-85186003D01*
X142900000Y-85216846D01*
X142931136Y-85238648D01*
X142961783Y-85255233D01*
X143024168Y-85303789D01*
X143088480Y-85348821D01*
X143111146Y-85371487D01*
X143133775Y-85389100D01*
X143191903Y-85452244D01*
X143251179Y-85511520D01*
X143266141Y-85532888D01*
X143281392Y-85549455D01*
X143332271Y-85627332D01*
X143383154Y-85700000D01*
X143391647Y-85718213D01*
X143400596Y-85731911D01*
X143441217Y-85824518D01*
X143480394Y-85908533D01*
X143484042Y-85922148D01*
X143488150Y-85931513D01*
X143515660Y-86040151D01*
X143539946Y-86130784D01*
X143540649Y-86138830D01*
X143541653Y-86142791D01*
X143553404Y-86284609D01*
X143560000Y-86360000D01*
X143553403Y-86435396D01*
X143541653Y-86577208D01*
X143540650Y-86581168D01*
X143539946Y-86589216D01*
X143515656Y-86679866D01*
X143488150Y-86788486D01*
X143484042Y-86797849D01*
X143480394Y-86811467D01*
X143441210Y-86895496D01*
X143400596Y-86988088D01*
X143391648Y-87001782D01*
X143383154Y-87020000D01*
X143332261Y-87092681D01*
X143281392Y-87170544D01*
X143266143Y-87187107D01*
X143251179Y-87208480D01*
X143191892Y-87267766D01*
X143133775Y-87330899D01*
X143111151Y-87348507D01*
X143088480Y-87371179D01*
X143024155Y-87416219D01*
X142961783Y-87464766D01*
X142931142Y-87481347D01*
X142900000Y-87503154D01*
X142833844Y-87534002D01*
X142770095Y-87568502D01*
X142731294Y-87581822D01*
X142691467Y-87600394D01*
X142626449Y-87617815D01*
X142563954Y-87639270D01*
X142517362Y-87647045D01*
X142469216Y-87659946D01*
X142407920Y-87665308D01*
X142348978Y-87675145D01*
X142295492Y-87675145D01*
X142240000Y-87680000D01*
X142184508Y-87675145D01*
X142131022Y-87675145D01*
X142072078Y-87665308D01*
X142010784Y-87659946D01*
X141962638Y-87647045D01*
X141916045Y-87639270D01*
X141853546Y-87617814D01*
X141788533Y-87600394D01*
X141748707Y-87581823D01*
X141709904Y-87568502D01*
X141646148Y-87533999D01*
X141580000Y-87503154D01*
X141548860Y-87481349D01*
X141518216Y-87464766D01*
X141455834Y-87416212D01*
X141391520Y-87371179D01*
X141368852Y-87348511D01*
X141346224Y-87330899D01*
X141288095Y-87267754D01*
X141228821Y-87208480D01*
X141213859Y-87187112D01*
X141198607Y-87170544D01*
X141147723Y-87092660D01*
X141096846Y-87020000D01*
X141088353Y-87001788D01*
X141079403Y-86988088D01*
X141038772Y-86895460D01*
X140999606Y-86811467D01*
X140995958Y-86797855D01*
X140991849Y-86788486D01*
X140964325Y-86679798D01*
X140940054Y-86589216D01*
X140939350Y-86581174D01*
X140938346Y-86577208D01*
X140926577Y-86435180D01*
X140920000Y-86360000D01*
X140926576Y-86284825D01*
X140938346Y-86142791D01*
X140939350Y-86138823D01*
X140940054Y-86130784D01*
X140964320Y-86040219D01*
X140991849Y-85931513D01*
X140995959Y-85922142D01*
X140999606Y-85908533D01*
X141038765Y-85824555D01*
X141079403Y-85731911D01*
X141088355Y-85718208D01*
X141096846Y-85700000D01*
X141147713Y-85627353D01*
X141198607Y-85549455D01*
X141213862Y-85532883D01*
X141228821Y-85511520D01*
X141288083Y-85452257D01*
X141346224Y-85389100D01*
X141368857Y-85371483D01*
X141391520Y-85348821D01*
X141455821Y-85303796D01*
X141518216Y-85255233D01*
X141548866Y-85238645D01*
X141580000Y-85216846D01*
X141646135Y-85186006D01*
X141709904Y-85151497D01*
X141748715Y-85138172D01*
X141788533Y-85119606D01*
X141853533Y-85102189D01*
X141916045Y-85080729D01*
X141962646Y-85072952D01*
X142010784Y-85060054D01*
X142072075Y-85054691D01*
X142131022Y-85044855D01*
X142184508Y-85044855D01*
X142240000Y-85040000D01*
X142295492Y-85044855D01*
G37*
M02*
