%TF.GenerationSoftware,KiCad,Pcbnew,7.0.8*%
%TF.CreationDate,2024-01-07T14:56:32-05:00*%
%TF.ProjectId,lineFollowerArray,6c696e65-466f-46c6-9c6f-776572417272,01*%
%TF.SameCoordinates,Original*%
%TF.FileFunction,Legend,Top*%
%TF.FilePolarity,Positive*%
%FSLAX46Y46*%
G04 Gerber Fmt 4.6, Leading zero omitted, Abs format (unit mm)*
G04 Created by KiCad (PCBNEW 7.0.8) date 2024-01-07 14:56:32*
%MOMM*%
%LPD*%
G01*
G04 APERTURE LIST*
%ADD10C,0.150000*%
G04 APERTURE END LIST*
D10*
G36*
X153686576Y-102659794D02*
G01*
X153697327Y-102662649D01*
X153707192Y-102667579D01*
X153715098Y-102673597D01*
X153717232Y-102675608D01*
X153723799Y-102683320D01*
X153729328Y-102692964D01*
X153732752Y-102703493D01*
X153734019Y-102713432D01*
X153734085Y-102716397D01*
X153734085Y-103565629D01*
X153326199Y-103565629D01*
X153313092Y-103565185D01*
X153300333Y-103563852D01*
X153287922Y-103561630D01*
X153275858Y-103558519D01*
X153264143Y-103554520D01*
X153252775Y-103549632D01*
X153241754Y-103543855D01*
X153231082Y-103537190D01*
X153220757Y-103529636D01*
X153210780Y-103521193D01*
X153204322Y-103515071D01*
X153195156Y-103505463D01*
X153186891Y-103495507D01*
X153179528Y-103485204D01*
X153173067Y-103474553D01*
X153167507Y-103463554D01*
X153162848Y-103452208D01*
X153159092Y-103440513D01*
X153156237Y-103428471D01*
X153154283Y-103416081D01*
X153153231Y-103403344D01*
X153153082Y-103396857D01*
X153268314Y-103396857D01*
X153269120Y-103407382D01*
X153271539Y-103417160D01*
X153275571Y-103426189D01*
X153281216Y-103434471D01*
X153285166Y-103438867D01*
X153292878Y-103445624D01*
X153301268Y-103450721D01*
X153311687Y-103454515D01*
X153321529Y-103456056D01*
X153325955Y-103456208D01*
X153618802Y-103456208D01*
X153618802Y-103268630D01*
X153325955Y-103268630D01*
X153315822Y-103269448D01*
X153305071Y-103272386D01*
X153295206Y-103277462D01*
X153287301Y-103283656D01*
X153285166Y-103285727D01*
X153278600Y-103293676D01*
X153273646Y-103302349D01*
X153270305Y-103311748D01*
X153268577Y-103321871D01*
X153268314Y-103327981D01*
X153268314Y-103396857D01*
X153153082Y-103396857D01*
X153153031Y-103394659D01*
X153153031Y-103330179D01*
X153153477Y-103317081D01*
X153154817Y-103304347D01*
X153157050Y-103291979D01*
X153160175Y-103279975D01*
X153164194Y-103268337D01*
X153169105Y-103257063D01*
X153174910Y-103246155D01*
X153181607Y-103235611D01*
X153189198Y-103225432D01*
X153197682Y-103215618D01*
X153203833Y-103209279D01*
X153213539Y-103200331D01*
X153223606Y-103192263D01*
X153234033Y-103185075D01*
X153244820Y-103178767D01*
X153255969Y-103173340D01*
X153267478Y-103168793D01*
X153279347Y-103165125D01*
X153291578Y-103162338D01*
X153304169Y-103160431D01*
X153317120Y-103159404D01*
X153325955Y-103159209D01*
X153399472Y-103159209D01*
X153163289Y-102751812D01*
X153158481Y-102742897D01*
X153154713Y-102732868D01*
X153152685Y-102722838D01*
X153152298Y-102716152D01*
X153153151Y-102706210D01*
X153156216Y-102695619D01*
X153161509Y-102685854D01*
X153167969Y-102677985D01*
X153170128Y-102675852D01*
X153178162Y-102669286D01*
X153186664Y-102664332D01*
X153196953Y-102660645D01*
X153207852Y-102659065D01*
X153210672Y-102659000D01*
X153221029Y-102661299D01*
X153230574Y-102664838D01*
X153239309Y-102669618D01*
X153247232Y-102675639D01*
X153254345Y-102682899D01*
X153260647Y-102691400D01*
X153262940Y-102695147D01*
X153534294Y-103159209D01*
X153617337Y-103159209D01*
X153617337Y-102716885D01*
X153618178Y-102706657D01*
X153620703Y-102697130D01*
X153624910Y-102688304D01*
X153630801Y-102680180D01*
X153634922Y-102675852D01*
X153642836Y-102669286D01*
X153651405Y-102664332D01*
X153660628Y-102660991D01*
X153670505Y-102659263D01*
X153676443Y-102659000D01*
X153686576Y-102659794D01*
G37*
G36*
X152659660Y-103628155D02*
G01*
X152599088Y-103628155D01*
X152588955Y-103627314D01*
X152579500Y-103624789D01*
X152569524Y-103619843D01*
X152561522Y-103613712D01*
X152558300Y-103610570D01*
X152551733Y-103602632D01*
X152546779Y-103593994D01*
X152543438Y-103584654D01*
X152541710Y-103574613D01*
X152541447Y-103568560D01*
X152541447Y-103517269D01*
X152542253Y-103506697D01*
X152544673Y-103496779D01*
X152548705Y-103487516D01*
X152554350Y-103478907D01*
X152558300Y-103474282D01*
X152566012Y-103467240D01*
X152574402Y-103461927D01*
X152584820Y-103457973D01*
X152594662Y-103456367D01*
X152599088Y-103456208D01*
X152661126Y-103456208D01*
X152671544Y-103457085D01*
X152681215Y-103459714D01*
X152690137Y-103464097D01*
X152698312Y-103470233D01*
X152702647Y-103474526D01*
X152709095Y-103482846D01*
X152713907Y-103491563D01*
X152717403Y-103502012D01*
X152718761Y-103512980D01*
X152718767Y-103515803D01*
X152717302Y-103568560D01*
X152716495Y-103579002D01*
X152714076Y-103588742D01*
X152710044Y-103597782D01*
X152704399Y-103606120D01*
X152700449Y-103610570D01*
X152692737Y-103617422D01*
X152684347Y-103622591D01*
X152673929Y-103626438D01*
X152664086Y-103628001D01*
X152659660Y-103628155D01*
G37*
G36*
X152424699Y-102659000D02*
G01*
X152776409Y-102659000D01*
X152786541Y-102659759D01*
X152797292Y-102662488D01*
X152807157Y-102667201D01*
X152815063Y-102672953D01*
X152817197Y-102674875D01*
X152823764Y-102682243D01*
X152829294Y-102691437D01*
X152832717Y-102701455D01*
X152834033Y-102712297D01*
X152834050Y-102713710D01*
X152832997Y-102724441D01*
X152829837Y-102734409D01*
X152824570Y-102743614D01*
X152817197Y-102752056D01*
X152809485Y-102758432D01*
X152799841Y-102763802D01*
X152789312Y-102767126D01*
X152779373Y-102768356D01*
X152776409Y-102768420D01*
X152658195Y-102768420D01*
X152658195Y-103206103D01*
X152775187Y-103206103D01*
X152785320Y-103206875D01*
X152796071Y-103209645D01*
X152805936Y-103214431D01*
X152813842Y-103220271D01*
X152815976Y-103222224D01*
X152822542Y-103229545D01*
X152828072Y-103238570D01*
X152831496Y-103248298D01*
X152832812Y-103258728D01*
X152832829Y-103260081D01*
X152831775Y-103271042D01*
X152828615Y-103281208D01*
X152823349Y-103290581D01*
X152817013Y-103298131D01*
X152815976Y-103299160D01*
X152808264Y-103305536D01*
X152798620Y-103310906D01*
X152788091Y-103314230D01*
X152778152Y-103315460D01*
X152775187Y-103315524D01*
X152599088Y-103315524D01*
X152588955Y-103314683D01*
X152579500Y-103312158D01*
X152569524Y-103307212D01*
X152561522Y-103301082D01*
X152558300Y-103297939D01*
X152551733Y-103290025D01*
X152546779Y-103281456D01*
X152543438Y-103272233D01*
X152541710Y-103262356D01*
X152541447Y-103256418D01*
X152541447Y-102768420D01*
X152426164Y-102768420D01*
X152415913Y-102767649D01*
X152406316Y-102765335D01*
X152396149Y-102760801D01*
X152387955Y-102755181D01*
X152384643Y-102752300D01*
X152377791Y-102745027D01*
X152372021Y-102735914D01*
X152368449Y-102725946D01*
X152367075Y-102715123D01*
X152367057Y-102713710D01*
X152368141Y-102702765D01*
X152371393Y-102692644D01*
X152376812Y-102683347D01*
X152383332Y-102675889D01*
X152384399Y-102674875D01*
X152392171Y-102668689D01*
X152401769Y-102663480D01*
X152412130Y-102660255D01*
X152423255Y-102659015D01*
X152424699Y-102659000D01*
G37*
G36*
X151942927Y-102409655D02*
G01*
X151953677Y-102412383D01*
X151963542Y-102417096D01*
X151971448Y-102422848D01*
X151973582Y-102424771D01*
X151980955Y-102433075D01*
X151986222Y-102442356D01*
X151989382Y-102452614D01*
X151990419Y-102462392D01*
X151990435Y-102463849D01*
X151989382Y-102474886D01*
X151986222Y-102485038D01*
X151980955Y-102494303D01*
X151973582Y-102502684D01*
X151965870Y-102508775D01*
X151956226Y-102513904D01*
X151945697Y-102517079D01*
X151935758Y-102518255D01*
X151932794Y-102518316D01*
X151682689Y-102518316D01*
X151672892Y-102519134D01*
X151663375Y-102521588D01*
X151654138Y-102525679D01*
X151645182Y-102531406D01*
X151640191Y-102535413D01*
X151601112Y-102569118D01*
X151593308Y-102576104D01*
X151587421Y-102584025D01*
X151583040Y-102594222D01*
X151581260Y-102604146D01*
X151581084Y-102608685D01*
X151581084Y-102784052D01*
X151591204Y-102774587D01*
X151601291Y-102765734D01*
X151611346Y-102757490D01*
X151621369Y-102749858D01*
X151631359Y-102742836D01*
X151641317Y-102736424D01*
X151651242Y-102730624D01*
X151661135Y-102725434D01*
X151670995Y-102720854D01*
X151680823Y-102716885D01*
X151690618Y-102713527D01*
X151700381Y-102710779D01*
X151710112Y-102708642D01*
X151719810Y-102707115D01*
X151734297Y-102705970D01*
X151739109Y-102705894D01*
X151827525Y-102705894D01*
X151840273Y-102706308D01*
X151852781Y-102707551D01*
X151865049Y-102709623D01*
X151877076Y-102712523D01*
X151888862Y-102716252D01*
X151900409Y-102720809D01*
X151911714Y-102726195D01*
X151922780Y-102732410D01*
X151933605Y-102739453D01*
X151944189Y-102747325D01*
X151951112Y-102753033D01*
X151994343Y-102791379D01*
X152002114Y-102798641D01*
X152009490Y-102807053D01*
X152015335Y-102814942D01*
X152020905Y-102823630D01*
X152026202Y-102833117D01*
X152031224Y-102843403D01*
X152035656Y-102854059D01*
X152039338Y-102864655D01*
X152042268Y-102875191D01*
X152044447Y-102885668D01*
X152045875Y-102896086D01*
X152046551Y-102906443D01*
X152046611Y-102910570D01*
X152046611Y-103100591D01*
X152046370Y-103110658D01*
X152045649Y-103120588D01*
X152044447Y-103130381D01*
X152042764Y-103140036D01*
X152039984Y-103151912D01*
X152036453Y-103163573D01*
X152033087Y-103172747D01*
X152031224Y-103177283D01*
X152026202Y-103188196D01*
X152020905Y-103198191D01*
X152015335Y-103207268D01*
X152009490Y-103215427D01*
X152002114Y-103224005D01*
X151994343Y-103231260D01*
X151946960Y-103271805D01*
X151937278Y-103279618D01*
X151927282Y-103286663D01*
X151916973Y-103292939D01*
X151906351Y-103298446D01*
X151895415Y-103303185D01*
X151884166Y-103307156D01*
X151872603Y-103310358D01*
X151860727Y-103312792D01*
X151848537Y-103314457D01*
X151836034Y-103315353D01*
X151827525Y-103315524D01*
X151744482Y-103315524D01*
X151731815Y-103315121D01*
X151719366Y-103313910D01*
X151707137Y-103311892D01*
X151695126Y-103309067D01*
X151683335Y-103305435D01*
X151671762Y-103300996D01*
X151660408Y-103295749D01*
X151649274Y-103289696D01*
X151638358Y-103282835D01*
X151627661Y-103275167D01*
X151620651Y-103269607D01*
X151581084Y-103237367D01*
X151582305Y-103259348D01*
X151581237Y-103270324D01*
X151578031Y-103280536D01*
X151572688Y-103289986D01*
X151566260Y-103297628D01*
X151565208Y-103298672D01*
X151557341Y-103305238D01*
X151548913Y-103310192D01*
X151538593Y-103313878D01*
X151527541Y-103315458D01*
X151524664Y-103315524D01*
X151514412Y-103314718D01*
X151504815Y-103312299D01*
X151495873Y-103308266D01*
X151487585Y-103302621D01*
X151483143Y-103298672D01*
X151476290Y-103291055D01*
X151471121Y-103282737D01*
X151467274Y-103272372D01*
X151465712Y-103262551D01*
X151465557Y-103258127D01*
X151465557Y-103050521D01*
X151581084Y-103050521D01*
X151581926Y-103061635D01*
X151584450Y-103072079D01*
X151588657Y-103081854D01*
X151594548Y-103090958D01*
X151602121Y-103099393D01*
X151605020Y-103102056D01*
X151699298Y-103186564D01*
X151707060Y-103193204D01*
X151715509Y-103198471D01*
X151724645Y-103202364D01*
X151734469Y-103204882D01*
X151744979Y-103206027D01*
X151748635Y-103206103D01*
X151826304Y-103206103D01*
X151837312Y-103205122D01*
X151848109Y-103202177D01*
X151857197Y-103198089D01*
X151866130Y-103192559D01*
X151874908Y-103185587D01*
X151910812Y-103155301D01*
X151917784Y-103148260D01*
X151924095Y-103138917D01*
X151928443Y-103128358D01*
X151930607Y-103118340D01*
X151931328Y-103107429D01*
X151931328Y-102910325D01*
X151930241Y-102899994D01*
X151926981Y-102889943D01*
X151921546Y-102880172D01*
X151915157Y-102872020D01*
X151908614Y-102865385D01*
X151871000Y-102830702D01*
X151863011Y-102824707D01*
X151853680Y-102819658D01*
X151844136Y-102816532D01*
X151834377Y-102815330D01*
X151833143Y-102815315D01*
X151739109Y-102815315D01*
X151728485Y-102816689D01*
X151718787Y-102820145D01*
X151710178Y-102824782D01*
X151701293Y-102830964D01*
X151693680Y-102837297D01*
X151602333Y-102920584D01*
X151595112Y-102928217D01*
X151589384Y-102936280D01*
X151584591Y-102946229D01*
X151581831Y-102956763D01*
X151581084Y-102966257D01*
X151581084Y-103050521D01*
X151465557Y-103050521D01*
X151465557Y-102613570D01*
X151466077Y-102600018D01*
X151467635Y-102586840D01*
X151470233Y-102574035D01*
X151473869Y-102561604D01*
X151478544Y-102549546D01*
X151484259Y-102537862D01*
X151491012Y-102526551D01*
X151498805Y-102515614D01*
X151507636Y-102505050D01*
X151517506Y-102494860D01*
X151524664Y-102488274D01*
X151571314Y-102447974D01*
X151579828Y-102441238D01*
X151588260Y-102435800D01*
X151597740Y-102430671D01*
X151608267Y-102425851D01*
X151617840Y-102422071D01*
X151621873Y-102420618D01*
X151631987Y-102417241D01*
X151641875Y-102414436D01*
X151651536Y-102412204D01*
X151662830Y-102410280D01*
X151673798Y-102409181D01*
X151682689Y-102408895D01*
X151932794Y-102408895D01*
X151942927Y-102409655D01*
G37*
G36*
X151201531Y-102716397D02*
G01*
X151201531Y-103509697D01*
X151200724Y-103519521D01*
X151197828Y-103529948D01*
X151192824Y-103539519D01*
X151186719Y-103547192D01*
X151184678Y-103549265D01*
X151176966Y-103555641D01*
X151167322Y-103561011D01*
X151156793Y-103564335D01*
X151146854Y-103565565D01*
X151143889Y-103565629D01*
X151133756Y-103564834D01*
X151123006Y-103561980D01*
X151113141Y-103557049D01*
X151105235Y-103551032D01*
X151103101Y-103549020D01*
X151096534Y-103541415D01*
X151091004Y-103531894D01*
X151087581Y-103521487D01*
X151086314Y-103511654D01*
X151086248Y-103508720D01*
X151086248Y-103221735D01*
X150993436Y-103278155D01*
X150981697Y-103284833D01*
X150970203Y-103290855D01*
X150958954Y-103296219D01*
X150947949Y-103300927D01*
X150937189Y-103304978D01*
X150926674Y-103308372D01*
X150916404Y-103311109D01*
X150906378Y-103313189D01*
X150896597Y-103314612D01*
X150883937Y-103315488D01*
X150880840Y-103315524D01*
X150809277Y-103315524D01*
X150796216Y-103315084D01*
X150783502Y-103313764D01*
X150771137Y-103311564D01*
X150759119Y-103308483D01*
X150747449Y-103304523D01*
X150736127Y-103299682D01*
X150725152Y-103293961D01*
X150714526Y-103287360D01*
X150704247Y-103279879D01*
X150694316Y-103271518D01*
X150687888Y-103265454D01*
X150678748Y-103255921D01*
X150670471Y-103246006D01*
X150663057Y-103235708D01*
X150656507Y-103225028D01*
X150650819Y-103213967D01*
X150645994Y-103202523D01*
X150642032Y-103190697D01*
X150638932Y-103178489D01*
X150636696Y-103165899D01*
X150635323Y-103152926D01*
X150634887Y-103144066D01*
X150620477Y-102716152D01*
X150621021Y-102706031D01*
X150623761Y-102695323D01*
X150628761Y-102685530D01*
X150634988Y-102677713D01*
X150637085Y-102675608D01*
X150644904Y-102669137D01*
X150653401Y-102664255D01*
X150663942Y-102660621D01*
X150673891Y-102659145D01*
X150678362Y-102659000D01*
X150688484Y-102659829D01*
X150699192Y-102662810D01*
X150708985Y-102667958D01*
X150716802Y-102674241D01*
X150718907Y-102676341D01*
X150725318Y-102684268D01*
X150730814Y-102693900D01*
X150734355Y-102704143D01*
X150735943Y-102714997D01*
X150736004Y-102716397D01*
X150750414Y-103148706D01*
X150751518Y-103158566D01*
X150754697Y-103169118D01*
X150759921Y-103178906D01*
X150766171Y-103186846D01*
X150768244Y-103189006D01*
X150776063Y-103195668D01*
X150784559Y-103200694D01*
X150793734Y-103204083D01*
X150803587Y-103205836D01*
X150809521Y-103206103D01*
X150874001Y-103206103D01*
X150883817Y-103205484D01*
X150894030Y-103203626D01*
X150904640Y-103200529D01*
X150914051Y-103196888D01*
X150922117Y-103193159D01*
X151086248Y-103112314D01*
X151086248Y-102720549D01*
X151087054Y-102709691D01*
X151089474Y-102699558D01*
X151093506Y-102690150D01*
X151099151Y-102681466D01*
X151103101Y-102676829D01*
X151110813Y-102669882D01*
X151119203Y-102664641D01*
X151129621Y-102660741D01*
X151139464Y-102659156D01*
X151143889Y-102659000D01*
X151154022Y-102659794D01*
X151164773Y-102662649D01*
X151174638Y-102667579D01*
X151182544Y-102673597D01*
X151184678Y-102675608D01*
X151191245Y-102683320D01*
X151196774Y-102692964D01*
X151200198Y-102703493D01*
X151201465Y-102713432D01*
X151201531Y-102716397D01*
G37*
G36*
X149949786Y-102659000D02*
G01*
X150065313Y-102659000D01*
X150078511Y-102659446D01*
X150091362Y-102660786D01*
X150103865Y-102663018D01*
X150116020Y-102666144D01*
X150127827Y-102670162D01*
X150139287Y-102675074D01*
X150150399Y-102680878D01*
X150161163Y-102687576D01*
X150171579Y-102695167D01*
X150181648Y-102703650D01*
X150188167Y-102709802D01*
X150197377Y-102719508D01*
X150205681Y-102729574D01*
X150213079Y-102740001D01*
X150219571Y-102750789D01*
X150225158Y-102761937D01*
X150229838Y-102773446D01*
X150233613Y-102785316D01*
X150236481Y-102797546D01*
X150238444Y-102810137D01*
X150239501Y-102823089D01*
X150239702Y-102831923D01*
X150239702Y-103206103D01*
X150298809Y-103206103D01*
X150308942Y-103206851D01*
X150319693Y-103209538D01*
X150329558Y-103214179D01*
X150338537Y-103220773D01*
X150339598Y-103221735D01*
X150346971Y-103230039D01*
X150352237Y-103239321D01*
X150355397Y-103249579D01*
X150356434Y-103259356D01*
X150356450Y-103260814D01*
X150355397Y-103271744D01*
X150352237Y-103281819D01*
X150346971Y-103291039D01*
X150339598Y-103299404D01*
X150331886Y-103305685D01*
X150322242Y-103310975D01*
X150311713Y-103314249D01*
X150301773Y-103315461D01*
X150298809Y-103315524D01*
X150238481Y-103315524D01*
X150238481Y-103459872D01*
X150237675Y-103470207D01*
X150235255Y-103479841D01*
X150231223Y-103488773D01*
X150225578Y-103497004D01*
X150221628Y-103501393D01*
X150213916Y-103508150D01*
X150205526Y-103513247D01*
X150195108Y-103517041D01*
X150185265Y-103518582D01*
X150180840Y-103518734D01*
X150169803Y-103517635D01*
X150159407Y-103514338D01*
X150149653Y-103508842D01*
X150141644Y-103502231D01*
X150140540Y-103501149D01*
X150133688Y-103493246D01*
X150128518Y-103484713D01*
X150125032Y-103475548D01*
X150123229Y-103465753D01*
X150122954Y-103459872D01*
X150122954Y-103315524D01*
X149890679Y-103315524D01*
X149880820Y-103314741D01*
X149870268Y-103311929D01*
X149860479Y-103307070D01*
X149852540Y-103301142D01*
X149850379Y-103299160D01*
X149843622Y-103291815D01*
X149837932Y-103282706D01*
X149834410Y-103272833D01*
X149833055Y-103262197D01*
X149833038Y-103260814D01*
X149834122Y-103249869D01*
X149837373Y-103239748D01*
X149842792Y-103230451D01*
X149849312Y-103222993D01*
X149850379Y-103221979D01*
X149858151Y-103215793D01*
X149867749Y-103210584D01*
X149878111Y-103207359D01*
X149889235Y-103206119D01*
X149890679Y-103206103D01*
X150124420Y-103206103D01*
X150124420Y-102826794D01*
X150123578Y-102816733D01*
X150121054Y-102807280D01*
X150116846Y-102798434D01*
X150110956Y-102790196D01*
X150106834Y-102785762D01*
X150098837Y-102779005D01*
X150090231Y-102773907D01*
X150081018Y-102770469D01*
X150071198Y-102768691D01*
X150065313Y-102768420D01*
X149952473Y-102768420D01*
X149941474Y-102769153D01*
X149931437Y-102771351D01*
X149922362Y-102775015D01*
X149912371Y-102781655D01*
X149905459Y-102788616D01*
X149899510Y-102797043D01*
X149894522Y-102806934D01*
X149891412Y-102815315D01*
X149887187Y-102826306D01*
X149882085Y-102835831D01*
X149876105Y-102843891D01*
X149867395Y-102851906D01*
X149857314Y-102857630D01*
X149845862Y-102861065D01*
X149835712Y-102862164D01*
X149833038Y-102862210D01*
X149822369Y-102861450D01*
X149812588Y-102859171D01*
X149802498Y-102854706D01*
X149793568Y-102848256D01*
X149791517Y-102846334D01*
X149784464Y-102837877D01*
X149779427Y-102828382D01*
X149776404Y-102817849D01*
X149775412Y-102807781D01*
X149775397Y-102806278D01*
X149776164Y-102793947D01*
X149778465Y-102781625D01*
X149782300Y-102769309D01*
X149786184Y-102760078D01*
X149790930Y-102750851D01*
X149796539Y-102741628D01*
X149803011Y-102732410D01*
X149810347Y-102723196D01*
X149818545Y-102713986D01*
X149824489Y-102707848D01*
X149833933Y-102699118D01*
X149843852Y-102691247D01*
X149854249Y-102684235D01*
X149865122Y-102678081D01*
X149876471Y-102672786D01*
X149888297Y-102668349D01*
X149900599Y-102664772D01*
X149913379Y-102662053D01*
X149926634Y-102660192D01*
X149940366Y-102659190D01*
X149949786Y-102659000D01*
G37*
G36*
X148795603Y-117829050D02*
G01*
X148330809Y-117829050D01*
X148318473Y-117828960D01*
X148306316Y-117828689D01*
X148294338Y-117828237D01*
X148282540Y-117827604D01*
X148270922Y-117826790D01*
X148259482Y-117825796D01*
X148248222Y-117824621D01*
X148237142Y-117823265D01*
X148226240Y-117821728D01*
X148215519Y-117820011D01*
X148204976Y-117818112D01*
X148194613Y-117816033D01*
X148184429Y-117813773D01*
X148174425Y-117811332D01*
X148164600Y-117808711D01*
X148154954Y-117805908D01*
X148145488Y-117802925D01*
X148136201Y-117799761D01*
X148118165Y-117792891D01*
X148100846Y-117785298D01*
X148084246Y-117776981D01*
X148068362Y-117767941D01*
X148053196Y-117758178D01*
X148038748Y-117747692D01*
X148025017Y-117736482D01*
X148012062Y-117724609D01*
X147999944Y-117712131D01*
X147988661Y-117699047D01*
X147978214Y-117685359D01*
X147968602Y-117671066D01*
X147959827Y-117656168D01*
X147951887Y-117640666D01*
X147944783Y-117624558D01*
X147938515Y-117607846D01*
X147933082Y-117590528D01*
X147928485Y-117572606D01*
X147924725Y-117554079D01*
X147921799Y-117534947D01*
X147920650Y-117525154D01*
X147919710Y-117515210D01*
X147918979Y-117505115D01*
X147918456Y-117494868D01*
X147918143Y-117484470D01*
X147918109Y-117481004D01*
X148091695Y-117481004D01*
X148091931Y-117494534D01*
X148092638Y-117507646D01*
X148093816Y-117520340D01*
X148095466Y-117532616D01*
X148097586Y-117544474D01*
X148100179Y-117555914D01*
X148103242Y-117566937D01*
X148106777Y-117577541D01*
X148110783Y-117587728D01*
X148115261Y-117597497D01*
X148120209Y-117606848D01*
X148125630Y-117615781D01*
X148131521Y-117624296D01*
X148137884Y-117632393D01*
X148144718Y-117640072D01*
X148152023Y-117647334D01*
X148159758Y-117654195D01*
X148167941Y-117660614D01*
X148176572Y-117666591D01*
X148185652Y-117672124D01*
X148195181Y-117677215D01*
X148205157Y-117681864D01*
X148215582Y-117686069D01*
X148226456Y-117689832D01*
X148237778Y-117693152D01*
X148249548Y-117696030D01*
X148261767Y-117698464D01*
X148274434Y-117700457D01*
X148287550Y-117702006D01*
X148301114Y-117703113D01*
X148315127Y-117703777D01*
X148329588Y-117703998D01*
X148627564Y-117703998D01*
X148627564Y-117250683D01*
X148410188Y-117250683D01*
X148399433Y-117250736D01*
X148388877Y-117250892D01*
X148378518Y-117251153D01*
X148368357Y-117251519D01*
X148358395Y-117251989D01*
X148348630Y-117252564D01*
X148329694Y-117254026D01*
X148311551Y-117255907D01*
X148294199Y-117258205D01*
X148277639Y-117260922D01*
X148261871Y-117264056D01*
X148246895Y-117267608D01*
X148232711Y-117271578D01*
X148219319Y-117275965D01*
X148206718Y-117280771D01*
X148194910Y-117285995D01*
X148183893Y-117291636D01*
X148173668Y-117297695D01*
X148164235Y-117304173D01*
X148155451Y-117311132D01*
X148147234Y-117318636D01*
X148139583Y-117326687D01*
X148132499Y-117335283D01*
X148125982Y-117344425D01*
X148120031Y-117354113D01*
X148114647Y-117364346D01*
X148109830Y-117375125D01*
X148105580Y-117386450D01*
X148101896Y-117398321D01*
X148098779Y-117410737D01*
X148096229Y-117423699D01*
X148094245Y-117437207D01*
X148092828Y-117451260D01*
X148091978Y-117465859D01*
X148091695Y-117481004D01*
X147918109Y-117481004D01*
X147918038Y-117473921D01*
X147918202Y-117461421D01*
X147918691Y-117449077D01*
X147919507Y-117436890D01*
X147920649Y-117424859D01*
X147922117Y-117412985D01*
X147923912Y-117401267D01*
X147926033Y-117389705D01*
X147928480Y-117378300D01*
X147931253Y-117367052D01*
X147934353Y-117355960D01*
X147937779Y-117345024D01*
X147941531Y-117334245D01*
X147945610Y-117323622D01*
X147950015Y-117313156D01*
X147954746Y-117302846D01*
X147959804Y-117292693D01*
X147965129Y-117282752D01*
X147970722Y-117273077D01*
X147976585Y-117263670D01*
X147982717Y-117254530D01*
X147989118Y-117245657D01*
X147995788Y-117237052D01*
X148002727Y-117228713D01*
X148009935Y-117220642D01*
X148017412Y-117212837D01*
X148025158Y-117205300D01*
X148033173Y-117198030D01*
X148041457Y-117191027D01*
X148050011Y-117184291D01*
X148058833Y-117177823D01*
X148067924Y-117171621D01*
X148077285Y-117165687D01*
X148086325Y-117160375D01*
X148095769Y-117155337D01*
X148105616Y-117150574D01*
X148115867Y-117146086D01*
X148126522Y-117141873D01*
X148137580Y-117137935D01*
X148149042Y-117134271D01*
X148160907Y-117130882D01*
X148173176Y-117127768D01*
X148185849Y-117124929D01*
X148194521Y-117123189D01*
X148207967Y-117120832D01*
X148222107Y-117118706D01*
X148231921Y-117117418D01*
X148242044Y-117116233D01*
X148252476Y-117115151D01*
X148263216Y-117114173D01*
X148274267Y-117113297D01*
X148285626Y-117112524D01*
X148297294Y-117111854D01*
X148309272Y-117111287D01*
X148321558Y-117110824D01*
X148334154Y-117110463D01*
X148347059Y-117110206D01*
X148360272Y-117110051D01*
X148373796Y-117110000D01*
X148795603Y-117110000D01*
X148795603Y-117829050D01*
G37*
G36*
X147662316Y-117110000D02*
G01*
X147662316Y-117703998D01*
X147027285Y-117703998D01*
X147027285Y-117594577D01*
X147516747Y-117594577D01*
X147516747Y-117485157D01*
X147231716Y-117485157D01*
X147231716Y-117375736D01*
X147516747Y-117375736D01*
X147516747Y-117219420D01*
X147019713Y-117219420D01*
X147019713Y-117110000D01*
X147662316Y-117110000D01*
G37*
G36*
X146264514Y-117594577D02*
G01*
X146671911Y-117594577D01*
X146671911Y-117469525D01*
X146286252Y-117469525D01*
X146275127Y-117469416D01*
X146264468Y-117469090D01*
X146254275Y-117468546D01*
X146239858Y-117467322D01*
X146226489Y-117465609D01*
X146214167Y-117463407D01*
X146202893Y-117460715D01*
X146192666Y-117457534D01*
X146183487Y-117453863D01*
X146172877Y-117448207D01*
X146164130Y-117441681D01*
X146156746Y-117434003D01*
X146150346Y-117424767D01*
X146144931Y-117413975D01*
X146140500Y-117401625D01*
X146137823Y-117391341D01*
X146135700Y-117380182D01*
X146134131Y-117368146D01*
X146133115Y-117355235D01*
X146132654Y-117341447D01*
X146132623Y-117336657D01*
X146132623Y-117252393D01*
X146132749Y-117242279D01*
X146133410Y-117227877D01*
X146134638Y-117214398D01*
X146136433Y-117201842D01*
X146138794Y-117190209D01*
X146141722Y-117179500D01*
X146145217Y-117169713D01*
X146150758Y-117158100D01*
X146157307Y-117148128D01*
X146164863Y-117139797D01*
X146173759Y-117132813D01*
X146184448Y-117126761D01*
X146193643Y-117122832D01*
X146203846Y-117119428D01*
X146215058Y-117116547D01*
X146227279Y-117114190D01*
X146240509Y-117112357D01*
X146254747Y-117111047D01*
X146264801Y-117110465D01*
X146275302Y-117110116D01*
X146286252Y-117110000D01*
X146670446Y-117110000D01*
X146681664Y-117110116D01*
X146692420Y-117110465D01*
X146702715Y-117111047D01*
X146712547Y-117111862D01*
X146726430Y-117113521D01*
X146739275Y-117115703D01*
X146751080Y-117118409D01*
X146761846Y-117121639D01*
X146771573Y-117125393D01*
X146782927Y-117131213D01*
X146792433Y-117137964D01*
X146794521Y-117139797D01*
X146802135Y-117148128D01*
X146808733Y-117158100D01*
X146814316Y-117169713D01*
X146817838Y-117179500D01*
X146820788Y-117190209D01*
X146823167Y-117201842D01*
X146824975Y-117214398D01*
X146826212Y-117227877D01*
X146826879Y-117242279D01*
X146827006Y-117252393D01*
X146827006Y-117270711D01*
X146698534Y-117297578D01*
X146698534Y-117219420D01*
X146263049Y-117219420D01*
X146263049Y-117360104D01*
X146646510Y-117360104D01*
X146657668Y-117360216D01*
X146668366Y-117360551D01*
X146678604Y-117361109D01*
X146688382Y-117361890D01*
X146702188Y-117363481D01*
X146714958Y-117365574D01*
X146726694Y-117368169D01*
X146737395Y-117371267D01*
X146747062Y-117374867D01*
X146758341Y-117380448D01*
X146767780Y-117386922D01*
X146769853Y-117388681D01*
X146777352Y-117396649D01*
X146783851Y-117406144D01*
X146789350Y-117417165D01*
X146792818Y-117426433D01*
X146795724Y-117436560D01*
X146798068Y-117447545D01*
X146799849Y-117459389D01*
X146801067Y-117472091D01*
X146801724Y-117485653D01*
X146801849Y-117495170D01*
X146801849Y-117561605D01*
X146801724Y-117571601D01*
X146801067Y-117585845D01*
X146799849Y-117599187D01*
X146798068Y-117611628D01*
X146795724Y-117623167D01*
X146792818Y-117633805D01*
X146789350Y-117643540D01*
X146783851Y-117655119D01*
X146777352Y-117665095D01*
X146769853Y-117673468D01*
X146760873Y-117680623D01*
X146750054Y-117686825D01*
X146740732Y-117690850D01*
X146730376Y-117694338D01*
X146718985Y-117697290D01*
X146706559Y-117699705D01*
X146693099Y-117701583D01*
X146678604Y-117702925D01*
X146668366Y-117703521D01*
X146657668Y-117703879D01*
X146646510Y-117703998D01*
X146295289Y-117703998D01*
X146284306Y-117703885D01*
X146273765Y-117703544D01*
X146263667Y-117702976D01*
X146249350Y-117701699D01*
X146236029Y-117699911D01*
X146223705Y-117697612D01*
X146212376Y-117694802D01*
X146202043Y-117691481D01*
X146192707Y-117687649D01*
X146181808Y-117681745D01*
X146172679Y-117674933D01*
X146164894Y-117666972D01*
X146158147Y-117657622D01*
X146152437Y-117646883D01*
X146147766Y-117634755D01*
X146144944Y-117624748D01*
X146142706Y-117613958D01*
X146141051Y-117602388D01*
X146139981Y-117590036D01*
X146139494Y-117576903D01*
X146139462Y-117572351D01*
X146139462Y-117558185D01*
X146264514Y-117532051D01*
X146264514Y-117594577D01*
G37*
G36*
X145530565Y-117594577D02*
G01*
X145530565Y-117110000D01*
X145674668Y-117110000D01*
X145674668Y-117594577D01*
X145960432Y-117594577D01*
X145960432Y-117703998D01*
X145244068Y-117703998D01*
X145244068Y-117594577D01*
X145530565Y-117594577D01*
G37*
G36*
X145057710Y-117110000D02*
G01*
X145057710Y-117703998D01*
X144914096Y-117703998D01*
X144914096Y-117110000D01*
X145057710Y-117110000D01*
G37*
G36*
X144650313Y-117110000D02*
G01*
X144650313Y-117703998D01*
X144551151Y-117703998D01*
X144048743Y-117309546D01*
X144048743Y-117703998D01*
X143918073Y-117703998D01*
X143918073Y-117110000D01*
X144017969Y-117110000D01*
X144518911Y-117510558D01*
X144518911Y-117110000D01*
X144650313Y-117110000D01*
G37*
G36*
X143133565Y-117235052D02*
G01*
X143525331Y-117235052D01*
X143599825Y-117110000D01*
X143743928Y-117110000D01*
X143392707Y-117703998D01*
X143253977Y-117703998D01*
X143037996Y-117344473D01*
X143192428Y-117344473D01*
X143330425Y-117595066D01*
X143463782Y-117344473D01*
X143192428Y-117344473D01*
X143037996Y-117344473D01*
X142897138Y-117110000D01*
X143059071Y-117110000D01*
X143133565Y-117235052D01*
G37*
G36*
X142435519Y-117594577D02*
G01*
X142435519Y-117110000D01*
X142579622Y-117110000D01*
X142579622Y-117594577D01*
X142865387Y-117594577D01*
X142865387Y-117703998D01*
X142149022Y-117703998D01*
X142149022Y-117594577D01*
X142435519Y-117594577D01*
G37*
G36*
X142000767Y-117110000D02*
G01*
X142000767Y-117703998D01*
X141857152Y-117703998D01*
X141857152Y-117110000D01*
X142000767Y-117110000D01*
G37*
G36*
X141465033Y-117110111D02*
G01*
X141475694Y-117110446D01*
X141485892Y-117111004D01*
X141500320Y-117112260D01*
X141513705Y-117114018D01*
X141526046Y-117116278D01*
X141537344Y-117119041D01*
X141547598Y-117122306D01*
X141556810Y-117126074D01*
X141567469Y-117131878D01*
X141576273Y-117138576D01*
X141583657Y-117146567D01*
X141590057Y-117156131D01*
X141595473Y-117167267D01*
X141598888Y-117176651D01*
X141601749Y-117186919D01*
X141604057Y-117198071D01*
X141605811Y-117210109D01*
X141607011Y-117223030D01*
X141607657Y-117236836D01*
X141607780Y-117246531D01*
X141607780Y-117563314D01*
X141607657Y-117573279D01*
X141607011Y-117587467D01*
X141605811Y-117600744D01*
X141604057Y-117613112D01*
X141601749Y-117624570D01*
X141598888Y-117635117D01*
X141595473Y-117644754D01*
X141590057Y-117656188D01*
X141583657Y-117666003D01*
X141576273Y-117674200D01*
X141567469Y-117681184D01*
X141556810Y-117687237D01*
X141547598Y-117691165D01*
X141537344Y-117694570D01*
X141526046Y-117697451D01*
X141513705Y-117699808D01*
X141500320Y-117701641D01*
X141485892Y-117702951D01*
X141475694Y-117703533D01*
X141465033Y-117703882D01*
X141453907Y-117703998D01*
X140995952Y-117703998D01*
X140984740Y-117703882D01*
X140974001Y-117703533D01*
X140963735Y-117702951D01*
X140953942Y-117702136D01*
X140940140Y-117700477D01*
X140927404Y-117698295D01*
X140915731Y-117695588D01*
X140905124Y-117692358D01*
X140895581Y-117688605D01*
X140884514Y-117682785D01*
X140875340Y-117676034D01*
X140873342Y-117674200D01*
X140866015Y-117666003D01*
X140859664Y-117656188D01*
X140854291Y-117644754D01*
X140850902Y-117635117D01*
X140848063Y-117624570D01*
X140845773Y-117613112D01*
X140844033Y-117600744D01*
X140842842Y-117587467D01*
X140842201Y-117573279D01*
X140842079Y-117563314D01*
X140842079Y-117246531D01*
X140842358Y-117232136D01*
X140843146Y-117219420D01*
X140986182Y-117219420D01*
X140986182Y-117594577D01*
X141463433Y-117594577D01*
X141463433Y-117219420D01*
X140986182Y-117219420D01*
X140843146Y-117219420D01*
X140843195Y-117218625D01*
X140844590Y-117205998D01*
X140846544Y-117194256D01*
X140849055Y-117183398D01*
X140852125Y-117173424D01*
X140855753Y-117164335D01*
X140861458Y-117153593D01*
X140868156Y-117144422D01*
X140873830Y-117138576D01*
X140882684Y-117131878D01*
X140893370Y-117126074D01*
X140902586Y-117122306D01*
X140912833Y-117119041D01*
X140924110Y-117116278D01*
X140936418Y-117114018D01*
X140949756Y-117112260D01*
X140964124Y-117111004D01*
X140974275Y-117110446D01*
X140984885Y-117110111D01*
X140995952Y-117110000D01*
X141453907Y-117110000D01*
X141465033Y-117110111D01*
G37*
G36*
X140592951Y-117110000D02*
G01*
X140592951Y-117703998D01*
X140493789Y-117703998D01*
X139991381Y-117309546D01*
X139991381Y-117703998D01*
X139860711Y-117703998D01*
X139860711Y-117110000D01*
X139960606Y-117110000D01*
X140461548Y-117510558D01*
X140461548Y-117110000D01*
X140592951Y-117110000D01*
G37*
G36*
X138376447Y-117703998D02*
G01*
X138849301Y-117703998D01*
X138849301Y-117547683D01*
X138398918Y-117547683D01*
X138385937Y-117547541D01*
X138373493Y-117547114D01*
X138361589Y-117546403D01*
X138350222Y-117545408D01*
X138339393Y-117544129D01*
X138329102Y-117542565D01*
X138319350Y-117540717D01*
X138305730Y-117537412D01*
X138293321Y-117533467D01*
X138282122Y-117528882D01*
X138272135Y-117523658D01*
X138263358Y-117517794D01*
X138255791Y-117511290D01*
X138249113Y-117503965D01*
X138243092Y-117495545D01*
X138237727Y-117486031D01*
X138233019Y-117475421D01*
X138228969Y-117463717D01*
X138225575Y-117450918D01*
X138222838Y-117437024D01*
X138221378Y-117427153D01*
X138220210Y-117416795D01*
X138219335Y-117405951D01*
X138218751Y-117394621D01*
X138218459Y-117382804D01*
X138218422Y-117376713D01*
X138218422Y-117282679D01*
X138218568Y-117270499D01*
X138219006Y-117258808D01*
X138219736Y-117247608D01*
X138220758Y-117236899D01*
X138222071Y-117226680D01*
X138223677Y-117216951D01*
X138226633Y-117203278D01*
X138230246Y-117190707D01*
X138234516Y-117179241D01*
X138239442Y-117168877D01*
X138245026Y-117159617D01*
X138251266Y-117151461D01*
X138255791Y-117146636D01*
X138263358Y-117140089D01*
X138272135Y-117134185D01*
X138282122Y-117128926D01*
X138293321Y-117124311D01*
X138305730Y-117120339D01*
X138319350Y-117117012D01*
X138329102Y-117115151D01*
X138339393Y-117113577D01*
X138350222Y-117112289D01*
X138361589Y-117111287D01*
X138373493Y-117110572D01*
X138385937Y-117110143D01*
X138398918Y-117110000D01*
X138845394Y-117110000D01*
X138858346Y-117110143D01*
X138870764Y-117110572D01*
X138882648Y-117111287D01*
X138893998Y-117112289D01*
X138904813Y-117113577D01*
X138915094Y-117115151D01*
X138924841Y-117117012D01*
X138938460Y-117120339D01*
X138950876Y-117124311D01*
X138962090Y-117128926D01*
X138972102Y-117134185D01*
X138980912Y-117140089D01*
X138988520Y-117146636D01*
X138995154Y-117154057D01*
X139001137Y-117162581D01*
X139006466Y-117172209D01*
X139011143Y-117182940D01*
X139015167Y-117194775D01*
X139018539Y-117207713D01*
X139021258Y-117221754D01*
X139022708Y-117231728D01*
X139023868Y-117242192D01*
X139024738Y-117253147D01*
X139025318Y-117264592D01*
X139025609Y-117276528D01*
X139025645Y-117282679D01*
X139025645Y-117300753D01*
X138877389Y-117328841D01*
X138877389Y-117250683D01*
X138366678Y-117250683D01*
X138366678Y-117406999D01*
X138817306Y-117406999D01*
X138830197Y-117407142D01*
X138842554Y-117407571D01*
X138854377Y-117408287D01*
X138865666Y-117409289D01*
X138876420Y-117410577D01*
X138886640Y-117412151D01*
X138896326Y-117414011D01*
X138909853Y-117417339D01*
X138922177Y-117421310D01*
X138933300Y-117425925D01*
X138943220Y-117431185D01*
X138951939Y-117437088D01*
X138959455Y-117443635D01*
X138966046Y-117451106D01*
X138971989Y-117459689D01*
X138977283Y-117469384D01*
X138981929Y-117480192D01*
X138985927Y-117492111D01*
X138989276Y-117505141D01*
X138991978Y-117519284D01*
X138993418Y-117529331D01*
X138994571Y-117539871D01*
X138995435Y-117550906D01*
X138996011Y-117562435D01*
X138996300Y-117574459D01*
X138996336Y-117580655D01*
X138996336Y-117661744D01*
X138996192Y-117673565D01*
X138995759Y-117684909D01*
X138995039Y-117695776D01*
X138994031Y-117706166D01*
X138992734Y-117716079D01*
X138990249Y-117730053D01*
X138987115Y-117742955D01*
X138983334Y-117754783D01*
X138978904Y-117765538D01*
X138973825Y-117775219D01*
X138968099Y-117783827D01*
X138961724Y-117791362D01*
X138959455Y-117793635D01*
X138951939Y-117799964D01*
X138943220Y-117805671D01*
X138933300Y-117810755D01*
X138922177Y-117815216D01*
X138909853Y-117819055D01*
X138896326Y-117822272D01*
X138886640Y-117824070D01*
X138876420Y-117825592D01*
X138865666Y-117826837D01*
X138854377Y-117827805D01*
X138842554Y-117828497D01*
X138830197Y-117828912D01*
X138817306Y-117829050D01*
X138407222Y-117829050D01*
X138394738Y-117828917D01*
X138382748Y-117828516D01*
X138371252Y-117827848D01*
X138360251Y-117826913D01*
X138349744Y-117825711D01*
X138339731Y-117824242D01*
X138325638Y-117821537D01*
X138312657Y-117818231D01*
X138300788Y-117814324D01*
X138290031Y-117809816D01*
X138280386Y-117804707D01*
X138271853Y-117798997D01*
X138266782Y-117794856D01*
X138259842Y-117787979D01*
X138253585Y-117780170D01*
X138248010Y-117771430D01*
X138243117Y-117761758D01*
X138238908Y-117751154D01*
X138235381Y-117739618D01*
X138232536Y-117727151D01*
X138230375Y-117713753D01*
X138228896Y-117699422D01*
X138228289Y-117689351D01*
X138227986Y-117678866D01*
X138227948Y-117673468D01*
X138227948Y-117659057D01*
X138376447Y-117625840D01*
X138376447Y-117703998D01*
G37*
G36*
X137870132Y-117829050D02*
G01*
X137252197Y-117829050D01*
X137241606Y-117828921D01*
X137231387Y-117828531D01*
X137221540Y-117827883D01*
X137207467Y-117826423D01*
X137194232Y-117824379D01*
X137181833Y-117821752D01*
X137170272Y-117818540D01*
X137159548Y-117814745D01*
X137149661Y-117810366D01*
X137140612Y-117805403D01*
X137132399Y-117799856D01*
X137127389Y-117795833D01*
X137118345Y-117786957D01*
X137110506Y-117776813D01*
X137105418Y-117768374D01*
X137101009Y-117759222D01*
X137097278Y-117749357D01*
X137094226Y-117738780D01*
X137091852Y-117727490D01*
X137090156Y-117715487D01*
X137089138Y-117702772D01*
X137088799Y-117689344D01*
X137088799Y-117648311D01*
X137250976Y-117648311D01*
X137251543Y-117659207D01*
X137253637Y-117670292D01*
X137257273Y-117679623D01*
X137263318Y-117688141D01*
X137267096Y-117691542D01*
X137276774Y-117696991D01*
X137286317Y-117700057D01*
X137297817Y-117702246D01*
X137308897Y-117703402D01*
X137318739Y-117703889D01*
X137326692Y-117703998D01*
X137704779Y-117703998D01*
X137704779Y-117516420D01*
X137326692Y-117516420D01*
X137316197Y-117516610D01*
X137304302Y-117517386D01*
X137293766Y-117518757D01*
X137282919Y-117521190D01*
X137272737Y-117525114D01*
X137267096Y-117528632D01*
X137260044Y-117536051D01*
X137255006Y-117545851D01*
X137252251Y-117556380D01*
X137251118Y-117566855D01*
X137250976Y-117572595D01*
X137250976Y-117648311D01*
X137088799Y-117648311D01*
X137088799Y-117531074D01*
X137089138Y-117517688D01*
X137090156Y-117505005D01*
X137091852Y-117493027D01*
X137094226Y-117481752D01*
X137097278Y-117471182D01*
X137101009Y-117461316D01*
X137105418Y-117452154D01*
X137110506Y-117443696D01*
X137118345Y-117433514D01*
X137127389Y-117424584D01*
X137137781Y-117416799D01*
X137146552Y-117411641D01*
X137156159Y-117407067D01*
X137166604Y-117403078D01*
X137177887Y-117399672D01*
X137190006Y-117396849D01*
X137202962Y-117394611D01*
X137216756Y-117392957D01*
X137231387Y-117391886D01*
X137241606Y-117391497D01*
X137252197Y-117391367D01*
X137704779Y-117391367D01*
X137704779Y-117110000D01*
X137870132Y-117110000D01*
X137870132Y-117829050D01*
G37*
G36*
X136297208Y-117266315D02*
G01*
X136755408Y-117266315D01*
X136839427Y-117110000D01*
X137006978Y-117110000D01*
X136598115Y-117829050D01*
X136436182Y-117829050D01*
X136184038Y-117391367D01*
X136367061Y-117391367D01*
X136522888Y-117687634D01*
X136683600Y-117391367D01*
X136367061Y-117391367D01*
X136184038Y-117391367D01*
X136021946Y-117110000D01*
X136210502Y-117110000D01*
X136297208Y-117266315D01*
G37*
G36*
X135233775Y-117703998D02*
G01*
X135686845Y-117703998D01*
X135686845Y-117250683D01*
X135233775Y-117250683D01*
X135233775Y-117406999D01*
X135065491Y-117371828D01*
X135065491Y-117285854D01*
X135065637Y-117273347D01*
X135066075Y-117261350D01*
X135066805Y-117249862D01*
X135067827Y-117238883D01*
X135069141Y-117228414D01*
X135070746Y-117218455D01*
X135073702Y-117204471D01*
X135077315Y-117191633D01*
X135081585Y-117179941D01*
X135086511Y-117169396D01*
X135092095Y-117159997D01*
X135098335Y-117151745D01*
X135102860Y-117146880D01*
X135110416Y-117140289D01*
X135119161Y-117134347D01*
X135129095Y-117129052D01*
X135140218Y-117124406D01*
X135152531Y-117120408D01*
X135166032Y-117117059D01*
X135175694Y-117115186D01*
X135185885Y-117113601D01*
X135196604Y-117112305D01*
X135207851Y-117111296D01*
X135219628Y-117110576D01*
X135231932Y-117110144D01*
X135244766Y-117110000D01*
X135676098Y-117110000D01*
X135688990Y-117110144D01*
X135701347Y-117110576D01*
X135713170Y-117111296D01*
X135724458Y-117112305D01*
X135735213Y-117113601D01*
X135745433Y-117115186D01*
X135755119Y-117117059D01*
X135768645Y-117120408D01*
X135780970Y-117124406D01*
X135792093Y-117129052D01*
X135802013Y-117134347D01*
X135810732Y-117140289D01*
X135818248Y-117146880D01*
X135824839Y-117154368D01*
X135830781Y-117163003D01*
X135836076Y-117172784D01*
X135840722Y-117183711D01*
X135844720Y-117195785D01*
X135848069Y-117209005D01*
X135850770Y-117223371D01*
X135852211Y-117233585D01*
X135853364Y-117244309D01*
X135854228Y-117255542D01*
X135854804Y-117267285D01*
X135855092Y-117279537D01*
X135855128Y-117285854D01*
X135855128Y-117661011D01*
X135854984Y-117672863D01*
X135854552Y-117684237D01*
X135853832Y-117695135D01*
X135852823Y-117705555D01*
X135851527Y-117715499D01*
X135849042Y-117729519D01*
X135845908Y-117742466D01*
X135842127Y-117754340D01*
X135837696Y-117765141D01*
X135832618Y-117774868D01*
X135826892Y-117783522D01*
X135820517Y-117791103D01*
X135818248Y-117793391D01*
X135810732Y-117799764D01*
X135802013Y-117805510D01*
X135792093Y-117810629D01*
X135780970Y-117815121D01*
X135768645Y-117818986D01*
X135755119Y-117822225D01*
X135745433Y-117824036D01*
X135735213Y-117825568D01*
X135724458Y-117826822D01*
X135713170Y-117827797D01*
X135701347Y-117828493D01*
X135688990Y-117828911D01*
X135676098Y-117829050D01*
X135244766Y-117829050D01*
X135231932Y-117828911D01*
X135219628Y-117828493D01*
X135207851Y-117827797D01*
X135196604Y-117826822D01*
X135185885Y-117825568D01*
X135175694Y-117824036D01*
X135166032Y-117822225D01*
X135152531Y-117818986D01*
X135140218Y-117815121D01*
X135129095Y-117810629D01*
X135119161Y-117805510D01*
X135110416Y-117799764D01*
X135102860Y-117793391D01*
X135096182Y-117786168D01*
X135090161Y-117777872D01*
X135084796Y-117768503D01*
X135080089Y-117758060D01*
X135076038Y-117746544D01*
X135072644Y-117733954D01*
X135069907Y-117720291D01*
X135068447Y-117710586D01*
X135067279Y-117700405D01*
X135066404Y-117689746D01*
X135065820Y-117678610D01*
X135065528Y-117666997D01*
X135065491Y-117661011D01*
X135065491Y-117590669D01*
X135233775Y-117563314D01*
X135233775Y-117703998D01*
G37*
G36*
X134731123Y-117110000D02*
G01*
X134731123Y-117829050D01*
X133991555Y-117829050D01*
X133991555Y-117703998D01*
X134563084Y-117703998D01*
X134563084Y-117547683D01*
X134229448Y-117547683D01*
X134229448Y-117422630D01*
X134563084Y-117422630D01*
X134563084Y-117250683D01*
X133984717Y-117250683D01*
X133984717Y-117110000D01*
X134731123Y-117110000D01*
G37*
G36*
X133133775Y-117110000D02*
G01*
X133133775Y-117829050D01*
X132965735Y-117829050D01*
X132965735Y-117110000D01*
X133133775Y-117110000D01*
G37*
G36*
X132649197Y-117110000D02*
G01*
X132649197Y-117703998D01*
X132550034Y-117703998D01*
X132047627Y-117309546D01*
X132047627Y-117703998D01*
X131916957Y-117703998D01*
X131916957Y-117110000D01*
X132016852Y-117110000D01*
X132517794Y-117510558D01*
X132517794Y-117110000D01*
X132649197Y-117110000D01*
G37*
G36*
X131133914Y-117594577D02*
G01*
X131522749Y-117594577D01*
X131522749Y-117219420D01*
X131133914Y-117219420D01*
X131133914Y-117344473D01*
X130988101Y-117315163D01*
X130988101Y-117246043D01*
X130988385Y-117231778D01*
X130989235Y-117218385D01*
X130990651Y-117205864D01*
X130992635Y-117194214D01*
X130995185Y-117183435D01*
X130998302Y-117173528D01*
X131003340Y-117161675D01*
X131009385Y-117151371D01*
X131016437Y-117142616D01*
X131020341Y-117138820D01*
X131029264Y-117132065D01*
X131040033Y-117126211D01*
X131049323Y-117122412D01*
X131059651Y-117119119D01*
X131071018Y-117116332D01*
X131083425Y-117114052D01*
X131096870Y-117112279D01*
X131111354Y-117111013D01*
X131121588Y-117110450D01*
X131132283Y-117110112D01*
X131143440Y-117110000D01*
X131513223Y-117110000D01*
X131524204Y-117110111D01*
X131534736Y-117110446D01*
X131544819Y-117111004D01*
X131559104Y-117112260D01*
X131572380Y-117114018D01*
X131584646Y-117116278D01*
X131595904Y-117119041D01*
X131606153Y-117122306D01*
X131615393Y-117126074D01*
X131626144Y-117131878D01*
X131635100Y-117138576D01*
X131642599Y-117146506D01*
X131649099Y-117156009D01*
X131654598Y-117167084D01*
X131658066Y-117176422D01*
X131660972Y-117186644D01*
X131663316Y-117197751D01*
X131665097Y-117209742D01*
X131666315Y-117222618D01*
X131666971Y-117236378D01*
X131667096Y-117246043D01*
X131667096Y-117563803D01*
X131666972Y-117573737D01*
X131666321Y-117587885D01*
X131665112Y-117601126D01*
X131663344Y-117613462D01*
X131661019Y-117624891D01*
X131658135Y-117635415D01*
X131654693Y-117645033D01*
X131649236Y-117656447D01*
X131642786Y-117666251D01*
X131635345Y-117674445D01*
X131626491Y-117681371D01*
X131615805Y-117687374D01*
X131606589Y-117691271D01*
X131596342Y-117694647D01*
X131585065Y-117697504D01*
X131572757Y-117699842D01*
X131559420Y-117701660D01*
X131545051Y-117702959D01*
X131534900Y-117703536D01*
X131524291Y-117703883D01*
X131513223Y-117703998D01*
X131143440Y-117703998D01*
X131132224Y-117703883D01*
X131121477Y-117703536D01*
X131111197Y-117702959D01*
X131101384Y-117702151D01*
X131087542Y-117700506D01*
X131074751Y-117698341D01*
X131063012Y-117695657D01*
X131052326Y-117692454D01*
X131042691Y-117688731D01*
X131031480Y-117682959D01*
X131022140Y-117676263D01*
X131020097Y-117674445D01*
X131012598Y-117666251D01*
X131006099Y-117656447D01*
X131000600Y-117645033D01*
X130997131Y-117635415D01*
X130994225Y-117624891D01*
X130991882Y-117613462D01*
X130990101Y-117601126D01*
X130988882Y-117587885D01*
X130988226Y-117573737D01*
X130988101Y-117563803D01*
X130988101Y-117506406D01*
X131133914Y-117485157D01*
X131133914Y-117594577D01*
G37*
G36*
X130601220Y-117328841D02*
G01*
X130575819Y-117328841D01*
X130565420Y-117327792D01*
X130555711Y-117323762D01*
X130549929Y-117318094D01*
X130545619Y-117308397D01*
X130543608Y-117298444D01*
X130542624Y-117287732D01*
X130542358Y-117277062D01*
X130542358Y-117162512D01*
X130542561Y-117152704D01*
X130543339Y-117142446D01*
X130544985Y-117132561D01*
X130548270Y-117123150D01*
X130550662Y-117119525D01*
X130559063Y-117114502D01*
X130568945Y-117112092D01*
X130580039Y-117110753D01*
X130591134Y-117110148D01*
X130601220Y-117110000D01*
X130726273Y-117110000D01*
X130736672Y-117111073D01*
X130746381Y-117115194D01*
X130752163Y-117120990D01*
X130756473Y-117130966D01*
X130758485Y-117141048D01*
X130759468Y-117151824D01*
X130759734Y-117162512D01*
X130759734Y-117277062D01*
X130759451Y-117288436D01*
X130758601Y-117298196D01*
X130756586Y-117308699D01*
X130752650Y-117317791D01*
X130751674Y-117319071D01*
X130743169Y-117324223D01*
X130733269Y-117326694D01*
X130722198Y-117328068D01*
X130711149Y-117328688D01*
X130701116Y-117328841D01*
X130601220Y-117328841D01*
G37*
G36*
X150594696Y-116149050D02*
G01*
X150129902Y-116149050D01*
X150117566Y-116148960D01*
X150105409Y-116148689D01*
X150093431Y-116148237D01*
X150081633Y-116147604D01*
X150070015Y-116146790D01*
X150058575Y-116145796D01*
X150047315Y-116144621D01*
X150036235Y-116143265D01*
X150025333Y-116141728D01*
X150014612Y-116140011D01*
X150004069Y-116138112D01*
X149993706Y-116136033D01*
X149983522Y-116133773D01*
X149973518Y-116131332D01*
X149963693Y-116128711D01*
X149954047Y-116125908D01*
X149944581Y-116122925D01*
X149935294Y-116119761D01*
X149917258Y-116112891D01*
X149899939Y-116105298D01*
X149883339Y-116096981D01*
X149867455Y-116087941D01*
X149852289Y-116078178D01*
X149837841Y-116067692D01*
X149824110Y-116056482D01*
X149811155Y-116044609D01*
X149799037Y-116032131D01*
X149787754Y-116019047D01*
X149777307Y-116005359D01*
X149767695Y-115991066D01*
X149758920Y-115976168D01*
X149750980Y-115960666D01*
X149743876Y-115944558D01*
X149737608Y-115927846D01*
X149732175Y-115910528D01*
X149727578Y-115892606D01*
X149723818Y-115874079D01*
X149720892Y-115854947D01*
X149719743Y-115845154D01*
X149718803Y-115835210D01*
X149718072Y-115825115D01*
X149717549Y-115814868D01*
X149717236Y-115804470D01*
X149717202Y-115801004D01*
X149890788Y-115801004D01*
X149891024Y-115814534D01*
X149891731Y-115827646D01*
X149892909Y-115840340D01*
X149894559Y-115852616D01*
X149896679Y-115864474D01*
X149899272Y-115875914D01*
X149902335Y-115886937D01*
X149905870Y-115897541D01*
X149909876Y-115907728D01*
X149914354Y-115917497D01*
X149919302Y-115926848D01*
X149924723Y-115935781D01*
X149930614Y-115944296D01*
X149936977Y-115952393D01*
X149943811Y-115960072D01*
X149951116Y-115967334D01*
X149958851Y-115974195D01*
X149967034Y-115980614D01*
X149975665Y-115986591D01*
X149984745Y-115992124D01*
X149994274Y-115997215D01*
X150004250Y-116001864D01*
X150014675Y-116006069D01*
X150025549Y-116009832D01*
X150036871Y-116013152D01*
X150048641Y-116016030D01*
X150060860Y-116018464D01*
X150073527Y-116020457D01*
X150086643Y-116022006D01*
X150100207Y-116023113D01*
X150114220Y-116023777D01*
X150128681Y-116023998D01*
X150426657Y-116023998D01*
X150426657Y-115570683D01*
X150209281Y-115570683D01*
X150198526Y-115570736D01*
X150187970Y-115570892D01*
X150177611Y-115571153D01*
X150167450Y-115571519D01*
X150157488Y-115571989D01*
X150147723Y-115572564D01*
X150128787Y-115574026D01*
X150110644Y-115575907D01*
X150093292Y-115578205D01*
X150076732Y-115580922D01*
X150060964Y-115584056D01*
X150045988Y-115587608D01*
X150031804Y-115591578D01*
X150018412Y-115595965D01*
X150005811Y-115600771D01*
X149994003Y-115605995D01*
X149982986Y-115611636D01*
X149972761Y-115617695D01*
X149963328Y-115624173D01*
X149954544Y-115631132D01*
X149946327Y-115638636D01*
X149938676Y-115646687D01*
X149931592Y-115655283D01*
X149925075Y-115664425D01*
X149919124Y-115674113D01*
X149913740Y-115684346D01*
X149908923Y-115695125D01*
X149904673Y-115706450D01*
X149900989Y-115718321D01*
X149897872Y-115730737D01*
X149895322Y-115743699D01*
X149893338Y-115757207D01*
X149891921Y-115771260D01*
X149891071Y-115785859D01*
X149890788Y-115801004D01*
X149717202Y-115801004D01*
X149717131Y-115793921D01*
X149717295Y-115781421D01*
X149717784Y-115769077D01*
X149718600Y-115756890D01*
X149719742Y-115744859D01*
X149721210Y-115732985D01*
X149723005Y-115721267D01*
X149725126Y-115709705D01*
X149727573Y-115698300D01*
X149730346Y-115687052D01*
X149733446Y-115675960D01*
X149736872Y-115665024D01*
X149740624Y-115654245D01*
X149744703Y-115643622D01*
X149749108Y-115633156D01*
X149753839Y-115622846D01*
X149758897Y-115612693D01*
X149764222Y-115602752D01*
X149769815Y-115593077D01*
X149775678Y-115583670D01*
X149781810Y-115574530D01*
X149788211Y-115565657D01*
X149794881Y-115557052D01*
X149801820Y-115548713D01*
X149809028Y-115540642D01*
X149816505Y-115532837D01*
X149824251Y-115525300D01*
X149832266Y-115518030D01*
X149840550Y-115511027D01*
X149849104Y-115504291D01*
X149857926Y-115497823D01*
X149867017Y-115491621D01*
X149876378Y-115485687D01*
X149885418Y-115480375D01*
X149894862Y-115475337D01*
X149904709Y-115470574D01*
X149914960Y-115466086D01*
X149925615Y-115461873D01*
X149936673Y-115457935D01*
X149948135Y-115454271D01*
X149960000Y-115450882D01*
X149972269Y-115447768D01*
X149984942Y-115444929D01*
X149993614Y-115443189D01*
X150007060Y-115440832D01*
X150021200Y-115438706D01*
X150031014Y-115437418D01*
X150041137Y-115436233D01*
X150051569Y-115435151D01*
X150062309Y-115434173D01*
X150073360Y-115433297D01*
X150084719Y-115432524D01*
X150096387Y-115431854D01*
X150108365Y-115431287D01*
X150120651Y-115430824D01*
X150133247Y-115430463D01*
X150146152Y-115430206D01*
X150159365Y-115430051D01*
X150172889Y-115430000D01*
X150594696Y-115430000D01*
X150594696Y-116149050D01*
G37*
G36*
X149461409Y-115430000D02*
G01*
X149461409Y-116023998D01*
X148826378Y-116023998D01*
X148826378Y-115914577D01*
X149315840Y-115914577D01*
X149315840Y-115805157D01*
X149030809Y-115805157D01*
X149030809Y-115695736D01*
X149315840Y-115695736D01*
X149315840Y-115539420D01*
X148818806Y-115539420D01*
X148818806Y-115430000D01*
X149461409Y-115430000D01*
G37*
G36*
X148063607Y-115914577D02*
G01*
X148471004Y-115914577D01*
X148471004Y-115789525D01*
X148085345Y-115789525D01*
X148074220Y-115789416D01*
X148063561Y-115789090D01*
X148053368Y-115788546D01*
X148038951Y-115787322D01*
X148025582Y-115785609D01*
X148013260Y-115783407D01*
X148001986Y-115780715D01*
X147991759Y-115777534D01*
X147982580Y-115773863D01*
X147971970Y-115768207D01*
X147963223Y-115761681D01*
X147955839Y-115754003D01*
X147949439Y-115744767D01*
X147944024Y-115733975D01*
X147939593Y-115721625D01*
X147936916Y-115711341D01*
X147934793Y-115700182D01*
X147933224Y-115688146D01*
X147932208Y-115675235D01*
X147931747Y-115661447D01*
X147931716Y-115656657D01*
X147931716Y-115572393D01*
X147931842Y-115562279D01*
X147932503Y-115547877D01*
X147933731Y-115534398D01*
X147935526Y-115521842D01*
X147937887Y-115510209D01*
X147940815Y-115499500D01*
X147944310Y-115489713D01*
X147949851Y-115478100D01*
X147956400Y-115468128D01*
X147963956Y-115459797D01*
X147972852Y-115452813D01*
X147983541Y-115446761D01*
X147992736Y-115442832D01*
X148002939Y-115439428D01*
X148014151Y-115436547D01*
X148026372Y-115434190D01*
X148039602Y-115432357D01*
X148053840Y-115431047D01*
X148063894Y-115430465D01*
X148074395Y-115430116D01*
X148085345Y-115430000D01*
X148469539Y-115430000D01*
X148480757Y-115430116D01*
X148491513Y-115430465D01*
X148501808Y-115431047D01*
X148511640Y-115431862D01*
X148525523Y-115433521D01*
X148538368Y-115435703D01*
X148550173Y-115438409D01*
X148560939Y-115441639D01*
X148570666Y-115445393D01*
X148582020Y-115451213D01*
X148591526Y-115457964D01*
X148593614Y-115459797D01*
X148601228Y-115468128D01*
X148607826Y-115478100D01*
X148613409Y-115489713D01*
X148616931Y-115499500D01*
X148619881Y-115510209D01*
X148622260Y-115521842D01*
X148624068Y-115534398D01*
X148625305Y-115547877D01*
X148625972Y-115562279D01*
X148626099Y-115572393D01*
X148626099Y-115590711D01*
X148497627Y-115617578D01*
X148497627Y-115539420D01*
X148062142Y-115539420D01*
X148062142Y-115680104D01*
X148445603Y-115680104D01*
X148456761Y-115680216D01*
X148467459Y-115680551D01*
X148477697Y-115681109D01*
X148487475Y-115681890D01*
X148501281Y-115683481D01*
X148514051Y-115685574D01*
X148525787Y-115688169D01*
X148536488Y-115691267D01*
X148546155Y-115694867D01*
X148557434Y-115700448D01*
X148566873Y-115706922D01*
X148568946Y-115708681D01*
X148576445Y-115716649D01*
X148582944Y-115726144D01*
X148588443Y-115737165D01*
X148591911Y-115746433D01*
X148594817Y-115756560D01*
X148597161Y-115767545D01*
X148598942Y-115779389D01*
X148600160Y-115792091D01*
X148600817Y-115805653D01*
X148600942Y-115815170D01*
X148600942Y-115881605D01*
X148600817Y-115891601D01*
X148600160Y-115905845D01*
X148598942Y-115919187D01*
X148597161Y-115931628D01*
X148594817Y-115943167D01*
X148591911Y-115953805D01*
X148588443Y-115963540D01*
X148582944Y-115975119D01*
X148576445Y-115985095D01*
X148568946Y-115993468D01*
X148559966Y-116000623D01*
X148549147Y-116006825D01*
X148539825Y-116010850D01*
X148529469Y-116014338D01*
X148518078Y-116017290D01*
X148505652Y-116019705D01*
X148492192Y-116021583D01*
X148477697Y-116022925D01*
X148467459Y-116023521D01*
X148456761Y-116023879D01*
X148445603Y-116023998D01*
X148094382Y-116023998D01*
X148083399Y-116023885D01*
X148072858Y-116023544D01*
X148062760Y-116022976D01*
X148048443Y-116021699D01*
X148035122Y-116019911D01*
X148022798Y-116017612D01*
X148011469Y-116014802D01*
X148001136Y-116011481D01*
X147991800Y-116007649D01*
X147980901Y-116001745D01*
X147971772Y-115994933D01*
X147963987Y-115986972D01*
X147957240Y-115977622D01*
X147951530Y-115966883D01*
X147946859Y-115954755D01*
X147944037Y-115944748D01*
X147941799Y-115933958D01*
X147940144Y-115922388D01*
X147939074Y-115910036D01*
X147938587Y-115896903D01*
X147938555Y-115892351D01*
X147938555Y-115878185D01*
X148063607Y-115852051D01*
X148063607Y-115914577D01*
G37*
G36*
X147682344Y-115430000D02*
G01*
X147682344Y-116023998D01*
X147538729Y-116023998D01*
X147538729Y-115430000D01*
X147682344Y-115430000D01*
G37*
G36*
X146694626Y-115914577D02*
G01*
X147145010Y-115914577D01*
X147145010Y-115539420D01*
X146694626Y-115539420D01*
X146694626Y-115664473D01*
X146929588Y-115664473D01*
X146929588Y-115773893D01*
X146552965Y-115773893D01*
X146552965Y-115566043D01*
X146553244Y-115551693D01*
X146554082Y-115538228D01*
X146555477Y-115525647D01*
X146557430Y-115513950D01*
X146559942Y-115503138D01*
X146563012Y-115493211D01*
X146567973Y-115481350D01*
X146573926Y-115471061D01*
X146580872Y-115462345D01*
X146584717Y-115458576D01*
X146593571Y-115451878D01*
X146604256Y-115446074D01*
X146613473Y-115442306D01*
X146623719Y-115439041D01*
X146634997Y-115436278D01*
X146647304Y-115434018D01*
X146660642Y-115432260D01*
X146675010Y-115431004D01*
X146685162Y-115430446D01*
X146695771Y-115430111D01*
X146706838Y-115430000D01*
X147135484Y-115430000D01*
X147146552Y-115430111D01*
X147157161Y-115430446D01*
X147167312Y-115431004D01*
X147181681Y-115432260D01*
X147195019Y-115434018D01*
X147207326Y-115436278D01*
X147218603Y-115439041D01*
X147228850Y-115442306D01*
X147238066Y-115446074D01*
X147248752Y-115451878D01*
X147257606Y-115458576D01*
X147265048Y-115466506D01*
X147271497Y-115476009D01*
X147276954Y-115487084D01*
X147280396Y-115496422D01*
X147283280Y-115506644D01*
X147285606Y-115517751D01*
X147287373Y-115529742D01*
X147288582Y-115542618D01*
X147289233Y-115556378D01*
X147289357Y-115566043D01*
X147289357Y-115884291D01*
X147289233Y-115894195D01*
X147288582Y-115908297D01*
X147287373Y-115921492D01*
X147285606Y-115933782D01*
X147283280Y-115945166D01*
X147280396Y-115955644D01*
X147276954Y-115965216D01*
X147271497Y-115976569D01*
X147265048Y-115986312D01*
X147257606Y-115994445D01*
X147248752Y-116001371D01*
X147238066Y-116007374D01*
X147228850Y-116011271D01*
X147218603Y-116014647D01*
X147207326Y-116017504D01*
X147195019Y-116019842D01*
X147181681Y-116021660D01*
X147167312Y-116022959D01*
X147157161Y-116023536D01*
X147146552Y-116023883D01*
X147135484Y-116023998D01*
X146706838Y-116023998D01*
X146695859Y-116023886D01*
X146685330Y-116023548D01*
X146675251Y-116022985D01*
X146660977Y-116021718D01*
X146647716Y-116019945D01*
X146635469Y-116017665D01*
X146624235Y-116014879D01*
X146614014Y-116011586D01*
X146604806Y-116007786D01*
X146594105Y-116001932D01*
X146585205Y-115995177D01*
X146577649Y-115987247D01*
X146571100Y-115977867D01*
X146565559Y-115967036D01*
X146561025Y-115954755D01*
X146558286Y-115944593D01*
X146556114Y-115933615D01*
X146554508Y-115921821D01*
X146553469Y-115909212D01*
X146552997Y-115895786D01*
X146552965Y-115891130D01*
X146552965Y-115875498D01*
X146694626Y-115852051D01*
X146694626Y-115914577D01*
G37*
G36*
X146306768Y-115430000D02*
G01*
X146306768Y-116023998D01*
X146207606Y-116023998D01*
X145705198Y-115629546D01*
X145705198Y-116023998D01*
X145574528Y-116023998D01*
X145574528Y-115430000D01*
X145674424Y-115430000D01*
X146175366Y-115830558D01*
X146175366Y-115430000D01*
X146306768Y-115430000D01*
G37*
G36*
X145310258Y-115430000D02*
G01*
X145310258Y-116023998D01*
X144675226Y-116023998D01*
X144675226Y-115914577D01*
X145164689Y-115914577D01*
X145164689Y-115805157D01*
X144879658Y-115805157D01*
X144879658Y-115695736D01*
X145164689Y-115695736D01*
X145164689Y-115539420D01*
X144667655Y-115539420D01*
X144667655Y-115430000D01*
X145310258Y-115430000D01*
G37*
G36*
X144459316Y-116023998D02*
G01*
X144060711Y-116023998D01*
X144050073Y-116023923D01*
X144039590Y-116023699D01*
X144029263Y-116023326D01*
X144019091Y-116022804D01*
X144009074Y-116022132D01*
X143999214Y-116021310D01*
X143979958Y-116019220D01*
X143961325Y-116016532D01*
X143943314Y-116013248D01*
X143925925Y-116009365D01*
X143909159Y-116004886D01*
X143893014Y-115999809D01*
X143877491Y-115994136D01*
X143862590Y-115987864D01*
X143848312Y-115980996D01*
X143834655Y-115973530D01*
X143821620Y-115965468D01*
X143809208Y-115956807D01*
X143797417Y-115947550D01*
X143786267Y-115937737D01*
X143775836Y-115927412D01*
X143766125Y-115916572D01*
X143757133Y-115905220D01*
X143748860Y-115893354D01*
X143741306Y-115880975D01*
X143734472Y-115868082D01*
X143728358Y-115854677D01*
X143722963Y-115840758D01*
X143718287Y-115826325D01*
X143714330Y-115811380D01*
X143711093Y-115795921D01*
X143708575Y-115779949D01*
X143706777Y-115763463D01*
X143705698Y-115746465D01*
X143705433Y-115733593D01*
X143853593Y-115733593D01*
X143853791Y-115744829D01*
X143854383Y-115755701D01*
X143855371Y-115766208D01*
X143856753Y-115776351D01*
X143858531Y-115786129D01*
X143861937Y-115800114D01*
X143866233Y-115813278D01*
X143871417Y-115825622D01*
X143877490Y-115837146D01*
X143884452Y-115847850D01*
X143892302Y-115857734D01*
X143901041Y-115866798D01*
X143904152Y-115869637D01*
X143914108Y-115877668D01*
X143925017Y-115884909D01*
X143936880Y-115891361D01*
X143949695Y-115897022D01*
X143963464Y-115901894D01*
X143973173Y-115904703D01*
X143983305Y-115907160D01*
X143993861Y-115909267D01*
X144004840Y-115911022D01*
X144016243Y-115912427D01*
X144028070Y-115913480D01*
X144040320Y-115914182D01*
X144052994Y-115914533D01*
X144059490Y-115914577D01*
X144313747Y-115914577D01*
X144313747Y-115539420D01*
X144127634Y-115539420D01*
X144108941Y-115539594D01*
X144090963Y-115540115D01*
X144073701Y-115540983D01*
X144057154Y-115542199D01*
X144041324Y-115543761D01*
X144026208Y-115545671D01*
X144011808Y-115547929D01*
X143998124Y-115550533D01*
X143985155Y-115553485D01*
X143972902Y-115556784D01*
X143961365Y-115560431D01*
X143950542Y-115564425D01*
X143940436Y-115568766D01*
X143931045Y-115573454D01*
X143922370Y-115578490D01*
X143914410Y-115583872D01*
X143903541Y-115592742D01*
X143893742Y-115602680D01*
X143885011Y-115613688D01*
X143877350Y-115625764D01*
X143870757Y-115638909D01*
X143866956Y-115648267D01*
X143863630Y-115658100D01*
X143860780Y-115668407D01*
X143858404Y-115679190D01*
X143856503Y-115690448D01*
X143855078Y-115702182D01*
X143854128Y-115714390D01*
X143853653Y-115727073D01*
X143853593Y-115733593D01*
X143705433Y-115733593D01*
X143705338Y-115728953D01*
X143705719Y-115710560D01*
X143706861Y-115692751D01*
X143708764Y-115675527D01*
X143711429Y-115658886D01*
X143714855Y-115642829D01*
X143719042Y-115627355D01*
X143723991Y-115612466D01*
X143729701Y-115598161D01*
X143736173Y-115584439D01*
X143743405Y-115571302D01*
X143751400Y-115558748D01*
X143760155Y-115546778D01*
X143769672Y-115535392D01*
X143779950Y-115524590D01*
X143790990Y-115514372D01*
X143802791Y-115504738D01*
X143815331Y-115495687D01*
X143828650Y-115487221D01*
X143842747Y-115479338D01*
X143857623Y-115472040D01*
X143873278Y-115465325D01*
X143889711Y-115459194D01*
X143906922Y-115453647D01*
X143924912Y-115448684D01*
X143943681Y-115444305D01*
X143953357Y-115442334D01*
X143963228Y-115440510D01*
X143973293Y-115438831D01*
X143983553Y-115437298D01*
X143994008Y-115435911D01*
X144004658Y-115434671D01*
X144015502Y-115433576D01*
X144026540Y-115432627D01*
X144037773Y-115431824D01*
X144049201Y-115431167D01*
X144060824Y-115430656D01*
X144072641Y-115430291D01*
X144084653Y-115430072D01*
X144096859Y-115430000D01*
X144459316Y-115430000D01*
X144459316Y-116023998D01*
G37*
G36*
X142946964Y-115430000D02*
G01*
X142946964Y-116023998D01*
X142803349Y-116023998D01*
X142803349Y-115430000D01*
X142946964Y-115430000D01*
G37*
G36*
X142539567Y-115430000D02*
G01*
X142539567Y-116023998D01*
X142440404Y-116023998D01*
X141937997Y-115629546D01*
X141937997Y-116023998D01*
X141807327Y-116023998D01*
X141807327Y-115430000D01*
X141907222Y-115430000D01*
X142408164Y-115830558D01*
X142408164Y-115430000D01*
X142539567Y-115430000D01*
G37*
G36*
X140377529Y-115586315D02*
G01*
X140835729Y-115586315D01*
X140919748Y-115430000D01*
X141087299Y-115430000D01*
X140678436Y-116149050D01*
X140516503Y-116149050D01*
X140264359Y-115711367D01*
X140447383Y-115711367D01*
X140603210Y-116007634D01*
X140763921Y-115711367D01*
X140447383Y-115711367D01*
X140264359Y-115711367D01*
X140102267Y-115430000D01*
X140290823Y-115430000D01*
X140377529Y-115586315D01*
G37*
G36*
X139376378Y-115914577D02*
G01*
X139783775Y-115914577D01*
X139783775Y-115789525D01*
X139398115Y-115789525D01*
X139386991Y-115789416D01*
X139376332Y-115789090D01*
X139366139Y-115788546D01*
X139351722Y-115787322D01*
X139338352Y-115785609D01*
X139326030Y-115783407D01*
X139314756Y-115780715D01*
X139304529Y-115777534D01*
X139295350Y-115773863D01*
X139284741Y-115768207D01*
X139275994Y-115761681D01*
X139268609Y-115754003D01*
X139262209Y-115744767D01*
X139256794Y-115733975D01*
X139252363Y-115721625D01*
X139249686Y-115711341D01*
X139247563Y-115700182D01*
X139245994Y-115688146D01*
X139244979Y-115675235D01*
X139244517Y-115661447D01*
X139244487Y-115656657D01*
X139244487Y-115572393D01*
X139244612Y-115562279D01*
X139245274Y-115547877D01*
X139246502Y-115534398D01*
X139248296Y-115521842D01*
X139250658Y-115510209D01*
X139253586Y-115499500D01*
X139257080Y-115489713D01*
X139262622Y-115478100D01*
X139269170Y-115468128D01*
X139276727Y-115459797D01*
X139285622Y-115452813D01*
X139296312Y-115446761D01*
X139305506Y-115442832D01*
X139315709Y-115439428D01*
X139326921Y-115436547D01*
X139339142Y-115434190D01*
X139352372Y-115432357D01*
X139366611Y-115431047D01*
X139376664Y-115430465D01*
X139387165Y-115430116D01*
X139398115Y-115430000D01*
X139782309Y-115430000D01*
X139793527Y-115430116D01*
X139804284Y-115430465D01*
X139814578Y-115431047D01*
X139824411Y-115431862D01*
X139838294Y-115433521D01*
X139851138Y-115435703D01*
X139862943Y-115438409D01*
X139873710Y-115441639D01*
X139883437Y-115445393D01*
X139894790Y-115451213D01*
X139904297Y-115457964D01*
X139906385Y-115459797D01*
X139913998Y-115468128D01*
X139920597Y-115478100D01*
X139926180Y-115489713D01*
X139929701Y-115499500D01*
X139932651Y-115510209D01*
X139935030Y-115521842D01*
X139936839Y-115534398D01*
X139938076Y-115547877D01*
X139938742Y-115562279D01*
X139938869Y-115572393D01*
X139938869Y-115590711D01*
X139810397Y-115617578D01*
X139810397Y-115539420D01*
X139374912Y-115539420D01*
X139374912Y-115680104D01*
X139758374Y-115680104D01*
X139769531Y-115680216D01*
X139780229Y-115680551D01*
X139790468Y-115681109D01*
X139800246Y-115681890D01*
X139814051Y-115683481D01*
X139826822Y-115685574D01*
X139838557Y-115688169D01*
X139849259Y-115691267D01*
X139858925Y-115694867D01*
X139870204Y-115700448D01*
X139879644Y-115706922D01*
X139881716Y-115708681D01*
X139889215Y-115716649D01*
X139895714Y-115726144D01*
X139901214Y-115737165D01*
X139904682Y-115746433D01*
X139907588Y-115756560D01*
X139909931Y-115767545D01*
X139911712Y-115779389D01*
X139912931Y-115792091D01*
X139913587Y-115805653D01*
X139913712Y-115815170D01*
X139913712Y-115881605D01*
X139913587Y-115891601D01*
X139912931Y-115905845D01*
X139911712Y-115919187D01*
X139909931Y-115931628D01*
X139907588Y-115943167D01*
X139904682Y-115953805D01*
X139901214Y-115963540D01*
X139895714Y-115975119D01*
X139889215Y-115985095D01*
X139881716Y-115993468D01*
X139872736Y-116000623D01*
X139861917Y-116006825D01*
X139852596Y-116010850D01*
X139842239Y-116014338D01*
X139830849Y-116017290D01*
X139818423Y-116019705D01*
X139804963Y-116021583D01*
X139790468Y-116022925D01*
X139780229Y-116023521D01*
X139769531Y-116023879D01*
X139758374Y-116023998D01*
X139407152Y-116023998D01*
X139396169Y-116023885D01*
X139385628Y-116023544D01*
X139375530Y-116022976D01*
X139361214Y-116021699D01*
X139347893Y-116019911D01*
X139335568Y-116017612D01*
X139324239Y-116014802D01*
X139313907Y-116011481D01*
X139304570Y-116007649D01*
X139293671Y-116001745D01*
X139284542Y-115994933D01*
X139276757Y-115986972D01*
X139270010Y-115977622D01*
X139264301Y-115966883D01*
X139259630Y-115954755D01*
X139256807Y-115944748D01*
X139254569Y-115933958D01*
X139252915Y-115922388D01*
X139251844Y-115910036D01*
X139251358Y-115896903D01*
X139251325Y-115892351D01*
X139251325Y-115878185D01*
X139376378Y-115852051D01*
X139376378Y-115914577D01*
G37*
G36*
X138995115Y-115430000D02*
G01*
X138995115Y-116023998D01*
X138849546Y-116023998D01*
X138849546Y-115789525D01*
X138398918Y-115789525D01*
X138398918Y-116023998D01*
X138254815Y-116023998D01*
X138254815Y-115430000D01*
X138398918Y-115430000D01*
X138398918Y-115680104D01*
X138849546Y-115680104D01*
X138849546Y-115430000D01*
X138995115Y-115430000D01*
G37*
G36*
X137990788Y-115430000D02*
G01*
X137990788Y-116023998D01*
X137355757Y-116023998D01*
X137355757Y-115914577D01*
X137845219Y-115914577D01*
X137845219Y-115805157D01*
X137560188Y-115805157D01*
X137560188Y-115695736D01*
X137845219Y-115695736D01*
X137845219Y-115539420D01*
X137348185Y-115539420D01*
X137348185Y-115430000D01*
X137990788Y-115430000D01*
G37*
G36*
X136862875Y-115430000D02*
G01*
X137221179Y-116023998D01*
X137057780Y-116023998D01*
X136806943Y-115593154D01*
X136570272Y-116023998D01*
X136420551Y-116023998D01*
X136763712Y-115430000D01*
X136862875Y-115430000D01*
G37*
G36*
X136255687Y-115430000D02*
G01*
X136255687Y-116023998D01*
X136112072Y-116023998D01*
X136112072Y-115430000D01*
X136255687Y-115430000D01*
G37*
G36*
X135848290Y-115430000D02*
G01*
X135848290Y-116023998D01*
X135702721Y-116023998D01*
X135702721Y-115539420D01*
X135238415Y-115539420D01*
X135238415Y-115430000D01*
X135848290Y-115430000D01*
G37*
G36*
X135076482Y-115430000D02*
G01*
X135076482Y-116023998D01*
X134930914Y-116023998D01*
X134930914Y-115539420D01*
X134466608Y-115539420D01*
X134466608Y-115430000D01*
X135076482Y-115430000D01*
G37*
G36*
X134304675Y-115430000D02*
G01*
X134304675Y-116023998D01*
X133669644Y-116023998D01*
X133669644Y-115914577D01*
X134159106Y-115914577D01*
X134159106Y-115805157D01*
X133874075Y-115805157D01*
X133874075Y-115695736D01*
X134159106Y-115695736D01*
X134159106Y-115539420D01*
X133662072Y-115539420D01*
X133662072Y-115430000D01*
X134304675Y-115430000D01*
G37*
G36*
X133304012Y-115648841D02*
G01*
X133280809Y-115648841D01*
X133271001Y-115647991D01*
X133261479Y-115644643D01*
X133254186Y-115638094D01*
X133249876Y-115628397D01*
X133247865Y-115618444D01*
X133246881Y-115607732D01*
X133246615Y-115597062D01*
X133246615Y-115451493D01*
X133385345Y-115242421D01*
X133468143Y-115242421D01*
X133349197Y-115456866D01*
X133429064Y-115456866D01*
X133439464Y-115457940D01*
X133449172Y-115462061D01*
X133454954Y-115467857D01*
X133459265Y-115477832D01*
X133461276Y-115487915D01*
X133462259Y-115498691D01*
X133462526Y-115509378D01*
X133462526Y-115597062D01*
X133462335Y-115606858D01*
X133461602Y-115617070D01*
X133460053Y-115626857D01*
X133456542Y-115636866D01*
X133454710Y-115639560D01*
X133445325Y-115644844D01*
X133435175Y-115647065D01*
X133423889Y-115648261D01*
X133412661Y-115648760D01*
X133405129Y-115648841D01*
X133304012Y-115648841D01*
G37*
G36*
X132398115Y-115430000D02*
G01*
X132398115Y-116149050D01*
X132283321Y-116149050D01*
X131774563Y-115725289D01*
X131766622Y-115718708D01*
X131758979Y-115712247D01*
X131750200Y-115704651D01*
X131741851Y-115697226D01*
X131733931Y-115689973D01*
X131728890Y-115685233D01*
X131721591Y-115678229D01*
X131714533Y-115671140D01*
X131707715Y-115663964D01*
X131701138Y-115656703D01*
X131693768Y-115648122D01*
X131692742Y-115646887D01*
X131693497Y-115657933D01*
X131694205Y-115668357D01*
X131694865Y-115678158D01*
X131695672Y-115690257D01*
X131696395Y-115701250D01*
X131697035Y-115711136D01*
X131697716Y-115721937D01*
X131698360Y-115732616D01*
X131698835Y-115743073D01*
X131699236Y-115753679D01*
X131699504Y-115763895D01*
X131699581Y-115771451D01*
X131699581Y-116149050D01*
X131548394Y-116149050D01*
X131548394Y-115430000D01*
X131663189Y-115430000D01*
X132193684Y-115874277D01*
X132201797Y-115881498D01*
X132209465Y-115888416D01*
X132216690Y-115895029D01*
X132224403Y-115902215D01*
X132227145Y-115904808D01*
X132234213Y-115911677D01*
X132241836Y-115919478D01*
X132249111Y-115927356D01*
X132253768Y-115932651D01*
X132252741Y-115922354D01*
X132251798Y-115912225D01*
X132250938Y-115902262D01*
X132250161Y-115892466D01*
X132249340Y-115880931D01*
X132248639Y-115869637D01*
X132248058Y-115858829D01*
X132247597Y-115848571D01*
X132247211Y-115837297D01*
X132246989Y-115826772D01*
X132246929Y-115818346D01*
X132246929Y-115430000D01*
X132398115Y-115430000D01*
G37*
G36*
X130574110Y-116023998D02*
G01*
X131027180Y-116023998D01*
X131027180Y-115570683D01*
X130574110Y-115570683D01*
X130574110Y-115726999D01*
X130405826Y-115691828D01*
X130405826Y-115605854D01*
X130405972Y-115593347D01*
X130406410Y-115581350D01*
X130407140Y-115569862D01*
X130408162Y-115558883D01*
X130409476Y-115548414D01*
X130411081Y-115538455D01*
X130414037Y-115524471D01*
X130417650Y-115511633D01*
X130421920Y-115499941D01*
X130426847Y-115489396D01*
X130432430Y-115479997D01*
X130438670Y-115471745D01*
X130443196Y-115466880D01*
X130450751Y-115460289D01*
X130459496Y-115454347D01*
X130469430Y-115449052D01*
X130480553Y-115444406D01*
X130492866Y-115440408D01*
X130506368Y-115437059D01*
X130516030Y-115435186D01*
X130526220Y-115433601D01*
X130536939Y-115432305D01*
X130548187Y-115431296D01*
X130559963Y-115430576D01*
X130572267Y-115430144D01*
X130585101Y-115430000D01*
X131016434Y-115430000D01*
X131029325Y-115430144D01*
X131041682Y-115430576D01*
X131053505Y-115431296D01*
X131064794Y-115432305D01*
X131075548Y-115433601D01*
X131085768Y-115435186D01*
X131095454Y-115437059D01*
X131108981Y-115440408D01*
X131121305Y-115444406D01*
X131132428Y-115449052D01*
X131142348Y-115454347D01*
X131151067Y-115460289D01*
X131158583Y-115466880D01*
X131165174Y-115474368D01*
X131171117Y-115483003D01*
X131176411Y-115492784D01*
X131181057Y-115503711D01*
X131185055Y-115515785D01*
X131188404Y-115529005D01*
X131191106Y-115543371D01*
X131192546Y-115553585D01*
X131193699Y-115564309D01*
X131194563Y-115575542D01*
X131195139Y-115587285D01*
X131195428Y-115599537D01*
X131195464Y-115605854D01*
X131195464Y-115981011D01*
X131195319Y-115992863D01*
X131194887Y-116004237D01*
X131194167Y-116015135D01*
X131193158Y-116025555D01*
X131191862Y-116035499D01*
X131189377Y-116049519D01*
X131186243Y-116062466D01*
X131182462Y-116074340D01*
X131178032Y-116085141D01*
X131172953Y-116094868D01*
X131167227Y-116103522D01*
X131160852Y-116111103D01*
X131158583Y-116113391D01*
X131151067Y-116119764D01*
X131142348Y-116125510D01*
X131132428Y-116130629D01*
X131121305Y-116135121D01*
X131108981Y-116138986D01*
X131095454Y-116142225D01*
X131085768Y-116144036D01*
X131075548Y-116145568D01*
X131064794Y-116146822D01*
X131053505Y-116147797D01*
X131041682Y-116148493D01*
X131029325Y-116148911D01*
X131016434Y-116149050D01*
X130585101Y-116149050D01*
X130572267Y-116148911D01*
X130559963Y-116148493D01*
X130548187Y-116147797D01*
X130536939Y-116146822D01*
X130526220Y-116145568D01*
X130516030Y-116144036D01*
X130506368Y-116142225D01*
X130492866Y-116138986D01*
X130480553Y-116135121D01*
X130469430Y-116130629D01*
X130459496Y-116125510D01*
X130450751Y-116119764D01*
X130443196Y-116113391D01*
X130436517Y-116106168D01*
X130430496Y-116097872D01*
X130425131Y-116088503D01*
X130420424Y-116078060D01*
X130416373Y-116066544D01*
X130412979Y-116053954D01*
X130410242Y-116040291D01*
X130408782Y-116030586D01*
X130407615Y-116020405D01*
X130406739Y-116009746D01*
X130406155Y-115998610D01*
X130405863Y-115986997D01*
X130405826Y-115981011D01*
X130405826Y-115910669D01*
X130574110Y-115883314D01*
X130574110Y-116023998D01*
G37*
G36*
X147870899Y-114343998D02*
G01*
X147338938Y-114343998D01*
X147325338Y-114343743D01*
X147312471Y-114342976D01*
X147300339Y-114341699D01*
X147288941Y-114339911D01*
X147278277Y-114337612D01*
X147268347Y-114334802D01*
X147259152Y-114331481D01*
X147248033Y-114326258D01*
X147238220Y-114320127D01*
X147231716Y-114314933D01*
X147224045Y-114307095D01*
X147217397Y-114298111D01*
X147211772Y-114287983D01*
X147207169Y-114276709D01*
X147203590Y-114264291D01*
X147201576Y-114254226D01*
X147200138Y-114243517D01*
X147199275Y-114232164D01*
X147198987Y-114220167D01*
X147198987Y-114202093D01*
X147340404Y-114202093D01*
X147341716Y-114212316D01*
X147346189Y-114221082D01*
X147353837Y-114227250D01*
X147363246Y-114230792D01*
X147373316Y-114232745D01*
X147383863Y-114233862D01*
X147394004Y-114234398D01*
X147405372Y-114234577D01*
X147728750Y-114234577D01*
X147728750Y-114125157D01*
X147405372Y-114125157D01*
X147394203Y-114125335D01*
X147384202Y-114125872D01*
X147373743Y-114126988D01*
X147363669Y-114128942D01*
X147354081Y-114132484D01*
X147346294Y-114138930D01*
X147341740Y-114147859D01*
X147340404Y-114158129D01*
X147340404Y-114202093D01*
X147198987Y-114202093D01*
X147198987Y-114164724D01*
X147199625Y-114153075D01*
X147201539Y-114142093D01*
X147204730Y-114131780D01*
X147209196Y-114122134D01*
X147214938Y-114113156D01*
X147221957Y-114104846D01*
X147225121Y-114101709D01*
X147233778Y-114094394D01*
X147243568Y-114087866D01*
X147252216Y-114083210D01*
X147261589Y-114079058D01*
X147271687Y-114075409D01*
X147282510Y-114072265D01*
X147294058Y-114069624D01*
X147300104Y-114068492D01*
X147287995Y-114065935D01*
X147276580Y-114062661D01*
X147265860Y-114058669D01*
X147255835Y-114053960D01*
X147246504Y-114048533D01*
X147237868Y-114042389D01*
X147229926Y-114035527D01*
X147222679Y-114027948D01*
X147216153Y-114019750D01*
X147210497Y-114011034D01*
X147205712Y-114001799D01*
X147201796Y-113992044D01*
X147198751Y-113981771D01*
X147196575Y-113970978D01*
X147195370Y-113960537D01*
X147335031Y-113960537D01*
X147335546Y-113971342D01*
X147337449Y-113982320D01*
X147340755Y-113991544D01*
X147346250Y-113999940D01*
X147349685Y-114003279D01*
X147358661Y-114008729D01*
X147369220Y-114012220D01*
X147380279Y-114014264D01*
X147390913Y-114015298D01*
X147402834Y-114015724D01*
X147405372Y-114015736D01*
X147728750Y-114015736D01*
X147728750Y-113859420D01*
X147405372Y-113859420D01*
X147395526Y-113859607D01*
X147384378Y-113860367D01*
X147374518Y-113861711D01*
X147364385Y-113864095D01*
X147354909Y-113867940D01*
X147349685Y-113871388D01*
X147342601Y-113879588D01*
X147338251Y-113889343D01*
X147335946Y-113899781D01*
X147335088Y-113910143D01*
X147335031Y-113913886D01*
X147335031Y-113960537D01*
X147195370Y-113960537D01*
X147195270Y-113959667D01*
X147194835Y-113947836D01*
X147194835Y-113869434D01*
X147195239Y-113858478D01*
X147196449Y-113848051D01*
X147198467Y-113838151D01*
X147201292Y-113828779D01*
X147206315Y-113817105D01*
X147212772Y-113806370D01*
X147220664Y-113796574D01*
X147229991Y-113787716D01*
X147237928Y-113781689D01*
X147240753Y-113779797D01*
X147249727Y-113774472D01*
X147259520Y-113769671D01*
X147270134Y-113765393D01*
X147281568Y-113761639D01*
X147293822Y-113758409D01*
X147306896Y-113755703D01*
X147320790Y-113753521D01*
X147330508Y-113752357D01*
X147340591Y-113751425D01*
X147351038Y-113750727D01*
X147361849Y-113750261D01*
X147373025Y-113750029D01*
X147378750Y-113750000D01*
X147870899Y-113750000D01*
X147870899Y-114343998D01*
G37*
G36*
X146766189Y-113750000D02*
G01*
X146766189Y-114016713D01*
X147089322Y-114343998D01*
X146894661Y-114343998D01*
X146683391Y-114122470D01*
X146469434Y-114343998D01*
X146299929Y-114343998D01*
X146621841Y-114019644D01*
X146621841Y-113750000D01*
X146766189Y-113750000D01*
G37*
G36*
X145605791Y-113750000D02*
G01*
X145605791Y-114469050D01*
X145469748Y-114469050D01*
X145129273Y-114039427D01*
X144796370Y-114469050D01*
X144661793Y-114469050D01*
X144661793Y-113750000D01*
X144817620Y-113750000D01*
X144817620Y-114197452D01*
X144817379Y-114207940D01*
X144816811Y-114218148D01*
X144816015Y-114228478D01*
X144815910Y-114229692D01*
X144814994Y-114239752D01*
X144813956Y-114250392D01*
X144812947Y-114260178D01*
X144811845Y-114270408D01*
X144811513Y-114273412D01*
X144816522Y-114263406D01*
X144821291Y-114254086D01*
X144826550Y-114244082D01*
X144831482Y-114235012D01*
X144835449Y-114227983D01*
X144840441Y-114219465D01*
X144845728Y-114210831D01*
X144851195Y-114202416D01*
X144853767Y-114198674D01*
X145125121Y-113843789D01*
X145158583Y-113843789D01*
X145430669Y-114200139D01*
X145437084Y-114208880D01*
X145443078Y-114217363D01*
X145448651Y-114225589D01*
X145454505Y-114234676D01*
X145456559Y-114237997D01*
X145461581Y-114246851D01*
X145466145Y-114255582D01*
X145470733Y-114265259D01*
X145473900Y-114272679D01*
X145472984Y-114261826D01*
X145472190Y-114251491D01*
X145471519Y-114241676D01*
X145470969Y-114232379D01*
X145470379Y-114222309D01*
X145469982Y-114212432D01*
X145469767Y-114201685D01*
X145469748Y-114197452D01*
X145469748Y-113750000D01*
X145605791Y-113750000D01*
G37*
G36*
X143841381Y-113875052D02*
G01*
X144233146Y-113875052D01*
X144307640Y-113750000D01*
X144451744Y-113750000D01*
X144100523Y-114343998D01*
X143961793Y-114343998D01*
X143745812Y-113984473D01*
X143900243Y-113984473D01*
X144038241Y-114235066D01*
X144171597Y-113984473D01*
X143900243Y-113984473D01*
X143745812Y-113984473D01*
X143604954Y-113750000D01*
X143766887Y-113750000D01*
X143841381Y-113875052D01*
G37*
G36*
X143457920Y-114343998D02*
G01*
X143059315Y-114343998D01*
X143048677Y-114343923D01*
X143038194Y-114343699D01*
X143027867Y-114343326D01*
X143017695Y-114342804D01*
X143007678Y-114342132D01*
X142997818Y-114341310D01*
X142978562Y-114339220D01*
X142959929Y-114336532D01*
X142941918Y-114333248D01*
X142924529Y-114329365D01*
X142907763Y-114324886D01*
X142891618Y-114319809D01*
X142876095Y-114314136D01*
X142861194Y-114307864D01*
X142846916Y-114300996D01*
X142833259Y-114293530D01*
X142820224Y-114285468D01*
X142807812Y-114276807D01*
X142796021Y-114267550D01*
X142784871Y-114257737D01*
X142774440Y-114247412D01*
X142764729Y-114236572D01*
X142755737Y-114225220D01*
X142747464Y-114213354D01*
X142739911Y-114200975D01*
X142733076Y-114188082D01*
X142726962Y-114174677D01*
X142721567Y-114160758D01*
X142716891Y-114146325D01*
X142712934Y-114131380D01*
X142709697Y-114115921D01*
X142707179Y-114099949D01*
X142705381Y-114083463D01*
X142704302Y-114066465D01*
X142704037Y-114053593D01*
X142852197Y-114053593D01*
X142852395Y-114064829D01*
X142852987Y-114075701D01*
X142853975Y-114086208D01*
X142855357Y-114096351D01*
X142857135Y-114106129D01*
X142860541Y-114120114D01*
X142864837Y-114133278D01*
X142870021Y-114145622D01*
X142876094Y-114157146D01*
X142883056Y-114167850D01*
X142890906Y-114177734D01*
X142899645Y-114186798D01*
X142902756Y-114189637D01*
X142912712Y-114197668D01*
X142923621Y-114204909D01*
X142935484Y-114211361D01*
X142948299Y-114217022D01*
X142962068Y-114221894D01*
X142971777Y-114224703D01*
X142981909Y-114227160D01*
X142992465Y-114229267D01*
X143003444Y-114231022D01*
X143014847Y-114232427D01*
X143026674Y-114233480D01*
X143038924Y-114234182D01*
X143051598Y-114234533D01*
X143058094Y-114234577D01*
X143312351Y-114234577D01*
X143312351Y-113859420D01*
X143126238Y-113859420D01*
X143107545Y-113859594D01*
X143089567Y-113860115D01*
X143072305Y-113860983D01*
X143055758Y-113862199D01*
X143039928Y-113863761D01*
X143024812Y-113865671D01*
X143010412Y-113867929D01*
X142996728Y-113870533D01*
X142983759Y-113873485D01*
X142971506Y-113876784D01*
X142959969Y-113880431D01*
X142949146Y-113884425D01*
X142939040Y-113888766D01*
X142929649Y-113893454D01*
X142920974Y-113898490D01*
X142913014Y-113903872D01*
X142902145Y-113912742D01*
X142892346Y-113922680D01*
X142883615Y-113933688D01*
X142875954Y-113945764D01*
X142869361Y-113958909D01*
X142865560Y-113968267D01*
X142862234Y-113978100D01*
X142859384Y-113988407D01*
X142857008Y-113999190D01*
X142855108Y-114010448D01*
X142853682Y-114022182D01*
X142852732Y-114034390D01*
X142852257Y-114047073D01*
X142852197Y-114053593D01*
X142704037Y-114053593D01*
X142703942Y-114048953D01*
X142704323Y-114030560D01*
X142705465Y-114012751D01*
X142707368Y-113995527D01*
X142710033Y-113978886D01*
X142713459Y-113962829D01*
X142717646Y-113947355D01*
X142722595Y-113932466D01*
X142728305Y-113918161D01*
X142734777Y-113904439D01*
X142742009Y-113891302D01*
X142750004Y-113878748D01*
X142758759Y-113866778D01*
X142768276Y-113855392D01*
X142778554Y-113844590D01*
X142789594Y-113834372D01*
X142801395Y-113824738D01*
X142813935Y-113815687D01*
X142827254Y-113807221D01*
X142841351Y-113799338D01*
X142856227Y-113792040D01*
X142871882Y-113785325D01*
X142888315Y-113779194D01*
X142905526Y-113773647D01*
X142923516Y-113768684D01*
X142942285Y-113764305D01*
X142951961Y-113762334D01*
X142961832Y-113760510D01*
X142971897Y-113758831D01*
X142982157Y-113757298D01*
X142992612Y-113755911D01*
X143003262Y-113754671D01*
X143014106Y-113753576D01*
X143025144Y-113752627D01*
X143036377Y-113751824D01*
X143047805Y-113751167D01*
X143059428Y-113750656D01*
X143071245Y-113750291D01*
X143083257Y-113750072D01*
X143095463Y-113750000D01*
X143457920Y-113750000D01*
X143457920Y-114343998D01*
G37*
G36*
X142486810Y-113750000D02*
G01*
X142486810Y-114343998D01*
X142343195Y-114343998D01*
X142343195Y-113750000D01*
X142486810Y-113750000D01*
G37*
G36*
X141532553Y-114234577D02*
G01*
X141939950Y-114234577D01*
X141939950Y-114109525D01*
X141554291Y-114109525D01*
X141543166Y-114109416D01*
X141532507Y-114109090D01*
X141522314Y-114108546D01*
X141507897Y-114107322D01*
X141494528Y-114105609D01*
X141482206Y-114103407D01*
X141470932Y-114100715D01*
X141460705Y-114097534D01*
X141451526Y-114093863D01*
X141440916Y-114088207D01*
X141432169Y-114081681D01*
X141424785Y-114074003D01*
X141418385Y-114064767D01*
X141412970Y-114053975D01*
X141408539Y-114041625D01*
X141405862Y-114031341D01*
X141403739Y-114020182D01*
X141402170Y-114008146D01*
X141401154Y-113995235D01*
X141400693Y-113981447D01*
X141400662Y-113976657D01*
X141400662Y-113892393D01*
X141400788Y-113882279D01*
X141401449Y-113867877D01*
X141402677Y-113854398D01*
X141404472Y-113841842D01*
X141406833Y-113830209D01*
X141409761Y-113819500D01*
X141413256Y-113809713D01*
X141418797Y-113798100D01*
X141425346Y-113788128D01*
X141432902Y-113779797D01*
X141441798Y-113772813D01*
X141452487Y-113766761D01*
X141461682Y-113762832D01*
X141471885Y-113759428D01*
X141483097Y-113756547D01*
X141495318Y-113754190D01*
X141508548Y-113752357D01*
X141522786Y-113751047D01*
X141532839Y-113750465D01*
X141543341Y-113750116D01*
X141554291Y-113750000D01*
X141938485Y-113750000D01*
X141949703Y-113750116D01*
X141960459Y-113750465D01*
X141970754Y-113751047D01*
X141980586Y-113751862D01*
X141994469Y-113753521D01*
X142007314Y-113755703D01*
X142019119Y-113758409D01*
X142029885Y-113761639D01*
X142039612Y-113765393D01*
X142050966Y-113771213D01*
X142060472Y-113777964D01*
X142062560Y-113779797D01*
X142070174Y-113788128D01*
X142076772Y-113798100D01*
X142082355Y-113809713D01*
X142085877Y-113819500D01*
X142088827Y-113830209D01*
X142091206Y-113841842D01*
X142093014Y-113854398D01*
X142094251Y-113867877D01*
X142094918Y-113882279D01*
X142095045Y-113892393D01*
X142095045Y-113910711D01*
X141966573Y-113937578D01*
X141966573Y-113859420D01*
X141531088Y-113859420D01*
X141531088Y-114000104D01*
X141914549Y-114000104D01*
X141925707Y-114000216D01*
X141936405Y-114000551D01*
X141946643Y-114001109D01*
X141956421Y-114001890D01*
X141970227Y-114003481D01*
X141982997Y-114005574D01*
X141994733Y-114008169D01*
X142005434Y-114011267D01*
X142015101Y-114014867D01*
X142026380Y-114020448D01*
X142035819Y-114026922D01*
X142037892Y-114028681D01*
X142045391Y-114036649D01*
X142051890Y-114046144D01*
X142057389Y-114057165D01*
X142060857Y-114066433D01*
X142063763Y-114076560D01*
X142066107Y-114087545D01*
X142067888Y-114099389D01*
X142069106Y-114112091D01*
X142069763Y-114125653D01*
X142069887Y-114135170D01*
X142069887Y-114201605D01*
X142069763Y-114211601D01*
X142069106Y-114225845D01*
X142067888Y-114239187D01*
X142066107Y-114251628D01*
X142063763Y-114263167D01*
X142060857Y-114273805D01*
X142057389Y-114283540D01*
X142051890Y-114295119D01*
X142045391Y-114305095D01*
X142037892Y-114313468D01*
X142028912Y-114320623D01*
X142018093Y-114326825D01*
X142008771Y-114330850D01*
X141998415Y-114334338D01*
X141987024Y-114337290D01*
X141974598Y-114339705D01*
X141961138Y-114341583D01*
X141946643Y-114342925D01*
X141936405Y-114343521D01*
X141925707Y-114343879D01*
X141914549Y-114343998D01*
X141563328Y-114343998D01*
X141552345Y-114343885D01*
X141541804Y-114343544D01*
X141531706Y-114342976D01*
X141517389Y-114341699D01*
X141504068Y-114339911D01*
X141491744Y-114337612D01*
X141480415Y-114334802D01*
X141470082Y-114331481D01*
X141460746Y-114327649D01*
X141449847Y-114321745D01*
X141440718Y-114314933D01*
X141432933Y-114306972D01*
X141426185Y-114297622D01*
X141420476Y-114286883D01*
X141415805Y-114274755D01*
X141412983Y-114264748D01*
X141410745Y-114253958D01*
X141409090Y-114242388D01*
X141408020Y-114230036D01*
X141407533Y-114216903D01*
X141407501Y-114212351D01*
X141407501Y-114198185D01*
X141532553Y-114172051D01*
X141532553Y-114234577D01*
G37*
G36*
X141022953Y-113750111D02*
G01*
X141033615Y-113750446D01*
X141043813Y-113751004D01*
X141058241Y-113752260D01*
X141071625Y-113754018D01*
X141083966Y-113756278D01*
X141095264Y-113759041D01*
X141105519Y-113762306D01*
X141114730Y-113766074D01*
X141125389Y-113771878D01*
X141134193Y-113778576D01*
X141141578Y-113786567D01*
X141147978Y-113796131D01*
X141153393Y-113807267D01*
X141156808Y-113816651D01*
X141159670Y-113826919D01*
X141161977Y-113838071D01*
X141163731Y-113850109D01*
X141164931Y-113863030D01*
X141165577Y-113876836D01*
X141165700Y-113886531D01*
X141165700Y-114203314D01*
X141165577Y-114213279D01*
X141164931Y-114227467D01*
X141163731Y-114240744D01*
X141161977Y-114253112D01*
X141159670Y-114264570D01*
X141156808Y-114275117D01*
X141153393Y-114284754D01*
X141147978Y-114296188D01*
X141141578Y-114306003D01*
X141134193Y-114314200D01*
X141125389Y-114321184D01*
X141114730Y-114327237D01*
X141105519Y-114331165D01*
X141095264Y-114334570D01*
X141083966Y-114337451D01*
X141071625Y-114339808D01*
X141058241Y-114341641D01*
X141043813Y-114342951D01*
X141033615Y-114343533D01*
X141022953Y-114343882D01*
X141011827Y-114343998D01*
X140553872Y-114343998D01*
X140542660Y-114343882D01*
X140531921Y-114343533D01*
X140521655Y-114342951D01*
X140511862Y-114342136D01*
X140498061Y-114340477D01*
X140485324Y-114338295D01*
X140473652Y-114335588D01*
X140463044Y-114332358D01*
X140453502Y-114328605D01*
X140442434Y-114322785D01*
X140433260Y-114316034D01*
X140431262Y-114314200D01*
X140423935Y-114306003D01*
X140417585Y-114296188D01*
X140412211Y-114284754D01*
X140408822Y-114275117D01*
X140405983Y-114264570D01*
X140403693Y-114253112D01*
X140401953Y-114240744D01*
X140400762Y-114227467D01*
X140400121Y-114213279D01*
X140399999Y-114203314D01*
X140399999Y-113886531D01*
X140400278Y-113872136D01*
X140401066Y-113859420D01*
X140544102Y-113859420D01*
X140544102Y-114234577D01*
X141021353Y-114234577D01*
X141021353Y-113859420D01*
X140544102Y-113859420D01*
X140401066Y-113859420D01*
X140401115Y-113858625D01*
X140402511Y-113845998D01*
X140404464Y-113834256D01*
X140406976Y-113823398D01*
X140410046Y-113813424D01*
X140413673Y-113804335D01*
X140419379Y-113793593D01*
X140426076Y-113784422D01*
X140431751Y-113778576D01*
X140440605Y-113771878D01*
X140451290Y-113766074D01*
X140460507Y-113762306D01*
X140470753Y-113759041D01*
X140482030Y-113756278D01*
X140494338Y-113754018D01*
X140507676Y-113752260D01*
X140522044Y-113751004D01*
X140532196Y-113750446D01*
X140542805Y-113750111D01*
X140553872Y-113750000D01*
X141011827Y-113750000D01*
X141022953Y-113750111D01*
G37*
G36*
X140150871Y-113750000D02*
G01*
X140150871Y-114343998D01*
X140051709Y-114343998D01*
X139549301Y-113949546D01*
X139549301Y-114343998D01*
X139418631Y-114343998D01*
X139418631Y-113750000D01*
X139518527Y-113750000D01*
X140019469Y-114150558D01*
X140019469Y-113750000D01*
X140150871Y-113750000D01*
G37*
G36*
X137882344Y-114343998D02*
G01*
X138407222Y-114343998D01*
X138407222Y-113890683D01*
X137882344Y-113890683D01*
X137882344Y-114046999D01*
X138157117Y-114046999D01*
X138157117Y-114172051D01*
X137718945Y-114172051D01*
X137718945Y-113924633D01*
X137719089Y-113912216D01*
X137719522Y-113900304D01*
X137720242Y-113888898D01*
X137721250Y-113877998D01*
X137722547Y-113867603D01*
X137724132Y-113857714D01*
X137727049Y-113843829D01*
X137730615Y-113831081D01*
X137734829Y-113819472D01*
X137739691Y-113808999D01*
X137745201Y-113799665D01*
X137751360Y-113791468D01*
X137755826Y-113786636D01*
X137763342Y-113780089D01*
X137772061Y-113774185D01*
X137781981Y-113768926D01*
X137793104Y-113764311D01*
X137805428Y-113760339D01*
X137818955Y-113757012D01*
X137828641Y-113755151D01*
X137838861Y-113753577D01*
X137849615Y-113752289D01*
X137860904Y-113751287D01*
X137872727Y-113750572D01*
X137885084Y-113750143D01*
X137897975Y-113750000D01*
X138396475Y-113750000D01*
X138409367Y-113750143D01*
X138421724Y-113750572D01*
X138433547Y-113751287D01*
X138444835Y-113752289D01*
X138455589Y-113753577D01*
X138465810Y-113755151D01*
X138475495Y-113757012D01*
X138489022Y-113760339D01*
X138501347Y-113764311D01*
X138512469Y-113768926D01*
X138522390Y-113774185D01*
X138531108Y-113780089D01*
X138538624Y-113786636D01*
X138545215Y-113794074D01*
X138551158Y-113802650D01*
X138556452Y-113812364D01*
X138561099Y-113823215D01*
X138565096Y-113835204D01*
X138568446Y-113848331D01*
X138571147Y-113862596D01*
X138572588Y-113872737D01*
X138573740Y-113883385D01*
X138574605Y-113894538D01*
X138575181Y-113906197D01*
X138575469Y-113918361D01*
X138575505Y-113924633D01*
X138575505Y-114303698D01*
X138575361Y-114315369D01*
X138574929Y-114326569D01*
X138574208Y-114337298D01*
X138573200Y-114347555D01*
X138571903Y-114357341D01*
X138569418Y-114371136D01*
X138566285Y-114383871D01*
X138562503Y-114395545D01*
X138558073Y-114406159D01*
X138552995Y-114415712D01*
X138547268Y-114424205D01*
X138540893Y-114431638D01*
X138538624Y-114433879D01*
X138531108Y-114440165D01*
X138522390Y-114445832D01*
X138512469Y-114450881D01*
X138501347Y-114455312D01*
X138489022Y-114459124D01*
X138475495Y-114462318D01*
X138465810Y-114464105D01*
X138455589Y-114465616D01*
X138444835Y-114466852D01*
X138433547Y-114467814D01*
X138421724Y-114468501D01*
X138409367Y-114468913D01*
X138396475Y-114469050D01*
X137897975Y-114469050D01*
X137885259Y-114468916D01*
X137873059Y-114468512D01*
X137861376Y-114467840D01*
X137850211Y-114466898D01*
X137839562Y-114465687D01*
X137829431Y-114464208D01*
X137819817Y-114462459D01*
X137806365Y-114459331D01*
X137794077Y-114455598D01*
X137782952Y-114451260D01*
X137772991Y-114446316D01*
X137764193Y-114440767D01*
X137756559Y-114434612D01*
X137747743Y-114425136D01*
X137741903Y-114416892D01*
X137736724Y-114407674D01*
X137732206Y-114397481D01*
X137728349Y-114386313D01*
X137725153Y-114374171D01*
X137722619Y-114361054D01*
X137720745Y-114346963D01*
X137719864Y-114337027D01*
X137719276Y-114326658D01*
X137718982Y-114315856D01*
X137718945Y-114310293D01*
X137718945Y-114294417D01*
X137882344Y-114265840D01*
X137882344Y-114343998D01*
G37*
G36*
X137416329Y-113750000D02*
G01*
X137416329Y-114343998D01*
X137270760Y-114343998D01*
X137270760Y-113859420D01*
X136806454Y-113859420D01*
X136806454Y-113750000D01*
X137416329Y-113750000D01*
G37*
G36*
X136644521Y-113750000D02*
G01*
X136644521Y-114343998D01*
X136009490Y-114343998D01*
X136009490Y-114234577D01*
X136498952Y-114234577D01*
X136498952Y-114125157D01*
X136213921Y-114125157D01*
X136213921Y-114015736D01*
X136498952Y-114015736D01*
X136498952Y-113859420D01*
X136001918Y-113859420D01*
X136001918Y-113750000D01*
X136644521Y-113750000D01*
G37*
G36*
X135570097Y-113750000D02*
G01*
X135570097Y-114016713D01*
X135893230Y-114343998D01*
X135698569Y-114343998D01*
X135487299Y-114122470D01*
X135273342Y-114343998D01*
X135103837Y-114343998D01*
X135425749Y-114019644D01*
X135425749Y-113750000D01*
X135570097Y-113750000D01*
G37*
G36*
X134964130Y-114343998D02*
G01*
X134565526Y-114343998D01*
X134554888Y-114343923D01*
X134544405Y-114343699D01*
X134534077Y-114343326D01*
X134523906Y-114342804D01*
X134513889Y-114342132D01*
X134504028Y-114341310D01*
X134484773Y-114339220D01*
X134466140Y-114336532D01*
X134448129Y-114333248D01*
X134430740Y-114329365D01*
X134413973Y-114324886D01*
X134397828Y-114319809D01*
X134382306Y-114314136D01*
X134367405Y-114307864D01*
X134353126Y-114300996D01*
X134339470Y-114293530D01*
X134326435Y-114285468D01*
X134314023Y-114276807D01*
X134302232Y-114267550D01*
X134291082Y-114257737D01*
X134280651Y-114247412D01*
X134270940Y-114236572D01*
X134261947Y-114225220D01*
X134253675Y-114213354D01*
X134246121Y-114200975D01*
X134239287Y-114188082D01*
X134233173Y-114174677D01*
X134227777Y-114160758D01*
X134223101Y-114146325D01*
X134219145Y-114131380D01*
X134215908Y-114115921D01*
X134213390Y-114099949D01*
X134211591Y-114083463D01*
X134210512Y-114066465D01*
X134210248Y-114053593D01*
X134358408Y-114053593D01*
X134358606Y-114064829D01*
X134359198Y-114075701D01*
X134360186Y-114086208D01*
X134361568Y-114096351D01*
X134363345Y-114106129D01*
X134366752Y-114120114D01*
X134371048Y-114133278D01*
X134376232Y-114145622D01*
X134382305Y-114157146D01*
X134389266Y-114167850D01*
X134397117Y-114177734D01*
X134405856Y-114186798D01*
X134408966Y-114189637D01*
X134418923Y-114197668D01*
X134429832Y-114204909D01*
X134441694Y-114211361D01*
X134454510Y-114217022D01*
X134468279Y-114221894D01*
X134477987Y-114224703D01*
X134488120Y-114227160D01*
X134498676Y-114229267D01*
X134509655Y-114231022D01*
X134521058Y-114232427D01*
X134532885Y-114233480D01*
X134545135Y-114234182D01*
X134557809Y-114234533D01*
X134564305Y-114234577D01*
X134818562Y-114234577D01*
X134818562Y-113859420D01*
X134632449Y-113859420D01*
X134613755Y-113859594D01*
X134595778Y-113860115D01*
X134578516Y-113860983D01*
X134561969Y-113862199D01*
X134546138Y-113863761D01*
X134531023Y-113865671D01*
X134516623Y-113867929D01*
X134502939Y-113870533D01*
X134489970Y-113873485D01*
X134477717Y-113876784D01*
X134466179Y-113880431D01*
X134455357Y-113884425D01*
X134445251Y-113888766D01*
X134435860Y-113893454D01*
X134427184Y-113898490D01*
X134419225Y-113903872D01*
X134408356Y-113912742D01*
X134398556Y-113922680D01*
X134389826Y-113933688D01*
X134382165Y-113945764D01*
X134375572Y-113958909D01*
X134371771Y-113968267D01*
X134368445Y-113978100D01*
X134365594Y-113988407D01*
X134363219Y-113999190D01*
X134361318Y-114010448D01*
X134359893Y-114022182D01*
X134358943Y-114034390D01*
X134358467Y-114047073D01*
X134358408Y-114053593D01*
X134210248Y-114053593D01*
X134210153Y-114048953D01*
X134210533Y-114030560D01*
X134211675Y-114012751D01*
X134213579Y-113995527D01*
X134216243Y-113978886D01*
X134219670Y-113962829D01*
X134223857Y-113947355D01*
X134228806Y-113932466D01*
X134234516Y-113918161D01*
X134240987Y-113904439D01*
X134248220Y-113891302D01*
X134256214Y-113878748D01*
X134264970Y-113866778D01*
X134274487Y-113855392D01*
X134284765Y-113844590D01*
X134295805Y-113834372D01*
X134307606Y-113824738D01*
X134320146Y-113815687D01*
X134333465Y-113807221D01*
X134347562Y-113799338D01*
X134362438Y-113792040D01*
X134378093Y-113785325D01*
X134394525Y-113779194D01*
X134411737Y-113773647D01*
X134429727Y-113768684D01*
X134448496Y-113764305D01*
X134458172Y-113762334D01*
X134468043Y-113760510D01*
X134478108Y-113758831D01*
X134488368Y-113757298D01*
X134498823Y-113755911D01*
X134509472Y-113754671D01*
X134520316Y-113753576D01*
X134531355Y-113752627D01*
X134542588Y-113751824D01*
X134554016Y-113751167D01*
X134565639Y-113750656D01*
X134577456Y-113750291D01*
X134589468Y-113750072D01*
X134601674Y-113750000D01*
X134964130Y-113750000D01*
X134964130Y-114343998D01*
G37*
G36*
X133849406Y-114343998D02*
G01*
X133849406Y-113859420D01*
X133437124Y-113859420D01*
X133437124Y-114343998D01*
X133291555Y-114343998D01*
X133291555Y-113888974D01*
X133291682Y-113879157D01*
X133292348Y-113865173D01*
X133293586Y-113852078D01*
X133295394Y-113839871D01*
X133297773Y-113828553D01*
X133300723Y-113818124D01*
X133304245Y-113808583D01*
X133309828Y-113797245D01*
X133316426Y-113787487D01*
X133324040Y-113779309D01*
X133333073Y-113772439D01*
X133343930Y-113766486D01*
X133353270Y-113762622D01*
X133363637Y-113759273D01*
X133375029Y-113756439D01*
X133387447Y-113754121D01*
X133400892Y-113752318D01*
X133415363Y-113751030D01*
X133425580Y-113750457D01*
X133436253Y-113750114D01*
X133447382Y-113750000D01*
X133839148Y-113750000D01*
X133850215Y-113750113D01*
X133860824Y-113750454D01*
X133870976Y-113751021D01*
X133885344Y-113752299D01*
X133898682Y-113754087D01*
X133910990Y-113756386D01*
X133922267Y-113759196D01*
X133932513Y-113762517D01*
X133941730Y-113766349D01*
X133952415Y-113772252D01*
X133961269Y-113779064D01*
X133968711Y-113787193D01*
X133975161Y-113796925D01*
X133980618Y-113808259D01*
X133984060Y-113817812D01*
X133986943Y-113828266D01*
X133989269Y-113839622D01*
X133991036Y-113851879D01*
X133992246Y-113865038D01*
X133992897Y-113879099D01*
X133993021Y-113888974D01*
X133993021Y-114343998D01*
X133849406Y-114343998D01*
G37*
G36*
X132750557Y-113968841D02*
G01*
X132886601Y-113968841D01*
X132886601Y-113750000D01*
X133028750Y-113750000D01*
X133028750Y-114343998D01*
X132495568Y-114343998D01*
X132482229Y-114343745D01*
X132469599Y-114342985D01*
X132457677Y-114341718D01*
X132446464Y-114339945D01*
X132435959Y-114337665D01*
X132426162Y-114334879D01*
X132414202Y-114330376D01*
X132403501Y-114324972D01*
X132394059Y-114318667D01*
X132389811Y-114315177D01*
X132382083Y-114307472D01*
X132375385Y-114298645D01*
X132369718Y-114288696D01*
X132365081Y-114277625D01*
X132361475Y-114265432D01*
X132359446Y-114255551D01*
X132357997Y-114245039D01*
X132357128Y-114233895D01*
X132356838Y-114222121D01*
X132356838Y-114188904D01*
X132491416Y-114188904D01*
X132492094Y-114199102D01*
X132494528Y-114209040D01*
X132499384Y-114218030D01*
X132505582Y-114224075D01*
X132515287Y-114229152D01*
X132525427Y-114231952D01*
X132535922Y-114233552D01*
X132545941Y-114234321D01*
X132557117Y-114234577D01*
X132886601Y-114234577D01*
X132886601Y-114078262D01*
X132557117Y-114078262D01*
X132545941Y-114078512D01*
X132535922Y-114079264D01*
X132525427Y-114080826D01*
X132515287Y-114083561D01*
X132506475Y-114087889D01*
X132505582Y-114088520D01*
X132498734Y-114095568D01*
X132494127Y-114104895D01*
X132491914Y-114115100D01*
X132491416Y-114123935D01*
X132491416Y-114188904D01*
X132356838Y-114188904D01*
X132356838Y-114089253D01*
X132357128Y-114077611D01*
X132357997Y-114066593D01*
X132359446Y-114056196D01*
X132361475Y-114046423D01*
X132365081Y-114034359D01*
X132369718Y-114023403D01*
X132375385Y-114013553D01*
X132382083Y-114004810D01*
X132389811Y-113997173D01*
X132398623Y-113990533D01*
X132408694Y-113984778D01*
X132420024Y-113979908D01*
X132429349Y-113976837D01*
X132439382Y-113974264D01*
X132450123Y-113972189D01*
X132461572Y-113970612D01*
X132473730Y-113969533D01*
X132486597Y-113968952D01*
X132495568Y-113968841D01*
X132576901Y-113968841D01*
X132295289Y-113750000D01*
X132502407Y-113750000D01*
X132750557Y-113968841D01*
G37*
G36*
X131624354Y-113875052D02*
G01*
X132016119Y-113875052D01*
X132090613Y-113750000D01*
X132234717Y-113750000D01*
X131883495Y-114343998D01*
X131744765Y-114343998D01*
X131528784Y-113984473D01*
X131683216Y-113984473D01*
X131821213Y-114235066D01*
X131954570Y-113984473D01*
X131683216Y-113984473D01*
X131528784Y-113984473D01*
X131387927Y-113750000D01*
X131549860Y-113750000D01*
X131624354Y-113875052D01*
G37*
G36*
X128548010Y-102659000D02*
G01*
X128548010Y-103508232D01*
X128547192Y-103518091D01*
X128544253Y-103528643D01*
X128539178Y-103538432D01*
X128532984Y-103546371D01*
X128530913Y-103548532D01*
X128523046Y-103555194D01*
X128514618Y-103560219D01*
X128504298Y-103563959D01*
X128493246Y-103565562D01*
X128490369Y-103565629D01*
X128480415Y-103564799D01*
X128469782Y-103561819D01*
X128459944Y-103556670D01*
X128451986Y-103550388D01*
X128449825Y-103548288D01*
X128443068Y-103540516D01*
X128437970Y-103532159D01*
X128434177Y-103521893D01*
X128432551Y-103510864D01*
X128432483Y-103507988D01*
X128432483Y-102768420D01*
X128024598Y-102768420D01*
X128014346Y-102767649D01*
X128004749Y-102765335D01*
X127994583Y-102760801D01*
X127986388Y-102755181D01*
X127983076Y-102752300D01*
X127976224Y-102745027D01*
X127970454Y-102735914D01*
X127966882Y-102725946D01*
X127965508Y-102715123D01*
X127965491Y-102713710D01*
X127966590Y-102702765D01*
X127969887Y-102692644D01*
X127975383Y-102683347D01*
X127981995Y-102675889D01*
X127983076Y-102674875D01*
X127990990Y-102668689D01*
X128000837Y-102663480D01*
X128011537Y-102660255D01*
X128021602Y-102659062D01*
X128024598Y-102659000D01*
X128548010Y-102659000D01*
G37*
G36*
X127495069Y-102659437D02*
G01*
X127504797Y-102660471D01*
X127514680Y-102662114D01*
X127524718Y-102664364D01*
X127534911Y-102667223D01*
X127545259Y-102670690D01*
X127547347Y-102671456D01*
X127557298Y-102675449D01*
X127566391Y-102679489D01*
X127576168Y-102684401D01*
X127584709Y-102689381D01*
X127593110Y-102695278D01*
X127596196Y-102697834D01*
X127647731Y-102742775D01*
X127656515Y-102750443D01*
X127663402Y-102757633D01*
X127669896Y-102765550D01*
X127675996Y-102774196D01*
X127681703Y-102783568D01*
X127687016Y-102793668D01*
X127688031Y-102795775D01*
X127692675Y-102806254D01*
X127696532Y-102816469D01*
X127699602Y-102826423D01*
X127701884Y-102836114D01*
X127703584Y-102847397D01*
X127704151Y-102858302D01*
X127704151Y-103120374D01*
X127703321Y-103130858D01*
X127701289Y-103141053D01*
X127698038Y-103152365D01*
X127694397Y-103162644D01*
X127689909Y-103173698D01*
X127686810Y-103180702D01*
X127682268Y-103189964D01*
X127677437Y-103198700D01*
X127670990Y-103208879D01*
X127664090Y-103218235D01*
X127656736Y-103226768D01*
X127648929Y-103234478D01*
X127642358Y-103240053D01*
X127594242Y-103277422D01*
X127585267Y-103284232D01*
X127576113Y-103290371D01*
X127566777Y-103295841D01*
X127557262Y-103300641D01*
X127547566Y-103304771D01*
X127537690Y-103308231D01*
X127527634Y-103311022D01*
X127517397Y-103313143D01*
X127506980Y-103314594D01*
X127496383Y-103315375D01*
X127489217Y-103315524D01*
X127327040Y-103315524D01*
X127315649Y-103315086D01*
X127304374Y-103313773D01*
X127293215Y-103311583D01*
X127282172Y-103308518D01*
X127271245Y-103304576D01*
X127260433Y-103299759D01*
X127249738Y-103294066D01*
X127239159Y-103287497D01*
X127228695Y-103280053D01*
X127218347Y-103271732D01*
X127211513Y-103265699D01*
X127168282Y-103225154D01*
X127159945Y-103217104D01*
X127152428Y-103208342D01*
X127145732Y-103198866D01*
X127139855Y-103188678D01*
X127134798Y-103177778D01*
X127130561Y-103166164D01*
X127127144Y-103153838D01*
X127124548Y-103140799D01*
X127122771Y-103127048D01*
X127121814Y-103112583D01*
X127121632Y-103102545D01*
X127121632Y-103018525D01*
X127235693Y-103018525D01*
X127235693Y-103102056D01*
X127236182Y-103112131D01*
X127238060Y-103123214D01*
X127241346Y-103133197D01*
X127246040Y-103142081D01*
X127252142Y-103149867D01*
X127255721Y-103153347D01*
X127289183Y-103183877D01*
X127297218Y-103190280D01*
X127306515Y-103196531D01*
X127315433Y-103201220D01*
X127325361Y-103204714D01*
X127336077Y-103206103D01*
X127481157Y-103206103D01*
X127490978Y-103205425D01*
X127502022Y-103202919D01*
X127511136Y-103199301D01*
X127519923Y-103194327D01*
X127528383Y-103187995D01*
X127529762Y-103186808D01*
X127563467Y-103157499D01*
X127571187Y-103150444D01*
X127577309Y-103142650D01*
X127582433Y-103132624D01*
X127585383Y-103121593D01*
X127586182Y-103111337D01*
X127586182Y-103018525D01*
X127235693Y-103018525D01*
X127121632Y-103018525D01*
X127121632Y-102965769D01*
X127122462Y-102956016D01*
X127125442Y-102945586D01*
X127130590Y-102935920D01*
X127136873Y-102928087D01*
X127138973Y-102925957D01*
X127146745Y-102919390D01*
X127156343Y-102913860D01*
X127166705Y-102910437D01*
X127176397Y-102909170D01*
X127179273Y-102909104D01*
X127587403Y-102909104D01*
X127587403Y-102873689D01*
X127586510Y-102862300D01*
X127583831Y-102851581D01*
X127579366Y-102841532D01*
X127573115Y-102832152D01*
X127566541Y-102824848D01*
X127562002Y-102820688D01*
X127528296Y-102790891D01*
X127519807Y-102784417D01*
X127511438Y-102779041D01*
X127501552Y-102774038D01*
X127491837Y-102770615D01*
X127480721Y-102768618D01*
X127476028Y-102768420D01*
X127179273Y-102768420D01*
X127169414Y-102767649D01*
X127158862Y-102764878D01*
X127149073Y-102760093D01*
X127141134Y-102754252D01*
X127138973Y-102752300D01*
X127132216Y-102745027D01*
X127126526Y-102735914D01*
X127123004Y-102725946D01*
X127121649Y-102715123D01*
X127121632Y-102713710D01*
X127122731Y-102702963D01*
X127126028Y-102692949D01*
X127131524Y-102683668D01*
X127138136Y-102676148D01*
X127139217Y-102675120D01*
X127147061Y-102668838D01*
X127156656Y-102663549D01*
X127166921Y-102660275D01*
X127177859Y-102659015D01*
X127179273Y-102659000D01*
X127483600Y-102659000D01*
X127495069Y-102659437D01*
G37*
G36*
X126594800Y-103206103D02*
G01*
X126594800Y-102716641D01*
X126595630Y-102706508D01*
X126598119Y-102697053D01*
X126602997Y-102687077D01*
X126609042Y-102679074D01*
X126612141Y-102675852D01*
X126619913Y-102669286D01*
X126629511Y-102663756D01*
X126639873Y-102660333D01*
X126649565Y-102659065D01*
X126652441Y-102659000D01*
X126662883Y-102659806D01*
X126672624Y-102662225D01*
X126681663Y-102666257D01*
X126690001Y-102671902D01*
X126694451Y-102675852D01*
X126701113Y-102683564D01*
X126706139Y-102691954D01*
X126709879Y-102702373D01*
X126711398Y-102712215D01*
X126711548Y-102716641D01*
X126711548Y-103206103D01*
X126770655Y-103206103D01*
X126780788Y-103206875D01*
X126791538Y-103209645D01*
X126801404Y-103214431D01*
X126809309Y-103220271D01*
X126811444Y-103222224D01*
X126818010Y-103229663D01*
X126823540Y-103238853D01*
X126826963Y-103248775D01*
X126828280Y-103259430D01*
X126828296Y-103260814D01*
X126827335Y-103271255D01*
X126824449Y-103281086D01*
X126819641Y-103290306D01*
X126812909Y-103298916D01*
X126805544Y-103305387D01*
X126795839Y-103310837D01*
X126786221Y-103313902D01*
X126775550Y-103315378D01*
X126770655Y-103315524D01*
X126710083Y-103315524D01*
X126710083Y-103360221D01*
X126709845Y-103371185D01*
X126709132Y-103381913D01*
X126707945Y-103392404D01*
X126706282Y-103402658D01*
X126704144Y-103412676D01*
X126701530Y-103422457D01*
X126698442Y-103432001D01*
X126694879Y-103441309D01*
X126690840Y-103450381D01*
X126686326Y-103459215D01*
X126681337Y-103467814D01*
X126675873Y-103476175D01*
X126669934Y-103484300D01*
X126663520Y-103492188D01*
X126656631Y-103499840D01*
X126649266Y-103507255D01*
X126641548Y-103514324D01*
X126633597Y-103520936D01*
X126625413Y-103527093D01*
X126616996Y-103532794D01*
X126608346Y-103538038D01*
X126599464Y-103542827D01*
X126590348Y-103547159D01*
X126581000Y-103551035D01*
X126571420Y-103554456D01*
X126561606Y-103557420D01*
X126551560Y-103559928D01*
X126541280Y-103561981D01*
X126530768Y-103563577D01*
X126520024Y-103564717D01*
X126509046Y-103565401D01*
X126497836Y-103565629D01*
X126362525Y-103565629D01*
X126352392Y-103564858D01*
X126341642Y-103562087D01*
X126331777Y-103557301D01*
X126323871Y-103551461D01*
X126321737Y-103549509D01*
X126315170Y-103542117D01*
X126309640Y-103532840D01*
X126306217Y-103522677D01*
X126304900Y-103511629D01*
X126304884Y-103510186D01*
X126305968Y-103499668D01*
X126309219Y-103489853D01*
X126314638Y-103480739D01*
X126321158Y-103473341D01*
X126322225Y-103472328D01*
X126329997Y-103466047D01*
X126339595Y-103460758D01*
X126349956Y-103457483D01*
X126361081Y-103456224D01*
X126362525Y-103456208D01*
X126497836Y-103456208D01*
X126507934Y-103455800D01*
X126519933Y-103454141D01*
X126531242Y-103451206D01*
X126541858Y-103446995D01*
X126551783Y-103441508D01*
X126561016Y-103434745D01*
X126566224Y-103430074D01*
X126574034Y-103421538D01*
X126580520Y-103412262D01*
X126585683Y-103402246D01*
X126589522Y-103391491D01*
X126592037Y-103379997D01*
X126593096Y-103370269D01*
X126593335Y-103362663D01*
X126593335Y-103315524D01*
X126477808Y-103315524D01*
X126467949Y-103315027D01*
X126457397Y-103312455D01*
X126447608Y-103307745D01*
X126439669Y-103301871D01*
X126437508Y-103299893D01*
X126430751Y-103292429D01*
X126425061Y-103283156D01*
X126421538Y-103273089D01*
X126420183Y-103262227D01*
X126420166Y-103260814D01*
X126421250Y-103250067D01*
X126424502Y-103240053D01*
X126429921Y-103230772D01*
X126436441Y-103223252D01*
X126437508Y-103222224D01*
X126445280Y-103215942D01*
X126454878Y-103210653D01*
X126465239Y-103207379D01*
X126476364Y-103206119D01*
X126477808Y-103206103D01*
X126594800Y-103206103D01*
G37*
G36*
X125607326Y-102659000D02*
G01*
X125722853Y-102659000D01*
X125736052Y-102659446D01*
X125748902Y-102660786D01*
X125761405Y-102663018D01*
X125773560Y-102666144D01*
X125785368Y-102670162D01*
X125796827Y-102675074D01*
X125807939Y-102680878D01*
X125818703Y-102687576D01*
X125829120Y-102695167D01*
X125839188Y-102703650D01*
X125845707Y-102709802D01*
X125854917Y-102719508D01*
X125863221Y-102729574D01*
X125870619Y-102740001D01*
X125877112Y-102750789D01*
X125882698Y-102761937D01*
X125887378Y-102773446D01*
X125891153Y-102785316D01*
X125894022Y-102797546D01*
X125895984Y-102810137D01*
X125897041Y-102823089D01*
X125897243Y-102831923D01*
X125897243Y-103206103D01*
X125956349Y-103206103D01*
X125966482Y-103206851D01*
X125977233Y-103209538D01*
X125987098Y-103214179D01*
X125996078Y-103220773D01*
X125997138Y-103221735D01*
X126004511Y-103230039D01*
X126009777Y-103239321D01*
X126012937Y-103249579D01*
X126013974Y-103259356D01*
X126013991Y-103260814D01*
X126012937Y-103271744D01*
X126009777Y-103281819D01*
X126004511Y-103291039D01*
X125997138Y-103299404D01*
X125989426Y-103305685D01*
X125979782Y-103310975D01*
X125969253Y-103314249D01*
X125959314Y-103315461D01*
X125956349Y-103315524D01*
X125896021Y-103315524D01*
X125896021Y-103459872D01*
X125895215Y-103470207D01*
X125892796Y-103479841D01*
X125888763Y-103488773D01*
X125883118Y-103497004D01*
X125879169Y-103501393D01*
X125871457Y-103508150D01*
X125863067Y-103513247D01*
X125852648Y-103517041D01*
X125842806Y-103518582D01*
X125838380Y-103518734D01*
X125827343Y-103517635D01*
X125816948Y-103514338D01*
X125807193Y-103508842D01*
X125799184Y-103502231D01*
X125798080Y-103501149D01*
X125791228Y-103493246D01*
X125786059Y-103484713D01*
X125782572Y-103475548D01*
X125780769Y-103465753D01*
X125780494Y-103459872D01*
X125780494Y-103315524D01*
X125548220Y-103315524D01*
X125538360Y-103314741D01*
X125527808Y-103311929D01*
X125518020Y-103307070D01*
X125510080Y-103301142D01*
X125507919Y-103299160D01*
X125501162Y-103291815D01*
X125495472Y-103282706D01*
X125491950Y-103272833D01*
X125490595Y-103262197D01*
X125490578Y-103260814D01*
X125491662Y-103249869D01*
X125494914Y-103239748D01*
X125500333Y-103230451D01*
X125506853Y-103222993D01*
X125507919Y-103221979D01*
X125515692Y-103215793D01*
X125525290Y-103210584D01*
X125535651Y-103207359D01*
X125546775Y-103206119D01*
X125548220Y-103206103D01*
X125781960Y-103206103D01*
X125781960Y-102826794D01*
X125781118Y-102816733D01*
X125778594Y-102807280D01*
X125774386Y-102798434D01*
X125768496Y-102790196D01*
X125764374Y-102785762D01*
X125756377Y-102779005D01*
X125747772Y-102773907D01*
X125738559Y-102770469D01*
X125728738Y-102768691D01*
X125722853Y-102768420D01*
X125610013Y-102768420D01*
X125599014Y-102769153D01*
X125588978Y-102771351D01*
X125579902Y-102775015D01*
X125569911Y-102781655D01*
X125563000Y-102788616D01*
X125557050Y-102797043D01*
X125552062Y-102806934D01*
X125548952Y-102815315D01*
X125544728Y-102826306D01*
X125539625Y-102835831D01*
X125533645Y-102843891D01*
X125524936Y-102851906D01*
X125514855Y-102857630D01*
X125503402Y-102861065D01*
X125493253Y-102862164D01*
X125490578Y-102862210D01*
X125479909Y-102861450D01*
X125470129Y-102859171D01*
X125460038Y-102854706D01*
X125451108Y-102848256D01*
X125449057Y-102846334D01*
X125442004Y-102837877D01*
X125436967Y-102828382D01*
X125433944Y-102817849D01*
X125432953Y-102807781D01*
X125432937Y-102806278D01*
X125433704Y-102793947D01*
X125436005Y-102781625D01*
X125439841Y-102769309D01*
X125443724Y-102760078D01*
X125448470Y-102750851D01*
X125454079Y-102741628D01*
X125460552Y-102732410D01*
X125467887Y-102723196D01*
X125476085Y-102713986D01*
X125482030Y-102707848D01*
X125491473Y-102699118D01*
X125501393Y-102691247D01*
X125511789Y-102684235D01*
X125522662Y-102678081D01*
X125534011Y-102672786D01*
X125545837Y-102668349D01*
X125558140Y-102664772D01*
X125570919Y-102662053D01*
X125584174Y-102660192D01*
X125597907Y-102659190D01*
X125607326Y-102659000D01*
G37*
G36*
X164705071Y-117614374D02*
G01*
X164705071Y-117762629D01*
X164122552Y-117762629D01*
X164122552Y-117613885D01*
X164123636Y-117602955D01*
X164126887Y-117592880D01*
X164132307Y-117583660D01*
X164138827Y-117576294D01*
X164139893Y-117575295D01*
X164147677Y-117569109D01*
X164157317Y-117563899D01*
X164167751Y-117560675D01*
X164177532Y-117559481D01*
X164180438Y-117559419D01*
X164190606Y-117560190D01*
X164200166Y-117562504D01*
X164210348Y-117567038D01*
X164218606Y-117572658D01*
X164221959Y-117575539D01*
X164228811Y-117582872D01*
X164234581Y-117591939D01*
X164238153Y-117601740D01*
X164239527Y-117612273D01*
X164239545Y-117613641D01*
X164239545Y-117653208D01*
X164356293Y-117653208D01*
X164356293Y-116913885D01*
X164357122Y-116903657D01*
X164359612Y-116894130D01*
X164364489Y-116884101D01*
X164370535Y-116876077D01*
X164373634Y-116872852D01*
X164381406Y-116866286D01*
X164391004Y-116860756D01*
X164401365Y-116857333D01*
X164411057Y-116856065D01*
X164413934Y-116856000D01*
X164424376Y-116856806D01*
X164434116Y-116859225D01*
X164443156Y-116863257D01*
X164451494Y-116868902D01*
X164455944Y-116872852D01*
X164462605Y-116880576D01*
X164467631Y-116889001D01*
X164471371Y-116899488D01*
X164472890Y-116909416D01*
X164473041Y-116913885D01*
X164473041Y-117653208D01*
X164589789Y-117653208D01*
X164589789Y-117614618D01*
X164590842Y-117603566D01*
X164594002Y-117593369D01*
X164599268Y-117584026D01*
X164605605Y-117576553D01*
X164606642Y-117575539D01*
X164614354Y-117569258D01*
X164623997Y-117563968D01*
X164634526Y-117560694D01*
X164644466Y-117559482D01*
X164647430Y-117559419D01*
X164657563Y-117560179D01*
X164668314Y-117562907D01*
X164678179Y-117567620D01*
X164686084Y-117573372D01*
X164688219Y-117575295D01*
X164694785Y-117582674D01*
X164700315Y-117591910D01*
X164703738Y-117602000D01*
X164705055Y-117612945D01*
X164705071Y-117614374D01*
G37*
G36*
X163646589Y-116856258D02*
G01*
X163656373Y-116857034D01*
X163666105Y-116858326D01*
X163675786Y-116860136D01*
X163685416Y-116862463D01*
X163694994Y-116865307D01*
X163704520Y-116868669D01*
X163713995Y-116872547D01*
X163723418Y-116876942D01*
X163732790Y-116881855D01*
X163742111Y-116887285D01*
X163751379Y-116893231D01*
X163760597Y-116899695D01*
X163769762Y-116906676D01*
X163778877Y-116914174D01*
X163787939Y-116922189D01*
X163796664Y-116930527D01*
X163804827Y-116938931D01*
X163812426Y-116947403D01*
X163819462Y-116955941D01*
X163825935Y-116964545D01*
X163831846Y-116973217D01*
X163837194Y-116981955D01*
X163841978Y-116990760D01*
X163846200Y-116999632D01*
X163851477Y-117013066D01*
X163855488Y-117026649D01*
X163858232Y-117040383D01*
X163859710Y-117054266D01*
X163859991Y-117063606D01*
X163859991Y-117304918D01*
X163859373Y-117318900D01*
X163857518Y-117332727D01*
X163854427Y-117346400D01*
X163850099Y-117359918D01*
X163844535Y-117373282D01*
X163840139Y-117382105D01*
X163835193Y-117390860D01*
X163829697Y-117399546D01*
X163823652Y-117408163D01*
X163817058Y-117416711D01*
X163809914Y-117425191D01*
X163802220Y-117433602D01*
X163793977Y-117441945D01*
X163789649Y-117446090D01*
X163780780Y-117454135D01*
X163771819Y-117461661D01*
X163762767Y-117468667D01*
X163753623Y-117475155D01*
X163744388Y-117481124D01*
X163735061Y-117486573D01*
X163725642Y-117491504D01*
X163716132Y-117495916D01*
X163706530Y-117499808D01*
X163696837Y-117503182D01*
X163687052Y-117506037D01*
X163677175Y-117508372D01*
X163667207Y-117510189D01*
X163657147Y-117511486D01*
X163646996Y-117512265D01*
X163636753Y-117512524D01*
X163501443Y-117512524D01*
X163486920Y-117512169D01*
X163472480Y-117510647D01*
X163458121Y-117507956D01*
X163448593Y-117505514D01*
X163439102Y-117502552D01*
X163429647Y-117499072D01*
X163420229Y-117495072D01*
X163410846Y-117490554D01*
X163401500Y-117485516D01*
X163392190Y-117479960D01*
X163382917Y-117473884D01*
X163373680Y-117467290D01*
X163364478Y-117460176D01*
X163355314Y-117452544D01*
X163350745Y-117448533D01*
X163341872Y-117440330D01*
X163333571Y-117432023D01*
X163325843Y-117423614D01*
X163318688Y-117415102D01*
X163312105Y-117406487D01*
X163306094Y-117397768D01*
X163300656Y-117388947D01*
X163295790Y-117380023D01*
X163291497Y-117370995D01*
X163287776Y-117361865D01*
X163283268Y-117347976D01*
X163280048Y-117333855D01*
X163278116Y-117319502D01*
X163277472Y-117304918D01*
X163277472Y-117301498D01*
X163392999Y-117301498D01*
X163393518Y-117311966D01*
X163395510Y-117323346D01*
X163398996Y-117333438D01*
X163403976Y-117342242D01*
X163410450Y-117349759D01*
X163414248Y-117353034D01*
X163454792Y-117385762D01*
X163462735Y-117391656D01*
X163472631Y-117396990D01*
X163483205Y-117400665D01*
X163492807Y-117402494D01*
X163502908Y-117403103D01*
X163622343Y-117403103D01*
X163634126Y-117402644D01*
X163645050Y-117401267D01*
X163655115Y-117398971D01*
X163666060Y-117395004D01*
X163675769Y-117389715D01*
X163682915Y-117384297D01*
X163721994Y-117350103D01*
X163729215Y-117342939D01*
X163734943Y-117335002D01*
X163739736Y-117324765D01*
X163742226Y-117315154D01*
X163743222Y-117304770D01*
X163743243Y-117302964D01*
X163743243Y-117066293D01*
X163742444Y-117054758D01*
X163740049Y-117044150D01*
X163736056Y-117034470D01*
X163730466Y-117025718D01*
X163723279Y-117017892D01*
X163720528Y-117015490D01*
X163677297Y-116977877D01*
X163668264Y-116971855D01*
X163658678Y-116968157D01*
X163649087Y-116966199D01*
X163638375Y-116965432D01*
X163636753Y-116965420D01*
X163502908Y-116965420D01*
X163492023Y-116966176D01*
X163481533Y-116968443D01*
X163471438Y-116972221D01*
X163461738Y-116977510D01*
X163452433Y-116984311D01*
X163449419Y-116986914D01*
X163414248Y-117018421D01*
X163407027Y-117025113D01*
X163400490Y-117034092D01*
X163395987Y-117044334D01*
X163393746Y-117054117D01*
X163392999Y-117064827D01*
X163392999Y-117301498D01*
X163277472Y-117301498D01*
X163277472Y-117063606D01*
X163278116Y-117049281D01*
X163280048Y-117035158D01*
X163283268Y-117021237D01*
X163287776Y-117007518D01*
X163291497Y-116998484D01*
X163295790Y-116989539D01*
X163300656Y-116980685D01*
X163306094Y-116971919D01*
X163312105Y-116963244D01*
X163318688Y-116954658D01*
X163325843Y-116946162D01*
X163333571Y-116937756D01*
X163341872Y-116929439D01*
X163350745Y-116921212D01*
X163359891Y-116913315D01*
X163369074Y-116905928D01*
X163378294Y-116899050D01*
X163387549Y-116892682D01*
X163396841Y-116886823D01*
X163406169Y-116881473D01*
X163415533Y-116876633D01*
X163424934Y-116872303D01*
X163434370Y-116868482D01*
X163443843Y-116865170D01*
X163453353Y-116862368D01*
X163462898Y-116860075D01*
X163477284Y-116857592D01*
X163491752Y-116856254D01*
X163501443Y-116856000D01*
X163636753Y-116856000D01*
X163646589Y-116856258D01*
G37*
G36*
X162964846Y-116606713D02*
G01*
X162974478Y-116609167D01*
X162983479Y-116613258D01*
X162991849Y-116618985D01*
X162996348Y-116622992D01*
X163003105Y-116630834D01*
X163008203Y-116639401D01*
X163011641Y-116648692D01*
X163013419Y-116658709D01*
X163013690Y-116664757D01*
X163013690Y-117486146D01*
X163012872Y-117496100D01*
X163009933Y-117506733D01*
X163004857Y-117516571D01*
X162998663Y-117524528D01*
X162996593Y-117526690D01*
X162988655Y-117533352D01*
X162980017Y-117538378D01*
X162970677Y-117541767D01*
X162960636Y-117543520D01*
X162954583Y-117543787D01*
X162944724Y-117542969D01*
X162934172Y-117540031D01*
X162924383Y-117534955D01*
X162916444Y-117528761D01*
X162914283Y-117526690D01*
X162907526Y-117519013D01*
X162901836Y-117509496D01*
X162898313Y-117499184D01*
X162896959Y-117488079D01*
X162896942Y-117486635D01*
X162896942Y-117449998D01*
X162886477Y-117461355D01*
X162876028Y-117471980D01*
X162865595Y-117481872D01*
X162855176Y-117491031D01*
X162844773Y-117499457D01*
X162834385Y-117507151D01*
X162824012Y-117514112D01*
X162813655Y-117520340D01*
X162803313Y-117525836D01*
X162792986Y-117530598D01*
X162782674Y-117534628D01*
X162772378Y-117537926D01*
X162762097Y-117540490D01*
X162751831Y-117542322D01*
X162741580Y-117543421D01*
X162731345Y-117543787D01*
X162704478Y-117543787D01*
X162693113Y-117543386D01*
X162681915Y-117542182D01*
X162670885Y-117540175D01*
X162660022Y-117537365D01*
X162649327Y-117533752D01*
X162638799Y-117529336D01*
X162628438Y-117524117D01*
X162618245Y-117518096D01*
X162608220Y-117511272D01*
X162598361Y-117503645D01*
X162591882Y-117498114D01*
X162495651Y-117414583D01*
X162487990Y-117407567D01*
X162480824Y-117400318D01*
X162474152Y-117392836D01*
X162467975Y-117385121D01*
X162462291Y-117377174D01*
X162454693Y-117364816D01*
X162448206Y-117351935D01*
X162442832Y-117338529D01*
X162438569Y-117324600D01*
X162436345Y-117315023D01*
X162434616Y-117305214D01*
X162433380Y-117295171D01*
X162432639Y-117284896D01*
X162432581Y-117282448D01*
X162546453Y-117282448D01*
X162547346Y-117292932D01*
X162550025Y-117302952D01*
X162554490Y-117312509D01*
X162560741Y-117321603D01*
X162568778Y-117330232D01*
X162571854Y-117333006D01*
X162668819Y-117419468D01*
X162677184Y-117425986D01*
X162685916Y-117430642D01*
X162696177Y-117433654D01*
X162704478Y-117434367D01*
X162738184Y-117434367D01*
X162748549Y-117432367D01*
X162758795Y-117427336D01*
X162768452Y-117420587D01*
X162777117Y-117413244D01*
X162784452Y-117406245D01*
X162788254Y-117402371D01*
X162874227Y-117316642D01*
X162880771Y-117309336D01*
X162887159Y-117300222D01*
X162891951Y-117290731D01*
X162895145Y-117280862D01*
X162896742Y-117270616D01*
X162896942Y-117265351D01*
X162896942Y-117117339D01*
X162896049Y-117107204D01*
X162893370Y-117096949D01*
X162888904Y-117086573D01*
X162883819Y-117077835D01*
X162877494Y-117069014D01*
X162871540Y-117061896D01*
X162788254Y-116968840D01*
X162780674Y-116960711D01*
X162773324Y-116953666D01*
X162764458Y-116946384D01*
X162755950Y-116940796D01*
X162746213Y-116936325D01*
X162735504Y-116934191D01*
X162734032Y-116934157D01*
X162704478Y-116934157D01*
X162693670Y-116935546D01*
X162683913Y-116939041D01*
X162675326Y-116943729D01*
X162666534Y-116949980D01*
X162659049Y-116956383D01*
X162569168Y-117038449D01*
X162561448Y-117045882D01*
X162555326Y-117054260D01*
X162550801Y-117063582D01*
X162547873Y-117073849D01*
X162546542Y-117085060D01*
X162546453Y-117089007D01*
X162546453Y-117282448D01*
X162432581Y-117282448D01*
X162432392Y-117274387D01*
X162432392Y-117093404D01*
X162432658Y-117082793D01*
X162433456Y-117072395D01*
X162434787Y-117062208D01*
X162436651Y-117052233D01*
X162439046Y-117042470D01*
X162441974Y-117032919D01*
X162445435Y-117023580D01*
X162449428Y-117014452D01*
X162453953Y-117005536D01*
X162459010Y-116996832D01*
X162464600Y-116988340D01*
X162470723Y-116980060D01*
X162477377Y-116971991D01*
X162484564Y-116964134D01*
X162492284Y-116956489D01*
X162500535Y-116949056D01*
X162594569Y-116867479D01*
X162603535Y-116859840D01*
X162612939Y-116852953D01*
X162622780Y-116846817D01*
X162633060Y-116841433D01*
X162643778Y-116836799D01*
X162654933Y-116832918D01*
X162666527Y-116829787D01*
X162678558Y-116827408D01*
X162691027Y-116825780D01*
X162703934Y-116824903D01*
X162712782Y-116824736D01*
X162738184Y-116824736D01*
X162750641Y-116825157D01*
X162762733Y-116826419D01*
X162774460Y-116828523D01*
X162785823Y-116831468D01*
X162796820Y-116835255D01*
X162807452Y-116839883D01*
X162817720Y-116845353D01*
X162827622Y-116851664D01*
X162837160Y-116858817D01*
X162846333Y-116866811D01*
X162852245Y-116872608D01*
X162896942Y-116918526D01*
X162896942Y-116664513D01*
X162897748Y-116654178D01*
X162900167Y-116644544D01*
X162904199Y-116635612D01*
X162909844Y-116627381D01*
X162913794Y-116622992D01*
X162921506Y-116616330D01*
X162929896Y-116611304D01*
X162940315Y-116607564D01*
X162950157Y-116606045D01*
X162954583Y-116605895D01*
X162964846Y-116606713D01*
G37*
G36*
X141860815Y-103215140D02*
G01*
X141860815Y-103243717D01*
X141980494Y-103409314D01*
X141980494Y-102716397D01*
X141981301Y-102706264D01*
X141984197Y-102695513D01*
X141989200Y-102685648D01*
X141995306Y-102677742D01*
X141997347Y-102675608D01*
X142005059Y-102669137D01*
X142014703Y-102663687D01*
X142025232Y-102660313D01*
X142035171Y-102659064D01*
X142038136Y-102659000D01*
X142048268Y-102659818D01*
X142059019Y-102662756D01*
X142068884Y-102667832D01*
X142076790Y-102674026D01*
X142078924Y-102676096D01*
X142085491Y-102683869D01*
X142091021Y-102693467D01*
X142094444Y-102703828D01*
X142095711Y-102713520D01*
X142095777Y-102716397D01*
X142095777Y-103565629D01*
X141946789Y-103565629D01*
X141804639Y-103350695D01*
X141658094Y-103565629D01*
X141511792Y-103565629D01*
X141511792Y-102716397D01*
X141512634Y-102706264D01*
X141515158Y-102696808D01*
X141520104Y-102686833D01*
X141526235Y-102678830D01*
X141529378Y-102675608D01*
X141537375Y-102669137D01*
X141545980Y-102664255D01*
X141555193Y-102660962D01*
X141565014Y-102659259D01*
X141570899Y-102659000D01*
X141580865Y-102659818D01*
X141591539Y-102662756D01*
X141601450Y-102667832D01*
X141609496Y-102674026D01*
X141611688Y-102676096D01*
X141618349Y-102683880D01*
X141623375Y-102692272D01*
X141627115Y-102702606D01*
X141628634Y-102712300D01*
X141628785Y-102716641D01*
X141628785Y-103409314D01*
X141745533Y-103246404D01*
X141745533Y-103215140D01*
X141746601Y-103204165D01*
X141749807Y-103193952D01*
X141755150Y-103184503D01*
X141761578Y-103176861D01*
X141762630Y-103175817D01*
X141770413Y-103169346D01*
X141780053Y-103163896D01*
X141790487Y-103160523D01*
X141800268Y-103159274D01*
X141803174Y-103159209D01*
X141813307Y-103160004D01*
X141824057Y-103162858D01*
X141833923Y-103167789D01*
X141841828Y-103173806D01*
X141843962Y-103175817D01*
X141850529Y-103183376D01*
X141856059Y-103192730D01*
X141859482Y-103202847D01*
X141860799Y-103213727D01*
X141860815Y-103215140D01*
G37*
G36*
X141017200Y-103628155D02*
G01*
X140956628Y-103628155D01*
X140946495Y-103627314D01*
X140937040Y-103624789D01*
X140927064Y-103619843D01*
X140919062Y-103613712D01*
X140915840Y-103610570D01*
X140909273Y-103602632D01*
X140904319Y-103593994D01*
X140900978Y-103584654D01*
X140899250Y-103574613D01*
X140898987Y-103568560D01*
X140898987Y-103517269D01*
X140899793Y-103506697D01*
X140902213Y-103496779D01*
X140906245Y-103487516D01*
X140911890Y-103478907D01*
X140915840Y-103474282D01*
X140923552Y-103467240D01*
X140931942Y-103461927D01*
X140942360Y-103457973D01*
X140952202Y-103456367D01*
X140956628Y-103456208D01*
X141018666Y-103456208D01*
X141029084Y-103457085D01*
X141038755Y-103459714D01*
X141047677Y-103464097D01*
X141055852Y-103470233D01*
X141060187Y-103474526D01*
X141066635Y-103482846D01*
X141071447Y-103491563D01*
X141074943Y-103502012D01*
X141076301Y-103512980D01*
X141076307Y-103515803D01*
X141074842Y-103568560D01*
X141074035Y-103579002D01*
X141071616Y-103588742D01*
X141067584Y-103597782D01*
X141061939Y-103606120D01*
X141057989Y-103610570D01*
X141050277Y-103617422D01*
X141041887Y-103622591D01*
X141031469Y-103626438D01*
X141021626Y-103628001D01*
X141017200Y-103628155D01*
G37*
G36*
X140782239Y-102659000D02*
G01*
X141133949Y-102659000D01*
X141144081Y-102659759D01*
X141154832Y-102662488D01*
X141164697Y-102667201D01*
X141172603Y-102672953D01*
X141174737Y-102674875D01*
X141181304Y-102682243D01*
X141186834Y-102691437D01*
X141190257Y-102701455D01*
X141191573Y-102712297D01*
X141191590Y-102713710D01*
X141190537Y-102724441D01*
X141187377Y-102734409D01*
X141182110Y-102743614D01*
X141174737Y-102752056D01*
X141167025Y-102758432D01*
X141157381Y-102763802D01*
X141146852Y-102767126D01*
X141136913Y-102768356D01*
X141133949Y-102768420D01*
X141015735Y-102768420D01*
X141015735Y-103206103D01*
X141132727Y-103206103D01*
X141142860Y-103206875D01*
X141153611Y-103209645D01*
X141163476Y-103214431D01*
X141171382Y-103220271D01*
X141173516Y-103222224D01*
X141180082Y-103229545D01*
X141185612Y-103238570D01*
X141189036Y-103248298D01*
X141190352Y-103258728D01*
X141190369Y-103260081D01*
X141189315Y-103271042D01*
X141186155Y-103281208D01*
X141180889Y-103290581D01*
X141174553Y-103298131D01*
X141173516Y-103299160D01*
X141165804Y-103305536D01*
X141156160Y-103310906D01*
X141145631Y-103314230D01*
X141135692Y-103315460D01*
X141132727Y-103315524D01*
X140956628Y-103315524D01*
X140946495Y-103314683D01*
X140937040Y-103312158D01*
X140927064Y-103307212D01*
X140919062Y-103301082D01*
X140915840Y-103297939D01*
X140909273Y-103290025D01*
X140904319Y-103281456D01*
X140900978Y-103272233D01*
X140899250Y-103262356D01*
X140898987Y-103256418D01*
X140898987Y-102768420D01*
X140783704Y-102768420D01*
X140773453Y-102767649D01*
X140763856Y-102765335D01*
X140753689Y-102760801D01*
X140745495Y-102755181D01*
X140742183Y-102752300D01*
X140735331Y-102745027D01*
X140729561Y-102735914D01*
X140725989Y-102725946D01*
X140724615Y-102715123D01*
X140724597Y-102713710D01*
X140725681Y-102702765D01*
X140728933Y-102692644D01*
X140734352Y-102683347D01*
X140740872Y-102675889D01*
X140741939Y-102674875D01*
X140749711Y-102668689D01*
X140759309Y-102663480D01*
X140769670Y-102660255D01*
X140780795Y-102659015D01*
X140782239Y-102659000D01*
G37*
G36*
X140205917Y-102659442D02*
G01*
X140217000Y-102660768D01*
X140228082Y-102662979D01*
X140239165Y-102666075D01*
X140250247Y-102670055D01*
X140261330Y-102674919D01*
X140272412Y-102680668D01*
X140283495Y-102687301D01*
X140294577Y-102694819D01*
X140305660Y-102703221D01*
X140313048Y-102709314D01*
X140361164Y-102749369D01*
X140368253Y-102757213D01*
X140374218Y-102765537D01*
X140380080Y-102775337D01*
X140384886Y-102784632D01*
X140389621Y-102794953D01*
X140392427Y-102801637D01*
X140396649Y-102812967D01*
X140400155Y-102824058D01*
X140402946Y-102834911D01*
X140405021Y-102845525D01*
X140406381Y-102855900D01*
X140407025Y-102866037D01*
X140407082Y-102870025D01*
X140407082Y-103102300D01*
X140406682Y-103114370D01*
X140405484Y-103126310D01*
X140403486Y-103138117D01*
X140400689Y-103149794D01*
X140397094Y-103161340D01*
X140393642Y-103170481D01*
X140390718Y-103177283D01*
X140386481Y-103186098D01*
X140380950Y-103196324D01*
X140375157Y-103205667D01*
X140369101Y-103214127D01*
X140362782Y-103221704D01*
X140354854Y-103229633D01*
X140352127Y-103231993D01*
X140304744Y-103272049D01*
X140295062Y-103279819D01*
X140285066Y-103286824D01*
X140274757Y-103293065D01*
X140264135Y-103298542D01*
X140253199Y-103303254D01*
X140241950Y-103307203D01*
X140230387Y-103310387D01*
X140218511Y-103312807D01*
X140206322Y-103314463D01*
X140193819Y-103315354D01*
X140185309Y-103315524D01*
X140102022Y-103315524D01*
X140089399Y-103315121D01*
X140076989Y-103313910D01*
X140064795Y-103311892D01*
X140052815Y-103309067D01*
X140041050Y-103305435D01*
X140029500Y-103300996D01*
X140018164Y-103295749D01*
X140007043Y-103289696D01*
X139996136Y-103282835D01*
X139985444Y-103275167D01*
X139978436Y-103269607D01*
X139938624Y-103237367D01*
X139938624Y-103508232D01*
X139937841Y-103518353D01*
X139935028Y-103529062D01*
X139930170Y-103538854D01*
X139924241Y-103546672D01*
X139922260Y-103548776D01*
X139914666Y-103555343D01*
X139905187Y-103560873D01*
X139894852Y-103564296D01*
X139885108Y-103565563D01*
X139882204Y-103565629D01*
X139872036Y-103564823D01*
X139862476Y-103562403D01*
X139853523Y-103558371D01*
X139845178Y-103552726D01*
X139840683Y-103548776D01*
X139833830Y-103541159D01*
X139828661Y-103532841D01*
X139824814Y-103522476D01*
X139823252Y-103512655D01*
X139823097Y-103508232D01*
X139823097Y-103040995D01*
X139938624Y-103040995D01*
X139939208Y-103053054D01*
X139940961Y-103064194D01*
X139943883Y-103074415D01*
X139947974Y-103083719D01*
X139953233Y-103092104D01*
X139959661Y-103099571D01*
X139962560Y-103102300D01*
X140056838Y-103187785D01*
X140065543Y-103194923D01*
X140075417Y-103200307D01*
X140084811Y-103203527D01*
X140095063Y-103205459D01*
X140106175Y-103206103D01*
X140186530Y-103206103D01*
X140197410Y-103205204D01*
X140207822Y-103202504D01*
X140217766Y-103198004D01*
X140227243Y-103191705D01*
X140232448Y-103187297D01*
X140269573Y-103154568D01*
X140277091Y-103146419D01*
X140282763Y-103137358D01*
X140286588Y-103127385D01*
X140288567Y-103116501D01*
X140288868Y-103109872D01*
X140288868Y-102861233D01*
X140287781Y-102850781D01*
X140284521Y-102840796D01*
X140279086Y-102831279D01*
X140272697Y-102823494D01*
X140266154Y-102817269D01*
X140228540Y-102784540D01*
X140220551Y-102778259D01*
X140211220Y-102772970D01*
X140201676Y-102769695D01*
X140191917Y-102768436D01*
X140190683Y-102768420D01*
X140096649Y-102768420D01*
X140086940Y-102769840D01*
X140077744Y-102773411D01*
X140067893Y-102779156D01*
X140058929Y-102785811D01*
X140052685Y-102791135D01*
X139961339Y-102872224D01*
X139953619Y-102880432D01*
X139947497Y-102889122D01*
X139942972Y-102898293D01*
X139940044Y-102907944D01*
X139938713Y-102918076D01*
X139938624Y-102921561D01*
X139938624Y-103040995D01*
X139823097Y-103040995D01*
X139823097Y-102716397D01*
X139823927Y-102706264D01*
X139826416Y-102696808D01*
X139831294Y-102686833D01*
X139837339Y-102678830D01*
X139840438Y-102675608D01*
X139848222Y-102669137D01*
X139857862Y-102663687D01*
X139868296Y-102660313D01*
X139878077Y-102659064D01*
X139880983Y-102659000D01*
X139891389Y-102659759D01*
X139901025Y-102662038D01*
X139911092Y-102666503D01*
X139920152Y-102672953D01*
X139922260Y-102674875D01*
X139929419Y-102683225D01*
X139934533Y-102692400D01*
X139937601Y-102702398D01*
X139938624Y-102713221D01*
X139938624Y-102737157D01*
X139949145Y-102727693D01*
X139959579Y-102718839D01*
X139969928Y-102710596D01*
X139980191Y-102702963D01*
X139990368Y-102695941D01*
X140000459Y-102689530D01*
X140010465Y-102683729D01*
X140020384Y-102678539D01*
X140030218Y-102673959D01*
X140039966Y-102669990D01*
X140049628Y-102666632D01*
X140059204Y-102663884D01*
X140073407Y-102660908D01*
X140087417Y-102659305D01*
X140096649Y-102659000D01*
X140194835Y-102659000D01*
X140205917Y-102659442D01*
G37*
G36*
X139360837Y-102659442D02*
G01*
X139371920Y-102660768D01*
X139383002Y-102662979D01*
X139394085Y-102666075D01*
X139405167Y-102670055D01*
X139416250Y-102674919D01*
X139427332Y-102680668D01*
X139438415Y-102687301D01*
X139449497Y-102694819D01*
X139460580Y-102703221D01*
X139467968Y-102709314D01*
X139516084Y-102749369D01*
X139523173Y-102757213D01*
X139529138Y-102765537D01*
X139535000Y-102775337D01*
X139539806Y-102784632D01*
X139544541Y-102794953D01*
X139547347Y-102801637D01*
X139551569Y-102812967D01*
X139555075Y-102824058D01*
X139557866Y-102834911D01*
X139559941Y-102845525D01*
X139561300Y-102855900D01*
X139561944Y-102866037D01*
X139562002Y-102870025D01*
X139562002Y-103102300D01*
X139561602Y-103114370D01*
X139560403Y-103126310D01*
X139558406Y-103138117D01*
X139555609Y-103149794D01*
X139552014Y-103161340D01*
X139548562Y-103170481D01*
X139545637Y-103177283D01*
X139541401Y-103186098D01*
X139535870Y-103196324D01*
X139530076Y-103205667D01*
X139524020Y-103214127D01*
X139517702Y-103221704D01*
X139509774Y-103229633D01*
X139507047Y-103231993D01*
X139459664Y-103272049D01*
X139449982Y-103279819D01*
X139439986Y-103286824D01*
X139429677Y-103293065D01*
X139419055Y-103298542D01*
X139408119Y-103303254D01*
X139396870Y-103307203D01*
X139385307Y-103310387D01*
X139373431Y-103312807D01*
X139361241Y-103314463D01*
X139348738Y-103315354D01*
X139340229Y-103315524D01*
X139256942Y-103315524D01*
X139244318Y-103315121D01*
X139231909Y-103313910D01*
X139219715Y-103311892D01*
X139207735Y-103309067D01*
X139195970Y-103305435D01*
X139184419Y-103300996D01*
X139173083Y-103295749D01*
X139161962Y-103289696D01*
X139151056Y-103282835D01*
X139140364Y-103275167D01*
X139133355Y-103269607D01*
X139093544Y-103237367D01*
X139093544Y-103508232D01*
X139092761Y-103518353D01*
X139089948Y-103529062D01*
X139085090Y-103538854D01*
X139079161Y-103546672D01*
X139077179Y-103548776D01*
X139069586Y-103555343D01*
X139060106Y-103560873D01*
X139049772Y-103564296D01*
X139040028Y-103565563D01*
X139037124Y-103565629D01*
X139026956Y-103564823D01*
X139017395Y-103562403D01*
X139008443Y-103558371D01*
X139000098Y-103552726D01*
X138995602Y-103548776D01*
X138988750Y-103541159D01*
X138983581Y-103532841D01*
X138979734Y-103522476D01*
X138978171Y-103512655D01*
X138978017Y-103508232D01*
X138978017Y-103040995D01*
X139093544Y-103040995D01*
X139094128Y-103053054D01*
X139095881Y-103064194D01*
X139098803Y-103074415D01*
X139102894Y-103083719D01*
X139108153Y-103092104D01*
X139114581Y-103099571D01*
X139117480Y-103102300D01*
X139211757Y-103187785D01*
X139220463Y-103194923D01*
X139230337Y-103200307D01*
X139239731Y-103203527D01*
X139249983Y-103205459D01*
X139261094Y-103206103D01*
X139341450Y-103206103D01*
X139352330Y-103205204D01*
X139362741Y-103202504D01*
X139372686Y-103198004D01*
X139382162Y-103191705D01*
X139387368Y-103187297D01*
X139424493Y-103154568D01*
X139432011Y-103146419D01*
X139437683Y-103137358D01*
X139441508Y-103127385D01*
X139443487Y-103116501D01*
X139443788Y-103109872D01*
X139443788Y-102861233D01*
X139442701Y-102850781D01*
X139439440Y-102840796D01*
X139434006Y-102831279D01*
X139427617Y-102823494D01*
X139421073Y-102817269D01*
X139383460Y-102784540D01*
X139375471Y-102778259D01*
X139366140Y-102772970D01*
X139356595Y-102769695D01*
X139346837Y-102768436D01*
X139345602Y-102768420D01*
X139251569Y-102768420D01*
X139241860Y-102769840D01*
X139232664Y-102773411D01*
X139222813Y-102779156D01*
X139213849Y-102785811D01*
X139207605Y-102791135D01*
X139116258Y-102872224D01*
X139108539Y-102880432D01*
X139102417Y-102889122D01*
X139097891Y-102898293D01*
X139094963Y-102907944D01*
X139093632Y-102918076D01*
X139093544Y-102921561D01*
X139093544Y-103040995D01*
X138978017Y-103040995D01*
X138978017Y-102716397D01*
X138978847Y-102706264D01*
X138981336Y-102696808D01*
X138986213Y-102686833D01*
X138992259Y-102678830D01*
X138995358Y-102675608D01*
X139003142Y-102669137D01*
X139012782Y-102663687D01*
X139023216Y-102660313D01*
X139032996Y-102659064D01*
X139035902Y-102659000D01*
X139046309Y-102659759D01*
X139055945Y-102662038D01*
X139066012Y-102666503D01*
X139075072Y-102672953D01*
X139077179Y-102674875D01*
X139084339Y-102683225D01*
X139089453Y-102692400D01*
X139092521Y-102702398D01*
X139093544Y-102713221D01*
X139093544Y-102737157D01*
X139104064Y-102727693D01*
X139114499Y-102718839D01*
X139124848Y-102710596D01*
X139135111Y-102702963D01*
X139145288Y-102695941D01*
X139155379Y-102689530D01*
X139165385Y-102683729D01*
X139175304Y-102678539D01*
X139185138Y-102673959D01*
X139194885Y-102669990D01*
X139204547Y-102666632D01*
X139214123Y-102663884D01*
X139228326Y-102660908D01*
X139242336Y-102659305D01*
X139251569Y-102659000D01*
X139349755Y-102659000D01*
X139360837Y-102659442D01*
G37*
G36*
X138246998Y-102659000D02*
G01*
X138596021Y-102659000D01*
X138606154Y-102659783D01*
X138616905Y-102662595D01*
X138626770Y-102667453D01*
X138634675Y-102673382D01*
X138636810Y-102675364D01*
X138643376Y-102682827D01*
X138648906Y-102692101D01*
X138652329Y-102702168D01*
X138653646Y-102713029D01*
X138653662Y-102714443D01*
X138652609Y-102724960D01*
X138649449Y-102734776D01*
X138644183Y-102743889D01*
X138636810Y-102752300D01*
X138629098Y-102758581D01*
X138619454Y-102763871D01*
X138608925Y-102767145D01*
X138598985Y-102768357D01*
X138596021Y-102768420D01*
X138480494Y-102768420D01*
X138480494Y-103456208D01*
X138597487Y-103456208D01*
X138607620Y-103456968D01*
X138618370Y-103459696D01*
X138628235Y-103464410D01*
X138636141Y-103470161D01*
X138638275Y-103472084D01*
X138644842Y-103479452D01*
X138650372Y-103488645D01*
X138653795Y-103498663D01*
X138655111Y-103509505D01*
X138655128Y-103510919D01*
X138654075Y-103521848D01*
X138650915Y-103531923D01*
X138645648Y-103541144D01*
X138638275Y-103549509D01*
X138630563Y-103555790D01*
X138620919Y-103561079D01*
X138610390Y-103564354D01*
X138600451Y-103565566D01*
X138597487Y-103565629D01*
X138421387Y-103565629D01*
X138411528Y-103564799D01*
X138400976Y-103561819D01*
X138391187Y-103556670D01*
X138383248Y-103550388D01*
X138381087Y-103548288D01*
X138374330Y-103540504D01*
X138369233Y-103532112D01*
X138365440Y-103521778D01*
X138363899Y-103512084D01*
X138363746Y-103507743D01*
X138363746Y-102768420D01*
X138246998Y-102768420D01*
X138237139Y-102767649D01*
X138226587Y-102764878D01*
X138216798Y-102760093D01*
X138208859Y-102754252D01*
X138206698Y-102752300D01*
X138199941Y-102744979D01*
X138194251Y-102735953D01*
X138190728Y-102726226D01*
X138189374Y-102715796D01*
X138189357Y-102714443D01*
X138190410Y-102703482D01*
X138193570Y-102693316D01*
X138198836Y-102683943D01*
X138205173Y-102676393D01*
X138206209Y-102675364D01*
X138213922Y-102668987D01*
X138223565Y-102663618D01*
X138234094Y-102660294D01*
X138244034Y-102659063D01*
X138246998Y-102659000D01*
G37*
G36*
X137659828Y-102659437D02*
G01*
X137669556Y-102660471D01*
X137679439Y-102662114D01*
X137689477Y-102664364D01*
X137699670Y-102667223D01*
X137710018Y-102670690D01*
X137712106Y-102671456D01*
X137722057Y-102675449D01*
X137731150Y-102679489D01*
X137740927Y-102684401D01*
X137749468Y-102689381D01*
X137757869Y-102695278D01*
X137760955Y-102697834D01*
X137812490Y-102742775D01*
X137821274Y-102750443D01*
X137828161Y-102757633D01*
X137834655Y-102765550D01*
X137840755Y-102774196D01*
X137846462Y-102783568D01*
X137851775Y-102793668D01*
X137852790Y-102795775D01*
X137857434Y-102806254D01*
X137861291Y-102816469D01*
X137864361Y-102826423D01*
X137866643Y-102836114D01*
X137868343Y-102847397D01*
X137868910Y-102858302D01*
X137868910Y-103120374D01*
X137868080Y-103130858D01*
X137866048Y-103141053D01*
X137862797Y-103152365D01*
X137859156Y-103162644D01*
X137854668Y-103173698D01*
X137851569Y-103180702D01*
X137847027Y-103189964D01*
X137842196Y-103198700D01*
X137835749Y-103208879D01*
X137828849Y-103218235D01*
X137821495Y-103226768D01*
X137813688Y-103234478D01*
X137807117Y-103240053D01*
X137759001Y-103277422D01*
X137750026Y-103284232D01*
X137740872Y-103290371D01*
X137731536Y-103295841D01*
X137722021Y-103300641D01*
X137712325Y-103304771D01*
X137702449Y-103308231D01*
X137692393Y-103311022D01*
X137682156Y-103313143D01*
X137671739Y-103314594D01*
X137661142Y-103315375D01*
X137653976Y-103315524D01*
X137491799Y-103315524D01*
X137480408Y-103315086D01*
X137469133Y-103313773D01*
X137457974Y-103311583D01*
X137446931Y-103308518D01*
X137436004Y-103304576D01*
X137425192Y-103299759D01*
X137414497Y-103294066D01*
X137403918Y-103287497D01*
X137393454Y-103280053D01*
X137383106Y-103271732D01*
X137376272Y-103265699D01*
X137333041Y-103225154D01*
X137324704Y-103217104D01*
X137317187Y-103208342D01*
X137310491Y-103198866D01*
X137304614Y-103188678D01*
X137299557Y-103177778D01*
X137295320Y-103166164D01*
X137291903Y-103153838D01*
X137289307Y-103140799D01*
X137287530Y-103127048D01*
X137286573Y-103112583D01*
X137286391Y-103102545D01*
X137286391Y-103018525D01*
X137400452Y-103018525D01*
X137400452Y-103102056D01*
X137400941Y-103112131D01*
X137402819Y-103123214D01*
X137406105Y-103133197D01*
X137410799Y-103142081D01*
X137416901Y-103149867D01*
X137420480Y-103153347D01*
X137453942Y-103183877D01*
X137461977Y-103190280D01*
X137471274Y-103196531D01*
X137480192Y-103201220D01*
X137490120Y-103204714D01*
X137500836Y-103206103D01*
X137645916Y-103206103D01*
X137655737Y-103205425D01*
X137666781Y-103202919D01*
X137675895Y-103199301D01*
X137684682Y-103194327D01*
X137693142Y-103187995D01*
X137694521Y-103186808D01*
X137728226Y-103157499D01*
X137735946Y-103150444D01*
X137742068Y-103142650D01*
X137747192Y-103132624D01*
X137750142Y-103121593D01*
X137750941Y-103111337D01*
X137750941Y-103018525D01*
X137400452Y-103018525D01*
X137286391Y-103018525D01*
X137286391Y-102965769D01*
X137287221Y-102956016D01*
X137290201Y-102945586D01*
X137295349Y-102935920D01*
X137301632Y-102928087D01*
X137303732Y-102925957D01*
X137311504Y-102919390D01*
X137321102Y-102913860D01*
X137331464Y-102910437D01*
X137341156Y-102909170D01*
X137344032Y-102909104D01*
X137752162Y-102909104D01*
X137752162Y-102873689D01*
X137751269Y-102862300D01*
X137748590Y-102851581D01*
X137744125Y-102841532D01*
X137737874Y-102832152D01*
X137731300Y-102824848D01*
X137726761Y-102820688D01*
X137693055Y-102790891D01*
X137684566Y-102784417D01*
X137676197Y-102779041D01*
X137666311Y-102774038D01*
X137656596Y-102770615D01*
X137645480Y-102768618D01*
X137640787Y-102768420D01*
X137344032Y-102768420D01*
X137334173Y-102767649D01*
X137323621Y-102764878D01*
X137313832Y-102760093D01*
X137305893Y-102754252D01*
X137303732Y-102752300D01*
X137296975Y-102745027D01*
X137291285Y-102735914D01*
X137287763Y-102725946D01*
X137286408Y-102715123D01*
X137286391Y-102713710D01*
X137287490Y-102702963D01*
X137290787Y-102692949D01*
X137296283Y-102683668D01*
X137302894Y-102676148D01*
X137303976Y-102675120D01*
X137311820Y-102668838D01*
X137321414Y-102663549D01*
X137331680Y-102660275D01*
X137342618Y-102659015D01*
X137344032Y-102659000D01*
X137648359Y-102659000D01*
X137659828Y-102659437D01*
G37*
%TO.C,G\u002A\u002A\u002A*%
G36*
X129619381Y-115974311D02*
G01*
X129617288Y-115994290D01*
X129613672Y-116003394D01*
X129608432Y-116002007D01*
X129605405Y-115997885D01*
X129597612Y-115993922D01*
X129583409Y-115992047D01*
X129581616Y-115992024D01*
X129561450Y-115992024D01*
X129561450Y-116166085D01*
X129561350Y-116217644D01*
X129561025Y-116258418D01*
X129560618Y-116279731D01*
X129560434Y-116289345D01*
X129559538Y-116311362D01*
X129558299Y-116325403D01*
X129556676Y-116332406D01*
X129554630Y-116333306D01*
X129554417Y-116333114D01*
X129544373Y-116328617D01*
X129528214Y-116326231D01*
X129523649Y-116326112D01*
X129510789Y-116327240D01*
X129498143Y-116331504D01*
X129482996Y-116340282D01*
X129462634Y-116354951D01*
X129454364Y-116361276D01*
X129433628Y-116376395D01*
X129415206Y-116388250D01*
X129401723Y-116395230D01*
X129397223Y-116396408D01*
X129390178Y-116398043D01*
X129386718Y-116404879D01*
X129385659Y-116419818D01*
X129385631Y-116424803D01*
X129382583Y-116449189D01*
X129372790Y-116464450D01*
X129355281Y-116471666D01*
X129342496Y-116472597D01*
X129325563Y-116474792D01*
X129317516Y-116481943D01*
X129317159Y-116482853D01*
X129305414Y-116502431D01*
X129287364Y-116512170D01*
X129274836Y-116513435D01*
X129252375Y-116509550D01*
X129236342Y-116497119D01*
X129229733Y-116487113D01*
X129218166Y-116477383D01*
X129203360Y-116473604D01*
X129181954Y-116468338D01*
X129169094Y-116456520D01*
X129163458Y-116436554D01*
X129162927Y-116424803D01*
X129161914Y-116406653D01*
X129158445Y-116397975D01*
X129154202Y-116396408D01*
X129145995Y-116393168D01*
X129130796Y-116384426D01*
X129111036Y-116371652D01*
X129096000Y-116361245D01*
X129065427Y-116341158D01*
X129041610Y-116329445D01*
X129023463Y-116325765D01*
X129009899Y-116329781D01*
X129005862Y-116333114D01*
X129003774Y-116332731D01*
X129002114Y-116326334D01*
X129000840Y-116312984D01*
X128999915Y-116291747D01*
X128999668Y-116279731D01*
X129057435Y-116279731D01*
X129069294Y-116279196D01*
X129174648Y-116279196D01*
X129215672Y-116279196D01*
X129256697Y-116279196D01*
X129291861Y-116279196D01*
X129332885Y-116279196D01*
X129373910Y-116279196D01*
X129373910Y-116123889D01*
X129373910Y-115968582D01*
X129408879Y-115968582D01*
X129410441Y-116122424D01*
X129412004Y-116276265D01*
X129451563Y-116277998D01*
X129478910Y-116279196D01*
X129491122Y-116279731D01*
X129491122Y-116124157D01*
X129491122Y-115968582D01*
X129450001Y-115968582D01*
X129408879Y-115968582D01*
X129373910Y-115968582D01*
X129332885Y-115968582D01*
X129291861Y-115968582D01*
X129291861Y-116123889D01*
X129291861Y-116279196D01*
X129256697Y-116279196D01*
X129256697Y-116123889D01*
X129256697Y-115968582D01*
X129215672Y-115968582D01*
X129174648Y-115968582D01*
X129174648Y-116123889D01*
X129174648Y-116279196D01*
X129069294Y-116279196D01*
X129095848Y-116277998D01*
X129134261Y-116276265D01*
X129135407Y-116122423D01*
X129136554Y-115968581D01*
X129096994Y-115968582D01*
X129057435Y-115968582D01*
X129057435Y-116124157D01*
X129057435Y-116279731D01*
X128999668Y-116279731D01*
X128999297Y-116261685D01*
X128998949Y-116221862D01*
X128998830Y-116171343D01*
X128998829Y-116166085D01*
X128998829Y-115992024D01*
X128978662Y-115992024D01*
X128964065Y-115993577D01*
X128955272Y-115997368D01*
X128954874Y-115997885D01*
X128946394Y-116003278D01*
X128942807Y-116003746D01*
X128938951Y-116001604D01*
X128936403Y-115993975D01*
X128934914Y-115979056D01*
X128934237Y-115955043D01*
X128934130Y-115940744D01*
X128933899Y-115877742D01*
X128824374Y-115812010D01*
X128788395Y-115790492D01*
X128761033Y-115774421D01*
X128740896Y-115763152D01*
X128726588Y-115756038D01*
X128716717Y-115752430D01*
X128709888Y-115751683D01*
X128704706Y-115753150D01*
X128701532Y-115755004D01*
X128688215Y-115763730D01*
X128688215Y-115699128D01*
X128687756Y-115673107D01*
X128686512Y-115652127D01*
X128684677Y-115638529D01*
X128682798Y-115634526D01*
X128676302Y-115631575D01*
X128662237Y-115623657D01*
X128642871Y-115612171D01*
X128620476Y-115598516D01*
X128597322Y-115584093D01*
X128575679Y-115570301D01*
X128557819Y-115558539D01*
X128546012Y-115550208D01*
X128545973Y-115550178D01*
X128541165Y-115545597D01*
X128539407Y-115539694D01*
X128541023Y-115529898D01*
X128546335Y-115513642D01*
X128552791Y-115496066D01*
X128562719Y-115470145D01*
X128573005Y-115444448D01*
X128581612Y-115424051D01*
X128582490Y-115422078D01*
X128594993Y-115394239D01*
X129285407Y-115394239D01*
X129975820Y-115394239D01*
X129993919Y-115433799D01*
X130004323Y-115457270D01*
X130013918Y-115480152D01*
X130020370Y-115496801D01*
X130026476Y-115513669D01*
X130031377Y-115526749D01*
X130032277Y-115529034D01*
X130030740Y-115534365D01*
X130022258Y-115542704D01*
X130005941Y-115554718D01*
X129980897Y-115571076D01*
X129954140Y-115587641D01*
X129872448Y-115637456D01*
X129872256Y-115700458D01*
X129871906Y-115726044D01*
X129871107Y-115746632D01*
X129869985Y-115759830D01*
X129868927Y-115763460D01*
X129862198Y-115760595D01*
X129852810Y-115754978D01*
X129848030Y-115752543D01*
X129842388Y-115751959D01*
X129834516Y-115753889D01*
X129823046Y-115758995D01*
X129806608Y-115767940D01*
X129783833Y-115781386D01*
X129753354Y-115799996D01*
X129729943Y-115814445D01*
X129620056Y-115882394D01*
X129620056Y-115943070D01*
X129619505Y-115968581D01*
X129619381Y-115974311D01*
G37*
%TD*%
M02*
