M48
; DRILL file {KiCad 7.0.8} date Sun Jan  7 14:56:35 2024
; FORMAT={-:-/ absolute / metric / decimal}
; #@! TF.CreationDate,2024-01-07T14:56:35-05:00
; #@! TF.GenerationSoftware,Kicad,Pcbnew,7.0.8
; #@! TF.FileFunction,Plated,1,2,PTH
FMAT,2
METRIC
; #@! TA.AperFunction,Plated,PTH,ViaDrill
T1C0.310
; #@! TA.AperFunction,Plated,PTH,ViaDrill
T2C0.400
; #@! TA.AperFunction,Plated,PTH,ViaDrill
T3C0.410
%
G90
G05
T1
X123.026Y-110.744
X123.546Y-100.965
X125.055Y-106.68
X125.222Y-114.509
X126.873Y-104.775
X127.127Y-110.109
X127.127Y-111.76
X127.889Y-107.95
X128.945Y-102.87
X129.032Y-106.807
X130.81Y-106.68
X130.81Y-108.204
X132.207Y-112.395
X132.461Y-106.68
X133.35Y-111.252
X134.112Y-106.68
X134.493Y-112.395
X136.246Y-100.965
X136.652Y-110.109
X136.652Y-112.649
X137.541Y-111.379
X137.795Y-99.06
X137.795Y-106.934
X139.192Y-105.421
X140.208Y-103.621
X141.097Y-114.3
X141.097Y-115.316
X141.605Y-106.934
X142.875Y-112.141
X143.383Y-116.078
X143.891Y-114.046
X144.018Y-109.22
X144.018Y-110.236
X144.399Y-112.395
X145.161Y-111.76
X145.288Y-106.553
X145.288Y-107.569
X146.05Y-114.935
X146.812Y-106.553
X146.812Y-107.569
X147.193Y-113.919
X148.082Y-110.109
X148.082Y-111.058
X148.082Y-116.078
X148.311Y-100.965
X149.581Y-106.604
X149.987Y-99.06
X150.876Y-109.093
X150.876Y-111.424
X151.384Y-105.41
X151.384Y-115.951
X151.445Y-113.817
X151.765Y-104.521
X152.273Y-103.621
X152.273Y-106.553
X152.527Y-113.157
X152.527Y-114.173
X153.416Y-112.776
X153.924Y-108.204
X153.962Y-111.474
X156.21Y-112.522
X157.785Y-112.878
X158.198Y-113.743
X159.09Y-106.02
X159.131Y-108.712
X159.258Y-117.221
X159.36Y-113.234
X164.084Y-116.586
T2
X118.618Y-105.918
T3
X122.428Y-116.77
X125.222Y-116.77
X125.325Y-111.252
T0
M30
