%TF.GenerationSoftware,KiCad,Pcbnew,7.0.8*%
%TF.CreationDate,2024-01-07T14:56:32-05:00*%
%TF.ProjectId,lineFollowerArray,6c696e65-466f-46c6-9c6f-776572417272,01*%
%TF.SameCoordinates,Original*%
%TF.FileFunction,Legend,Bot*%
%TF.FilePolarity,Positive*%
%FSLAX46Y46*%
G04 Gerber Fmt 4.6, Leading zero omitted, Abs format (unit mm)*
G04 Created by KiCad (PCBNEW 7.0.8) date 2024-01-07 14:56:32*
%MOMM*%
%LPD*%
G01*
G04 APERTURE LIST*
%ADD10C,0.150000*%
%ADD11C,0.120000*%
%ADD12C,0.250000*%
G04 APERTURE END LIST*
D10*
G36*
X128856106Y-97706000D02*
G01*
X128856106Y-98555232D01*
X128856924Y-98565091D01*
X128859863Y-98575643D01*
X128864938Y-98585432D01*
X128871132Y-98593371D01*
X128873203Y-98595532D01*
X128881070Y-98602194D01*
X128889498Y-98607219D01*
X128899818Y-98610959D01*
X128910870Y-98612562D01*
X128913747Y-98612629D01*
X128923701Y-98611799D01*
X128934334Y-98608819D01*
X128944172Y-98603670D01*
X128952130Y-98597388D01*
X128954291Y-98595288D01*
X128961048Y-98587516D01*
X128966146Y-98579159D01*
X128969939Y-98568893D01*
X128971565Y-98557864D01*
X128971633Y-98554988D01*
X128971633Y-97815420D01*
X129379518Y-97815420D01*
X129389770Y-97814649D01*
X129399367Y-97812335D01*
X129409533Y-97807801D01*
X129417728Y-97802181D01*
X129421040Y-97799300D01*
X129427892Y-97792027D01*
X129433662Y-97782914D01*
X129437234Y-97772946D01*
X129438608Y-97762123D01*
X129438625Y-97760710D01*
X129437526Y-97749765D01*
X129434229Y-97739644D01*
X129428733Y-97730347D01*
X129422121Y-97722889D01*
X129421040Y-97721875D01*
X129413126Y-97715689D01*
X129403279Y-97710480D01*
X129392579Y-97707255D01*
X129382514Y-97706062D01*
X129379518Y-97706000D01*
X128856106Y-97706000D01*
G37*
G36*
X129931996Y-98675155D02*
G01*
X129992568Y-98675155D01*
X130002701Y-98674314D01*
X130012156Y-98671789D01*
X130022132Y-98666843D01*
X130030134Y-98660712D01*
X130033356Y-98657570D01*
X130039923Y-98649632D01*
X130044877Y-98640994D01*
X130048218Y-98631654D01*
X130049946Y-98621613D01*
X130050209Y-98615560D01*
X130050209Y-98564269D01*
X130049403Y-98553697D01*
X130046983Y-98543779D01*
X130042951Y-98534516D01*
X130037306Y-98525907D01*
X130033356Y-98521282D01*
X130025644Y-98514240D01*
X130017254Y-98508927D01*
X130006836Y-98504973D01*
X129996994Y-98503367D01*
X129992568Y-98503208D01*
X129930530Y-98503208D01*
X129920112Y-98504085D01*
X129910441Y-98506714D01*
X129901519Y-98511097D01*
X129893344Y-98517233D01*
X129889009Y-98521526D01*
X129882561Y-98529846D01*
X129877749Y-98538563D01*
X129874253Y-98549012D01*
X129872895Y-98559980D01*
X129872889Y-98562803D01*
X129874354Y-98615560D01*
X129875161Y-98626002D01*
X129877580Y-98635742D01*
X129881612Y-98644782D01*
X129887257Y-98653120D01*
X129891207Y-98657570D01*
X129898919Y-98664422D01*
X129907309Y-98669591D01*
X129917727Y-98673438D01*
X129927570Y-98675001D01*
X129931996Y-98675155D01*
G37*
G36*
X130166957Y-97706000D02*
G01*
X129815247Y-97706000D01*
X129805115Y-97706759D01*
X129794364Y-97709488D01*
X129784499Y-97714201D01*
X129776593Y-97719953D01*
X129774459Y-97721875D01*
X129767892Y-97729243D01*
X129762362Y-97738437D01*
X129758939Y-97748455D01*
X129757623Y-97759297D01*
X129757606Y-97760710D01*
X129758659Y-97771441D01*
X129761819Y-97781409D01*
X129767086Y-97790614D01*
X129774459Y-97799056D01*
X129782171Y-97805432D01*
X129791815Y-97810802D01*
X129802344Y-97814126D01*
X129812283Y-97815356D01*
X129815247Y-97815420D01*
X129933461Y-97815420D01*
X129933461Y-98253103D01*
X129816469Y-98253103D01*
X129806336Y-98253875D01*
X129795585Y-98256645D01*
X129785720Y-98261431D01*
X129777814Y-98267271D01*
X129775680Y-98269224D01*
X129769114Y-98276545D01*
X129763584Y-98285570D01*
X129760160Y-98295298D01*
X129758844Y-98305728D01*
X129758827Y-98307081D01*
X129759881Y-98318042D01*
X129763041Y-98328208D01*
X129768307Y-98337581D01*
X129774643Y-98345131D01*
X129775680Y-98346160D01*
X129783392Y-98352536D01*
X129793036Y-98357906D01*
X129803565Y-98361230D01*
X129813504Y-98362460D01*
X129816469Y-98362524D01*
X129992568Y-98362524D01*
X130002701Y-98361683D01*
X130012156Y-98359158D01*
X130022132Y-98354212D01*
X130030134Y-98348082D01*
X130033356Y-98344939D01*
X130039923Y-98337025D01*
X130044877Y-98328456D01*
X130048218Y-98319233D01*
X130049946Y-98309356D01*
X130050209Y-98303418D01*
X130050209Y-97815420D01*
X130165492Y-97815420D01*
X130175743Y-97814649D01*
X130185340Y-97812335D01*
X130195507Y-97807801D01*
X130203701Y-97802181D01*
X130207013Y-97799300D01*
X130213865Y-97792027D01*
X130219635Y-97782914D01*
X130223207Y-97772946D01*
X130224581Y-97762123D01*
X130224599Y-97760710D01*
X130223515Y-97749765D01*
X130220263Y-97739644D01*
X130214844Y-97730347D01*
X130208324Y-97722889D01*
X130207257Y-97721875D01*
X130199485Y-97715689D01*
X130189887Y-97710480D01*
X130179526Y-97707255D01*
X130168401Y-97706015D01*
X130166957Y-97706000D01*
G37*
G36*
X130819086Y-98237716D02*
G01*
X130661793Y-98159314D01*
X130661793Y-97767304D01*
X130660963Y-97756721D01*
X130658474Y-97746768D01*
X130654325Y-97737446D01*
X130648516Y-97728756D01*
X130644452Y-97724073D01*
X130636668Y-97717031D01*
X130628277Y-97711718D01*
X130617942Y-97707765D01*
X130608248Y-97706158D01*
X130603908Y-97706000D01*
X130594037Y-97706806D01*
X130583443Y-97709702D01*
X130573581Y-97714706D01*
X130565554Y-97720811D01*
X130563363Y-97722852D01*
X130556702Y-97730613D01*
X130551092Y-97740169D01*
X130547619Y-97750457D01*
X130546283Y-97761479D01*
X130546266Y-97762908D01*
X130546266Y-98304150D01*
X130547073Y-98314211D01*
X130549969Y-98324966D01*
X130554972Y-98334926D01*
X130561078Y-98342991D01*
X130563119Y-98345183D01*
X130570831Y-98351940D01*
X130579221Y-98357037D01*
X130589639Y-98360831D01*
X130599482Y-98362372D01*
X130603908Y-98362524D01*
X130613862Y-98361718D01*
X130624494Y-98358821D01*
X130634333Y-98353818D01*
X130642290Y-98347712D01*
X130644452Y-98345672D01*
X130651209Y-98337995D01*
X130656899Y-98328477D01*
X130660421Y-98318165D01*
X130661776Y-98307060D01*
X130661793Y-98305616D01*
X130661793Y-98268735D01*
X130766818Y-98330040D01*
X130776873Y-98335845D01*
X130787165Y-98341080D01*
X130797693Y-98345743D01*
X130808457Y-98349835D01*
X130819457Y-98353356D01*
X130830694Y-98356307D01*
X130842166Y-98358686D01*
X130853875Y-98360494D01*
X130865820Y-98361731D01*
X130878001Y-98362397D01*
X130886252Y-98362524D01*
X130939986Y-98362524D01*
X130952691Y-98362099D01*
X130965070Y-98360824D01*
X130977123Y-98358699D01*
X130988850Y-98355724D01*
X131000250Y-98351898D01*
X131011324Y-98347223D01*
X131022071Y-98341697D01*
X131032493Y-98335322D01*
X131042588Y-98328096D01*
X131052357Y-98320020D01*
X131058688Y-98314164D01*
X131067703Y-98304945D01*
X131075881Y-98295331D01*
X131083222Y-98285322D01*
X131089726Y-98274917D01*
X131095392Y-98264118D01*
X131100222Y-98252924D01*
X131104214Y-98241335D01*
X131107368Y-98229351D01*
X131109686Y-98216972D01*
X131111167Y-98204198D01*
X131111689Y-98195462D01*
X131127564Y-97762908D01*
X131126937Y-97753144D01*
X131124158Y-97742672D01*
X131119182Y-97732933D01*
X131113024Y-97725012D01*
X131110956Y-97722852D01*
X131103137Y-97716286D01*
X131094640Y-97711332D01*
X131084100Y-97707645D01*
X131074150Y-97706148D01*
X131069679Y-97706000D01*
X131058764Y-97706961D01*
X131048491Y-97709846D01*
X131038858Y-97714655D01*
X131030956Y-97720440D01*
X131029867Y-97721387D01*
X131023170Y-97728656D01*
X131018040Y-97737001D01*
X131014475Y-97746421D01*
X131012476Y-97756917D01*
X131012037Y-97763397D01*
X130994940Y-98192775D01*
X130994052Y-98203557D01*
X130992121Y-98213278D01*
X130987923Y-98224589D01*
X130981871Y-98234015D01*
X130973963Y-98241556D01*
X130964201Y-98247212D01*
X130952584Y-98250983D01*
X130942655Y-98252573D01*
X130931682Y-98253103D01*
X130875506Y-98253103D01*
X130865559Y-98252563D01*
X130855321Y-98250940D01*
X130844791Y-98248235D01*
X130833969Y-98244448D01*
X130824728Y-98240466D01*
X130819086Y-98237716D01*
G37*
G36*
X131916418Y-97706015D02*
G01*
X131927355Y-97707275D01*
X131937621Y-97710549D01*
X131947215Y-97715838D01*
X131955059Y-97722120D01*
X131956141Y-97723148D01*
X131962753Y-97730668D01*
X131968248Y-97739949D01*
X131971545Y-97749963D01*
X131972645Y-97760710D01*
X131972628Y-97762123D01*
X131971273Y-97772946D01*
X131967750Y-97782914D01*
X131962060Y-97792027D01*
X131955303Y-97799300D01*
X131953142Y-97801252D01*
X131945203Y-97807093D01*
X131935414Y-97811878D01*
X131924862Y-97814649D01*
X131915003Y-97815420D01*
X131618248Y-97815420D01*
X131613556Y-97815618D01*
X131602439Y-97817615D01*
X131592725Y-97821038D01*
X131582839Y-97826041D01*
X131574469Y-97831417D01*
X131565980Y-97837891D01*
X131532275Y-97867688D01*
X131527735Y-97871848D01*
X131521162Y-97879152D01*
X131514911Y-97888532D01*
X131510446Y-97898581D01*
X131507766Y-97909300D01*
X131506873Y-97920689D01*
X131506873Y-97956104D01*
X131915003Y-97956104D01*
X131917880Y-97956170D01*
X131927572Y-97957437D01*
X131937933Y-97960860D01*
X131947531Y-97966390D01*
X131955303Y-97972957D01*
X131957403Y-97975087D01*
X131963686Y-97982920D01*
X131968834Y-97992586D01*
X131971815Y-98003016D01*
X131972645Y-98012769D01*
X131972645Y-98149545D01*
X131972462Y-98159583D01*
X131971506Y-98174048D01*
X131969729Y-98187799D01*
X131967132Y-98200838D01*
X131963715Y-98213164D01*
X131959479Y-98224778D01*
X131954422Y-98235678D01*
X131948545Y-98245866D01*
X131941848Y-98255342D01*
X131934331Y-98264104D01*
X131925994Y-98272154D01*
X131882763Y-98312699D01*
X131875929Y-98318732D01*
X131865582Y-98327053D01*
X131855118Y-98334497D01*
X131844538Y-98341066D01*
X131833843Y-98346759D01*
X131823032Y-98351576D01*
X131812105Y-98355518D01*
X131801061Y-98358583D01*
X131789902Y-98360773D01*
X131778627Y-98362086D01*
X131767236Y-98362524D01*
X131605059Y-98362524D01*
X131597894Y-98362375D01*
X131587297Y-98361594D01*
X131576880Y-98360143D01*
X131566643Y-98358022D01*
X131556586Y-98355231D01*
X131546710Y-98351771D01*
X131537015Y-98347641D01*
X131527499Y-98342841D01*
X131518164Y-98337371D01*
X131509009Y-98331232D01*
X131500035Y-98324422D01*
X131451919Y-98287053D01*
X131445347Y-98281478D01*
X131437540Y-98273768D01*
X131430187Y-98265235D01*
X131423287Y-98255879D01*
X131416839Y-98245700D01*
X131412008Y-98236964D01*
X131407467Y-98227702D01*
X131404368Y-98220698D01*
X131399880Y-98209644D01*
X131396239Y-98199365D01*
X131392987Y-98188053D01*
X131390955Y-98177858D01*
X131390125Y-98167374D01*
X131390125Y-98065525D01*
X131508095Y-98065525D01*
X131508095Y-98158337D01*
X131508893Y-98168593D01*
X131511843Y-98179624D01*
X131516968Y-98189650D01*
X131523090Y-98197444D01*
X131530809Y-98204499D01*
X131564515Y-98233808D01*
X131565893Y-98234995D01*
X131574354Y-98241327D01*
X131583141Y-98246301D01*
X131592254Y-98249919D01*
X131603299Y-98252425D01*
X131613119Y-98253103D01*
X131758199Y-98253103D01*
X131768916Y-98251714D01*
X131778843Y-98248220D01*
X131787762Y-98243531D01*
X131797058Y-98237280D01*
X131805094Y-98230877D01*
X131838555Y-98200347D01*
X131842134Y-98196867D01*
X131848237Y-98189081D01*
X131852931Y-98180197D01*
X131856217Y-98170214D01*
X131858094Y-98159131D01*
X131858583Y-98149056D01*
X131858583Y-98065525D01*
X131508095Y-98065525D01*
X131390125Y-98065525D01*
X131390125Y-97905302D01*
X131390692Y-97894397D01*
X131392392Y-97883114D01*
X131394675Y-97873423D01*
X131397745Y-97863469D01*
X131401601Y-97853254D01*
X131406245Y-97842775D01*
X131407261Y-97840668D01*
X131412574Y-97830568D01*
X131418280Y-97821196D01*
X131424380Y-97812550D01*
X131430874Y-97804633D01*
X131437761Y-97797443D01*
X131446545Y-97789775D01*
X131498081Y-97744834D01*
X131501166Y-97742278D01*
X131509568Y-97736381D01*
X131518109Y-97731401D01*
X131527886Y-97726489D01*
X131536978Y-97722449D01*
X131546929Y-97718456D01*
X131549018Y-97717690D01*
X131559366Y-97714223D01*
X131569559Y-97711364D01*
X131579597Y-97709114D01*
X131589480Y-97707471D01*
X131599208Y-97706437D01*
X131610677Y-97706000D01*
X131915003Y-97706000D01*
X131916418Y-97706015D01*
G37*
G36*
X133081507Y-97763397D02*
G01*
X133081507Y-98612629D01*
X133605164Y-98612629D01*
X133616185Y-98611621D01*
X133626535Y-98608599D01*
X133636213Y-98603561D01*
X133644131Y-98597501D01*
X133645220Y-98596509D01*
X133652072Y-98589188D01*
X133657842Y-98580162D01*
X133661414Y-98570434D01*
X133662788Y-98560004D01*
X133662805Y-98558651D01*
X133661721Y-98547691D01*
X133658470Y-98537524D01*
X133653051Y-98528151D01*
X133646531Y-98520601D01*
X133645464Y-98519572D01*
X133637692Y-98513196D01*
X133628094Y-98507827D01*
X133617732Y-98504503D01*
X133608040Y-98503272D01*
X133605164Y-98503208D01*
X133197034Y-98503208D01*
X133197034Y-98315630D01*
X133489637Y-98315630D01*
X133499770Y-98314858D01*
X133510520Y-98312088D01*
X133520385Y-98307302D01*
X133528291Y-98301462D01*
X133530425Y-98299510D01*
X133536992Y-98292237D01*
X133542522Y-98283123D01*
X133545945Y-98273155D01*
X133547262Y-98262332D01*
X133547278Y-98260919D01*
X133546225Y-98249974D01*
X133543065Y-98239853D01*
X133537799Y-98230557D01*
X133531462Y-98223099D01*
X133530425Y-98222085D01*
X133522713Y-98215899D01*
X133513070Y-98210689D01*
X133502540Y-98207465D01*
X133492601Y-98206271D01*
X133489637Y-98206209D01*
X133197034Y-98206209D01*
X133197034Y-97763885D01*
X133196228Y-97753657D01*
X133193808Y-97744130D01*
X133189068Y-97734101D01*
X133183193Y-97726077D01*
X133180181Y-97722852D01*
X133172458Y-97716286D01*
X133164033Y-97711332D01*
X133153545Y-97707645D01*
X133143618Y-97706148D01*
X133139148Y-97706000D01*
X133129015Y-97706794D01*
X133118265Y-97709649D01*
X133108400Y-97714579D01*
X133100494Y-97720597D01*
X133098360Y-97722608D01*
X133091793Y-97730320D01*
X133086263Y-97739964D01*
X133082840Y-97750493D01*
X133081573Y-97760432D01*
X133081507Y-97763397D01*
G37*
G36*
X134293605Y-97706254D02*
G01*
X134308073Y-97707592D01*
X134322459Y-97710075D01*
X134332005Y-97712368D01*
X134341514Y-97715170D01*
X134350987Y-97718482D01*
X134360424Y-97722303D01*
X134369824Y-97726633D01*
X134379188Y-97731473D01*
X134388516Y-97736823D01*
X134397808Y-97742682D01*
X134407064Y-97749050D01*
X134416283Y-97755928D01*
X134425466Y-97763315D01*
X134434612Y-97771212D01*
X134443485Y-97779439D01*
X134451786Y-97787756D01*
X134459514Y-97796162D01*
X134466669Y-97804658D01*
X134473252Y-97813244D01*
X134479263Y-97821919D01*
X134484701Y-97830685D01*
X134489567Y-97839539D01*
X134493860Y-97848484D01*
X134497581Y-97857518D01*
X134502089Y-97871237D01*
X134505309Y-97885158D01*
X134507241Y-97899281D01*
X134507885Y-97913606D01*
X134507885Y-98154918D01*
X134507241Y-98169502D01*
X134505309Y-98183855D01*
X134502089Y-98197976D01*
X134497581Y-98211865D01*
X134493860Y-98220995D01*
X134489567Y-98230023D01*
X134484701Y-98238947D01*
X134479263Y-98247768D01*
X134473252Y-98256487D01*
X134466669Y-98265102D01*
X134459514Y-98273614D01*
X134451786Y-98282023D01*
X134443485Y-98290330D01*
X134434612Y-98298533D01*
X134430044Y-98302544D01*
X134420879Y-98310176D01*
X134411678Y-98317290D01*
X134402440Y-98323884D01*
X134393167Y-98329960D01*
X134383857Y-98335516D01*
X134374511Y-98340554D01*
X134365128Y-98345072D01*
X134355710Y-98349072D01*
X134346255Y-98352552D01*
X134336764Y-98355514D01*
X134327236Y-98357956D01*
X134312877Y-98360647D01*
X134298437Y-98362169D01*
X134283915Y-98362524D01*
X134148604Y-98362524D01*
X134138361Y-98362265D01*
X134128210Y-98361486D01*
X134118150Y-98360189D01*
X134108182Y-98358372D01*
X134098305Y-98356037D01*
X134088520Y-98353182D01*
X134078827Y-98349808D01*
X134069225Y-98345916D01*
X134059715Y-98341504D01*
X134050296Y-98336573D01*
X134040969Y-98331124D01*
X134031734Y-98325155D01*
X134022590Y-98318667D01*
X134013538Y-98311661D01*
X134004577Y-98304135D01*
X133995708Y-98296090D01*
X133991380Y-98291945D01*
X133983137Y-98283602D01*
X133975444Y-98275191D01*
X133968299Y-98266711D01*
X133961705Y-98258163D01*
X133955660Y-98249546D01*
X133950164Y-98240860D01*
X133945218Y-98232105D01*
X133940822Y-98223282D01*
X133935258Y-98209918D01*
X133930930Y-98196400D01*
X133927839Y-98182727D01*
X133925984Y-98168900D01*
X133925366Y-98154918D01*
X133925366Y-98152964D01*
X134042114Y-98152964D01*
X134042135Y-98154770D01*
X134043131Y-98165154D01*
X134045621Y-98174765D01*
X134050415Y-98185002D01*
X134056142Y-98192939D01*
X134063363Y-98200103D01*
X134102442Y-98234297D01*
X134109588Y-98239715D01*
X134119297Y-98245004D01*
X134130242Y-98248971D01*
X134140307Y-98251267D01*
X134151232Y-98252644D01*
X134163014Y-98253103D01*
X134282449Y-98253103D01*
X134292550Y-98252494D01*
X134302153Y-98250665D01*
X134312726Y-98246990D01*
X134322622Y-98241656D01*
X134330565Y-98235762D01*
X134371109Y-98203034D01*
X134374907Y-98199759D01*
X134381381Y-98192242D01*
X134386361Y-98183438D01*
X134389848Y-98173346D01*
X134391840Y-98161966D01*
X134392358Y-98151498D01*
X134392358Y-97914827D01*
X134391611Y-97904117D01*
X134389370Y-97894334D01*
X134384867Y-97884092D01*
X134378331Y-97875113D01*
X134371109Y-97868421D01*
X134335938Y-97836914D01*
X134332924Y-97834311D01*
X134323619Y-97827510D01*
X134313919Y-97822221D01*
X134303824Y-97818443D01*
X134293334Y-97816176D01*
X134282449Y-97815420D01*
X134148604Y-97815420D01*
X134146982Y-97815432D01*
X134136270Y-97816199D01*
X134126679Y-97818157D01*
X134117093Y-97821855D01*
X134108060Y-97827877D01*
X134064829Y-97865490D01*
X134062078Y-97867892D01*
X134054891Y-97875718D01*
X134049301Y-97884470D01*
X134045308Y-97894150D01*
X134042913Y-97904758D01*
X134042114Y-97916293D01*
X134042114Y-98152964D01*
X133925366Y-98152964D01*
X133925366Y-97913606D01*
X133925648Y-97904266D01*
X133927125Y-97890383D01*
X133929869Y-97876649D01*
X133933880Y-97863066D01*
X133939157Y-97849632D01*
X133943379Y-97840760D01*
X133948164Y-97831955D01*
X133953511Y-97823217D01*
X133959422Y-97814545D01*
X133965895Y-97805941D01*
X133972931Y-97797403D01*
X133980531Y-97788931D01*
X133988693Y-97780527D01*
X133997418Y-97772189D01*
X134006481Y-97764174D01*
X134015595Y-97756676D01*
X134024761Y-97749695D01*
X134033978Y-97743231D01*
X134043247Y-97737285D01*
X134052567Y-97731855D01*
X134061939Y-97726942D01*
X134071362Y-97722547D01*
X134080837Y-97718669D01*
X134090364Y-97715307D01*
X134099942Y-97712463D01*
X134109571Y-97710136D01*
X134119252Y-97708326D01*
X134128985Y-97707034D01*
X134138769Y-97706258D01*
X134148604Y-97706000D01*
X134283915Y-97706000D01*
X134293605Y-97706254D01*
G37*
G36*
X135237439Y-97706000D02*
G01*
X134888416Y-97706000D01*
X134878283Y-97706783D01*
X134867532Y-97709595D01*
X134857667Y-97714453D01*
X134849761Y-97720382D01*
X134847627Y-97722364D01*
X134841060Y-97729827D01*
X134835531Y-97739101D01*
X134832107Y-97749168D01*
X134830791Y-97760029D01*
X134830774Y-97761443D01*
X134831828Y-97771960D01*
X134834988Y-97781776D01*
X134840254Y-97790889D01*
X134847627Y-97799300D01*
X134855339Y-97805581D01*
X134864983Y-97810871D01*
X134875512Y-97814145D01*
X134885451Y-97815357D01*
X134888416Y-97815420D01*
X135003943Y-97815420D01*
X135003943Y-98503208D01*
X134886950Y-98503208D01*
X134876817Y-98503968D01*
X134866067Y-98506696D01*
X134856202Y-98511410D01*
X134848296Y-98517161D01*
X134846162Y-98519084D01*
X134839595Y-98526452D01*
X134834065Y-98535645D01*
X134830642Y-98545663D01*
X134829325Y-98556505D01*
X134829309Y-98557919D01*
X134830362Y-98568848D01*
X134833522Y-98578923D01*
X134838789Y-98588144D01*
X134846162Y-98596509D01*
X134853874Y-98602790D01*
X134863517Y-98608079D01*
X134874047Y-98611354D01*
X134883986Y-98612566D01*
X134886950Y-98612629D01*
X135063049Y-98612629D01*
X135072908Y-98611799D01*
X135083461Y-98608819D01*
X135093249Y-98603670D01*
X135101188Y-98597388D01*
X135103349Y-98595288D01*
X135110106Y-98587504D01*
X135115204Y-98579112D01*
X135118997Y-98568778D01*
X135120538Y-98559084D01*
X135120691Y-98554743D01*
X135120691Y-97815420D01*
X135237439Y-97815420D01*
X135247298Y-97814649D01*
X135257850Y-97811878D01*
X135267639Y-97807093D01*
X135275578Y-97801252D01*
X135277739Y-97799300D01*
X135284496Y-97791979D01*
X135290186Y-97782953D01*
X135293708Y-97773226D01*
X135295063Y-97762796D01*
X135295080Y-97761443D01*
X135294027Y-97750482D01*
X135290867Y-97740316D01*
X135285600Y-97730943D01*
X135279264Y-97723393D01*
X135278227Y-97722364D01*
X135270515Y-97715987D01*
X135260871Y-97710618D01*
X135250342Y-97707294D01*
X135240403Y-97706063D01*
X135237439Y-97706000D01*
G37*
G36*
X136082519Y-97706000D02*
G01*
X135733496Y-97706000D01*
X135723363Y-97706783D01*
X135712612Y-97709595D01*
X135702747Y-97714453D01*
X135694842Y-97720382D01*
X135692707Y-97722364D01*
X135686141Y-97729827D01*
X135680611Y-97739101D01*
X135677188Y-97749168D01*
X135675871Y-97760029D01*
X135675855Y-97761443D01*
X135676908Y-97771960D01*
X135680068Y-97781776D01*
X135685334Y-97790889D01*
X135692707Y-97799300D01*
X135700419Y-97805581D01*
X135710063Y-97810871D01*
X135720592Y-97814145D01*
X135730532Y-97815357D01*
X135733496Y-97815420D01*
X135849023Y-97815420D01*
X135849023Y-98503208D01*
X135732030Y-98503208D01*
X135721897Y-98503968D01*
X135711147Y-98506696D01*
X135701282Y-98511410D01*
X135693376Y-98517161D01*
X135691242Y-98519084D01*
X135684675Y-98526452D01*
X135679145Y-98535645D01*
X135675722Y-98545663D01*
X135674406Y-98556505D01*
X135674389Y-98557919D01*
X135675442Y-98568848D01*
X135678602Y-98578923D01*
X135683869Y-98588144D01*
X135691242Y-98596509D01*
X135698954Y-98602790D01*
X135708598Y-98608079D01*
X135719127Y-98611354D01*
X135729066Y-98612566D01*
X135732030Y-98612629D01*
X135908130Y-98612629D01*
X135917989Y-98611799D01*
X135928541Y-98608819D01*
X135938330Y-98603670D01*
X135946269Y-98597388D01*
X135948430Y-98595288D01*
X135955187Y-98587504D01*
X135960284Y-98579112D01*
X135964077Y-98568778D01*
X135965618Y-98559084D01*
X135965771Y-98554743D01*
X135965771Y-97815420D01*
X136082519Y-97815420D01*
X136092378Y-97814649D01*
X136102930Y-97811878D01*
X136112719Y-97807093D01*
X136120658Y-97801252D01*
X136122819Y-97799300D01*
X136129576Y-97791979D01*
X136135266Y-97782953D01*
X136138789Y-97773226D01*
X136140143Y-97762796D01*
X136140160Y-97761443D01*
X136139107Y-97750482D01*
X136135947Y-97740316D01*
X136130681Y-97730943D01*
X136124344Y-97723393D01*
X136123308Y-97722364D01*
X136115595Y-97715987D01*
X136105952Y-97710618D01*
X136095423Y-97707294D01*
X136085483Y-97706063D01*
X136082519Y-97706000D01*
G37*
G36*
X136828846Y-97706254D02*
G01*
X136843314Y-97707592D01*
X136857700Y-97710075D01*
X136867245Y-97712368D01*
X136876755Y-97715170D01*
X136886228Y-97718482D01*
X136895664Y-97722303D01*
X136905065Y-97726633D01*
X136914429Y-97731473D01*
X136923757Y-97736823D01*
X136933049Y-97742682D01*
X136942304Y-97749050D01*
X136951524Y-97755928D01*
X136960707Y-97763315D01*
X136969853Y-97771212D01*
X136978726Y-97779439D01*
X136987027Y-97787756D01*
X136994755Y-97796162D01*
X137001910Y-97804658D01*
X137008493Y-97813244D01*
X137014504Y-97821919D01*
X137019942Y-97830685D01*
X137024808Y-97839539D01*
X137029101Y-97848484D01*
X137032822Y-97857518D01*
X137037330Y-97871237D01*
X137040550Y-97885158D01*
X137042482Y-97899281D01*
X137043126Y-97913606D01*
X137043126Y-98154918D01*
X137042482Y-98169502D01*
X137040550Y-98183855D01*
X137037330Y-98197976D01*
X137032822Y-98211865D01*
X137029101Y-98220995D01*
X137024808Y-98230023D01*
X137019942Y-98238947D01*
X137014504Y-98247768D01*
X137008493Y-98256487D01*
X137001910Y-98265102D01*
X136994755Y-98273614D01*
X136987027Y-98282023D01*
X136978726Y-98290330D01*
X136969853Y-98298533D01*
X136965284Y-98302544D01*
X136956120Y-98310176D01*
X136946918Y-98317290D01*
X136937681Y-98323884D01*
X136928408Y-98329960D01*
X136919098Y-98335516D01*
X136909752Y-98340554D01*
X136900369Y-98345072D01*
X136890951Y-98349072D01*
X136881496Y-98352552D01*
X136872005Y-98355514D01*
X136862477Y-98357956D01*
X136848118Y-98360647D01*
X136833678Y-98362169D01*
X136819155Y-98362524D01*
X136683845Y-98362524D01*
X136673602Y-98362265D01*
X136663451Y-98361486D01*
X136653391Y-98360189D01*
X136643423Y-98358372D01*
X136633546Y-98356037D01*
X136623761Y-98353182D01*
X136614068Y-98349808D01*
X136604466Y-98345916D01*
X136594956Y-98341504D01*
X136585537Y-98336573D01*
X136576210Y-98331124D01*
X136566975Y-98325155D01*
X136557831Y-98318667D01*
X136548779Y-98311661D01*
X136539818Y-98304135D01*
X136530949Y-98296090D01*
X136526621Y-98291945D01*
X136518378Y-98283602D01*
X136510684Y-98275191D01*
X136503540Y-98266711D01*
X136496946Y-98258163D01*
X136490901Y-98249546D01*
X136485405Y-98240860D01*
X136480459Y-98232105D01*
X136476063Y-98223282D01*
X136470499Y-98209918D01*
X136466171Y-98196400D01*
X136463080Y-98182727D01*
X136461225Y-98168900D01*
X136460607Y-98154918D01*
X136460607Y-98152964D01*
X136577355Y-98152964D01*
X136577376Y-98154770D01*
X136578372Y-98165154D01*
X136580862Y-98174765D01*
X136585655Y-98185002D01*
X136591383Y-98192939D01*
X136598604Y-98200103D01*
X136637683Y-98234297D01*
X136644829Y-98239715D01*
X136654538Y-98245004D01*
X136665483Y-98248971D01*
X136675548Y-98251267D01*
X136686472Y-98252644D01*
X136698255Y-98253103D01*
X136817690Y-98253103D01*
X136827791Y-98252494D01*
X136837393Y-98250665D01*
X136847967Y-98246990D01*
X136857863Y-98241656D01*
X136865806Y-98235762D01*
X136906350Y-98203034D01*
X136910148Y-98199759D01*
X136916622Y-98192242D01*
X136921602Y-98183438D01*
X136925088Y-98173346D01*
X136927080Y-98161966D01*
X136927599Y-98151498D01*
X136927599Y-97914827D01*
X136926852Y-97904117D01*
X136924611Y-97894334D01*
X136920108Y-97884092D01*
X136913571Y-97875113D01*
X136906350Y-97868421D01*
X136871179Y-97836914D01*
X136868165Y-97834311D01*
X136858860Y-97827510D01*
X136849160Y-97822221D01*
X136839065Y-97818443D01*
X136828575Y-97816176D01*
X136817690Y-97815420D01*
X136683845Y-97815420D01*
X136682223Y-97815432D01*
X136671511Y-97816199D01*
X136661920Y-97818157D01*
X136652334Y-97821855D01*
X136643301Y-97827877D01*
X136600070Y-97865490D01*
X136597319Y-97867892D01*
X136590132Y-97875718D01*
X136584542Y-97884470D01*
X136580549Y-97894150D01*
X136578154Y-97904758D01*
X136577355Y-97916293D01*
X136577355Y-98152964D01*
X136460607Y-98152964D01*
X136460607Y-97913606D01*
X136460888Y-97904266D01*
X136462366Y-97890383D01*
X136465110Y-97876649D01*
X136469121Y-97863066D01*
X136474398Y-97849632D01*
X136478620Y-97840760D01*
X136483404Y-97831955D01*
X136488752Y-97823217D01*
X136494663Y-97814545D01*
X136501136Y-97805941D01*
X136508172Y-97797403D01*
X136515771Y-97788931D01*
X136523934Y-97780527D01*
X136532659Y-97772189D01*
X136541721Y-97764174D01*
X136550836Y-97756676D01*
X136560001Y-97749695D01*
X136569219Y-97743231D01*
X136578487Y-97737285D01*
X136587808Y-97731855D01*
X136597180Y-97726942D01*
X136606603Y-97722547D01*
X136616078Y-97718669D01*
X136625604Y-97715307D01*
X136635182Y-97712463D01*
X136644812Y-97710136D01*
X136654493Y-97708326D01*
X136664225Y-97707034D01*
X136674009Y-97706258D01*
X136683845Y-97706000D01*
X136819155Y-97706000D01*
X136828846Y-97706254D01*
G37*
G36*
X137655199Y-98114862D02*
G01*
X137655199Y-97971491D01*
X137732135Y-97846683D01*
X137771947Y-97978086D01*
X137784403Y-98306348D01*
X137786082Y-98317324D01*
X137789654Y-98327536D01*
X137795119Y-98336986D01*
X137801454Y-98344628D01*
X137802477Y-98345672D01*
X137810131Y-98352238D01*
X137819565Y-98357768D01*
X137829731Y-98361191D01*
X137840630Y-98362508D01*
X137842044Y-98362524D01*
X137852189Y-98361730D01*
X137861679Y-98359345D01*
X137871724Y-98354674D01*
X137879811Y-98348884D01*
X137883077Y-98345916D01*
X137889799Y-98338417D01*
X137895363Y-98329018D01*
X137898668Y-98318733D01*
X137899707Y-98309007D01*
X137899686Y-98306104D01*
X137887474Y-97955127D01*
X137825680Y-97751429D01*
X137822013Y-97740781D01*
X137817483Y-97731553D01*
X137810607Y-97722015D01*
X137802385Y-97714695D01*
X137792814Y-97709593D01*
X137781896Y-97706709D01*
X137772191Y-97706000D01*
X137710153Y-97706000D01*
X137700412Y-97706930D01*
X137689604Y-97710502D01*
X137679758Y-97716753D01*
X137672288Y-97724009D01*
X137665485Y-97733125D01*
X137660524Y-97741757D01*
X137659351Y-97744101D01*
X137596092Y-97846683D01*
X137533077Y-97746055D01*
X137527635Y-97736667D01*
X137521934Y-97728531D01*
X137514442Y-97720121D01*
X137506544Y-97713666D01*
X137496532Y-97708503D01*
X137485936Y-97706156D01*
X137482275Y-97706000D01*
X137421702Y-97706000D01*
X137411933Y-97706778D01*
X137401526Y-97709515D01*
X137391737Y-97714223D01*
X137385555Y-97718456D01*
X137378243Y-97725081D01*
X137371805Y-97733191D01*
X137367260Y-97741997D01*
X137365282Y-97748254D01*
X137304954Y-97960012D01*
X137291765Y-98306104D01*
X137292666Y-98316897D01*
X137295856Y-98327048D01*
X137301337Y-98336558D01*
X137308010Y-98344354D01*
X137309107Y-98345427D01*
X137317199Y-98352089D01*
X137325876Y-98357115D01*
X137335138Y-98360504D01*
X137344984Y-98362257D01*
X137350872Y-98362524D01*
X137361542Y-98361532D01*
X137371572Y-98358555D01*
X137380960Y-98353594D01*
X137389707Y-98346648D01*
X137396308Y-98339377D01*
X137401964Y-98330008D01*
X137405605Y-98319510D01*
X137407138Y-98309397D01*
X137407292Y-98306348D01*
X137420237Y-97976865D01*
X137458095Y-97846683D01*
X137538451Y-97974911D01*
X137538451Y-98114618D01*
X137539269Y-98125262D01*
X137541723Y-98135181D01*
X137545814Y-98144376D01*
X137551540Y-98152846D01*
X137555548Y-98157360D01*
X137563485Y-98164212D01*
X137572124Y-98169382D01*
X137581464Y-98172868D01*
X137591505Y-98174671D01*
X137597557Y-98174946D01*
X137607416Y-98174104D01*
X137617969Y-98171082D01*
X137627757Y-98165861D01*
X137635696Y-98159490D01*
X137637857Y-98157360D01*
X137644614Y-98149399D01*
X137649712Y-98140691D01*
X137653150Y-98131234D01*
X137654928Y-98121029D01*
X137655199Y-98114862D01*
G37*
G36*
X138677060Y-97706015D02*
G01*
X138687997Y-97707275D01*
X138698263Y-97710549D01*
X138707857Y-97715838D01*
X138715701Y-97722120D01*
X138716783Y-97723148D01*
X138723395Y-97730668D01*
X138728890Y-97739949D01*
X138732187Y-97749963D01*
X138733287Y-97760710D01*
X138733270Y-97762123D01*
X138731915Y-97772946D01*
X138728392Y-97782914D01*
X138722702Y-97792027D01*
X138715945Y-97799300D01*
X138713784Y-97801252D01*
X138705845Y-97807093D01*
X138696056Y-97811878D01*
X138685504Y-97814649D01*
X138675645Y-97815420D01*
X138378890Y-97815420D01*
X138374198Y-97815618D01*
X138363081Y-97817615D01*
X138353367Y-97821038D01*
X138343481Y-97826041D01*
X138335111Y-97831417D01*
X138326622Y-97837891D01*
X138292917Y-97867688D01*
X138288377Y-97871848D01*
X138281804Y-97879152D01*
X138275553Y-97888532D01*
X138271088Y-97898581D01*
X138268408Y-97909300D01*
X138267515Y-97920689D01*
X138267515Y-97956104D01*
X138675645Y-97956104D01*
X138678522Y-97956170D01*
X138688214Y-97957437D01*
X138698575Y-97960860D01*
X138708173Y-97966390D01*
X138715945Y-97972957D01*
X138718045Y-97975087D01*
X138724328Y-97982920D01*
X138729476Y-97992586D01*
X138732457Y-98003016D01*
X138733287Y-98012769D01*
X138733287Y-98149545D01*
X138733104Y-98159583D01*
X138732148Y-98174048D01*
X138730371Y-98187799D01*
X138727774Y-98200838D01*
X138724357Y-98213164D01*
X138720121Y-98224778D01*
X138715064Y-98235678D01*
X138709187Y-98245866D01*
X138702490Y-98255342D01*
X138694973Y-98264104D01*
X138686636Y-98272154D01*
X138643405Y-98312699D01*
X138636571Y-98318732D01*
X138626224Y-98327053D01*
X138615760Y-98334497D01*
X138605180Y-98341066D01*
X138594485Y-98346759D01*
X138583674Y-98351576D01*
X138572747Y-98355518D01*
X138561703Y-98358583D01*
X138550544Y-98360773D01*
X138539269Y-98362086D01*
X138527878Y-98362524D01*
X138365701Y-98362524D01*
X138358536Y-98362375D01*
X138347939Y-98361594D01*
X138337522Y-98360143D01*
X138327285Y-98358022D01*
X138317228Y-98355231D01*
X138307352Y-98351771D01*
X138297657Y-98347641D01*
X138288141Y-98342841D01*
X138278806Y-98337371D01*
X138269651Y-98331232D01*
X138260677Y-98324422D01*
X138212561Y-98287053D01*
X138205989Y-98281478D01*
X138198182Y-98273768D01*
X138190829Y-98265235D01*
X138183929Y-98255879D01*
X138177481Y-98245700D01*
X138172650Y-98236964D01*
X138168109Y-98227702D01*
X138165010Y-98220698D01*
X138160522Y-98209644D01*
X138156881Y-98199365D01*
X138153629Y-98188053D01*
X138151597Y-98177858D01*
X138150767Y-98167374D01*
X138150767Y-98065525D01*
X138268737Y-98065525D01*
X138268737Y-98158337D01*
X138269535Y-98168593D01*
X138272485Y-98179624D01*
X138277610Y-98189650D01*
X138283732Y-98197444D01*
X138291451Y-98204499D01*
X138325157Y-98233808D01*
X138326535Y-98234995D01*
X138334996Y-98241327D01*
X138343783Y-98246301D01*
X138352896Y-98249919D01*
X138363941Y-98252425D01*
X138373761Y-98253103D01*
X138518841Y-98253103D01*
X138529558Y-98251714D01*
X138539485Y-98248220D01*
X138548404Y-98243531D01*
X138557700Y-98237280D01*
X138565736Y-98230877D01*
X138599197Y-98200347D01*
X138602776Y-98196867D01*
X138608879Y-98189081D01*
X138613573Y-98180197D01*
X138616859Y-98170214D01*
X138618736Y-98159131D01*
X138619225Y-98149056D01*
X138619225Y-98065525D01*
X138268737Y-98065525D01*
X138150767Y-98065525D01*
X138150767Y-97905302D01*
X138151334Y-97894397D01*
X138153034Y-97883114D01*
X138155317Y-97873423D01*
X138158387Y-97863469D01*
X138162243Y-97853254D01*
X138166887Y-97842775D01*
X138167903Y-97840668D01*
X138173216Y-97830568D01*
X138178922Y-97821196D01*
X138185022Y-97812550D01*
X138191516Y-97804633D01*
X138198403Y-97797443D01*
X138207187Y-97789775D01*
X138258723Y-97744834D01*
X138261808Y-97742278D01*
X138270210Y-97736381D01*
X138278751Y-97731401D01*
X138288528Y-97726489D01*
X138297620Y-97722449D01*
X138307571Y-97718456D01*
X138309660Y-97717690D01*
X138320008Y-97714223D01*
X138330201Y-97711364D01*
X138340239Y-97709114D01*
X138350122Y-97707471D01*
X138359850Y-97706437D01*
X138371319Y-97706000D01*
X138675645Y-97706000D01*
X138677060Y-97706015D01*
G37*
G36*
X138997069Y-97762908D02*
G01*
X138997069Y-98304150D01*
X138997875Y-98314211D01*
X139000772Y-98324966D01*
X139005775Y-98334926D01*
X139011881Y-98342991D01*
X139013922Y-98345183D01*
X139021634Y-98351940D01*
X139030024Y-98357037D01*
X139040442Y-98360831D01*
X139050284Y-98362372D01*
X139054710Y-98362524D01*
X139064938Y-98361741D01*
X139074465Y-98359392D01*
X139084494Y-98354790D01*
X139092519Y-98349084D01*
X139095743Y-98346160D01*
X139102310Y-98338650D01*
X139107839Y-98329208D01*
X139111263Y-98318851D01*
X139112530Y-98309037D01*
X139112596Y-98306104D01*
X139112596Y-98237472D01*
X139206629Y-98314897D01*
X139217551Y-98323408D01*
X139228425Y-98331083D01*
X139239252Y-98337920D01*
X139250032Y-98343920D01*
X139260765Y-98349083D01*
X139271450Y-98353408D01*
X139282088Y-98356896D01*
X139292679Y-98359548D01*
X139303223Y-98361361D01*
X139313719Y-98362338D01*
X139320691Y-98362524D01*
X139405199Y-98362524D01*
X139418434Y-98362073D01*
X139431305Y-98360721D01*
X139443811Y-98358467D01*
X139455952Y-98355311D01*
X139467727Y-98351254D01*
X139479138Y-98346295D01*
X139490184Y-98340435D01*
X139500866Y-98333673D01*
X139511182Y-98326009D01*
X139521133Y-98317444D01*
X139527564Y-98311233D01*
X139536643Y-98301432D01*
X139544829Y-98291261D01*
X139552122Y-98280721D01*
X139558522Y-98269811D01*
X139564029Y-98258533D01*
X139568643Y-98246885D01*
X139572364Y-98234868D01*
X139575192Y-98222482D01*
X139577127Y-98209726D01*
X139578168Y-98196601D01*
X139578367Y-98187646D01*
X139578367Y-98156383D01*
X139577560Y-98145846D01*
X139575141Y-98136034D01*
X139571109Y-98126946D01*
X139565464Y-98118583D01*
X139561514Y-98114129D01*
X139553790Y-98107372D01*
X139545365Y-98102275D01*
X139534878Y-98098482D01*
X139524951Y-98096940D01*
X139520481Y-98096788D01*
X139510348Y-98097641D01*
X139500893Y-98100201D01*
X139490917Y-98105215D01*
X139482915Y-98111431D01*
X139479693Y-98114618D01*
X139473126Y-98122781D01*
X139468172Y-98131668D01*
X139464831Y-98141280D01*
X139463103Y-98151617D01*
X139462840Y-98157849D01*
X139462840Y-98192043D01*
X139462034Y-98202794D01*
X139459614Y-98212820D01*
X139455582Y-98222121D01*
X139449937Y-98230698D01*
X139445987Y-98235274D01*
X139438275Y-98242221D01*
X139429885Y-98247462D01*
X139419467Y-98251362D01*
X139409624Y-98252947D01*
X139405199Y-98253103D01*
X139330216Y-98253103D01*
X139319475Y-98251853D01*
X139309841Y-98248790D01*
X139299812Y-98243890D01*
X139291153Y-98238403D01*
X139282219Y-98231640D01*
X139276727Y-98226969D01*
X139112596Y-98081157D01*
X139112596Y-97762908D01*
X139111766Y-97752882D01*
X139108785Y-97742254D01*
X139103637Y-97732511D01*
X139097354Y-97724712D01*
X139095254Y-97722608D01*
X139087471Y-97716137D01*
X139077831Y-97710687D01*
X139067397Y-97707313D01*
X139057616Y-97706064D01*
X139054710Y-97706000D01*
X139044577Y-97706794D01*
X139033827Y-97709649D01*
X139023962Y-97714579D01*
X139016056Y-97720597D01*
X139013922Y-97722608D01*
X139007355Y-97730213D01*
X139001825Y-97739735D01*
X138998402Y-97750142D01*
X138997135Y-97759974D01*
X138997069Y-97762908D01*
G37*
G36*
X141029414Y-97764618D02*
G01*
X141028572Y-97754461D01*
X141026048Y-97744936D01*
X141021840Y-97736042D01*
X141015950Y-97727779D01*
X141011828Y-97723341D01*
X141003879Y-97716584D01*
X140995205Y-97711486D01*
X140985807Y-97708049D01*
X140975684Y-97706270D01*
X140969574Y-97706000D01*
X140959727Y-97706829D01*
X140949217Y-97709810D01*
X140939500Y-97714958D01*
X140931650Y-97721241D01*
X140929518Y-97723341D01*
X140922952Y-97731243D01*
X140917998Y-97739777D01*
X140914311Y-97750302D01*
X140912814Y-97760188D01*
X140912666Y-97764618D01*
X140912666Y-98556697D01*
X140913484Y-98566784D01*
X140916422Y-98577366D01*
X140921498Y-98586941D01*
X140928711Y-98595509D01*
X140929763Y-98596509D01*
X140937700Y-98602790D01*
X140946339Y-98607528D01*
X140955678Y-98610724D01*
X140965720Y-98612377D01*
X140971772Y-98612629D01*
X140981631Y-98611858D01*
X140992183Y-98609087D01*
X141001972Y-98604301D01*
X141009911Y-98598461D01*
X141012072Y-98596509D01*
X141018829Y-98589178D01*
X141024519Y-98579854D01*
X141028042Y-98569524D01*
X141029346Y-98559658D01*
X141029414Y-98556697D01*
X141029414Y-97764618D01*
G37*
G36*
X142901047Y-97706000D02*
G01*
X142376169Y-97706000D01*
X142376169Y-98104848D01*
X142376699Y-98116663D01*
X142378291Y-98128051D01*
X142380943Y-98139012D01*
X142384656Y-98149545D01*
X142389430Y-98159650D01*
X142395265Y-98169328D01*
X142402161Y-98178579D01*
X142410118Y-98187402D01*
X142418816Y-98195474D01*
X142427933Y-98202469D01*
X142437470Y-98208388D01*
X142447426Y-98213231D01*
X142457803Y-98216998D01*
X142468599Y-98219688D01*
X142479815Y-98221302D01*
X142491451Y-98221840D01*
X142841696Y-98221840D01*
X142841696Y-98503208D01*
X142429658Y-98503208D01*
X142419251Y-98503968D01*
X142409616Y-98506247D01*
X142399548Y-98510712D01*
X142390488Y-98517161D01*
X142388381Y-98519084D01*
X142381221Y-98527556D01*
X142376108Y-98536853D01*
X142373039Y-98546973D01*
X142372017Y-98557919D01*
X142373039Y-98568848D01*
X142376108Y-98578923D01*
X142381221Y-98588144D01*
X142388381Y-98596509D01*
X142396033Y-98602790D01*
X142405722Y-98608079D01*
X142416419Y-98611354D01*
X142426606Y-98612566D01*
X142429658Y-98612629D01*
X142841940Y-98612629D01*
X142853751Y-98612110D01*
X142865128Y-98610553D01*
X142876069Y-98607958D01*
X142886575Y-98604325D01*
X142896646Y-98599654D01*
X142906282Y-98593944D01*
X142915484Y-98587197D01*
X142924250Y-98579412D01*
X142932321Y-98570959D01*
X142939316Y-98562086D01*
X142945235Y-98552793D01*
X142950078Y-98543081D01*
X142953845Y-98532949D01*
X142956535Y-98522396D01*
X142958150Y-98511425D01*
X142958688Y-98500033D01*
X142958688Y-98226237D01*
X142958150Y-98214555D01*
X142956535Y-98203324D01*
X142953845Y-98192543D01*
X142950078Y-98182212D01*
X142945235Y-98172332D01*
X142939316Y-98162902D01*
X142932321Y-98153922D01*
X142924250Y-98145392D01*
X142915484Y-98137664D01*
X142906282Y-98130967D01*
X142896646Y-98125300D01*
X142886575Y-98120663D01*
X142876069Y-98117056D01*
X142865128Y-98114480D01*
X142853751Y-98112935D01*
X142841940Y-98112420D01*
X142491451Y-98112420D01*
X142491451Y-97815420D01*
X142901047Y-97815420D01*
X142910906Y-97814649D01*
X142921458Y-97811878D01*
X142931247Y-97807093D01*
X142939186Y-97801252D01*
X142941347Y-97799300D01*
X142948104Y-97792027D01*
X142953794Y-97782914D01*
X142957316Y-97772946D01*
X142958671Y-97762123D01*
X142958688Y-97760710D01*
X142957604Y-97749765D01*
X142954353Y-97739644D01*
X142948933Y-97730347D01*
X142942413Y-97722889D01*
X142941347Y-97721875D01*
X142933574Y-97715689D01*
X142923976Y-97710480D01*
X142913615Y-97707255D01*
X142902491Y-97706015D01*
X142901047Y-97706000D01*
G37*
G36*
X143700789Y-97706503D02*
G01*
X143711689Y-97708015D01*
X143722160Y-97710533D01*
X143732205Y-97714060D01*
X143741822Y-97718593D01*
X143751012Y-97724135D01*
X143759774Y-97730683D01*
X143768109Y-97738240D01*
X143775779Y-97746567D01*
X143782427Y-97755306D01*
X143788053Y-97764457D01*
X143792655Y-97774021D01*
X143796235Y-97783997D01*
X143798792Y-97794385D01*
X143800326Y-97805185D01*
X143800837Y-97816397D01*
X143800837Y-98502231D01*
X143800326Y-98513276D01*
X143798792Y-98523938D01*
X143796235Y-98534219D01*
X143792655Y-98544119D01*
X143788053Y-98553637D01*
X143782427Y-98562773D01*
X143775779Y-98571527D01*
X143768109Y-98579900D01*
X143759797Y-98587571D01*
X143751103Y-98594219D01*
X143742028Y-98599844D01*
X143732571Y-98604447D01*
X143722733Y-98608026D01*
X143712513Y-98610583D01*
X143701911Y-98612118D01*
X143690928Y-98612629D01*
X143331158Y-98612629D01*
X143319996Y-98612118D01*
X143309222Y-98610583D01*
X143298838Y-98608026D01*
X143288843Y-98604447D01*
X143279237Y-98599844D01*
X143270021Y-98594219D01*
X143261194Y-98587571D01*
X143252756Y-98579900D01*
X143245028Y-98571527D01*
X143238331Y-98562773D01*
X143232663Y-98553637D01*
X143228027Y-98544119D01*
X143224420Y-98534219D01*
X143221844Y-98523938D01*
X143220299Y-98513276D01*
X143219783Y-98502231D01*
X143219783Y-97816397D01*
X143219827Y-97815420D01*
X143335066Y-97815420D01*
X143335066Y-98503208D01*
X143686776Y-98503208D01*
X143686776Y-97815420D01*
X143335066Y-97815420D01*
X143219827Y-97815420D01*
X143220287Y-97805185D01*
X143221798Y-97794385D01*
X143224317Y-97783997D01*
X143227843Y-97774021D01*
X143232377Y-97764457D01*
X143237918Y-97755306D01*
X143244467Y-97746567D01*
X143252023Y-97738240D01*
X143260312Y-97730683D01*
X143269059Y-97724135D01*
X143278264Y-97718593D01*
X143287927Y-97714060D01*
X143298048Y-97710533D01*
X143308627Y-97708015D01*
X143319663Y-97706503D01*
X143331158Y-97706000D01*
X143689462Y-97706000D01*
X143700789Y-97706503D01*
G37*
G36*
X144591207Y-97706000D02*
G01*
X144066329Y-97706000D01*
X144066329Y-98104848D01*
X144066860Y-98116663D01*
X144068451Y-98128051D01*
X144071103Y-98139012D01*
X144074817Y-98149545D01*
X144079591Y-98159650D01*
X144085426Y-98169328D01*
X144092322Y-98178579D01*
X144100279Y-98187402D01*
X144108976Y-98195474D01*
X144118093Y-98202469D01*
X144127630Y-98208388D01*
X144137587Y-98213231D01*
X144147964Y-98216998D01*
X144158760Y-98219688D01*
X144169976Y-98221302D01*
X144181612Y-98221840D01*
X144531856Y-98221840D01*
X144531856Y-98503208D01*
X144119818Y-98503208D01*
X144109412Y-98503968D01*
X144099776Y-98506247D01*
X144089709Y-98510712D01*
X144080649Y-98517161D01*
X144078541Y-98519084D01*
X144071382Y-98527556D01*
X144066268Y-98536853D01*
X144063200Y-98546973D01*
X144062177Y-98557919D01*
X144063200Y-98568848D01*
X144066268Y-98578923D01*
X144071382Y-98588144D01*
X144078541Y-98596509D01*
X144086193Y-98602790D01*
X144095883Y-98608079D01*
X144106580Y-98611354D01*
X144116766Y-98612566D01*
X144119818Y-98612629D01*
X144532100Y-98612629D01*
X144543912Y-98612110D01*
X144555288Y-98610553D01*
X144566229Y-98607958D01*
X144576736Y-98604325D01*
X144586807Y-98599654D01*
X144596443Y-98593944D01*
X144605644Y-98587197D01*
X144614410Y-98579412D01*
X144622482Y-98570959D01*
X144629477Y-98562086D01*
X144635396Y-98552793D01*
X144640239Y-98543081D01*
X144644005Y-98532949D01*
X144646696Y-98522396D01*
X144648310Y-98511425D01*
X144648848Y-98500033D01*
X144648848Y-98226237D01*
X144648310Y-98214555D01*
X144646696Y-98203324D01*
X144644005Y-98192543D01*
X144640239Y-98182212D01*
X144635396Y-98172332D01*
X144629477Y-98162902D01*
X144622482Y-98153922D01*
X144614410Y-98145392D01*
X144605644Y-98137664D01*
X144596443Y-98130967D01*
X144586807Y-98125300D01*
X144576736Y-98120663D01*
X144566229Y-98117056D01*
X144555288Y-98114480D01*
X144543912Y-98112935D01*
X144532100Y-98112420D01*
X144181612Y-98112420D01*
X144181612Y-97815420D01*
X144591207Y-97815420D01*
X144601066Y-97814649D01*
X144611618Y-97811878D01*
X144621407Y-97807093D01*
X144629346Y-97801252D01*
X144631507Y-97799300D01*
X144638264Y-97792027D01*
X144643954Y-97782914D01*
X144647477Y-97772946D01*
X144648831Y-97762123D01*
X144648848Y-97760710D01*
X144647765Y-97749765D01*
X144644513Y-97739644D01*
X144639094Y-97730347D01*
X144632574Y-97722889D01*
X144631507Y-97721875D01*
X144623735Y-97715689D01*
X144614137Y-97710480D01*
X144603776Y-97707255D01*
X144592651Y-97706015D01*
X144591207Y-97706000D01*
G37*
G36*
X145289742Y-97763397D02*
G01*
X145289742Y-98002999D01*
X144942184Y-98002999D01*
X144942184Y-98554011D01*
X144943014Y-98564167D01*
X144945503Y-98573692D01*
X144949652Y-98582586D01*
X144955461Y-98590849D01*
X144959525Y-98595288D01*
X144967534Y-98602045D01*
X144976175Y-98607142D01*
X144985446Y-98610580D01*
X144995349Y-98612358D01*
X145001291Y-98612629D01*
X145011150Y-98611787D01*
X145021702Y-98608765D01*
X145031491Y-98603544D01*
X145039430Y-98597173D01*
X145041591Y-98595043D01*
X145048348Y-98587034D01*
X145053445Y-98578394D01*
X145056883Y-98569122D01*
X145058661Y-98559220D01*
X145058932Y-98553278D01*
X145058932Y-98112420D01*
X145289742Y-98112420D01*
X145289742Y-98458267D01*
X145290548Y-98468733D01*
X145292967Y-98478543D01*
X145296999Y-98487700D01*
X145302644Y-98496201D01*
X145306594Y-98500766D01*
X145314306Y-98507808D01*
X145322696Y-98513121D01*
X145333115Y-98517075D01*
X145342957Y-98518681D01*
X145347383Y-98518840D01*
X145357611Y-98517975D01*
X145367138Y-98515380D01*
X145375964Y-98511056D01*
X145384088Y-98505002D01*
X145388416Y-98500766D01*
X145394982Y-98492638D01*
X145399936Y-98483856D01*
X145403277Y-98474419D01*
X145405005Y-98464328D01*
X145405268Y-98458267D01*
X145405268Y-98112420D01*
X145415401Y-98111648D01*
X145426152Y-98108878D01*
X145436017Y-98104092D01*
X145443923Y-98098252D01*
X145446057Y-98096300D01*
X145452624Y-98089027D01*
X145458153Y-98079913D01*
X145461577Y-98069945D01*
X145462893Y-98059122D01*
X145462910Y-98057709D01*
X145461856Y-98046764D01*
X145458697Y-98036643D01*
X145453430Y-98027347D01*
X145447094Y-98019889D01*
X145446057Y-98018875D01*
X145438345Y-98012689D01*
X145428701Y-98007479D01*
X145418172Y-98004255D01*
X145408233Y-98003061D01*
X145405268Y-98002999D01*
X145405268Y-97763152D01*
X145404439Y-97753115D01*
X145401458Y-97742444D01*
X145396310Y-97732629D01*
X145390027Y-97724741D01*
X145387927Y-97722608D01*
X145380143Y-97716137D01*
X145370503Y-97710687D01*
X145360070Y-97707313D01*
X145350289Y-97706064D01*
X145347383Y-97706000D01*
X145337250Y-97706794D01*
X145326499Y-97709649D01*
X145316634Y-97714579D01*
X145308729Y-97720597D01*
X145306594Y-97722608D01*
X145300028Y-97730320D01*
X145294498Y-97739964D01*
X145291075Y-97750493D01*
X145289807Y-97760432D01*
X145289742Y-97763397D01*
G37*
G36*
X146339009Y-98162734D02*
G01*
X146339009Y-98110466D01*
X146338202Y-98099989D01*
X146335783Y-98090143D01*
X146331751Y-98080928D01*
X146326106Y-98072345D01*
X146322156Y-98067723D01*
X146314444Y-98060776D01*
X146306054Y-98055535D01*
X146295636Y-98051635D01*
X146285793Y-98050050D01*
X146281368Y-98049893D01*
X145815352Y-98049893D01*
X145805219Y-98050747D01*
X145795764Y-98053306D01*
X145785788Y-98058321D01*
X145777786Y-98064537D01*
X145774564Y-98067723D01*
X145767997Y-98075946D01*
X145763043Y-98084800D01*
X145759702Y-98094285D01*
X145757974Y-98104402D01*
X145757711Y-98110466D01*
X145757711Y-98162734D01*
X145758517Y-98173164D01*
X145760937Y-98182869D01*
X145764969Y-98191850D01*
X145770614Y-98200107D01*
X145774564Y-98204499D01*
X145782276Y-98211256D01*
X145790666Y-98216354D01*
X145801084Y-98220147D01*
X145810926Y-98221688D01*
X145815352Y-98221840D01*
X146281368Y-98221840D01*
X146292099Y-98220802D01*
X146302311Y-98217688D01*
X146312005Y-98212498D01*
X146320061Y-98206254D01*
X146321179Y-98205232D01*
X146328126Y-98197522D01*
X146333367Y-98188923D01*
X146336902Y-98179436D01*
X146338730Y-98169061D01*
X146339009Y-98162734D01*
G37*
G36*
X147081110Y-97706503D02*
G01*
X147092010Y-97708015D01*
X147102481Y-97710533D01*
X147112526Y-97714060D01*
X147122143Y-97718593D01*
X147131333Y-97724135D01*
X147140095Y-97730683D01*
X147148430Y-97738240D01*
X147156100Y-97746567D01*
X147162748Y-97755306D01*
X147168374Y-97764457D01*
X147172976Y-97774021D01*
X147176556Y-97783997D01*
X147179113Y-97794385D01*
X147180647Y-97805185D01*
X147181158Y-97816397D01*
X147181158Y-98502231D01*
X147180647Y-98513276D01*
X147179113Y-98523938D01*
X147176556Y-98534219D01*
X147172976Y-98544119D01*
X147168374Y-98553637D01*
X147162748Y-98562773D01*
X147156100Y-98571527D01*
X147148430Y-98579900D01*
X147140118Y-98587571D01*
X147131424Y-98594219D01*
X147122349Y-98599844D01*
X147112892Y-98604447D01*
X147103054Y-98608026D01*
X147092834Y-98610583D01*
X147082232Y-98612118D01*
X147071249Y-98612629D01*
X146711479Y-98612629D01*
X146700317Y-98612118D01*
X146689543Y-98610583D01*
X146679159Y-98608026D01*
X146669164Y-98604447D01*
X146659558Y-98599844D01*
X146650342Y-98594219D01*
X146641515Y-98587571D01*
X146633077Y-98579900D01*
X146625349Y-98571527D01*
X146618652Y-98562773D01*
X146612984Y-98553637D01*
X146608348Y-98544119D01*
X146604741Y-98534219D01*
X146602165Y-98523938D01*
X146600620Y-98513276D01*
X146600104Y-98502231D01*
X146600104Y-97816397D01*
X146600148Y-97815420D01*
X146715387Y-97815420D01*
X146715387Y-98503208D01*
X147067097Y-98503208D01*
X147067097Y-97815420D01*
X146715387Y-97815420D01*
X146600148Y-97815420D01*
X146600608Y-97805185D01*
X146602119Y-97794385D01*
X146604638Y-97783997D01*
X146608164Y-97774021D01*
X146612698Y-97764457D01*
X146618239Y-97755306D01*
X146624788Y-97746567D01*
X146632344Y-97738240D01*
X146640633Y-97730683D01*
X146649380Y-97724135D01*
X146658585Y-97718593D01*
X146668248Y-97714060D01*
X146678369Y-97710533D01*
X146688948Y-97708015D01*
X146699985Y-97706503D01*
X146711479Y-97706000D01*
X147069783Y-97706000D01*
X147081110Y-97706503D01*
G37*
G36*
X147501361Y-97815420D02*
G01*
X147678681Y-97815420D01*
X147678681Y-98503208D01*
X147504291Y-98503208D01*
X147494158Y-98503968D01*
X147483408Y-98506696D01*
X147473543Y-98511410D01*
X147465637Y-98517161D01*
X147463503Y-98519084D01*
X147456936Y-98526452D01*
X147451406Y-98535645D01*
X147447983Y-98545663D01*
X147446667Y-98556505D01*
X147446650Y-98557919D01*
X147447703Y-98568848D01*
X147450863Y-98578923D01*
X147456130Y-98588144D01*
X147463503Y-98596509D01*
X147471215Y-98602790D01*
X147480859Y-98608079D01*
X147491388Y-98611354D01*
X147501327Y-98612566D01*
X147504291Y-98612629D01*
X147794208Y-98612629D01*
X147794208Y-97815420D01*
X147909490Y-97815420D01*
X147909490Y-98055023D01*
X147910297Y-98064882D01*
X147913193Y-98075434D01*
X147918197Y-98085223D01*
X147924302Y-98093162D01*
X147926343Y-98095323D01*
X147934055Y-98101984D01*
X147942445Y-98107010D01*
X147952863Y-98110750D01*
X147962706Y-98112269D01*
X147967132Y-98112420D01*
X147977360Y-98111625D01*
X147986887Y-98109241D01*
X147996916Y-98104569D01*
X148004940Y-98098779D01*
X148008164Y-98095811D01*
X148014731Y-98088301D01*
X148020261Y-98078860D01*
X148023684Y-98068502D01*
X148024951Y-98058688D01*
X148025017Y-98055755D01*
X148025017Y-97762664D01*
X148024211Y-97752638D01*
X148021314Y-97742009D01*
X148016311Y-97732266D01*
X148010205Y-97724468D01*
X148008164Y-97722364D01*
X148000452Y-97715987D01*
X147990809Y-97710618D01*
X147980280Y-97707294D01*
X147970340Y-97706063D01*
X147967376Y-97706000D01*
X147501361Y-97706000D01*
X147491228Y-97706794D01*
X147480477Y-97709649D01*
X147470612Y-97714579D01*
X147462706Y-97720597D01*
X147460572Y-97722608D01*
X147454005Y-97730166D01*
X147448476Y-97739520D01*
X147445052Y-97749637D01*
X147443736Y-97760517D01*
X147443719Y-97761931D01*
X147444773Y-97772632D01*
X147447932Y-97782509D01*
X147453199Y-97791561D01*
X147460572Y-97799789D01*
X147468284Y-97805880D01*
X147477928Y-97811009D01*
X147488457Y-97814184D01*
X147498396Y-97815359D01*
X147501361Y-97815420D01*
G37*
G36*
X148874250Y-98162734D02*
G01*
X148874250Y-98110466D01*
X148873443Y-98099989D01*
X148871024Y-98090143D01*
X148866992Y-98080928D01*
X148861347Y-98072345D01*
X148857397Y-98067723D01*
X148849685Y-98060776D01*
X148841295Y-98055535D01*
X148830876Y-98051635D01*
X148821034Y-98050050D01*
X148816608Y-98049893D01*
X148350593Y-98049893D01*
X148340460Y-98050747D01*
X148331005Y-98053306D01*
X148321029Y-98058321D01*
X148313027Y-98064537D01*
X148309804Y-98067723D01*
X148303238Y-98075946D01*
X148298284Y-98084800D01*
X148294943Y-98094285D01*
X148293215Y-98104402D01*
X148292952Y-98110466D01*
X148292952Y-98162734D01*
X148293758Y-98173164D01*
X148296177Y-98182869D01*
X148300209Y-98191850D01*
X148305855Y-98200107D01*
X148309804Y-98204499D01*
X148317516Y-98211256D01*
X148325906Y-98216354D01*
X148336325Y-98220147D01*
X148346167Y-98221688D01*
X148350593Y-98221840D01*
X148816608Y-98221840D01*
X148827340Y-98220802D01*
X148837552Y-98217688D01*
X148847245Y-98212498D01*
X148855301Y-98206254D01*
X148856420Y-98205232D01*
X148863367Y-98197522D01*
X148868608Y-98188923D01*
X148872143Y-98179436D01*
X148873971Y-98169061D01*
X148874250Y-98162734D01*
G37*
G36*
X149616351Y-97706503D02*
G01*
X149627250Y-97708015D01*
X149637722Y-97710533D01*
X149647767Y-97714060D01*
X149657384Y-97718593D01*
X149666573Y-97724135D01*
X149675336Y-97730683D01*
X149683670Y-97738240D01*
X149691341Y-97746567D01*
X149697989Y-97755306D01*
X149703614Y-97764457D01*
X149708217Y-97774021D01*
X149711796Y-97783997D01*
X149714353Y-97794385D01*
X149715888Y-97805185D01*
X149716399Y-97816397D01*
X149716399Y-98502231D01*
X149715888Y-98513276D01*
X149714353Y-98523938D01*
X149711796Y-98534219D01*
X149708217Y-98544119D01*
X149703614Y-98553637D01*
X149697989Y-98562773D01*
X149691341Y-98571527D01*
X149683670Y-98579900D01*
X149675358Y-98587571D01*
X149666665Y-98594219D01*
X149657590Y-98599844D01*
X149648133Y-98604447D01*
X149638295Y-98608026D01*
X149628075Y-98610583D01*
X149617473Y-98612118D01*
X149606490Y-98612629D01*
X149246720Y-98612629D01*
X149235557Y-98612118D01*
X149224784Y-98610583D01*
X149214400Y-98608026D01*
X149204405Y-98604447D01*
X149194799Y-98599844D01*
X149185583Y-98594219D01*
X149176756Y-98587571D01*
X149168318Y-98579900D01*
X149160590Y-98571527D01*
X149153892Y-98562773D01*
X149148225Y-98553637D01*
X149143588Y-98544119D01*
X149139982Y-98534219D01*
X149137406Y-98523938D01*
X149135860Y-98513276D01*
X149135345Y-98502231D01*
X149135345Y-97816397D01*
X149135389Y-97815420D01*
X149250628Y-97815420D01*
X149250628Y-98503208D01*
X149602338Y-98503208D01*
X149602338Y-97815420D01*
X149250628Y-97815420D01*
X149135389Y-97815420D01*
X149135849Y-97805185D01*
X149137360Y-97794385D01*
X149139879Y-97783997D01*
X149143405Y-97774021D01*
X149147939Y-97764457D01*
X149153480Y-97755306D01*
X149160029Y-97746567D01*
X149167585Y-97738240D01*
X149175874Y-97730683D01*
X149184621Y-97724135D01*
X149193826Y-97718593D01*
X149203489Y-97714060D01*
X149213610Y-97710533D01*
X149224189Y-97708015D01*
X149235225Y-97706503D01*
X149246720Y-97706000D01*
X149605024Y-97706000D01*
X149616351Y-97706503D01*
G37*
G36*
X149980425Y-98511024D02*
G01*
X149980425Y-98557919D01*
X149981479Y-98568848D01*
X149984639Y-98578923D01*
X149989905Y-98588144D01*
X149997278Y-98596509D01*
X150004990Y-98602790D01*
X150014634Y-98608079D01*
X150025163Y-98611354D01*
X150035102Y-98612566D01*
X150038067Y-98612629D01*
X150561479Y-98612629D01*
X150561479Y-98259454D01*
X150560732Y-98249339D01*
X150557972Y-98238363D01*
X150553179Y-98228275D01*
X150547451Y-98220335D01*
X150540230Y-98213048D01*
X150327983Y-98032308D01*
X150327983Y-97764862D01*
X150327177Y-97754694D01*
X150324757Y-97745134D01*
X150320725Y-97736181D01*
X150315080Y-97727836D01*
X150311130Y-97723341D01*
X150303418Y-97716584D01*
X150295028Y-97711486D01*
X150284610Y-97707693D01*
X150274767Y-97706152D01*
X150270342Y-97706000D01*
X150260078Y-97706794D01*
X150250446Y-97709178D01*
X150241445Y-97713152D01*
X150233076Y-97718715D01*
X150228576Y-97722608D01*
X150221819Y-97730262D01*
X150216129Y-97739695D01*
X150212607Y-97749862D01*
X150211252Y-97760761D01*
X150211235Y-97762175D01*
X150211235Y-98045741D01*
X150211956Y-98057308D01*
X150214120Y-98067826D01*
X150217726Y-98077297D01*
X150222775Y-98085721D01*
X150229267Y-98093097D01*
X150231751Y-98095323D01*
X150444731Y-98276551D01*
X150444731Y-98503208D01*
X150095708Y-98503208D01*
X150092083Y-98492217D01*
X150087434Y-98482692D01*
X150081763Y-98474632D01*
X150073236Y-98466618D01*
X150063111Y-98460893D01*
X150051388Y-98457458D01*
X150040859Y-98456359D01*
X150038067Y-98456314D01*
X150027934Y-98457073D01*
X150017183Y-98459802D01*
X150007318Y-98464515D01*
X149999412Y-98470267D01*
X149997278Y-98472189D01*
X149990712Y-98479557D01*
X149985182Y-98488751D01*
X149981759Y-98498769D01*
X149980442Y-98509611D01*
X149980425Y-98511024D01*
G37*
G36*
X115185466Y-116729269D02*
G01*
X115197077Y-116730076D01*
X115208471Y-116731421D01*
X115219647Y-116733304D01*
X115230605Y-116735726D01*
X115241346Y-116738685D01*
X115251869Y-116742183D01*
X115262175Y-116746219D01*
X115272264Y-116750792D01*
X115282135Y-116755904D01*
X115291788Y-116761554D01*
X115301224Y-116767743D01*
X115310442Y-116774469D01*
X115319443Y-116781733D01*
X115328226Y-116789535D01*
X115336792Y-116797876D01*
X115344984Y-116806592D01*
X115352648Y-116815523D01*
X115359784Y-116824666D01*
X115366391Y-116834024D01*
X115372469Y-116843595D01*
X115378019Y-116853380D01*
X115383040Y-116863379D01*
X115387533Y-116873591D01*
X115391497Y-116884017D01*
X115394933Y-116894657D01*
X115397840Y-116905511D01*
X115400218Y-116916578D01*
X115402068Y-116927859D01*
X115403390Y-116939354D01*
X115404183Y-116951062D01*
X115404447Y-116962984D01*
X115404447Y-117014275D01*
X115404138Y-117026898D01*
X115403210Y-117039302D01*
X115401665Y-117051490D01*
X115399501Y-117063460D01*
X115396719Y-117075212D01*
X115393318Y-117086747D01*
X115389300Y-117098064D01*
X115384663Y-117109163D01*
X115379408Y-117120046D01*
X115373535Y-117130710D01*
X115367043Y-117141157D01*
X115359934Y-117151387D01*
X115352206Y-117161399D01*
X115343859Y-117171194D01*
X115334895Y-117180771D01*
X115325312Y-117190130D01*
X115334895Y-117199069D01*
X115343859Y-117208238D01*
X115352206Y-117217639D01*
X115359934Y-117227270D01*
X115367043Y-117237132D01*
X115373535Y-117247226D01*
X115379408Y-117257550D01*
X115384663Y-117268105D01*
X115389300Y-117278890D01*
X115393318Y-117289907D01*
X115396719Y-117301155D01*
X115399501Y-117312633D01*
X115401665Y-117324342D01*
X115403210Y-117336283D01*
X115404138Y-117348454D01*
X115404447Y-117360856D01*
X115404447Y-117408483D01*
X115404183Y-117420129D01*
X115403390Y-117431560D01*
X115402068Y-117442775D01*
X115400218Y-117453775D01*
X115397840Y-117464559D01*
X115394933Y-117475127D01*
X115391497Y-117485480D01*
X115387533Y-117495617D01*
X115383040Y-117505538D01*
X115378019Y-117515244D01*
X115372469Y-117524734D01*
X115366391Y-117534009D01*
X115359784Y-117543068D01*
X115352648Y-117551911D01*
X115344984Y-117560539D01*
X115336792Y-117568951D01*
X115328226Y-117577025D01*
X115319443Y-117584578D01*
X115310442Y-117591611D01*
X115301224Y-117598122D01*
X115291788Y-117604113D01*
X115282135Y-117609583D01*
X115272264Y-117614532D01*
X115262175Y-117618959D01*
X115251869Y-117622866D01*
X115241346Y-117626252D01*
X115230605Y-117629117D01*
X115219647Y-117631462D01*
X115208471Y-117633285D01*
X115197077Y-117634587D01*
X115185466Y-117635368D01*
X115173637Y-117635629D01*
X114820462Y-117635629D01*
X114820462Y-117244840D01*
X114935745Y-117244840D01*
X114935745Y-117526208D01*
X115170706Y-117526208D01*
X115182342Y-117525666D01*
X115193558Y-117524040D01*
X115204355Y-117521331D01*
X115214731Y-117517538D01*
X115224688Y-117512660D01*
X115234225Y-117506699D01*
X115243342Y-117499654D01*
X115252039Y-117491526D01*
X115260053Y-117482699D01*
X115266999Y-117473436D01*
X115272876Y-117463739D01*
X115277685Y-117453607D01*
X115281425Y-117443040D01*
X115284096Y-117432037D01*
X115285699Y-117420600D01*
X115286233Y-117408727D01*
X115286233Y-117361100D01*
X115285695Y-117349346D01*
X115284081Y-117338019D01*
X115281390Y-117327120D01*
X115277624Y-117316648D01*
X115272781Y-117306603D01*
X115266862Y-117296986D01*
X115259866Y-117287797D01*
X115251795Y-117279034D01*
X115243048Y-117271020D01*
X115233904Y-117264075D01*
X115224364Y-117258197D01*
X115214426Y-117253389D01*
X115204091Y-117249649D01*
X115193360Y-117246978D01*
X115182232Y-117245375D01*
X115170706Y-117244840D01*
X114935745Y-117244840D01*
X114820462Y-117244840D01*
X114820462Y-116838420D01*
X114937210Y-116838420D01*
X114937210Y-117135420D01*
X115170706Y-117135420D01*
X115182400Y-117134851D01*
X115193665Y-117133145D01*
X115204504Y-117130302D01*
X115214914Y-117126322D01*
X115224898Y-117121204D01*
X115234454Y-117114949D01*
X115243582Y-117107557D01*
X115252284Y-117099027D01*
X115260240Y-117089700D01*
X115267137Y-117079915D01*
X115272972Y-117069672D01*
X115277746Y-117058972D01*
X115281459Y-117047813D01*
X115284111Y-117036196D01*
X115285703Y-117024121D01*
X115286233Y-117011588D01*
X115286233Y-116960786D01*
X115285695Y-116948429D01*
X115284081Y-116936514D01*
X115281390Y-116925043D01*
X115277624Y-116914013D01*
X115272781Y-116903427D01*
X115266862Y-116893283D01*
X115259866Y-116883582D01*
X115251795Y-116874324D01*
X115243048Y-116865909D01*
X115233904Y-116858616D01*
X115224364Y-116852445D01*
X115214426Y-116847396D01*
X115204091Y-116843469D01*
X115193360Y-116840664D01*
X115182232Y-116838981D01*
X115170706Y-116838420D01*
X114937210Y-116838420D01*
X114820462Y-116838420D01*
X114820462Y-116729000D01*
X115173637Y-116729000D01*
X115185466Y-116729269D01*
G37*
G36*
X116035247Y-116729254D02*
G01*
X116049715Y-116730592D01*
X116064101Y-116733075D01*
X116073646Y-116735368D01*
X116083156Y-116738170D01*
X116092629Y-116741482D01*
X116102065Y-116745303D01*
X116111466Y-116749633D01*
X116120830Y-116754473D01*
X116130158Y-116759823D01*
X116139450Y-116765682D01*
X116148705Y-116772050D01*
X116157925Y-116778928D01*
X116167108Y-116786315D01*
X116176254Y-116794212D01*
X116185127Y-116802439D01*
X116193428Y-116810756D01*
X116201156Y-116819162D01*
X116208311Y-116827658D01*
X116214894Y-116836244D01*
X116220905Y-116844919D01*
X116226343Y-116853685D01*
X116231209Y-116862539D01*
X116235502Y-116871484D01*
X116239223Y-116880518D01*
X116243731Y-116894237D01*
X116246951Y-116908158D01*
X116248883Y-116922281D01*
X116249527Y-116936606D01*
X116249527Y-117177918D01*
X116248883Y-117192502D01*
X116246951Y-117206855D01*
X116243731Y-117220976D01*
X116239223Y-117234865D01*
X116235502Y-117243995D01*
X116231209Y-117253023D01*
X116226343Y-117261947D01*
X116220905Y-117270768D01*
X116214894Y-117279487D01*
X116208311Y-117288102D01*
X116201156Y-117296614D01*
X116193428Y-117305023D01*
X116185127Y-117313330D01*
X116176254Y-117321533D01*
X116171685Y-117325544D01*
X116162521Y-117333176D01*
X116153319Y-117340290D01*
X116144082Y-117346884D01*
X116134809Y-117352960D01*
X116125499Y-117358516D01*
X116116153Y-117363554D01*
X116106770Y-117368072D01*
X116097352Y-117372072D01*
X116087897Y-117375552D01*
X116078406Y-117378514D01*
X116068878Y-117380956D01*
X116054519Y-117383647D01*
X116040079Y-117385169D01*
X116025556Y-117385524D01*
X115890246Y-117385524D01*
X115880003Y-117385265D01*
X115869852Y-117384486D01*
X115859792Y-117383189D01*
X115849824Y-117381372D01*
X115839947Y-117379037D01*
X115830162Y-117376182D01*
X115820469Y-117372808D01*
X115810867Y-117368916D01*
X115801357Y-117364504D01*
X115791938Y-117359573D01*
X115782611Y-117354124D01*
X115773376Y-117348155D01*
X115764232Y-117341667D01*
X115755180Y-117334661D01*
X115746219Y-117327135D01*
X115737350Y-117319090D01*
X115733022Y-117314945D01*
X115724779Y-117306602D01*
X115717085Y-117298191D01*
X115709941Y-117289711D01*
X115703347Y-117281163D01*
X115697302Y-117272546D01*
X115691806Y-117263860D01*
X115686860Y-117255105D01*
X115682464Y-117246282D01*
X115676900Y-117232918D01*
X115672572Y-117219400D01*
X115669481Y-117205727D01*
X115667626Y-117191900D01*
X115667008Y-117177918D01*
X115667008Y-117175964D01*
X115783756Y-117175964D01*
X115783777Y-117177770D01*
X115784773Y-117188154D01*
X115787263Y-117197765D01*
X115792056Y-117208002D01*
X115797784Y-117215939D01*
X115805005Y-117223103D01*
X115844084Y-117257297D01*
X115851230Y-117262715D01*
X115860939Y-117268004D01*
X115871884Y-117271971D01*
X115881949Y-117274267D01*
X115892873Y-117275644D01*
X115904656Y-117276103D01*
X116024091Y-117276103D01*
X116034192Y-117275494D01*
X116043794Y-117273665D01*
X116054368Y-117269990D01*
X116064264Y-117264656D01*
X116072207Y-117258762D01*
X116112751Y-117226034D01*
X116116549Y-117222759D01*
X116123023Y-117215242D01*
X116128003Y-117206438D01*
X116131489Y-117196346D01*
X116133481Y-117184966D01*
X116134000Y-117174498D01*
X116134000Y-116937827D01*
X116133253Y-116927117D01*
X116131012Y-116917334D01*
X116126509Y-116907092D01*
X116119972Y-116898113D01*
X116112751Y-116891421D01*
X116077580Y-116859914D01*
X116074566Y-116857311D01*
X116065261Y-116850510D01*
X116055561Y-116845221D01*
X116045466Y-116841443D01*
X116034976Y-116839176D01*
X116024091Y-116838420D01*
X115890246Y-116838420D01*
X115888624Y-116838432D01*
X115877912Y-116839199D01*
X115868321Y-116841157D01*
X115858735Y-116844855D01*
X115849702Y-116850877D01*
X115806471Y-116888490D01*
X115803720Y-116890892D01*
X115796533Y-116898718D01*
X115790943Y-116907470D01*
X115786950Y-116917150D01*
X115784555Y-116927758D01*
X115783756Y-116939293D01*
X115783756Y-117175964D01*
X115667008Y-117175964D01*
X115667008Y-116936606D01*
X115667289Y-116927266D01*
X115668767Y-116913383D01*
X115671511Y-116899649D01*
X115675522Y-116886066D01*
X115680799Y-116872632D01*
X115685021Y-116863760D01*
X115689805Y-116854955D01*
X115695153Y-116846217D01*
X115701064Y-116837545D01*
X115707537Y-116828941D01*
X115714573Y-116820403D01*
X115722172Y-116811931D01*
X115730335Y-116803527D01*
X115739060Y-116795189D01*
X115748122Y-116787174D01*
X115757237Y-116779676D01*
X115766402Y-116772695D01*
X115775620Y-116766231D01*
X115784888Y-116760285D01*
X115794209Y-116754855D01*
X115803581Y-116749942D01*
X115813004Y-116745547D01*
X115822479Y-116741669D01*
X115832005Y-116738307D01*
X115841583Y-116735463D01*
X115851213Y-116733136D01*
X115860894Y-116731326D01*
X115870626Y-116730034D01*
X115880410Y-116729258D01*
X115890246Y-116729000D01*
X116025556Y-116729000D01*
X116035247Y-116729254D01*
G37*
G36*
X116918752Y-116729000D02*
G01*
X116803226Y-116729000D01*
X116790027Y-116729446D01*
X116777177Y-116730786D01*
X116764674Y-116733018D01*
X116752518Y-116736144D01*
X116740711Y-116740162D01*
X116729252Y-116745074D01*
X116718140Y-116750878D01*
X116707376Y-116757576D01*
X116696959Y-116765167D01*
X116686891Y-116773650D01*
X116680371Y-116779802D01*
X116671162Y-116789508D01*
X116662858Y-116799574D01*
X116655459Y-116810001D01*
X116648967Y-116820789D01*
X116643381Y-116831937D01*
X116638700Y-116843446D01*
X116634926Y-116855316D01*
X116632057Y-116867546D01*
X116630094Y-116880137D01*
X116629038Y-116893089D01*
X116628836Y-116901923D01*
X116628836Y-117276103D01*
X116569729Y-117276103D01*
X116559596Y-117276851D01*
X116548846Y-117279538D01*
X116538981Y-117284179D01*
X116530001Y-117290773D01*
X116528941Y-117291735D01*
X116521568Y-117300039D01*
X116516301Y-117309321D01*
X116513141Y-117319579D01*
X116512105Y-117329356D01*
X116512088Y-117330814D01*
X116513141Y-117341744D01*
X116516301Y-117351819D01*
X116521568Y-117361039D01*
X116528941Y-117369404D01*
X116536653Y-117375685D01*
X116546297Y-117380975D01*
X116556826Y-117384249D01*
X116566765Y-117385461D01*
X116569729Y-117385524D01*
X116630057Y-117385524D01*
X116630057Y-117529872D01*
X116630864Y-117540207D01*
X116633283Y-117549841D01*
X116637315Y-117558773D01*
X116642960Y-117567004D01*
X116646910Y-117571393D01*
X116654622Y-117578150D01*
X116663012Y-117583247D01*
X116673431Y-117587041D01*
X116683273Y-117588582D01*
X116687699Y-117588734D01*
X116698735Y-117587635D01*
X116709131Y-117584338D01*
X116718885Y-117578842D01*
X116726895Y-117572231D01*
X116727999Y-117571149D01*
X116734851Y-117563246D01*
X116740020Y-117554713D01*
X116743506Y-117545548D01*
X116745310Y-117535753D01*
X116745584Y-117529872D01*
X116745584Y-117385524D01*
X116977859Y-117385524D01*
X116987718Y-117384741D01*
X116998270Y-117381929D01*
X117008059Y-117377070D01*
X117015998Y-117371142D01*
X117018159Y-117369160D01*
X117024916Y-117361815D01*
X117030606Y-117352706D01*
X117034129Y-117342833D01*
X117035484Y-117332197D01*
X117035501Y-117330814D01*
X117034417Y-117319869D01*
X117031165Y-117309748D01*
X117025746Y-117300451D01*
X117019226Y-117292993D01*
X117018159Y-117291979D01*
X117010387Y-117285793D01*
X117000789Y-117280584D01*
X116990428Y-117277359D01*
X116979303Y-117276119D01*
X116977859Y-117276103D01*
X116744119Y-117276103D01*
X116744119Y-116896794D01*
X116744960Y-116886733D01*
X116747485Y-116877280D01*
X116751692Y-116868434D01*
X116757583Y-116860196D01*
X116761704Y-116855762D01*
X116769702Y-116849005D01*
X116778307Y-116843907D01*
X116787520Y-116840469D01*
X116797341Y-116838691D01*
X116803226Y-116838420D01*
X116916066Y-116838420D01*
X116927064Y-116839153D01*
X116937101Y-116841351D01*
X116946176Y-116845015D01*
X116956168Y-116851655D01*
X116963079Y-116858616D01*
X116969029Y-116867043D01*
X116974017Y-116876934D01*
X116977127Y-116885315D01*
X116981351Y-116896306D01*
X116986454Y-116905831D01*
X116992434Y-116913891D01*
X117001143Y-116921906D01*
X117011224Y-116927630D01*
X117022677Y-116931065D01*
X117032826Y-116932164D01*
X117035501Y-116932210D01*
X117046169Y-116931450D01*
X117055950Y-116929171D01*
X117066040Y-116924706D01*
X117074971Y-116918256D01*
X117077022Y-116916334D01*
X117084074Y-116907877D01*
X117089112Y-116898382D01*
X117092134Y-116887849D01*
X117093126Y-116877781D01*
X117093142Y-116876278D01*
X117092375Y-116863947D01*
X117090074Y-116851625D01*
X117086238Y-116839309D01*
X117082355Y-116830078D01*
X117077609Y-116820851D01*
X117071999Y-116811628D01*
X117065527Y-116802410D01*
X117058192Y-116793196D01*
X117049994Y-116783986D01*
X117044049Y-116777848D01*
X117034606Y-116769118D01*
X117024686Y-116761247D01*
X117014290Y-116754235D01*
X117003417Y-116748081D01*
X116992068Y-116742786D01*
X116980242Y-116738349D01*
X116967939Y-116734772D01*
X116955160Y-116732053D01*
X116941904Y-116730192D01*
X116928172Y-116729190D01*
X116918752Y-116729000D01*
G37*
G36*
X117763833Y-116729000D02*
G01*
X117648306Y-116729000D01*
X117635107Y-116729446D01*
X117622257Y-116730786D01*
X117609754Y-116733018D01*
X117597599Y-116736144D01*
X117585791Y-116740162D01*
X117574332Y-116745074D01*
X117563220Y-116750878D01*
X117552456Y-116757576D01*
X117542039Y-116765167D01*
X117531971Y-116773650D01*
X117525452Y-116779802D01*
X117516242Y-116789508D01*
X117507938Y-116799574D01*
X117500540Y-116810001D01*
X117494047Y-116820789D01*
X117488461Y-116831937D01*
X117483781Y-116843446D01*
X117480006Y-116855316D01*
X117477137Y-116867546D01*
X117475175Y-116880137D01*
X117474118Y-116893089D01*
X117473916Y-116901923D01*
X117473916Y-117276103D01*
X117414810Y-117276103D01*
X117404677Y-117276851D01*
X117393926Y-117279538D01*
X117384061Y-117284179D01*
X117375081Y-117290773D01*
X117374021Y-117291735D01*
X117366648Y-117300039D01*
X117361382Y-117309321D01*
X117358222Y-117319579D01*
X117357185Y-117329356D01*
X117357168Y-117330814D01*
X117358222Y-117341744D01*
X117361382Y-117351819D01*
X117366648Y-117361039D01*
X117374021Y-117369404D01*
X117381733Y-117375685D01*
X117391377Y-117380975D01*
X117401906Y-117384249D01*
X117411845Y-117385461D01*
X117414810Y-117385524D01*
X117475138Y-117385524D01*
X117475138Y-117529872D01*
X117475944Y-117540207D01*
X117478363Y-117549841D01*
X117482396Y-117558773D01*
X117488041Y-117567004D01*
X117491990Y-117571393D01*
X117499702Y-117578150D01*
X117508092Y-117583247D01*
X117518511Y-117587041D01*
X117528353Y-117588582D01*
X117532779Y-117588734D01*
X117543816Y-117587635D01*
X117554211Y-117584338D01*
X117563966Y-117578842D01*
X117571975Y-117572231D01*
X117573079Y-117571149D01*
X117579931Y-117563246D01*
X117585100Y-117554713D01*
X117588587Y-117545548D01*
X117590390Y-117535753D01*
X117590665Y-117529872D01*
X117590665Y-117385524D01*
X117822939Y-117385524D01*
X117832799Y-117384741D01*
X117843351Y-117381929D01*
X117853139Y-117377070D01*
X117861079Y-117371142D01*
X117863240Y-117369160D01*
X117869997Y-117361815D01*
X117875687Y-117352706D01*
X117879209Y-117342833D01*
X117880564Y-117332197D01*
X117880581Y-117330814D01*
X117879497Y-117319869D01*
X117876245Y-117309748D01*
X117870826Y-117300451D01*
X117864306Y-117292993D01*
X117863240Y-117291979D01*
X117855467Y-117285793D01*
X117845869Y-117280584D01*
X117835508Y-117277359D01*
X117824384Y-117276119D01*
X117822939Y-117276103D01*
X117589199Y-117276103D01*
X117589199Y-116896794D01*
X117590041Y-116886733D01*
X117592565Y-116877280D01*
X117596773Y-116868434D01*
X117602663Y-116860196D01*
X117606785Y-116855762D01*
X117614782Y-116849005D01*
X117623387Y-116843907D01*
X117632600Y-116840469D01*
X117642421Y-116838691D01*
X117648306Y-116838420D01*
X117761146Y-116838420D01*
X117772145Y-116839153D01*
X117782181Y-116841351D01*
X117791257Y-116845015D01*
X117801248Y-116851655D01*
X117808159Y-116858616D01*
X117814109Y-116867043D01*
X117819097Y-116876934D01*
X117822207Y-116885315D01*
X117826431Y-116896306D01*
X117831534Y-116905831D01*
X117837514Y-116913891D01*
X117846223Y-116921906D01*
X117856304Y-116927630D01*
X117867757Y-116931065D01*
X117877906Y-116932164D01*
X117880581Y-116932210D01*
X117891250Y-116931450D01*
X117901030Y-116929171D01*
X117911121Y-116924706D01*
X117920051Y-116918256D01*
X117922102Y-116916334D01*
X117929155Y-116907877D01*
X117934192Y-116898382D01*
X117937215Y-116887849D01*
X117938206Y-116877781D01*
X117938222Y-116876278D01*
X117937455Y-116863947D01*
X117935154Y-116851625D01*
X117931318Y-116839309D01*
X117927435Y-116830078D01*
X117922689Y-116820851D01*
X117917080Y-116811628D01*
X117910607Y-116802410D01*
X117903272Y-116793196D01*
X117895074Y-116783986D01*
X117889129Y-116777848D01*
X117879686Y-116769118D01*
X117869766Y-116761247D01*
X117859370Y-116754235D01*
X117848497Y-116748081D01*
X117837148Y-116742786D01*
X117825322Y-116738349D01*
X117813019Y-116734772D01*
X117800240Y-116732053D01*
X117786985Y-116730192D01*
X117773252Y-116729190D01*
X117763833Y-116729000D01*
G37*
G36*
X118570488Y-116729254D02*
G01*
X118584955Y-116730592D01*
X118599342Y-116733075D01*
X118608887Y-116735368D01*
X118618396Y-116738170D01*
X118627869Y-116741482D01*
X118637306Y-116745303D01*
X118646707Y-116749633D01*
X118656071Y-116754473D01*
X118665399Y-116759823D01*
X118674691Y-116765682D01*
X118683946Y-116772050D01*
X118693165Y-116778928D01*
X118702348Y-116786315D01*
X118711495Y-116794212D01*
X118720368Y-116802439D01*
X118728668Y-116810756D01*
X118736396Y-116819162D01*
X118743552Y-116827658D01*
X118750135Y-116836244D01*
X118756146Y-116844919D01*
X118761584Y-116853685D01*
X118766450Y-116862539D01*
X118770743Y-116871484D01*
X118774464Y-116880518D01*
X118778972Y-116894237D01*
X118782192Y-116908158D01*
X118784124Y-116922281D01*
X118784768Y-116936606D01*
X118784768Y-117177918D01*
X118784124Y-117192502D01*
X118782192Y-117206855D01*
X118778972Y-117220976D01*
X118774464Y-117234865D01*
X118770743Y-117243995D01*
X118766450Y-117253023D01*
X118761584Y-117261947D01*
X118756146Y-117270768D01*
X118750135Y-117279487D01*
X118743552Y-117288102D01*
X118736396Y-117296614D01*
X118728668Y-117305023D01*
X118720368Y-117313330D01*
X118711495Y-117321533D01*
X118706926Y-117325544D01*
X118697761Y-117333176D01*
X118688560Y-117340290D01*
X118679323Y-117346884D01*
X118670049Y-117352960D01*
X118660739Y-117358516D01*
X118651393Y-117363554D01*
X118642011Y-117368072D01*
X118632592Y-117372072D01*
X118623137Y-117375552D01*
X118613646Y-117378514D01*
X118604119Y-117380956D01*
X118589760Y-117383647D01*
X118575319Y-117385169D01*
X118560797Y-117385524D01*
X118425487Y-117385524D01*
X118415244Y-117385265D01*
X118405092Y-117384486D01*
X118395033Y-117383189D01*
X118385064Y-117381372D01*
X118375188Y-117379037D01*
X118365403Y-117376182D01*
X118355709Y-117372808D01*
X118346108Y-117368916D01*
X118336597Y-117364504D01*
X118327179Y-117359573D01*
X118317852Y-117354124D01*
X118308616Y-117348155D01*
X118299473Y-117341667D01*
X118290420Y-117334661D01*
X118281460Y-117327135D01*
X118272591Y-117319090D01*
X118268263Y-117314945D01*
X118260020Y-117306602D01*
X118252326Y-117298191D01*
X118245182Y-117289711D01*
X118238587Y-117281163D01*
X118232542Y-117272546D01*
X118227047Y-117263860D01*
X118222101Y-117255105D01*
X118217705Y-117246282D01*
X118212140Y-117232918D01*
X118207813Y-117219400D01*
X118204722Y-117205727D01*
X118202867Y-117191900D01*
X118202249Y-117177918D01*
X118202249Y-117175964D01*
X118318997Y-117175964D01*
X118319017Y-117177770D01*
X118320014Y-117188154D01*
X118322504Y-117197765D01*
X118327297Y-117208002D01*
X118333024Y-117215939D01*
X118340246Y-117223103D01*
X118379325Y-117257297D01*
X118386471Y-117262715D01*
X118396179Y-117268004D01*
X118407124Y-117271971D01*
X118417190Y-117274267D01*
X118428114Y-117275644D01*
X118439897Y-117276103D01*
X118559332Y-117276103D01*
X118569432Y-117275494D01*
X118579035Y-117273665D01*
X118589609Y-117269990D01*
X118599505Y-117264656D01*
X118607448Y-117258762D01*
X118647992Y-117226034D01*
X118651789Y-117222759D01*
X118658264Y-117215242D01*
X118663244Y-117206438D01*
X118666730Y-117196346D01*
X118668722Y-117184966D01*
X118669241Y-117174498D01*
X118669241Y-116937827D01*
X118668494Y-116927117D01*
X118666253Y-116917334D01*
X118661750Y-116907092D01*
X118655213Y-116898113D01*
X118647992Y-116891421D01*
X118612821Y-116859914D01*
X118609807Y-116857311D01*
X118600502Y-116850510D01*
X118590802Y-116845221D01*
X118580707Y-116841443D01*
X118570217Y-116839176D01*
X118559332Y-116838420D01*
X118425487Y-116838420D01*
X118423865Y-116838432D01*
X118413152Y-116839199D01*
X118403562Y-116841157D01*
X118393975Y-116844855D01*
X118384942Y-116850877D01*
X118341711Y-116888490D01*
X118338961Y-116890892D01*
X118331774Y-116898718D01*
X118326184Y-116907470D01*
X118322191Y-116917150D01*
X118319795Y-116927758D01*
X118318997Y-116939293D01*
X118318997Y-117175964D01*
X118202249Y-117175964D01*
X118202249Y-116936606D01*
X118202530Y-116927266D01*
X118204008Y-116913383D01*
X118206752Y-116899649D01*
X118210763Y-116886066D01*
X118216040Y-116872632D01*
X118220262Y-116863760D01*
X118225046Y-116854955D01*
X118230394Y-116846217D01*
X118236304Y-116837545D01*
X118242778Y-116828941D01*
X118249814Y-116820403D01*
X118257413Y-116811931D01*
X118265575Y-116803527D01*
X118274300Y-116795189D01*
X118283363Y-116787174D01*
X118292477Y-116779676D01*
X118301643Y-116772695D01*
X118310860Y-116766231D01*
X118320129Y-116760285D01*
X118329450Y-116754855D01*
X118338821Y-116749942D01*
X118348245Y-116745547D01*
X118357720Y-116741669D01*
X118367246Y-116738307D01*
X118376824Y-116735463D01*
X118386454Y-116733136D01*
X118396135Y-116731326D01*
X118405867Y-116730034D01*
X118415651Y-116729258D01*
X118425487Y-116729000D01*
X118560797Y-116729000D01*
X118570488Y-116729254D01*
G37*
G36*
X119034140Y-116786152D02*
G01*
X119034140Y-117328371D01*
X119034946Y-117338493D01*
X119037843Y-117349201D01*
X119042846Y-117358994D01*
X119048952Y-117366811D01*
X119050993Y-117368916D01*
X119058705Y-117375387D01*
X119068348Y-117380837D01*
X119078877Y-117384211D01*
X119088817Y-117385459D01*
X119091781Y-117385524D01*
X119102440Y-117384860D01*
X119112068Y-117382868D01*
X119122655Y-117378510D01*
X119131632Y-117372078D01*
X119138998Y-117363570D01*
X119144755Y-117352987D01*
X119148201Y-117343026D01*
X119157319Y-117350621D01*
X119166631Y-117357469D01*
X119176136Y-117363570D01*
X119185834Y-117368923D01*
X119195725Y-117373530D01*
X119205809Y-117377390D01*
X119216087Y-117380503D01*
X119226557Y-117382868D01*
X119237221Y-117384487D01*
X119248078Y-117385358D01*
X119255424Y-117385524D01*
X119268213Y-117385037D01*
X119280568Y-117383575D01*
X119292490Y-117381139D01*
X119303978Y-117377728D01*
X119315033Y-117373342D01*
X119325654Y-117367982D01*
X119335841Y-117361647D01*
X119345595Y-117354338D01*
X119354915Y-117346054D01*
X119363802Y-117336795D01*
X119369485Y-117330081D01*
X119379886Y-117339989D01*
X119390480Y-117348923D01*
X119401267Y-117356882D01*
X119412247Y-117363867D01*
X119423420Y-117369877D01*
X119434787Y-117374912D01*
X119446347Y-117378973D01*
X119458100Y-117382059D01*
X119470046Y-117384171D01*
X119482185Y-117385308D01*
X119490385Y-117385524D01*
X119500292Y-117385192D01*
X119513121Y-117383713D01*
X119525514Y-117381051D01*
X119537473Y-117377206D01*
X119548996Y-117372178D01*
X119560084Y-117365967D01*
X119570737Y-117358573D01*
X119578442Y-117352251D01*
X119583442Y-117347667D01*
X119590537Y-117340432D01*
X119596983Y-117332832D01*
X119602781Y-117324867D01*
X119607931Y-117316537D01*
X119612433Y-117307842D01*
X119616286Y-117298783D01*
X119619491Y-117289358D01*
X119622048Y-117279569D01*
X119623956Y-117269414D01*
X119625216Y-117258895D01*
X119625696Y-117251679D01*
X119642060Y-116785908D01*
X119641230Y-116776144D01*
X119638250Y-116765672D01*
X119633102Y-116755933D01*
X119626819Y-116748012D01*
X119624719Y-116745852D01*
X119616947Y-116739286D01*
X119607349Y-116733756D01*
X119596988Y-116730333D01*
X119587295Y-116729065D01*
X119584419Y-116729000D01*
X119574179Y-116729818D01*
X119564617Y-116732272D01*
X119555733Y-116736363D01*
X119547527Y-116742089D01*
X119543142Y-116746096D01*
X119536445Y-116753964D01*
X119531314Y-116762392D01*
X119527368Y-116772711D01*
X119525593Y-116782342D01*
X119525312Y-116786641D01*
X119511635Y-117238979D01*
X119510694Y-117249674D01*
X119508289Y-117260115D01*
X119503726Y-117268998D01*
X119495077Y-117275197D01*
X119488920Y-117276103D01*
X119478568Y-117274140D01*
X119469547Y-117269331D01*
X119464984Y-117265845D01*
X119396108Y-117207960D01*
X119396108Y-116785420D01*
X119395301Y-116775489D01*
X119392405Y-116764940D01*
X119387402Y-116755247D01*
X119381296Y-116747467D01*
X119379255Y-116745364D01*
X119371543Y-116738987D01*
X119361899Y-116733618D01*
X119351370Y-116730294D01*
X119341431Y-116729063D01*
X119338466Y-116729000D01*
X119328512Y-116729806D01*
X119317880Y-116732702D01*
X119308041Y-116737706D01*
X119300084Y-116743811D01*
X119297922Y-116745852D01*
X119291260Y-116753576D01*
X119286235Y-116762001D01*
X119282495Y-116772488D01*
X119280975Y-116782416D01*
X119280825Y-116786885D01*
X119280825Y-117246550D01*
X119279932Y-117256594D01*
X119275963Y-117266753D01*
X119267703Y-117273766D01*
X119256987Y-117276075D01*
X119255424Y-117276103D01*
X119245666Y-117274612D01*
X119236633Y-117270138D01*
X119232709Y-117267066D01*
X119149667Y-117196969D01*
X119149667Y-116786641D01*
X119148872Y-116776686D01*
X119146017Y-116766054D01*
X119141087Y-116756216D01*
X119135069Y-116748258D01*
X119133058Y-116746096D01*
X119125560Y-116739435D01*
X119116160Y-116733825D01*
X119105875Y-116730352D01*
X119096150Y-116729066D01*
X119093247Y-116729000D01*
X119083078Y-116729806D01*
X119073518Y-116732225D01*
X119064566Y-116736257D01*
X119056221Y-116741902D01*
X119051725Y-116745852D01*
X119044873Y-116753624D01*
X119039704Y-116761981D01*
X119035857Y-116772247D01*
X119034208Y-116783276D01*
X119034140Y-116786152D01*
G37*
D11*
X145069295Y-113031999D02*
X145105010Y-112996285D01*
X145105010Y-112996285D02*
X145140724Y-112889142D01*
X145140724Y-112889142D02*
X145140724Y-112817714D01*
X145140724Y-112817714D02*
X145105010Y-112710571D01*
X145105010Y-112710571D02*
X145033581Y-112639142D01*
X145033581Y-112639142D02*
X144962152Y-112603428D01*
X144962152Y-112603428D02*
X144819295Y-112567714D01*
X144819295Y-112567714D02*
X144712152Y-112567714D01*
X144712152Y-112567714D02*
X144569295Y-112603428D01*
X144569295Y-112603428D02*
X144497867Y-112639142D01*
X144497867Y-112639142D02*
X144426438Y-112710571D01*
X144426438Y-112710571D02*
X144390724Y-112817714D01*
X144390724Y-112817714D02*
X144390724Y-112889142D01*
X144390724Y-112889142D02*
X144426438Y-112996285D01*
X144426438Y-112996285D02*
X144462152Y-113031999D01*
X144390724Y-113710571D02*
X144390724Y-113353428D01*
X144390724Y-113353428D02*
X144747867Y-113317714D01*
X144747867Y-113317714D02*
X144712152Y-113353428D01*
X144712152Y-113353428D02*
X144676438Y-113424857D01*
X144676438Y-113424857D02*
X144676438Y-113603428D01*
X144676438Y-113603428D02*
X144712152Y-113674857D01*
X144712152Y-113674857D02*
X144747867Y-113710571D01*
X144747867Y-113710571D02*
X144819295Y-113746285D01*
X144819295Y-113746285D02*
X144997867Y-113746285D01*
X144997867Y-113746285D02*
X145069295Y-113710571D01*
X145069295Y-113710571D02*
X145105010Y-113674857D01*
X145105010Y-113674857D02*
X145140724Y-113603428D01*
X145140724Y-113603428D02*
X145140724Y-113424857D01*
X145140724Y-113424857D02*
X145105010Y-113353428D01*
X145105010Y-113353428D02*
X145069295Y-113317714D01*
X134869295Y-113031999D02*
X134905010Y-112996285D01*
X134905010Y-112996285D02*
X134940724Y-112889142D01*
X134940724Y-112889142D02*
X134940724Y-112817714D01*
X134940724Y-112817714D02*
X134905010Y-112710571D01*
X134905010Y-112710571D02*
X134833581Y-112639142D01*
X134833581Y-112639142D02*
X134762152Y-112603428D01*
X134762152Y-112603428D02*
X134619295Y-112567714D01*
X134619295Y-112567714D02*
X134512152Y-112567714D01*
X134512152Y-112567714D02*
X134369295Y-112603428D01*
X134369295Y-112603428D02*
X134297867Y-112639142D01*
X134297867Y-112639142D02*
X134226438Y-112710571D01*
X134226438Y-112710571D02*
X134190724Y-112817714D01*
X134190724Y-112817714D02*
X134190724Y-112889142D01*
X134190724Y-112889142D02*
X134226438Y-112996285D01*
X134226438Y-112996285D02*
X134262152Y-113031999D01*
X134940724Y-113746285D02*
X134940724Y-113317714D01*
X134940724Y-113531999D02*
X134190724Y-113531999D01*
X134190724Y-113531999D02*
X134297867Y-113460571D01*
X134297867Y-113460571D02*
X134369295Y-113389142D01*
X134369295Y-113389142D02*
X134405010Y-113317714D01*
X141668428Y-116684724D02*
X141668428Y-117291867D01*
X141668428Y-117291867D02*
X141632714Y-117363295D01*
X141632714Y-117363295D02*
X141597000Y-117399010D01*
X141597000Y-117399010D02*
X141525571Y-117434724D01*
X141525571Y-117434724D02*
X141382714Y-117434724D01*
X141382714Y-117434724D02*
X141311285Y-117399010D01*
X141311285Y-117399010D02*
X141275571Y-117363295D01*
X141275571Y-117363295D02*
X141239857Y-117291867D01*
X141239857Y-117291867D02*
X141239857Y-116684724D01*
X140489857Y-117434724D02*
X140918428Y-117434724D01*
X140704143Y-117434724D02*
X140704143Y-116684724D01*
X140704143Y-116684724D02*
X140775571Y-116791867D01*
X140775571Y-116791867D02*
X140847000Y-116863295D01*
X140847000Y-116863295D02*
X140918428Y-116899010D01*
X156019428Y-115668724D02*
X156019428Y-116275867D01*
X156019428Y-116275867D02*
X155983714Y-116347295D01*
X155983714Y-116347295D02*
X155948000Y-116383010D01*
X155948000Y-116383010D02*
X155876571Y-116418724D01*
X155876571Y-116418724D02*
X155733714Y-116418724D01*
X155733714Y-116418724D02*
X155662285Y-116383010D01*
X155662285Y-116383010D02*
X155626571Y-116347295D01*
X155626571Y-116347295D02*
X155590857Y-116275867D01*
X155590857Y-116275867D02*
X155590857Y-115668724D01*
X155269428Y-115740152D02*
X155233714Y-115704438D01*
X155233714Y-115704438D02*
X155162286Y-115668724D01*
X155162286Y-115668724D02*
X154983714Y-115668724D01*
X154983714Y-115668724D02*
X154912286Y-115704438D01*
X154912286Y-115704438D02*
X154876571Y-115740152D01*
X154876571Y-115740152D02*
X154840857Y-115811581D01*
X154840857Y-115811581D02*
X154840857Y-115883010D01*
X154840857Y-115883010D02*
X154876571Y-115990152D01*
X154876571Y-115990152D02*
X155305143Y-116418724D01*
X155305143Y-116418724D02*
X154840857Y-116418724D01*
X145501724Y-101525623D02*
X145144581Y-101275623D01*
X145501724Y-101097052D02*
X144751724Y-101097052D01*
X144751724Y-101097052D02*
X144751724Y-101382766D01*
X144751724Y-101382766D02*
X144787438Y-101454195D01*
X144787438Y-101454195D02*
X144823152Y-101489909D01*
X144823152Y-101489909D02*
X144894581Y-101525623D01*
X144894581Y-101525623D02*
X145001724Y-101525623D01*
X145001724Y-101525623D02*
X145073152Y-101489909D01*
X145073152Y-101489909D02*
X145108867Y-101454195D01*
X145108867Y-101454195D02*
X145144581Y-101382766D01*
X145144581Y-101382766D02*
X145144581Y-101097052D01*
X145501724Y-102239909D02*
X145501724Y-101811338D01*
X145501724Y-102025623D02*
X144751724Y-102025623D01*
X144751724Y-102025623D02*
X144858867Y-101954195D01*
X144858867Y-101954195D02*
X144930295Y-101882766D01*
X144930295Y-101882766D02*
X144966010Y-101811338D01*
X144751724Y-102489909D02*
X144751724Y-102989909D01*
X144751724Y-102989909D02*
X145501724Y-102668481D01*
X157566724Y-101525623D02*
X157209581Y-101275623D01*
X157566724Y-101097052D02*
X156816724Y-101097052D01*
X156816724Y-101097052D02*
X156816724Y-101382766D01*
X156816724Y-101382766D02*
X156852438Y-101454195D01*
X156852438Y-101454195D02*
X156888152Y-101489909D01*
X156888152Y-101489909D02*
X156959581Y-101525623D01*
X156959581Y-101525623D02*
X157066724Y-101525623D01*
X157066724Y-101525623D02*
X157138152Y-101489909D01*
X157138152Y-101489909D02*
X157173867Y-101454195D01*
X157173867Y-101454195D02*
X157209581Y-101382766D01*
X157209581Y-101382766D02*
X157209581Y-101097052D01*
X157566724Y-102239909D02*
X157566724Y-101811338D01*
X157566724Y-102025623D02*
X156816724Y-102025623D01*
X156816724Y-102025623D02*
X156923867Y-101954195D01*
X156923867Y-101954195D02*
X156995295Y-101882766D01*
X156995295Y-101882766D02*
X157031010Y-101811338D01*
X157138152Y-102668481D02*
X157102438Y-102597052D01*
X157102438Y-102597052D02*
X157066724Y-102561338D01*
X157066724Y-102561338D02*
X156995295Y-102525624D01*
X156995295Y-102525624D02*
X156959581Y-102525624D01*
X156959581Y-102525624D02*
X156888152Y-102561338D01*
X156888152Y-102561338D02*
X156852438Y-102597052D01*
X156852438Y-102597052D02*
X156816724Y-102668481D01*
X156816724Y-102668481D02*
X156816724Y-102811338D01*
X156816724Y-102811338D02*
X156852438Y-102882767D01*
X156852438Y-102882767D02*
X156888152Y-102918481D01*
X156888152Y-102918481D02*
X156959581Y-102954195D01*
X156959581Y-102954195D02*
X156995295Y-102954195D01*
X156995295Y-102954195D02*
X157066724Y-102918481D01*
X157066724Y-102918481D02*
X157102438Y-102882767D01*
X157102438Y-102882767D02*
X157138152Y-102811338D01*
X157138152Y-102811338D02*
X157138152Y-102668481D01*
X157138152Y-102668481D02*
X157173867Y-102597052D01*
X157173867Y-102597052D02*
X157209581Y-102561338D01*
X157209581Y-102561338D02*
X157281010Y-102525624D01*
X157281010Y-102525624D02*
X157423867Y-102525624D01*
X157423867Y-102525624D02*
X157495295Y-102561338D01*
X157495295Y-102561338D02*
X157531010Y-102597052D01*
X157531010Y-102597052D02*
X157566724Y-102668481D01*
X157566724Y-102668481D02*
X157566724Y-102811338D01*
X157566724Y-102811338D02*
X157531010Y-102882767D01*
X157531010Y-102882767D02*
X157495295Y-102918481D01*
X157495295Y-102918481D02*
X157423867Y-102954195D01*
X157423867Y-102954195D02*
X157281010Y-102954195D01*
X157281010Y-102954195D02*
X157209581Y-102918481D01*
X157209581Y-102918481D02*
X157173867Y-102882767D01*
X157173867Y-102882767D02*
X157138152Y-102811338D01*
X139045910Y-112410295D02*
X139081624Y-112446010D01*
X139081624Y-112446010D02*
X139188767Y-112481724D01*
X139188767Y-112481724D02*
X139260195Y-112481724D01*
X139260195Y-112481724D02*
X139367338Y-112446010D01*
X139367338Y-112446010D02*
X139438767Y-112374581D01*
X139438767Y-112374581D02*
X139474481Y-112303152D01*
X139474481Y-112303152D02*
X139510195Y-112160295D01*
X139510195Y-112160295D02*
X139510195Y-112053152D01*
X139510195Y-112053152D02*
X139474481Y-111910295D01*
X139474481Y-111910295D02*
X139438767Y-111838867D01*
X139438767Y-111838867D02*
X139367338Y-111767438D01*
X139367338Y-111767438D02*
X139260195Y-111731724D01*
X139260195Y-111731724D02*
X139188767Y-111731724D01*
X139188767Y-111731724D02*
X139081624Y-111767438D01*
X139081624Y-111767438D02*
X139045910Y-111803152D01*
X138760195Y-111803152D02*
X138724481Y-111767438D01*
X138724481Y-111767438D02*
X138653053Y-111731724D01*
X138653053Y-111731724D02*
X138474481Y-111731724D01*
X138474481Y-111731724D02*
X138403053Y-111767438D01*
X138403053Y-111767438D02*
X138367338Y-111803152D01*
X138367338Y-111803152D02*
X138331624Y-111874581D01*
X138331624Y-111874581D02*
X138331624Y-111946010D01*
X138331624Y-111946010D02*
X138367338Y-112053152D01*
X138367338Y-112053152D02*
X138795910Y-112481724D01*
X138795910Y-112481724D02*
X138331624Y-112481724D01*
X132801724Y-101779623D02*
X132444581Y-101529623D01*
X132801724Y-101351052D02*
X132051724Y-101351052D01*
X132051724Y-101351052D02*
X132051724Y-101636766D01*
X132051724Y-101636766D02*
X132087438Y-101708195D01*
X132087438Y-101708195D02*
X132123152Y-101743909D01*
X132123152Y-101743909D02*
X132194581Y-101779623D01*
X132194581Y-101779623D02*
X132301724Y-101779623D01*
X132301724Y-101779623D02*
X132373152Y-101743909D01*
X132373152Y-101743909D02*
X132408867Y-101708195D01*
X132408867Y-101708195D02*
X132444581Y-101636766D01*
X132444581Y-101636766D02*
X132444581Y-101351052D01*
X132801724Y-102493909D02*
X132801724Y-102065338D01*
X132801724Y-102279623D02*
X132051724Y-102279623D01*
X132051724Y-102279623D02*
X132158867Y-102208195D01*
X132158867Y-102208195D02*
X132230295Y-102136766D01*
X132230295Y-102136766D02*
X132266010Y-102065338D01*
X132051724Y-103136767D02*
X132051724Y-102993909D01*
X132051724Y-102993909D02*
X132087438Y-102922481D01*
X132087438Y-102922481D02*
X132123152Y-102886767D01*
X132123152Y-102886767D02*
X132230295Y-102815338D01*
X132230295Y-102815338D02*
X132373152Y-102779624D01*
X132373152Y-102779624D02*
X132658867Y-102779624D01*
X132658867Y-102779624D02*
X132730295Y-102815338D01*
X132730295Y-102815338D02*
X132766010Y-102851052D01*
X132766010Y-102851052D02*
X132801724Y-102922481D01*
X132801724Y-102922481D02*
X132801724Y-103065338D01*
X132801724Y-103065338D02*
X132766010Y-103136767D01*
X132766010Y-103136767D02*
X132730295Y-103172481D01*
X132730295Y-103172481D02*
X132658867Y-103208195D01*
X132658867Y-103208195D02*
X132480295Y-103208195D01*
X132480295Y-103208195D02*
X132408867Y-103172481D01*
X132408867Y-103172481D02*
X132373152Y-103136767D01*
X132373152Y-103136767D02*
X132337438Y-103065338D01*
X132337438Y-103065338D02*
X132337438Y-102922481D01*
X132337438Y-102922481D02*
X132373152Y-102851052D01*
X132373152Y-102851052D02*
X132408867Y-102815338D01*
X132408867Y-102815338D02*
X132480295Y-102779624D01*
X138643724Y-113796909D02*
X138286581Y-113546909D01*
X138643724Y-113368338D02*
X137893724Y-113368338D01*
X137893724Y-113368338D02*
X137893724Y-113654052D01*
X137893724Y-113654052D02*
X137929438Y-113725481D01*
X137929438Y-113725481D02*
X137965152Y-113761195D01*
X137965152Y-113761195D02*
X138036581Y-113796909D01*
X138036581Y-113796909D02*
X138143724Y-113796909D01*
X138143724Y-113796909D02*
X138215152Y-113761195D01*
X138215152Y-113761195D02*
X138250867Y-113725481D01*
X138250867Y-113725481D02*
X138286581Y-113654052D01*
X138286581Y-113654052D02*
X138286581Y-113368338D01*
X138643724Y-114511195D02*
X138643724Y-114082624D01*
X138643724Y-114296909D02*
X137893724Y-114296909D01*
X137893724Y-114296909D02*
X138000867Y-114225481D01*
X138000867Y-114225481D02*
X138072295Y-114154052D01*
X138072295Y-114154052D02*
X138108010Y-114082624D01*
X124419724Y-108205999D02*
X124062581Y-107955999D01*
X124419724Y-107777428D02*
X123669724Y-107777428D01*
X123669724Y-107777428D02*
X123669724Y-108063142D01*
X123669724Y-108063142D02*
X123705438Y-108134571D01*
X123705438Y-108134571D02*
X123741152Y-108170285D01*
X123741152Y-108170285D02*
X123812581Y-108205999D01*
X123812581Y-108205999D02*
X123919724Y-108205999D01*
X123919724Y-108205999D02*
X123991152Y-108170285D01*
X123991152Y-108170285D02*
X124026867Y-108134571D01*
X124026867Y-108134571D02*
X124062581Y-108063142D01*
X124062581Y-108063142D02*
X124062581Y-107777428D01*
X123669724Y-108884571D02*
X123669724Y-108527428D01*
X123669724Y-108527428D02*
X124026867Y-108491714D01*
X124026867Y-108491714D02*
X123991152Y-108527428D01*
X123991152Y-108527428D02*
X123955438Y-108598857D01*
X123955438Y-108598857D02*
X123955438Y-108777428D01*
X123955438Y-108777428D02*
X123991152Y-108848857D01*
X123991152Y-108848857D02*
X124026867Y-108884571D01*
X124026867Y-108884571D02*
X124098295Y-108920285D01*
X124098295Y-108920285D02*
X124276867Y-108920285D01*
X124276867Y-108920285D02*
X124348295Y-108884571D01*
X124348295Y-108884571D02*
X124384010Y-108848857D01*
X124384010Y-108848857D02*
X124419724Y-108777428D01*
X124419724Y-108777428D02*
X124419724Y-108598857D01*
X124419724Y-108598857D02*
X124384010Y-108527428D01*
X124384010Y-108527428D02*
X124348295Y-108491714D01*
X155700000Y-112664295D02*
X155735714Y-112700010D01*
X155735714Y-112700010D02*
X155842857Y-112735724D01*
X155842857Y-112735724D02*
X155914285Y-112735724D01*
X155914285Y-112735724D02*
X156021428Y-112700010D01*
X156021428Y-112700010D02*
X156092857Y-112628581D01*
X156092857Y-112628581D02*
X156128571Y-112557152D01*
X156128571Y-112557152D02*
X156164285Y-112414295D01*
X156164285Y-112414295D02*
X156164285Y-112307152D01*
X156164285Y-112307152D02*
X156128571Y-112164295D01*
X156128571Y-112164295D02*
X156092857Y-112092867D01*
X156092857Y-112092867D02*
X156021428Y-112021438D01*
X156021428Y-112021438D02*
X155914285Y-111985724D01*
X155914285Y-111985724D02*
X155842857Y-111985724D01*
X155842857Y-111985724D02*
X155735714Y-112021438D01*
X155735714Y-112021438D02*
X155700000Y-112057152D01*
X155057143Y-112235724D02*
X155057143Y-112735724D01*
X155235714Y-111950010D02*
X155414285Y-112485724D01*
X155414285Y-112485724D02*
X154950000Y-112485724D01*
X162646724Y-107954909D02*
X162289581Y-107704909D01*
X162646724Y-107526338D02*
X161896724Y-107526338D01*
X161896724Y-107526338D02*
X161896724Y-107812052D01*
X161896724Y-107812052D02*
X161932438Y-107883481D01*
X161932438Y-107883481D02*
X161968152Y-107919195D01*
X161968152Y-107919195D02*
X162039581Y-107954909D01*
X162039581Y-107954909D02*
X162146724Y-107954909D01*
X162146724Y-107954909D02*
X162218152Y-107919195D01*
X162218152Y-107919195D02*
X162253867Y-107883481D01*
X162253867Y-107883481D02*
X162289581Y-107812052D01*
X162289581Y-107812052D02*
X162289581Y-107526338D01*
X162218152Y-108383481D02*
X162182438Y-108312052D01*
X162182438Y-108312052D02*
X162146724Y-108276338D01*
X162146724Y-108276338D02*
X162075295Y-108240624D01*
X162075295Y-108240624D02*
X162039581Y-108240624D01*
X162039581Y-108240624D02*
X161968152Y-108276338D01*
X161968152Y-108276338D02*
X161932438Y-108312052D01*
X161932438Y-108312052D02*
X161896724Y-108383481D01*
X161896724Y-108383481D02*
X161896724Y-108526338D01*
X161896724Y-108526338D02*
X161932438Y-108597767D01*
X161932438Y-108597767D02*
X161968152Y-108633481D01*
X161968152Y-108633481D02*
X162039581Y-108669195D01*
X162039581Y-108669195D02*
X162075295Y-108669195D01*
X162075295Y-108669195D02*
X162146724Y-108633481D01*
X162146724Y-108633481D02*
X162182438Y-108597767D01*
X162182438Y-108597767D02*
X162218152Y-108526338D01*
X162218152Y-108526338D02*
X162218152Y-108383481D01*
X162218152Y-108383481D02*
X162253867Y-108312052D01*
X162253867Y-108312052D02*
X162289581Y-108276338D01*
X162289581Y-108276338D02*
X162361010Y-108240624D01*
X162361010Y-108240624D02*
X162503867Y-108240624D01*
X162503867Y-108240624D02*
X162575295Y-108276338D01*
X162575295Y-108276338D02*
X162611010Y-108312052D01*
X162611010Y-108312052D02*
X162646724Y-108383481D01*
X162646724Y-108383481D02*
X162646724Y-108526338D01*
X162646724Y-108526338D02*
X162611010Y-108597767D01*
X162611010Y-108597767D02*
X162575295Y-108633481D01*
X162575295Y-108633481D02*
X162503867Y-108669195D01*
X162503867Y-108669195D02*
X162361010Y-108669195D01*
X162361010Y-108669195D02*
X162289581Y-108633481D01*
X162289581Y-108633481D02*
X162253867Y-108597767D01*
X162253867Y-108597767D02*
X162218152Y-108526338D01*
X136992724Y-113796909D02*
X136635581Y-113546909D01*
X136992724Y-113368338D02*
X136242724Y-113368338D01*
X136242724Y-113368338D02*
X136242724Y-113654052D01*
X136242724Y-113654052D02*
X136278438Y-113725481D01*
X136278438Y-113725481D02*
X136314152Y-113761195D01*
X136314152Y-113761195D02*
X136385581Y-113796909D01*
X136385581Y-113796909D02*
X136492724Y-113796909D01*
X136492724Y-113796909D02*
X136564152Y-113761195D01*
X136564152Y-113761195D02*
X136599867Y-113725481D01*
X136599867Y-113725481D02*
X136635581Y-113654052D01*
X136635581Y-113654052D02*
X136635581Y-113368338D01*
X136314152Y-114082624D02*
X136278438Y-114118338D01*
X136278438Y-114118338D02*
X136242724Y-114189767D01*
X136242724Y-114189767D02*
X136242724Y-114368338D01*
X136242724Y-114368338D02*
X136278438Y-114439767D01*
X136278438Y-114439767D02*
X136314152Y-114475481D01*
X136314152Y-114475481D02*
X136385581Y-114511195D01*
X136385581Y-114511195D02*
X136457010Y-114511195D01*
X136457010Y-114511195D02*
X136564152Y-114475481D01*
X136564152Y-114475481D02*
X136992724Y-114046909D01*
X136992724Y-114046909D02*
X136992724Y-114511195D01*
X117758724Y-108205999D02*
X117401581Y-107955999D01*
X117758724Y-107777428D02*
X117008724Y-107777428D01*
X117008724Y-107777428D02*
X117008724Y-108063142D01*
X117008724Y-108063142D02*
X117044438Y-108134571D01*
X117044438Y-108134571D02*
X117080152Y-108170285D01*
X117080152Y-108170285D02*
X117151581Y-108205999D01*
X117151581Y-108205999D02*
X117258724Y-108205999D01*
X117258724Y-108205999D02*
X117330152Y-108170285D01*
X117330152Y-108170285D02*
X117365867Y-108134571D01*
X117365867Y-108134571D02*
X117401581Y-108063142D01*
X117401581Y-108063142D02*
X117401581Y-107777428D01*
X117258724Y-108848857D02*
X117758724Y-108848857D01*
X116973010Y-108670285D02*
X117508724Y-108491714D01*
X117508724Y-108491714D02*
X117508724Y-108955999D01*
X143850724Y-101525623D02*
X143493581Y-101275623D01*
X143850724Y-101097052D02*
X143100724Y-101097052D01*
X143100724Y-101097052D02*
X143100724Y-101382766D01*
X143100724Y-101382766D02*
X143136438Y-101454195D01*
X143136438Y-101454195D02*
X143172152Y-101489909D01*
X143172152Y-101489909D02*
X143243581Y-101525623D01*
X143243581Y-101525623D02*
X143350724Y-101525623D01*
X143350724Y-101525623D02*
X143422152Y-101489909D01*
X143422152Y-101489909D02*
X143457867Y-101454195D01*
X143457867Y-101454195D02*
X143493581Y-101382766D01*
X143493581Y-101382766D02*
X143493581Y-101097052D01*
X143850724Y-102239909D02*
X143850724Y-101811338D01*
X143850724Y-102025623D02*
X143100724Y-102025623D01*
X143100724Y-102025623D02*
X143207867Y-101954195D01*
X143207867Y-101954195D02*
X143279295Y-101882766D01*
X143279295Y-101882766D02*
X143315010Y-101811338D01*
X143100724Y-102489909D02*
X143100724Y-102954195D01*
X143100724Y-102954195D02*
X143386438Y-102704195D01*
X143386438Y-102704195D02*
X143386438Y-102811338D01*
X143386438Y-102811338D02*
X143422152Y-102882767D01*
X143422152Y-102882767D02*
X143457867Y-102918481D01*
X143457867Y-102918481D02*
X143529295Y-102954195D01*
X143529295Y-102954195D02*
X143707867Y-102954195D01*
X143707867Y-102954195D02*
X143779295Y-102918481D01*
X143779295Y-102918481D02*
X143815010Y-102882767D01*
X143815010Y-102882767D02*
X143850724Y-102811338D01*
X143850724Y-102811338D02*
X143850724Y-102597052D01*
X143850724Y-102597052D02*
X143815010Y-102525624D01*
X143815010Y-102525624D02*
X143779295Y-102489909D01*
X123530724Y-101779623D02*
X123173581Y-101529623D01*
X123530724Y-101351052D02*
X122780724Y-101351052D01*
X122780724Y-101351052D02*
X122780724Y-101636766D01*
X122780724Y-101636766D02*
X122816438Y-101708195D01*
X122816438Y-101708195D02*
X122852152Y-101743909D01*
X122852152Y-101743909D02*
X122923581Y-101779623D01*
X122923581Y-101779623D02*
X123030724Y-101779623D01*
X123030724Y-101779623D02*
X123102152Y-101743909D01*
X123102152Y-101743909D02*
X123137867Y-101708195D01*
X123137867Y-101708195D02*
X123173581Y-101636766D01*
X123173581Y-101636766D02*
X123173581Y-101351052D01*
X123530724Y-102493909D02*
X123530724Y-102065338D01*
X123530724Y-102279623D02*
X122780724Y-102279623D01*
X122780724Y-102279623D02*
X122887867Y-102208195D01*
X122887867Y-102208195D02*
X122959295Y-102136766D01*
X122959295Y-102136766D02*
X122995010Y-102065338D01*
X122780724Y-102958195D02*
X122780724Y-103029624D01*
X122780724Y-103029624D02*
X122816438Y-103101052D01*
X122816438Y-103101052D02*
X122852152Y-103136767D01*
X122852152Y-103136767D02*
X122923581Y-103172481D01*
X122923581Y-103172481D02*
X123066438Y-103208195D01*
X123066438Y-103208195D02*
X123245010Y-103208195D01*
X123245010Y-103208195D02*
X123387867Y-103172481D01*
X123387867Y-103172481D02*
X123459295Y-103136767D01*
X123459295Y-103136767D02*
X123495010Y-103101052D01*
X123495010Y-103101052D02*
X123530724Y-103029624D01*
X123530724Y-103029624D02*
X123530724Y-102958195D01*
X123530724Y-102958195D02*
X123495010Y-102886767D01*
X123495010Y-102886767D02*
X123459295Y-102851052D01*
X123459295Y-102851052D02*
X123387867Y-102815338D01*
X123387867Y-102815338D02*
X123245010Y-102779624D01*
X123245010Y-102779624D02*
X123066438Y-102779624D01*
X123066438Y-102779624D02*
X122923581Y-102815338D01*
X122923581Y-102815338D02*
X122852152Y-102851052D01*
X122852152Y-102851052D02*
X122816438Y-102886767D01*
X122816438Y-102886767D02*
X122780724Y-102958195D01*
X161122724Y-107947909D02*
X160765581Y-107697909D01*
X161122724Y-107519338D02*
X160372724Y-107519338D01*
X160372724Y-107519338D02*
X160372724Y-107805052D01*
X160372724Y-107805052D02*
X160408438Y-107876481D01*
X160408438Y-107876481D02*
X160444152Y-107912195D01*
X160444152Y-107912195D02*
X160515581Y-107947909D01*
X160515581Y-107947909D02*
X160622724Y-107947909D01*
X160622724Y-107947909D02*
X160694152Y-107912195D01*
X160694152Y-107912195D02*
X160729867Y-107876481D01*
X160729867Y-107876481D02*
X160765581Y-107805052D01*
X160765581Y-107805052D02*
X160765581Y-107519338D01*
X161122724Y-108305052D02*
X161122724Y-108447909D01*
X161122724Y-108447909D02*
X161087010Y-108519338D01*
X161087010Y-108519338D02*
X161051295Y-108555052D01*
X161051295Y-108555052D02*
X160944152Y-108626481D01*
X160944152Y-108626481D02*
X160801295Y-108662195D01*
X160801295Y-108662195D02*
X160515581Y-108662195D01*
X160515581Y-108662195D02*
X160444152Y-108626481D01*
X160444152Y-108626481D02*
X160408438Y-108590767D01*
X160408438Y-108590767D02*
X160372724Y-108519338D01*
X160372724Y-108519338D02*
X160372724Y-108376481D01*
X160372724Y-108376481D02*
X160408438Y-108305052D01*
X160408438Y-108305052D02*
X160444152Y-108269338D01*
X160444152Y-108269338D02*
X160515581Y-108233624D01*
X160515581Y-108233624D02*
X160694152Y-108233624D01*
X160694152Y-108233624D02*
X160765581Y-108269338D01*
X160765581Y-108269338D02*
X160801295Y-108305052D01*
X160801295Y-108305052D02*
X160837010Y-108376481D01*
X160837010Y-108376481D02*
X160837010Y-108519338D01*
X160837010Y-108519338D02*
X160801295Y-108590767D01*
X160801295Y-108590767D02*
X160765581Y-108626481D01*
X160765581Y-108626481D02*
X160694152Y-108662195D01*
X155915724Y-101525623D02*
X155558581Y-101275623D01*
X155915724Y-101097052D02*
X155165724Y-101097052D01*
X155165724Y-101097052D02*
X155165724Y-101382766D01*
X155165724Y-101382766D02*
X155201438Y-101454195D01*
X155201438Y-101454195D02*
X155237152Y-101489909D01*
X155237152Y-101489909D02*
X155308581Y-101525623D01*
X155308581Y-101525623D02*
X155415724Y-101525623D01*
X155415724Y-101525623D02*
X155487152Y-101489909D01*
X155487152Y-101489909D02*
X155522867Y-101454195D01*
X155522867Y-101454195D02*
X155558581Y-101382766D01*
X155558581Y-101382766D02*
X155558581Y-101097052D01*
X155915724Y-102239909D02*
X155915724Y-101811338D01*
X155915724Y-102025623D02*
X155165724Y-102025623D01*
X155165724Y-102025623D02*
X155272867Y-101954195D01*
X155272867Y-101954195D02*
X155344295Y-101882766D01*
X155344295Y-101882766D02*
X155380010Y-101811338D01*
X155165724Y-102918481D02*
X155165724Y-102561338D01*
X155165724Y-102561338D02*
X155522867Y-102525624D01*
X155522867Y-102525624D02*
X155487152Y-102561338D01*
X155487152Y-102561338D02*
X155451438Y-102632767D01*
X155451438Y-102632767D02*
X155451438Y-102811338D01*
X155451438Y-102811338D02*
X155487152Y-102882767D01*
X155487152Y-102882767D02*
X155522867Y-102918481D01*
X155522867Y-102918481D02*
X155594295Y-102954195D01*
X155594295Y-102954195D02*
X155772867Y-102954195D01*
X155772867Y-102954195D02*
X155844295Y-102918481D01*
X155844295Y-102918481D02*
X155880010Y-102882767D01*
X155880010Y-102882767D02*
X155915724Y-102811338D01*
X155915724Y-102811338D02*
X155915724Y-102632767D01*
X155915724Y-102632767D02*
X155880010Y-102561338D01*
X155880010Y-102561338D02*
X155844295Y-102525624D01*
X150566428Y-116363152D02*
X150637857Y-116327438D01*
X150637857Y-116327438D02*
X150709285Y-116256010D01*
X150709285Y-116256010D02*
X150816428Y-116148867D01*
X150816428Y-116148867D02*
X150887857Y-116113152D01*
X150887857Y-116113152D02*
X150959285Y-116113152D01*
X150923571Y-116291724D02*
X150995000Y-116256010D01*
X150995000Y-116256010D02*
X151066428Y-116184581D01*
X151066428Y-116184581D02*
X151102142Y-116041724D01*
X151102142Y-116041724D02*
X151102142Y-115791724D01*
X151102142Y-115791724D02*
X151066428Y-115648867D01*
X151066428Y-115648867D02*
X150995000Y-115577438D01*
X150995000Y-115577438D02*
X150923571Y-115541724D01*
X150923571Y-115541724D02*
X150780714Y-115541724D01*
X150780714Y-115541724D02*
X150709285Y-115577438D01*
X150709285Y-115577438D02*
X150637857Y-115648867D01*
X150637857Y-115648867D02*
X150602142Y-115791724D01*
X150602142Y-115791724D02*
X150602142Y-116041724D01*
X150602142Y-116041724D02*
X150637857Y-116184581D01*
X150637857Y-116184581D02*
X150709285Y-116256010D01*
X150709285Y-116256010D02*
X150780714Y-116291724D01*
X150780714Y-116291724D02*
X150923571Y-116291724D01*
X150316428Y-115613152D02*
X150280714Y-115577438D01*
X150280714Y-115577438D02*
X150209286Y-115541724D01*
X150209286Y-115541724D02*
X150030714Y-115541724D01*
X150030714Y-115541724D02*
X149959286Y-115577438D01*
X149959286Y-115577438D02*
X149923571Y-115613152D01*
X149923571Y-115613152D02*
X149887857Y-115684581D01*
X149887857Y-115684581D02*
X149887857Y-115756010D01*
X149887857Y-115756010D02*
X149923571Y-115863152D01*
X149923571Y-115863152D02*
X150352143Y-116291724D01*
X150352143Y-116291724D02*
X149887857Y-116291724D01*
X152336428Y-104111724D02*
X152336428Y-104718867D01*
X152336428Y-104718867D02*
X152300714Y-104790295D01*
X152300714Y-104790295D02*
X152265000Y-104826010D01*
X152265000Y-104826010D02*
X152193571Y-104861724D01*
X152193571Y-104861724D02*
X152050714Y-104861724D01*
X152050714Y-104861724D02*
X151979285Y-104826010D01*
X151979285Y-104826010D02*
X151943571Y-104790295D01*
X151943571Y-104790295D02*
X151907857Y-104718867D01*
X151907857Y-104718867D02*
X151907857Y-104111724D01*
X151622143Y-104111724D02*
X151122143Y-104111724D01*
X151122143Y-104111724D02*
X151443571Y-104861724D01*
X131150724Y-101779623D02*
X130793581Y-101529623D01*
X131150724Y-101351052D02*
X130400724Y-101351052D01*
X130400724Y-101351052D02*
X130400724Y-101636766D01*
X130400724Y-101636766D02*
X130436438Y-101708195D01*
X130436438Y-101708195D02*
X130472152Y-101743909D01*
X130472152Y-101743909D02*
X130543581Y-101779623D01*
X130543581Y-101779623D02*
X130650724Y-101779623D01*
X130650724Y-101779623D02*
X130722152Y-101743909D01*
X130722152Y-101743909D02*
X130757867Y-101708195D01*
X130757867Y-101708195D02*
X130793581Y-101636766D01*
X130793581Y-101636766D02*
X130793581Y-101351052D01*
X131150724Y-102493909D02*
X131150724Y-102065338D01*
X131150724Y-102279623D02*
X130400724Y-102279623D01*
X130400724Y-102279623D02*
X130507867Y-102208195D01*
X130507867Y-102208195D02*
X130579295Y-102136766D01*
X130579295Y-102136766D02*
X130615010Y-102065338D01*
X131150724Y-103208195D02*
X131150724Y-102779624D01*
X131150724Y-102993909D02*
X130400724Y-102993909D01*
X130400724Y-102993909D02*
X130507867Y-102922481D01*
X130507867Y-102922481D02*
X130579295Y-102851052D01*
X130579295Y-102851052D02*
X130615010Y-102779624D01*
X124074999Y-114398724D02*
X124074999Y-114934438D01*
X124074999Y-114934438D02*
X124110714Y-115041581D01*
X124110714Y-115041581D02*
X124182142Y-115113010D01*
X124182142Y-115113010D02*
X124289285Y-115148724D01*
X124289285Y-115148724D02*
X124360714Y-115148724D01*
X123324999Y-115148724D02*
X123753570Y-115148724D01*
X123539285Y-115148724D02*
X123539285Y-114398724D01*
X123539285Y-114398724D02*
X123610713Y-114505867D01*
X123610713Y-114505867D02*
X123682142Y-114577295D01*
X123682142Y-114577295D02*
X123753570Y-114613010D01*
X126980910Y-112029295D02*
X127016624Y-112065010D01*
X127016624Y-112065010D02*
X127123767Y-112100724D01*
X127123767Y-112100724D02*
X127195195Y-112100724D01*
X127195195Y-112100724D02*
X127302338Y-112065010D01*
X127302338Y-112065010D02*
X127373767Y-111993581D01*
X127373767Y-111993581D02*
X127409481Y-111922152D01*
X127409481Y-111922152D02*
X127445195Y-111779295D01*
X127445195Y-111779295D02*
X127445195Y-111672152D01*
X127445195Y-111672152D02*
X127409481Y-111529295D01*
X127409481Y-111529295D02*
X127373767Y-111457867D01*
X127373767Y-111457867D02*
X127302338Y-111386438D01*
X127302338Y-111386438D02*
X127195195Y-111350724D01*
X127195195Y-111350724D02*
X127123767Y-111350724D01*
X127123767Y-111350724D02*
X127016624Y-111386438D01*
X127016624Y-111386438D02*
X126980910Y-111422152D01*
X126552338Y-111672152D02*
X126623767Y-111636438D01*
X126623767Y-111636438D02*
X126659481Y-111600724D01*
X126659481Y-111600724D02*
X126695195Y-111529295D01*
X126695195Y-111529295D02*
X126695195Y-111493581D01*
X126695195Y-111493581D02*
X126659481Y-111422152D01*
X126659481Y-111422152D02*
X126623767Y-111386438D01*
X126623767Y-111386438D02*
X126552338Y-111350724D01*
X126552338Y-111350724D02*
X126409481Y-111350724D01*
X126409481Y-111350724D02*
X126338053Y-111386438D01*
X126338053Y-111386438D02*
X126302338Y-111422152D01*
X126302338Y-111422152D02*
X126266624Y-111493581D01*
X126266624Y-111493581D02*
X126266624Y-111529295D01*
X126266624Y-111529295D02*
X126302338Y-111600724D01*
X126302338Y-111600724D02*
X126338053Y-111636438D01*
X126338053Y-111636438D02*
X126409481Y-111672152D01*
X126409481Y-111672152D02*
X126552338Y-111672152D01*
X126552338Y-111672152D02*
X126623767Y-111707867D01*
X126623767Y-111707867D02*
X126659481Y-111743581D01*
X126659481Y-111743581D02*
X126695195Y-111815010D01*
X126695195Y-111815010D02*
X126695195Y-111957867D01*
X126695195Y-111957867D02*
X126659481Y-112029295D01*
X126659481Y-112029295D02*
X126623767Y-112065010D01*
X126623767Y-112065010D02*
X126552338Y-112100724D01*
X126552338Y-112100724D02*
X126409481Y-112100724D01*
X126409481Y-112100724D02*
X126338053Y-112065010D01*
X126338053Y-112065010D02*
X126302338Y-112029295D01*
X126302338Y-112029295D02*
X126266624Y-111957867D01*
X126266624Y-111957867D02*
X126266624Y-111815010D01*
X126266624Y-111815010D02*
X126302338Y-111743581D01*
X126302338Y-111743581D02*
X126338053Y-111707867D01*
X126338053Y-111707867D02*
X126409481Y-111672152D01*
X120902000Y-112354724D02*
X121152000Y-111997581D01*
X121330571Y-112354724D02*
X121330571Y-111604724D01*
X121330571Y-111604724D02*
X121044857Y-111604724D01*
X121044857Y-111604724D02*
X120973428Y-111640438D01*
X120973428Y-111640438D02*
X120937714Y-111676152D01*
X120937714Y-111676152D02*
X120902000Y-111747581D01*
X120902000Y-111747581D02*
X120902000Y-111854724D01*
X120902000Y-111854724D02*
X120937714Y-111926152D01*
X120937714Y-111926152D02*
X120973428Y-111961867D01*
X120973428Y-111961867D02*
X121044857Y-111997581D01*
X121044857Y-111997581D02*
X121330571Y-111997581D01*
X120652000Y-111604724D02*
X120152000Y-111604724D01*
X120152000Y-111604724D02*
X120473428Y-112354724D01*
X126980910Y-110378295D02*
X127016624Y-110414010D01*
X127016624Y-110414010D02*
X127123767Y-110449724D01*
X127123767Y-110449724D02*
X127195195Y-110449724D01*
X127195195Y-110449724D02*
X127302338Y-110414010D01*
X127302338Y-110414010D02*
X127373767Y-110342581D01*
X127373767Y-110342581D02*
X127409481Y-110271152D01*
X127409481Y-110271152D02*
X127445195Y-110128295D01*
X127445195Y-110128295D02*
X127445195Y-110021152D01*
X127445195Y-110021152D02*
X127409481Y-109878295D01*
X127409481Y-109878295D02*
X127373767Y-109806867D01*
X127373767Y-109806867D02*
X127302338Y-109735438D01*
X127302338Y-109735438D02*
X127195195Y-109699724D01*
X127195195Y-109699724D02*
X127123767Y-109699724D01*
X127123767Y-109699724D02*
X127016624Y-109735438D01*
X127016624Y-109735438D02*
X126980910Y-109771152D01*
X126730910Y-109699724D02*
X126230910Y-109699724D01*
X126230910Y-109699724D02*
X126552338Y-110449724D01*
X120848428Y-108743152D02*
X120919857Y-108707438D01*
X120919857Y-108707438D02*
X120991285Y-108636010D01*
X120991285Y-108636010D02*
X121098428Y-108528867D01*
X121098428Y-108528867D02*
X121169857Y-108493152D01*
X121169857Y-108493152D02*
X121241285Y-108493152D01*
X121205571Y-108671724D02*
X121277000Y-108636010D01*
X121277000Y-108636010D02*
X121348428Y-108564581D01*
X121348428Y-108564581D02*
X121384142Y-108421724D01*
X121384142Y-108421724D02*
X121384142Y-108171724D01*
X121384142Y-108171724D02*
X121348428Y-108028867D01*
X121348428Y-108028867D02*
X121277000Y-107957438D01*
X121277000Y-107957438D02*
X121205571Y-107921724D01*
X121205571Y-107921724D02*
X121062714Y-107921724D01*
X121062714Y-107921724D02*
X120991285Y-107957438D01*
X120991285Y-107957438D02*
X120919857Y-108028867D01*
X120919857Y-108028867D02*
X120884142Y-108171724D01*
X120884142Y-108171724D02*
X120884142Y-108421724D01*
X120884142Y-108421724D02*
X120919857Y-108564581D01*
X120919857Y-108564581D02*
X120991285Y-108636010D01*
X120991285Y-108636010D02*
X121062714Y-108671724D01*
X121062714Y-108671724D02*
X121205571Y-108671724D01*
X120169857Y-108671724D02*
X120598428Y-108671724D01*
X120384143Y-108671724D02*
X120384143Y-107921724D01*
X120384143Y-107921724D02*
X120455571Y-108028867D01*
X120455571Y-108028867D02*
X120527000Y-108100295D01*
X120527000Y-108100295D02*
X120598428Y-108136010D01*
X131333090Y-117744295D02*
X131368804Y-117780010D01*
X131368804Y-117780010D02*
X131475947Y-117815724D01*
X131475947Y-117815724D02*
X131547375Y-117815724D01*
X131547375Y-117815724D02*
X131654518Y-117780010D01*
X131654518Y-117780010D02*
X131725947Y-117708581D01*
X131725947Y-117708581D02*
X131761661Y-117637152D01*
X131761661Y-117637152D02*
X131797375Y-117494295D01*
X131797375Y-117494295D02*
X131797375Y-117387152D01*
X131797375Y-117387152D02*
X131761661Y-117244295D01*
X131761661Y-117244295D02*
X131725947Y-117172867D01*
X131725947Y-117172867D02*
X131654518Y-117101438D01*
X131654518Y-117101438D02*
X131547375Y-117065724D01*
X131547375Y-117065724D02*
X131475947Y-117065724D01*
X131475947Y-117065724D02*
X131368804Y-117101438D01*
X131368804Y-117101438D02*
X131333090Y-117137152D01*
X130690233Y-117065724D02*
X130833090Y-117065724D01*
X130833090Y-117065724D02*
X130904518Y-117101438D01*
X130904518Y-117101438D02*
X130940233Y-117137152D01*
X130940233Y-117137152D02*
X131011661Y-117244295D01*
X131011661Y-117244295D02*
X131047375Y-117387152D01*
X131047375Y-117387152D02*
X131047375Y-117672867D01*
X131047375Y-117672867D02*
X131011661Y-117744295D01*
X131011661Y-117744295D02*
X130975947Y-117780010D01*
X130975947Y-117780010D02*
X130904518Y-117815724D01*
X130904518Y-117815724D02*
X130761661Y-117815724D01*
X130761661Y-117815724D02*
X130690233Y-117780010D01*
X130690233Y-117780010D02*
X130654518Y-117744295D01*
X130654518Y-117744295D02*
X130618804Y-117672867D01*
X130618804Y-117672867D02*
X130618804Y-117494295D01*
X130618804Y-117494295D02*
X130654518Y-117422867D01*
X130654518Y-117422867D02*
X130690233Y-117387152D01*
X130690233Y-117387152D02*
X130761661Y-117351438D01*
X130761661Y-117351438D02*
X130904518Y-117351438D01*
X130904518Y-117351438D02*
X130975947Y-117387152D01*
X130975947Y-117387152D02*
X131011661Y-117422867D01*
X131011661Y-117422867D02*
X131047375Y-117494295D01*
X120902000Y-104988724D02*
X121152000Y-104631581D01*
X121330571Y-104988724D02*
X121330571Y-104238724D01*
X121330571Y-104238724D02*
X121044857Y-104238724D01*
X121044857Y-104238724D02*
X120973428Y-104274438D01*
X120973428Y-104274438D02*
X120937714Y-104310152D01*
X120937714Y-104310152D02*
X120902000Y-104381581D01*
X120902000Y-104381581D02*
X120902000Y-104488724D01*
X120902000Y-104488724D02*
X120937714Y-104560152D01*
X120937714Y-104560152D02*
X120973428Y-104595867D01*
X120973428Y-104595867D02*
X121044857Y-104631581D01*
X121044857Y-104631581D02*
X121330571Y-104631581D01*
X120259143Y-104238724D02*
X120402000Y-104238724D01*
X120402000Y-104238724D02*
X120473428Y-104274438D01*
X120473428Y-104274438D02*
X120509143Y-104310152D01*
X120509143Y-104310152D02*
X120580571Y-104417295D01*
X120580571Y-104417295D02*
X120616285Y-104560152D01*
X120616285Y-104560152D02*
X120616285Y-104845867D01*
X120616285Y-104845867D02*
X120580571Y-104917295D01*
X120580571Y-104917295D02*
X120544857Y-104953010D01*
X120544857Y-104953010D02*
X120473428Y-104988724D01*
X120473428Y-104988724D02*
X120330571Y-104988724D01*
X120330571Y-104988724D02*
X120259143Y-104953010D01*
X120259143Y-104953010D02*
X120223428Y-104917295D01*
X120223428Y-104917295D02*
X120187714Y-104845867D01*
X120187714Y-104845867D02*
X120187714Y-104667295D01*
X120187714Y-104667295D02*
X120223428Y-104595867D01*
X120223428Y-104595867D02*
X120259143Y-104560152D01*
X120259143Y-104560152D02*
X120330571Y-104524438D01*
X120330571Y-104524438D02*
X120473428Y-104524438D01*
X120473428Y-104524438D02*
X120544857Y-104560152D01*
X120544857Y-104560152D02*
X120580571Y-104595867D01*
X120580571Y-104595867D02*
X120616285Y-104667295D01*
X127571428Y-104365724D02*
X127571428Y-104972867D01*
X127571428Y-104972867D02*
X127535714Y-105044295D01*
X127535714Y-105044295D02*
X127500000Y-105080010D01*
X127500000Y-105080010D02*
X127428571Y-105115724D01*
X127428571Y-105115724D02*
X127285714Y-105115724D01*
X127285714Y-105115724D02*
X127214285Y-105080010D01*
X127214285Y-105080010D02*
X127178571Y-105044295D01*
X127178571Y-105044295D02*
X127142857Y-104972867D01*
X127142857Y-104972867D02*
X127142857Y-104365724D01*
X126428571Y-104365724D02*
X126785714Y-104365724D01*
X126785714Y-104365724D02*
X126821428Y-104722867D01*
X126821428Y-104722867D02*
X126785714Y-104687152D01*
X126785714Y-104687152D02*
X126714286Y-104651438D01*
X126714286Y-104651438D02*
X126535714Y-104651438D01*
X126535714Y-104651438D02*
X126464286Y-104687152D01*
X126464286Y-104687152D02*
X126428571Y-104722867D01*
X126428571Y-104722867D02*
X126392857Y-104794295D01*
X126392857Y-104794295D02*
X126392857Y-104972867D01*
X126392857Y-104972867D02*
X126428571Y-105044295D01*
X126428571Y-105044295D02*
X126464286Y-105080010D01*
X126464286Y-105080010D02*
X126535714Y-105115724D01*
X126535714Y-105115724D02*
X126714286Y-105115724D01*
X126714286Y-105115724D02*
X126785714Y-105080010D01*
X126785714Y-105080010D02*
X126821428Y-105044295D01*
X158686428Y-109064724D02*
X158686428Y-109671867D01*
X158686428Y-109671867D02*
X158650714Y-109743295D01*
X158650714Y-109743295D02*
X158615000Y-109779010D01*
X158615000Y-109779010D02*
X158543571Y-109814724D01*
X158543571Y-109814724D02*
X158400714Y-109814724D01*
X158400714Y-109814724D02*
X158329285Y-109779010D01*
X158329285Y-109779010D02*
X158293571Y-109743295D01*
X158293571Y-109743295D02*
X158257857Y-109671867D01*
X158257857Y-109671867D02*
X158257857Y-109064724D01*
X157579286Y-109314724D02*
X157579286Y-109814724D01*
X157757857Y-109029010D02*
X157936428Y-109564724D01*
X157936428Y-109564724D02*
X157472143Y-109564724D01*
X140271428Y-104111724D02*
X140271428Y-104718867D01*
X140271428Y-104718867D02*
X140235714Y-104790295D01*
X140235714Y-104790295D02*
X140200000Y-104826010D01*
X140200000Y-104826010D02*
X140128571Y-104861724D01*
X140128571Y-104861724D02*
X139985714Y-104861724D01*
X139985714Y-104861724D02*
X139914285Y-104826010D01*
X139914285Y-104826010D02*
X139878571Y-104790295D01*
X139878571Y-104790295D02*
X139842857Y-104718867D01*
X139842857Y-104718867D02*
X139842857Y-104111724D01*
X139164286Y-104111724D02*
X139307143Y-104111724D01*
X139307143Y-104111724D02*
X139378571Y-104147438D01*
X139378571Y-104147438D02*
X139414286Y-104183152D01*
X139414286Y-104183152D02*
X139485714Y-104290295D01*
X139485714Y-104290295D02*
X139521428Y-104433152D01*
X139521428Y-104433152D02*
X139521428Y-104718867D01*
X139521428Y-104718867D02*
X139485714Y-104790295D01*
X139485714Y-104790295D02*
X139450000Y-104826010D01*
X139450000Y-104826010D02*
X139378571Y-104861724D01*
X139378571Y-104861724D02*
X139235714Y-104861724D01*
X139235714Y-104861724D02*
X139164286Y-104826010D01*
X139164286Y-104826010D02*
X139128571Y-104790295D01*
X139128571Y-104790295D02*
X139092857Y-104718867D01*
X139092857Y-104718867D02*
X139092857Y-104540295D01*
X139092857Y-104540295D02*
X139128571Y-104468867D01*
X139128571Y-104468867D02*
X139164286Y-104433152D01*
X139164286Y-104433152D02*
X139235714Y-104397438D01*
X139235714Y-104397438D02*
X139378571Y-104397438D01*
X139378571Y-104397438D02*
X139450000Y-104433152D01*
X139450000Y-104433152D02*
X139485714Y-104468867D01*
X139485714Y-104468867D02*
X139521428Y-104540295D01*
X152971428Y-109064724D02*
X152971428Y-109671867D01*
X152971428Y-109671867D02*
X152935714Y-109743295D01*
X152935714Y-109743295D02*
X152900000Y-109779010D01*
X152900000Y-109779010D02*
X152828571Y-109814724D01*
X152828571Y-109814724D02*
X152685714Y-109814724D01*
X152685714Y-109814724D02*
X152614285Y-109779010D01*
X152614285Y-109779010D02*
X152578571Y-109743295D01*
X152578571Y-109743295D02*
X152542857Y-109671867D01*
X152542857Y-109671867D02*
X152542857Y-109064724D01*
X152078571Y-109386152D02*
X152150000Y-109350438D01*
X152150000Y-109350438D02*
X152185714Y-109314724D01*
X152185714Y-109314724D02*
X152221428Y-109243295D01*
X152221428Y-109243295D02*
X152221428Y-109207581D01*
X152221428Y-109207581D02*
X152185714Y-109136152D01*
X152185714Y-109136152D02*
X152150000Y-109100438D01*
X152150000Y-109100438D02*
X152078571Y-109064724D01*
X152078571Y-109064724D02*
X151935714Y-109064724D01*
X151935714Y-109064724D02*
X151864286Y-109100438D01*
X151864286Y-109100438D02*
X151828571Y-109136152D01*
X151828571Y-109136152D02*
X151792857Y-109207581D01*
X151792857Y-109207581D02*
X151792857Y-109243295D01*
X151792857Y-109243295D02*
X151828571Y-109314724D01*
X151828571Y-109314724D02*
X151864286Y-109350438D01*
X151864286Y-109350438D02*
X151935714Y-109386152D01*
X151935714Y-109386152D02*
X152078571Y-109386152D01*
X152078571Y-109386152D02*
X152150000Y-109421867D01*
X152150000Y-109421867D02*
X152185714Y-109457581D01*
X152185714Y-109457581D02*
X152221428Y-109529010D01*
X152221428Y-109529010D02*
X152221428Y-109671867D01*
X152221428Y-109671867D02*
X152185714Y-109743295D01*
X152185714Y-109743295D02*
X152150000Y-109779010D01*
X152150000Y-109779010D02*
X152078571Y-109814724D01*
X152078571Y-109814724D02*
X151935714Y-109814724D01*
X151935714Y-109814724D02*
X151864286Y-109779010D01*
X151864286Y-109779010D02*
X151828571Y-109743295D01*
X151828571Y-109743295D02*
X151792857Y-109671867D01*
X151792857Y-109671867D02*
X151792857Y-109529010D01*
X151792857Y-109529010D02*
X151828571Y-109457581D01*
X151828571Y-109457581D02*
X151864286Y-109421867D01*
X151864286Y-109421867D02*
X151935714Y-109386152D01*
X136230724Y-101525623D02*
X135873581Y-101275623D01*
X136230724Y-101097052D02*
X135480724Y-101097052D01*
X135480724Y-101097052D02*
X135480724Y-101382766D01*
X135480724Y-101382766D02*
X135516438Y-101454195D01*
X135516438Y-101454195D02*
X135552152Y-101489909D01*
X135552152Y-101489909D02*
X135623581Y-101525623D01*
X135623581Y-101525623D02*
X135730724Y-101525623D01*
X135730724Y-101525623D02*
X135802152Y-101489909D01*
X135802152Y-101489909D02*
X135837867Y-101454195D01*
X135837867Y-101454195D02*
X135873581Y-101382766D01*
X135873581Y-101382766D02*
X135873581Y-101097052D01*
X136230724Y-102239909D02*
X136230724Y-101811338D01*
X136230724Y-102025623D02*
X135480724Y-102025623D01*
X135480724Y-102025623D02*
X135587867Y-101954195D01*
X135587867Y-101954195D02*
X135659295Y-101882766D01*
X135659295Y-101882766D02*
X135695010Y-101811338D01*
X135552152Y-102525624D02*
X135516438Y-102561338D01*
X135516438Y-102561338D02*
X135480724Y-102632767D01*
X135480724Y-102632767D02*
X135480724Y-102811338D01*
X135480724Y-102811338D02*
X135516438Y-102882767D01*
X135516438Y-102882767D02*
X135552152Y-102918481D01*
X135552152Y-102918481D02*
X135623581Y-102954195D01*
X135623581Y-102954195D02*
X135695010Y-102954195D01*
X135695010Y-102954195D02*
X135802152Y-102918481D01*
X135802152Y-102918481D02*
X136230724Y-102489909D01*
X136230724Y-102489909D02*
X136230724Y-102954195D01*
X129603428Y-113890724D02*
X129603428Y-114497867D01*
X129603428Y-114497867D02*
X129567714Y-114569295D01*
X129567714Y-114569295D02*
X129532000Y-114605010D01*
X129532000Y-114605010D02*
X129460571Y-114640724D01*
X129460571Y-114640724D02*
X129317714Y-114640724D01*
X129317714Y-114640724D02*
X129246285Y-114605010D01*
X129246285Y-114605010D02*
X129210571Y-114569295D01*
X129210571Y-114569295D02*
X129174857Y-114497867D01*
X129174857Y-114497867D02*
X129174857Y-113890724D01*
X128889143Y-113890724D02*
X128424857Y-113890724D01*
X128424857Y-113890724D02*
X128674857Y-114176438D01*
X128674857Y-114176438D02*
X128567714Y-114176438D01*
X128567714Y-114176438D02*
X128496286Y-114212152D01*
X128496286Y-114212152D02*
X128460571Y-114247867D01*
X128460571Y-114247867D02*
X128424857Y-114319295D01*
X128424857Y-114319295D02*
X128424857Y-114497867D01*
X128424857Y-114497867D02*
X128460571Y-114569295D01*
X128460571Y-114569295D02*
X128496286Y-114605010D01*
X128496286Y-114605010D02*
X128567714Y-114640724D01*
X128567714Y-114640724D02*
X128782000Y-114640724D01*
X128782000Y-114640724D02*
X128853428Y-114605010D01*
X128853428Y-114605010D02*
X128889143Y-114569295D01*
X148295724Y-101525623D02*
X147938581Y-101275623D01*
X148295724Y-101097052D02*
X147545724Y-101097052D01*
X147545724Y-101097052D02*
X147545724Y-101382766D01*
X147545724Y-101382766D02*
X147581438Y-101454195D01*
X147581438Y-101454195D02*
X147617152Y-101489909D01*
X147617152Y-101489909D02*
X147688581Y-101525623D01*
X147688581Y-101525623D02*
X147795724Y-101525623D01*
X147795724Y-101525623D02*
X147867152Y-101489909D01*
X147867152Y-101489909D02*
X147902867Y-101454195D01*
X147902867Y-101454195D02*
X147938581Y-101382766D01*
X147938581Y-101382766D02*
X147938581Y-101097052D01*
X148295724Y-102239909D02*
X148295724Y-101811338D01*
X148295724Y-102025623D02*
X147545724Y-102025623D01*
X147545724Y-102025623D02*
X147652867Y-101954195D01*
X147652867Y-101954195D02*
X147724295Y-101882766D01*
X147724295Y-101882766D02*
X147760010Y-101811338D01*
X147795724Y-102882767D02*
X148295724Y-102882767D01*
X147510010Y-102704195D02*
X148045724Y-102525624D01*
X148045724Y-102525624D02*
X148045724Y-102989909D01*
X139045910Y-110759295D02*
X139081624Y-110795010D01*
X139081624Y-110795010D02*
X139188767Y-110830724D01*
X139188767Y-110830724D02*
X139260195Y-110830724D01*
X139260195Y-110830724D02*
X139367338Y-110795010D01*
X139367338Y-110795010D02*
X139438767Y-110723581D01*
X139438767Y-110723581D02*
X139474481Y-110652152D01*
X139474481Y-110652152D02*
X139510195Y-110509295D01*
X139510195Y-110509295D02*
X139510195Y-110402152D01*
X139510195Y-110402152D02*
X139474481Y-110259295D01*
X139474481Y-110259295D02*
X139438767Y-110187867D01*
X139438767Y-110187867D02*
X139367338Y-110116438D01*
X139367338Y-110116438D02*
X139260195Y-110080724D01*
X139260195Y-110080724D02*
X139188767Y-110080724D01*
X139188767Y-110080724D02*
X139081624Y-110116438D01*
X139081624Y-110116438D02*
X139045910Y-110152152D01*
X138795910Y-110080724D02*
X138331624Y-110080724D01*
X138331624Y-110080724D02*
X138581624Y-110366438D01*
X138581624Y-110366438D02*
X138474481Y-110366438D01*
X138474481Y-110366438D02*
X138403053Y-110402152D01*
X138403053Y-110402152D02*
X138367338Y-110437867D01*
X138367338Y-110437867D02*
X138331624Y-110509295D01*
X138331624Y-110509295D02*
X138331624Y-110687867D01*
X138331624Y-110687867D02*
X138367338Y-110759295D01*
X138367338Y-110759295D02*
X138403053Y-110795010D01*
X138403053Y-110795010D02*
X138474481Y-110830724D01*
X138474481Y-110830724D02*
X138688767Y-110830724D01*
X138688767Y-110830724D02*
X138760195Y-110795010D01*
X138760195Y-110795010D02*
X138795910Y-110759295D01*
X159217724Y-115952999D02*
X158860581Y-115702999D01*
X159217724Y-115524428D02*
X158467724Y-115524428D01*
X158467724Y-115524428D02*
X158467724Y-115810142D01*
X158467724Y-115810142D02*
X158503438Y-115881571D01*
X158503438Y-115881571D02*
X158539152Y-115917285D01*
X158539152Y-115917285D02*
X158610581Y-115952999D01*
X158610581Y-115952999D02*
X158717724Y-115952999D01*
X158717724Y-115952999D02*
X158789152Y-115917285D01*
X158789152Y-115917285D02*
X158824867Y-115881571D01*
X158824867Y-115881571D02*
X158860581Y-115810142D01*
X158860581Y-115810142D02*
X158860581Y-115524428D01*
X158467724Y-116202999D02*
X158467724Y-116667285D01*
X158467724Y-116667285D02*
X158753438Y-116417285D01*
X158753438Y-116417285D02*
X158753438Y-116524428D01*
X158753438Y-116524428D02*
X158789152Y-116595857D01*
X158789152Y-116595857D02*
X158824867Y-116631571D01*
X158824867Y-116631571D02*
X158896295Y-116667285D01*
X158896295Y-116667285D02*
X159074867Y-116667285D01*
X159074867Y-116667285D02*
X159146295Y-116631571D01*
X159146295Y-116631571D02*
X159182010Y-116595857D01*
X159182010Y-116595857D02*
X159217724Y-116524428D01*
X159217724Y-116524428D02*
X159217724Y-116310142D01*
X159217724Y-116310142D02*
X159182010Y-116238714D01*
X159182010Y-116238714D02*
X159146295Y-116202999D01*
%TO.C,C5*%
X145385000Y-111792000D02*
X145385000Y-112702000D01*
X146715000Y-111792000D02*
X145385000Y-111792000D01*
X146715000Y-112702000D02*
X146715000Y-111792000D01*
X146715000Y-113612000D02*
X146715000Y-114522000D01*
X145385000Y-114522000D02*
X145385000Y-113612000D01*
X146715000Y-114522000D02*
X145385000Y-114522000D01*
%TO.C,C1*%
X134015000Y-114522000D02*
X134015000Y-113612000D01*
X132685000Y-114522000D02*
X134015000Y-114522000D01*
X132685000Y-113612000D02*
X132685000Y-114522000D01*
X132685000Y-112702000D02*
X132685000Y-111792000D01*
X134015000Y-111792000D02*
X134015000Y-112702000D01*
X132685000Y-111792000D02*
X134015000Y-111792000D01*
D12*
%TO.C,D3*%
X124125000Y-100965000D02*
G75*
G03*
X124125000Y-100965000I-125000J0D01*
G01*
D11*
%TO.C,U1*%
X142707000Y-113198000D02*
X139487000Y-113198000D01*
X139487000Y-113198000D02*
X139487000Y-113493000D01*
X142707000Y-113493000D02*
X142707000Y-113198000D01*
X142707000Y-116123000D02*
X142707000Y-116418000D01*
X142707000Y-116418000D02*
X139487000Y-116418000D01*
X139487000Y-116418000D02*
X139487000Y-116123000D01*
D12*
X143262000Y-113303000D02*
G75*
G03*
X143262000Y-113303000I-125000J0D01*
G01*
D11*
%TO.C,U2*%
X154388000Y-115393000D02*
X154388000Y-116763000D01*
X156508000Y-115393000D02*
X156508000Y-116763000D01*
D12*
X154364000Y-115022000D02*
G75*
G03*
X154364000Y-115022000I-125000J0D01*
G01*
D11*
%TO.C,R17*%
X144516000Y-105866000D02*
X145806000Y-105866000D01*
X145806000Y-105866000D02*
X145806000Y-104969000D01*
X144516000Y-104969000D02*
X144516000Y-105866000D01*
X144516000Y-104073000D02*
X144516000Y-103176000D01*
X144516000Y-103176000D02*
X145806000Y-103176000D01*
X145806000Y-103176000D02*
X145806000Y-104073000D01*
%TO.C,R18*%
X156581000Y-105866000D02*
X157871000Y-105866000D01*
X157871000Y-105866000D02*
X157871000Y-104969000D01*
X156581000Y-104969000D02*
X156581000Y-105866000D01*
X156581000Y-104073000D02*
X156581000Y-103176000D01*
X156581000Y-103176000D02*
X157871000Y-103176000D01*
X157871000Y-103176000D02*
X157871000Y-104073000D01*
%TO.C,C2*%
X142462000Y-112806000D02*
X142462000Y-111476000D01*
X142462000Y-111476000D02*
X141552000Y-111476000D01*
X141552000Y-112806000D02*
X142462000Y-112806000D01*
X140642000Y-112806000D02*
X139732000Y-112806000D01*
X139732000Y-112806000D02*
X139732000Y-111476000D01*
X139732000Y-111476000D02*
X140642000Y-111476000D01*
%TO.C,R16*%
X131816000Y-106120000D02*
X133106000Y-106120000D01*
X133106000Y-106120000D02*
X133106000Y-105223000D01*
X131816000Y-105223000D02*
X131816000Y-106120000D01*
X131816000Y-104327000D02*
X131816000Y-103430000D01*
X131816000Y-103430000D02*
X133106000Y-103430000D01*
X133106000Y-103430000D02*
X133106000Y-104327000D01*
%TO.C,R1*%
X138948000Y-114733000D02*
X137658000Y-114733000D01*
X137658000Y-114733000D02*
X137658000Y-115630000D01*
X138948000Y-115630000D02*
X138948000Y-114733000D01*
X138948000Y-116526000D02*
X138948000Y-117423000D01*
X138948000Y-117423000D02*
X137658000Y-117423000D01*
X137658000Y-117423000D02*
X137658000Y-116526000D01*
%TO.C,R5*%
X122291000Y-109676000D02*
X123581000Y-109676000D01*
X123581000Y-109676000D02*
X123581000Y-108779000D01*
X122291000Y-108779000D02*
X122291000Y-109676000D01*
X122291000Y-107883000D02*
X122291000Y-106986000D01*
X122291000Y-106986000D02*
X123581000Y-106986000D01*
X123581000Y-106986000D02*
X123581000Y-107883000D01*
%TO.C,C4*%
X154083000Y-113000000D02*
X154083000Y-114330000D01*
X154083000Y-114330000D02*
X154993000Y-114330000D01*
X154993000Y-113000000D02*
X154083000Y-113000000D01*
X155903000Y-113000000D02*
X156813000Y-113000000D01*
X156813000Y-113000000D02*
X156813000Y-114330000D01*
X156813000Y-114330000D02*
X155903000Y-114330000D01*
D10*
%TO.C,H1*%
X120360000Y-114300000D02*
G75*
G03*
X120360000Y-114300000I-2250000J0D01*
G01*
D12*
%TO.C,D5*%
X148890000Y-100965000D02*
G75*
G03*
X148890000Y-100965000I-125000J0D01*
G01*
D11*
%TO.C,R8*%
X162951000Y-108891000D02*
X161661000Y-108891000D01*
X161661000Y-108891000D02*
X161661000Y-109788000D01*
X162951000Y-109788000D02*
X162951000Y-108891000D01*
X162951000Y-110684000D02*
X162951000Y-111581000D01*
X162951000Y-111581000D02*
X161661000Y-111581000D01*
X161661000Y-111581000D02*
X161661000Y-110684000D01*
%TO.C,R2*%
X136007000Y-117423000D02*
X137297000Y-117423000D01*
X137297000Y-117423000D02*
X137297000Y-116526000D01*
X136007000Y-116526000D02*
X136007000Y-117423000D01*
X136007000Y-115630000D02*
X136007000Y-114733000D01*
X136007000Y-114733000D02*
X137297000Y-114733000D01*
X137297000Y-114733000D02*
X137297000Y-115630000D01*
%TO.C,R4*%
X119263000Y-106986000D02*
X117973000Y-106986000D01*
X117973000Y-106986000D02*
X117973000Y-107883000D01*
X119263000Y-107883000D02*
X119263000Y-106986000D01*
X119263000Y-108779000D02*
X119263000Y-109676000D01*
X119263000Y-109676000D02*
X117973000Y-109676000D01*
X117973000Y-109676000D02*
X117973000Y-108779000D01*
%TO.C,R13*%
X144155000Y-103176000D02*
X142865000Y-103176000D01*
X142865000Y-103176000D02*
X142865000Y-104073000D01*
X144155000Y-104073000D02*
X144155000Y-103176000D01*
X144155000Y-104969000D02*
X144155000Y-105866000D01*
X144155000Y-105866000D02*
X142865000Y-105866000D01*
X142865000Y-105866000D02*
X142865000Y-104969000D01*
%TO.C,R10*%
X122545000Y-106120000D02*
X123835000Y-106120000D01*
X123835000Y-106120000D02*
X123835000Y-105223000D01*
X122545000Y-105223000D02*
X122545000Y-106120000D01*
X122545000Y-104327000D02*
X122545000Y-103430000D01*
X122545000Y-103430000D02*
X123835000Y-103430000D01*
X123835000Y-103430000D02*
X123835000Y-104327000D01*
%TO.C,R9*%
X161427000Y-108884000D02*
X160137000Y-108884000D01*
X160137000Y-108884000D02*
X160137000Y-109781000D01*
X161427000Y-109781000D02*
X161427000Y-108884000D01*
X161427000Y-110677000D02*
X161427000Y-111574000D01*
X161427000Y-111574000D02*
X160137000Y-111574000D01*
X160137000Y-111574000D02*
X160137000Y-110677000D01*
%TO.C,R15*%
X156220000Y-103176000D02*
X154930000Y-103176000D01*
X154930000Y-103176000D02*
X154930000Y-104073000D01*
X156220000Y-104073000D02*
X156220000Y-103176000D01*
X156220000Y-104969000D02*
X156220000Y-105866000D01*
X156220000Y-105866000D02*
X154930000Y-105866000D01*
X154930000Y-105866000D02*
X154930000Y-104969000D01*
%TO.C,Q2*%
X148915000Y-115191000D02*
X148915000Y-116711000D01*
X148915000Y-116711000D02*
X150004000Y-116711000D01*
X150955000Y-115191000D02*
X150035000Y-115191000D01*
X150986000Y-116711000D02*
X152075000Y-116711000D01*
X152075000Y-116711000D02*
X152075000Y-115191000D01*
D12*
X148989000Y-114675000D02*
G75*
G03*
X148989000Y-114675000I-125000J0D01*
G01*
D11*
%TO.C,U7*%
X150255000Y-102661000D02*
X153275000Y-102661000D01*
X150255000Y-103066000D02*
X150255000Y-102661000D01*
X150255000Y-105976000D02*
X150255000Y-106381000D01*
X150255000Y-106381000D02*
X153275000Y-106381000D01*
X153275000Y-102661000D02*
X153275000Y-103066000D01*
X153275000Y-106381000D02*
X153275000Y-105976000D01*
D12*
X149382000Y-102876000D02*
G75*
G03*
X149382000Y-102876000I-125000J0D01*
G01*
D11*
%TO.C,R11*%
X131455000Y-103430000D02*
X130165000Y-103430000D01*
X130165000Y-103430000D02*
X130165000Y-104327000D01*
X131455000Y-104327000D02*
X131455000Y-103430000D01*
X131455000Y-105223000D02*
X131455000Y-106120000D01*
X131455000Y-106120000D02*
X130165000Y-106120000D01*
X130165000Y-106120000D02*
X130165000Y-105223000D01*
%TO.C,J1*%
X126935000Y-115523000D02*
X126935000Y-113023000D01*
X126935000Y-113023000D02*
X125885000Y-113023000D01*
X125885000Y-113023000D02*
X125885000Y-112033000D01*
X125765000Y-117493000D02*
X121885000Y-117493000D01*
X120715000Y-115523000D02*
X120715000Y-113023000D01*
X120715000Y-113023000D02*
X121765000Y-113023000D01*
%TO.C,C8*%
X130397000Y-112425000D02*
X130397000Y-111095000D01*
X130397000Y-111095000D02*
X129487000Y-111095000D01*
X129487000Y-112425000D02*
X130397000Y-112425000D01*
X128577000Y-112425000D02*
X127667000Y-112425000D01*
X127667000Y-112425000D02*
X127667000Y-111095000D01*
X127667000Y-111095000D02*
X128577000Y-111095000D01*
D10*
%TO.C,H2*%
X163540000Y-114300000D02*
G75*
G03*
X163540000Y-114300000I-2250000J0D01*
G01*
D11*
%TO.C,R7*%
X119432000Y-110099000D02*
X119432000Y-111389000D01*
X119432000Y-111389000D02*
X120329000Y-111389000D01*
X120329000Y-110099000D02*
X119432000Y-110099000D01*
X121225000Y-110099000D02*
X122122000Y-110099000D01*
X122122000Y-110099000D02*
X122122000Y-111389000D01*
X122122000Y-111389000D02*
X121225000Y-111389000D01*
%TO.C,C7*%
X130397000Y-110774000D02*
X130397000Y-109444000D01*
X130397000Y-109444000D02*
X129487000Y-109444000D01*
X129487000Y-110774000D02*
X130397000Y-110774000D01*
X128577000Y-110774000D02*
X127667000Y-110774000D01*
X127667000Y-110774000D02*
X127667000Y-109444000D01*
X127667000Y-109444000D02*
X128577000Y-109444000D01*
%TO.C,Q1*%
X121877000Y-109006000D02*
X121877000Y-107656000D01*
X119677000Y-107656000D02*
X119677000Y-109006000D01*
D12*
X122106000Y-109346000D02*
G75*
G03*
X122106000Y-109346000I-125000J0D01*
G01*
D11*
%TO.C,C6*%
X130397000Y-117759000D02*
X130397000Y-116429000D01*
X130397000Y-116429000D02*
X129487000Y-116429000D01*
X129487000Y-117759000D02*
X130397000Y-117759000D01*
X128577000Y-117759000D02*
X127667000Y-117759000D01*
X127667000Y-117759000D02*
X127667000Y-116429000D01*
X127667000Y-116429000D02*
X128577000Y-116429000D01*
%TO.C,R6*%
X122122000Y-106563000D02*
X122122000Y-105273000D01*
X122122000Y-105273000D02*
X121225000Y-105273000D01*
X121225000Y-106563000D02*
X122122000Y-106563000D01*
X120329000Y-106563000D02*
X119432000Y-106563000D01*
X119432000Y-106563000D02*
X119432000Y-105273000D01*
X119432000Y-105273000D02*
X120329000Y-105273000D01*
%TO.C,U5*%
X125490000Y-102915000D02*
X128510000Y-102915000D01*
X125490000Y-103320000D02*
X125490000Y-102915000D01*
X125490000Y-106230000D02*
X125490000Y-106635000D01*
X125490000Y-106635000D02*
X128510000Y-106635000D01*
X128510000Y-102915000D02*
X128510000Y-103320000D01*
X128510000Y-106635000D02*
X128510000Y-106230000D01*
D12*
X124617000Y-103130000D02*
G75*
G03*
X124617000Y-103130000I-125000J0D01*
G01*
D11*
%TO.C,U4*%
X156505000Y-107864000D02*
X156505000Y-111084000D01*
X156505000Y-111084000D02*
X156729000Y-111084000D01*
X156729000Y-107864000D02*
X156505000Y-107864000D01*
X159501000Y-107864000D02*
X159725000Y-107864000D01*
X159725000Y-107864000D02*
X159725000Y-111084000D01*
X159725000Y-111084000D02*
X159501000Y-111084000D01*
D12*
X156664000Y-106989000D02*
G75*
G03*
X156664000Y-106989000I-125000J0D01*
G01*
%TO.C,D4*%
X136825000Y-100965000D02*
G75*
G03*
X136825000Y-100965000I-125000J0D01*
G01*
D11*
%TO.C,U6*%
X138190000Y-102661000D02*
X141210000Y-102661000D01*
X138190000Y-103066000D02*
X138190000Y-102661000D01*
X138190000Y-105976000D02*
X138190000Y-106381000D01*
X138190000Y-106381000D02*
X141210000Y-106381000D01*
X141210000Y-102661000D02*
X141210000Y-103066000D01*
X141210000Y-106381000D02*
X141210000Y-105976000D01*
D12*
X137317000Y-102876000D02*
G75*
G03*
X137317000Y-102876000I-125000J0D01*
G01*
D11*
%TO.C,U8*%
X150090000Y-112084000D02*
X154710000Y-112084000D01*
X154710000Y-112084000D02*
X154710000Y-111798000D01*
X150090000Y-111798000D02*
X150090000Y-112084000D01*
X150090000Y-107150000D02*
X150090000Y-106864000D01*
X150090000Y-106864000D02*
X154710000Y-106864000D01*
X154710000Y-106864000D02*
X154710000Y-107150000D01*
D12*
X149267000Y-111988000D02*
G75*
G03*
X149267000Y-111988000I-125000J0D01*
G01*
D11*
%TO.C,R12*%
X135245000Y-105866000D02*
X136535000Y-105866000D01*
X136535000Y-105866000D02*
X136535000Y-104969000D01*
X135245000Y-104969000D02*
X135245000Y-105866000D01*
X135245000Y-104073000D02*
X135245000Y-103176000D01*
X135245000Y-103176000D02*
X136535000Y-103176000D01*
X136535000Y-103176000D02*
X136535000Y-104073000D01*
%TO.C,U3*%
X130582000Y-115150000D02*
X130582000Y-113450000D01*
X128566000Y-113450000D02*
X129498000Y-113450000D01*
X127482000Y-113450000D02*
X127482000Y-115150000D01*
D12*
X130781000Y-115759000D02*
G75*
G03*
X130781000Y-115759000I-125000J0D01*
G01*
D11*
%TO.C,R14*%
X147310000Y-105866000D02*
X148600000Y-105866000D01*
X148600000Y-105866000D02*
X148600000Y-104969000D01*
X147310000Y-104969000D02*
X147310000Y-105866000D01*
X147310000Y-104073000D02*
X147310000Y-103176000D01*
X147310000Y-103176000D02*
X148600000Y-103176000D01*
X148600000Y-103176000D02*
X148600000Y-104073000D01*
%TO.C,C3*%
X142462000Y-111155000D02*
X142462000Y-109825000D01*
X142462000Y-109825000D02*
X141552000Y-109825000D01*
X141552000Y-111155000D02*
X142462000Y-111155000D01*
X140642000Y-111155000D02*
X139732000Y-111155000D01*
X139732000Y-111155000D02*
X139732000Y-109825000D01*
X139732000Y-109825000D02*
X140642000Y-109825000D01*
%TO.C,R3*%
X158252000Y-114733000D02*
X156962000Y-114733000D01*
X156962000Y-114733000D02*
X156962000Y-115630000D01*
X158252000Y-115630000D02*
X158252000Y-114733000D01*
X158252000Y-116526000D02*
X158252000Y-117423000D01*
X158252000Y-117423000D02*
X156962000Y-117423000D01*
X156962000Y-117423000D02*
X156962000Y-116526000D01*
%TD*%
M02*
