%TF.GenerationSoftware,KiCad,Pcbnew,7.0.8*%
%TF.CreationDate,2024-01-07T14:56:32-05:00*%
%TF.ProjectId,lineFollowerArray,6c696e65-466f-46c6-9c6f-776572417272,01*%
%TF.SameCoordinates,Original*%
%TF.FileFunction,Paste,Bot*%
%TF.FilePolarity,Positive*%
%FSLAX46Y46*%
G04 Gerber Fmt 4.6, Leading zero omitted, Abs format (unit mm)*
G04 Created by KiCad (PCBNEW 7.0.8) date 2024-01-07 14:56:32*
%MOMM*%
%LPD*%
G01*
G04 APERTURE LIST*
%ADD10R,0.970000X0.871000*%
%ADD11R,1.500000X1.600000*%
%ADD12R,0.606000X0.972000*%
%ADD13R,0.700000X0.270000*%
%ADD14R,0.377000X0.681000*%
%ADD15R,0.929000X0.820000*%
%ADD16R,0.871000X0.970000*%
%ADD17R,0.621000X0.826000*%
%ADD18R,1.625000X0.749000*%
%ADD19R,1.200000X1.800000*%
%ADD20R,0.600000X1.550000*%
%ADD21R,0.820000X0.929000*%
%ADD22R,0.369000X0.590000*%
%ADD23R,0.461000X1.271000*%
%ADD24R,1.372000X0.387000*%
%ADD25R,0.609000X1.139000*%
G04 APERTURE END LIST*
D10*
%TO.C,C5*%
X146050000Y-112407000D03*
X146050000Y-113907000D03*
%TD*%
%TO.C,C1*%
X133350000Y-113907000D03*
X133350000Y-112407000D03*
%TD*%
D11*
%TO.C,D3*%
X125200000Y-100965000D03*
X128800000Y-100965000D03*
%TD*%
D12*
%TO.C,U1*%
X141509000Y-114213000D03*
X140684000Y-114213000D03*
X141510000Y-115403000D03*
X140685000Y-115403000D03*
D13*
X142512000Y-113808000D03*
X142512000Y-114308000D03*
X142512000Y-114808000D03*
X142512000Y-115308000D03*
X142512000Y-115808000D03*
X139682000Y-115808000D03*
X139682000Y-115308000D03*
X139682000Y-114808000D03*
X139682000Y-114308000D03*
X139682000Y-113808000D03*
%TD*%
D14*
%TO.C,U2*%
X154798000Y-115113000D03*
X155448000Y-115113000D03*
X156098000Y-115113000D03*
X156098000Y-117043000D03*
X155448000Y-117043000D03*
X154798000Y-117043000D03*
%TD*%
D15*
%TO.C,R17*%
X145161000Y-105276000D03*
X145161000Y-103766000D03*
%TD*%
%TO.C,R18*%
X157226000Y-105276000D03*
X157226000Y-103766000D03*
%TD*%
D16*
%TO.C,C2*%
X141847000Y-112141000D03*
X140347000Y-112141000D03*
%TD*%
D15*
%TO.C,R16*%
X132461000Y-105530000D03*
X132461000Y-104020000D03*
%TD*%
%TO.C,R1*%
X138303000Y-115323000D03*
X138303000Y-116833000D03*
%TD*%
%TO.C,R5*%
X122936000Y-109086000D03*
X122936000Y-107576000D03*
%TD*%
D16*
%TO.C,C4*%
X154698000Y-113665000D03*
X156198000Y-113665000D03*
%TD*%
D11*
%TO.C,D5*%
X149965000Y-100965000D03*
X153565000Y-100965000D03*
%TD*%
D15*
%TO.C,R8*%
X162306000Y-109481000D03*
X162306000Y-110991000D03*
%TD*%
%TO.C,R2*%
X136652000Y-116833000D03*
X136652000Y-115323000D03*
%TD*%
%TO.C,R4*%
X118618000Y-107576000D03*
X118618000Y-109086000D03*
%TD*%
%TO.C,R13*%
X143510000Y-103766000D03*
X143510000Y-105276000D03*
%TD*%
%TO.C,R10*%
X123190000Y-105530000D03*
X123190000Y-104020000D03*
%TD*%
%TO.C,R9*%
X160782000Y-109474000D03*
X160782000Y-110984000D03*
%TD*%
%TO.C,R15*%
X155575000Y-103766000D03*
X155575000Y-105276000D03*
%TD*%
D17*
%TO.C,Q2*%
X149545000Y-114838000D03*
X151445000Y-114838000D03*
X150495000Y-117064000D03*
%TD*%
D18*
%TO.C,U7*%
X149820000Y-103621000D03*
X153710000Y-103621000D03*
X153710000Y-105421000D03*
X149820000Y-105421000D03*
%TD*%
D15*
%TO.C,R11*%
X130810000Y-104020000D03*
X130810000Y-105530000D03*
%TD*%
D19*
%TO.C,J1*%
X126625000Y-116683000D03*
D20*
X125325000Y-112808000D03*
D19*
X121025000Y-116683000D03*
D20*
X124325000Y-112808000D03*
X123325000Y-112808000D03*
X122325000Y-112808000D03*
%TD*%
D16*
%TO.C,C8*%
X129782000Y-111760000D03*
X128282000Y-111760000D03*
%TD*%
D21*
%TO.C,R7*%
X120022000Y-110744000D03*
X121532000Y-110744000D03*
%TD*%
D16*
%TO.C,C7*%
X129782000Y-110109000D03*
X128282000Y-110109000D03*
%TD*%
D22*
%TO.C,Q1*%
X121427000Y-109301000D03*
X120777000Y-109301000D03*
X120127000Y-109301000D03*
X120127000Y-107361000D03*
X120777000Y-107361000D03*
X121427000Y-107361000D03*
%TD*%
D16*
%TO.C,C6*%
X129782000Y-117094000D03*
X128282000Y-117094000D03*
%TD*%
D21*
%TO.C,R6*%
X121532000Y-105918000D03*
X120022000Y-105918000D03*
%TD*%
D18*
%TO.C,U5*%
X125055000Y-103875000D03*
X128945000Y-103875000D03*
X128945000Y-105675000D03*
X125055000Y-105675000D03*
%TD*%
D23*
%TO.C,U4*%
X157140000Y-107374000D03*
X157790000Y-107374000D03*
X158440000Y-107374000D03*
X159090000Y-107374000D03*
X159090000Y-111574000D03*
X158440000Y-111574000D03*
X157790000Y-111574000D03*
X157140000Y-111574000D03*
%TD*%
D11*
%TO.C,D4*%
X137900000Y-100965000D03*
X141500000Y-100965000D03*
%TD*%
D18*
%TO.C,U6*%
X137755000Y-103621000D03*
X141645000Y-103621000D03*
X141645000Y-105421000D03*
X137755000Y-105421000D03*
%TD*%
D24*
%TO.C,U8*%
X149578000Y-111424000D03*
X149578000Y-110774000D03*
X149578000Y-110124000D03*
X149578000Y-109474000D03*
X149578000Y-108824000D03*
X149578000Y-108174000D03*
X149578000Y-107524000D03*
X155222000Y-107524000D03*
X155222000Y-108174000D03*
X155222000Y-108824000D03*
X155222000Y-109474000D03*
X155222000Y-110124000D03*
X155222000Y-110774000D03*
X155222000Y-111424000D03*
%TD*%
D15*
%TO.C,R12*%
X135890000Y-105276000D03*
X135890000Y-103766000D03*
%TD*%
D25*
%TO.C,U3*%
X129982000Y-115439000D03*
X129032000Y-115439000D03*
X128082000Y-115439000D03*
X128082000Y-113161000D03*
X129982000Y-113161000D03*
%TD*%
D15*
%TO.C,R14*%
X147955000Y-105276000D03*
X147955000Y-103766000D03*
%TD*%
D16*
%TO.C,C3*%
X141847000Y-110490000D03*
X140347000Y-110490000D03*
%TD*%
D15*
%TO.C,R3*%
X157607000Y-115323000D03*
X157607000Y-116833000D03*
%TD*%
M02*
