%TF.GenerationSoftware,KiCad,Pcbnew,7.0.8*%
%TF.CreationDate,2023-11-01T11:01:00-04:00*%
%TF.ProjectId,destinationAutomation_v4.5,64657374-696e-4617-9469-6f6e4175746f,04.5*%
%TF.SameCoordinates,Original*%
%TF.FileFunction,Paste,Top*%
%TF.FilePolarity,Positive*%
%FSLAX46Y46*%
G04 Gerber Fmt 4.6, Leading zero omitted, Abs format (unit mm)*
G04 Created by KiCad (PCBNEW 7.0.8) date 2023-11-01 11:01:00*
%MOMM*%
%LPD*%
G01*
G04 APERTURE LIST*
G04 Aperture macros list*
%AMFreePoly0*
4,1,9,-0.250000,0.372500,0.250000,0.372500,0.250000,0.750000,0.500000,0.750000,0.500000,-0.250000,-0.500000,-0.250000,-0.500000,0.750000,-0.250000,0.750000,-0.250000,0.372500,-0.250000,0.372500,$1*%
G04 Aperture macros list end*
%ADD10R,1.000000X1.550000*%
%ADD11R,0.820000X0.929000*%
%ADD12R,0.970000X0.871000*%
%ADD13R,0.871000X0.970000*%
%ADD14R,1.500000X3.400000*%
%ADD15R,1.000000X3.500000*%
%ADD16R,1.115000X1.465000*%
%ADD17R,0.790000X0.760000*%
%ADD18R,0.929000X0.820000*%
%ADD19R,2.914000X1.579000*%
%ADD20R,1.800000X1.200000*%
%ADD21R,1.550000X0.600000*%
%ADD22R,0.550000X0.250000*%
%ADD23R,0.350000X1.000000*%
%ADD24FreePoly0,180.000000*%
%ADD25R,1.700000X0.900000*%
%ADD26R,0.814000X0.814000*%
%ADD27R,0.906000X0.337000*%
%ADD28R,0.337000X0.906000*%
%ADD29R,0.588000X0.588000*%
%ADD30R,1.185000X2.215000*%
G04 APERTURE END LIST*
D10*
%TO.C,SW5*%
X110795000Y-129625000D03*
X110795000Y-124375000D03*
X113995000Y-129625000D03*
X113995000Y-124375000D03*
%TD*%
D11*
%TO.C,R1*%
X123945000Y-114046000D03*
X122435000Y-114046000D03*
%TD*%
%TO.C,R3*%
X121292000Y-112522000D03*
X122802000Y-112522000D03*
%TD*%
D12*
%TO.C,C12*%
X96393000Y-109359000D03*
X96393000Y-110859000D03*
%TD*%
%TO.C,C14*%
X96393000Y-106311000D03*
X96393000Y-107811000D03*
%TD*%
D13*
%TO.C,C4*%
X116193000Y-114427000D03*
X114693000Y-114427000D03*
%TD*%
D12*
%TO.C,C7*%
X122809000Y-111113000D03*
X122809000Y-109613000D03*
%TD*%
D13*
%TO.C,C6*%
X122440000Y-117094000D03*
X123940000Y-117094000D03*
%TD*%
D12*
%TO.C,C8*%
X121285000Y-111113000D03*
X121285000Y-109613000D03*
%TD*%
D14*
%TO.C,J2*%
X136700000Y-87331000D03*
X130000000Y-87331000D03*
D15*
X134350000Y-93081000D03*
X132350000Y-93081000D03*
%TD*%
D16*
%TO.C,C9*%
X117768000Y-111506000D03*
X119468000Y-111506000D03*
%TD*%
%TO.C,C3*%
X116752000Y-125222000D03*
X118452000Y-125222000D03*
%TD*%
D11*
%TO.C,R4*%
X116198000Y-112903000D03*
X114688000Y-112903000D03*
%TD*%
%TO.C,R5*%
X119387000Y-115951000D03*
X120897000Y-115951000D03*
%TD*%
D16*
%TO.C,C1*%
X116752000Y-120904000D03*
X118452000Y-120904000D03*
%TD*%
D17*
%TO.C,D2*%
X127000000Y-94234000D03*
X127000000Y-90624000D03*
%TD*%
D18*
%TO.C,R7*%
X97536000Y-96273000D03*
X97536000Y-97783000D03*
%TD*%
D10*
%TO.C,SW2*%
X95555000Y-129625000D03*
X95555000Y-124375000D03*
X98755000Y-129625000D03*
X98755000Y-124375000D03*
%TD*%
D19*
%TO.C,C13*%
X99116000Y-108712000D03*
X102814000Y-108712000D03*
%TD*%
D20*
%TO.C,J3*%
X156815000Y-92970000D03*
X156815000Y-87370000D03*
D21*
X152940000Y-91670000D03*
X152940000Y-90670000D03*
X152940000Y-89670000D03*
X152940000Y-88670000D03*
%TD*%
D22*
%TO.C,U2*%
X119793000Y-114542000D03*
X119793000Y-114042000D03*
X119793000Y-113542000D03*
X119793000Y-113042000D03*
D23*
X118968000Y-113092000D03*
X118268000Y-113092000D03*
D22*
X117443000Y-113042000D03*
X117443000Y-113542000D03*
X117443000Y-114042000D03*
X117443000Y-114542000D03*
D24*
X118618000Y-114242000D03*
%TD*%
D25*
%TO.C,R6*%
X87630000Y-107135000D03*
X87630000Y-110035000D03*
%TD*%
D10*
%TO.C,SW4*%
X105715000Y-129625000D03*
X105715000Y-124375000D03*
X108915000Y-129625000D03*
X108915000Y-124375000D03*
%TD*%
%TO.C,SW3*%
X100635000Y-129625000D03*
X100635000Y-124375000D03*
X103835000Y-129625000D03*
X103835000Y-124375000D03*
%TD*%
D16*
%TO.C,C10*%
X117768000Y-109347000D03*
X119468000Y-109347000D03*
%TD*%
D18*
%TO.C,R8*%
X99187000Y-96273000D03*
X99187000Y-97783000D03*
%TD*%
D13*
%TO.C,C5*%
X117906000Y-115951000D03*
X116406000Y-115951000D03*
%TD*%
D16*
%TO.C,C11*%
X117768000Y-107188000D03*
X119468000Y-107188000D03*
%TD*%
D26*
%TO.C,U3*%
X93362000Y-108060000D03*
X92312000Y-108060000D03*
X93362000Y-109110000D03*
X92312000Y-109110000D03*
D27*
X91005000Y-107610000D03*
X91005000Y-108260000D03*
X91005000Y-108910000D03*
X91005000Y-109560000D03*
D28*
X91862000Y-110417000D03*
X92512000Y-110417000D03*
X93162000Y-110417000D03*
X93812000Y-110417000D03*
D27*
X94669000Y-109560000D03*
X94669000Y-108910000D03*
X94669000Y-108260000D03*
X94669000Y-107610000D03*
D28*
X93812000Y-106753000D03*
X93162000Y-106753000D03*
X92512000Y-106753000D03*
X91862000Y-106753000D03*
D29*
X93362000Y-108060000D03*
X92312000Y-108060000D03*
X93362000Y-109110000D03*
X92312000Y-109110000D03*
%TD*%
D16*
%TO.C,C2*%
X116752000Y-123063000D03*
X118452000Y-123063000D03*
%TD*%
D11*
%TO.C,R2*%
X122435000Y-115570000D03*
X123945000Y-115570000D03*
%TD*%
D30*
%TO.C,L1*%
X116488000Y-118364000D03*
X118618000Y-118364000D03*
%TD*%
M02*
