%TF.GenerationSoftware,KiCad,Pcbnew,7.0.8*%
%TF.CreationDate,2023-11-01T11:01:00-04:00*%
%TF.ProjectId,destinationAutomation_v4.5,64657374-696e-4617-9469-6f6e4175746f,04.5*%
%TF.SameCoordinates,Original*%
%TF.FileFunction,Legend,Top*%
%TF.FilePolarity,Positive*%
%FSLAX46Y46*%
G04 Gerber Fmt 4.6, Leading zero omitted, Abs format (unit mm)*
G04 Created by KiCad (PCBNEW 7.0.8) date 2023-11-01 11:01:00*
%MOMM*%
%LPD*%
G01*
G04 APERTURE LIST*
%ADD10C,0.150000*%
%ADD11C,0.130000*%
%ADD12C,0.300000*%
%ADD13C,0.110000*%
%ADD14C,0.140000*%
%ADD15C,0.120000*%
%ADD16C,0.100000*%
%ADD17C,0.050000*%
%ADD18C,0.250000*%
%ADD19C,0.200000*%
G04 APERTURE END LIST*
D10*
X126301500Y-95694500D02*
X126301500Y-95948500D01*
X127571500Y-95821500D02*
X128841500Y-95821500D01*
D11*
X154939999Y-84581998D02*
G75*
G03*
X154131776Y-84916775I1J-1143002D01*
G01*
D10*
X156287039Y-84377964D02*
G75*
G03*
X154940001Y-83820002I-1347039J-1347036D01*
G01*
D12*
X97155000Y-132524500D02*
X97155000Y-130873500D01*
D10*
X125031500Y-103187500D02*
X126301500Y-103187500D01*
X97536000Y-131254500D02*
X96774000Y-131254500D01*
X97155000Y-130746500D01*
X97536000Y-131254500D01*
G36*
X97536000Y-131254500D02*
G01*
X96774000Y-131254500D01*
X97155000Y-130746500D01*
X97536000Y-131254500D01*
G37*
X125793500Y-95186500D02*
X125793500Y-96456500D01*
D13*
X155209408Y-85455595D02*
G75*
G03*
X154940001Y-85344002I-269408J-269405D01*
G01*
D10*
X125031500Y-95821500D02*
X125793500Y-95821500D01*
X102235000Y-132651500D02*
X101854000Y-132143500D01*
X102616000Y-132143500D01*
X102235000Y-132651500D01*
G36*
X102235000Y-132651500D02*
G01*
X101854000Y-132143500D01*
X102616000Y-132143500D01*
X102235000Y-132651500D01*
G37*
X125031500Y-103187500D02*
X125412500Y-102806500D01*
X128841500Y-103060500D02*
X128841500Y-103314500D01*
X127571500Y-103187500D02*
X128333500Y-103187500D01*
D14*
X156017631Y-84647372D02*
G75*
G03*
X154940001Y-84201002I-1077631J-1077628D01*
G01*
D15*
X154940001Y-84963005D02*
G75*
G03*
X154401187Y-85186190I-1J-761995D01*
G01*
D10*
X127571500Y-95821500D02*
X127952500Y-96202500D01*
D13*
X154939999Y-85343997D02*
G75*
G03*
X154670592Y-85455589I1J-381003D01*
G01*
D12*
X108140500Y-131699000D02*
X106489500Y-131699000D01*
D14*
X154939999Y-84200997D02*
G75*
G03*
X153862368Y-84647366I1J-1524003D01*
G01*
D10*
X126047500Y-95440500D02*
X126047500Y-96202500D01*
X125031500Y-103187500D02*
X125412500Y-103568500D01*
X128587500Y-102806500D02*
X128587500Y-103568500D01*
X128333500Y-102552500D02*
X128333500Y-103822500D01*
X153797001Y-85725002D02*
X156083001Y-85725002D01*
X127571500Y-95821500D02*
X127952500Y-95440500D01*
D11*
X155748223Y-84916780D02*
G75*
G03*
X154940001Y-84582002I-808223J-808220D01*
G01*
D12*
X102235000Y-130873500D02*
X102235000Y-132524500D01*
D10*
X106870500Y-132080000D02*
X106362500Y-131699000D01*
X106870500Y-131318000D01*
X106870500Y-132080000D01*
G36*
X106870500Y-132080000D02*
G01*
X106362500Y-131699000D01*
X106870500Y-131318000D01*
X106870500Y-132080000D01*
G37*
X154940004Y-83820012D02*
G75*
G03*
X153592966Y-84377974I-4J-1904988D01*
G01*
X113347500Y-131699000D02*
X112839500Y-132080000D01*
X112839500Y-131318000D01*
X113347500Y-131699000D01*
G36*
X113347500Y-131699000D02*
G01*
X112839500Y-132080000D01*
X112839500Y-131318000D01*
X113347500Y-131699000D01*
G37*
D15*
X155478815Y-85186188D02*
G75*
G03*
X154940001Y-84963002I-538815J-538812D01*
G01*
D10*
X154990801Y-85648802D02*
G75*
G03*
X154990801Y-85648802I-50800J0D01*
G01*
D12*
X111569500Y-131699000D02*
X113220500Y-131699000D01*
D10*
G36*
X84348050Y-116621591D02*
G01*
X84347921Y-116632183D01*
X84347531Y-116642402D01*
X84346883Y-116652249D01*
X84345423Y-116666322D01*
X84343379Y-116679557D01*
X84340752Y-116691956D01*
X84337540Y-116703517D01*
X84333745Y-116714241D01*
X84329366Y-116724128D01*
X84324403Y-116733177D01*
X84318856Y-116741390D01*
X84314833Y-116746400D01*
X84305957Y-116755444D01*
X84295813Y-116763283D01*
X84287374Y-116768370D01*
X84278222Y-116772780D01*
X84268357Y-116776511D01*
X84257780Y-116779563D01*
X84246490Y-116781937D01*
X84234487Y-116783633D01*
X84221772Y-116784651D01*
X84208344Y-116784990D01*
X84050074Y-116784990D01*
X84036688Y-116784651D01*
X84024005Y-116783633D01*
X84012027Y-116781937D01*
X84000752Y-116779563D01*
X83990182Y-116776511D01*
X83980316Y-116772780D01*
X83971154Y-116768370D01*
X83962696Y-116763283D01*
X83952514Y-116755444D01*
X83943584Y-116746400D01*
X83935799Y-116736008D01*
X83930641Y-116727237D01*
X83926067Y-116717630D01*
X83922078Y-116707185D01*
X83918672Y-116695902D01*
X83915849Y-116683783D01*
X83913611Y-116670826D01*
X83911957Y-116657033D01*
X83910886Y-116642402D01*
X83910497Y-116632183D01*
X83910367Y-116621591D01*
X83910367Y-116169010D01*
X84035420Y-116169010D01*
X84035420Y-116547097D01*
X84035610Y-116557592D01*
X84036386Y-116569487D01*
X84037757Y-116580023D01*
X84040190Y-116590870D01*
X84044114Y-116601052D01*
X84047632Y-116606693D01*
X84055051Y-116613745D01*
X84064851Y-116618783D01*
X84075380Y-116621538D01*
X84085855Y-116622671D01*
X84091595Y-116622813D01*
X84167311Y-116622813D01*
X84178207Y-116622246D01*
X84189292Y-116620152D01*
X84198623Y-116616516D01*
X84207141Y-116610471D01*
X84210542Y-116606693D01*
X84215991Y-116597015D01*
X84219057Y-116587472D01*
X84221246Y-116575972D01*
X84222402Y-116564892D01*
X84222889Y-116555050D01*
X84222998Y-116547097D01*
X84222998Y-116169010D01*
X84035420Y-116169010D01*
X83910367Y-116169010D01*
X83629000Y-116169010D01*
X83629000Y-116003657D01*
X84348050Y-116003657D01*
X84348050Y-116621591D01*
G37*
G36*
X83629000Y-117355053D02*
G01*
X84206878Y-117355053D01*
X84206878Y-117201180D01*
X84302133Y-117201180D01*
X84348050Y-117507460D01*
X83629000Y-117507460D01*
X83629000Y-117355053D01*
G37*
G36*
X84348050Y-93761591D02*
G01*
X84347921Y-93772183D01*
X84347531Y-93782402D01*
X84346883Y-93792249D01*
X84345423Y-93806322D01*
X84343379Y-93819557D01*
X84340752Y-93831956D01*
X84337540Y-93843517D01*
X84333745Y-93854241D01*
X84329366Y-93864128D01*
X84324403Y-93873177D01*
X84318856Y-93881390D01*
X84314833Y-93886400D01*
X84305957Y-93895444D01*
X84295813Y-93903283D01*
X84287374Y-93908370D01*
X84278222Y-93912780D01*
X84268357Y-93916511D01*
X84257780Y-93919563D01*
X84246490Y-93921937D01*
X84234487Y-93923633D01*
X84221772Y-93924651D01*
X84208344Y-93924990D01*
X84050074Y-93924990D01*
X84036688Y-93924651D01*
X84024005Y-93923633D01*
X84012027Y-93921937D01*
X84000752Y-93919563D01*
X83990182Y-93916511D01*
X83980316Y-93912780D01*
X83971154Y-93908370D01*
X83962696Y-93903283D01*
X83952514Y-93895444D01*
X83943584Y-93886400D01*
X83935799Y-93876008D01*
X83930641Y-93867237D01*
X83926067Y-93857630D01*
X83922078Y-93847185D01*
X83918672Y-93835902D01*
X83915849Y-93823783D01*
X83913611Y-93810826D01*
X83911957Y-93797033D01*
X83910886Y-93782402D01*
X83910497Y-93772183D01*
X83910367Y-93761591D01*
X83910367Y-93309010D01*
X84035420Y-93309010D01*
X84035420Y-93687097D01*
X84035610Y-93697592D01*
X84036386Y-93709487D01*
X84037757Y-93720023D01*
X84040190Y-93730870D01*
X84044114Y-93741052D01*
X84047632Y-93746693D01*
X84055051Y-93753745D01*
X84064851Y-93758783D01*
X84075380Y-93761538D01*
X84085855Y-93762671D01*
X84091595Y-93762813D01*
X84167311Y-93762813D01*
X84178207Y-93762246D01*
X84189292Y-93760152D01*
X84198623Y-93756516D01*
X84207141Y-93750471D01*
X84210542Y-93746693D01*
X84215991Y-93737015D01*
X84219057Y-93727472D01*
X84221246Y-93715972D01*
X84222402Y-93704892D01*
X84222889Y-93695050D01*
X84222998Y-93687097D01*
X84222998Y-93309010D01*
X84035420Y-93309010D01*
X83910367Y-93309010D01*
X83629000Y-93309010D01*
X83629000Y-93143657D01*
X84348050Y-93143657D01*
X84348050Y-93761591D01*
G37*
G36*
X83629000Y-94495053D02*
G01*
X84206878Y-94495053D01*
X84206878Y-94341180D01*
X84302133Y-94341180D01*
X84348050Y-94647460D01*
X83629000Y-94647460D01*
X83629000Y-94495053D01*
G37*
G36*
X85209577Y-120778290D02*
G01*
X85209321Y-120789466D01*
X85208552Y-120799485D01*
X85206952Y-120809980D01*
X85204152Y-120820120D01*
X85199075Y-120829825D01*
X85193030Y-120836023D01*
X85184040Y-120840879D01*
X85174102Y-120843313D01*
X85163904Y-120843991D01*
X85098935Y-120843991D01*
X85090100Y-120843493D01*
X85079895Y-120841280D01*
X85070568Y-120836673D01*
X85063520Y-120829825D01*
X85062889Y-120828932D01*
X85058561Y-120820120D01*
X85055826Y-120809980D01*
X85054264Y-120799485D01*
X85053512Y-120789466D01*
X85053262Y-120778290D01*
X85053262Y-120448806D01*
X85209577Y-120448806D01*
X85209577Y-120778290D01*
G37*
G36*
X85209577Y-119913426D02*
G01*
X84834420Y-119913426D01*
X84834420Y-119436175D01*
X85209577Y-119436175D01*
X85209577Y-119913426D01*
G37*
G36*
X85209577Y-118087466D02*
G01*
X84834420Y-118087466D01*
X84834420Y-117610216D01*
X85209577Y-117610216D01*
X85209577Y-118087466D01*
G37*
G36*
X85586907Y-122700944D02*
G01*
X84582143Y-122700944D01*
X84582143Y-121784815D01*
X84725000Y-121784815D01*
X84725000Y-122392491D01*
X84725028Y-122398549D01*
X84725255Y-122410290D01*
X84725709Y-122421529D01*
X84726390Y-122432266D01*
X84727299Y-122442502D01*
X84729087Y-122456914D01*
X84731386Y-122470197D01*
X84734196Y-122482350D01*
X84737517Y-122493375D01*
X84741349Y-122503270D01*
X84747252Y-122514708D01*
X84754064Y-122524138D01*
X84759952Y-122530205D01*
X84769165Y-122537366D01*
X84779934Y-122543467D01*
X84789033Y-122547346D01*
X84799008Y-122550628D01*
X84809859Y-122553313D01*
X84821585Y-122555402D01*
X84834188Y-122556894D01*
X84847666Y-122557789D01*
X84862020Y-122558087D01*
X84920882Y-122558087D01*
X84959473Y-122424731D01*
X84850052Y-122424731D01*
X84850052Y-122004877D01*
X85102843Y-122429372D01*
X85109987Y-122440513D01*
X85116945Y-122450855D01*
X85123720Y-122460399D01*
X85130309Y-122469145D01*
X85136714Y-122477092D01*
X85144967Y-122486446D01*
X85152891Y-122494380D01*
X85160488Y-122500894D01*
X85169521Y-122507041D01*
X85173159Y-122508993D01*
X85183097Y-122513322D01*
X85194240Y-122516864D01*
X85204021Y-122519131D01*
X85214573Y-122520894D01*
X85225896Y-122522153D01*
X85237990Y-122522909D01*
X85250854Y-122523161D01*
X85299703Y-122523161D01*
X85309878Y-122523028D01*
X85324372Y-122522332D01*
X85337942Y-122521039D01*
X85350590Y-122519149D01*
X85362314Y-122516663D01*
X85373115Y-122513579D01*
X85382994Y-122509899D01*
X85394729Y-122504064D01*
X85404823Y-122497168D01*
X85413276Y-122489211D01*
X85418776Y-122482329D01*
X85425267Y-122471403D01*
X85429505Y-122461896D01*
X85433201Y-122451264D01*
X85436357Y-122439508D01*
X85438971Y-122426626D01*
X85441045Y-122412620D01*
X85442127Y-122402657D01*
X85442969Y-122392195D01*
X85443570Y-122381233D01*
X85443930Y-122369771D01*
X85444050Y-122357808D01*
X85444050Y-121986559D01*
X85444020Y-121980501D01*
X85443780Y-121968762D01*
X85443299Y-121957527D01*
X85442578Y-121946795D01*
X85441616Y-121936568D01*
X85439723Y-121922171D01*
X85437288Y-121908907D01*
X85434313Y-121896777D01*
X85430797Y-121885780D01*
X85426740Y-121875917D01*
X85420489Y-121864529D01*
X85413276Y-121855157D01*
X85409254Y-121851105D01*
X85399981Y-121843785D01*
X85389066Y-121837511D01*
X85379803Y-121833492D01*
X85369617Y-121830061D01*
X85358508Y-121827218D01*
X85346476Y-121824963D01*
X85333521Y-121823296D01*
X85319643Y-121822218D01*
X85309878Y-121821826D01*
X85299703Y-121821695D01*
X85201517Y-121821695D01*
X85162683Y-121964577D01*
X85318998Y-121964577D01*
X85318998Y-122376127D01*
X85225209Y-122376127D01*
X84919417Y-121876406D01*
X84917423Y-121873230D01*
X84911513Y-121864068D01*
X84905711Y-121855450D01*
X84900016Y-121847378D01*
X84892589Y-121837463D01*
X84885354Y-121828518D01*
X84878309Y-121820542D01*
X84869771Y-121811935D01*
X84861531Y-121804843D01*
X84852980Y-121799073D01*
X84843356Y-121794281D01*
X84832659Y-121790467D01*
X84820888Y-121787631D01*
X84810698Y-121786066D01*
X84799822Y-121785128D01*
X84788258Y-121784815D01*
X84725000Y-121784815D01*
X84582143Y-121784815D01*
X84582143Y-120306657D01*
X84725000Y-120306657D01*
X84725000Y-120448806D01*
X84943841Y-120448806D01*
X84943841Y-120584850D01*
X84725000Y-120833000D01*
X84725000Y-121040118D01*
X84943841Y-120758506D01*
X84943841Y-120839839D01*
X84943952Y-120848810D01*
X84944533Y-120861677D01*
X84945612Y-120873835D01*
X84947189Y-120885284D01*
X84949264Y-120896025D01*
X84951837Y-120906058D01*
X84954908Y-120915383D01*
X84959778Y-120926713D01*
X84965533Y-120936784D01*
X84972173Y-120945596D01*
X84979810Y-120953324D01*
X84988553Y-120960022D01*
X84998403Y-120965689D01*
X85009359Y-120970326D01*
X85021423Y-120973932D01*
X85031196Y-120975961D01*
X85041593Y-120977410D01*
X85052611Y-120978279D01*
X85064253Y-120978569D01*
X85197121Y-120978569D01*
X85208895Y-120978279D01*
X85220039Y-120977410D01*
X85230551Y-120975961D01*
X85240432Y-120973932D01*
X85252625Y-120970326D01*
X85263696Y-120965689D01*
X85273645Y-120960022D01*
X85282472Y-120953324D01*
X85290177Y-120945596D01*
X85293667Y-120941348D01*
X85299972Y-120931906D01*
X85305376Y-120921205D01*
X85309879Y-120909245D01*
X85312665Y-120899448D01*
X85314945Y-120888943D01*
X85316718Y-120877730D01*
X85317985Y-120865808D01*
X85318745Y-120853178D01*
X85318998Y-120839839D01*
X85318998Y-120306657D01*
X84725000Y-120306657D01*
X84582143Y-120306657D01*
X84582143Y-119903656D01*
X84725000Y-119903656D01*
X84725111Y-119914723D01*
X84725446Y-119925333D01*
X84726004Y-119935484D01*
X84727260Y-119949852D01*
X84729018Y-119963190D01*
X84731278Y-119975498D01*
X84734041Y-119986775D01*
X84737306Y-119997022D01*
X84741074Y-120006238D01*
X84746878Y-120016924D01*
X84753576Y-120025778D01*
X84759422Y-120031452D01*
X84768593Y-120038150D01*
X84779335Y-120043855D01*
X84788424Y-120047483D01*
X84798398Y-120050553D01*
X84809256Y-120053064D01*
X84820998Y-120055018D01*
X84833625Y-120056413D01*
X84847136Y-120057250D01*
X84861531Y-120057529D01*
X85178314Y-120057529D01*
X85188279Y-120057407D01*
X85202467Y-120056766D01*
X85215744Y-120055575D01*
X85228112Y-120053835D01*
X85239570Y-120051545D01*
X85250117Y-120048706D01*
X85259754Y-120045317D01*
X85271188Y-120039944D01*
X85281003Y-120033593D01*
X85289200Y-120026266D01*
X85291034Y-120024268D01*
X85297785Y-120015094D01*
X85303605Y-120004027D01*
X85307358Y-119994484D01*
X85310588Y-119983877D01*
X85313295Y-119972205D01*
X85315477Y-119959468D01*
X85317136Y-119945666D01*
X85317951Y-119935873D01*
X85318533Y-119925608D01*
X85318882Y-119914869D01*
X85318998Y-119903656D01*
X85318998Y-119445701D01*
X85318882Y-119434575D01*
X85318533Y-119423914D01*
X85317951Y-119413716D01*
X85316641Y-119399288D01*
X85314808Y-119385903D01*
X85312451Y-119373562D01*
X85309570Y-119362264D01*
X85306165Y-119352010D01*
X85302237Y-119342798D01*
X85296184Y-119332139D01*
X85289200Y-119323335D01*
X85281003Y-119315951D01*
X85271188Y-119309551D01*
X85259754Y-119304135D01*
X85250117Y-119300720D01*
X85239570Y-119297859D01*
X85228112Y-119295551D01*
X85215744Y-119293797D01*
X85202467Y-119292597D01*
X85188279Y-119291951D01*
X85178314Y-119291828D01*
X84861531Y-119291828D01*
X84851836Y-119291951D01*
X84838030Y-119292597D01*
X84825109Y-119293797D01*
X84813071Y-119295551D01*
X84801919Y-119297859D01*
X84791651Y-119300720D01*
X84782267Y-119304135D01*
X84771131Y-119309551D01*
X84761567Y-119315951D01*
X84753576Y-119323335D01*
X84746878Y-119332139D01*
X84741074Y-119342798D01*
X84737306Y-119352010D01*
X84734041Y-119362264D01*
X84731278Y-119373562D01*
X84729018Y-119385903D01*
X84727260Y-119399288D01*
X84726004Y-119413716D01*
X84725446Y-119423914D01*
X84725111Y-119434575D01*
X84725095Y-119436175D01*
X84725000Y-119445701D01*
X84725000Y-119903656D01*
X84582143Y-119903656D01*
X84582143Y-118833384D01*
X84725000Y-118833384D01*
X85209577Y-118833384D01*
X85209577Y-119119881D01*
X85318998Y-119119881D01*
X85318998Y-118403517D01*
X85209577Y-118403517D01*
X85209577Y-118689281D01*
X84725000Y-118689281D01*
X84725000Y-118833384D01*
X84582143Y-118833384D01*
X84582143Y-118077697D01*
X84725000Y-118077697D01*
X84725111Y-118088764D01*
X84725446Y-118099373D01*
X84726004Y-118109525D01*
X84727260Y-118123893D01*
X84729018Y-118137231D01*
X84731278Y-118149538D01*
X84734041Y-118160816D01*
X84737306Y-118171062D01*
X84741074Y-118180279D01*
X84746878Y-118190964D01*
X84753576Y-118199818D01*
X84759422Y-118205492D01*
X84768593Y-118212190D01*
X84779335Y-118217895D01*
X84788424Y-118221523D01*
X84798398Y-118224593D01*
X84809256Y-118227105D01*
X84820998Y-118229058D01*
X84833625Y-118230453D01*
X84847136Y-118231291D01*
X84861531Y-118231570D01*
X85178314Y-118231570D01*
X85188279Y-118231448D01*
X85202467Y-118230806D01*
X85215744Y-118229616D01*
X85228112Y-118227876D01*
X85239570Y-118225586D01*
X85250117Y-118222746D01*
X85259754Y-118219358D01*
X85271188Y-118213984D01*
X85281003Y-118207634D01*
X85289200Y-118200307D01*
X85291034Y-118198309D01*
X85297785Y-118189134D01*
X85303605Y-118178067D01*
X85307358Y-118168525D01*
X85310588Y-118157917D01*
X85313295Y-118146245D01*
X85315477Y-118133508D01*
X85317136Y-118119706D01*
X85317951Y-118109914D01*
X85318533Y-118099648D01*
X85318882Y-118088909D01*
X85318998Y-118077697D01*
X85318998Y-117619741D01*
X85318882Y-117608616D01*
X85318533Y-117597954D01*
X85317951Y-117587756D01*
X85316641Y-117573328D01*
X85314808Y-117559944D01*
X85312451Y-117547603D01*
X85309570Y-117536305D01*
X85306165Y-117526050D01*
X85302237Y-117516839D01*
X85296184Y-117506180D01*
X85289200Y-117497376D01*
X85281003Y-117489991D01*
X85271188Y-117483591D01*
X85259754Y-117478176D01*
X85250117Y-117474761D01*
X85239570Y-117471899D01*
X85228112Y-117469591D01*
X85215744Y-117467838D01*
X85202467Y-117466638D01*
X85188279Y-117465991D01*
X85178314Y-117465868D01*
X84861531Y-117465868D01*
X84851836Y-117465991D01*
X84838030Y-117466638D01*
X84825109Y-117467838D01*
X84813071Y-117469591D01*
X84801919Y-117471899D01*
X84791651Y-117474761D01*
X84782267Y-117478176D01*
X84771131Y-117483591D01*
X84761567Y-117489991D01*
X84753576Y-117497376D01*
X84746878Y-117506180D01*
X84741074Y-117516839D01*
X84737306Y-117526050D01*
X84734041Y-117536305D01*
X84731278Y-117547603D01*
X84729018Y-117559944D01*
X84727260Y-117573328D01*
X84726004Y-117587756D01*
X84725446Y-117597954D01*
X84725111Y-117608616D01*
X84725095Y-117610216D01*
X84725000Y-117619741D01*
X84725000Y-118077697D01*
X84582143Y-118077697D01*
X84582143Y-116236106D01*
X84725000Y-116236106D01*
X84725000Y-116372149D01*
X85172452Y-116372149D01*
X85176685Y-116372130D01*
X85187432Y-116371915D01*
X85197309Y-116371518D01*
X85207379Y-116370928D01*
X85216676Y-116370378D01*
X85226491Y-116369706D01*
X85236826Y-116368913D01*
X85247679Y-116367997D01*
X85240259Y-116371164D01*
X85230582Y-116375751D01*
X85221851Y-116380316D01*
X85212997Y-116385338D01*
X85209676Y-116387392D01*
X85200589Y-116393246D01*
X85192363Y-116398819D01*
X85183880Y-116404813D01*
X85175139Y-116411228D01*
X84818789Y-116683314D01*
X84818789Y-116716776D01*
X85173674Y-116988129D01*
X85177416Y-116990702D01*
X85185831Y-116996169D01*
X85194465Y-117001456D01*
X85202983Y-117006448D01*
X85210012Y-117010415D01*
X85219082Y-117015347D01*
X85229086Y-117020606D01*
X85238406Y-117025374D01*
X85248412Y-117030383D01*
X85245408Y-117030051D01*
X85235178Y-117028949D01*
X85225392Y-117027941D01*
X85214752Y-117026903D01*
X85204692Y-117025987D01*
X85203478Y-117025882D01*
X85193148Y-117025085D01*
X85182940Y-117024518D01*
X85172452Y-117024277D01*
X84725000Y-117024277D01*
X84725000Y-117180104D01*
X85444050Y-117180104D01*
X85444050Y-117045526D01*
X85014427Y-116712623D01*
X85444050Y-116372149D01*
X85444050Y-116236106D01*
X84725000Y-116236106D01*
X84582143Y-116236106D01*
X84582143Y-116093249D01*
X85586907Y-116093249D01*
X85586907Y-122700944D01*
G37*
G36*
X84348050Y-98841591D02*
G01*
X84347921Y-98852183D01*
X84347531Y-98862402D01*
X84346883Y-98872249D01*
X84345423Y-98886322D01*
X84343379Y-98899557D01*
X84340752Y-98911956D01*
X84337540Y-98923517D01*
X84333745Y-98934241D01*
X84329366Y-98944128D01*
X84324403Y-98953177D01*
X84318856Y-98961390D01*
X84314833Y-98966400D01*
X84305957Y-98975444D01*
X84295813Y-98983283D01*
X84287374Y-98988370D01*
X84278222Y-98992780D01*
X84268357Y-98996511D01*
X84257780Y-98999563D01*
X84246490Y-99001937D01*
X84234487Y-99003633D01*
X84221772Y-99004651D01*
X84208344Y-99004990D01*
X84050074Y-99004990D01*
X84036688Y-99004651D01*
X84024005Y-99003633D01*
X84012027Y-99001937D01*
X84000752Y-98999563D01*
X83990182Y-98996511D01*
X83980316Y-98992780D01*
X83971154Y-98988370D01*
X83962696Y-98983283D01*
X83952514Y-98975444D01*
X83943584Y-98966400D01*
X83935799Y-98956008D01*
X83930641Y-98947237D01*
X83926067Y-98937630D01*
X83922078Y-98927185D01*
X83918672Y-98915902D01*
X83915849Y-98903783D01*
X83913611Y-98890826D01*
X83911957Y-98877033D01*
X83910886Y-98862402D01*
X83910497Y-98852183D01*
X83910367Y-98841591D01*
X83910367Y-98389010D01*
X84035420Y-98389010D01*
X84035420Y-98767097D01*
X84035610Y-98777592D01*
X84036386Y-98789487D01*
X84037757Y-98800023D01*
X84040190Y-98810870D01*
X84044114Y-98821052D01*
X84047632Y-98826693D01*
X84055051Y-98833745D01*
X84064851Y-98838783D01*
X84075380Y-98841538D01*
X84085855Y-98842671D01*
X84091595Y-98842813D01*
X84167311Y-98842813D01*
X84178207Y-98842246D01*
X84189292Y-98840152D01*
X84198623Y-98836516D01*
X84207141Y-98830471D01*
X84210542Y-98826693D01*
X84215991Y-98817015D01*
X84219057Y-98807472D01*
X84221246Y-98795972D01*
X84222402Y-98784892D01*
X84222889Y-98775050D01*
X84222998Y-98767097D01*
X84222998Y-98389010D01*
X84035420Y-98389010D01*
X83910367Y-98389010D01*
X83629000Y-98389010D01*
X83629000Y-98223657D01*
X84348050Y-98223657D01*
X84348050Y-98841591D01*
G37*
G36*
X84203703Y-99275611D02*
G01*
X84213878Y-99275742D01*
X84223643Y-99276134D01*
X84237521Y-99277212D01*
X84250476Y-99278879D01*
X84262508Y-99281133D01*
X84273617Y-99283976D01*
X84283803Y-99287407D01*
X84293066Y-99291427D01*
X84303981Y-99297701D01*
X84313254Y-99305020D01*
X84317276Y-99309072D01*
X84324489Y-99318445D01*
X84330740Y-99329833D01*
X84334797Y-99339696D01*
X84338313Y-99350693D01*
X84341288Y-99362823D01*
X84343723Y-99376086D01*
X84345616Y-99390483D01*
X84346578Y-99400711D01*
X84347299Y-99411442D01*
X84347780Y-99422678D01*
X84348020Y-99434417D01*
X84348050Y-99440475D01*
X84348050Y-99811724D01*
X84347930Y-99823686D01*
X84347570Y-99835149D01*
X84346969Y-99846111D01*
X84346127Y-99856573D01*
X84345045Y-99866536D01*
X84342971Y-99880542D01*
X84340357Y-99893423D01*
X84337201Y-99905180D01*
X84333505Y-99915812D01*
X84329267Y-99925318D01*
X84322776Y-99936245D01*
X84317276Y-99943127D01*
X84308823Y-99951084D01*
X84298729Y-99957980D01*
X84286994Y-99963815D01*
X84277115Y-99967495D01*
X84266314Y-99970578D01*
X84254590Y-99973065D01*
X84241942Y-99974955D01*
X84228372Y-99976248D01*
X84213878Y-99976944D01*
X84203703Y-99977076D01*
X84154854Y-99977076D01*
X84141990Y-99976825D01*
X84129896Y-99976069D01*
X84118573Y-99974810D01*
X84108021Y-99973046D01*
X84098240Y-99970780D01*
X84087097Y-99967238D01*
X84077159Y-99962908D01*
X84073521Y-99960956D01*
X84064488Y-99954810D01*
X84056891Y-99948295D01*
X84048967Y-99940361D01*
X84040714Y-99931008D01*
X84034309Y-99923061D01*
X84027720Y-99914315D01*
X84020945Y-99904771D01*
X84013987Y-99894428D01*
X84006843Y-99883287D01*
X83754052Y-99458793D01*
X83754052Y-99878647D01*
X83863473Y-99878647D01*
X83824882Y-100012003D01*
X83766020Y-100012003D01*
X83751666Y-100011705D01*
X83738188Y-100010810D01*
X83725585Y-100009318D01*
X83713859Y-100007229D01*
X83703008Y-100004544D01*
X83693033Y-100001261D01*
X83683934Y-99997382D01*
X83673165Y-99991282D01*
X83663952Y-99984121D01*
X83658064Y-99978053D01*
X83651252Y-99968623D01*
X83645349Y-99957186D01*
X83641517Y-99947291D01*
X83638196Y-99936266D01*
X83635386Y-99924112D01*
X83633087Y-99910829D01*
X83631299Y-99896417D01*
X83630390Y-99886182D01*
X83629709Y-99875445D01*
X83629255Y-99864206D01*
X83629028Y-99852465D01*
X83629000Y-99846407D01*
X83629000Y-99238730D01*
X83692258Y-99238730D01*
X83703822Y-99239043D01*
X83714698Y-99239982D01*
X83724888Y-99241547D01*
X83736659Y-99244383D01*
X83747356Y-99248197D01*
X83756980Y-99252989D01*
X83765531Y-99258758D01*
X83773771Y-99265851D01*
X83782309Y-99274458D01*
X83789354Y-99282434D01*
X83796589Y-99291379D01*
X83804016Y-99301294D01*
X83809711Y-99309366D01*
X83815513Y-99317983D01*
X83821423Y-99327146D01*
X83823417Y-99330321D01*
X84129209Y-99830042D01*
X84222998Y-99830042D01*
X84222998Y-99418493D01*
X84066683Y-99418493D01*
X84105517Y-99275611D01*
X84203703Y-99275611D01*
G37*
G36*
X129077459Y-84810998D02*
G01*
X128699371Y-84810998D01*
X128691419Y-84810884D01*
X128681576Y-84810379D01*
X128670497Y-84809178D01*
X128658997Y-84806902D01*
X128649454Y-84803717D01*
X128639776Y-84798053D01*
X128635132Y-84793619D01*
X128629339Y-84784590D01*
X128625923Y-84774736D01*
X128624223Y-84764838D01*
X128623656Y-84753601D01*
X128623656Y-84665918D01*
X128623908Y-84658102D01*
X128625230Y-84647523D01*
X128628205Y-84636918D01*
X128632723Y-84628182D01*
X128639776Y-84620489D01*
X128645417Y-84616830D01*
X128655598Y-84612749D01*
X128666446Y-84610219D01*
X128676981Y-84608793D01*
X128688876Y-84607987D01*
X128699371Y-84607788D01*
X129077459Y-84607788D01*
X129077459Y-84810998D01*
G37*
G36*
X131439776Y-84810998D02*
G01*
X131061688Y-84810998D01*
X131053735Y-84810889D01*
X131043893Y-84810402D01*
X131032814Y-84809246D01*
X131021314Y-84807057D01*
X131011771Y-84803991D01*
X131002093Y-84798542D01*
X130998315Y-84795141D01*
X130992270Y-84786623D01*
X130988633Y-84777292D01*
X130986539Y-84766207D01*
X130985973Y-84755311D01*
X130985973Y-84679595D01*
X130986114Y-84673855D01*
X130987248Y-84663380D01*
X130990003Y-84652851D01*
X130995040Y-84643051D01*
X131002093Y-84635632D01*
X131007734Y-84632114D01*
X131017915Y-84628190D01*
X131028763Y-84625757D01*
X131039298Y-84624386D01*
X131051193Y-84623610D01*
X131061688Y-84623420D01*
X131439776Y-84623420D01*
X131439776Y-84810998D01*
G37*
G36*
X138483226Y-85078907D02*
G01*
X128242906Y-85078907D01*
X128242906Y-84217000D01*
X128385763Y-84217000D01*
X128719155Y-84482736D01*
X128624877Y-84482736D01*
X128614286Y-84482867D01*
X128604067Y-84483262D01*
X128589436Y-84484349D01*
X128575642Y-84486027D01*
X128562686Y-84488298D01*
X128550566Y-84491162D01*
X128539284Y-84494618D01*
X128528839Y-84498667D01*
X128519231Y-84503308D01*
X128510461Y-84508542D01*
X128500069Y-84516441D01*
X128497695Y-84518602D01*
X128488952Y-84528028D01*
X128483186Y-84535920D01*
X128478098Y-84544515D01*
X128473689Y-84553814D01*
X128469958Y-84563818D01*
X128466905Y-84574525D01*
X128464531Y-84585937D01*
X128462835Y-84598053D01*
X128461818Y-84610873D01*
X128461479Y-84624397D01*
X128461479Y-84753601D01*
X128461479Y-84795855D01*
X128461818Y-84809329D01*
X128462835Y-84822090D01*
X128464531Y-84834139D01*
X128466905Y-84845475D01*
X128469958Y-84856098D01*
X128473689Y-84866008D01*
X128478098Y-84875206D01*
X128483186Y-84883691D01*
X128491024Y-84893896D01*
X128500069Y-84902833D01*
X128505079Y-84906856D01*
X128513291Y-84912403D01*
X128522341Y-84917366D01*
X128532228Y-84921745D01*
X128542952Y-84925540D01*
X128554513Y-84928752D01*
X128566911Y-84931379D01*
X128580147Y-84933423D01*
X128594220Y-84934883D01*
X128604067Y-84935531D01*
X128614286Y-84935921D01*
X128624877Y-84936050D01*
X129242812Y-84936050D01*
X129494626Y-84936050D01*
X129644835Y-84936050D01*
X129819957Y-84453671D01*
X130015352Y-84936050D01*
X130133077Y-84936050D01*
X130325052Y-84453671D01*
X130508234Y-84936050D01*
X130681890Y-84936050D01*
X130627839Y-84796344D01*
X130823795Y-84796344D01*
X130824135Y-84809772D01*
X130825152Y-84822487D01*
X130826848Y-84834490D01*
X130829222Y-84845780D01*
X130832275Y-84856357D01*
X130836006Y-84866222D01*
X130840415Y-84875374D01*
X130845503Y-84883813D01*
X130853341Y-84893957D01*
X130862386Y-84902833D01*
X130867396Y-84906856D01*
X130875608Y-84912403D01*
X130884658Y-84917366D01*
X130894545Y-84921745D01*
X130905269Y-84925540D01*
X130916830Y-84928752D01*
X130929228Y-84931379D01*
X130942464Y-84933423D01*
X130956537Y-84934883D01*
X130966384Y-84935531D01*
X130976603Y-84935921D01*
X130987194Y-84936050D01*
X131605128Y-84936050D01*
X131605128Y-84217000D01*
X132514444Y-84217000D01*
X132514444Y-84936050D01*
X132665631Y-84936050D01*
X132665631Y-84558451D01*
X132665554Y-84550895D01*
X132665286Y-84540679D01*
X132664885Y-84530073D01*
X132664410Y-84519616D01*
X132663766Y-84508937D01*
X132663085Y-84498136D01*
X132662445Y-84488250D01*
X132661722Y-84477257D01*
X132660915Y-84465158D01*
X132660255Y-84455357D01*
X132659547Y-84444933D01*
X132658792Y-84433887D01*
X132659818Y-84435122D01*
X132667188Y-84443703D01*
X132673765Y-84450964D01*
X132680583Y-84458140D01*
X132687641Y-84465229D01*
X132694940Y-84472233D01*
X132699981Y-84476973D01*
X132707901Y-84484226D01*
X132716250Y-84491651D01*
X132725029Y-84499247D01*
X132732672Y-84505708D01*
X132740613Y-84512289D01*
X133249371Y-84936050D01*
X133364165Y-84936050D01*
X133567864Y-84936050D01*
X134400488Y-84936050D01*
X134400488Y-84810998D01*
X134069050Y-84810998D01*
X134069050Y-84483713D01*
X134585380Y-84483713D01*
X134585416Y-84489804D01*
X134585708Y-84501621D01*
X134586292Y-84512951D01*
X134587168Y-84523795D01*
X134588336Y-84534153D01*
X134589795Y-84544024D01*
X134592532Y-84557918D01*
X134595926Y-84570717D01*
X134599977Y-84582421D01*
X134604685Y-84593031D01*
X134610049Y-84602545D01*
X134616070Y-84610965D01*
X134622749Y-84618290D01*
X134630315Y-84624794D01*
X134639092Y-84630658D01*
X134649080Y-84635882D01*
X134660278Y-84640467D01*
X134672687Y-84644412D01*
X134686307Y-84647717D01*
X134696060Y-84649565D01*
X134706350Y-84651129D01*
X134717179Y-84652408D01*
X134728546Y-84653403D01*
X134740451Y-84654114D01*
X134752894Y-84654541D01*
X134765875Y-84654683D01*
X135216259Y-84654683D01*
X135216259Y-84810998D01*
X134743405Y-84810998D01*
X134743405Y-84732840D01*
X134594905Y-84766057D01*
X134594905Y-84780468D01*
X134594943Y-84785866D01*
X134595246Y-84796351D01*
X134595853Y-84806422D01*
X134597332Y-84820753D01*
X134599494Y-84834151D01*
X134602338Y-84846618D01*
X134605865Y-84858154D01*
X134610075Y-84868758D01*
X134614967Y-84878430D01*
X134620542Y-84887170D01*
X134626799Y-84894979D01*
X134633740Y-84901856D01*
X134638811Y-84905997D01*
X134647344Y-84911707D01*
X134656989Y-84916816D01*
X134667745Y-84921324D01*
X134679614Y-84925231D01*
X134692595Y-84928537D01*
X134706688Y-84931242D01*
X134716701Y-84932711D01*
X134727208Y-84933913D01*
X134738210Y-84934848D01*
X134749705Y-84935516D01*
X134761695Y-84935917D01*
X134774179Y-84936050D01*
X135184263Y-84936050D01*
X135197154Y-84935912D01*
X135209512Y-84935497D01*
X135221335Y-84934805D01*
X135232623Y-84933837D01*
X135243377Y-84932592D01*
X135253597Y-84931070D01*
X135263283Y-84929272D01*
X135276810Y-84926055D01*
X135289135Y-84922216D01*
X135300257Y-84917755D01*
X135310178Y-84912671D01*
X135318896Y-84906964D01*
X135326412Y-84900635D01*
X135328681Y-84898362D01*
X135335056Y-84890827D01*
X135340783Y-84882219D01*
X135345861Y-84872538D01*
X135350291Y-84861783D01*
X135354073Y-84849955D01*
X135357206Y-84837053D01*
X135359691Y-84823079D01*
X135360988Y-84813166D01*
X135361996Y-84802776D01*
X135362717Y-84791909D01*
X135363149Y-84780565D01*
X135363293Y-84768744D01*
X135363293Y-84687655D01*
X135363257Y-84681459D01*
X135362969Y-84669435D01*
X135362393Y-84657906D01*
X135361528Y-84646871D01*
X135360376Y-84636331D01*
X135358935Y-84626284D01*
X135356234Y-84612141D01*
X135352884Y-84599111D01*
X135348887Y-84587192D01*
X135344240Y-84576384D01*
X135338946Y-84566689D01*
X135333003Y-84558106D01*
X135326412Y-84550635D01*
X135318896Y-84544088D01*
X135310178Y-84538185D01*
X135300257Y-84532925D01*
X135289135Y-84528310D01*
X135276810Y-84524339D01*
X135263283Y-84521011D01*
X135253597Y-84519151D01*
X135243377Y-84517577D01*
X135232623Y-84516289D01*
X135221335Y-84515287D01*
X135209512Y-84514571D01*
X135197154Y-84514142D01*
X135184263Y-84513999D01*
X134733635Y-84513999D01*
X134733635Y-84357683D01*
X135244347Y-84357683D01*
X135244347Y-84435841D01*
X135392602Y-84407753D01*
X135392602Y-84389679D01*
X135392566Y-84383528D01*
X135392276Y-84371592D01*
X135391696Y-84360147D01*
X135390826Y-84349192D01*
X135389666Y-84338728D01*
X135388215Y-84328754D01*
X135385496Y-84314713D01*
X135382125Y-84301775D01*
X135378100Y-84289940D01*
X135373423Y-84279209D01*
X135368094Y-84269581D01*
X135362112Y-84261057D01*
X135355477Y-84253636D01*
X135347869Y-84247089D01*
X135339060Y-84241185D01*
X135329048Y-84235926D01*
X135317833Y-84231311D01*
X135305417Y-84227339D01*
X135291799Y-84224012D01*
X135282052Y-84222151D01*
X135271771Y-84220577D01*
X135260955Y-84219289D01*
X135249606Y-84218287D01*
X135237722Y-84217572D01*
X135225303Y-84217143D01*
X135212351Y-84217000D01*
X136089916Y-84217000D01*
X136479483Y-84605346D01*
X136164410Y-84936050D01*
X136357850Y-84936050D01*
X136577424Y-84691808D01*
X136808478Y-84936050D01*
X137031227Y-84936050D01*
X137153105Y-84936050D01*
X137303314Y-84936050D01*
X137478436Y-84453671D01*
X137673830Y-84936050D01*
X137791555Y-84936050D01*
X137983530Y-84453671D01*
X138166712Y-84936050D01*
X138340369Y-84936050D01*
X138062176Y-84217000D01*
X137945917Y-84217000D01*
X137744417Y-84714278D01*
X137545359Y-84217000D01*
X137431786Y-84217000D01*
X137153105Y-84936050D01*
X137031227Y-84936050D01*
X136682693Y-84586295D01*
X137025121Y-84217000D01*
X136826796Y-84217000D01*
X136582798Y-84495925D01*
X136318283Y-84217000D01*
X136089916Y-84217000D01*
X135212351Y-84217000D01*
X134765875Y-84217000D01*
X134752894Y-84217143D01*
X134740451Y-84217572D01*
X134728546Y-84218287D01*
X134717179Y-84219289D01*
X134706350Y-84220577D01*
X134696060Y-84222151D01*
X134686307Y-84224012D01*
X134672687Y-84227339D01*
X134660278Y-84231311D01*
X134649080Y-84235926D01*
X134639092Y-84241185D01*
X134630315Y-84247089D01*
X134622749Y-84253636D01*
X134618224Y-84258461D01*
X134611983Y-84266617D01*
X134606400Y-84275877D01*
X134601473Y-84286241D01*
X134597203Y-84297707D01*
X134593591Y-84310278D01*
X134590635Y-84323951D01*
X134589029Y-84333680D01*
X134587715Y-84343899D01*
X134586693Y-84354608D01*
X134585963Y-84365808D01*
X134585526Y-84377499D01*
X134585380Y-84389679D01*
X134585380Y-84483713D01*
X134069050Y-84483713D01*
X134069050Y-84217000D01*
X133900767Y-84217000D01*
X133900767Y-84810998D01*
X133567864Y-84810998D01*
X133567864Y-84936050D01*
X133364165Y-84936050D01*
X133364165Y-84217000D01*
X133212979Y-84217000D01*
X133212979Y-84605346D01*
X133213039Y-84613772D01*
X133213261Y-84624297D01*
X133213647Y-84635571D01*
X133214108Y-84645829D01*
X133214689Y-84656637D01*
X133215390Y-84667931D01*
X133216211Y-84679466D01*
X133216988Y-84689262D01*
X133217848Y-84699225D01*
X133218791Y-84709354D01*
X133219818Y-84719651D01*
X133215161Y-84714356D01*
X133207886Y-84706478D01*
X133200263Y-84698677D01*
X133193195Y-84691808D01*
X133190453Y-84689215D01*
X133182740Y-84682029D01*
X133175515Y-84675416D01*
X133167847Y-84668498D01*
X133159734Y-84661277D01*
X132629239Y-84217000D01*
X132514444Y-84217000D01*
X131605128Y-84217000D01*
X131439776Y-84217000D01*
X131439776Y-84498367D01*
X130987194Y-84498367D01*
X130976603Y-84498497D01*
X130966384Y-84498886D01*
X130951753Y-84499957D01*
X130937959Y-84501611D01*
X130925002Y-84503849D01*
X130912883Y-84506672D01*
X130901601Y-84510078D01*
X130891156Y-84514067D01*
X130881548Y-84518641D01*
X130872778Y-84523799D01*
X130862386Y-84531584D01*
X130853341Y-84540514D01*
X130845503Y-84550696D01*
X130840415Y-84559154D01*
X130836006Y-84568316D01*
X130832275Y-84578182D01*
X130829222Y-84588752D01*
X130826848Y-84600027D01*
X130825152Y-84612005D01*
X130824135Y-84624688D01*
X130823795Y-84638074D01*
X130823795Y-84755311D01*
X130823795Y-84796344D01*
X130627839Y-84796344D01*
X130403698Y-84217000D01*
X130287438Y-84217000D01*
X130085938Y-84714278D01*
X129886880Y-84217000D01*
X129773307Y-84217000D01*
X129494626Y-84936050D01*
X129242812Y-84936050D01*
X129242812Y-84217000D01*
X129077459Y-84217000D01*
X129077459Y-84482736D01*
X128918213Y-84482736D01*
X128627075Y-84217000D01*
X128385763Y-84217000D01*
X128242906Y-84217000D01*
X128242906Y-84074143D01*
X138483226Y-84074143D01*
X138483226Y-85078907D01*
G37*
G36*
X84348050Y-121701591D02*
G01*
X84347921Y-121712183D01*
X84347531Y-121722402D01*
X84346883Y-121732249D01*
X84345423Y-121746322D01*
X84343379Y-121759557D01*
X84340752Y-121771956D01*
X84337540Y-121783517D01*
X84333745Y-121794241D01*
X84329366Y-121804128D01*
X84324403Y-121813177D01*
X84318856Y-121821390D01*
X84314833Y-121826400D01*
X84305957Y-121835444D01*
X84295813Y-121843283D01*
X84287374Y-121848370D01*
X84278222Y-121852780D01*
X84268357Y-121856511D01*
X84257780Y-121859563D01*
X84246490Y-121861937D01*
X84234487Y-121863633D01*
X84221772Y-121864651D01*
X84208344Y-121864990D01*
X84050074Y-121864990D01*
X84036688Y-121864651D01*
X84024005Y-121863633D01*
X84012027Y-121861937D01*
X84000752Y-121859563D01*
X83990182Y-121856511D01*
X83980316Y-121852780D01*
X83971154Y-121848370D01*
X83962696Y-121843283D01*
X83952514Y-121835444D01*
X83943584Y-121826400D01*
X83935799Y-121816008D01*
X83930641Y-121807237D01*
X83926067Y-121797630D01*
X83922078Y-121787185D01*
X83918672Y-121775902D01*
X83915849Y-121763783D01*
X83913611Y-121750826D01*
X83911957Y-121737033D01*
X83910886Y-121722402D01*
X83910497Y-121712183D01*
X83910367Y-121701591D01*
X83910367Y-121249010D01*
X84035420Y-121249010D01*
X84035420Y-121627097D01*
X84035610Y-121637592D01*
X84036386Y-121649487D01*
X84037757Y-121660023D01*
X84040190Y-121670870D01*
X84044114Y-121681052D01*
X84047632Y-121686693D01*
X84055051Y-121693745D01*
X84064851Y-121698783D01*
X84075380Y-121701538D01*
X84085855Y-121702671D01*
X84091595Y-121702813D01*
X84167311Y-121702813D01*
X84178207Y-121702246D01*
X84189292Y-121700152D01*
X84198623Y-121696516D01*
X84207141Y-121690471D01*
X84210542Y-121686693D01*
X84215991Y-121677015D01*
X84219057Y-121667472D01*
X84221246Y-121655972D01*
X84222402Y-121644892D01*
X84222889Y-121635050D01*
X84222998Y-121627097D01*
X84222998Y-121249010D01*
X84035420Y-121249010D01*
X83910367Y-121249010D01*
X83629000Y-121249010D01*
X83629000Y-121083657D01*
X84348050Y-121083657D01*
X84348050Y-121701591D01*
G37*
G36*
X84203703Y-122135611D02*
G01*
X84213878Y-122135742D01*
X84223643Y-122136134D01*
X84237521Y-122137212D01*
X84250476Y-122138879D01*
X84262508Y-122141133D01*
X84273617Y-122143976D01*
X84283803Y-122147407D01*
X84293066Y-122151427D01*
X84303981Y-122157701D01*
X84313254Y-122165020D01*
X84317276Y-122169072D01*
X84324489Y-122178445D01*
X84330740Y-122189833D01*
X84334797Y-122199696D01*
X84338313Y-122210693D01*
X84341288Y-122222823D01*
X84343723Y-122236086D01*
X84345616Y-122250483D01*
X84346578Y-122260711D01*
X84347299Y-122271442D01*
X84347780Y-122282678D01*
X84348020Y-122294417D01*
X84348050Y-122300475D01*
X84348050Y-122671724D01*
X84347930Y-122683686D01*
X84347570Y-122695149D01*
X84346969Y-122706111D01*
X84346127Y-122716573D01*
X84345045Y-122726536D01*
X84342971Y-122740542D01*
X84340357Y-122753423D01*
X84337201Y-122765180D01*
X84333505Y-122775812D01*
X84329267Y-122785318D01*
X84322776Y-122796245D01*
X84317276Y-122803127D01*
X84308823Y-122811084D01*
X84298729Y-122817980D01*
X84286994Y-122823815D01*
X84277115Y-122827495D01*
X84266314Y-122830578D01*
X84254590Y-122833065D01*
X84241942Y-122834955D01*
X84228372Y-122836248D01*
X84213878Y-122836944D01*
X84203703Y-122837076D01*
X84154854Y-122837076D01*
X84141990Y-122836825D01*
X84129896Y-122836069D01*
X84118573Y-122834810D01*
X84108021Y-122833046D01*
X84098240Y-122830780D01*
X84087097Y-122827238D01*
X84077159Y-122822908D01*
X84073521Y-122820956D01*
X84064488Y-122814810D01*
X84056891Y-122808295D01*
X84048967Y-122800361D01*
X84040714Y-122791008D01*
X84034309Y-122783061D01*
X84027720Y-122774315D01*
X84020945Y-122764771D01*
X84013987Y-122754428D01*
X84006843Y-122743287D01*
X83754052Y-122318793D01*
X83754052Y-122738647D01*
X83863473Y-122738647D01*
X83824882Y-122872003D01*
X83766020Y-122872003D01*
X83751666Y-122871705D01*
X83738188Y-122870810D01*
X83725585Y-122869318D01*
X83713859Y-122867229D01*
X83703008Y-122864544D01*
X83693033Y-122861261D01*
X83683934Y-122857382D01*
X83673165Y-122851282D01*
X83663952Y-122844121D01*
X83658064Y-122838053D01*
X83651252Y-122828623D01*
X83645349Y-122817186D01*
X83641517Y-122807291D01*
X83638196Y-122796266D01*
X83635386Y-122784112D01*
X83633087Y-122770829D01*
X83631299Y-122756417D01*
X83630390Y-122746182D01*
X83629709Y-122735445D01*
X83629255Y-122724206D01*
X83629028Y-122712465D01*
X83629000Y-122706407D01*
X83629000Y-122098730D01*
X83692258Y-122098730D01*
X83703822Y-122099043D01*
X83714698Y-122099982D01*
X83724888Y-122101547D01*
X83736659Y-122104383D01*
X83747356Y-122108197D01*
X83756980Y-122112989D01*
X83765531Y-122118758D01*
X83773771Y-122125851D01*
X83782309Y-122134458D01*
X83789354Y-122142434D01*
X83796589Y-122151379D01*
X83804016Y-122161294D01*
X83809711Y-122169366D01*
X83815513Y-122177983D01*
X83821423Y-122187146D01*
X83823417Y-122190321D01*
X84129209Y-122690042D01*
X84222998Y-122690042D01*
X84222998Y-122278493D01*
X84066683Y-122278493D01*
X84105517Y-122135611D01*
X84203703Y-122135611D01*
G37*
G36*
X138815123Y-83074143D02*
G01*
X138827481Y-83074572D01*
X138839303Y-83075287D01*
X138850592Y-83076289D01*
X138861346Y-83077577D01*
X138871566Y-83079151D01*
X138881252Y-83081012D01*
X138894779Y-83084339D01*
X138907104Y-83088311D01*
X138918226Y-83092926D01*
X138928147Y-83098185D01*
X138936865Y-83104089D01*
X138944381Y-83110636D01*
X138950972Y-83118120D01*
X138956915Y-83126742D01*
X138962209Y-83136501D01*
X138966855Y-83147398D01*
X138970853Y-83159433D01*
X138974203Y-83172606D01*
X138976904Y-83186916D01*
X138978345Y-83197089D01*
X138979497Y-83207767D01*
X138980362Y-83218950D01*
X138980938Y-83230640D01*
X138981226Y-83242835D01*
X138981262Y-83249122D01*
X138981262Y-83626721D01*
X138981118Y-83638452D01*
X138980686Y-83649710D01*
X138979965Y-83660495D01*
X138978957Y-83670807D01*
X138977660Y-83680645D01*
X138975175Y-83694516D01*
X138972042Y-83707321D01*
X138968260Y-83719062D01*
X138963830Y-83729738D01*
X138958752Y-83739349D01*
X138953025Y-83747896D01*
X138946650Y-83755378D01*
X138944381Y-83757635D01*
X138936865Y-83763964D01*
X138928147Y-83769671D01*
X138918226Y-83774755D01*
X138907104Y-83779216D01*
X138894779Y-83783055D01*
X138881252Y-83786272D01*
X138871566Y-83788070D01*
X138861346Y-83789592D01*
X138850592Y-83790837D01*
X138839303Y-83791805D01*
X138827481Y-83792497D01*
X138815123Y-83792912D01*
X138802232Y-83793050D01*
X138270271Y-83793050D01*
X138257380Y-83792912D01*
X138245022Y-83792497D01*
X138233200Y-83791805D01*
X138221911Y-83790837D01*
X138211157Y-83789592D01*
X138200937Y-83788070D01*
X138191251Y-83786272D01*
X138177724Y-83783055D01*
X138165399Y-83779216D01*
X138154277Y-83774755D01*
X138144356Y-83769671D01*
X138135638Y-83763964D01*
X138128122Y-83757635D01*
X138119478Y-83747896D01*
X138113751Y-83739349D01*
X138108673Y-83729738D01*
X138104243Y-83719062D01*
X138100461Y-83707321D01*
X138097328Y-83694516D01*
X138094843Y-83680645D01*
X138093546Y-83670807D01*
X138092538Y-83660495D01*
X138091817Y-83649710D01*
X138091385Y-83638452D01*
X138091241Y-83626721D01*
X138091241Y-83249122D01*
X138091385Y-83236674D01*
X138091817Y-83224732D01*
X138092450Y-83214683D01*
X138258792Y-83214683D01*
X138258792Y-83667998D01*
X138812979Y-83667998D01*
X138812979Y-83214683D01*
X138258792Y-83214683D01*
X138092450Y-83214683D01*
X138092538Y-83213295D01*
X138093546Y-83202364D01*
X138094843Y-83191939D01*
X138096427Y-83182020D01*
X138099345Y-83168089D01*
X138102910Y-83155295D01*
X138107124Y-83143639D01*
X138111986Y-83133122D01*
X138117497Y-83123741D01*
X138123656Y-83115499D01*
X138128122Y-83110636D01*
X138135638Y-83104089D01*
X138144356Y-83098185D01*
X138154277Y-83092926D01*
X138165399Y-83088311D01*
X138177724Y-83084339D01*
X138191251Y-83081012D01*
X138200937Y-83079151D01*
X138211157Y-83077577D01*
X138221911Y-83076289D01*
X138233200Y-83075287D01*
X138245022Y-83074572D01*
X138257380Y-83074143D01*
X138270271Y-83074000D01*
X138802232Y-83074000D01*
X138815123Y-83074143D01*
G37*
G36*
X137569050Y-83793050D02*
G01*
X137569050Y-83214683D01*
X137089845Y-83214683D01*
X137089845Y-83793050D01*
X136922295Y-83793050D01*
X136922295Y-83249122D01*
X136922439Y-83236674D01*
X136922871Y-83224732D01*
X136923591Y-83213295D01*
X136924600Y-83202364D01*
X136925896Y-83191939D01*
X136927481Y-83182020D01*
X136930398Y-83168089D01*
X136933964Y-83155295D01*
X136938178Y-83143639D01*
X136943040Y-83133122D01*
X136948551Y-83123741D01*
X136954709Y-83115499D01*
X136959175Y-83110636D01*
X136966692Y-83104089D01*
X136975410Y-83098185D01*
X136985330Y-83092926D01*
X136996453Y-83088311D01*
X137008778Y-83084339D01*
X137022305Y-83081012D01*
X137031990Y-83079151D01*
X137042210Y-83077577D01*
X137052965Y-83076289D01*
X137064253Y-83075287D01*
X137076076Y-83074572D01*
X137088433Y-83074143D01*
X137101325Y-83074000D01*
X137558059Y-83074000D01*
X137570864Y-83074143D01*
X137583143Y-83074572D01*
X137594899Y-83075287D01*
X137606129Y-83076289D01*
X137616835Y-83077577D01*
X137627016Y-83079151D01*
X137636672Y-83081012D01*
X137650172Y-83084339D01*
X137662492Y-83088311D01*
X137673631Y-83092926D01*
X137683589Y-83098185D01*
X137692367Y-83104089D01*
X137699964Y-83110636D01*
X137706599Y-83118120D01*
X137712581Y-83126742D01*
X137717910Y-83136501D01*
X137722587Y-83147398D01*
X137726611Y-83159433D01*
X137729983Y-83172606D01*
X137732702Y-83186916D01*
X137734152Y-83197089D01*
X137735312Y-83207767D01*
X137736183Y-83218950D01*
X137736763Y-83230640D01*
X137737053Y-83242835D01*
X137737089Y-83249122D01*
X137737089Y-83793050D01*
X137569050Y-83793050D01*
G37*
G36*
X136216677Y-83667998D02*
G01*
X136216677Y-83074000D01*
X136384960Y-83074000D01*
X136384960Y-83667998D01*
X136716398Y-83667998D01*
X136716398Y-83793050D01*
X135883774Y-83793050D01*
X135883774Y-83667998D01*
X136216677Y-83667998D01*
G37*
G36*
X135678610Y-83793050D02*
G01*
X135060676Y-83793050D01*
X135050085Y-83792921D01*
X135039866Y-83792531D01*
X135030019Y-83791883D01*
X135015946Y-83790423D01*
X135002710Y-83788379D01*
X134990312Y-83785752D01*
X134978750Y-83782540D01*
X134968026Y-83778745D01*
X134958140Y-83774366D01*
X134949090Y-83769403D01*
X134940878Y-83763856D01*
X134935868Y-83759833D01*
X134926823Y-83750957D01*
X134918984Y-83740813D01*
X134913897Y-83732374D01*
X134909488Y-83723222D01*
X134905757Y-83713357D01*
X134902704Y-83702780D01*
X134900330Y-83691490D01*
X134898634Y-83679487D01*
X134897616Y-83666772D01*
X134897277Y-83653344D01*
X134897277Y-83612311D01*
X135059455Y-83612311D01*
X135060021Y-83623207D01*
X135062115Y-83634292D01*
X135065751Y-83643623D01*
X135071796Y-83652141D01*
X135075575Y-83655542D01*
X135085253Y-83660991D01*
X135094795Y-83664057D01*
X135106296Y-83666246D01*
X135117375Y-83667402D01*
X135127217Y-83667889D01*
X135135170Y-83667998D01*
X135513258Y-83667998D01*
X135513258Y-83480420D01*
X135135170Y-83480420D01*
X135124675Y-83480610D01*
X135112780Y-83481386D01*
X135102245Y-83482757D01*
X135091397Y-83485190D01*
X135081216Y-83489114D01*
X135075575Y-83492632D01*
X135068522Y-83500051D01*
X135063485Y-83509851D01*
X135060730Y-83520380D01*
X135059596Y-83530855D01*
X135059455Y-83536595D01*
X135059455Y-83612311D01*
X134897277Y-83612311D01*
X134897277Y-83495074D01*
X134897616Y-83481688D01*
X134898634Y-83469005D01*
X134900330Y-83457027D01*
X134902704Y-83445752D01*
X134905757Y-83435182D01*
X134909488Y-83425316D01*
X134913897Y-83416154D01*
X134918984Y-83407696D01*
X134926823Y-83397514D01*
X134935868Y-83388584D01*
X134946259Y-83380799D01*
X134955030Y-83375641D01*
X134964638Y-83371067D01*
X134975083Y-83367078D01*
X134986365Y-83363672D01*
X134998484Y-83360849D01*
X135011441Y-83358611D01*
X135025235Y-83356957D01*
X135039866Y-83355886D01*
X135050085Y-83355497D01*
X135060676Y-83355367D01*
X135513258Y-83355367D01*
X135513258Y-83074000D01*
X135678610Y-83074000D01*
X135678610Y-83793050D01*
G37*
G36*
X134482797Y-83793050D02*
G01*
X134482797Y-83214683D01*
X134003593Y-83214683D01*
X134003593Y-83793050D01*
X133836042Y-83793050D01*
X133836042Y-83249122D01*
X133836186Y-83236674D01*
X133836618Y-83224732D01*
X133837339Y-83213295D01*
X133838347Y-83202364D01*
X133839644Y-83191939D01*
X133841228Y-83182020D01*
X133844146Y-83168089D01*
X133847711Y-83155295D01*
X133851925Y-83143639D01*
X133856788Y-83133122D01*
X133862298Y-83123741D01*
X133868457Y-83115499D01*
X133872923Y-83110636D01*
X133880439Y-83104089D01*
X133889157Y-83098185D01*
X133899078Y-83092926D01*
X133910200Y-83088311D01*
X133922525Y-83084339D01*
X133936052Y-83081012D01*
X133945738Y-83079151D01*
X133955958Y-83077577D01*
X133966712Y-83076289D01*
X133978001Y-83075287D01*
X133989824Y-83074572D01*
X134002181Y-83074143D01*
X134015072Y-83074000D01*
X134471806Y-83074000D01*
X134484611Y-83074143D01*
X134496891Y-83074572D01*
X134508646Y-83075287D01*
X134519876Y-83076289D01*
X134530582Y-83077577D01*
X134540763Y-83079151D01*
X134550419Y-83081012D01*
X134563919Y-83084339D01*
X134576239Y-83088311D01*
X134587378Y-83092926D01*
X134597337Y-83098185D01*
X134606114Y-83104089D01*
X134613711Y-83110636D01*
X134620346Y-83118120D01*
X134626328Y-83126742D01*
X134631657Y-83136501D01*
X134636334Y-83147398D01*
X134640359Y-83159433D01*
X134643730Y-83172606D01*
X134646449Y-83186916D01*
X134647900Y-83197089D01*
X134649060Y-83207767D01*
X134649930Y-83218950D01*
X134650510Y-83230640D01*
X134650800Y-83242835D01*
X134650836Y-83249122D01*
X134650836Y-83793050D01*
X134482797Y-83793050D01*
G37*
G36*
X133142148Y-83667998D02*
G01*
X133142148Y-83074000D01*
X133310432Y-83074000D01*
X133310432Y-83667998D01*
X133641869Y-83667998D01*
X133641869Y-83793050D01*
X132809245Y-83793050D01*
X132809245Y-83667998D01*
X133142148Y-83667998D01*
G37*
G36*
X131911844Y-83074143D02*
G01*
X131924201Y-83074572D01*
X131936024Y-83075287D01*
X131947312Y-83076289D01*
X131958067Y-83077577D01*
X131968287Y-83079151D01*
X131977972Y-83081012D01*
X131991499Y-83084339D01*
X132003824Y-83088311D01*
X132014946Y-83092926D01*
X132024867Y-83098185D01*
X132033585Y-83104089D01*
X132041101Y-83110636D01*
X132047692Y-83118120D01*
X132053635Y-83126742D01*
X132058930Y-83136501D01*
X132063576Y-83147398D01*
X132067573Y-83159433D01*
X132070923Y-83172606D01*
X132073624Y-83186916D01*
X132075065Y-83197089D01*
X132076217Y-83207767D01*
X132077082Y-83218950D01*
X132077658Y-83230640D01*
X132077946Y-83242835D01*
X132077982Y-83249122D01*
X132077982Y-83626721D01*
X132077838Y-83638452D01*
X132077406Y-83649710D01*
X132076686Y-83660495D01*
X132075677Y-83670807D01*
X132074381Y-83680645D01*
X132071895Y-83694516D01*
X132068762Y-83707321D01*
X132064980Y-83719062D01*
X132060550Y-83729738D01*
X132055472Y-83739349D01*
X132049745Y-83747896D01*
X132043370Y-83755378D01*
X132041101Y-83757635D01*
X132033585Y-83763964D01*
X132024867Y-83769671D01*
X132014946Y-83774755D01*
X132003824Y-83779216D01*
X131991499Y-83783055D01*
X131977972Y-83786272D01*
X131968287Y-83788070D01*
X131958067Y-83789592D01*
X131947312Y-83790837D01*
X131936024Y-83791805D01*
X131924201Y-83792497D01*
X131911844Y-83792912D01*
X131898952Y-83793050D01*
X131366991Y-83793050D01*
X131354100Y-83792912D01*
X131341743Y-83792497D01*
X131329920Y-83791805D01*
X131318631Y-83790837D01*
X131307877Y-83789592D01*
X131297657Y-83788070D01*
X131287971Y-83786272D01*
X131274444Y-83783055D01*
X131262119Y-83779216D01*
X131250997Y-83774755D01*
X131241076Y-83769671D01*
X131232358Y-83763964D01*
X131224842Y-83757635D01*
X131216198Y-83747896D01*
X131210471Y-83739349D01*
X131205393Y-83729738D01*
X131200963Y-83719062D01*
X131197181Y-83707321D01*
X131194048Y-83694516D01*
X131191563Y-83680645D01*
X131190266Y-83670807D01*
X131189258Y-83660495D01*
X131188537Y-83649710D01*
X131188105Y-83638452D01*
X131187961Y-83626721D01*
X131187961Y-83249122D01*
X131188105Y-83236674D01*
X131188537Y-83224732D01*
X131189170Y-83214683D01*
X131355512Y-83214683D01*
X131355512Y-83667998D01*
X131909699Y-83667998D01*
X131909699Y-83214683D01*
X131355512Y-83214683D01*
X131189170Y-83214683D01*
X131189258Y-83213295D01*
X131190266Y-83202364D01*
X131191563Y-83191939D01*
X131193148Y-83182020D01*
X131196065Y-83168089D01*
X131199630Y-83155295D01*
X131203844Y-83143639D01*
X131208707Y-83133122D01*
X131214217Y-83123741D01*
X131220376Y-83115499D01*
X131224842Y-83110636D01*
X131232358Y-83104089D01*
X131241076Y-83098185D01*
X131250997Y-83092926D01*
X131262119Y-83088311D01*
X131274444Y-83084339D01*
X131287971Y-83081012D01*
X131297657Y-83079151D01*
X131307877Y-83077577D01*
X131318631Y-83076289D01*
X131329920Y-83075287D01*
X131341743Y-83074572D01*
X131354100Y-83074143D01*
X131366991Y-83074000D01*
X131898952Y-83074000D01*
X131911844Y-83074143D01*
G37*
G36*
X130835275Y-83074000D02*
G01*
X130835275Y-83793050D01*
X130720480Y-83793050D01*
X130211723Y-83369289D01*
X130203781Y-83362708D01*
X130196138Y-83356247D01*
X130187359Y-83348651D01*
X130179010Y-83341226D01*
X130171090Y-83333973D01*
X130166049Y-83329233D01*
X130158750Y-83322229D01*
X130151692Y-83315140D01*
X130144874Y-83307964D01*
X130138297Y-83300703D01*
X130130927Y-83292122D01*
X130129901Y-83290887D01*
X130130656Y-83301933D01*
X130131364Y-83312357D01*
X130132024Y-83322158D01*
X130132831Y-83334257D01*
X130133555Y-83345250D01*
X130134194Y-83355136D01*
X130134875Y-83365937D01*
X130135519Y-83376616D01*
X130135995Y-83387073D01*
X130136395Y-83397679D01*
X130136664Y-83407895D01*
X130136740Y-83415451D01*
X130136740Y-83793050D01*
X129985554Y-83793050D01*
X129985554Y-83074000D01*
X130100348Y-83074000D01*
X130630843Y-83518277D01*
X130638956Y-83525498D01*
X130646625Y-83532416D01*
X130653849Y-83539029D01*
X130661562Y-83546215D01*
X130664305Y-83548808D01*
X130671372Y-83555677D01*
X130678995Y-83563478D01*
X130686270Y-83571356D01*
X130690927Y-83576651D01*
X130689900Y-83566354D01*
X130688957Y-83556225D01*
X130688097Y-83546262D01*
X130687321Y-83536466D01*
X130686499Y-83524931D01*
X130685798Y-83513637D01*
X130685217Y-83502829D01*
X130684756Y-83492571D01*
X130684370Y-83481297D01*
X130684148Y-83470772D01*
X130684088Y-83462346D01*
X130684088Y-83074000D01*
X130835275Y-83074000D01*
G37*
G36*
X129617480Y-83074000D02*
G01*
X129617480Y-83793050D01*
X129449441Y-83793050D01*
X129449441Y-83214683D01*
X128907221Y-83214683D01*
X128907221Y-83074000D01*
X129617480Y-83074000D01*
G37*
G36*
X128550383Y-83074000D02*
G01*
X128550383Y-83395667D01*
X128925540Y-83793050D01*
X128701325Y-83793050D01*
X128453174Y-83516812D01*
X128204535Y-83793050D01*
X128006942Y-83793050D01*
X128380878Y-83399819D01*
X128380878Y-83074000D01*
X128550383Y-83074000D01*
G37*
G36*
X127770027Y-83277210D02*
G01*
X127746091Y-83277210D01*
X127735929Y-83276437D01*
X127726132Y-83273393D01*
X127718736Y-83267440D01*
X127714425Y-83258443D01*
X127712229Y-83247691D01*
X127711349Y-83237217D01*
X127711164Y-83228605D01*
X127711164Y-83122604D01*
X127711456Y-83112142D01*
X127712535Y-83101739D01*
X127715089Y-83091214D01*
X127719469Y-83083281D01*
X127729079Y-83077997D01*
X127739433Y-83075776D01*
X127750930Y-83074580D01*
X127762361Y-83074081D01*
X127770027Y-83074000D01*
X127893125Y-83074000D01*
X127903307Y-83074772D01*
X127913180Y-83077816D01*
X127920725Y-83083769D01*
X127925174Y-83092766D01*
X127927441Y-83103519D01*
X127928350Y-83113992D01*
X127928540Y-83122604D01*
X127928540Y-83228605D01*
X127928240Y-83239058D01*
X127927130Y-83249430D01*
X127924500Y-83259880D01*
X127919992Y-83267684D01*
X127911429Y-83272707D01*
X127901603Y-83275117D01*
X127890670Y-83276456D01*
X127879787Y-83277061D01*
X127869922Y-83277210D01*
X127770027Y-83277210D01*
G37*
G36*
X127875295Y-83370999D02*
G01*
X127927319Y-83793050D01*
X127711164Y-83793050D01*
X127763188Y-83370999D01*
X127875295Y-83370999D01*
G37*
G36*
X85209577Y-97918290D02*
G01*
X85209321Y-97929466D01*
X85208552Y-97939485D01*
X85206952Y-97949980D01*
X85204152Y-97960120D01*
X85199075Y-97969825D01*
X85193030Y-97976023D01*
X85184040Y-97980879D01*
X85174102Y-97983313D01*
X85163904Y-97983991D01*
X85098935Y-97983991D01*
X85090100Y-97983493D01*
X85079895Y-97981280D01*
X85070568Y-97976673D01*
X85063520Y-97969825D01*
X85062889Y-97968932D01*
X85058561Y-97960120D01*
X85055826Y-97949980D01*
X85054264Y-97939485D01*
X85053512Y-97929466D01*
X85053262Y-97918290D01*
X85053262Y-97588806D01*
X85209577Y-97588806D01*
X85209577Y-97918290D01*
G37*
G36*
X85209577Y-97053426D02*
G01*
X84834420Y-97053426D01*
X84834420Y-96576175D01*
X85209577Y-96576175D01*
X85209577Y-97053426D01*
G37*
G36*
X85209577Y-95227466D02*
G01*
X84834420Y-95227466D01*
X84834420Y-94750216D01*
X85209577Y-94750216D01*
X85209577Y-95227466D01*
G37*
G36*
X85586907Y-99840944D02*
G01*
X84582143Y-99840944D01*
X84582143Y-98924815D01*
X84725000Y-98924815D01*
X84725000Y-99532491D01*
X84725028Y-99538549D01*
X84725255Y-99550290D01*
X84725709Y-99561529D01*
X84726390Y-99572266D01*
X84727299Y-99582502D01*
X84729087Y-99596914D01*
X84731386Y-99610197D01*
X84734196Y-99622350D01*
X84737517Y-99633375D01*
X84741349Y-99643270D01*
X84747252Y-99654708D01*
X84754064Y-99664138D01*
X84759952Y-99670205D01*
X84769165Y-99677366D01*
X84779934Y-99683467D01*
X84789033Y-99687346D01*
X84799008Y-99690628D01*
X84809859Y-99693313D01*
X84821585Y-99695402D01*
X84834188Y-99696894D01*
X84847666Y-99697789D01*
X84862020Y-99698087D01*
X84920882Y-99698087D01*
X84959473Y-99564731D01*
X84850052Y-99564731D01*
X84850052Y-99144877D01*
X85102843Y-99569372D01*
X85109987Y-99580513D01*
X85116945Y-99590855D01*
X85123720Y-99600399D01*
X85130309Y-99609145D01*
X85136714Y-99617092D01*
X85144967Y-99626446D01*
X85152891Y-99634380D01*
X85160488Y-99640894D01*
X85169521Y-99647041D01*
X85173159Y-99648993D01*
X85183097Y-99653322D01*
X85194240Y-99656864D01*
X85204021Y-99659131D01*
X85214573Y-99660894D01*
X85225896Y-99662153D01*
X85237990Y-99662909D01*
X85250854Y-99663161D01*
X85299703Y-99663161D01*
X85309878Y-99663028D01*
X85324372Y-99662332D01*
X85337942Y-99661039D01*
X85350590Y-99659149D01*
X85362314Y-99656663D01*
X85373115Y-99653579D01*
X85382994Y-99649899D01*
X85394729Y-99644064D01*
X85404823Y-99637168D01*
X85413276Y-99629211D01*
X85418776Y-99622329D01*
X85425267Y-99611403D01*
X85429505Y-99601896D01*
X85433201Y-99591264D01*
X85436357Y-99579508D01*
X85438971Y-99566626D01*
X85441045Y-99552620D01*
X85442127Y-99542657D01*
X85442969Y-99532195D01*
X85443570Y-99521233D01*
X85443930Y-99509771D01*
X85444050Y-99497808D01*
X85444050Y-99126559D01*
X85444020Y-99120501D01*
X85443780Y-99108762D01*
X85443299Y-99097527D01*
X85442578Y-99086795D01*
X85441616Y-99076568D01*
X85439723Y-99062171D01*
X85437288Y-99048907D01*
X85434313Y-99036777D01*
X85430797Y-99025780D01*
X85426740Y-99015917D01*
X85420489Y-99004529D01*
X85413276Y-98995157D01*
X85409254Y-98991105D01*
X85399981Y-98983785D01*
X85389066Y-98977511D01*
X85379803Y-98973492D01*
X85369617Y-98970061D01*
X85358508Y-98967218D01*
X85346476Y-98964963D01*
X85333521Y-98963296D01*
X85319643Y-98962218D01*
X85309878Y-98961826D01*
X85299703Y-98961695D01*
X85201517Y-98961695D01*
X85162683Y-99104577D01*
X85318998Y-99104577D01*
X85318998Y-99516127D01*
X85225209Y-99516127D01*
X84919417Y-99016406D01*
X84917423Y-99013230D01*
X84911513Y-99004068D01*
X84905711Y-98995450D01*
X84900016Y-98987378D01*
X84892589Y-98977463D01*
X84885354Y-98968518D01*
X84878309Y-98960542D01*
X84869771Y-98951935D01*
X84861531Y-98944843D01*
X84852980Y-98939073D01*
X84843356Y-98934281D01*
X84832659Y-98930467D01*
X84820888Y-98927631D01*
X84810698Y-98926066D01*
X84799822Y-98925128D01*
X84788258Y-98924815D01*
X84725000Y-98924815D01*
X84582143Y-98924815D01*
X84582143Y-97446657D01*
X84725000Y-97446657D01*
X84725000Y-97588806D01*
X84943841Y-97588806D01*
X84943841Y-97724850D01*
X84725000Y-97973000D01*
X84725000Y-98180118D01*
X84943841Y-97898506D01*
X84943841Y-97979839D01*
X84943952Y-97988810D01*
X84944533Y-98001677D01*
X84945612Y-98013835D01*
X84947189Y-98025284D01*
X84949264Y-98036025D01*
X84951837Y-98046058D01*
X84954908Y-98055383D01*
X84959778Y-98066713D01*
X84965533Y-98076784D01*
X84972173Y-98085596D01*
X84979810Y-98093324D01*
X84988553Y-98100022D01*
X84998403Y-98105689D01*
X85009359Y-98110326D01*
X85021423Y-98113932D01*
X85031196Y-98115961D01*
X85041593Y-98117410D01*
X85052611Y-98118279D01*
X85064253Y-98118569D01*
X85197121Y-98118569D01*
X85208895Y-98118279D01*
X85220039Y-98117410D01*
X85230551Y-98115961D01*
X85240432Y-98113932D01*
X85252625Y-98110326D01*
X85263696Y-98105689D01*
X85273645Y-98100022D01*
X85282472Y-98093324D01*
X85290177Y-98085596D01*
X85293667Y-98081348D01*
X85299972Y-98071906D01*
X85305376Y-98061205D01*
X85309879Y-98049245D01*
X85312665Y-98039448D01*
X85314945Y-98028943D01*
X85316718Y-98017730D01*
X85317985Y-98005808D01*
X85318745Y-97993178D01*
X85318998Y-97979839D01*
X85318998Y-97446657D01*
X84725000Y-97446657D01*
X84582143Y-97446657D01*
X84582143Y-97043656D01*
X84725000Y-97043656D01*
X84725111Y-97054723D01*
X84725446Y-97065333D01*
X84726004Y-97075484D01*
X84727260Y-97089852D01*
X84729018Y-97103190D01*
X84731278Y-97115498D01*
X84734041Y-97126775D01*
X84737306Y-97137022D01*
X84741074Y-97146238D01*
X84746878Y-97156924D01*
X84753576Y-97165778D01*
X84759422Y-97171452D01*
X84768593Y-97178150D01*
X84779335Y-97183855D01*
X84788424Y-97187483D01*
X84798398Y-97190553D01*
X84809256Y-97193064D01*
X84820998Y-97195018D01*
X84833625Y-97196413D01*
X84847136Y-97197250D01*
X84861531Y-97197529D01*
X85178314Y-97197529D01*
X85188279Y-97197407D01*
X85202467Y-97196766D01*
X85215744Y-97195575D01*
X85228112Y-97193835D01*
X85239570Y-97191545D01*
X85250117Y-97188706D01*
X85259754Y-97185317D01*
X85271188Y-97179944D01*
X85281003Y-97173593D01*
X85289200Y-97166266D01*
X85291034Y-97164268D01*
X85297785Y-97155094D01*
X85303605Y-97144027D01*
X85307358Y-97134484D01*
X85310588Y-97123877D01*
X85313295Y-97112205D01*
X85315477Y-97099468D01*
X85317136Y-97085666D01*
X85317951Y-97075873D01*
X85318533Y-97065608D01*
X85318882Y-97054869D01*
X85318998Y-97043656D01*
X85318998Y-96585701D01*
X85318882Y-96574575D01*
X85318533Y-96563914D01*
X85317951Y-96553716D01*
X85316641Y-96539288D01*
X85314808Y-96525903D01*
X85312451Y-96513562D01*
X85309570Y-96502264D01*
X85306165Y-96492010D01*
X85302237Y-96482798D01*
X85296184Y-96472139D01*
X85289200Y-96463335D01*
X85281003Y-96455951D01*
X85271188Y-96449551D01*
X85259754Y-96444135D01*
X85250117Y-96440720D01*
X85239570Y-96437859D01*
X85228112Y-96435551D01*
X85215744Y-96433797D01*
X85202467Y-96432597D01*
X85188279Y-96431951D01*
X85178314Y-96431828D01*
X84861531Y-96431828D01*
X84851836Y-96431951D01*
X84838030Y-96432597D01*
X84825109Y-96433797D01*
X84813071Y-96435551D01*
X84801919Y-96437859D01*
X84791651Y-96440720D01*
X84782267Y-96444135D01*
X84771131Y-96449551D01*
X84761567Y-96455951D01*
X84753576Y-96463335D01*
X84746878Y-96472139D01*
X84741074Y-96482798D01*
X84737306Y-96492010D01*
X84734041Y-96502264D01*
X84731278Y-96513562D01*
X84729018Y-96525903D01*
X84727260Y-96539288D01*
X84726004Y-96553716D01*
X84725446Y-96563914D01*
X84725111Y-96574575D01*
X84725095Y-96576175D01*
X84725000Y-96585701D01*
X84725000Y-97043656D01*
X84582143Y-97043656D01*
X84582143Y-95973384D01*
X84725000Y-95973384D01*
X85209577Y-95973384D01*
X85209577Y-96259881D01*
X85318998Y-96259881D01*
X85318998Y-95543517D01*
X85209577Y-95543517D01*
X85209577Y-95829281D01*
X84725000Y-95829281D01*
X84725000Y-95973384D01*
X84582143Y-95973384D01*
X84582143Y-95217697D01*
X84725000Y-95217697D01*
X84725111Y-95228764D01*
X84725446Y-95239373D01*
X84726004Y-95249525D01*
X84727260Y-95263893D01*
X84729018Y-95277231D01*
X84731278Y-95289538D01*
X84734041Y-95300816D01*
X84737306Y-95311062D01*
X84741074Y-95320279D01*
X84746878Y-95330964D01*
X84753576Y-95339818D01*
X84759422Y-95345492D01*
X84768593Y-95352190D01*
X84779335Y-95357895D01*
X84788424Y-95361523D01*
X84798398Y-95364593D01*
X84809256Y-95367105D01*
X84820998Y-95369058D01*
X84833625Y-95370453D01*
X84847136Y-95371291D01*
X84861531Y-95371570D01*
X85178314Y-95371570D01*
X85188279Y-95371448D01*
X85202467Y-95370806D01*
X85215744Y-95369616D01*
X85228112Y-95367876D01*
X85239570Y-95365586D01*
X85250117Y-95362746D01*
X85259754Y-95359358D01*
X85271188Y-95353984D01*
X85281003Y-95347634D01*
X85289200Y-95340307D01*
X85291034Y-95338309D01*
X85297785Y-95329134D01*
X85303605Y-95318067D01*
X85307358Y-95308525D01*
X85310588Y-95297917D01*
X85313295Y-95286245D01*
X85315477Y-95273508D01*
X85317136Y-95259706D01*
X85317951Y-95249914D01*
X85318533Y-95239648D01*
X85318882Y-95228909D01*
X85318998Y-95217697D01*
X85318998Y-94759741D01*
X85318882Y-94748616D01*
X85318533Y-94737954D01*
X85317951Y-94727756D01*
X85316641Y-94713328D01*
X85314808Y-94699944D01*
X85312451Y-94687603D01*
X85309570Y-94676305D01*
X85306165Y-94666050D01*
X85302237Y-94656839D01*
X85296184Y-94646180D01*
X85289200Y-94637376D01*
X85281003Y-94629991D01*
X85271188Y-94623591D01*
X85259754Y-94618176D01*
X85250117Y-94614761D01*
X85239570Y-94611899D01*
X85228112Y-94609591D01*
X85215744Y-94607838D01*
X85202467Y-94606638D01*
X85188279Y-94605991D01*
X85178314Y-94605868D01*
X84861531Y-94605868D01*
X84851836Y-94605991D01*
X84838030Y-94606638D01*
X84825109Y-94607838D01*
X84813071Y-94609591D01*
X84801919Y-94611899D01*
X84791651Y-94614761D01*
X84782267Y-94618176D01*
X84771131Y-94623591D01*
X84761567Y-94629991D01*
X84753576Y-94637376D01*
X84746878Y-94646180D01*
X84741074Y-94656839D01*
X84737306Y-94666050D01*
X84734041Y-94676305D01*
X84731278Y-94687603D01*
X84729018Y-94699944D01*
X84727260Y-94713328D01*
X84726004Y-94727756D01*
X84725446Y-94737954D01*
X84725111Y-94748616D01*
X84725095Y-94750216D01*
X84725000Y-94759741D01*
X84725000Y-95217697D01*
X84582143Y-95217697D01*
X84582143Y-93376106D01*
X84725000Y-93376106D01*
X84725000Y-93512149D01*
X85172452Y-93512149D01*
X85176685Y-93512130D01*
X85187432Y-93511915D01*
X85197309Y-93511518D01*
X85207379Y-93510928D01*
X85216676Y-93510378D01*
X85226491Y-93509706D01*
X85236826Y-93508913D01*
X85247679Y-93507997D01*
X85240259Y-93511164D01*
X85230582Y-93515751D01*
X85221851Y-93520316D01*
X85212997Y-93525338D01*
X85209676Y-93527392D01*
X85200589Y-93533246D01*
X85192363Y-93538819D01*
X85183880Y-93544813D01*
X85175139Y-93551228D01*
X84818789Y-93823314D01*
X84818789Y-93856776D01*
X85173674Y-94128129D01*
X85177416Y-94130702D01*
X85185831Y-94136169D01*
X85194465Y-94141456D01*
X85202983Y-94146448D01*
X85210012Y-94150415D01*
X85219082Y-94155347D01*
X85229086Y-94160606D01*
X85238406Y-94165374D01*
X85248412Y-94170383D01*
X85245408Y-94170051D01*
X85235178Y-94168949D01*
X85225392Y-94167941D01*
X85214752Y-94166903D01*
X85204692Y-94165987D01*
X85203478Y-94165882D01*
X85193148Y-94165085D01*
X85182940Y-94164518D01*
X85172452Y-94164277D01*
X84725000Y-94164277D01*
X84725000Y-94320104D01*
X85444050Y-94320104D01*
X85444050Y-94185526D01*
X85014427Y-93852623D01*
X85444050Y-93512149D01*
X85444050Y-93376106D01*
X84725000Y-93376106D01*
X84582143Y-93376106D01*
X84582143Y-93233249D01*
X85586907Y-93233249D01*
X85586907Y-99840944D01*
G37*
D16*
X111395000Y-122861050D02*
X111502143Y-122896764D01*
X111502143Y-122896764D02*
X111680714Y-122896764D01*
X111680714Y-122896764D02*
X111752143Y-122861050D01*
X111752143Y-122861050D02*
X111787857Y-122825335D01*
X111787857Y-122825335D02*
X111823571Y-122753907D01*
X111823571Y-122753907D02*
X111823571Y-122682478D01*
X111823571Y-122682478D02*
X111787857Y-122611050D01*
X111787857Y-122611050D02*
X111752143Y-122575335D01*
X111752143Y-122575335D02*
X111680714Y-122539621D01*
X111680714Y-122539621D02*
X111537857Y-122503907D01*
X111537857Y-122503907D02*
X111466428Y-122468192D01*
X111466428Y-122468192D02*
X111430714Y-122432478D01*
X111430714Y-122432478D02*
X111395000Y-122361050D01*
X111395000Y-122361050D02*
X111395000Y-122289621D01*
X111395000Y-122289621D02*
X111430714Y-122218192D01*
X111430714Y-122218192D02*
X111466428Y-122182478D01*
X111466428Y-122182478D02*
X111537857Y-122146764D01*
X111537857Y-122146764D02*
X111716428Y-122146764D01*
X111716428Y-122146764D02*
X111823571Y-122182478D01*
X112073571Y-122146764D02*
X112252143Y-122896764D01*
X112252143Y-122896764D02*
X112395000Y-122361050D01*
X112395000Y-122361050D02*
X112537857Y-122896764D01*
X112537857Y-122896764D02*
X112716429Y-122146764D01*
X113359286Y-122146764D02*
X113002143Y-122146764D01*
X113002143Y-122146764D02*
X112966429Y-122503907D01*
X112966429Y-122503907D02*
X113002143Y-122468192D01*
X113002143Y-122468192D02*
X113073572Y-122432478D01*
X113073572Y-122432478D02*
X113252143Y-122432478D01*
X113252143Y-122432478D02*
X113323572Y-122468192D01*
X113323572Y-122468192D02*
X113359286Y-122503907D01*
X113359286Y-122503907D02*
X113395000Y-122575335D01*
X113395000Y-122575335D02*
X113395000Y-122753907D01*
X113395000Y-122753907D02*
X113359286Y-122825335D01*
X113359286Y-122825335D02*
X113323572Y-122861050D01*
X113323572Y-122861050D02*
X113252143Y-122896764D01*
X113252143Y-122896764D02*
X113073572Y-122896764D01*
X113073572Y-122896764D02*
X113002143Y-122861050D01*
X113002143Y-122861050D02*
X112966429Y-122825335D01*
D15*
X125781089Y-114386724D02*
X125531089Y-114029581D01*
X125352518Y-114386724D02*
X125352518Y-113636724D01*
X125352518Y-113636724D02*
X125638232Y-113636724D01*
X125638232Y-113636724D02*
X125709661Y-113672438D01*
X125709661Y-113672438D02*
X125745375Y-113708152D01*
X125745375Y-113708152D02*
X125781089Y-113779581D01*
X125781089Y-113779581D02*
X125781089Y-113886724D01*
X125781089Y-113886724D02*
X125745375Y-113958152D01*
X125745375Y-113958152D02*
X125709661Y-113993867D01*
X125709661Y-113993867D02*
X125638232Y-114029581D01*
X125638232Y-114029581D02*
X125352518Y-114029581D01*
X126495375Y-114386724D02*
X126066804Y-114386724D01*
X126281089Y-114386724D02*
X126281089Y-113636724D01*
X126281089Y-113636724D02*
X126209661Y-113743867D01*
X126209661Y-113743867D02*
X126138232Y-113815295D01*
X126138232Y-113815295D02*
X126066804Y-113851010D01*
X124257089Y-112862724D02*
X124007089Y-112505581D01*
X123828518Y-112862724D02*
X123828518Y-112112724D01*
X123828518Y-112112724D02*
X124114232Y-112112724D01*
X124114232Y-112112724D02*
X124185661Y-112148438D01*
X124185661Y-112148438D02*
X124221375Y-112184152D01*
X124221375Y-112184152D02*
X124257089Y-112255581D01*
X124257089Y-112255581D02*
X124257089Y-112362724D01*
X124257089Y-112362724D02*
X124221375Y-112434152D01*
X124221375Y-112434152D02*
X124185661Y-112469867D01*
X124185661Y-112469867D02*
X124114232Y-112505581D01*
X124114232Y-112505581D02*
X123828518Y-112505581D01*
X124507089Y-112112724D02*
X124971375Y-112112724D01*
X124971375Y-112112724D02*
X124721375Y-112398438D01*
X124721375Y-112398438D02*
X124828518Y-112398438D01*
X124828518Y-112398438D02*
X124899947Y-112434152D01*
X124899947Y-112434152D02*
X124935661Y-112469867D01*
X124935661Y-112469867D02*
X124971375Y-112541295D01*
X124971375Y-112541295D02*
X124971375Y-112719867D01*
X124971375Y-112719867D02*
X124935661Y-112791295D01*
X124935661Y-112791295D02*
X124899947Y-112827010D01*
X124899947Y-112827010D02*
X124828518Y-112862724D01*
X124828518Y-112862724D02*
X124614232Y-112862724D01*
X124614232Y-112862724D02*
X124542804Y-112827010D01*
X124542804Y-112827010D02*
X124507089Y-112791295D01*
X98059295Y-111327910D02*
X98095010Y-111363624D01*
X98095010Y-111363624D02*
X98130724Y-111470767D01*
X98130724Y-111470767D02*
X98130724Y-111542195D01*
X98130724Y-111542195D02*
X98095010Y-111649338D01*
X98095010Y-111649338D02*
X98023581Y-111720767D01*
X98023581Y-111720767D02*
X97952152Y-111756481D01*
X97952152Y-111756481D02*
X97809295Y-111792195D01*
X97809295Y-111792195D02*
X97702152Y-111792195D01*
X97702152Y-111792195D02*
X97559295Y-111756481D01*
X97559295Y-111756481D02*
X97487867Y-111720767D01*
X97487867Y-111720767D02*
X97416438Y-111649338D01*
X97416438Y-111649338D02*
X97380724Y-111542195D01*
X97380724Y-111542195D02*
X97380724Y-111470767D01*
X97380724Y-111470767D02*
X97416438Y-111363624D01*
X97416438Y-111363624D02*
X97452152Y-111327910D01*
X98130724Y-110613624D02*
X98130724Y-111042195D01*
X98130724Y-110827910D02*
X97380724Y-110827910D01*
X97380724Y-110827910D02*
X97487867Y-110899338D01*
X97487867Y-110899338D02*
X97559295Y-110970767D01*
X97559295Y-110970767D02*
X97595010Y-111042195D01*
X97452152Y-110327909D02*
X97416438Y-110292195D01*
X97416438Y-110292195D02*
X97380724Y-110220767D01*
X97380724Y-110220767D02*
X97380724Y-110042195D01*
X97380724Y-110042195D02*
X97416438Y-109970767D01*
X97416438Y-109970767D02*
X97452152Y-109935052D01*
X97452152Y-109935052D02*
X97523581Y-109899338D01*
X97523581Y-109899338D02*
X97595010Y-109899338D01*
X97595010Y-109899338D02*
X97702152Y-109935052D01*
X97702152Y-109935052D02*
X98130724Y-110363624D01*
X98130724Y-110363624D02*
X98130724Y-109899338D01*
X98059295Y-106882910D02*
X98095010Y-106918624D01*
X98095010Y-106918624D02*
X98130724Y-107025767D01*
X98130724Y-107025767D02*
X98130724Y-107097195D01*
X98130724Y-107097195D02*
X98095010Y-107204338D01*
X98095010Y-107204338D02*
X98023581Y-107275767D01*
X98023581Y-107275767D02*
X97952152Y-107311481D01*
X97952152Y-107311481D02*
X97809295Y-107347195D01*
X97809295Y-107347195D02*
X97702152Y-107347195D01*
X97702152Y-107347195D02*
X97559295Y-107311481D01*
X97559295Y-107311481D02*
X97487867Y-107275767D01*
X97487867Y-107275767D02*
X97416438Y-107204338D01*
X97416438Y-107204338D02*
X97380724Y-107097195D01*
X97380724Y-107097195D02*
X97380724Y-107025767D01*
X97380724Y-107025767D02*
X97416438Y-106918624D01*
X97416438Y-106918624D02*
X97452152Y-106882910D01*
X98130724Y-106168624D02*
X98130724Y-106597195D01*
X98130724Y-106382910D02*
X97380724Y-106382910D01*
X97380724Y-106382910D02*
X97487867Y-106454338D01*
X97487867Y-106454338D02*
X97559295Y-106525767D01*
X97559295Y-106525767D02*
X97595010Y-106597195D01*
X97630724Y-105525767D02*
X98130724Y-105525767D01*
X97345010Y-105704338D02*
X97880724Y-105882909D01*
X97880724Y-105882909D02*
X97880724Y-105418624D01*
X112220909Y-114696295D02*
X112185195Y-114732010D01*
X112185195Y-114732010D02*
X112078052Y-114767724D01*
X112078052Y-114767724D02*
X112006624Y-114767724D01*
X112006624Y-114767724D02*
X111899481Y-114732010D01*
X111899481Y-114732010D02*
X111828052Y-114660581D01*
X111828052Y-114660581D02*
X111792338Y-114589152D01*
X111792338Y-114589152D02*
X111756624Y-114446295D01*
X111756624Y-114446295D02*
X111756624Y-114339152D01*
X111756624Y-114339152D02*
X111792338Y-114196295D01*
X111792338Y-114196295D02*
X111828052Y-114124867D01*
X111828052Y-114124867D02*
X111899481Y-114053438D01*
X111899481Y-114053438D02*
X112006624Y-114017724D01*
X112006624Y-114017724D02*
X112078052Y-114017724D01*
X112078052Y-114017724D02*
X112185195Y-114053438D01*
X112185195Y-114053438D02*
X112220909Y-114089152D01*
X112863767Y-114267724D02*
X112863767Y-114767724D01*
X112685195Y-113982010D02*
X112506624Y-114517724D01*
X112506624Y-114517724D02*
X112970909Y-114517724D01*
D10*
X123363364Y-98795999D02*
X123899078Y-98795999D01*
X123899078Y-98795999D02*
X124006221Y-98831714D01*
X124006221Y-98831714D02*
X124077650Y-98903142D01*
X124077650Y-98903142D02*
X124113364Y-99010285D01*
X124113364Y-99010285D02*
X124113364Y-99081714D01*
X124113364Y-98438856D02*
X123363364Y-98438856D01*
X123363364Y-98438856D02*
X123363364Y-98153142D01*
X123363364Y-98153142D02*
X123399078Y-98081713D01*
X123399078Y-98081713D02*
X123434792Y-98045999D01*
X123434792Y-98045999D02*
X123506221Y-98010285D01*
X123506221Y-98010285D02*
X123613364Y-98010285D01*
X123613364Y-98010285D02*
X123684792Y-98045999D01*
X123684792Y-98045999D02*
X123720507Y-98081713D01*
X123720507Y-98081713D02*
X123756221Y-98153142D01*
X123756221Y-98153142D02*
X123756221Y-98438856D01*
X123434792Y-97724570D02*
X123399078Y-97688856D01*
X123399078Y-97688856D02*
X123363364Y-97617428D01*
X123363364Y-97617428D02*
X123363364Y-97438856D01*
X123363364Y-97438856D02*
X123399078Y-97367428D01*
X123399078Y-97367428D02*
X123434792Y-97331713D01*
X123434792Y-97331713D02*
X123506221Y-97295999D01*
X123506221Y-97295999D02*
X123577650Y-97295999D01*
X123577650Y-97295999D02*
X123684792Y-97331713D01*
X123684792Y-97331713D02*
X124113364Y-97760285D01*
X124113364Y-97760285D02*
X124113364Y-97295999D01*
X126089428Y-123160164D02*
X126518000Y-123160164D01*
X126303714Y-123910164D02*
X126303714Y-123160164D01*
X126768000Y-123910164D02*
X126768000Y-123160164D01*
X126768000Y-123160164D02*
X127053714Y-123160164D01*
X127053714Y-123160164D02*
X127125143Y-123195878D01*
X127125143Y-123195878D02*
X127160857Y-123231592D01*
X127160857Y-123231592D02*
X127196571Y-123303021D01*
X127196571Y-123303021D02*
X127196571Y-123410164D01*
X127196571Y-123410164D02*
X127160857Y-123481592D01*
X127160857Y-123481592D02*
X127125143Y-123517307D01*
X127125143Y-123517307D02*
X127053714Y-123553021D01*
X127053714Y-123553021D02*
X126768000Y-123553021D01*
X127910857Y-123910164D02*
X127482286Y-123910164D01*
X127696571Y-123910164D02*
X127696571Y-123160164D01*
X127696571Y-123160164D02*
X127625143Y-123267307D01*
X127625143Y-123267307D02*
X127553714Y-123338735D01*
X127553714Y-123338735D02*
X127482286Y-123374450D01*
X128196572Y-123231592D02*
X128232286Y-123195878D01*
X128232286Y-123195878D02*
X128303715Y-123160164D01*
X128303715Y-123160164D02*
X128482286Y-123160164D01*
X128482286Y-123160164D02*
X128553715Y-123195878D01*
X128553715Y-123195878D02*
X128589429Y-123231592D01*
X128589429Y-123231592D02*
X128625143Y-123303021D01*
X128625143Y-123303021D02*
X128625143Y-123374450D01*
X128625143Y-123374450D02*
X128589429Y-123481592D01*
X128589429Y-123481592D02*
X128160857Y-123910164D01*
X128160857Y-123910164D02*
X128625143Y-123910164D01*
D15*
X123078295Y-107644910D02*
X123114010Y-107680624D01*
X123114010Y-107680624D02*
X123149724Y-107787767D01*
X123149724Y-107787767D02*
X123149724Y-107859195D01*
X123149724Y-107859195D02*
X123114010Y-107966338D01*
X123114010Y-107966338D02*
X123042581Y-108037767D01*
X123042581Y-108037767D02*
X122971152Y-108073481D01*
X122971152Y-108073481D02*
X122828295Y-108109195D01*
X122828295Y-108109195D02*
X122721152Y-108109195D01*
X122721152Y-108109195D02*
X122578295Y-108073481D01*
X122578295Y-108073481D02*
X122506867Y-108037767D01*
X122506867Y-108037767D02*
X122435438Y-107966338D01*
X122435438Y-107966338D02*
X122399724Y-107859195D01*
X122399724Y-107859195D02*
X122399724Y-107787767D01*
X122399724Y-107787767D02*
X122435438Y-107680624D01*
X122435438Y-107680624D02*
X122471152Y-107644910D01*
X122399724Y-107394910D02*
X122399724Y-106894910D01*
X122399724Y-106894910D02*
X123149724Y-107216338D01*
D10*
X139368450Y-127999999D02*
X139404164Y-127892857D01*
X139404164Y-127892857D02*
X139404164Y-127714285D01*
X139404164Y-127714285D02*
X139368450Y-127642857D01*
X139368450Y-127642857D02*
X139332735Y-127607142D01*
X139332735Y-127607142D02*
X139261307Y-127571428D01*
X139261307Y-127571428D02*
X139189878Y-127571428D01*
X139189878Y-127571428D02*
X139118450Y-127607142D01*
X139118450Y-127607142D02*
X139082735Y-127642857D01*
X139082735Y-127642857D02*
X139047021Y-127714285D01*
X139047021Y-127714285D02*
X139011307Y-127857142D01*
X139011307Y-127857142D02*
X138975592Y-127928571D01*
X138975592Y-127928571D02*
X138939878Y-127964285D01*
X138939878Y-127964285D02*
X138868450Y-127999999D01*
X138868450Y-127999999D02*
X138797021Y-127999999D01*
X138797021Y-127999999D02*
X138725592Y-127964285D01*
X138725592Y-127964285D02*
X138689878Y-127928571D01*
X138689878Y-127928571D02*
X138654164Y-127857142D01*
X138654164Y-127857142D02*
X138654164Y-127678571D01*
X138654164Y-127678571D02*
X138689878Y-127571428D01*
X138654164Y-127321428D02*
X139404164Y-127142856D01*
X139404164Y-127142856D02*
X138868450Y-126999999D01*
X138868450Y-126999999D02*
X139404164Y-126857142D01*
X139404164Y-126857142D02*
X138654164Y-126678571D01*
X139404164Y-125999999D02*
X139404164Y-126428570D01*
X139404164Y-126214285D02*
X138654164Y-126214285D01*
X138654164Y-126214285D02*
X138761307Y-126285713D01*
X138761307Y-126285713D02*
X138832735Y-126357142D01*
X138832735Y-126357142D02*
X138868450Y-126428570D01*
D15*
X125781089Y-117363295D02*
X125745375Y-117399010D01*
X125745375Y-117399010D02*
X125638232Y-117434724D01*
X125638232Y-117434724D02*
X125566804Y-117434724D01*
X125566804Y-117434724D02*
X125459661Y-117399010D01*
X125459661Y-117399010D02*
X125388232Y-117327581D01*
X125388232Y-117327581D02*
X125352518Y-117256152D01*
X125352518Y-117256152D02*
X125316804Y-117113295D01*
X125316804Y-117113295D02*
X125316804Y-117006152D01*
X125316804Y-117006152D02*
X125352518Y-116863295D01*
X125352518Y-116863295D02*
X125388232Y-116791867D01*
X125388232Y-116791867D02*
X125459661Y-116720438D01*
X125459661Y-116720438D02*
X125566804Y-116684724D01*
X125566804Y-116684724D02*
X125638232Y-116684724D01*
X125638232Y-116684724D02*
X125745375Y-116720438D01*
X125745375Y-116720438D02*
X125781089Y-116756152D01*
X126423947Y-116684724D02*
X126281089Y-116684724D01*
X126281089Y-116684724D02*
X126209661Y-116720438D01*
X126209661Y-116720438D02*
X126173947Y-116756152D01*
X126173947Y-116756152D02*
X126102518Y-116863295D01*
X126102518Y-116863295D02*
X126066804Y-117006152D01*
X126066804Y-117006152D02*
X126066804Y-117291867D01*
X126066804Y-117291867D02*
X126102518Y-117363295D01*
X126102518Y-117363295D02*
X126138232Y-117399010D01*
X126138232Y-117399010D02*
X126209661Y-117434724D01*
X126209661Y-117434724D02*
X126352518Y-117434724D01*
X126352518Y-117434724D02*
X126423947Y-117399010D01*
X126423947Y-117399010D02*
X126459661Y-117363295D01*
X126459661Y-117363295D02*
X126495375Y-117291867D01*
X126495375Y-117291867D02*
X126495375Y-117113295D01*
X126495375Y-117113295D02*
X126459661Y-117041867D01*
X126459661Y-117041867D02*
X126423947Y-117006152D01*
X126423947Y-117006152D02*
X126352518Y-116970438D01*
X126352518Y-116970438D02*
X126209661Y-116970438D01*
X126209661Y-116970438D02*
X126138232Y-117006152D01*
X126138232Y-117006152D02*
X126102518Y-117041867D01*
X126102518Y-117041867D02*
X126066804Y-117113295D01*
X121554295Y-107644910D02*
X121590010Y-107680624D01*
X121590010Y-107680624D02*
X121625724Y-107787767D01*
X121625724Y-107787767D02*
X121625724Y-107859195D01*
X121625724Y-107859195D02*
X121590010Y-107966338D01*
X121590010Y-107966338D02*
X121518581Y-108037767D01*
X121518581Y-108037767D02*
X121447152Y-108073481D01*
X121447152Y-108073481D02*
X121304295Y-108109195D01*
X121304295Y-108109195D02*
X121197152Y-108109195D01*
X121197152Y-108109195D02*
X121054295Y-108073481D01*
X121054295Y-108073481D02*
X120982867Y-108037767D01*
X120982867Y-108037767D02*
X120911438Y-107966338D01*
X120911438Y-107966338D02*
X120875724Y-107859195D01*
X120875724Y-107859195D02*
X120875724Y-107787767D01*
X120875724Y-107787767D02*
X120911438Y-107680624D01*
X120911438Y-107680624D02*
X120947152Y-107644910D01*
X121197152Y-107216338D02*
X121161438Y-107287767D01*
X121161438Y-107287767D02*
X121125724Y-107323481D01*
X121125724Y-107323481D02*
X121054295Y-107359195D01*
X121054295Y-107359195D02*
X121018581Y-107359195D01*
X121018581Y-107359195D02*
X120947152Y-107323481D01*
X120947152Y-107323481D02*
X120911438Y-107287767D01*
X120911438Y-107287767D02*
X120875724Y-107216338D01*
X120875724Y-107216338D02*
X120875724Y-107073481D01*
X120875724Y-107073481D02*
X120911438Y-107002053D01*
X120911438Y-107002053D02*
X120947152Y-106966338D01*
X120947152Y-106966338D02*
X121018581Y-106930624D01*
X121018581Y-106930624D02*
X121054295Y-106930624D01*
X121054295Y-106930624D02*
X121125724Y-106966338D01*
X121125724Y-106966338D02*
X121161438Y-107002053D01*
X121161438Y-107002053D02*
X121197152Y-107073481D01*
X121197152Y-107073481D02*
X121197152Y-107216338D01*
X121197152Y-107216338D02*
X121232867Y-107287767D01*
X121232867Y-107287767D02*
X121268581Y-107323481D01*
X121268581Y-107323481D02*
X121340010Y-107359195D01*
X121340010Y-107359195D02*
X121482867Y-107359195D01*
X121482867Y-107359195D02*
X121554295Y-107323481D01*
X121554295Y-107323481D02*
X121590010Y-107287767D01*
X121590010Y-107287767D02*
X121625724Y-107216338D01*
X121625724Y-107216338D02*
X121625724Y-107073481D01*
X121625724Y-107073481D02*
X121590010Y-107002053D01*
X121590010Y-107002053D02*
X121554295Y-106966338D01*
X121554295Y-106966338D02*
X121482867Y-106930624D01*
X121482867Y-106930624D02*
X121340010Y-106930624D01*
X121340010Y-106930624D02*
X121268581Y-106966338D01*
X121268581Y-106966338D02*
X121232867Y-107002053D01*
X121232867Y-107002053D02*
X121197152Y-107073481D01*
X130043999Y-94643275D02*
X130043999Y-94107561D01*
X130043999Y-94107561D02*
X130079714Y-94000418D01*
X130079714Y-94000418D02*
X130151142Y-93928990D01*
X130151142Y-93928990D02*
X130258285Y-93893275D01*
X130258285Y-93893275D02*
X130329714Y-93893275D01*
X129722570Y-94571847D02*
X129686856Y-94607561D01*
X129686856Y-94607561D02*
X129615428Y-94643275D01*
X129615428Y-94643275D02*
X129436856Y-94643275D01*
X129436856Y-94643275D02*
X129365428Y-94607561D01*
X129365428Y-94607561D02*
X129329713Y-94571847D01*
X129329713Y-94571847D02*
X129293999Y-94500418D01*
X129293999Y-94500418D02*
X129293999Y-94428990D01*
X129293999Y-94428990D02*
X129329713Y-94321847D01*
X129329713Y-94321847D02*
X129758285Y-93893275D01*
X129758285Y-93893275D02*
X129293999Y-93893275D01*
D10*
G36*
X124504858Y-91761516D02*
G01*
X124523360Y-91780018D01*
X124545714Y-91824725D01*
X124545714Y-91896459D01*
X124523360Y-91941165D01*
X124504857Y-91959668D01*
X124460152Y-91982021D01*
X124267143Y-91982021D01*
X124267143Y-91739164D01*
X124460152Y-91739164D01*
X124504858Y-91761516D01*
G37*
G36*
X125551718Y-92595168D02*
G01*
X123332567Y-92595168D01*
X123332567Y-91651140D01*
X123439710Y-91651140D01*
X123448619Y-91701664D01*
X123487919Y-91734641D01*
X123513571Y-91739164D01*
X123652857Y-91739164D01*
X123652857Y-92414164D01*
X123670404Y-92462373D01*
X123714833Y-92488025D01*
X123765357Y-92479116D01*
X123798334Y-92439816D01*
X123802857Y-92414164D01*
X124117143Y-92414164D01*
X124134690Y-92462373D01*
X124179119Y-92488025D01*
X124229643Y-92479116D01*
X124262620Y-92439816D01*
X124267143Y-92414164D01*
X124267143Y-92151140D01*
X124832568Y-92151140D01*
X124836120Y-92171286D01*
X124836679Y-92191731D01*
X124840481Y-92196019D01*
X124841477Y-92201664D01*
X124857144Y-92214810D01*
X124870716Y-92230116D01*
X124876386Y-92230956D01*
X124880777Y-92234641D01*
X124906429Y-92239164D01*
X125188572Y-92239164D01*
X125188572Y-92414164D01*
X125206119Y-92462373D01*
X125250548Y-92488025D01*
X125301072Y-92479116D01*
X125334049Y-92439816D01*
X125338572Y-92414164D01*
X125338572Y-92239164D01*
X125370714Y-92239164D01*
X125418923Y-92221617D01*
X125444575Y-92177188D01*
X125435666Y-92126664D01*
X125396366Y-92093687D01*
X125370714Y-92089164D01*
X125338572Y-92089164D01*
X125338572Y-91914164D01*
X125321025Y-91865955D01*
X125276596Y-91840303D01*
X125226072Y-91849212D01*
X125193095Y-91888512D01*
X125188572Y-91914164D01*
X125188572Y-92089164D01*
X125010486Y-92089164D01*
X125156151Y-91652167D01*
X125154750Y-91600883D01*
X125120713Y-91562498D01*
X125069964Y-91554973D01*
X125026251Y-91581828D01*
X125013849Y-91604733D01*
X124835278Y-92140447D01*
X124835434Y-92146175D01*
X124832568Y-92151140D01*
X124267143Y-92151140D01*
X124267143Y-92132021D01*
X124477857Y-92132021D01*
X124482069Y-92130487D01*
X124486431Y-92131530D01*
X124511398Y-92124103D01*
X124582827Y-92088389D01*
X124583951Y-92087201D01*
X124602320Y-92074339D01*
X124638034Y-92038624D01*
X124638725Y-92037141D01*
X124652082Y-92019133D01*
X124687796Y-91947705D01*
X124688308Y-91943251D01*
X124691191Y-91939816D01*
X124695714Y-91914164D01*
X124695714Y-91807021D01*
X124694180Y-91802808D01*
X124695223Y-91798447D01*
X124687796Y-91773481D01*
X124652082Y-91702051D01*
X124650892Y-91700925D01*
X124638033Y-91682559D01*
X124602319Y-91646845D01*
X124600837Y-91646154D01*
X124582827Y-91632796D01*
X124511398Y-91597082D01*
X124506944Y-91596569D01*
X124503509Y-91593687D01*
X124477857Y-91589164D01*
X124192143Y-91589164D01*
X124173834Y-91595827D01*
X124154643Y-91599212D01*
X124150292Y-91604396D01*
X124143934Y-91606711D01*
X124134191Y-91623584D01*
X124121666Y-91638512D01*
X124119948Y-91648254D01*
X124118282Y-91651140D01*
X124118860Y-91654422D01*
X124117143Y-91664164D01*
X124117143Y-92414164D01*
X123802857Y-92414164D01*
X123802857Y-91739164D01*
X123942143Y-91739164D01*
X123990352Y-91721617D01*
X124016004Y-91677188D01*
X124007095Y-91626664D01*
X123967795Y-91593687D01*
X123942143Y-91589164D01*
X123513571Y-91589164D01*
X123465362Y-91606711D01*
X123439710Y-91651140D01*
X123332567Y-91651140D01*
X123332567Y-91447830D01*
X125551718Y-91447830D01*
X125551718Y-92595168D01*
G37*
D16*
X109728095Y-94707419D02*
X109728095Y-95516942D01*
X109728095Y-95516942D02*
X109775714Y-95612180D01*
X109775714Y-95612180D02*
X109823333Y-95659800D01*
X109823333Y-95659800D02*
X109918571Y-95707419D01*
X109918571Y-95707419D02*
X110109047Y-95707419D01*
X110109047Y-95707419D02*
X110204285Y-95659800D01*
X110204285Y-95659800D02*
X110251904Y-95612180D01*
X110251904Y-95612180D02*
X110299523Y-95516942D01*
X110299523Y-95516942D02*
X110299523Y-94707419D01*
X111299523Y-95707419D02*
X110728095Y-95707419D01*
X111013809Y-95707419D02*
X111013809Y-94707419D01*
X111013809Y-94707419D02*
X110918571Y-94850276D01*
X110918571Y-94850276D02*
X110823333Y-94945514D01*
X110823333Y-94945514D02*
X110728095Y-94993133D01*
D15*
X115903909Y-111775295D02*
X115868195Y-111811010D01*
X115868195Y-111811010D02*
X115761052Y-111846724D01*
X115761052Y-111846724D02*
X115689624Y-111846724D01*
X115689624Y-111846724D02*
X115582481Y-111811010D01*
X115582481Y-111811010D02*
X115511052Y-111739581D01*
X115511052Y-111739581D02*
X115475338Y-111668152D01*
X115475338Y-111668152D02*
X115439624Y-111525295D01*
X115439624Y-111525295D02*
X115439624Y-111418152D01*
X115439624Y-111418152D02*
X115475338Y-111275295D01*
X115475338Y-111275295D02*
X115511052Y-111203867D01*
X115511052Y-111203867D02*
X115582481Y-111132438D01*
X115582481Y-111132438D02*
X115689624Y-111096724D01*
X115689624Y-111096724D02*
X115761052Y-111096724D01*
X115761052Y-111096724D02*
X115868195Y-111132438D01*
X115868195Y-111132438D02*
X115903909Y-111168152D01*
X116261052Y-111846724D02*
X116403909Y-111846724D01*
X116403909Y-111846724D02*
X116475338Y-111811010D01*
X116475338Y-111811010D02*
X116511052Y-111775295D01*
X116511052Y-111775295D02*
X116582481Y-111668152D01*
X116582481Y-111668152D02*
X116618195Y-111525295D01*
X116618195Y-111525295D02*
X116618195Y-111239581D01*
X116618195Y-111239581D02*
X116582481Y-111168152D01*
X116582481Y-111168152D02*
X116546767Y-111132438D01*
X116546767Y-111132438D02*
X116475338Y-111096724D01*
X116475338Y-111096724D02*
X116332481Y-111096724D01*
X116332481Y-111096724D02*
X116261052Y-111132438D01*
X116261052Y-111132438D02*
X116225338Y-111168152D01*
X116225338Y-111168152D02*
X116189624Y-111239581D01*
X116189624Y-111239581D02*
X116189624Y-111418152D01*
X116189624Y-111418152D02*
X116225338Y-111489581D01*
X116225338Y-111489581D02*
X116261052Y-111525295D01*
X116261052Y-111525295D02*
X116332481Y-111561010D01*
X116332481Y-111561010D02*
X116475338Y-111561010D01*
X116475338Y-111561010D02*
X116546767Y-111525295D01*
X116546767Y-111525295D02*
X116582481Y-111489581D01*
X116582481Y-111489581D02*
X116618195Y-111418152D01*
D10*
G36*
X109518858Y-117669516D02*
G01*
X109537360Y-117688018D01*
X109559714Y-117732725D01*
X109559714Y-117804459D01*
X109537360Y-117849165D01*
X109518857Y-117867668D01*
X109474152Y-117890021D01*
X109281143Y-117890021D01*
X109281143Y-117647164D01*
X109474152Y-117647164D01*
X109518858Y-117669516D01*
G37*
G36*
X110531143Y-118504307D02*
G01*
X108346567Y-118504307D01*
X108346567Y-117559140D01*
X108453710Y-117559140D01*
X108462619Y-117609664D01*
X108501919Y-117642641D01*
X108527571Y-117647164D01*
X108666857Y-117647164D01*
X108666857Y-118322164D01*
X108684404Y-118370373D01*
X108728833Y-118396025D01*
X108779357Y-118387116D01*
X108812334Y-118347816D01*
X108816857Y-118322164D01*
X109131143Y-118322164D01*
X109148690Y-118370373D01*
X109193119Y-118396025D01*
X109243643Y-118387116D01*
X109276620Y-118347816D01*
X109281143Y-118322164D01*
X109281143Y-118040021D01*
X109491857Y-118040021D01*
X109496069Y-118038487D01*
X109500431Y-118039530D01*
X109525398Y-118032103D01*
X109596827Y-117996389D01*
X109597951Y-117995201D01*
X109616320Y-117982339D01*
X109652034Y-117946624D01*
X109652725Y-117945141D01*
X109666082Y-117927133D01*
X109701796Y-117855705D01*
X109702308Y-117851251D01*
X109705191Y-117847816D01*
X109709714Y-117822164D01*
X109709714Y-117715021D01*
X109708180Y-117710808D01*
X109709223Y-117706447D01*
X109701796Y-117681481D01*
X109666082Y-117610051D01*
X109664892Y-117608925D01*
X109652033Y-117590559D01*
X109620614Y-117559140D01*
X109810853Y-117559140D01*
X109819762Y-117609664D01*
X109859062Y-117642641D01*
X109884714Y-117647164D01*
X110183717Y-117647164D01*
X110042557Y-117808490D01*
X110035250Y-117827341D01*
X110025139Y-117844854D01*
X110026178Y-117850747D01*
X110024016Y-117856326D01*
X110030536Y-117875465D01*
X110034048Y-117895378D01*
X110038631Y-117899223D01*
X110040561Y-117904888D01*
X110057859Y-117915358D01*
X110073348Y-117928355D01*
X110081791Y-117929843D01*
X110084450Y-117931453D01*
X110087891Y-117930919D01*
X110099000Y-117932878D01*
X110188438Y-117932878D01*
X110233143Y-117955230D01*
X110251646Y-117973733D01*
X110274000Y-118018440D01*
X110274000Y-118161602D01*
X110251646Y-118206308D01*
X110233143Y-118224811D01*
X110188438Y-118247164D01*
X110009562Y-118247164D01*
X109964856Y-118224811D01*
X109937747Y-118197702D01*
X109891250Y-118176021D01*
X109841696Y-118189298D01*
X109812269Y-118231324D01*
X109816741Y-118282431D01*
X109831681Y-118303768D01*
X109867396Y-118339483D01*
X109868877Y-118340174D01*
X109886888Y-118353532D01*
X109958316Y-118389246D01*
X109962769Y-118389758D01*
X109966205Y-118392641D01*
X109991857Y-118397164D01*
X110206143Y-118397164D01*
X110210355Y-118395630D01*
X110214717Y-118396673D01*
X110239684Y-118389246D01*
X110311113Y-118353532D01*
X110312237Y-118352344D01*
X110330606Y-118339482D01*
X110366320Y-118303767D01*
X110367011Y-118302284D01*
X110380368Y-118284276D01*
X110416082Y-118212848D01*
X110416594Y-118208394D01*
X110419477Y-118204959D01*
X110424000Y-118179307D01*
X110424000Y-118000735D01*
X110422466Y-117996521D01*
X110423508Y-117992161D01*
X110416082Y-117967194D01*
X110380368Y-117895766D01*
X110379179Y-117894640D01*
X110366320Y-117876275D01*
X110330606Y-117840560D01*
X110329124Y-117839869D01*
X110311113Y-117826510D01*
X110251976Y-117796942D01*
X110405443Y-117621552D01*
X110412749Y-117602700D01*
X110422861Y-117585188D01*
X110421821Y-117579294D01*
X110423984Y-117573716D01*
X110417463Y-117554576D01*
X110413952Y-117534664D01*
X110409368Y-117530818D01*
X110407439Y-117525154D01*
X110390140Y-117514683D01*
X110374652Y-117501687D01*
X110366208Y-117500198D01*
X110363550Y-117498589D01*
X110360108Y-117499122D01*
X110349000Y-117497164D01*
X109884714Y-117497164D01*
X109836505Y-117514711D01*
X109810853Y-117559140D01*
X109620614Y-117559140D01*
X109616319Y-117554845D01*
X109614837Y-117554154D01*
X109596827Y-117540796D01*
X109525398Y-117505082D01*
X109520944Y-117504569D01*
X109517509Y-117501687D01*
X109491857Y-117497164D01*
X109206143Y-117497164D01*
X109187834Y-117503827D01*
X109168643Y-117507212D01*
X109164292Y-117512396D01*
X109157934Y-117514711D01*
X109148191Y-117531584D01*
X109135666Y-117546512D01*
X109133948Y-117556254D01*
X109132282Y-117559140D01*
X109132860Y-117562422D01*
X109131143Y-117572164D01*
X109131143Y-118322164D01*
X108816857Y-118322164D01*
X108816857Y-117647164D01*
X108956143Y-117647164D01*
X109004352Y-117629617D01*
X109030004Y-117585188D01*
X109021095Y-117534664D01*
X108981795Y-117501687D01*
X108956143Y-117497164D01*
X108527571Y-117497164D01*
X108479362Y-117514711D01*
X108453710Y-117559140D01*
X108346567Y-117559140D01*
X108346567Y-117390021D01*
X110531143Y-117390021D01*
X110531143Y-118504307D01*
G37*
D15*
X120447089Y-125516695D02*
X120411375Y-125552410D01*
X120411375Y-125552410D02*
X120304232Y-125588124D01*
X120304232Y-125588124D02*
X120232804Y-125588124D01*
X120232804Y-125588124D02*
X120125661Y-125552410D01*
X120125661Y-125552410D02*
X120054232Y-125480981D01*
X120054232Y-125480981D02*
X120018518Y-125409552D01*
X120018518Y-125409552D02*
X119982804Y-125266695D01*
X119982804Y-125266695D02*
X119982804Y-125159552D01*
X119982804Y-125159552D02*
X120018518Y-125016695D01*
X120018518Y-125016695D02*
X120054232Y-124945267D01*
X120054232Y-124945267D02*
X120125661Y-124873838D01*
X120125661Y-124873838D02*
X120232804Y-124838124D01*
X120232804Y-124838124D02*
X120304232Y-124838124D01*
X120304232Y-124838124D02*
X120411375Y-124873838D01*
X120411375Y-124873838D02*
X120447089Y-124909552D01*
X120697089Y-124838124D02*
X121161375Y-124838124D01*
X121161375Y-124838124D02*
X120911375Y-125123838D01*
X120911375Y-125123838D02*
X121018518Y-125123838D01*
X121018518Y-125123838D02*
X121089947Y-125159552D01*
X121089947Y-125159552D02*
X121125661Y-125195267D01*
X121125661Y-125195267D02*
X121161375Y-125266695D01*
X121161375Y-125266695D02*
X121161375Y-125445267D01*
X121161375Y-125445267D02*
X121125661Y-125516695D01*
X121125661Y-125516695D02*
X121089947Y-125552410D01*
X121089947Y-125552410D02*
X121018518Y-125588124D01*
X121018518Y-125588124D02*
X120804232Y-125588124D01*
X120804232Y-125588124D02*
X120732804Y-125552410D01*
X120732804Y-125552410D02*
X120697089Y-125516695D01*
D10*
G36*
X122425143Y-100810230D02*
G01*
X122443646Y-100828733D01*
X122466000Y-100873440D01*
X122466000Y-101016602D01*
X122443646Y-101061308D01*
X122425143Y-101079811D01*
X122380438Y-101102164D01*
X122272991Y-101102164D01*
X122228284Y-101079811D01*
X122209782Y-101061308D01*
X122187429Y-101016602D01*
X122187429Y-100873440D01*
X122209782Y-100828733D01*
X122228284Y-100810230D01*
X122272991Y-100787878D01*
X122380438Y-100787878D01*
X122425143Y-100810230D01*
G37*
G36*
X121710858Y-100524516D02*
G01*
X121729360Y-100543018D01*
X121751714Y-100587725D01*
X121751714Y-100659459D01*
X121729360Y-100704165D01*
X121710857Y-100722668D01*
X121666152Y-100745021D01*
X121473143Y-100745021D01*
X121473143Y-100502164D01*
X121666152Y-100502164D01*
X121710858Y-100524516D01*
G37*
G36*
X122723143Y-101359307D02*
G01*
X120538567Y-101359307D01*
X120538567Y-100414140D01*
X120645710Y-100414140D01*
X120654619Y-100464664D01*
X120693919Y-100497641D01*
X120719571Y-100502164D01*
X120858857Y-100502164D01*
X120858857Y-101177164D01*
X120876404Y-101225373D01*
X120920833Y-101251025D01*
X120971357Y-101242116D01*
X121004334Y-101202816D01*
X121008857Y-101177164D01*
X121323143Y-101177164D01*
X121340690Y-101225373D01*
X121385119Y-101251025D01*
X121435643Y-101242116D01*
X121468620Y-101202816D01*
X121473143Y-101177164D01*
X121473143Y-101034307D01*
X122037429Y-101034307D01*
X122038962Y-101038520D01*
X122037921Y-101042881D01*
X122045347Y-101067848D01*
X122081061Y-101139276D01*
X122082249Y-101140401D01*
X122095109Y-101158767D01*
X122130823Y-101194482D01*
X122132304Y-101195172D01*
X122150316Y-101208532D01*
X122221746Y-101244246D01*
X122226198Y-101244758D01*
X122229634Y-101247641D01*
X122255286Y-101252164D01*
X122398143Y-101252164D01*
X122402355Y-101250630D01*
X122406717Y-101251673D01*
X122431684Y-101244246D01*
X122503113Y-101208532D01*
X122504237Y-101207344D01*
X122522606Y-101194482D01*
X122558320Y-101158767D01*
X122559011Y-101157284D01*
X122572368Y-101139276D01*
X122608082Y-101067848D01*
X122608594Y-101063394D01*
X122611477Y-101059959D01*
X122616000Y-101034307D01*
X122616000Y-100855735D01*
X122614466Y-100851521D01*
X122615508Y-100847161D01*
X122608082Y-100822194D01*
X122572368Y-100750766D01*
X122571179Y-100749640D01*
X122558320Y-100731275D01*
X122522606Y-100695560D01*
X122521124Y-100694869D01*
X122503113Y-100681510D01*
X122431684Y-100645796D01*
X122427230Y-100645283D01*
X122423795Y-100642401D01*
X122398143Y-100637878D01*
X122255286Y-100637878D01*
X122251073Y-100639411D01*
X122246712Y-100638369D01*
X122221746Y-100645796D01*
X122214534Y-100649401D01*
X122217753Y-100636529D01*
X122277857Y-100546372D01*
X122299713Y-100524517D01*
X122344419Y-100502164D01*
X122469572Y-100502164D01*
X122517781Y-100484617D01*
X122543433Y-100440188D01*
X122534524Y-100389664D01*
X122495224Y-100356687D01*
X122469572Y-100352164D01*
X122326714Y-100352164D01*
X122322500Y-100353697D01*
X122318140Y-100352656D01*
X122293173Y-100360082D01*
X122221745Y-100395796D01*
X122220619Y-100396985D01*
X122202253Y-100409845D01*
X122166539Y-100445559D01*
X122165062Y-100448725D01*
X122157168Y-100456989D01*
X122085739Y-100564132D01*
X122085636Y-100564551D01*
X122075382Y-100587545D01*
X122039668Y-100730402D01*
X122040028Y-100733850D01*
X122037429Y-100748592D01*
X122037429Y-101034307D01*
X121473143Y-101034307D01*
X121473143Y-100895021D01*
X121683857Y-100895021D01*
X121688069Y-100893487D01*
X121692431Y-100894530D01*
X121717398Y-100887103D01*
X121788827Y-100851389D01*
X121789951Y-100850201D01*
X121808320Y-100837339D01*
X121844034Y-100801624D01*
X121844725Y-100800141D01*
X121858082Y-100782133D01*
X121893796Y-100710705D01*
X121894308Y-100706251D01*
X121897191Y-100702816D01*
X121901714Y-100677164D01*
X121901714Y-100570021D01*
X121900180Y-100565808D01*
X121901223Y-100561447D01*
X121893796Y-100536481D01*
X121858082Y-100465051D01*
X121856892Y-100463925D01*
X121844033Y-100445559D01*
X121808319Y-100409845D01*
X121806837Y-100409154D01*
X121788827Y-100395796D01*
X121717398Y-100360082D01*
X121712944Y-100359569D01*
X121709509Y-100356687D01*
X121683857Y-100352164D01*
X121398143Y-100352164D01*
X121379834Y-100358827D01*
X121360643Y-100362212D01*
X121356292Y-100367396D01*
X121349934Y-100369711D01*
X121340191Y-100386584D01*
X121327666Y-100401512D01*
X121325948Y-100411254D01*
X121324282Y-100414140D01*
X121324860Y-100417422D01*
X121323143Y-100427164D01*
X121323143Y-101177164D01*
X121008857Y-101177164D01*
X121008857Y-100502164D01*
X121148143Y-100502164D01*
X121196352Y-100484617D01*
X121222004Y-100440188D01*
X121213095Y-100389664D01*
X121173795Y-100356687D01*
X121148143Y-100352164D01*
X120719571Y-100352164D01*
X120671362Y-100369711D01*
X120645710Y-100414140D01*
X120538567Y-100414140D01*
X120538567Y-100245021D01*
X122723143Y-100245021D01*
X122723143Y-101359307D01*
G37*
D15*
X112220909Y-113243724D02*
X111970909Y-112886581D01*
X111792338Y-113243724D02*
X111792338Y-112493724D01*
X111792338Y-112493724D02*
X112078052Y-112493724D01*
X112078052Y-112493724D02*
X112149481Y-112529438D01*
X112149481Y-112529438D02*
X112185195Y-112565152D01*
X112185195Y-112565152D02*
X112220909Y-112636581D01*
X112220909Y-112636581D02*
X112220909Y-112743724D01*
X112220909Y-112743724D02*
X112185195Y-112815152D01*
X112185195Y-112815152D02*
X112149481Y-112850867D01*
X112149481Y-112850867D02*
X112078052Y-112886581D01*
X112078052Y-112886581D02*
X111792338Y-112886581D01*
X112863767Y-112743724D02*
X112863767Y-113243724D01*
X112685195Y-112458010D02*
X112506624Y-112993724D01*
X112506624Y-112993724D02*
X112970909Y-112993724D01*
X120016999Y-117561724D02*
X119766999Y-117204581D01*
X119588428Y-117561724D02*
X119588428Y-116811724D01*
X119588428Y-116811724D02*
X119874142Y-116811724D01*
X119874142Y-116811724D02*
X119945571Y-116847438D01*
X119945571Y-116847438D02*
X119981285Y-116883152D01*
X119981285Y-116883152D02*
X120016999Y-116954581D01*
X120016999Y-116954581D02*
X120016999Y-117061724D01*
X120016999Y-117061724D02*
X119981285Y-117133152D01*
X119981285Y-117133152D02*
X119945571Y-117168867D01*
X119945571Y-117168867D02*
X119874142Y-117204581D01*
X119874142Y-117204581D02*
X119588428Y-117204581D01*
X120695571Y-116811724D02*
X120338428Y-116811724D01*
X120338428Y-116811724D02*
X120302714Y-117168867D01*
X120302714Y-117168867D02*
X120338428Y-117133152D01*
X120338428Y-117133152D02*
X120409857Y-117097438D01*
X120409857Y-117097438D02*
X120588428Y-117097438D01*
X120588428Y-117097438D02*
X120659857Y-117133152D01*
X120659857Y-117133152D02*
X120695571Y-117168867D01*
X120695571Y-117168867D02*
X120731285Y-117240295D01*
X120731285Y-117240295D02*
X120731285Y-117418867D01*
X120731285Y-117418867D02*
X120695571Y-117490295D01*
X120695571Y-117490295D02*
X120659857Y-117526010D01*
X120659857Y-117526010D02*
X120588428Y-117561724D01*
X120588428Y-117561724D02*
X120409857Y-117561724D01*
X120409857Y-117561724D02*
X120338428Y-117526010D01*
X120338428Y-117526010D02*
X120302714Y-117490295D01*
D10*
G36*
X124351399Y-118685516D02*
G01*
X124369901Y-118704018D01*
X124392255Y-118748725D01*
X124392255Y-118820459D01*
X124369901Y-118865165D01*
X124351398Y-118883668D01*
X124306693Y-118906021D01*
X124113684Y-118906021D01*
X124113684Y-118663164D01*
X124306693Y-118663164D01*
X124351399Y-118685516D01*
G37*
G36*
X125398259Y-119519779D02*
G01*
X123179108Y-119519779D01*
X123179108Y-118575140D01*
X123286251Y-118575140D01*
X123295160Y-118625664D01*
X123334460Y-118658641D01*
X123360112Y-118663164D01*
X123499398Y-118663164D01*
X123499398Y-119338164D01*
X123516945Y-119386373D01*
X123561374Y-119412025D01*
X123611898Y-119403116D01*
X123644875Y-119363816D01*
X123649398Y-119338164D01*
X123963684Y-119338164D01*
X123981231Y-119386373D01*
X124025660Y-119412025D01*
X124076184Y-119403116D01*
X124109161Y-119363816D01*
X124113684Y-119338164D01*
X124113684Y-119056021D01*
X124324398Y-119056021D01*
X124328610Y-119054487D01*
X124332972Y-119055530D01*
X124357939Y-119048103D01*
X124429368Y-119012389D01*
X124430492Y-119011201D01*
X124448861Y-118998339D01*
X124484575Y-118962624D01*
X124485266Y-118961141D01*
X124498623Y-118943133D01*
X124534337Y-118871705D01*
X124534849Y-118867251D01*
X124537732Y-118863816D01*
X124542255Y-118838164D01*
X124542255Y-118731021D01*
X124540721Y-118726808D01*
X124541764Y-118722447D01*
X124534337Y-118697481D01*
X124498623Y-118626051D01*
X124497433Y-118624925D01*
X124484574Y-118606559D01*
X124453155Y-118575140D01*
X124643394Y-118575140D01*
X124652303Y-118625664D01*
X124691603Y-118658641D01*
X124717255Y-118663164D01*
X125103515Y-118663164D01*
X124826891Y-119308620D01*
X124824029Y-119359843D01*
X124854761Y-119400923D01*
X124904709Y-119412636D01*
X124950501Y-119389504D01*
X124964763Y-119367708D01*
X125286191Y-118617708D01*
X125286685Y-118608862D01*
X125291116Y-118601188D01*
X125288076Y-118583953D01*
X125289053Y-118566485D01*
X125283745Y-118559391D01*
X125282207Y-118550664D01*
X125268801Y-118539415D01*
X125258321Y-118525406D01*
X125249695Y-118523383D01*
X125242907Y-118517687D01*
X125217255Y-118513164D01*
X124717255Y-118513164D01*
X124669046Y-118530711D01*
X124643394Y-118575140D01*
X124453155Y-118575140D01*
X124448860Y-118570845D01*
X124447378Y-118570154D01*
X124429368Y-118556796D01*
X124357939Y-118521082D01*
X124353485Y-118520569D01*
X124350050Y-118517687D01*
X124324398Y-118513164D01*
X124038684Y-118513164D01*
X124020375Y-118519827D01*
X124001184Y-118523212D01*
X123996833Y-118528396D01*
X123990475Y-118530711D01*
X123980732Y-118547584D01*
X123968207Y-118562512D01*
X123966489Y-118572254D01*
X123964823Y-118575140D01*
X123965401Y-118578422D01*
X123963684Y-118588164D01*
X123963684Y-119338164D01*
X123649398Y-119338164D01*
X123649398Y-118663164D01*
X123788684Y-118663164D01*
X123836893Y-118645617D01*
X123862545Y-118601188D01*
X123853636Y-118550664D01*
X123814336Y-118517687D01*
X123788684Y-118513164D01*
X123360112Y-118513164D01*
X123311903Y-118530711D01*
X123286251Y-118575140D01*
X123179108Y-118575140D01*
X123179108Y-118406021D01*
X125398259Y-118406021D01*
X125398259Y-119519779D01*
G37*
G36*
X125065685Y-122876516D02*
G01*
X125084187Y-122895018D01*
X125106541Y-122939725D01*
X125106541Y-123082887D01*
X125084187Y-123127594D01*
X125065686Y-123146095D01*
X125020979Y-123168450D01*
X124913532Y-123168450D01*
X124868825Y-123146096D01*
X124850322Y-123127593D01*
X124827970Y-123082887D01*
X124827970Y-122939725D01*
X124850322Y-122895019D01*
X124868824Y-122876517D01*
X124913532Y-122854164D01*
X125020979Y-122854164D01*
X125065685Y-122876516D01*
G37*
G36*
X124351399Y-122876516D02*
G01*
X124369901Y-122895018D01*
X124392255Y-122939725D01*
X124392255Y-123011459D01*
X124369901Y-123056165D01*
X124351398Y-123074668D01*
X124306693Y-123097021D01*
X124113684Y-123097021D01*
X124113684Y-122854164D01*
X124306693Y-122854164D01*
X124351399Y-122876516D01*
G37*
G36*
X125363684Y-123711307D02*
G01*
X123179108Y-123711307D01*
X123179108Y-122766140D01*
X123286251Y-122766140D01*
X123295160Y-122816664D01*
X123334460Y-122849641D01*
X123360112Y-122854164D01*
X123499398Y-122854164D01*
X123499398Y-123529164D01*
X123516945Y-123577373D01*
X123561374Y-123603025D01*
X123611898Y-123594116D01*
X123644875Y-123554816D01*
X123649398Y-123529164D01*
X123963684Y-123529164D01*
X123981231Y-123577373D01*
X124025660Y-123603025D01*
X124076184Y-123594116D01*
X124109161Y-123554816D01*
X124113684Y-123529164D01*
X124113684Y-123247021D01*
X124324398Y-123247021D01*
X124328610Y-123245487D01*
X124332972Y-123246530D01*
X124357939Y-123239103D01*
X124429368Y-123203389D01*
X124430492Y-123202201D01*
X124448861Y-123189339D01*
X124484575Y-123153624D01*
X124485266Y-123152141D01*
X124498623Y-123134133D01*
X124515394Y-123100592D01*
X124677970Y-123100592D01*
X124679503Y-123104804D01*
X124678461Y-123109166D01*
X124685888Y-123134133D01*
X124721602Y-123205562D01*
X124722791Y-123206687D01*
X124735651Y-123225054D01*
X124771365Y-123260768D01*
X124772850Y-123261460D01*
X124790857Y-123274817D01*
X124862285Y-123310532D01*
X124866739Y-123311044D01*
X124870175Y-123313927D01*
X124895827Y-123318450D01*
X125038684Y-123318450D01*
X125042897Y-123316916D01*
X125047259Y-123317958D01*
X125072225Y-123310532D01*
X125079434Y-123306927D01*
X125076216Y-123319797D01*
X125016111Y-123409955D01*
X124994255Y-123431811D01*
X124949550Y-123454164D01*
X124824398Y-123454164D01*
X124776189Y-123471711D01*
X124750537Y-123516140D01*
X124759446Y-123566664D01*
X124798746Y-123599641D01*
X124824398Y-123604164D01*
X124967255Y-123604164D01*
X124971467Y-123602630D01*
X124975829Y-123603673D01*
X125000796Y-123596246D01*
X125072225Y-123560532D01*
X125073349Y-123559344D01*
X125091718Y-123546482D01*
X125127432Y-123510767D01*
X125128908Y-123507600D01*
X125136802Y-123499338D01*
X125208231Y-123392195D01*
X125208333Y-123391773D01*
X125218588Y-123368782D01*
X125254302Y-123225925D01*
X125253941Y-123222476D01*
X125256541Y-123207735D01*
X125256541Y-122922021D01*
X125255007Y-122917808D01*
X125256050Y-122913447D01*
X125248623Y-122888481D01*
X125212909Y-122817051D01*
X125211719Y-122815925D01*
X125198860Y-122797559D01*
X125163146Y-122761845D01*
X125161664Y-122761154D01*
X125143654Y-122747796D01*
X125072225Y-122712082D01*
X125067771Y-122711569D01*
X125064336Y-122708687D01*
X125038684Y-122704164D01*
X124895827Y-122704164D01*
X124891614Y-122705697D01*
X124887253Y-122704655D01*
X124862287Y-122712082D01*
X124790857Y-122747796D01*
X124789731Y-122748985D01*
X124771365Y-122761845D01*
X124735651Y-122797559D01*
X124734960Y-122799040D01*
X124721602Y-122817051D01*
X124685888Y-122888480D01*
X124685375Y-122892933D01*
X124682493Y-122896369D01*
X124677970Y-122922021D01*
X124677970Y-123100592D01*
X124515394Y-123100592D01*
X124534337Y-123062705D01*
X124534849Y-123058251D01*
X124537732Y-123054816D01*
X124542255Y-123029164D01*
X124542255Y-122922021D01*
X124540721Y-122917808D01*
X124541764Y-122913447D01*
X124534337Y-122888481D01*
X124498623Y-122817051D01*
X124497433Y-122815925D01*
X124484574Y-122797559D01*
X124448860Y-122761845D01*
X124447378Y-122761154D01*
X124429368Y-122747796D01*
X124357939Y-122712082D01*
X124353485Y-122711569D01*
X124350050Y-122708687D01*
X124324398Y-122704164D01*
X124038684Y-122704164D01*
X124020375Y-122710827D01*
X124001184Y-122714212D01*
X123996833Y-122719396D01*
X123990475Y-122721711D01*
X123980732Y-122738584D01*
X123968207Y-122753512D01*
X123966489Y-122763254D01*
X123964823Y-122766140D01*
X123965401Y-122769422D01*
X123963684Y-122779164D01*
X123963684Y-123529164D01*
X123649398Y-123529164D01*
X123649398Y-122854164D01*
X123788684Y-122854164D01*
X123836893Y-122836617D01*
X123862545Y-122792188D01*
X123853636Y-122741664D01*
X123814336Y-122708687D01*
X123788684Y-122704164D01*
X123360112Y-122704164D01*
X123311903Y-122721711D01*
X123286251Y-122766140D01*
X123179108Y-122766140D01*
X123179108Y-122597021D01*
X125363684Y-122597021D01*
X125363684Y-123711307D01*
G37*
D15*
X120447089Y-121173295D02*
X120411375Y-121209010D01*
X120411375Y-121209010D02*
X120304232Y-121244724D01*
X120304232Y-121244724D02*
X120232804Y-121244724D01*
X120232804Y-121244724D02*
X120125661Y-121209010D01*
X120125661Y-121209010D02*
X120054232Y-121137581D01*
X120054232Y-121137581D02*
X120018518Y-121066152D01*
X120018518Y-121066152D02*
X119982804Y-120923295D01*
X119982804Y-120923295D02*
X119982804Y-120816152D01*
X119982804Y-120816152D02*
X120018518Y-120673295D01*
X120018518Y-120673295D02*
X120054232Y-120601867D01*
X120054232Y-120601867D02*
X120125661Y-120530438D01*
X120125661Y-120530438D02*
X120232804Y-120494724D01*
X120232804Y-120494724D02*
X120304232Y-120494724D01*
X120304232Y-120494724D02*
X120411375Y-120530438D01*
X120411375Y-120530438D02*
X120447089Y-120566152D01*
X121161375Y-121244724D02*
X120732804Y-121244724D01*
X120947089Y-121244724D02*
X120947089Y-120494724D01*
X120947089Y-120494724D02*
X120875661Y-120601867D01*
X120875661Y-120601867D02*
X120804232Y-120673295D01*
X120804232Y-120673295D02*
X120732804Y-120709010D01*
D10*
G36*
X121710858Y-91761516D02*
G01*
X121729360Y-91780018D01*
X121751714Y-91824725D01*
X121751714Y-91896459D01*
X121729360Y-91941165D01*
X121710857Y-91959668D01*
X121666152Y-91982021D01*
X121473143Y-91982021D01*
X121473143Y-91739164D01*
X121666152Y-91739164D01*
X121710858Y-91761516D01*
G37*
G36*
X122723143Y-92596307D02*
G01*
X120538567Y-92596307D01*
X120538567Y-91651140D01*
X120645710Y-91651140D01*
X120654619Y-91701664D01*
X120693919Y-91734641D01*
X120719571Y-91739164D01*
X120858857Y-91739164D01*
X120858857Y-92414164D01*
X120876404Y-92462373D01*
X120920833Y-92488025D01*
X120971357Y-92479116D01*
X121004334Y-92439816D01*
X121008857Y-92414164D01*
X121323143Y-92414164D01*
X121340690Y-92462373D01*
X121385119Y-92488025D01*
X121435643Y-92479116D01*
X121468620Y-92439816D01*
X121473143Y-92414164D01*
X121473143Y-92132021D01*
X121683857Y-92132021D01*
X121688069Y-92130487D01*
X121692431Y-92131530D01*
X121717398Y-92124103D01*
X121788827Y-92088389D01*
X121789951Y-92087201D01*
X121808320Y-92074339D01*
X121844034Y-92038624D01*
X121844725Y-92037141D01*
X121858082Y-92019133D01*
X121860263Y-92014772D01*
X122037715Y-92014772D01*
X122044237Y-92039113D01*
X122050464Y-92063560D01*
X122050864Y-92063848D01*
X122050993Y-92064326D01*
X122071616Y-92078766D01*
X122092120Y-92093506D01*
X122092614Y-92093468D01*
X122093019Y-92093752D01*
X122118128Y-92091554D01*
X122143280Y-92089668D01*
X122143633Y-92089323D01*
X122144126Y-92089280D01*
X122165463Y-92074339D01*
X122192570Y-92047230D01*
X122237277Y-92024878D01*
X122380438Y-92024878D01*
X122425143Y-92047230D01*
X122443646Y-92065733D01*
X122466000Y-92110440D01*
X122466000Y-92253602D01*
X122443646Y-92298308D01*
X122425143Y-92316811D01*
X122380438Y-92339164D01*
X122237277Y-92339164D01*
X122192570Y-92316811D01*
X122165463Y-92289703D01*
X122118967Y-92268021D01*
X122069412Y-92281297D01*
X122039985Y-92323322D01*
X122044455Y-92374430D01*
X122059395Y-92395767D01*
X122095109Y-92431482D01*
X122096590Y-92432172D01*
X122114602Y-92445532D01*
X122186032Y-92481246D01*
X122190484Y-92481758D01*
X122193920Y-92484641D01*
X122219572Y-92489164D01*
X122398143Y-92489164D01*
X122402355Y-92487630D01*
X122406717Y-92488673D01*
X122431684Y-92481246D01*
X122503113Y-92445532D01*
X122504237Y-92444344D01*
X122522606Y-92431482D01*
X122558320Y-92395767D01*
X122559011Y-92394284D01*
X122572368Y-92376276D01*
X122608082Y-92304848D01*
X122608594Y-92300394D01*
X122611477Y-92296959D01*
X122616000Y-92271307D01*
X122616000Y-92092735D01*
X122614466Y-92088521D01*
X122615508Y-92084161D01*
X122608082Y-92059194D01*
X122572368Y-91987766D01*
X122571179Y-91986640D01*
X122558320Y-91968275D01*
X122522606Y-91932560D01*
X122521124Y-91931869D01*
X122503113Y-91918510D01*
X122431684Y-91882796D01*
X122427230Y-91882283D01*
X122423795Y-91879401D01*
X122398143Y-91874878D01*
X122219572Y-91874878D01*
X122215359Y-91876411D01*
X122210998Y-91875369D01*
X122202133Y-91878006D01*
X122216017Y-91739164D01*
X122505286Y-91739164D01*
X122553495Y-91721617D01*
X122579147Y-91677188D01*
X122570238Y-91626664D01*
X122530938Y-91593687D01*
X122505286Y-91589164D01*
X122148143Y-91589164D01*
X122133175Y-91594611D01*
X122117292Y-91595803D01*
X122109785Y-91603125D01*
X122099934Y-91606711D01*
X122091970Y-91620504D01*
X122080568Y-91631627D01*
X122075837Y-91648446D01*
X122074282Y-91651140D01*
X122074589Y-91652882D01*
X122073515Y-91656702D01*
X122037801Y-92013844D01*
X122037923Y-92014324D01*
X122037715Y-92014772D01*
X121860263Y-92014772D01*
X121893796Y-91947705D01*
X121894308Y-91943251D01*
X121897191Y-91939816D01*
X121901714Y-91914164D01*
X121901714Y-91807021D01*
X121900180Y-91802808D01*
X121901223Y-91798447D01*
X121893796Y-91773481D01*
X121858082Y-91702051D01*
X121856892Y-91700925D01*
X121844033Y-91682559D01*
X121808319Y-91646845D01*
X121806837Y-91646154D01*
X121788827Y-91632796D01*
X121717398Y-91597082D01*
X121712944Y-91596569D01*
X121709509Y-91593687D01*
X121683857Y-91589164D01*
X121398143Y-91589164D01*
X121379834Y-91595827D01*
X121360643Y-91599212D01*
X121356292Y-91604396D01*
X121349934Y-91606711D01*
X121340191Y-91623584D01*
X121327666Y-91638512D01*
X121325948Y-91648254D01*
X121324282Y-91651140D01*
X121324860Y-91654422D01*
X121323143Y-91664164D01*
X121323143Y-92414164D01*
X121008857Y-92414164D01*
X121008857Y-91739164D01*
X121148143Y-91739164D01*
X121196352Y-91721617D01*
X121222004Y-91677188D01*
X121213095Y-91626664D01*
X121173795Y-91593687D01*
X121148143Y-91589164D01*
X120719571Y-91589164D01*
X120671362Y-91606711D01*
X120645710Y-91651140D01*
X120538567Y-91651140D01*
X120538567Y-91482021D01*
X122723143Y-91482021D01*
X122723143Y-92596307D01*
G37*
D15*
X126446428Y-89800924D02*
X126446428Y-89050924D01*
X126446428Y-89050924D02*
X126624999Y-89050924D01*
X126624999Y-89050924D02*
X126732142Y-89086638D01*
X126732142Y-89086638D02*
X126803571Y-89158067D01*
X126803571Y-89158067D02*
X126839285Y-89229495D01*
X126839285Y-89229495D02*
X126874999Y-89372352D01*
X126874999Y-89372352D02*
X126874999Y-89479495D01*
X126874999Y-89479495D02*
X126839285Y-89622352D01*
X126839285Y-89622352D02*
X126803571Y-89693781D01*
X126803571Y-89693781D02*
X126732142Y-89765210D01*
X126732142Y-89765210D02*
X126624999Y-89800924D01*
X126624999Y-89800924D02*
X126446428Y-89800924D01*
X127160714Y-89122352D02*
X127196428Y-89086638D01*
X127196428Y-89086638D02*
X127267857Y-89050924D01*
X127267857Y-89050924D02*
X127446428Y-89050924D01*
X127446428Y-89050924D02*
X127517857Y-89086638D01*
X127517857Y-89086638D02*
X127553571Y-89122352D01*
X127553571Y-89122352D02*
X127589285Y-89193781D01*
X127589285Y-89193781D02*
X127589285Y-89265210D01*
X127589285Y-89265210D02*
X127553571Y-89372352D01*
X127553571Y-89372352D02*
X127124999Y-89800924D01*
X127124999Y-89800924D02*
X127589285Y-89800924D01*
X97876724Y-94817910D02*
X97519581Y-95067910D01*
X97876724Y-95246481D02*
X97126724Y-95246481D01*
X97126724Y-95246481D02*
X97126724Y-94960767D01*
X97126724Y-94960767D02*
X97162438Y-94889338D01*
X97162438Y-94889338D02*
X97198152Y-94853624D01*
X97198152Y-94853624D02*
X97269581Y-94817910D01*
X97269581Y-94817910D02*
X97376724Y-94817910D01*
X97376724Y-94817910D02*
X97448152Y-94853624D01*
X97448152Y-94853624D02*
X97483867Y-94889338D01*
X97483867Y-94889338D02*
X97519581Y-94960767D01*
X97519581Y-94960767D02*
X97519581Y-95246481D01*
X97126724Y-94567910D02*
X97126724Y-94067910D01*
X97126724Y-94067910D02*
X97876724Y-94389338D01*
D16*
X96155000Y-122861050D02*
X96262143Y-122896764D01*
X96262143Y-122896764D02*
X96440714Y-122896764D01*
X96440714Y-122896764D02*
X96512143Y-122861050D01*
X96512143Y-122861050D02*
X96547857Y-122825335D01*
X96547857Y-122825335D02*
X96583571Y-122753907D01*
X96583571Y-122753907D02*
X96583571Y-122682478D01*
X96583571Y-122682478D02*
X96547857Y-122611050D01*
X96547857Y-122611050D02*
X96512143Y-122575335D01*
X96512143Y-122575335D02*
X96440714Y-122539621D01*
X96440714Y-122539621D02*
X96297857Y-122503907D01*
X96297857Y-122503907D02*
X96226428Y-122468192D01*
X96226428Y-122468192D02*
X96190714Y-122432478D01*
X96190714Y-122432478D02*
X96155000Y-122361050D01*
X96155000Y-122361050D02*
X96155000Y-122289621D01*
X96155000Y-122289621D02*
X96190714Y-122218192D01*
X96190714Y-122218192D02*
X96226428Y-122182478D01*
X96226428Y-122182478D02*
X96297857Y-122146764D01*
X96297857Y-122146764D02*
X96476428Y-122146764D01*
X96476428Y-122146764D02*
X96583571Y-122182478D01*
X96833571Y-122146764D02*
X97012143Y-122896764D01*
X97012143Y-122896764D02*
X97155000Y-122361050D01*
X97155000Y-122361050D02*
X97297857Y-122896764D01*
X97297857Y-122896764D02*
X97476429Y-122146764D01*
X97726429Y-122218192D02*
X97762143Y-122182478D01*
X97762143Y-122182478D02*
X97833572Y-122146764D01*
X97833572Y-122146764D02*
X98012143Y-122146764D01*
X98012143Y-122146764D02*
X98083572Y-122182478D01*
X98083572Y-122182478D02*
X98119286Y-122218192D01*
X98119286Y-122218192D02*
X98155000Y-122289621D01*
X98155000Y-122289621D02*
X98155000Y-122361050D01*
X98155000Y-122361050D02*
X98119286Y-122468192D01*
X98119286Y-122468192D02*
X97690714Y-122896764D01*
X97690714Y-122896764D02*
X98155000Y-122896764D01*
D10*
X100426856Y-112154735D02*
X100391142Y-112190450D01*
X100391142Y-112190450D02*
X100283999Y-112226164D01*
X100283999Y-112226164D02*
X100212571Y-112226164D01*
X100212571Y-112226164D02*
X100105428Y-112190450D01*
X100105428Y-112190450D02*
X100033999Y-112119021D01*
X100033999Y-112119021D02*
X99998285Y-112047592D01*
X99998285Y-112047592D02*
X99962571Y-111904735D01*
X99962571Y-111904735D02*
X99962571Y-111797592D01*
X99962571Y-111797592D02*
X99998285Y-111654735D01*
X99998285Y-111654735D02*
X100033999Y-111583307D01*
X100033999Y-111583307D02*
X100105428Y-111511878D01*
X100105428Y-111511878D02*
X100212571Y-111476164D01*
X100212571Y-111476164D02*
X100283999Y-111476164D01*
X100283999Y-111476164D02*
X100391142Y-111511878D01*
X100391142Y-111511878D02*
X100426856Y-111547592D01*
X101141142Y-112226164D02*
X100712571Y-112226164D01*
X100926856Y-112226164D02*
X100926856Y-111476164D01*
X100926856Y-111476164D02*
X100855428Y-111583307D01*
X100855428Y-111583307D02*
X100783999Y-111654735D01*
X100783999Y-111654735D02*
X100712571Y-111690450D01*
X101391142Y-111476164D02*
X101855428Y-111476164D01*
X101855428Y-111476164D02*
X101605428Y-111761878D01*
X101605428Y-111761878D02*
X101712571Y-111761878D01*
X101712571Y-111761878D02*
X101784000Y-111797592D01*
X101784000Y-111797592D02*
X101819714Y-111833307D01*
X101819714Y-111833307D02*
X101855428Y-111904735D01*
X101855428Y-111904735D02*
X101855428Y-112083307D01*
X101855428Y-112083307D02*
X101819714Y-112154735D01*
X101819714Y-112154735D02*
X101784000Y-112190450D01*
X101784000Y-112190450D02*
X101712571Y-112226164D01*
X101712571Y-112226164D02*
X101498285Y-112226164D01*
X101498285Y-112226164D02*
X101426857Y-112190450D01*
X101426857Y-112190450D02*
X101391142Y-112154735D01*
G36*
X125065686Y-121038946D02*
G01*
X125084187Y-121057447D01*
X125106541Y-121102154D01*
X125106541Y-121209602D01*
X125084187Y-121254308D01*
X125065684Y-121272811D01*
X125020979Y-121295164D01*
X124913532Y-121295164D01*
X124868825Y-121272811D01*
X124850323Y-121254308D01*
X124827970Y-121209602D01*
X124827970Y-121102154D01*
X124850322Y-121057448D01*
X124868825Y-121038945D01*
X124913532Y-121016592D01*
X125020979Y-121016592D01*
X125065686Y-121038946D01*
G37*
G36*
X125065685Y-120717516D02*
G01*
X125084187Y-120736018D01*
X125106541Y-120780725D01*
X125106541Y-120781030D01*
X125084187Y-120825737D01*
X125065685Y-120844239D01*
X125020979Y-120866592D01*
X124913532Y-120866592D01*
X124868824Y-120844238D01*
X124850322Y-120825736D01*
X124827970Y-120781030D01*
X124827970Y-120780725D01*
X124850322Y-120736019D01*
X124868824Y-120717517D01*
X124913532Y-120695164D01*
X125020979Y-120695164D01*
X125065685Y-120717516D01*
G37*
G36*
X124351399Y-120717516D02*
G01*
X124369901Y-120736018D01*
X124392255Y-120780725D01*
X124392255Y-120852459D01*
X124369901Y-120897165D01*
X124351398Y-120915668D01*
X124306693Y-120938021D01*
X124113684Y-120938021D01*
X124113684Y-120695164D01*
X124306693Y-120695164D01*
X124351399Y-120717516D01*
G37*
G36*
X125363684Y-121552307D02*
G01*
X123179108Y-121552307D01*
X123179108Y-120607140D01*
X123286251Y-120607140D01*
X123295160Y-120657664D01*
X123334460Y-120690641D01*
X123360112Y-120695164D01*
X123499398Y-120695164D01*
X123499398Y-121370164D01*
X123516945Y-121418373D01*
X123561374Y-121444025D01*
X123611898Y-121435116D01*
X123644875Y-121395816D01*
X123649398Y-121370164D01*
X123963684Y-121370164D01*
X123981231Y-121418373D01*
X124025660Y-121444025D01*
X124076184Y-121435116D01*
X124109161Y-121395816D01*
X124113684Y-121370164D01*
X124113684Y-121227307D01*
X124677970Y-121227307D01*
X124679503Y-121231520D01*
X124678462Y-121235881D01*
X124685888Y-121260848D01*
X124721602Y-121332276D01*
X124722790Y-121333401D01*
X124735650Y-121351767D01*
X124771364Y-121387482D01*
X124772845Y-121388172D01*
X124790857Y-121401532D01*
X124862287Y-121437246D01*
X124866739Y-121437758D01*
X124870175Y-121440641D01*
X124895827Y-121445164D01*
X125038684Y-121445164D01*
X125042896Y-121443630D01*
X125047258Y-121444673D01*
X125072225Y-121437246D01*
X125143654Y-121401532D01*
X125144778Y-121400344D01*
X125163147Y-121387482D01*
X125198861Y-121351767D01*
X125199552Y-121350284D01*
X125212909Y-121332276D01*
X125248623Y-121260848D01*
X125249135Y-121256394D01*
X125252018Y-121252959D01*
X125256541Y-121227307D01*
X125256541Y-121084450D01*
X125255007Y-121080237D01*
X125256050Y-121075876D01*
X125248623Y-121050910D01*
X125212909Y-120979480D01*
X125211719Y-120978354D01*
X125198860Y-120959988D01*
X125180464Y-120941592D01*
X125198860Y-120923197D01*
X125199551Y-120921715D01*
X125212909Y-120903705D01*
X125248623Y-120832275D01*
X125249135Y-120827822D01*
X125252018Y-120824387D01*
X125256541Y-120798735D01*
X125256541Y-120763021D01*
X125255007Y-120758808D01*
X125256050Y-120754447D01*
X125248623Y-120729481D01*
X125212909Y-120658051D01*
X125211719Y-120656925D01*
X125198860Y-120638559D01*
X125163146Y-120602845D01*
X125161664Y-120602154D01*
X125143654Y-120588796D01*
X125072225Y-120553082D01*
X125067771Y-120552569D01*
X125064336Y-120549687D01*
X125038684Y-120545164D01*
X124895827Y-120545164D01*
X124891614Y-120546697D01*
X124887253Y-120545655D01*
X124862287Y-120553082D01*
X124790857Y-120588796D01*
X124789731Y-120589985D01*
X124771365Y-120602845D01*
X124735651Y-120638559D01*
X124734960Y-120640040D01*
X124721602Y-120658051D01*
X124685888Y-120729480D01*
X124685375Y-120733933D01*
X124682493Y-120737369D01*
X124677970Y-120763021D01*
X124677970Y-120798735D01*
X124679503Y-120802947D01*
X124678461Y-120807309D01*
X124685888Y-120832276D01*
X124721602Y-120903705D01*
X124722791Y-120904830D01*
X124735651Y-120923197D01*
X124754046Y-120941592D01*
X124735651Y-120959988D01*
X124734960Y-120961469D01*
X124721602Y-120979480D01*
X124685888Y-121050909D01*
X124685375Y-121055362D01*
X124682493Y-121058798D01*
X124677970Y-121084450D01*
X124677970Y-121227307D01*
X124113684Y-121227307D01*
X124113684Y-121088021D01*
X124324398Y-121088021D01*
X124328610Y-121086487D01*
X124332972Y-121087530D01*
X124357939Y-121080103D01*
X124429368Y-121044389D01*
X124430492Y-121043201D01*
X124448861Y-121030339D01*
X124484575Y-120994624D01*
X124485266Y-120993141D01*
X124498623Y-120975133D01*
X124534337Y-120903705D01*
X124534849Y-120899251D01*
X124537732Y-120895816D01*
X124542255Y-120870164D01*
X124542255Y-120763021D01*
X124540721Y-120758808D01*
X124541764Y-120754447D01*
X124534337Y-120729481D01*
X124498623Y-120658051D01*
X124497433Y-120656925D01*
X124484574Y-120638559D01*
X124448860Y-120602845D01*
X124447378Y-120602154D01*
X124429368Y-120588796D01*
X124357939Y-120553082D01*
X124353485Y-120552569D01*
X124350050Y-120549687D01*
X124324398Y-120545164D01*
X124038684Y-120545164D01*
X124020375Y-120551827D01*
X124001184Y-120555212D01*
X123996833Y-120560396D01*
X123990475Y-120562711D01*
X123980732Y-120579584D01*
X123968207Y-120594512D01*
X123966489Y-120604254D01*
X123964823Y-120607140D01*
X123965401Y-120610422D01*
X123963684Y-120620164D01*
X123963684Y-121370164D01*
X123649398Y-121370164D01*
X123649398Y-120695164D01*
X123788684Y-120695164D01*
X123836893Y-120677617D01*
X123862545Y-120633188D01*
X123853636Y-120582664D01*
X123814336Y-120549687D01*
X123788684Y-120545164D01*
X123360112Y-120545164D01*
X123311903Y-120562711D01*
X123286251Y-120607140D01*
X123179108Y-120607140D01*
X123179108Y-120438021D01*
X125363684Y-120438021D01*
X125363684Y-121552307D01*
G37*
D15*
X150530724Y-90419999D02*
X151066438Y-90419999D01*
X151066438Y-90419999D02*
X151173581Y-90455714D01*
X151173581Y-90455714D02*
X151245010Y-90527142D01*
X151245010Y-90527142D02*
X151280724Y-90634285D01*
X151280724Y-90634285D02*
X151280724Y-90705714D01*
X150530724Y-90134285D02*
X150530724Y-89669999D01*
X150530724Y-89669999D02*
X150816438Y-89919999D01*
X150816438Y-89919999D02*
X150816438Y-89812856D01*
X150816438Y-89812856D02*
X150852152Y-89741428D01*
X150852152Y-89741428D02*
X150887867Y-89705713D01*
X150887867Y-89705713D02*
X150959295Y-89669999D01*
X150959295Y-89669999D02*
X151137867Y-89669999D01*
X151137867Y-89669999D02*
X151209295Y-89705713D01*
X151209295Y-89705713D02*
X151245010Y-89741428D01*
X151245010Y-89741428D02*
X151280724Y-89812856D01*
X151280724Y-89812856D02*
X151280724Y-90027142D01*
X151280724Y-90027142D02*
X151245010Y-90098570D01*
X151245010Y-90098570D02*
X151209295Y-90134285D01*
X94360724Y-119629999D02*
X94896438Y-119629999D01*
X94896438Y-119629999D02*
X95003581Y-119665714D01*
X95003581Y-119665714D02*
X95075010Y-119737142D01*
X95075010Y-119737142D02*
X95110724Y-119844285D01*
X95110724Y-119844285D02*
X95110724Y-119915714D01*
X94360724Y-118915713D02*
X94360724Y-119272856D01*
X94360724Y-119272856D02*
X94717867Y-119308570D01*
X94717867Y-119308570D02*
X94682152Y-119272856D01*
X94682152Y-119272856D02*
X94646438Y-119201428D01*
X94646438Y-119201428D02*
X94646438Y-119022856D01*
X94646438Y-119022856D02*
X94682152Y-118951428D01*
X94682152Y-118951428D02*
X94717867Y-118915713D01*
X94717867Y-118915713D02*
X94789295Y-118879999D01*
X94789295Y-118879999D02*
X94967867Y-118879999D01*
X94967867Y-118879999D02*
X95039295Y-118915713D01*
X95039295Y-118915713D02*
X95075010Y-118951428D01*
X95075010Y-118951428D02*
X95110724Y-119022856D01*
X95110724Y-119022856D02*
X95110724Y-119201428D01*
X95110724Y-119201428D02*
X95075010Y-119272856D01*
X95075010Y-119272856D02*
X95039295Y-119308570D01*
D10*
G36*
X122980858Y-124400516D02*
G01*
X122999360Y-124419018D01*
X123021714Y-124463725D01*
X123021714Y-124535459D01*
X122999360Y-124580165D01*
X122980857Y-124598668D01*
X122936152Y-124621021D01*
X122743143Y-124621021D01*
X122743143Y-124378164D01*
X122936152Y-124378164D01*
X122980858Y-124400516D01*
G37*
G36*
X123993143Y-125235307D02*
G01*
X121808567Y-125235307D01*
X121808567Y-124290140D01*
X121915710Y-124290140D01*
X121924619Y-124340664D01*
X121963919Y-124373641D01*
X121989571Y-124378164D01*
X122128857Y-124378164D01*
X122128857Y-125053164D01*
X122146404Y-125101373D01*
X122190833Y-125127025D01*
X122241357Y-125118116D01*
X122274334Y-125078816D01*
X122278857Y-125053164D01*
X122593143Y-125053164D01*
X122610690Y-125101373D01*
X122655119Y-125127025D01*
X122705643Y-125118116D01*
X122738620Y-125078816D01*
X122743143Y-125053164D01*
X122743143Y-125046628D01*
X123272000Y-125046628D01*
X123277841Y-125068430D01*
X123281762Y-125090664D01*
X123284389Y-125092868D01*
X123285277Y-125096182D01*
X123303768Y-125109130D01*
X123321062Y-125123641D01*
X123325646Y-125124449D01*
X123327303Y-125125609D01*
X123330591Y-125125321D01*
X123346714Y-125128164D01*
X123811000Y-125128164D01*
X123859209Y-125110617D01*
X123884861Y-125066188D01*
X123875952Y-125015664D01*
X123836652Y-124982687D01*
X123811000Y-124978164D01*
X123527780Y-124978164D01*
X123828319Y-124677625D01*
X123830214Y-124673560D01*
X123834034Y-124671214D01*
X123846437Y-124648309D01*
X123882151Y-124541167D01*
X123882106Y-124539532D01*
X123886000Y-124517450D01*
X123886000Y-124446021D01*
X123884466Y-124441808D01*
X123885509Y-124437447D01*
X123878082Y-124412481D01*
X123842368Y-124341051D01*
X123841178Y-124339925D01*
X123828319Y-124321559D01*
X123792605Y-124285845D01*
X123791123Y-124285154D01*
X123773113Y-124271796D01*
X123701684Y-124236082D01*
X123697230Y-124235569D01*
X123693795Y-124232687D01*
X123668143Y-124228164D01*
X123489572Y-124228164D01*
X123485359Y-124229697D01*
X123480998Y-124228655D01*
X123456032Y-124236082D01*
X123384602Y-124271796D01*
X123383476Y-124272985D01*
X123365110Y-124285845D01*
X123329396Y-124321559D01*
X123307715Y-124368056D01*
X123320992Y-124417610D01*
X123363018Y-124447037D01*
X123414125Y-124442565D01*
X123435462Y-124427625D01*
X123462569Y-124400517D01*
X123507277Y-124378164D01*
X123650438Y-124378164D01*
X123695144Y-124400516D01*
X123713646Y-124419018D01*
X123736000Y-124463725D01*
X123736000Y-124505280D01*
X123709734Y-124584078D01*
X123293681Y-125000131D01*
X123284143Y-125020584D01*
X123272853Y-125040140D01*
X123273449Y-125043520D01*
X123272000Y-125046628D01*
X122743143Y-125046628D01*
X122743143Y-124771021D01*
X122953857Y-124771021D01*
X122958069Y-124769487D01*
X122962431Y-124770530D01*
X122987398Y-124763103D01*
X123058827Y-124727389D01*
X123059951Y-124726201D01*
X123078320Y-124713339D01*
X123114034Y-124677624D01*
X123114725Y-124676141D01*
X123128082Y-124658133D01*
X123163796Y-124586705D01*
X123164308Y-124582251D01*
X123167191Y-124578816D01*
X123171714Y-124553164D01*
X123171714Y-124446021D01*
X123170180Y-124441808D01*
X123171223Y-124437447D01*
X123163796Y-124412481D01*
X123128082Y-124341051D01*
X123126892Y-124339925D01*
X123114033Y-124321559D01*
X123078319Y-124285845D01*
X123076837Y-124285154D01*
X123058827Y-124271796D01*
X122987398Y-124236082D01*
X122982944Y-124235569D01*
X122979509Y-124232687D01*
X122953857Y-124228164D01*
X122668143Y-124228164D01*
X122649834Y-124234827D01*
X122630643Y-124238212D01*
X122626292Y-124243396D01*
X122619934Y-124245711D01*
X122610191Y-124262584D01*
X122597666Y-124277512D01*
X122595948Y-124287254D01*
X122594282Y-124290140D01*
X122594860Y-124293422D01*
X122593143Y-124303164D01*
X122593143Y-125053164D01*
X122278857Y-125053164D01*
X122278857Y-124378164D01*
X122418143Y-124378164D01*
X122466352Y-124360617D01*
X122492004Y-124316188D01*
X122483095Y-124265664D01*
X122443795Y-124232687D01*
X122418143Y-124228164D01*
X121989571Y-124228164D01*
X121941362Y-124245711D01*
X121915710Y-124290140D01*
X121808567Y-124290140D01*
X121808567Y-124121021D01*
X123993143Y-124121021D01*
X123993143Y-125235307D01*
G37*
D15*
X120494724Y-114744428D02*
X121101867Y-114744428D01*
X121101867Y-114744428D02*
X121173295Y-114708714D01*
X121173295Y-114708714D02*
X121209010Y-114673000D01*
X121209010Y-114673000D02*
X121244724Y-114601571D01*
X121244724Y-114601571D02*
X121244724Y-114458714D01*
X121244724Y-114458714D02*
X121209010Y-114387285D01*
X121209010Y-114387285D02*
X121173295Y-114351571D01*
X121173295Y-114351571D02*
X121101867Y-114315857D01*
X121101867Y-114315857D02*
X120494724Y-114315857D01*
X120566152Y-113994428D02*
X120530438Y-113958714D01*
X120530438Y-113958714D02*
X120494724Y-113887286D01*
X120494724Y-113887286D02*
X120494724Y-113708714D01*
X120494724Y-113708714D02*
X120530438Y-113637286D01*
X120530438Y-113637286D02*
X120566152Y-113601571D01*
X120566152Y-113601571D02*
X120637581Y-113565857D01*
X120637581Y-113565857D02*
X120709010Y-113565857D01*
X120709010Y-113565857D02*
X120816152Y-113601571D01*
X120816152Y-113601571D02*
X121244724Y-114030143D01*
X121244724Y-114030143D02*
X121244724Y-113565857D01*
X86446724Y-108710000D02*
X86089581Y-108960000D01*
X86446724Y-109138571D02*
X85696724Y-109138571D01*
X85696724Y-109138571D02*
X85696724Y-108852857D01*
X85696724Y-108852857D02*
X85732438Y-108781428D01*
X85732438Y-108781428D02*
X85768152Y-108745714D01*
X85768152Y-108745714D02*
X85839581Y-108710000D01*
X85839581Y-108710000D02*
X85946724Y-108710000D01*
X85946724Y-108710000D02*
X86018152Y-108745714D01*
X86018152Y-108745714D02*
X86053867Y-108781428D01*
X86053867Y-108781428D02*
X86089581Y-108852857D01*
X86089581Y-108852857D02*
X86089581Y-109138571D01*
X85696724Y-108067143D02*
X85696724Y-108210000D01*
X85696724Y-108210000D02*
X85732438Y-108281428D01*
X85732438Y-108281428D02*
X85768152Y-108317143D01*
X85768152Y-108317143D02*
X85875295Y-108388571D01*
X85875295Y-108388571D02*
X86018152Y-108424285D01*
X86018152Y-108424285D02*
X86303867Y-108424285D01*
X86303867Y-108424285D02*
X86375295Y-108388571D01*
X86375295Y-108388571D02*
X86411010Y-108352857D01*
X86411010Y-108352857D02*
X86446724Y-108281428D01*
X86446724Y-108281428D02*
X86446724Y-108138571D01*
X86446724Y-108138571D02*
X86411010Y-108067143D01*
X86411010Y-108067143D02*
X86375295Y-108031428D01*
X86375295Y-108031428D02*
X86303867Y-107995714D01*
X86303867Y-107995714D02*
X86125295Y-107995714D01*
X86125295Y-107995714D02*
X86053867Y-108031428D01*
X86053867Y-108031428D02*
X86018152Y-108067143D01*
X86018152Y-108067143D02*
X85982438Y-108138571D01*
X85982438Y-108138571D02*
X85982438Y-108281428D01*
X85982438Y-108281428D02*
X86018152Y-108352857D01*
X86018152Y-108352857D02*
X86053867Y-108388571D01*
X86053867Y-108388571D02*
X86125295Y-108424285D01*
D16*
X106315000Y-122861050D02*
X106422143Y-122896764D01*
X106422143Y-122896764D02*
X106600714Y-122896764D01*
X106600714Y-122896764D02*
X106672143Y-122861050D01*
X106672143Y-122861050D02*
X106707857Y-122825335D01*
X106707857Y-122825335D02*
X106743571Y-122753907D01*
X106743571Y-122753907D02*
X106743571Y-122682478D01*
X106743571Y-122682478D02*
X106707857Y-122611050D01*
X106707857Y-122611050D02*
X106672143Y-122575335D01*
X106672143Y-122575335D02*
X106600714Y-122539621D01*
X106600714Y-122539621D02*
X106457857Y-122503907D01*
X106457857Y-122503907D02*
X106386428Y-122468192D01*
X106386428Y-122468192D02*
X106350714Y-122432478D01*
X106350714Y-122432478D02*
X106315000Y-122361050D01*
X106315000Y-122361050D02*
X106315000Y-122289621D01*
X106315000Y-122289621D02*
X106350714Y-122218192D01*
X106350714Y-122218192D02*
X106386428Y-122182478D01*
X106386428Y-122182478D02*
X106457857Y-122146764D01*
X106457857Y-122146764D02*
X106636428Y-122146764D01*
X106636428Y-122146764D02*
X106743571Y-122182478D01*
X106993571Y-122146764D02*
X107172143Y-122896764D01*
X107172143Y-122896764D02*
X107315000Y-122361050D01*
X107315000Y-122361050D02*
X107457857Y-122896764D01*
X107457857Y-122896764D02*
X107636429Y-122146764D01*
X108243572Y-122396764D02*
X108243572Y-122896764D01*
X108065000Y-122111050D02*
X107886429Y-122646764D01*
X107886429Y-122646764D02*
X108350714Y-122646764D01*
X101235000Y-122861050D02*
X101342143Y-122896764D01*
X101342143Y-122896764D02*
X101520714Y-122896764D01*
X101520714Y-122896764D02*
X101592143Y-122861050D01*
X101592143Y-122861050D02*
X101627857Y-122825335D01*
X101627857Y-122825335D02*
X101663571Y-122753907D01*
X101663571Y-122753907D02*
X101663571Y-122682478D01*
X101663571Y-122682478D02*
X101627857Y-122611050D01*
X101627857Y-122611050D02*
X101592143Y-122575335D01*
X101592143Y-122575335D02*
X101520714Y-122539621D01*
X101520714Y-122539621D02*
X101377857Y-122503907D01*
X101377857Y-122503907D02*
X101306428Y-122468192D01*
X101306428Y-122468192D02*
X101270714Y-122432478D01*
X101270714Y-122432478D02*
X101235000Y-122361050D01*
X101235000Y-122361050D02*
X101235000Y-122289621D01*
X101235000Y-122289621D02*
X101270714Y-122218192D01*
X101270714Y-122218192D02*
X101306428Y-122182478D01*
X101306428Y-122182478D02*
X101377857Y-122146764D01*
X101377857Y-122146764D02*
X101556428Y-122146764D01*
X101556428Y-122146764D02*
X101663571Y-122182478D01*
X101913571Y-122146764D02*
X102092143Y-122896764D01*
X102092143Y-122896764D02*
X102235000Y-122361050D01*
X102235000Y-122361050D02*
X102377857Y-122896764D01*
X102377857Y-122896764D02*
X102556429Y-122146764D01*
X102770714Y-122146764D02*
X103235000Y-122146764D01*
X103235000Y-122146764D02*
X102985000Y-122432478D01*
X102985000Y-122432478D02*
X103092143Y-122432478D01*
X103092143Y-122432478D02*
X103163572Y-122468192D01*
X103163572Y-122468192D02*
X103199286Y-122503907D01*
X103199286Y-122503907D02*
X103235000Y-122575335D01*
X103235000Y-122575335D02*
X103235000Y-122753907D01*
X103235000Y-122753907D02*
X103199286Y-122825335D01*
X103199286Y-122825335D02*
X103163572Y-122861050D01*
X103163572Y-122861050D02*
X103092143Y-122896764D01*
X103092143Y-122896764D02*
X102877857Y-122896764D01*
X102877857Y-122896764D02*
X102806429Y-122861050D01*
X102806429Y-122861050D02*
X102770714Y-122825335D01*
D10*
G36*
X127933858Y-118177516D02*
G01*
X127952360Y-118196018D01*
X127974714Y-118240725D01*
X127974714Y-118312459D01*
X127952360Y-118357165D01*
X127933857Y-118375668D01*
X127889152Y-118398021D01*
X127696143Y-118398021D01*
X127696143Y-118155164D01*
X127889152Y-118155164D01*
X127933858Y-118177516D01*
G37*
G36*
X128945004Y-119012307D02*
G01*
X126761567Y-119012307D01*
X126761567Y-118067140D01*
X126868710Y-118067140D01*
X126877619Y-118117664D01*
X126916919Y-118150641D01*
X126942571Y-118155164D01*
X127081857Y-118155164D01*
X127081857Y-118830164D01*
X127099404Y-118878373D01*
X127143833Y-118904025D01*
X127194357Y-118895116D01*
X127227334Y-118855816D01*
X127231857Y-118830164D01*
X127546143Y-118830164D01*
X127563690Y-118878373D01*
X127608119Y-118904025D01*
X127658643Y-118895116D01*
X127691620Y-118855816D01*
X127696143Y-118830164D01*
X127696143Y-118817140D01*
X128261568Y-118817140D01*
X128270477Y-118867664D01*
X128309777Y-118900641D01*
X128335429Y-118905164D01*
X128764000Y-118905164D01*
X128812209Y-118887617D01*
X128837861Y-118843188D01*
X128828952Y-118792664D01*
X128789652Y-118759687D01*
X128764000Y-118755164D01*
X128624714Y-118755164D01*
X128624714Y-118080164D01*
X128623238Y-118076110D01*
X128624259Y-118071921D01*
X128614612Y-118052410D01*
X128607167Y-118031955D01*
X128603432Y-118029798D01*
X128601521Y-118025933D01*
X128581594Y-118017190D01*
X128562738Y-118006303D01*
X128558488Y-118007052D01*
X128554540Y-118005320D01*
X128533652Y-118011431D01*
X128512214Y-118015212D01*
X128509441Y-118018515D01*
X128505302Y-118019727D01*
X128487310Y-118038562D01*
X128420002Y-118139524D01*
X128362429Y-118197096D01*
X128301887Y-118227368D01*
X128266615Y-118264623D01*
X128263541Y-118315833D01*
X128294105Y-118357039D01*
X128344004Y-118368958D01*
X128368971Y-118361532D01*
X128440398Y-118325817D01*
X128441521Y-118324630D01*
X128459890Y-118311768D01*
X128474714Y-118296944D01*
X128474714Y-118755164D01*
X128335429Y-118755164D01*
X128287220Y-118772711D01*
X128261568Y-118817140D01*
X127696143Y-118817140D01*
X127696143Y-118548021D01*
X127906857Y-118548021D01*
X127911069Y-118546487D01*
X127915431Y-118547530D01*
X127940398Y-118540103D01*
X128011827Y-118504389D01*
X128012951Y-118503201D01*
X128031320Y-118490339D01*
X128067034Y-118454624D01*
X128067725Y-118453141D01*
X128081082Y-118435133D01*
X128116796Y-118363705D01*
X128117308Y-118359251D01*
X128120191Y-118355816D01*
X128124714Y-118330164D01*
X128124714Y-118223021D01*
X128123180Y-118218808D01*
X128124223Y-118214447D01*
X128116796Y-118189481D01*
X128081082Y-118118051D01*
X128079892Y-118116925D01*
X128067033Y-118098559D01*
X128031319Y-118062845D01*
X128029837Y-118062154D01*
X128011827Y-118048796D01*
X127940398Y-118013082D01*
X127935944Y-118012569D01*
X127932509Y-118009687D01*
X127906857Y-118005164D01*
X127621143Y-118005164D01*
X127602834Y-118011827D01*
X127583643Y-118015212D01*
X127579292Y-118020396D01*
X127572934Y-118022711D01*
X127563191Y-118039584D01*
X127550666Y-118054512D01*
X127548948Y-118064254D01*
X127547282Y-118067140D01*
X127547860Y-118070422D01*
X127546143Y-118080164D01*
X127546143Y-118830164D01*
X127231857Y-118830164D01*
X127231857Y-118155164D01*
X127371143Y-118155164D01*
X127419352Y-118137617D01*
X127445004Y-118093188D01*
X127436095Y-118042664D01*
X127396795Y-118009687D01*
X127371143Y-118005164D01*
X126942571Y-118005164D01*
X126894362Y-118022711D01*
X126868710Y-118067140D01*
X126761567Y-118067140D01*
X126761567Y-117898021D01*
X128945004Y-117898021D01*
X128945004Y-119012307D01*
G37*
D15*
X115189623Y-109616295D02*
X115153909Y-109652010D01*
X115153909Y-109652010D02*
X115046766Y-109687724D01*
X115046766Y-109687724D02*
X114975338Y-109687724D01*
X114975338Y-109687724D02*
X114868195Y-109652010D01*
X114868195Y-109652010D02*
X114796766Y-109580581D01*
X114796766Y-109580581D02*
X114761052Y-109509152D01*
X114761052Y-109509152D02*
X114725338Y-109366295D01*
X114725338Y-109366295D02*
X114725338Y-109259152D01*
X114725338Y-109259152D02*
X114761052Y-109116295D01*
X114761052Y-109116295D02*
X114796766Y-109044867D01*
X114796766Y-109044867D02*
X114868195Y-108973438D01*
X114868195Y-108973438D02*
X114975338Y-108937724D01*
X114975338Y-108937724D02*
X115046766Y-108937724D01*
X115046766Y-108937724D02*
X115153909Y-108973438D01*
X115153909Y-108973438D02*
X115189623Y-109009152D01*
X115903909Y-109687724D02*
X115475338Y-109687724D01*
X115689623Y-109687724D02*
X115689623Y-108937724D01*
X115689623Y-108937724D02*
X115618195Y-109044867D01*
X115618195Y-109044867D02*
X115546766Y-109116295D01*
X115546766Y-109116295D02*
X115475338Y-109152010D01*
X116368195Y-108937724D02*
X116439624Y-108937724D01*
X116439624Y-108937724D02*
X116511052Y-108973438D01*
X116511052Y-108973438D02*
X116546767Y-109009152D01*
X116546767Y-109009152D02*
X116582481Y-109080581D01*
X116582481Y-109080581D02*
X116618195Y-109223438D01*
X116618195Y-109223438D02*
X116618195Y-109402010D01*
X116618195Y-109402010D02*
X116582481Y-109544867D01*
X116582481Y-109544867D02*
X116546767Y-109616295D01*
X116546767Y-109616295D02*
X116511052Y-109652010D01*
X116511052Y-109652010D02*
X116439624Y-109687724D01*
X116439624Y-109687724D02*
X116368195Y-109687724D01*
X116368195Y-109687724D02*
X116296767Y-109652010D01*
X116296767Y-109652010D02*
X116261052Y-109616295D01*
X116261052Y-109616295D02*
X116225338Y-109544867D01*
X116225338Y-109544867D02*
X116189624Y-109402010D01*
X116189624Y-109402010D02*
X116189624Y-109223438D01*
X116189624Y-109223438D02*
X116225338Y-109080581D01*
X116225338Y-109080581D02*
X116261052Y-109009152D01*
X116261052Y-109009152D02*
X116296767Y-108973438D01*
X116296767Y-108973438D02*
X116368195Y-108937724D01*
X99527724Y-94817910D02*
X99170581Y-95067910D01*
X99527724Y-95246481D02*
X98777724Y-95246481D01*
X98777724Y-95246481D02*
X98777724Y-94960767D01*
X98777724Y-94960767D02*
X98813438Y-94889338D01*
X98813438Y-94889338D02*
X98849152Y-94853624D01*
X98849152Y-94853624D02*
X98920581Y-94817910D01*
X98920581Y-94817910D02*
X99027724Y-94817910D01*
X99027724Y-94817910D02*
X99099152Y-94853624D01*
X99099152Y-94853624D02*
X99134867Y-94889338D01*
X99134867Y-94889338D02*
X99170581Y-94960767D01*
X99170581Y-94960767D02*
X99170581Y-95246481D01*
X99099152Y-94389338D02*
X99063438Y-94460767D01*
X99063438Y-94460767D02*
X99027724Y-94496481D01*
X99027724Y-94496481D02*
X98956295Y-94532195D01*
X98956295Y-94532195D02*
X98920581Y-94532195D01*
X98920581Y-94532195D02*
X98849152Y-94496481D01*
X98849152Y-94496481D02*
X98813438Y-94460767D01*
X98813438Y-94460767D02*
X98777724Y-94389338D01*
X98777724Y-94389338D02*
X98777724Y-94246481D01*
X98777724Y-94246481D02*
X98813438Y-94175053D01*
X98813438Y-94175053D02*
X98849152Y-94139338D01*
X98849152Y-94139338D02*
X98920581Y-94103624D01*
X98920581Y-94103624D02*
X98956295Y-94103624D01*
X98956295Y-94103624D02*
X99027724Y-94139338D01*
X99027724Y-94139338D02*
X99063438Y-94175053D01*
X99063438Y-94175053D02*
X99099152Y-94246481D01*
X99099152Y-94246481D02*
X99099152Y-94389338D01*
X99099152Y-94389338D02*
X99134867Y-94460767D01*
X99134867Y-94460767D02*
X99170581Y-94496481D01*
X99170581Y-94496481D02*
X99242010Y-94532195D01*
X99242010Y-94532195D02*
X99384867Y-94532195D01*
X99384867Y-94532195D02*
X99456295Y-94496481D01*
X99456295Y-94496481D02*
X99492010Y-94460767D01*
X99492010Y-94460767D02*
X99527724Y-94389338D01*
X99527724Y-94389338D02*
X99527724Y-94246481D01*
X99527724Y-94246481D02*
X99492010Y-94175053D01*
X99492010Y-94175053D02*
X99456295Y-94139338D01*
X99456295Y-94139338D02*
X99384867Y-94103624D01*
X99384867Y-94103624D02*
X99242010Y-94103624D01*
X99242010Y-94103624D02*
X99170581Y-94139338D01*
X99170581Y-94139338D02*
X99134867Y-94175053D01*
X99134867Y-94175053D02*
X99099152Y-94246481D01*
X114760909Y-116220295D02*
X114725195Y-116256010D01*
X114725195Y-116256010D02*
X114618052Y-116291724D01*
X114618052Y-116291724D02*
X114546624Y-116291724D01*
X114546624Y-116291724D02*
X114439481Y-116256010D01*
X114439481Y-116256010D02*
X114368052Y-116184581D01*
X114368052Y-116184581D02*
X114332338Y-116113152D01*
X114332338Y-116113152D02*
X114296624Y-115970295D01*
X114296624Y-115970295D02*
X114296624Y-115863152D01*
X114296624Y-115863152D02*
X114332338Y-115720295D01*
X114332338Y-115720295D02*
X114368052Y-115648867D01*
X114368052Y-115648867D02*
X114439481Y-115577438D01*
X114439481Y-115577438D02*
X114546624Y-115541724D01*
X114546624Y-115541724D02*
X114618052Y-115541724D01*
X114618052Y-115541724D02*
X114725195Y-115577438D01*
X114725195Y-115577438D02*
X114760909Y-115613152D01*
X115439481Y-115541724D02*
X115082338Y-115541724D01*
X115082338Y-115541724D02*
X115046624Y-115898867D01*
X115046624Y-115898867D02*
X115082338Y-115863152D01*
X115082338Y-115863152D02*
X115153767Y-115827438D01*
X115153767Y-115827438D02*
X115332338Y-115827438D01*
X115332338Y-115827438D02*
X115403767Y-115863152D01*
X115403767Y-115863152D02*
X115439481Y-115898867D01*
X115439481Y-115898867D02*
X115475195Y-115970295D01*
X115475195Y-115970295D02*
X115475195Y-116148867D01*
X115475195Y-116148867D02*
X115439481Y-116220295D01*
X115439481Y-116220295D02*
X115403767Y-116256010D01*
X115403767Y-116256010D02*
X115332338Y-116291724D01*
X115332338Y-116291724D02*
X115153767Y-116291724D01*
X115153767Y-116291724D02*
X115082338Y-116256010D01*
X115082338Y-116256010D02*
X115046624Y-116220295D01*
D10*
X123414164Y-101462999D02*
X123949878Y-101462999D01*
X123949878Y-101462999D02*
X124057021Y-101498714D01*
X124057021Y-101498714D02*
X124128450Y-101570142D01*
X124128450Y-101570142D02*
X124164164Y-101677285D01*
X124164164Y-101677285D02*
X124164164Y-101748714D01*
X124164164Y-101105856D02*
X123414164Y-101105856D01*
X123414164Y-101105856D02*
X123414164Y-100820142D01*
X123414164Y-100820142D02*
X123449878Y-100748713D01*
X123449878Y-100748713D02*
X123485592Y-100712999D01*
X123485592Y-100712999D02*
X123557021Y-100677285D01*
X123557021Y-100677285D02*
X123664164Y-100677285D01*
X123664164Y-100677285D02*
X123735592Y-100712999D01*
X123735592Y-100712999D02*
X123771307Y-100748713D01*
X123771307Y-100748713D02*
X123807021Y-100820142D01*
X123807021Y-100820142D02*
X123807021Y-101105856D01*
X124164164Y-99962999D02*
X124164164Y-100391570D01*
X124164164Y-100177285D02*
X123414164Y-100177285D01*
X123414164Y-100177285D02*
X123521307Y-100248713D01*
X123521307Y-100248713D02*
X123592735Y-100320142D01*
X123592735Y-100320142D02*
X123628450Y-100391570D01*
D15*
X94360724Y-96769999D02*
X94896438Y-96769999D01*
X94896438Y-96769999D02*
X95003581Y-96805714D01*
X95003581Y-96805714D02*
X95075010Y-96877142D01*
X95075010Y-96877142D02*
X95110724Y-96984285D01*
X95110724Y-96984285D02*
X95110724Y-97055714D01*
X94610724Y-96091428D02*
X95110724Y-96091428D01*
X94325010Y-96269999D02*
X94860724Y-96448570D01*
X94860724Y-96448570D02*
X94860724Y-95984285D01*
X115189623Y-107457295D02*
X115153909Y-107493010D01*
X115153909Y-107493010D02*
X115046766Y-107528724D01*
X115046766Y-107528724D02*
X114975338Y-107528724D01*
X114975338Y-107528724D02*
X114868195Y-107493010D01*
X114868195Y-107493010D02*
X114796766Y-107421581D01*
X114796766Y-107421581D02*
X114761052Y-107350152D01*
X114761052Y-107350152D02*
X114725338Y-107207295D01*
X114725338Y-107207295D02*
X114725338Y-107100152D01*
X114725338Y-107100152D02*
X114761052Y-106957295D01*
X114761052Y-106957295D02*
X114796766Y-106885867D01*
X114796766Y-106885867D02*
X114868195Y-106814438D01*
X114868195Y-106814438D02*
X114975338Y-106778724D01*
X114975338Y-106778724D02*
X115046766Y-106778724D01*
X115046766Y-106778724D02*
X115153909Y-106814438D01*
X115153909Y-106814438D02*
X115189623Y-106850152D01*
X115903909Y-107528724D02*
X115475338Y-107528724D01*
X115689623Y-107528724D02*
X115689623Y-106778724D01*
X115689623Y-106778724D02*
X115618195Y-106885867D01*
X115618195Y-106885867D02*
X115546766Y-106957295D01*
X115546766Y-106957295D02*
X115475338Y-106993010D01*
X116618195Y-107528724D02*
X116189624Y-107528724D01*
X116403909Y-107528724D02*
X116403909Y-106778724D01*
X116403909Y-106778724D02*
X116332481Y-106885867D01*
X116332481Y-106885867D02*
X116261052Y-106957295D01*
X116261052Y-106957295D02*
X116189624Y-106993010D01*
D10*
X128494164Y-109791428D02*
X129101307Y-109791428D01*
X129101307Y-109791428D02*
X129172735Y-109755714D01*
X129172735Y-109755714D02*
X129208450Y-109720000D01*
X129208450Y-109720000D02*
X129244164Y-109648571D01*
X129244164Y-109648571D02*
X129244164Y-109505714D01*
X129244164Y-109505714D02*
X129208450Y-109434285D01*
X129208450Y-109434285D02*
X129172735Y-109398571D01*
X129172735Y-109398571D02*
X129101307Y-109362857D01*
X129101307Y-109362857D02*
X128494164Y-109362857D01*
X128494164Y-109077143D02*
X128494164Y-108577143D01*
X128494164Y-108577143D02*
X129244164Y-108898571D01*
D15*
X92265571Y-111223724D02*
X92265571Y-111830867D01*
X92265571Y-111830867D02*
X92301285Y-111902295D01*
X92301285Y-111902295D02*
X92337000Y-111938010D01*
X92337000Y-111938010D02*
X92408428Y-111973724D01*
X92408428Y-111973724D02*
X92551285Y-111973724D01*
X92551285Y-111973724D02*
X92622714Y-111938010D01*
X92622714Y-111938010D02*
X92658428Y-111902295D01*
X92658428Y-111902295D02*
X92694142Y-111830867D01*
X92694142Y-111830867D02*
X92694142Y-111223724D01*
X92979856Y-111223724D02*
X93444142Y-111223724D01*
X93444142Y-111223724D02*
X93194142Y-111509438D01*
X93194142Y-111509438D02*
X93301285Y-111509438D01*
X93301285Y-111509438D02*
X93372714Y-111545152D01*
X93372714Y-111545152D02*
X93408428Y-111580867D01*
X93408428Y-111580867D02*
X93444142Y-111652295D01*
X93444142Y-111652295D02*
X93444142Y-111830867D01*
X93444142Y-111830867D02*
X93408428Y-111902295D01*
X93408428Y-111902295D02*
X93372714Y-111938010D01*
X93372714Y-111938010D02*
X93301285Y-111973724D01*
X93301285Y-111973724D02*
X93086999Y-111973724D01*
X93086999Y-111973724D02*
X93015571Y-111938010D01*
X93015571Y-111938010D02*
X92979856Y-111902295D01*
D10*
G36*
X126175573Y-108398517D02*
G01*
X126194076Y-108417019D01*
X126220664Y-108470196D01*
X126252143Y-108596111D01*
X126252143Y-108756216D01*
X126220664Y-108882131D01*
X126194076Y-108935308D01*
X126175573Y-108953811D01*
X126130867Y-108976164D01*
X126094848Y-108976164D01*
X126050142Y-108953811D01*
X126031639Y-108935308D01*
X126005050Y-108882131D01*
X125973572Y-108756216D01*
X125973572Y-108596111D01*
X126005050Y-108470196D01*
X126031638Y-108417020D01*
X126050141Y-108398517D01*
X126094848Y-108376164D01*
X126130867Y-108376164D01*
X126175573Y-108398517D01*
G37*
G36*
X124782715Y-108398516D02*
G01*
X124801217Y-108417018D01*
X124823571Y-108461725D01*
X124823571Y-108533459D01*
X124801217Y-108578165D01*
X124782714Y-108596668D01*
X124738009Y-108619021D01*
X124545000Y-108619021D01*
X124545000Y-108376164D01*
X124738009Y-108376164D01*
X124782715Y-108398516D01*
G37*
G36*
X126509286Y-109233307D02*
G01*
X123610424Y-109233307D01*
X123610424Y-108288140D01*
X123717567Y-108288140D01*
X123726476Y-108338664D01*
X123765776Y-108371641D01*
X123791428Y-108376164D01*
X123930714Y-108376164D01*
X123930714Y-109051164D01*
X123948261Y-109099373D01*
X123992690Y-109125025D01*
X124043214Y-109116116D01*
X124076191Y-109076816D01*
X124080714Y-109051164D01*
X124395000Y-109051164D01*
X124412547Y-109099373D01*
X124456976Y-109125025D01*
X124507500Y-109116116D01*
X124540477Y-109076816D01*
X124545000Y-109051164D01*
X124545000Y-109038140D01*
X125110425Y-109038140D01*
X125119334Y-109088664D01*
X125158634Y-109121641D01*
X125184286Y-109126164D01*
X125612857Y-109126164D01*
X125661066Y-109108617D01*
X125686718Y-109064188D01*
X125677809Y-109013664D01*
X125638509Y-108980687D01*
X125612857Y-108976164D01*
X125473571Y-108976164D01*
X125473571Y-108765450D01*
X125823572Y-108765450D01*
X125824757Y-108768707D01*
X125825811Y-108783640D01*
X125861525Y-108926497D01*
X125863513Y-108929441D01*
X125867204Y-108941848D01*
X125902918Y-109013276D01*
X125904107Y-109014401D01*
X125916967Y-109032768D01*
X125952682Y-109068483D01*
X125954163Y-109069174D01*
X125972174Y-109082532D01*
X126043602Y-109118246D01*
X126048055Y-109118758D01*
X126051491Y-109121641D01*
X126077143Y-109126164D01*
X126148572Y-109126164D01*
X126152785Y-109124630D01*
X126157146Y-109125672D01*
X126182113Y-109118246D01*
X126253541Y-109082532D01*
X126254666Y-109081342D01*
X126273033Y-109068483D01*
X126308748Y-109032768D01*
X126309439Y-109031286D01*
X126322797Y-109013276D01*
X126358511Y-108941848D01*
X126358917Y-108938319D01*
X126364190Y-108926497D01*
X126399904Y-108783640D01*
X126399543Y-108780191D01*
X126402143Y-108765450D01*
X126402143Y-108586878D01*
X126400957Y-108583620D01*
X126399904Y-108568688D01*
X126364190Y-108425831D01*
X126362201Y-108422887D01*
X126358511Y-108410481D01*
X126322797Y-108339051D01*
X126321609Y-108337926D01*
X126308747Y-108319558D01*
X126273032Y-108283844D01*
X126271549Y-108283152D01*
X126253541Y-108269796D01*
X126182113Y-108234082D01*
X126177659Y-108233569D01*
X126174224Y-108230687D01*
X126148572Y-108226164D01*
X126077143Y-108226164D01*
X126072929Y-108227697D01*
X126068569Y-108226656D01*
X126043602Y-108234082D01*
X125972174Y-108269796D01*
X125971048Y-108270984D01*
X125952683Y-108283844D01*
X125916968Y-108319558D01*
X125916277Y-108321039D01*
X125902918Y-108339051D01*
X125867204Y-108410480D01*
X125866798Y-108414007D01*
X125861525Y-108425831D01*
X125825811Y-108568688D01*
X125826171Y-108572136D01*
X125823572Y-108586878D01*
X125823572Y-108765450D01*
X125473571Y-108765450D01*
X125473571Y-108301164D01*
X125472095Y-108297110D01*
X125473116Y-108292921D01*
X125463469Y-108273410D01*
X125456024Y-108252955D01*
X125452289Y-108250798D01*
X125450378Y-108246933D01*
X125430451Y-108238190D01*
X125411595Y-108227303D01*
X125407345Y-108228052D01*
X125403397Y-108226320D01*
X125382509Y-108232431D01*
X125361071Y-108236212D01*
X125358298Y-108239515D01*
X125354159Y-108240727D01*
X125336167Y-108259562D01*
X125268859Y-108360524D01*
X125211286Y-108418096D01*
X125150744Y-108448368D01*
X125115472Y-108485623D01*
X125112398Y-108536833D01*
X125142962Y-108578039D01*
X125192861Y-108589958D01*
X125217828Y-108582532D01*
X125289255Y-108546817D01*
X125290378Y-108545630D01*
X125308747Y-108532768D01*
X125323571Y-108517944D01*
X125323571Y-108976164D01*
X125184286Y-108976164D01*
X125136077Y-108993711D01*
X125110425Y-109038140D01*
X124545000Y-109038140D01*
X124545000Y-108769021D01*
X124755714Y-108769021D01*
X124759926Y-108767487D01*
X124764288Y-108768530D01*
X124789255Y-108761103D01*
X124860684Y-108725389D01*
X124861808Y-108724201D01*
X124880177Y-108711339D01*
X124915891Y-108675624D01*
X124916582Y-108674141D01*
X124929939Y-108656133D01*
X124965653Y-108584705D01*
X124966165Y-108580251D01*
X124969048Y-108576816D01*
X124973571Y-108551164D01*
X124973571Y-108444021D01*
X124972037Y-108439808D01*
X124973080Y-108435447D01*
X124965653Y-108410481D01*
X124929939Y-108339051D01*
X124928749Y-108337925D01*
X124915890Y-108319559D01*
X124880176Y-108283845D01*
X124878694Y-108283154D01*
X124860684Y-108269796D01*
X124789255Y-108234082D01*
X124784801Y-108233569D01*
X124781366Y-108230687D01*
X124755714Y-108226164D01*
X124470000Y-108226164D01*
X124451691Y-108232827D01*
X124432500Y-108236212D01*
X124428149Y-108241396D01*
X124421791Y-108243711D01*
X124412048Y-108260584D01*
X124399523Y-108275512D01*
X124397805Y-108285254D01*
X124396139Y-108288140D01*
X124396717Y-108291422D01*
X124395000Y-108301164D01*
X124395000Y-109051164D01*
X124080714Y-109051164D01*
X124080714Y-108376164D01*
X124220000Y-108376164D01*
X124268209Y-108358617D01*
X124293861Y-108314188D01*
X124284952Y-108263664D01*
X124245652Y-108230687D01*
X124220000Y-108226164D01*
X123791428Y-108226164D01*
X123743219Y-108243711D01*
X123717567Y-108288140D01*
X123610424Y-108288140D01*
X123610424Y-108119021D01*
X126509286Y-108119021D01*
X126509286Y-109233307D01*
G37*
X121759428Y-85441164D02*
X122188000Y-85441164D01*
X121973714Y-86191164D02*
X121973714Y-85441164D01*
X122438000Y-86191164D02*
X122438000Y-85441164D01*
X122438000Y-85441164D02*
X122723714Y-85441164D01*
X122723714Y-85441164D02*
X122795143Y-85476878D01*
X122795143Y-85476878D02*
X122830857Y-85512592D01*
X122830857Y-85512592D02*
X122866571Y-85584021D01*
X122866571Y-85584021D02*
X122866571Y-85691164D01*
X122866571Y-85691164D02*
X122830857Y-85762592D01*
X122830857Y-85762592D02*
X122795143Y-85798307D01*
X122795143Y-85798307D02*
X122723714Y-85834021D01*
X122723714Y-85834021D02*
X122438000Y-85834021D01*
X123580857Y-86191164D02*
X123152286Y-86191164D01*
X123366571Y-86191164D02*
X123366571Y-85441164D01*
X123366571Y-85441164D02*
X123295143Y-85548307D01*
X123295143Y-85548307D02*
X123223714Y-85619735D01*
X123223714Y-85619735D02*
X123152286Y-85655450D01*
X124295143Y-86191164D02*
X123866572Y-86191164D01*
X124080857Y-86191164D02*
X124080857Y-85441164D01*
X124080857Y-85441164D02*
X124009429Y-85548307D01*
X124009429Y-85548307D02*
X123938000Y-85619735D01*
X123938000Y-85619735D02*
X123866572Y-85655450D01*
D15*
X120447089Y-123332295D02*
X120411375Y-123368010D01*
X120411375Y-123368010D02*
X120304232Y-123403724D01*
X120304232Y-123403724D02*
X120232804Y-123403724D01*
X120232804Y-123403724D02*
X120125661Y-123368010D01*
X120125661Y-123368010D02*
X120054232Y-123296581D01*
X120054232Y-123296581D02*
X120018518Y-123225152D01*
X120018518Y-123225152D02*
X119982804Y-123082295D01*
X119982804Y-123082295D02*
X119982804Y-122975152D01*
X119982804Y-122975152D02*
X120018518Y-122832295D01*
X120018518Y-122832295D02*
X120054232Y-122760867D01*
X120054232Y-122760867D02*
X120125661Y-122689438D01*
X120125661Y-122689438D02*
X120232804Y-122653724D01*
X120232804Y-122653724D02*
X120304232Y-122653724D01*
X120304232Y-122653724D02*
X120411375Y-122689438D01*
X120411375Y-122689438D02*
X120447089Y-122725152D01*
X120732804Y-122725152D02*
X120768518Y-122689438D01*
X120768518Y-122689438D02*
X120839947Y-122653724D01*
X120839947Y-122653724D02*
X121018518Y-122653724D01*
X121018518Y-122653724D02*
X121089947Y-122689438D01*
X121089947Y-122689438D02*
X121125661Y-122725152D01*
X121125661Y-122725152D02*
X121161375Y-122796581D01*
X121161375Y-122796581D02*
X121161375Y-122868010D01*
X121161375Y-122868010D02*
X121125661Y-122975152D01*
X121125661Y-122975152D02*
X120697089Y-123403724D01*
X120697089Y-123403724D02*
X121161375Y-123403724D01*
X125781089Y-115910724D02*
X125531089Y-115553581D01*
X125352518Y-115910724D02*
X125352518Y-115160724D01*
X125352518Y-115160724D02*
X125638232Y-115160724D01*
X125638232Y-115160724D02*
X125709661Y-115196438D01*
X125709661Y-115196438D02*
X125745375Y-115232152D01*
X125745375Y-115232152D02*
X125781089Y-115303581D01*
X125781089Y-115303581D02*
X125781089Y-115410724D01*
X125781089Y-115410724D02*
X125745375Y-115482152D01*
X125745375Y-115482152D02*
X125709661Y-115517867D01*
X125709661Y-115517867D02*
X125638232Y-115553581D01*
X125638232Y-115553581D02*
X125352518Y-115553581D01*
X126066804Y-115232152D02*
X126102518Y-115196438D01*
X126102518Y-115196438D02*
X126173947Y-115160724D01*
X126173947Y-115160724D02*
X126352518Y-115160724D01*
X126352518Y-115160724D02*
X126423947Y-115196438D01*
X126423947Y-115196438D02*
X126459661Y-115232152D01*
X126459661Y-115232152D02*
X126495375Y-115303581D01*
X126495375Y-115303581D02*
X126495375Y-115375010D01*
X126495375Y-115375010D02*
X126459661Y-115482152D01*
X126459661Y-115482152D02*
X126031089Y-115910724D01*
X126031089Y-115910724D02*
X126495375Y-115910724D01*
D10*
X115528164Y-118488999D02*
X115528164Y-118846142D01*
X115528164Y-118846142D02*
X114778164Y-118846142D01*
X115528164Y-117846142D02*
X115528164Y-118274713D01*
X115528164Y-118060428D02*
X114778164Y-118060428D01*
X114778164Y-118060428D02*
X114885307Y-118131856D01*
X114885307Y-118131856D02*
X114956735Y-118203285D01*
X114956735Y-118203285D02*
X114992450Y-118274713D01*
D15*
%TO.C,R1*%
X124535000Y-114691000D02*
X123638000Y-114691000D01*
X124535000Y-113401000D02*
X124535000Y-114691000D01*
X123638000Y-113401000D02*
X124535000Y-113401000D01*
X122742000Y-113401000D02*
X121845000Y-113401000D01*
X121845000Y-114691000D02*
X122742000Y-114691000D01*
X121845000Y-113401000D02*
X121845000Y-114691000D01*
%TO.C,R3*%
X120702000Y-111877000D02*
X121599000Y-111877000D01*
X120702000Y-113167000D02*
X120702000Y-111877000D01*
X121599000Y-113167000D02*
X120702000Y-113167000D01*
X122495000Y-113167000D02*
X123392000Y-113167000D01*
X123392000Y-111877000D02*
X122495000Y-111877000D01*
X123392000Y-113167000D02*
X123392000Y-111877000D01*
%TO.C,C12*%
X97058000Y-108744000D02*
X97058000Y-109654000D01*
X95728000Y-108744000D02*
X97058000Y-108744000D01*
X95728000Y-109654000D02*
X95728000Y-108744000D01*
X95728000Y-110564000D02*
X95728000Y-111474000D01*
X97058000Y-111474000D02*
X97058000Y-110564000D01*
X95728000Y-111474000D02*
X97058000Y-111474000D01*
%TO.C,C14*%
X97058000Y-105696000D02*
X97058000Y-106606000D01*
X95728000Y-105696000D02*
X97058000Y-105696000D01*
X95728000Y-106606000D02*
X95728000Y-105696000D01*
X95728000Y-107516000D02*
X95728000Y-108426000D01*
X97058000Y-108426000D02*
X97058000Y-107516000D01*
X95728000Y-108426000D02*
X97058000Y-108426000D01*
%TO.C,C4*%
X116808000Y-115092000D02*
X115898000Y-115092000D01*
X116808000Y-113762000D02*
X116808000Y-115092000D01*
X115898000Y-113762000D02*
X116808000Y-113762000D01*
X114988000Y-113762000D02*
X114078000Y-113762000D01*
X114078000Y-115092000D02*
X114988000Y-115092000D01*
X114078000Y-113762000D02*
X114078000Y-115092000D01*
%TO.C,*%
X127906500Y-102298500D02*
X128506500Y-102298500D01*
X128206500Y-101998500D02*
X127906500Y-102298500D01*
X128206500Y-101998500D02*
X128506500Y-102298500D01*
%TO.C,JP2*%
X128923000Y-97871000D02*
X128923000Y-98471000D01*
X128273000Y-99171000D02*
X125473000Y-99171000D01*
X125473000Y-97171000D02*
X128273000Y-97171000D01*
X124823000Y-98471000D02*
X124823000Y-97871000D01*
X128223000Y-99171000D02*
G75*
G03*
X128923000Y-98471000I1J699999D01*
G01*
X128923000Y-97871000D02*
G75*
G03*
X128223000Y-97171000I-699999J1D01*
G01*
X124823000Y-98471000D02*
G75*
G03*
X125523000Y-99171000I700000J0D01*
G01*
X125523000Y-97171000D02*
G75*
G03*
X124823000Y-97871000I0J-700000D01*
G01*
%TO.C,TP12*%
X128881000Y-121031000D02*
G75*
G03*
X128881000Y-121031000I-1500000J0D01*
G01*
%TO.C,C7*%
X122144000Y-111728000D02*
X122144000Y-110818000D01*
X123474000Y-111728000D02*
X122144000Y-111728000D01*
X123474000Y-110818000D02*
X123474000Y-111728000D01*
X123474000Y-109908000D02*
X123474000Y-108998000D01*
X122144000Y-108998000D02*
X122144000Y-109908000D01*
X123474000Y-108998000D02*
X122144000Y-108998000D01*
%TO.C,SW1*%
X137495000Y-124200000D02*
X125395000Y-124200000D01*
X137495000Y-129800000D02*
X125395000Y-129800000D01*
%TO.C,C6*%
X121825000Y-116429000D02*
X122735000Y-116429000D01*
X121825000Y-117759000D02*
X121825000Y-116429000D01*
X122735000Y-117759000D02*
X121825000Y-117759000D01*
X123645000Y-117759000D02*
X124555000Y-117759000D01*
X124555000Y-116429000D02*
X123645000Y-116429000D01*
X124555000Y-117759000D02*
X124555000Y-116429000D01*
%TO.C,C8*%
X120620000Y-111728000D02*
X120620000Y-110818000D01*
X121950000Y-111728000D02*
X120620000Y-111728000D01*
X121950000Y-110818000D02*
X121950000Y-111728000D01*
X121950000Y-109908000D02*
X121950000Y-108998000D01*
X120620000Y-108998000D02*
X120620000Y-109908000D01*
X121950000Y-108998000D02*
X120620000Y-108998000D01*
%TO.C,J2*%
X137410000Y-93541000D02*
X136390000Y-93541000D01*
X137410000Y-89291000D02*
X137410000Y-93541000D01*
X136390000Y-93541000D02*
X136390000Y-91941000D01*
X136390000Y-91941000D02*
X135110000Y-91941000D01*
X135690000Y-85721000D02*
X131010000Y-85721000D01*
X135110000Y-91941000D02*
X135110000Y-94831000D01*
X130310000Y-93541000D02*
X130310000Y-91941000D01*
X130310000Y-91941000D02*
X131590000Y-91941000D01*
X129290000Y-93541000D02*
X130310000Y-93541000D01*
X129290000Y-89291000D02*
X129290000Y-93541000D01*
%TO.C,TP4*%
X125660000Y-94234000D02*
G75*
G03*
X125660000Y-94234000I-1200000J0D01*
G01*
D17*
%TO.C,U1*%
X101600000Y-103060500D02*
X101600000Y-87439500D01*
X104140000Y-84899500D02*
X116840000Y-84899500D01*
X106045000Y-84899500D02*
X106045000Y-83820000D01*
X114935000Y-83820000D02*
X106045000Y-83820000D01*
X114935000Y-84899500D02*
X114935000Y-83820000D01*
X116840000Y-105600500D02*
X104140000Y-105600500D01*
X119380000Y-87439500D02*
X119380000Y-103060500D01*
X104140000Y-84899500D02*
G75*
G03*
X101600000Y-87439500I1J-2540001D01*
G01*
X101600000Y-103060500D02*
G75*
G03*
X104140000Y-105600500I2540001J1D01*
G01*
X119380000Y-87439500D02*
G75*
G03*
X116840000Y-84899500I-2540000J0D01*
G01*
X116840000Y-105600500D02*
G75*
G03*
X119380000Y-103060500I0J2540000D01*
G01*
D15*
%TO.C,C9*%
X117030000Y-110593000D02*
X118089000Y-110593000D01*
X117030000Y-112419000D02*
X117030000Y-110593000D01*
X118089000Y-112419000D02*
X117030000Y-112419000D01*
X119147000Y-112419000D02*
X120206000Y-112419000D01*
X120206000Y-110593000D02*
X119147000Y-110593000D01*
X120206000Y-112419000D02*
X120206000Y-110593000D01*
%TO.C,TP3*%
X110674000Y-120142000D02*
G75*
G03*
X110674000Y-120142000I-1200000J0D01*
G01*
%TO.C,C3*%
X116014000Y-124309000D02*
X117073000Y-124309000D01*
X116014000Y-126135000D02*
X116014000Y-124309000D01*
X117073000Y-126135000D02*
X116014000Y-126135000D01*
X118131000Y-126135000D02*
X119190000Y-126135000D01*
X119190000Y-124309000D02*
X118131000Y-124309000D01*
X119190000Y-126135000D02*
X119190000Y-124309000D01*
%TO.C,TP6*%
X122866000Y-98552000D02*
G75*
G03*
X122866000Y-98552000I-1200000J0D01*
G01*
%TO.C,R4*%
X116788000Y-113548000D02*
X115891000Y-113548000D01*
X116788000Y-112258000D02*
X116788000Y-113548000D01*
X115891000Y-112258000D02*
X116788000Y-112258000D01*
X114995000Y-112258000D02*
X114098000Y-112258000D01*
X114098000Y-113548000D02*
X114995000Y-113548000D01*
X114098000Y-112258000D02*
X114098000Y-113548000D01*
%TO.C,*%
X125966500Y-96710500D02*
X125366500Y-96710500D01*
X125666500Y-97010500D02*
X125966500Y-96710500D01*
X125666500Y-97010500D02*
X125366500Y-96710500D01*
%TO.C,R5*%
X118797000Y-115306000D02*
X119694000Y-115306000D01*
X118797000Y-116596000D02*
X118797000Y-115306000D01*
X119694000Y-116596000D02*
X118797000Y-116596000D01*
X120590000Y-116596000D02*
X121487000Y-116596000D01*
X121487000Y-115306000D02*
X120590000Y-115306000D01*
X121487000Y-116596000D02*
X121487000Y-115306000D01*
%TO.C,TP7*%
X122747000Y-118999000D02*
G75*
G03*
X122747000Y-118999000I-700000J0D01*
G01*
%TO.C,TP9*%
X122747000Y-123190000D02*
G75*
G03*
X122747000Y-123190000I-700000J0D01*
G01*
%TO.C,C1*%
X116014000Y-119991000D02*
X117073000Y-119991000D01*
X116014000Y-121817000D02*
X116014000Y-119991000D01*
X117073000Y-121817000D02*
X116014000Y-121817000D01*
X118131000Y-121817000D02*
X119190000Y-121817000D01*
X119190000Y-119991000D02*
X118131000Y-119991000D01*
X119190000Y-121817000D02*
X119190000Y-119991000D01*
%TO.C,TP5*%
X122866000Y-94234000D02*
G75*
G03*
X122866000Y-94234000I-1200000J0D01*
G01*
%TO.C,D2*%
X126090000Y-93914000D02*
X126425000Y-93914000D01*
X127910000Y-93914000D02*
X127575000Y-93914000D01*
X126090000Y-90944000D02*
X126090000Y-93914000D01*
X126425000Y-90944000D02*
X126090000Y-90944000D01*
X127575000Y-90944000D02*
X127910000Y-90944000D01*
X127910000Y-90944000D02*
X127910000Y-93914000D01*
D18*
X127125000Y-94984000D02*
G75*
G03*
X127125000Y-94984000I-125000J0D01*
G01*
D15*
%TO.C,R7*%
X98181000Y-95683000D02*
X98181000Y-96580000D01*
X96891000Y-95683000D02*
X98181000Y-95683000D01*
X96891000Y-96580000D02*
X96891000Y-95683000D01*
X96891000Y-97476000D02*
X96891000Y-98373000D01*
X98181000Y-98373000D02*
X98181000Y-97476000D01*
X96891000Y-98373000D02*
X98181000Y-98373000D01*
%TO.C,*%
X125366500Y-102298500D02*
X125966500Y-102298500D01*
X125666500Y-101998500D02*
X125366500Y-102298500D01*
X125666500Y-101998500D02*
X125966500Y-102298500D01*
%TO.C,C13*%
X98655000Y-107326000D02*
X98655000Y-107743000D01*
X98655000Y-110098000D02*
X98655000Y-109681000D01*
X99579000Y-106402000D02*
X98655000Y-107326000D01*
X99579000Y-111022000D02*
X98655000Y-110098000D01*
X103275000Y-106402000D02*
X99579000Y-106402000D01*
X103275000Y-107743000D02*
X103275000Y-106402000D01*
X103275000Y-109681000D02*
X103275000Y-111022000D01*
X103275000Y-111022000D02*
X99579000Y-111022000D01*
%TO.C,TP8*%
X122747000Y-121031000D02*
G75*
G03*
X122747000Y-121031000I-700000J0D01*
G01*
%TO.C,J3*%
X153155000Y-93280000D02*
X153155000Y-92230000D01*
X155655000Y-93280000D02*
X153155000Y-93280000D01*
X153155000Y-92230000D02*
X152165000Y-92230000D01*
X157625000Y-92110000D02*
X157625000Y-88230000D01*
X153155000Y-87060000D02*
X153155000Y-88110000D01*
X155655000Y-87060000D02*
X153155000Y-87060000D01*
%TO.C,J5*%
X93970000Y-114130000D02*
X86170000Y-114130000D01*
X86170000Y-114130000D02*
X86170000Y-124630000D01*
X86170000Y-124630000D02*
X93970000Y-124630000D01*
X93970000Y-124630000D02*
X93970000Y-114130000D01*
%TO.C,*%
X128506500Y-96710500D02*
X127906500Y-96710500D01*
X128206500Y-97010500D02*
X128506500Y-96710500D01*
X128206500Y-97010500D02*
X127906500Y-96710500D01*
%TO.C,TP2*%
X124136000Y-126746000D02*
G75*
G03*
X124136000Y-126746000I-1200000J0D01*
G01*
%TO.C,U2*%
X119868000Y-112792000D02*
X119268000Y-112792000D01*
X119268000Y-114792000D02*
X119868000Y-114792000D01*
X117368000Y-114792000D02*
X117968000Y-114792000D01*
X117368000Y-112792000D02*
X117968000Y-112792000D01*
D16*
X120018000Y-114992000D02*
G75*
G03*
X120018000Y-114992000I-50000J0D01*
G01*
%TO.C,kibuzzard-652B282B*%
G36*
X127464741Y-131701381D02*
G01*
X126521766Y-131701381D01*
X126521766Y-130922713D01*
X127464741Y-130922713D01*
X127464741Y-131701381D01*
G37*
G36*
X130292078Y-132428456D02*
G01*
X129795984Y-132428456D01*
X127445691Y-132428456D01*
X126236016Y-132428456D01*
X125739922Y-132428456D01*
X125073648Y-132428456D01*
X125309630Y-131641850D01*
X126236016Y-131641850D01*
X126252387Y-131785320D01*
X126301500Y-131872831D01*
X126394071Y-131917480D01*
X126540816Y-131932363D01*
X127445691Y-131932363D01*
X127592435Y-131917480D01*
X127685006Y-131872831D01*
X127734120Y-131785320D01*
X127750491Y-131641850D01*
X127750491Y-130994150D01*
X127734120Y-130850680D01*
X127685006Y-130763169D01*
X127592435Y-130718520D01*
X127445691Y-130703637D01*
X128350566Y-130703637D01*
X128350566Y-131932363D01*
X128607741Y-131932363D01*
X128607741Y-131260850D01*
X128595834Y-131072731D01*
X128698228Y-131172744D01*
X129600722Y-131932363D01*
X129795984Y-131932363D01*
X129795984Y-130703637D01*
X129538809Y-130703637D01*
X129538809Y-131348956D01*
X129541786Y-131422180D01*
X129550716Y-131560888D01*
X129410222Y-131427537D01*
X128545828Y-130703637D01*
X128350566Y-130703637D01*
X127445691Y-130703637D01*
X126540816Y-130703637D01*
X126394071Y-130718520D01*
X126301500Y-130763169D01*
X126252387Y-130850680D01*
X126236016Y-130994150D01*
X126236016Y-131641850D01*
X125309630Y-131641850D01*
X125739922Y-130207544D01*
X126236016Y-130207544D01*
X129795984Y-130207544D01*
X130292078Y-130207544D01*
X130958352Y-130207544D01*
X130292078Y-132428456D01*
G37*
D15*
%TO.C,R6*%
X88515000Y-107765000D02*
X88515000Y-109405000D01*
X86745000Y-107765000D02*
X86745000Y-109405000D01*
%TO.C,TP1*%
X129089000Y-116332000D02*
G75*
G03*
X129089000Y-116332000I-1200000J0D01*
G01*
%TO.C,C10*%
X117030000Y-108434000D02*
X118089000Y-108434000D01*
X117030000Y-110260000D02*
X117030000Y-108434000D01*
X118089000Y-110260000D02*
X117030000Y-110260000D01*
X119147000Y-110260000D02*
X120206000Y-110260000D01*
X120206000Y-108434000D02*
X119147000Y-108434000D01*
X120206000Y-110260000D02*
X120206000Y-108434000D01*
%TO.C,kibuzzard-652B2846*%
G36*
X132988844Y-131701381D02*
G01*
X132045869Y-131701381D01*
X132045869Y-130922713D01*
X132988844Y-130922713D01*
X132988844Y-131701381D01*
G37*
G36*
X137213975Y-132428456D02*
G01*
X136717881Y-132428456D01*
X135760619Y-132428456D01*
X134162800Y-132428456D01*
X132969794Y-132428456D01*
X131760119Y-132428456D01*
X131264025Y-132428456D01*
X130597751Y-132428456D01*
X130833733Y-131641850D01*
X131760119Y-131641850D01*
X131776490Y-131785320D01*
X131825603Y-131872831D01*
X131918174Y-131917480D01*
X132064919Y-131932363D01*
X132969794Y-131932363D01*
X133116538Y-131917480D01*
X133209109Y-131872831D01*
X133258223Y-131785320D01*
X133274594Y-131641850D01*
X133274594Y-130994150D01*
X133258223Y-130850680D01*
X133209109Y-130763169D01*
X133116538Y-130718520D01*
X132969794Y-130703637D01*
X133877050Y-130703637D01*
X133877050Y-131932363D01*
X134162800Y-131932363D01*
X134162800Y-131465637D01*
X134679531Y-131465637D01*
X134679531Y-131241800D01*
X134162800Y-131241800D01*
X134162800Y-130917950D01*
X135120062Y-130917950D01*
X135120062Y-130703637D01*
X135474869Y-130703637D01*
X135474869Y-131932363D01*
X135760619Y-131932363D01*
X135760619Y-131465637D01*
X136277350Y-131465637D01*
X136277350Y-131241800D01*
X135760619Y-131241800D01*
X135760619Y-130917950D01*
X136717881Y-130917950D01*
X136717881Y-130703637D01*
X135474869Y-130703637D01*
X135120062Y-130703637D01*
X133877050Y-130703637D01*
X132969794Y-130703637D01*
X132064919Y-130703637D01*
X131918174Y-130718520D01*
X131825603Y-130763169D01*
X131776490Y-130850680D01*
X131760119Y-130994150D01*
X131760119Y-131641850D01*
X130833733Y-131641850D01*
X131264025Y-130207544D01*
X131760119Y-130207544D01*
X136717881Y-130207544D01*
X137213975Y-130207544D01*
X137880249Y-130207544D01*
X137213975Y-132428456D01*
G37*
%TO.C,R8*%
X99832000Y-95683000D02*
X99832000Y-96580000D01*
X98542000Y-95683000D02*
X99832000Y-95683000D01*
X98542000Y-96580000D02*
X98542000Y-95683000D01*
X98542000Y-97476000D02*
X98542000Y-98373000D01*
X99832000Y-98373000D02*
X99832000Y-97476000D01*
X98542000Y-98373000D02*
X99832000Y-98373000D01*
%TO.C,C5*%
X118521000Y-116616000D02*
X117611000Y-116616000D01*
X118521000Y-115286000D02*
X118521000Y-116616000D01*
X117611000Y-115286000D02*
X118521000Y-115286000D01*
X116701000Y-115286000D02*
X115791000Y-115286000D01*
X115791000Y-116616000D02*
X116701000Y-116616000D01*
X115791000Y-115286000D02*
X115791000Y-116616000D01*
%TO.C,JP1*%
X124823000Y-101138000D02*
X124823000Y-100538000D01*
X125473000Y-99838000D02*
X128273000Y-99838000D01*
X128273000Y-101838000D02*
X125473000Y-101838000D01*
X128923000Y-100538000D02*
X128923000Y-101138000D01*
X125523000Y-99838000D02*
G75*
G03*
X124823000Y-100538000I-1J-699999D01*
G01*
X124823000Y-101138000D02*
G75*
G03*
X125523000Y-101838000I699999J-1D01*
G01*
X128923000Y-100538000D02*
G75*
G03*
X128223000Y-99838000I-700000J0D01*
G01*
X128223000Y-101838000D02*
G75*
G03*
X128923000Y-101138000I0J700000D01*
G01*
%TO.C,J4*%
X93970000Y-91270000D02*
X86170000Y-91270000D01*
X86170000Y-91270000D02*
X86170000Y-101770000D01*
X86170000Y-101770000D02*
X93970000Y-101770000D01*
X93970000Y-101770000D02*
X93970000Y-91270000D01*
%TO.C,C11*%
X117030000Y-106275000D02*
X118089000Y-106275000D01*
X117030000Y-108101000D02*
X117030000Y-106275000D01*
X118089000Y-108101000D02*
X117030000Y-108101000D01*
X119147000Y-108101000D02*
X120206000Y-108101000D01*
X120206000Y-106275000D02*
X119147000Y-106275000D01*
X120206000Y-108101000D02*
X120206000Y-106275000D01*
D19*
%TO.C,U7*%
X129540000Y-123190000D02*
X157480000Y-123190000D01*
X157480000Y-123190000D02*
X157480000Y-95250000D01*
X157480000Y-95250000D02*
X129540000Y-95250000D01*
X129540000Y-95250000D02*
X129540000Y-123190000D01*
X130810000Y-114300000D02*
X133350000Y-114300000D01*
X133350000Y-114300000D02*
X133350000Y-104140000D01*
X133350000Y-104140000D02*
X130810000Y-104140000D01*
X130810000Y-104140000D02*
X130810000Y-114300000D01*
D15*
%TO.C,U3*%
X94972000Y-106450000D02*
X94161000Y-106450000D01*
X90702000Y-106450000D02*
X91513000Y-106450000D01*
X94972000Y-107261000D02*
X94972000Y-106450000D01*
X90702000Y-107261000D02*
X90702000Y-106450000D01*
X94972000Y-109909000D02*
X94972000Y-110720000D01*
X90702000Y-109909000D02*
X90702000Y-110720000D01*
X94972000Y-110720000D02*
X94161000Y-110720000D01*
X90702000Y-110720000D02*
X91513000Y-110720000D01*
D18*
X90397000Y-107071000D02*
G75*
G03*
X90397000Y-107071000I-125000J0D01*
G01*
D15*
%TO.C,TP10*%
X125795000Y-110363000D02*
G75*
G03*
X125795000Y-110363000I-700000J0D01*
G01*
%TO.C,TP11*%
X124563000Y-88265000D02*
G75*
G03*
X124563000Y-88265000I-1500000J0D01*
G01*
%TO.C,C2*%
X116014000Y-122150000D02*
X117073000Y-122150000D01*
X116014000Y-123976000D02*
X116014000Y-122150000D01*
X117073000Y-123976000D02*
X116014000Y-123976000D01*
X118131000Y-123976000D02*
X119190000Y-123976000D01*
X119190000Y-122150000D02*
X118131000Y-122150000D01*
X119190000Y-123976000D02*
X119190000Y-122150000D01*
%TO.C,R2*%
X121845000Y-114925000D02*
X122742000Y-114925000D01*
X121845000Y-116215000D02*
X121845000Y-114925000D01*
X122742000Y-116215000D02*
X121845000Y-116215000D01*
X123638000Y-116215000D02*
X124535000Y-116215000D01*
X124535000Y-114925000D02*
X123638000Y-114925000D01*
X124535000Y-116215000D02*
X124535000Y-114925000D01*
%TO.C,L1*%
X117260000Y-117204000D02*
X117846000Y-117204000D01*
X117260000Y-119524000D02*
X117846000Y-119524000D01*
%TD*%
M02*
